<svg width="4833" height="4000" viewBox="0 0 4833 4000" fill="none" xmlns="http://www.w3.org/2000/svg">
<rect width="4833" height="4000" fill="#F2F4F9"/>
<g filter="url(#filter0_ii_366_601)">
<rect x="2752.28" y="542" width="1695.84" height="1237.96" rx="30.5007" fill="white"/>
</g>
<rect x="2758.38" y="548.1" width="1683.64" height="1225.76" rx="24.4005" stroke="black" stroke-width="12.2003"/>
<path d="M2899.16 798.001C2935.18 798.001 2964.38 768.802 2964.38 732.784C2964.38 696.766 2935.18 667.567 2899.16 667.567C2863.14 667.567 2833.95 696.766 2833.95 732.784C2833.95 768.802 2863.14 798.001 2899.16 798.001Z" fill="#333333"/>
<path d="M2899.1 774.079C2891.83 774.078 2884.7 772.154 2878.42 768.504C2872.14 764.854 2866.94 759.607 2863.35 753.296C2859.75 746.986 2857.89 739.836 2857.95 732.573C2858.01 725.31 2859.99 718.193 2863.7 711.944C2867.35 705.794 2872.54 700.698 2878.76 697.155C2880.05 696.416 2881.59 696.222 2883.03 696.617C2884.47 697.012 2885.69 697.962 2886.43 699.26C2887.17 700.557 2887.37 702.095 2886.97 703.535C2886.58 704.974 2885.63 706.198 2884.33 706.937C2879.74 709.555 2875.93 713.337 2873.27 717.902C2870.62 722.466 2869.22 727.651 2869.21 732.931C2869.21 749.411 2882.62 762.82 2899.1 762.82C2915.58 762.82 2928.99 749.411 2928.99 732.931C2928.98 727.651 2927.58 722.466 2924.92 717.901C2922.27 713.337 2918.45 709.555 2913.87 706.937C2913.21 706.577 2912.64 706.091 2912.17 705.506C2911.71 704.922 2911.37 704.251 2911.17 703.533C2910.96 702.815 2910.91 702.064 2911 701.324C2911.09 700.583 2911.32 699.868 2911.69 699.22C2912.06 698.572 2912.56 698.003 2913.15 697.548C2913.74 697.092 2914.41 696.759 2915.13 696.567C2915.86 696.375 2916.61 696.328 2917.35 696.429C2918.09 696.53 2918.8 696.776 2919.44 697.155C2925.76 700.748 2931.02 705.951 2934.67 712.236C2938.32 718.52 2940.25 725.661 2940.25 732.931C2940.25 738.336 2939.19 743.689 2937.12 748.684C2935.06 753.678 2932.02 758.216 2928.2 762.038C2924.38 765.86 2919.84 768.891 2914.85 770.958C2909.85 773.024 2904.5 774.086 2899.1 774.082L2899.1 774.079Z" fill="white"/>
<path d="M2899.11 728.024C2898.37 728.024 2897.64 727.878 2896.95 727.595C2896.27 727.313 2895.65 726.898 2895.13 726.375C2894.6 725.852 2894.19 725.231 2893.9 724.548C2893.62 723.865 2893.48 723.133 2893.48 722.394V690.771C2893.5 689.292 2894.1 687.882 2895.15 686.844C2896.21 685.806 2897.63 685.225 2899.11 685.225C2900.58 685.225 2902 685.806 2903.06 686.844C2904.11 687.882 2904.71 689.292 2904.74 690.771V722.394C2904.74 723.133 2904.59 723.865 2904.31 724.548C2904.02 725.231 2903.61 725.852 2903.09 726.375C2902.56 726.897 2901.94 727.312 2901.26 727.595C2900.58 727.878 2899.85 728.024 2899.11 728.024V728.024Z" fill="white"/>
<g filter="url(#filter1_ii_366_601)">
<rect x="2752.28" y="923.566" width="1695.84" height="296.771" fill="#1B75BA"/>
</g>
<rect x="2758.38" y="929.667" width="1683.64" height="284.571" stroke="black" stroke-width="12.2003"/>
<g filter="url(#filter2_ii_366_601)">
<rect x="2752.28" y="1203.38" width="1695.84" height="296.771" fill="#918D8C"/>
</g>
<rect x="2758.38" y="1209.48" width="1683.64" height="284.571" stroke="black" stroke-width="12.2003"/>
<g filter="url(#filter3_ii_366_601)">
<path d="M2752.28 1483.19H4448.12V1749.46C4448.12 1766.31 4434.46 1779.96 4417.62 1779.96H2782.78C2765.94 1779.96 2752.28 1766.31 2752.28 1749.46V1483.19Z" fill="black"/>
</g>
<path d="M2758.38 1489.29H4442.02V1749.46C4442.02 1762.94 4431.09 1773.86 4417.62 1773.86H2782.78C2769.31 1773.86 2758.38 1762.94 2758.38 1749.46V1489.29Z" stroke="black" stroke-width="12.2003"/>
<path d="M2879.47 1500.15H4320.93V1595.13C4320.93 1603.55 4314.11 1610.38 4305.68 1610.38H2894.72C2886.3 1610.38 2879.47 1603.55 2879.47 1595.13V1500.15Z" fill="url(#paint0_linear_366_601)"/>
<g filter="url(#filter4_i_366_601)">
<rect x="3015.15" y="601.352" width="220.459" height="271.334" rx="36.6008" fill="white"/>
</g>
<rect x="3018.2" y="604.402" width="214.359" height="265.234" rx="33.5507" stroke="black" stroke-width="6.10013"/>
<path d="M3032.13 601.352H3218.67V831.327C3218.67 844.803 3207.75 855.727 3194.27 855.727H3056.53C3043.05 855.727 3032.13 844.803 3032.13 831.327V601.352Z" fill="white"/>
<path d="M3032.13 634.234C3032.13 622.731 3032.13 616.98 3035.7 613.406C3039.28 609.833 3045.03 609.833 3056.53 609.833H3194.27C3205.77 609.833 3211.52 609.833 3215.1 613.406C3218.67 616.98 3218.67 622.731 3218.67 634.234V695.662C3218.67 707.164 3218.67 712.916 3215.1 716.489C3211.52 720.062 3205.77 720.062 3194.27 720.062H3056.53C3045.03 720.062 3039.28 720.062 3035.7 716.489C3032.13 712.916 3032.13 707.164 3032.13 695.662V634.234Z" fill="url(#paint1_linear_366_601)"/>
<g filter="url(#filter5_i_366_601)">
<rect x="3430.62" y="694.622" width="356.126" height="84.7918" rx="36.6008" fill="#D9D9D9"/>
</g>
<rect x="3433.68" y="697.672" width="350.026" height="78.6917" rx="33.5507" stroke="black" stroke-width="6.10013"/>
<path d="M3487.53 738.862H3729.71" stroke="black" stroke-width="12.2003" stroke-linecap="round"/>
<rect x="3979.35" y="692.248" width="343.925" height="157.383" fill="#911016" stroke="black" stroke-width="12.2003"/>
<rect x="4032.62" y="813.338" width="228.938" height="42.3959" fill="black"/>
<circle cx="4058.06" cy="762.463" r="16.9584" fill="black"/>
<circle cx="4117.43" cy="762.463" r="16.9584" fill="black"/>
<circle cx="4176.76" cy="762.463" r="16.9584" fill="black"/>
<circle cx="4236.1" cy="762.463" r="16.9584" fill="black"/>
<line x1="3990.23" y1="657.658" x2="4007.19" y2="657.658" stroke="black" stroke-width="6.10013"/>
<line x1="3998.72" y1="623.746" x2="4032.64" y2="623.746" stroke="black" stroke-width="6.10013"/>
<line x1="4024.16" y1="657.658" x2="4041.12" y2="657.658" stroke="black" stroke-width="6.10013"/>
<line x1="4004.16" y1="660.708" x2="4004.16" y2="618.312" stroke="black" stroke-width="6.10013"/>
<line x1="4029.54" y1="660.708" x2="4029.54" y2="618.312" stroke="black" stroke-width="6.10013"/>
<line x1="4083.46" y1="657.658" x2="4117.38" y2="657.658" stroke="black" stroke-width="6.10013"/>
<line x1="4108.9" y1="623.746" x2="4142.82" y2="623.746" stroke="black" stroke-width="6.10013"/>
<line x1="4114.34" y1="660.708" x2="4114.34" y2="618.312" stroke="black" stroke-width="6.10013"/>
<line x1="4207.57" y1="660.708" x2="4207.57" y2="618.312" stroke="black" stroke-width="6.10013"/>
<line x1="4185.19" y1="640.703" x2="4227.58" y2="640.703" stroke="black" stroke-width="6.10013"/>
<line x1="4270.02" y1="640.703" x2="4312.42" y2="640.703" stroke="black" stroke-width="6.10013"/>
<g filter="url(#filter6_i_366_601)">
<path d="M3133.89 923.566H3337.39V1087.78C3337.39 1128.21 3304.61 1160.98 3264.19 1160.98H3207.09C3166.66 1160.98 3133.89 1128.21 3133.89 1087.78V923.566Z" fill="#686867"/>
</g>
<path d="M3139.99 929.667H3331.29V1087.78C3331.29 1124.84 3301.24 1154.88 3264.19 1154.88H3207.09C3170.03 1154.88 3139.99 1124.84 3139.99 1087.78V929.667Z" stroke="black" stroke-width="12.2003"/>
<g filter="url(#filter7_i_366_601)">
<path d="M3133.89 1203.38H3337.39V1367.59C3337.39 1408.02 3304.61 1440.8 3264.19 1440.8H3207.09C3166.66 1440.8 3133.89 1408.02 3133.89 1367.59V1203.38Z" fill="#686867"/>
</g>
<path d="M3139.99 1209.48H3331.29V1367.59C3331.29 1404.65 3301.24 1434.7 3264.19 1434.7H3207.09C3170.03 1434.7 3139.99 1404.65 3139.99 1367.59V1209.48Z" stroke="black" stroke-width="12.2003"/>
<circle cx="3235.58" cy="1025.31" r="67.8335" fill="black"/>
<g filter="url(#filter8_i_366_601)">
<circle cx="3235.61" cy="1025.31" r="50.8751" fill="#FFD700"/>
</g>
<circle cx="3235.56" cy="1025.31" r="16.9584" fill="black"/>
<circle cx="3235.58" cy="1305.13" r="67.8335" fill="black"/>
<g filter="url(#filter9_i_366_601)">
<circle cx="3235.61" cy="1305.12" r="50.8751" fill="#FFD700"/>
</g>
<circle cx="3235.56" cy="1305.13" r="16.9584" fill="black"/>
<path d="M2613.38 1312.24H2597.63V1343.73H2613.38V1312.24ZM3030.72 1327.99L2873.23 1237.06V1418.91L3030.72 1327.99ZM2613.38 1343.73H2888.98V1312.24H2613.38V1343.73Z" fill="black"/>
<mask id="path-48-inside-1_366_601" fill="white">
<path d="M1796.26 3116.76C1790.85 3116.76 1785.26 3116.76 1779.85 3116.57C1775.47 3116.76 1771.28 3116.57 1766.93 3116.57C1764.84 3116.57 1762.74 3116.39 1760.81 3116.39C1758.53 3116.39 1756.27 3116.39 1754.18 3116.2C1745.45 3116.2 1736.7 3115.85 1728.16 3115.51C1712.78 3114.98 1697.43 3114.29 1682.39 3113.41C1672.45 3112.88 1662.48 3112.19 1652.69 3111.5C1644.47 3110.97 1636.44 3110.28 1628.43 3109.59C1620.21 3108.9 1612.36 3108.19 1604.32 3107.31C1595.6 3106.44 1587.03 3105.56 1578.65 3104.53C1571.31 3103.65 1563.99 3102.77 1556.83 3101.9C1555.08 3101.71 1553.17 3101.37 1551.42 3101.21C1545.82 3100.52 1540.23 3099.64 1534.66 3098.77C1526.97 3097.71 1519.65 3096.67 1512.12 3095.45C1504.61 3094.39 1497.27 3093.01 1489.92 3091.79C1486.95 3091.26 1483.98 3090.73 1481.01 3090.22C1461.79 3086.72 1443.12 3082.87 1424.77 3078.87C1411.14 3075.71 1397.88 3072.58 1384.78 3069.26C1371.33 3065.76 1358.23 3062.28 1345.29 3058.44C1338.82 3056.69 1332.38 3054.78 1326.09 3052.68C1319.81 3050.93 1313.52 3048.83 1307.24 3046.74C1301.11 3044.83 1294.83 3042.73 1288.89 3040.61C1282.76 3038.51 1276.85 3036.41 1270.91 3034.32C1270.72 3034.13 1270.56 3034.13 1270.56 3034.13C1258.52 3029.75 1246.8 3025.22 1235.29 3020.49C1224.98 3016.3 1214.69 3011.92 1204.72 3007.57C1195.28 3003.57 1186.21 2999.19 1177.11 2995C1163.67 2988.52 1150.38 2981.89 1137.62 2975.07C1131.5 2971.75 1125.4 2968.44 1119.46 2965.12C1108.27 2958.83 1097.29 2952.36 1086.63 2945.54C1081.22 2942.38 1076.15 2939.06 1070.9 2935.59C1057.46 2927.02 1044.36 2917.94 1031.95 2908.84C1026.35 2904.84 1021.13 2900.8 1015.88 2896.8C1015.19 2896.27 1014.47 2895.74 1013.78 2895.23C1010.81 2892.79 1007.66 2890.51 1004.87 2888.07C1000.15 2884.57 995.618 2880.9 991.243 2876.9C984.958 2871.64 978.832 2866.58 972.892 2861.16C970.108 2858.88 967.483 2856.44 964.857 2853.81C964.733 2853.69 964.618 2853.58 964.512 2853.47C960.667 2850.15 956.822 2846.65 953.162 2842.8C952.632 2842.46 952.102 2841.93 951.598 2841.4L951.412 2841.21C950.882 2840.87 950.537 2840.52 950.007 2839.99C945.127 2835.45 940.222 2830.54 935.687 2825.82C930.808 2820.94 926.087 2816.03 921.526 2810.96C918.211 2807.46 914.896 2803.8 911.926 2800.3C906.861 2794.88 901.982 2789.1 897.262 2783.53C893.257 2778.8 889.227 2774.08 885.726 2769.2C882.57 2765.35 879.6 2761.51 876.63 2757.84C876.286 2757.5 876.1 2757.15 875.941 2756.78C871.406 2750.84 867.031 2744.9 862.841 2738.95C859.181 2733.88 855.681 2728.82 852.525 2723.75C852.34 2723.4 851.995 2723.22 851.836 2722.87C850.961 2721.47 850.085 2720.25 849.21 2718.84C847.46 2716.4 845.896 2713.77 844.145 2711.15C841.52 2706.95 838.895 2702.76 836.455 2698.57C834.015 2694.54 831.576 2690.34 829.11 2686.34C826.829 2682.68 824.734 2678.83 822.824 2675.14C820.73 2671.29 818.635 2667.45 816.54 2663.44C815.85 2661.87 814.975 2660.28 814.259 2658.72C813.729 2657.84 813.198 2656.96 812.854 2656.09C810.944 2652.77 809.353 2649.46 807.603 2645.95C804.288 2639.32 801.318 2632.66 798.348 2626.03C796.439 2622.02 794.848 2618.17 793.097 2614.14C791.533 2610.13 789.783 2606.1 788.218 2602.09C786.653 2598.09 785.062 2593.87 783.498 2589.86C780.342 2581.48 777.558 2572.91 774.773 2564.52C780.528 2566.8 786.468 2569.06 792.408 2571.16C1006.2 2649.46 1267.33 2633.38 1448.1 2523.1C1550.46 2460.73 1612.46 2339.95 1617.34 2213.6L1617.34 2213.25C1615.78 2173.05 1608.27 2132.7 1594.3 2094.06C1529.49 1913.88 1346.27 1827.38 1104.03 1862.32C863.159 1897.27 685.698 2130.41 680.129 2406.17C680.314 2415.62 680.818 2425.22 681.534 2434.83C681.72 2436.39 681.879 2438.15 681.879 2439.9C681.349 2439.55 680.659 2439.02 680.129 2438.68C680.314 2448.47 680.818 2458.26 681.534 2468.05C681.72 2469.61 681.879 2471.37 681.879 2473.12C676.284 2469.45 671.06 2465.42 665.464 2461.42C665.12 2461.07 664.589 2460.88 664.244 2460.35C663.184 2459.66 662.15 2458.95 661.089 2458.07C654.114 2453 647.299 2447.41 640.484 2441.65C638.389 2440.08 636.294 2438.33 634.358 2436.58C631.203 2433.79 628.232 2431.17 625.262 2428.36C618.633 2422.6 612.162 2416.47 606.063 2410.18C602.907 2407.02 599.937 2403.89 596.808 2400.57C593.493 2397.42 590.338 2393.94 587.553 2390.62C584.398 2387.12 581.428 2383.81 578.458 2380.14C575.488 2376.64 572.517 2373.17 569.547 2369.48C566.577 2365.82 563.607 2361.97 560.823 2358.28C541.968 2333.47 524.678 2305.67 509.642 2274.57C508.078 2271.07 506.327 2267.59 504.763 2264.09C494.288 2241.19 485.033 2216.54 477.528 2189.98C475.778 2184.38 474.213 2178.63 472.808 2172.87C471.058 2166.58 469.493 2160.11 468.273 2153.63C467.054 2148.75 466.179 2143.84 465.118 2138.96C463.553 2130.92 461.962 2122.88 460.928 2114.49C460.053 2109.61 459.363 2104.7 458.647 2099.82C455.147 2073.95 453.052 2046.7 452.522 2017.86C452.336 2006.85 452.177 1995.84 452.522 1985.17C452.336 1984.99 452.336 1984.83 452.522 1984.64C448.491 1800.1 496.701 1655.74 594.687 1555.6C719.933 1427.84 926.724 1365.81 1226.78 1365.81L2294.33 1365.81L2294.33 1331.55L1226.86 1331.55C907.763 1331.55 685.406 1400.41 546.715 1541.8C441.569 1648.76 387.419 1798.35 385.138 1986.05C384.953 1986.58 384.953 1986.92 385.138 1987.45C389.859 2214.29 488.189 2397.6 663.369 2508.06L663.369 2508.25C673.499 2514.53 683.974 2520.82 694.82 2526.77C762.23 2834.68 1064.22 3133.87 1738.08 3150.14C1744.02 3150.32 1750.12 3150.32 1756.25 3150.48C1759.75 3150.48 1763.41 3150.67 1766.91 3150.67C1771.1 3150.67 1775.47 3150.85 1779.82 3150.67C1785.23 3150.85 1790.64 3150.85 1796.24 3150.85L1796.24 3116.78L1796.26 3116.76ZM754.911 2515.41C751.941 2497.92 750.031 2480.63 748.785 2463.17C747.565 2445.18 747.035 2427.16 747.724 2409.33C747.539 2408.8 747.539 2408.27 747.724 2407.77C739.159 2154.37 899.86 1926.64 1113.65 1895.73C1325 1865.32 1477.11 1933.83 1530.92 2083.77C1543.83 2119.77 1550.12 2157.88 1550.12 2195.79C1550.12 2201.55 1549.93 2207.33 1549.59 2213.28C1549.93 2218.53 1550.12 2223.76 1550.12 2229.01C1550.12 2338.59 1498.78 2446.58 1413.18 2498.85C1234.31 2607.72 956.61 2613.5 754.884 2515.46L754.911 2515.41Z"/>
</mask>
<path d="M1796.26 3116.76C1790.85 3116.76 1785.26 3116.76 1779.85 3116.57C1775.47 3116.76 1771.28 3116.57 1766.93 3116.57C1764.84 3116.57 1762.74 3116.39 1760.81 3116.39C1758.53 3116.39 1756.27 3116.39 1754.18 3116.2C1745.45 3116.2 1736.7 3115.85 1728.16 3115.51C1712.78 3114.98 1697.43 3114.29 1682.39 3113.41C1672.45 3112.88 1662.48 3112.19 1652.69 3111.5C1644.47 3110.97 1636.44 3110.28 1628.43 3109.59C1620.21 3108.9 1612.36 3108.19 1604.32 3107.31C1595.6 3106.44 1587.03 3105.56 1578.65 3104.53C1571.31 3103.65 1563.99 3102.77 1556.83 3101.9C1555.08 3101.71 1553.17 3101.37 1551.42 3101.21C1545.82 3100.52 1540.23 3099.64 1534.66 3098.77C1526.97 3097.71 1519.65 3096.67 1512.12 3095.45C1504.61 3094.39 1497.27 3093.01 1489.92 3091.79C1486.95 3091.26 1483.98 3090.73 1481.01 3090.22C1461.79 3086.72 1443.12 3082.87 1424.77 3078.87C1411.14 3075.71 1397.88 3072.58 1384.78 3069.26C1371.33 3065.76 1358.23 3062.28 1345.29 3058.44C1338.82 3056.69 1332.38 3054.78 1326.09 3052.68C1319.81 3050.93 1313.52 3048.83 1307.24 3046.74C1301.11 3044.83 1294.83 3042.73 1288.89 3040.61C1282.76 3038.51 1276.85 3036.41 1270.91 3034.32C1270.72 3034.13 1270.56 3034.13 1270.56 3034.13C1258.52 3029.75 1246.8 3025.22 1235.29 3020.49C1224.98 3016.3 1214.69 3011.92 1204.72 3007.57C1195.28 3003.57 1186.21 2999.19 1177.11 2995C1163.67 2988.52 1150.38 2981.89 1137.62 2975.07C1131.5 2971.75 1125.4 2968.44 1119.46 2965.12C1108.27 2958.83 1097.29 2952.36 1086.63 2945.54C1081.22 2942.38 1076.15 2939.06 1070.9 2935.59C1057.46 2927.02 1044.36 2917.94 1031.95 2908.84C1026.35 2904.84 1021.13 2900.8 1015.88 2896.8C1015.19 2896.27 1014.47 2895.74 1013.78 2895.23C1010.81 2892.79 1007.66 2890.51 1004.87 2888.07C1000.15 2884.57 995.618 2880.9 991.243 2876.9C984.958 2871.64 978.832 2866.58 972.892 2861.16C970.108 2858.88 967.483 2856.44 964.857 2853.81C964.733 2853.69 964.618 2853.58 964.512 2853.47C960.667 2850.15 956.822 2846.65 953.162 2842.8C952.632 2842.46 952.102 2841.93 951.598 2841.4L951.412 2841.21C950.882 2840.87 950.537 2840.52 950.007 2839.99C945.127 2835.45 940.222 2830.54 935.687 2825.82C930.808 2820.94 926.087 2816.03 921.526 2810.96C918.211 2807.46 914.896 2803.8 911.926 2800.3C906.861 2794.88 901.982 2789.1 897.262 2783.53C893.257 2778.8 889.227 2774.08 885.726 2769.2C882.57 2765.35 879.6 2761.51 876.63 2757.84C876.286 2757.5 876.1 2757.15 875.941 2756.78C871.406 2750.84 867.031 2744.9 862.841 2738.95C859.181 2733.88 855.681 2728.82 852.525 2723.75C852.34 2723.4 851.995 2723.22 851.836 2722.87C850.961 2721.47 850.085 2720.25 849.21 2718.84C847.46 2716.4 845.896 2713.77 844.145 2711.15C841.52 2706.95 838.895 2702.76 836.455 2698.57C834.015 2694.54 831.576 2690.34 829.11 2686.34C826.829 2682.68 824.734 2678.83 822.824 2675.14C820.73 2671.29 818.635 2667.45 816.54 2663.44C815.85 2661.87 814.975 2660.28 814.259 2658.72C813.729 2657.84 813.198 2656.96 812.854 2656.09C810.944 2652.77 809.353 2649.46 807.603 2645.95C804.288 2639.32 801.318 2632.66 798.348 2626.03C796.439 2622.02 794.848 2618.17 793.097 2614.14C791.533 2610.13 789.783 2606.1 788.218 2602.09C786.653 2598.09 785.062 2593.87 783.498 2589.86C780.342 2581.48 777.558 2572.91 774.773 2564.52C780.528 2566.8 786.468 2569.06 792.408 2571.16C1006.2 2649.46 1267.33 2633.38 1448.1 2523.1C1550.46 2460.73 1612.46 2339.95 1617.34 2213.6L1617.34 2213.25C1615.78 2173.05 1608.27 2132.7 1594.3 2094.06C1529.49 1913.88 1346.27 1827.38 1104.03 1862.32C863.159 1897.27 685.698 2130.41 680.129 2406.17C680.314 2415.62 680.818 2425.22 681.534 2434.83C681.72 2436.39 681.879 2438.15 681.879 2439.9C681.349 2439.55 680.659 2439.02 680.129 2438.68C680.314 2448.47 680.818 2458.26 681.534 2468.05C681.72 2469.61 681.879 2471.37 681.879 2473.12C676.284 2469.45 671.06 2465.42 665.464 2461.42C665.12 2461.07 664.589 2460.88 664.244 2460.35C663.184 2459.66 662.15 2458.95 661.089 2458.07C654.114 2453 647.299 2447.41 640.484 2441.65C638.389 2440.08 636.294 2438.33 634.358 2436.58C631.203 2433.79 628.232 2431.17 625.262 2428.36C618.633 2422.6 612.162 2416.47 606.063 2410.18C602.907 2407.02 599.937 2403.89 596.808 2400.57C593.493 2397.42 590.338 2393.94 587.553 2390.62C584.398 2387.12 581.428 2383.81 578.458 2380.14C575.488 2376.64 572.517 2373.17 569.547 2369.48C566.577 2365.82 563.607 2361.97 560.823 2358.28C541.968 2333.47 524.678 2305.67 509.642 2274.57C508.078 2271.07 506.327 2267.59 504.763 2264.09C494.288 2241.19 485.033 2216.54 477.528 2189.98C475.778 2184.38 474.213 2178.63 472.808 2172.87C471.058 2166.58 469.493 2160.11 468.273 2153.63C467.054 2148.75 466.179 2143.84 465.118 2138.96C463.553 2130.92 461.962 2122.88 460.928 2114.49C460.053 2109.61 459.363 2104.7 458.647 2099.82C455.147 2073.95 453.052 2046.7 452.522 2017.86C452.336 2006.85 452.177 1995.84 452.522 1985.17C452.336 1984.99 452.336 1984.83 452.522 1984.64C448.491 1800.1 496.701 1655.74 594.687 1555.6C719.933 1427.84 926.724 1365.81 1226.78 1365.81L2294.33 1365.81L2294.33 1331.55L1226.86 1331.55C907.763 1331.55 685.406 1400.41 546.715 1541.8C441.569 1648.76 387.419 1798.35 385.138 1986.05C384.953 1986.58 384.953 1986.92 385.138 1987.45C389.859 2214.29 488.189 2397.6 663.369 2508.06L663.369 2508.25C673.499 2514.53 683.974 2520.82 694.82 2526.77C762.23 2834.68 1064.22 3133.87 1738.08 3150.14C1744.02 3150.32 1750.12 3150.32 1756.25 3150.48C1759.75 3150.48 1763.41 3150.67 1766.91 3150.67C1771.1 3150.67 1775.47 3150.85 1779.82 3150.67C1785.23 3150.85 1790.64 3150.85 1796.24 3150.85L1796.24 3116.78L1796.26 3116.76ZM754.911 2515.41C751.941 2497.92 750.031 2480.63 748.785 2463.17C747.565 2445.18 747.035 2427.16 747.724 2409.33C747.539 2408.8 747.539 2408.27 747.724 2407.77C739.159 2154.37 899.86 1926.64 1113.65 1895.73C1325 1865.32 1477.11 1933.83 1530.92 2083.77C1543.83 2119.77 1550.12 2157.88 1550.12 2195.79C1550.12 2201.55 1549.93 2207.33 1549.59 2213.28C1549.93 2218.53 1550.12 2223.76 1550.12 2229.01C1550.12 2338.59 1498.78 2446.58 1413.18 2498.85C1234.31 2607.72 956.61 2613.5 754.884 2515.46L754.911 2515.41Z" stroke="black" stroke-width="97.6021" mask="url(#path-48-inside-1_366_601)"/>
<mask id="path-49-inside-2_366_601" fill="white">
<path d="M681.906 2473.17C676.497 2469.5 670.901 2465.47 665.491 2461.46C665.147 2461.12 664.616 2460.93 664.271 2460.4C663.211 2459.71 662.176 2459 661.116 2458.12C654.141 2453.05 647.326 2447.46 640.511 2441.7C638.416 2440.13 636.321 2438.38 634.385 2436.63C631.229 2433.84 628.259 2431.22 625.316 2428.4C618.686 2422.65 612.216 2416.52 606.09 2410.23C602.934 2407.07 599.964 2403.94 596.835 2400.62C593.52 2397.47 590.365 2393.99 587.58 2390.67C584.425 2387.17 581.455 2383.86 578.484 2380.19C575.514 2376.69 572.544 2373.22 569.574 2369.53C566.604 2365.87 563.634 2362.02 560.85 2358.36C541.995 2333.55 524.705 2305.74 509.669 2274.64C507.919 2271.14 506.354 2267.67 504.79 2264.16C494.315 2241.27 485.06 2216.62 477.555 2190.06C475.805 2184.46 474.241 2178.7 472.835 2172.94C471.085 2166.65 469.52 2160.18 468.3 2153.73C467.081 2148.85 466.205 2143.94 465.145 2139.06C463.58 2131.02 461.989 2122.98 460.955 2114.6C460.08 2109.71 459.39 2104.81 458.674 2099.92C455.174 2074.05 453.079 2046.8 452.548 2017.96C452.363 2006.95 452.204 1995.94 452.548 1985.27C457.269 2221.02 565.039 2356.82 672.969 2433.71C675.409 2435.46 677.69 2437.21 680.129 2438.78C680.315 2448.57 680.819 2458.36 681.535 2468.15C681.721 2469.72 681.88 2471.47 681.88 2473.22L681.906 2473.17Z"/>
</mask>
<path d="M681.906 2473.17L725.547 2495.01L744.7 2456.74L709.26 2432.75L681.906 2473.17ZM665.491 2461.46L630.974 2495.96L633.535 2498.53L636.447 2500.68L665.491 2461.46ZM664.271 2460.4L705.195 2433.82L699.556 2425.14L690.878 2419.49L664.271 2460.4ZM661.116 2458.12L692.182 2420.49L691.021 2419.53L689.803 2418.64L661.116 2458.12ZM640.511 2441.7L672.005 2404.42L670.891 2403.48L669.723 2402.61L640.511 2441.7ZM634.385 2436.63L667.123 2400.44L666.904 2400.24L666.683 2400.05L634.385 2436.63ZM625.316 2428.4L659.029 2393.12L658.191 2392.32L657.315 2391.56L625.316 2428.4ZM606.09 2410.23L641.047 2376.18L640.828 2375.95L640.607 2375.73L606.09 2410.23ZM596.835 2400.62L632.331 2367.13L631.437 2366.19L630.494 2365.29L596.835 2400.62ZM587.58 2390.67L624.956 2359.3L624.407 2358.64L623.836 2358.01L587.58 2390.67ZM578.484 2380.19L616.385 2349.45L616.049 2349.04L615.704 2348.63L578.484 2380.19ZM569.574 2369.53L607.583 2338.92L607.529 2338.85L607.474 2338.78L569.574 2369.53ZM560.85 2358.36L521.996 2387.89L522.004 2387.9L560.85 2358.36ZM509.669 2274.64L553.604 2253.4L553.465 2253.11L553.323 2252.83L509.669 2274.64ZM504.79 2264.16L549.347 2244.26L549.258 2244.06L549.168 2243.86L504.79 2264.16ZM477.555 2190.06L524.518 2176.79L524.334 2176.14L524.133 2175.5L477.555 2190.06ZM472.835 2172.94L520.244 2161.37L520.059 2160.61L519.849 2159.86L472.835 2172.94ZM468.3 2153.73L516.251 2144.66L515.988 2143.27L515.646 2141.9L468.3 2153.73ZM465.145 2139.06L417.242 2148.38L417.344 2148.9L417.456 2149.42L465.145 2139.06ZM460.955 2114.6L509.389 2108.62L509.226 2107.3L508.99 2105.99L460.955 2114.6ZM458.674 2099.92L410.314 2106.47L410.35 2106.74L410.39 2107.01L458.674 2099.92ZM452.548 2017.96L403.754 2018.79L403.755 2018.82L403.756 2018.86L452.548 2017.96ZM452.548 1985.27L501.34 1984.3L403.773 1983.7L452.548 1985.27ZM672.969 2433.71L701.426 2394.07L701.356 2394.02L701.286 2393.97L672.969 2433.71ZM680.129 2438.78L728.922 2437.85L728.427 2411.79L706.484 2397.71L680.129 2438.78ZM681.535 2468.15L632.864 2471.71L632.944 2472.81L633.073 2473.9L681.535 2468.15ZM681.88 2473.22L633.079 2473.22L725.52 2495.06L681.88 2473.22ZM709.26 2432.75C704.634 2429.62 699.644 2426.03 694.536 2422.25L636.447 2500.68C642.159 2504.91 648.359 2509.39 654.552 2513.58L709.26 2432.75ZM700.008 2426.97C697.173 2424.13 694.608 2422.26 693.623 2421.56C693.34 2421.35 693.104 2421.19 692.951 2421.08C692.807 2420.98 692.682 2420.9 692.665 2420.88C692.541 2420.8 692.845 2421.01 693.198 2421.26C694.774 2422.38 700.407 2426.45 705.195 2433.82L623.348 2486.99C628.481 2494.89 634.551 2499.31 636.565 2500.75C636.821 2500.93 637.034 2501.08 637.174 2501.18C637.302 2501.27 637.42 2501.35 637.425 2501.35C637.535 2501.43 637.192 2501.19 636.785 2500.9C636.006 2500.34 633.638 2498.63 630.974 2495.96L700.008 2426.97ZM690.878 2419.49C690.625 2419.33 691.271 2419.73 692.182 2420.49L630.049 2495.76C633.082 2498.26 635.797 2500.1 637.665 2501.31L690.878 2419.49ZM689.803 2418.64C684.309 2414.65 678.588 2409.98 672.005 2404.42L609.017 2478.98C616.064 2484.93 623.974 2491.46 632.429 2497.6L689.803 2418.64ZM669.723 2402.61C669.044 2402.1 668.127 2401.35 667.123 2400.44L601.647 2472.82C604.515 2475.41 607.788 2478.17 611.299 2480.79L669.723 2402.61ZM666.683 2400.05C663.442 2397.18 661.174 2395.17 659.029 2393.12L591.603 2463.69C595.345 2467.26 599.017 2470.5 602.087 2473.21L666.683 2400.05ZM657.315 2391.56C651.747 2386.72 646.261 2381.53 641.047 2376.18L571.134 2444.28C578.171 2451.51 585.626 2458.57 593.316 2465.25L657.315 2391.56ZM640.607 2375.73C637.995 2373.12 635.45 2370.44 632.331 2367.13L561.339 2434.11C564.479 2437.44 567.873 2441.03 571.573 2444.73L640.607 2375.73ZM630.494 2365.29C628.838 2363.71 626.931 2361.65 624.956 2359.3L550.204 2422.05C553.798 2426.33 558.203 2431.22 563.177 2435.96L630.494 2365.29ZM623.836 2358.01C620.657 2354.48 618.465 2352.02 616.385 2349.45L540.584 2410.94C544.444 2415.69 548.192 2419.86 551.325 2423.34L623.836 2358.01ZM615.704 2348.63C612.555 2344.92 610.07 2342.01 607.583 2338.92L531.566 2400.14C535.019 2404.42 538.474 2408.47 541.265 2411.76L615.704 2348.63ZM607.474 2338.78C604.975 2335.7 602.358 2332.32 599.695 2328.82L522.004 2387.9C524.91 2391.72 528.233 2396.03 531.674 2400.27L607.474 2338.78ZM599.703 2328.83C582.794 2306.58 567.212 2281.54 553.604 2253.4L465.734 2295.89C482.199 2329.94 501.197 2360.52 521.996 2387.89L599.703 2328.83ZM553.323 2252.83C552.099 2250.38 550.921 2247.78 549.347 2244.26L460.232 2284.07C461.788 2287.55 463.739 2291.91 466.015 2296.46L553.323 2252.83ZM549.168 2243.86C539.686 2223.14 531.312 2200.83 524.518 2176.79L430.593 2203.33C438.808 2232.4 448.944 2259.4 460.412 2284.47L549.168 2243.86ZM524.133 2175.5C522.748 2171.06 521.453 2166.32 520.244 2161.37L425.426 2184.52C427.028 2191.08 428.863 2197.85 430.977 2204.62L524.133 2175.5ZM519.849 2159.86C518.395 2154.64 517.17 2149.52 516.251 2144.66L420.35 2162.81C421.871 2170.84 423.774 2178.67 425.821 2186.03L519.849 2159.86ZM515.646 2141.9C514.609 2137.75 514.463 2136.2 512.833 2128.7L417.456 2149.42C417.948 2151.69 419.552 2159.95 420.955 2165.56L515.646 2141.9ZM513.047 2129.74C511.406 2121.31 510.176 2115.01 509.389 2108.62L412.521 2120.57C413.802 2130.96 415.754 2140.73 417.242 2148.38L513.047 2129.74ZM508.99 2105.99C508.289 2102.07 507.739 2098.16 506.959 2092.84L410.39 2107.01C411.041 2111.45 411.871 2117.36 412.919 2123.21L508.99 2105.99ZM507.035 2093.38C503.799 2069.47 501.838 2044.1 501.341 2017.07L403.756 2018.86C404.319 2049.5 406.549 2078.64 410.314 2106.47L507.035 2093.38ZM501.343 2017.14C501.155 2006.02 501.023 1996.15 501.324 1986.85L403.773 1983.7C403.384 1995.73 403.571 2007.89 403.754 2018.79L501.343 2017.14ZM403.757 1986.25C408.823 2239.27 525.728 2388.73 644.653 2473.46L701.286 2393.97C604.351 2324.91 505.714 2202.77 501.34 1984.3L403.757 1986.25ZM644.512 2473.36C645.252 2473.89 649.918 2477.38 653.775 2479.85L706.484 2397.71C705.461 2397.05 705.566 2397.04 701.426 2394.07L644.512 2473.36ZM631.337 2439.7C631.543 2450.54 632.097 2461.23 632.864 2471.71L730.206 2464.59C729.541 2455.49 729.087 2446.6 728.922 2437.85L631.337 2439.7ZM633.073 2473.9C633.11 2474.2 633.114 2474.28 633.109 2474.21C633.105 2474.17 633.098 2474.06 633.092 2473.91C633.085 2473.75 633.079 2473.52 633.079 2473.22L730.681 2473.22C730.681 2468.71 730.281 2464.8 729.997 2462.4L633.073 2473.9ZM725.52 2495.06L725.547 2495.01L638.266 2451.32L638.239 2451.38L725.52 2495.06Z" fill="black" mask="url(#path-49-inside-2_366_601)"/>
<mask id="path-51-inside-3_366_601" fill="white">
<path d="M680.223 2406.21C671.843 2116.1 853.653 1865.33 1104.12 1829.14C1346.37 1794.2 1529.61 1880.7 1594.39 2060.88C1612.03 2110.16 1619.37 2162.24 1617.44 2213.26C1615.87 2173.07 1608.34 2132.71 1594.39 2094.08C1529.58 1913.89 1346.37 1827.39 1104.12 1862.34C863.253 1897.28 685.792 2130.43 680.223 2406.19L680.223 2406.21Z"/>
</mask>
<path d="M680.223 2406.21C671.843 2116.1 853.653 1865.33 1104.12 1829.14C1346.37 1794.2 1529.61 1880.7 1594.39 2060.88C1612.03 2110.16 1619.37 2162.24 1617.44 2213.26C1615.87 2173.07 1608.34 2132.71 1594.39 2094.08C1529.58 1913.89 1346.37 1827.39 1104.12 1862.34C863.253 1897.28 685.792 2130.43 680.223 2406.19L680.223 2406.21Z" fill="#6E6A69"/>
<path d="M680.223 2406.21L631.442 2407.62L729.024 2406.21L680.223 2406.21ZM1104.12 1829.14L1097.15 1780.84L1097.14 1780.84L1104.12 1829.14ZM1594.39 2060.88L1640.34 2044.44L1640.33 2044.41L1640.32 2044.37L1594.39 2060.88ZM1617.44 2213.26L1568.67 2215.16L1666.2 2215.11L1617.44 2213.26ZM1594.39 2094.08L1548.47 2110.59L1548.48 2110.62L1548.49 2110.65L1594.39 2094.08ZM1104.12 1862.34L1097.15 1814.04L1097.13 1814.04L1097.11 1814.04L1104.12 1862.34ZM680.223 2406.19L631.432 2405.2L631.422 2405.69L631.422 2406.19L680.223 2406.19ZM729.004 2404.8C721.164 2133.37 890.772 1909.28 1111.1 1877.44L1097.14 1780.84C816.535 1821.39 622.523 2098.83 631.442 2407.62L729.004 2404.8ZM1111.09 1877.44C1339.18 1844.54 1494.18 1926.41 1548.47 2077.4L1640.32 2044.37C1565.03 1834.98 1353.55 1743.86 1097.15 1780.84L1111.09 1877.44ZM1548.45 2077.33C1563.86 2120.41 1570.38 2166.25 1568.67 2211.41L1666.2 2215.11C1668.36 2158.23 1660.19 2099.9 1640.34 2044.44L1548.45 2077.33ZM1666.2 2211.37C1664.45 2166.38 1656.02 2121.06 1640.29 2077.5L1548.49 2110.65C1560.66 2144.36 1567.29 2179.75 1568.67 2215.16L1666.2 2211.37ZM1640.31 2077.56C1565 1868.18 1353.56 1777.05 1097.15 1814.04L1111.09 1910.64C1339.17 1877.74 1494.16 1959.6 1548.47 2110.59L1640.31 2077.56ZM1097.11 1814.04C827.363 1853.18 637.367 2111.31 631.432 2405.2L729.014 2407.17C734.217 2149.55 899.143 1941.39 1111.13 1910.63L1097.11 1814.04ZM631.422 2406.19L631.422 2406.21L729.024 2406.21L729.024 2406.19L631.422 2406.19Z" fill="black" mask="url(#path-51-inside-3_366_601)"/>
<mask id="path-53-inside-4_366_601" fill="white">
<path d="M385.231 1986.1C385.045 1979.12 385.045 1972.3 385.045 1965.48C385.045 1771.84 439.355 1618.06 546.781 1508.47C685.472 1367.26 907.803 1298.41 1226.92 1298.41L2294.33 1298.41L2294.33 1331.6L1226.92 1331.6C907.829 1331.6 685.472 1400.46 546.781 1541.85C441.635 1648.81 387.485 1798.4 385.231 1986.1Z"/>
</mask>
<path d="M385.231 1986.1C385.045 1979.12 385.045 1972.3 385.045 1965.48C385.045 1771.84 439.355 1618.06 546.781 1508.47C685.472 1367.26 907.803 1298.41 1226.92 1298.41L2294.33 1298.41L2294.33 1331.6L1226.92 1331.6C907.829 1331.6 685.472 1400.46 546.781 1541.85C441.635 1648.81 387.485 1798.4 385.231 1986.1Z" fill="#6E6A69"/>
<path d="M385.231 1986.1L336.447 1987.39L434.028 1986.68L385.231 1986.1ZM546.781 1508.47L511.964 1474.28L511.948 1474.29L511.932 1474.31L546.781 1508.47ZM1226.92 1298.41L1226.92 1249.61H1226.92L1226.92 1298.41ZM2294.33 1298.41L2343.13 1298.41L2343.13 1249.61L2294.33 1249.61L2294.33 1298.41ZM2294.33 1331.6L2294.33 1380.41L2343.13 1380.41L2343.13 1331.6L2294.33 1331.6ZM1226.92 1331.6L1226.92 1282.8L1226.92 1331.6ZM546.781 1541.85L581.582 1576.06L581.601 1576.05L581.62 1576.03L546.781 1541.85ZM434.015 1984.8C433.849 1978.57 433.846 1972.39 433.846 1965.48L336.244 1965.48C336.244 1972.2 336.241 1979.66 336.447 1987.39L434.015 1984.8ZM433.846 1965.48C433.846 1781.07 485.358 1640.84 581.629 1542.64L511.932 1474.31C393.352 1595.27 336.244 1762.62 336.244 1965.48L433.846 1965.48ZM581.597 1542.67C706.861 1415.13 913.234 1347.21 1226.92 1347.21L1226.92 1249.61C902.371 1249.61 664.083 1319.4 511.964 1474.28L581.597 1542.67ZM1226.92 1347.21L2294.33 1347.21L2294.33 1249.61L1226.92 1249.61L1226.92 1347.21ZM2245.53 1298.41L2245.53 1331.6L2343.13 1331.6L2343.13 1298.41L2245.53 1298.41ZM2294.33 1282.8L1226.92 1282.8L1226.92 1380.41L2294.33 1380.41L2294.33 1282.8ZM1226.92 1282.8C902.4 1282.8 664.066 1352.59 511.942 1507.68L581.62 1576.03C706.878 1448.33 913.258 1380.41 1226.92 1380.41L1226.92 1282.8ZM511.98 1507.64C395.872 1625.75 338.798 1788.63 336.433 1985.51L434.028 1986.68C436.172 1808.17 487.399 1671.87 581.582 1576.06L511.98 1507.64Z" fill="black" mask="url(#path-53-inside-4_366_601)"/>
<mask id="path-55-inside-5_366_601" fill="white">
<path d="M754.926 2515.4C751.956 2497.92 750.047 2480.62 748.8 2463.16C747.581 2445.17 747.05 2427.16 747.74 2409.33C747.925 2416.14 748.27 2422.96 748.8 2429.94C750.02 2447.24 751.956 2464.73 754.926 2482.19C956.652 2580.23 1234.38 2574.47 1413.22 2465.58C1494.26 2416.12 1544.56 2316.67 1549.63 2213.22C1549.97 2218.47 1550.16 2223.7 1550.16 2228.95C1550.16 2338.53 1498.82 2446.52 1413.22 2498.79C1234.35 2607.66 956.652 2613.44 754.926 2515.4Z"/>
</mask>
<path d="M754.926 2515.4C751.956 2497.92 750.047 2480.62 748.8 2463.16C747.581 2445.17 747.05 2427.16 747.74 2409.33C747.925 2416.14 748.27 2422.96 748.8 2429.94C750.02 2447.24 751.956 2464.73 754.926 2482.19C956.652 2580.23 1234.38 2574.47 1413.22 2465.58C1494.26 2416.12 1544.56 2316.67 1549.63 2213.22C1549.97 2218.47 1550.16 2223.7 1550.16 2228.95C1550.16 2338.53 1498.82 2446.52 1413.22 2498.79C1234.35 2607.66 956.652 2613.44 754.926 2515.4Z" fill="#6E6A69"/>
<path d="M754.926 2515.4L706.814 2523.58L711.018 2548.32L733.594 2559.3L754.926 2515.4ZM748.8 2463.16L700.111 2466.46L700.117 2466.55L700.123 2466.64L748.8 2463.16ZM747.74 2409.33L796.523 2408L698.975 2407.44L747.74 2409.33ZM748.8 2429.94L797.481 2426.51L797.471 2426.38L797.461 2426.24L748.8 2429.94ZM754.926 2482.19L706.816 2490.37L711.025 2515.11L733.594 2526.08L754.926 2482.19ZM1413.22 2465.58L1438.6 2507.26L1438.62 2507.24L1438.64 2507.23L1413.22 2465.58ZM1549.63 2213.22L1598.33 2210.02L1500.89 2210.83L1549.63 2213.22ZM1413.22 2498.79L1438.59 2540.48L1438.62 2540.46L1438.65 2540.44L1413.22 2498.79ZM803.038 2507.23C800.381 2491.59 798.635 2475.89 797.478 2459.69L700.123 2466.64C701.459 2485.35 703.531 2504.25 706.814 2523.58L803.038 2507.23ZM797.49 2459.86C796.351 2443.07 795.899 2426.85 796.504 2411.21L698.975 2407.44C698.201 2427.46 698.81 2447.28 700.111 2466.46L797.49 2459.86ZM698.957 2410.65C699.163 2418.24 699.548 2425.85 700.14 2433.64L797.461 2426.24C796.992 2420.08 796.687 2414.05 796.523 2408L698.957 2410.65ZM700.12 2433.37C701.432 2451.97 703.533 2471.07 706.816 2490.37L803.036 2474C800.379 2458.38 798.609 2442.51 797.481 2426.51L700.12 2433.37ZM733.594 2526.08C948.661 2630.6 1244.13 2625.67 1438.6 2507.26L1387.84 2423.89C1224.63 2523.27 964.643 2529.85 776.258 2438.29L733.594 2526.08ZM1438.64 2507.23C1536.35 2447.6 1592.7 2331.52 1598.37 2215.61L1500.89 2210.83C1496.43 2301.83 1452.16 2384.64 1387.8 2423.92L1438.64 2507.23ZM1500.93 2216.41C1501.21 2220.7 1501.36 2224.85 1501.36 2228.95L1598.96 2228.95C1598.96 2222.55 1598.73 2216.25 1598.33 2210.02L1500.93 2216.41ZM1501.36 2228.95C1501.36 2325.34 1455.89 2415.56 1387.79 2457.14L1438.65 2540.44C1541.75 2477.49 1598.96 2351.73 1598.96 2228.95L1501.36 2228.95ZM1387.85 2457.11C1224.6 2556.47 964.637 2563.07 776.258 2471.51L733.594 2559.3C948.666 2663.82 1244.1 2658.85 1438.59 2540.48L1387.85 2457.11Z" fill="black" mask="url(#path-55-inside-5_366_601)"/>
<path d="M2373.64 1243.51L2373.64 1420.42C2373.64 1423.78 2370.91 1426.52 2367.54 1426.52L2208.94 1426.52C2205.57 1426.52 2202.84 1423.78 2202.84 1420.42L2202.84 1243.51C2202.84 1240.14 2205.57 1237.41 2208.94 1237.41L2367.54 1237.41C2370.91 1237.41 2373.64 1240.14 2373.64 1243.51Z" fill="#FFD700" stroke="black" stroke-width="24.4005"/>
<path d="M2513.94 1267.91L2513.94 1389.91L2373.63 1389.91L2373.63 1267.91L2513.94 1267.91Z" fill="#FFD700" stroke="black" stroke-width="24.4005"/>
<g filter="url(#filter10_i_366_601)">
<path d="M2614.02 3366.36L2614.02 2862.62C2614.02 2812.08 2573.05 2771.12 2522.51 2771.12L1904.32 2771.12C1853.78 2771.12 1812.82 2812.08 1812.82 2862.62L1812.82 3366.36C1812.82 3416.89 1853.78 3457.86 1904.32 3457.86L2522.51 3457.86C2573.05 3457.86 2614.02 3416.89 2614.02 3366.36Z" fill="#686867"/>
</g>
<path d="M2601.82 2862.62L2601.82 3366.36C2601.82 3410.15 2566.31 3445.66 2522.51 3445.66L1904.32 3445.66C1860.52 3445.66 1825.02 3410.15 1825.02 3366.36L1825.02 2862.62C1825.02 2818.82 1860.52 2783.32 1904.32 2783.32L2522.51 2783.32C2566.31 2783.32 2601.82 2818.82 2601.82 2862.62Z" stroke="black" stroke-width="24.4005"/>
<path d="M2521.1 2914.52L2521.1 3314.45C2521.1 3346.57 2495.06 3372.61 2462.94 3372.61L1963.81 3372.61C1931.7 3372.61 1905.66 3346.57 1905.66 3314.45L1905.66 2914.52C1905.66 2882.41 1931.7 2856.37 1963.81 2856.37L2462.94 2856.37C2495.06 2856.37 2521.1 2882.41 2521.1 2914.52Z" stroke="url(#paint2_radial_366_601)" stroke-width="17.8937"/>
<path d="M1806.28 3186.43L1707.15 3186.43C1698.21 3186.43 1690.95 3179.17 1690.95 3170.21L1690.95 3059.62C1690.95 3050.65 1698.22 3043.4 1707.15 3043.4L1806.28 3043.4L1806.28 3186.43Z" fill="black" stroke="black" stroke-width="24.4005"/>
<path d="M2076.07 3190.8C2064.47 3190.8 2053.78 3188.97 2043.99 3185.31C2034.35 3181.52 2025.9 3176.18 2018.63 3169.29C2011.5 3162.41 2005.91 3154.33 2001.86 3145.05C1997.95 3135.78 1995.99 3125.59 1995.99 3114.49C1995.99 3103.39 1997.95 3093.2 2001.86 3083.93C2005.91 3074.65 2011.57 3066.57 2018.84 3059.69C2026.11 3052.8 2034.63 3047.53 2044.41 3043.88C2054.2 3040.08 2064.96 3038.19 2076.7 3038.19C2089.69 3038.19 2101.36 3040.36 2111.7 3044.72C2122.18 3049.08 2130.99 3055.4 2138.11 3063.69L2116.31 3083.93C2111 3078.31 2105.2 3074.16 2098.91 3071.49C2092.63 3068.68 2085.78 3067.27 2078.37 3067.27C2071.24 3067.27 2064.75 3068.4 2058.88 3070.65C2053.01 3072.9 2047.91 3076.13 2043.58 3080.34C2039.38 3084.56 2036.1 3089.55 2033.72 3095.31C2031.49 3101.07 2030.37 3107.46 2030.37 3114.49C2030.37 3121.38 2031.49 3127.7 2033.72 3133.46C2036.1 3139.22 2039.38 3144.28 2043.58 3148.64C2047.91 3152.85 2052.94 3156.09 2058.67 3158.33C2064.54 3160.58 2070.97 3161.71 2077.95 3161.71C2084.66 3161.71 2091.16 3160.65 2097.45 3158.54C2103.88 3156.3 2110.09 3152.57 2116.1 3147.37L2135.39 3172.04C2127.42 3178.08 2118.13 3182.71 2107.51 3185.95C2097.03 3189.18 2086.55 3190.8 2076.07 3190.8ZM2104.36 3167.61L2104.36 3112.17L2135.39 3112.17L2135.39 3172.04L2104.36 3167.61Z" fill="white"/>
<path d="M2166.93 3188.27L2166.93 3040.71L2230.45 3040.71C2243.58 3040.71 2254.9 3042.89 2264.4 3047.25C2273.91 3051.47 2281.24 3057.58 2286.41 3065.59C2291.58 3073.6 2294.17 3083.15 2294.17 3094.25C2294.17 3105.22 2291.58 3114.7 2286.41 3122.71C2281.24 3130.72 2273.91 3136.9 2264.4 3141.26C2254.9 3145.48 2243.58 3147.58 2230.45 3147.58L2185.8 3147.58L2200.89 3132.2L2200.89 3188.27L2166.93 3188.27ZM2200.89 3135.99L2185.8 3119.76L2228.56 3119.76C2239.04 3119.76 2246.87 3117.51 2252.04 3113.01C2257.21 3108.52 2259.79 3102.26 2259.79 3094.25C2259.79 3086.1 2257.21 3079.78 2252.04 3075.28C2246.87 3070.79 2239.04 3068.54 2228.56 3068.54L2185.8 3068.54L2200.89 3052.31L2200.89 3135.99Z" fill="white"/>
<path d="M2368.67 3190.8C2356.93 3190.8 2345.68 3189.25 2334.92 3186.16C2324.16 3182.93 2315.5 3178.78 2308.93 3173.72L2320.46 3148.01C2326.75 3152.5 2334.16 3156.23 2342.68 3159.18C2351.34 3161.99 2360.08 3163.39 2368.88 3163.39C2375.59 3163.39 2380.97 3162.76 2385.02 3161.5C2389.22 3160.09 2392.29 3158.19 2394.25 3155.8C2396.2 3153.42 2397.18 3150.68 2397.18 3147.58C2397.18 3143.65 2395.64 3140.56 2392.57 3138.31C2389.5 3135.92 2385.44 3134.02 2380.41 3132.62C2375.38 3131.07 2369.79 3129.67 2363.64 3128.4C2357.63 3127 2351.55 3125.31 2345.41 3123.34C2339.4 3121.38 2333.88 3118.85 2328.85 3115.76C2323.81 3112.66 2319.69 3108.59 2316.48 3103.53C2313.4 3098.47 2311.87 3092.01 2311.87 3084.14C2311.87 3075.71 2314.1 3068.05 2318.57 3061.16C2323.19 3054.14 2330.03 3048.58 2339.12 3044.51C2348.34 3040.29 2359.87 3038.19 2373.7 3038.19C2382.93 3038.19 2392.01 3039.31 2400.95 3041.56C2409.9 3043.67 2417.79 3046.9 2424.64 3051.25L2414.16 3077.18C2407.31 3073.25 2400.47 3070.37 2393.62 3068.54C2386.77 3066.57 2380.06 3065.59 2373.49 3065.59C2366.93 3065.59 2361.55 3066.36 2357.35 3067.91C2353.16 3069.45 2350.16 3071.49 2348.34 3074.02C2346.52 3076.41 2345.62 3079.22 2345.62 3082.45C2345.62 3086.24 2347.15 3089.34 2350.23 3091.73C2353.3 3093.97 2357.35 3095.8 2362.38 3097.21C2367.42 3098.61 2372.94 3100.02 2378.94 3101.42C2385.09 3102.83 2391.17 3104.44 2397.18 3106.27C2403.33 3108.1 2408.92 3110.56 2413.95 3113.65C2418.98 3116.74 2423.03 3120.81 2426.11 3125.87C2429.32 3130.93 2430.93 3137.33 2430.93 3145.05C2430.93 3153.35 2428.62 3160.93 2424.01 3167.82C2419.4 3174.71 2412.48 3180.26 2403.26 3184.47C2394.18 3188.69 2382.65 3190.8 2368.67 3190.8Z" fill="white"/>
<line x1="2483.45" y1="1280.11" x2="2483.45" y2="1383.81" stroke="black" stroke-width="12.2003"/>
<line x1="2459.06" y1="1280.11" x2="2459.06" y2="1383.81" stroke="black" stroke-width="12.2003"/>
<line x1="2434.67" y1="1280.11" x2="2434.67" y2="1383.81" stroke="black" stroke-width="12.2003"/>
<line x1="2410.28" y1="1280.11" x2="2410.28" y2="1383.81" stroke="black" stroke-width="12.2003"/>
<mask id="path-68-inside-6_366_601" fill="white">
<path d="M1796.27 3116.78C1790.86 3116.78 1785.27 3116.78 1779.86 3116.59C1775.48 3116.78 1771.29 3116.59 1766.94 3116.59C1764.85 3116.59 1762.75 3116.41 1760.82 3116.41C1758.54 3116.41 1756.28 3116.41 1754.19 3116.22C1745.46 3116.04 1736.9 3115.88 1728.17 3115.53C1712.79 3115 1697.44 3114.31 1682.4 3113.44C1672.46 3112.91 1662.49 3112.22 1652.7 3111.53C1644.48 3111 1636.45 3110.31 1628.44 3109.62C1620.22 3108.93 1612.37 3108.21 1604.33 3107.33C1595.61 3106.46 1587.04 3105.58 1578.66 3104.55C1571.32 3103.67 1564 3102.8 1556.84 3101.92C1549.33 3100.86 1541.99 3099.83 1534.67 3098.76C1496.43 3093.35 1459.73 3086.53 1424.8 3078.84C1411.17 3075.68 1397.91 3072.55 1384.81 3069.23C1371.37 3065.73 1358.27 3062.26 1345.33 3058.41C1338.86 3056.5 1332.41 3054.56 1326.13 3052.65C1319.66 3050.74 1313.37 3048.8 1307.27 3046.71C1294.86 3042.7 1282.82 3038.48 1270.94 3034.29C1270.76 3034.1 1270.6 3034.1 1270.6 3034.1C1258.56 3029.73 1246.84 3025.19 1235.33 3020.47C1225.01 3016.27 1214.72 3011.9 1204.75 3007.54C1181.34 2997.41 1158.98 2986.4 1137.69 2975.04C1131.56 2971.72 1125.46 2968.41 1119.52 2965.09C1108.33 2958.8 1097.35 2952.33 1086.69 2945.51C1081.28 2942.35 1076.22 2939.04 1070.97 2935.56C1057.52 2926.99 1044.42 2917.91 1032.01 2908.81C1026.42 2904.81 1021.19 2900.77 1015.94 2896.77C1007.56 2890.29 999.343 2883.66 991.307 2876.84C985.023 2871.59 978.897 2866.52 972.957 2861.11C970.172 2858.83 967.547 2856.38 964.922 2853.76C960.387 2849.91 956.011 2845.72 951.636 2841.34C951.105 2841.15 950.575 2840.65 950.071 2839.93C945.192 2835.4 940.472 2830.67 935.751 2825.77C917.586 2807.25 900.827 2788.38 885.791 2769.14C882.635 2765.3 879.665 2761.45 876.695 2757.79C876.35 2757.44 876.165 2757.1 876.005 2756.73C871.471 2750.78 867.095 2744.84 862.905 2738.9C859.246 2733.83 855.745 2728.76 852.59 2723.69C851.184 2722.13 850.15 2720.38 849.275 2718.81C847.525 2716.37 845.96 2713.74 844.21 2711.12C841.585 2706.92 838.959 2702.73 836.52 2698.54C834.08 2694.51 831.64 2690.31 829.174 2686.31C826.893 2682.65 824.798 2678.8 822.889 2675.11C819.733 2669.51 816.949 2664.1 814.324 2658.69C811.884 2654.49 809.789 2650.3 807.694 2645.92C804.379 2639.29 801.409 2632.63 798.439 2626C907.085 2865.41 1197.2 3073.37 1755.25 3083L1758.03 3083C1761 3083.19 1763.79 3083.35 1766.94 3083.35C1771.32 3083.35 1775.51 3083.53 1779.86 3083.35C1785.27 3083.53 1790.86 3083.53 1796.27 3083.53L1796.27 3116.73L1796.27 3116.78Z"/>
</mask>
<path d="M1796.27 3116.78C1790.86 3116.78 1785.27 3116.78 1779.86 3116.59C1775.48 3116.78 1771.29 3116.59 1766.94 3116.59C1764.85 3116.59 1762.75 3116.41 1760.82 3116.41C1758.54 3116.41 1756.28 3116.41 1754.19 3116.22C1745.46 3116.04 1736.9 3115.88 1728.17 3115.53C1712.79 3115 1697.44 3114.31 1682.4 3113.44C1672.46 3112.91 1662.49 3112.22 1652.7 3111.53C1644.48 3111 1636.45 3110.31 1628.44 3109.62C1620.22 3108.93 1612.37 3108.21 1604.33 3107.33C1595.61 3106.46 1587.04 3105.58 1578.66 3104.55C1571.32 3103.67 1564 3102.8 1556.84 3101.92C1549.33 3100.86 1541.99 3099.83 1534.67 3098.76C1496.43 3093.35 1459.73 3086.53 1424.8 3078.84C1411.17 3075.68 1397.91 3072.55 1384.81 3069.23C1371.37 3065.73 1358.27 3062.26 1345.33 3058.41C1338.86 3056.5 1332.41 3054.56 1326.13 3052.65C1319.66 3050.74 1313.37 3048.8 1307.27 3046.71C1294.86 3042.7 1282.82 3038.48 1270.94 3034.29C1270.76 3034.1 1270.6 3034.1 1270.6 3034.1C1258.56 3029.73 1246.84 3025.19 1235.33 3020.47C1225.01 3016.27 1214.72 3011.9 1204.75 3007.54C1181.34 2997.41 1158.98 2986.4 1137.69 2975.04C1131.56 2971.72 1125.46 2968.41 1119.52 2965.09C1108.33 2958.8 1097.35 2952.33 1086.69 2945.51C1081.28 2942.35 1076.22 2939.04 1070.97 2935.56C1057.52 2926.99 1044.42 2917.91 1032.01 2908.81C1026.42 2904.81 1021.19 2900.77 1015.94 2896.77C1007.56 2890.29 999.343 2883.66 991.307 2876.84C985.023 2871.59 978.897 2866.52 972.957 2861.11C970.172 2858.83 967.547 2856.38 964.922 2853.76C960.387 2849.91 956.011 2845.72 951.636 2841.34C951.105 2841.15 950.575 2840.65 950.071 2839.93C945.192 2835.4 940.472 2830.67 935.751 2825.77C917.586 2807.25 900.827 2788.38 885.791 2769.14C882.635 2765.3 879.665 2761.45 876.695 2757.79C876.35 2757.44 876.165 2757.1 876.005 2756.73C871.471 2750.78 867.095 2744.84 862.905 2738.9C859.246 2733.83 855.745 2728.76 852.59 2723.69C851.184 2722.13 850.15 2720.38 849.275 2718.81C847.525 2716.37 845.96 2713.74 844.21 2711.12C841.585 2706.92 838.959 2702.73 836.52 2698.54C834.08 2694.51 831.64 2690.31 829.174 2686.31C826.893 2682.65 824.798 2678.8 822.889 2675.11C819.733 2669.51 816.949 2664.1 814.324 2658.69C811.884 2654.49 809.789 2650.3 807.694 2645.92C804.379 2639.29 801.409 2632.63 798.439 2626C907.085 2865.41 1197.2 3073.37 1755.25 3083L1758.03 3083C1761 3083.19 1763.79 3083.35 1766.94 3083.35C1771.32 3083.35 1775.51 3083.53 1779.86 3083.35C1785.27 3083.53 1790.86 3083.53 1796.27 3083.53L1796.27 3116.73L1796.27 3116.78Z" fill="#6E6A69"/>
<path d="M1796.27 3116.78L1796.27 3165.58L1845.07 3165.58L1845.07 3116.78L1796.27 3116.78ZM1779.86 3116.59L1781.53 3067.82L1779.66 3067.76L1777.79 3067.84L1779.86 3116.59ZM1754.19 3116.22L1758.5 3067.61L1756.87 3067.47L1755.23 3067.43L1754.19 3116.22ZM1728.17 3115.53L1730.1 3066.77L1729.98 3066.77L1729.86 3066.76L1728.17 3115.53ZM1682.4 3113.44L1685.24 3064.72L1685.12 3064.71L1685 3064.71L1682.4 3113.44ZM1652.7 3111.53L1656.13 3062.85L1655.99 3062.84L1655.85 3062.83L1652.7 3111.53ZM1628.44 3109.62L1632.63 3061L1632.57 3060.99L1632.52 3060.99L1628.44 3109.62ZM1604.33 3107.33L1609.62 3058.82L1609.41 3058.8L1609.21 3058.78L1604.33 3107.33ZM1578.66 3104.55L1584.64 3056.12L1584.54 3056.1L1584.44 3056.09L1578.66 3104.55ZM1556.84 3101.92L1550.01 3150.24L1550.46 3150.31L1550.92 3150.36L1556.84 3101.92ZM1534.67 3098.76L1541.67 3050.47L1541.59 3050.46L1541.51 3050.45L1534.67 3098.76ZM1424.8 3078.84L1413.79 3126.38L1414.05 3126.44L1414.3 3126.5L1424.8 3078.84ZM1384.81 3069.23L1372.51 3116.46L1372.67 3116.5L1372.84 3116.54L1384.81 3069.23ZM1345.33 3058.41L1359.23 3011.63L1359.19 3011.62L1359.15 3011.6L1345.33 3058.41ZM1326.13 3052.65L1340.32 3005.96L1340.13 3005.9L1339.95 3005.85L1326.13 3052.65ZM1307.27 3046.71L1323.14 3000.55L1322.7 3000.41L1322.27 3000.27L1307.27 3046.71ZM1270.94 3034.29L1236.43 3068.79L1244.26 3076.62L1254.7 3080.31L1270.94 3034.29ZM1270.6 3034.1L1253.92 3079.97L1262 3082.9L1270.59 3082.9L1270.6 3034.1ZM1235.33 3020.47L1253.86 2975.32L1253.78 2975.29L1253.7 2975.26L1235.33 3020.47ZM1204.75 3007.54L1224.27 2962.82L1224.21 2962.79L1224.14 2962.76L1204.75 3007.54ZM1137.69 2975.04L1114.45 3017.96L1114.59 3018.03L1114.73 3018.1L1137.69 2975.04ZM1119.52 2965.09L1095.62 3007.64L1095.68 3007.67L1095.73 3007.7L1119.52 2965.09ZM1086.69 2945.51L1112.99 2904.4L1112.15 2903.86L1111.29 2903.36L1086.69 2945.51ZM1070.97 2935.56L1097.91 2894.87L1097.56 2894.63L1097.2 2894.41L1070.97 2935.56ZM1032.01 2908.81L1060.87 2869.46L1060.65 2869.3L1060.42 2869.14L1032.01 2908.81ZM1015.94 2896.77L986.107 2935.39L986.223 2935.48L986.339 2935.56L1015.94 2896.77ZM991.307 2876.84L1022.88 2839.63L1022.75 2839.52L1022.61 2839.4L991.307 2876.84ZM972.957 2861.11L1005.83 2825.04L1004.88 2824.17L1003.89 2823.36L972.957 2861.11ZM964.922 2853.76L999.439 2819.26L998.022 2817.84L996.493 2816.55L964.922 2853.76ZM951.636 2841.34L986.153 2806.84L978.279 2798.96L967.765 2795.28L951.636 2841.34ZM950.071 2839.93L989.989 2811.86L987.047 2807.68L983.303 2804.2L950.071 2839.93ZM935.751 2825.77L970.927 2791.94L970.76 2791.77L970.591 2791.59L935.751 2825.77ZM885.791 2769.14L924.24 2739.09L923.887 2738.64L923.523 2738.19L885.791 2769.14ZM876.695 2757.79L914.595 2727.04L913.001 2725.08L911.212 2723.29L876.695 2757.79ZM876.005 2756.73L920.865 2737.51L918.479 2731.94L914.803 2727.12L876.005 2756.73ZM862.905 2738.9L902.792 2710.78L902.632 2710.55L902.469 2710.33L862.905 2738.9ZM852.59 2723.69L894.016 2697.9L891.757 2694.27L888.903 2691.09L852.59 2723.69ZM849.275 2718.81L891.872 2695L890.534 2692.6L888.935 2690.37L849.275 2718.81ZM844.21 2711.12L802.85 2737.02L803.216 2737.6L803.598 2738.17L844.21 2711.12ZM836.52 2698.54L878.698 2673.99L878.49 2673.63L878.275 2673.28L836.52 2698.54ZM829.174 2686.31L870.733 2660.73L870.665 2660.62L870.597 2660.51L829.174 2686.31ZM822.889 2675.11L866.227 2652.67L865.828 2651.9L865.402 2651.15L822.889 2675.11ZM814.324 2658.69L858.233 2637.39L857.429 2635.73L856.502 2634.14L814.324 2658.69ZM807.694 2645.92L851.715 2624.86L851.535 2624.48L851.348 2624.11L807.694 2645.92ZM798.439 2626L842.878 2605.83L753.899 2645.94L798.439 2626ZM1755.25 3083L1754.41 3131.8L1754.83 3131.81L1755.25 3131.81L1755.25 3083ZM1758.03 3083L1761.08 3034.3L1759.56 3034.2L1758.03 3034.2L1758.03 3083ZM1779.86 3083.35L1781.53 3034.58L1779.65 3034.51L1777.78 3034.59L1779.86 3083.35ZM1796.27 3083.53L1845.07 3083.53L1845.07 3034.73L1796.27 3034.73L1796.27 3083.53ZM1796.27 3067.98C1790.71 3067.98 1785.96 3067.97 1781.53 3067.82L1778.18 3165.37C1784.57 3165.59 1791.02 3165.58 1796.27 3165.58L1796.27 3067.98ZM1777.79 3067.84C1774.61 3067.97 1774.27 3067.79 1766.94 3067.79L1766.94 3165.4C1768.32 3165.4 1776.35 3165.59 1781.93 3165.35L1777.79 3067.84ZM1766.94 3067.79C1767.17 3067.79 1767.19 3067.8 1766.02 3067.75C1765.58 3067.73 1764.8 3067.69 1763.99 3067.67C1763.16 3067.64 1762.06 3067.61 1760.82 3067.61L1760.82 3165.21C1760.55 3165.21 1760.44 3165.2 1760.6 3165.21C1760.8 3165.22 1761.04 3165.23 1761.62 3165.25C1762.51 3165.29 1764.63 3165.4 1766.94 3165.4L1766.94 3067.79ZM1760.82 3067.61C1760.23 3067.61 1759.78 3067.61 1759.37 3067.61C1758.96 3067.6 1758.67 3067.6 1758.45 3067.6C1757.98 3067.59 1758.07 3067.58 1758.5 3067.61L1749.88 3164.83C1754.52 3165.25 1759.02 3165.21 1760.82 3165.21L1760.82 3067.61ZM1755.23 3067.43C1746.3 3067.24 1738.27 3067.09 1730.1 3066.77L1726.25 3164.3C1735.53 3164.66 1744.63 3164.83 1753.15 3165.01L1755.23 3067.43ZM1729.86 3066.76C1714.81 3066.24 1699.84 3065.57 1685.24 3064.72L1679.57 3162.16C1695.04 3163.06 1710.78 3163.76 1726.49 3164.31L1729.86 3066.76ZM1685 3064.71C1675.52 3064.2 1665.93 3063.54 1656.13 3062.85L1649.27 3160.21C1659.05 3160.9 1669.4 3161.61 1679.8 3162.17L1685 3064.71ZM1655.85 3062.83C1648.23 3062.34 1640.7 3061.69 1632.63 3061L1624.25 3158.24C1632.19 3158.92 1640.74 3159.66 1649.56 3160.23L1655.85 3062.83ZM1632.52 3060.99C1624.52 3060.31 1617.1 3059.64 1609.62 3058.82L1599.05 3155.85C1607.63 3156.78 1615.92 3157.54 1624.36 3158.25L1632.52 3060.99ZM1609.21 3058.78C1600.47 3057.9 1592.41 3057.07 1584.64 3056.12L1572.68 3152.98C1581.68 3154.09 1590.75 3155.02 1599.46 3155.89L1609.21 3058.78ZM1584.44 3056.09C1577.1 3055.22 1569.84 3054.35 1562.76 3053.48L1550.92 3150.36C1558.15 3151.25 1565.53 3152.13 1572.89 3153.01L1584.44 3056.09ZM1563.67 3053.6C1556.12 3052.53 1548.89 3051.51 1541.67 3050.47L1527.67 3147.06C1535.09 3148.14 1542.54 3149.19 1550.01 3150.24L1563.67 3053.6ZM1541.51 3050.45C1504.61 3045.22 1469.13 3038.63 1435.3 3031.18L1414.3 3126.5C1450.33 3134.43 1488.25 3141.48 1527.83 3147.08L1541.51 3050.45ZM1435.82 3031.3C1422.29 3028.16 1409.41 3025.12 1396.79 3021.92L1372.84 3116.54C1386.42 3119.98 1400.06 3123.2 1413.79 3126.38L1435.82 3031.3ZM1397.12 3022.01C1383.73 3018.52 1371.32 3015.22 1359.23 3011.63L1331.42 3105.19C1345.22 3109.29 1359.01 3112.94 1372.51 3116.46L1397.12 3022.01ZM1359.15 3011.6C1352.83 3009.74 1346.51 3007.84 1340.32 3005.96L1311.94 3099.34C1318.32 3101.28 1324.89 3103.26 1331.51 3105.21L1359.15 3011.6ZM1339.95 3005.85C1333.79 3004.03 1328.27 3002.32 1323.14 3000.55L1291.41 3092.86C1298.47 3095.28 1305.52 3097.45 1312.31 3099.45L1339.95 3005.85ZM1322.27 3000.27C1310.55 2996.48 1299.06 2992.46 1287.18 2988.27L1254.7 3080.31C1266.59 3084.5 1279.18 3088.92 1292.28 3093.15L1322.27 3000.27ZM1305.46 2999.79C1300.26 2994.59 1294.12 2990.75 1287.58 2988.34C1284.41 2987.17 1281.34 2986.41 1278.48 2985.94C1277.05 2985.71 1275.67 2985.55 1274.36 2985.45C1273.7 2985.4 1273.06 2985.36 1272.43 2985.34C1272.12 2985.32 1271.81 2985.32 1271.51 2985.31C1271.35 2985.31 1271.2 2985.31 1271.05 2985.3C1270.98 2985.3 1270.9 2985.3 1270.83 2985.3C1270.79 2985.3 1270.75 2985.3 1270.72 2985.3C1270.7 2985.3 1270.67 2985.3 1270.66 2985.3C1270.63 2985.3 1270.61 2985.3 1270.6 3034.1C1270.59 3082.9 1270.57 3082.9 1270.54 3082.9C1270.53 3082.9 1270.5 3082.9 1270.48 3082.9C1270.44 3082.9 1270.41 3082.9 1270.37 3082.9C1270.3 3082.9 1270.22 3082.9 1270.15 3082.9C1270 3082.9 1269.84 3082.9 1269.69 3082.9C1269.39 3082.89 1269.08 3082.88 1268.77 3082.87C1268.15 3082.85 1267.51 3082.81 1266.86 3082.76C1265.55 3082.66 1264.19 3082.5 1262.78 3082.27C1259.95 3081.81 1256.93 3081.06 1253.82 3079.91C1247.41 3077.55 1241.44 3073.8 1236.43 3068.79L1305.46 2999.79ZM1287.28 2988.24C1275.86 2984.09 1264.75 2979.79 1253.86 2975.32L1216.8 3065.61C1228.93 3070.59 1241.26 3075.36 1253.92 3079.97L1287.28 2988.24ZM1253.7 2975.26C1243.87 2971.26 1233.97 2967.05 1224.27 2962.82L1185.23 3052.27C1195.48 3056.74 1206.16 3061.29 1216.96 3065.68L1253.7 2975.26ZM1224.14 2962.76C1202.15 2953.24 1181 2942.83 1160.65 2931.98L1114.73 3018.1C1136.97 3029.96 1160.53 3041.58 1185.37 3052.33L1224.14 2962.76ZM1160.92 2932.13C1154.82 2928.82 1148.96 2925.63 1143.31 2922.48L1095.73 3007.7C1101.97 3011.18 1108.3 3014.63 1114.45 3017.96L1160.92 2932.13ZM1143.43 2922.55C1132.81 2916.58 1122.67 2910.59 1112.99 2904.4L1060.4 2986.62C1072.04 2994.07 1083.86 3001.03 1095.62 3007.64L1143.43 2922.55ZM1111.29 2903.36C1107.19 2900.97 1103.14 2898.33 1097.91 2894.87L1044.03 2976.25C1049.3 2979.74 1055.38 2983.74 1062.09 2987.66L1111.29 2903.36ZM1097.2 2894.41C1084.79 2886.49 1072.57 2878.04 1060.87 2869.46L1003.15 2948.17C1016.28 2957.79 1030.26 2967.48 1044.74 2976.71L1097.2 2894.41ZM1060.42 2869.14C1055.59 2865.67 1051.1 2862.21 1045.55 2857.97L986.339 2935.56C991.283 2939.34 997.247 2943.94 1003.6 2948.49L1060.42 2869.14ZM1045.78 2858.15C1037.94 2852.09 1030.3 2845.93 1022.88 2839.63L959.731 2914.05C968.381 2921.39 977.185 2928.49 986.107 2935.39L1045.78 2858.15ZM1022.61 2839.4C1015.99 2833.87 1010.81 2829.58 1005.83 2825.04L940.088 2897.18C946.98 2903.46 954.053 2909.31 960.009 2914.28L1022.61 2839.4ZM1003.89 2823.36C1002.67 2822.36 1001.26 2821.08 999.439 2819.26L930.404 2888.26C933.836 2891.69 937.673 2895.29 942.024 2898.85L1003.89 2823.36ZM996.493 2816.55C993.417 2813.94 990.106 2810.8 986.153 2806.84L917.119 2875.84C921.917 2880.64 927.357 2885.89 933.35 2890.97L996.493 2816.55ZM967.765 2795.28C975.504 2797.99 980.78 2802.09 983.729 2804.78C986.789 2807.57 988.817 2810.19 989.989 2811.86L910.154 2868.01C912.383 2871.18 920.285 2882.07 935.506 2887.4L967.765 2795.28ZM983.303 2804.2C979.285 2800.46 975.234 2796.42 970.927 2791.94L900.576 2859.59C905.709 2864.93 911.099 2870.33 916.84 2875.67L983.303 2804.2ZM970.591 2791.59C953.504 2774.17 937.987 2756.68 924.24 2739.09L847.342 2799.2C863.667 2820.08 881.668 2840.32 900.911 2859.94L970.591 2791.59ZM923.523 2738.19C919.622 2733.44 919.403 2732.97 914.595 2727.04L838.795 2788.53C839.927 2789.93 845.648 2797.15 848.059 2800.09L923.523 2738.19ZM911.212 2723.29C913.802 2725.88 915.959 2728.66 917.715 2731.48C919.389 2734.17 920.406 2736.44 920.865 2737.51L831.146 2775.94C832.652 2779.46 835.831 2785.94 842.178 2792.29L911.212 2723.29ZM914.803 2727.12C910.601 2721.62 906.592 2716.17 902.792 2710.78L823.019 2767.01C827.599 2773.51 832.341 2779.95 837.207 2786.33L914.803 2727.12ZM902.469 2710.33C899.165 2705.75 896.365 2701.67 894.016 2697.9L811.164 2749.49C815.126 2755.85 819.327 2761.91 823.341 2767.47L902.469 2710.33ZM888.903 2691.09C890.245 2692.58 891.112 2693.83 891.545 2694.49C891.951 2695.11 892.134 2695.47 891.872 2695L806.678 2742.62C807.795 2744.62 811.013 2750.43 816.277 2756.29L888.903 2691.09ZM888.935 2690.37C887.523 2688.4 888.701 2689.88 884.822 2684.06L803.598 2738.17C804.17 2739.03 804.573 2739.68 805.682 2741.41C806.599 2742.83 807.98 2744.97 809.615 2747.25L888.935 2690.37ZM885.57 2685.21C882.868 2680.9 880.671 2677.38 878.698 2673.99L794.341 2723.08C797.247 2728.08 800.301 2732.95 802.85 2737.02L885.57 2685.21ZM878.275 2673.28C876.613 2670.53 873.133 2664.62 870.733 2660.73L787.615 2711.89C790.148 2716 791.546 2718.48 794.764 2723.8L878.275 2673.28ZM870.597 2660.51C869.278 2658.39 867.849 2655.81 866.227 2652.67L779.551 2697.55C781.748 2701.79 784.508 2706.9 787.751 2712.11L870.597 2660.51ZM865.402 2651.15C862.833 2646.59 860.513 2642.09 858.233 2637.39L770.415 2679.98C773.385 2686.11 776.634 2692.43 780.376 2699.07L865.402 2651.15ZM856.502 2634.14C855.045 2631.64 853.61 2628.82 851.715 2624.86L763.673 2666.99C765.968 2671.78 768.723 2677.35 772.145 2683.23L856.502 2634.14ZM851.348 2624.11C848.582 2618.57 846.044 2612.9 842.979 2606.05L753.899 2645.94C756.774 2652.36 760.177 2660.01 764.04 2667.74L851.348 2624.11ZM754 2646.16C873.118 2908.65 1185.02 3121.97 1754.41 3131.8L1756.09 3034.21C1209.37 3024.77 941.052 2822.16 842.878 2605.83L754 2646.16ZM1755.25 3131.81L1758.03 3131.81L1758.03 3034.2L1755.25 3034.2L1755.25 3131.81ZM1754.99 3131.71C1758.06 3131.9 1762.15 3132.15 1766.94 3132.15L1766.94 3034.55C1765.43 3034.55 1763.95 3034.48 1761.08 3034.3L1754.99 3131.71ZM1766.94 3132.15C1768.34 3132.15 1776.38 3132.34 1781.94 3132.11L1777.78 3034.59C1774.64 3034.73 1774.3 3034.55 1766.94 3034.55L1766.94 3132.15ZM1778.18 3132.12C1784.57 3132.34 1791.02 3132.34 1796.27 3132.34L1796.27 3034.73C1790.71 3034.73 1785.96 3034.73 1781.53 3034.58L1778.18 3132.12ZM1747.47 3083.53L1747.47 3116.73L1845.07 3116.73L1845.07 3083.53L1747.47 3083.53ZM1747.47 3116.73L1747.47 3116.78L1845.07 3116.78L1845.07 3116.73L1747.47 3116.73Z" fill="black" mask="url(#path-68-inside-6_366_601)"/>
<path d="M4103.27 700.894H3353.5L2978.76 1350.39L2603.88 700.894H1854.25L1479.5 1350.39L1104.62 700.894H354.988L1104.62 2000.01L354.988 3299H1104.62L1479.5 2649.51L1854.25 3299H2603.88L1854.25 2000.01L2229.13 1350.39L2978.76 2649.51L3728.39 1350.39L4103.27 2000.01L4478.02 1350.39L4103.27 700.894Z" fill="#3B3835" fill-opacity="0.05"/>
<defs>
<filter id="filter0_ii_366_601" x="2721.78" y="542" width="1756.84" height="1237.96" filterUnits="userSpaceOnUse" color-interpolation-filters="sRGB">
<feFlood flood-opacity="0" result="BackgroundImageFix"/>
<feBlend mode="normal" in="SourceGraphic" in2="BackgroundImageFix" result="shape"/>
<feColorMatrix in="SourceAlpha" type="matrix" values="0 0 0 0 0 0 0 0 0 0 0 0 0 0 0 0 0 0 127 0" result="hardAlpha"/>
<feOffset dx="30.5007"/>
<feGaussianBlur stdDeviation="24.4005"/>
<feComposite in2="hardAlpha" operator="arithmetic" k2="-1" k3="1"/>
<feColorMatrix type="matrix" values="0 0 0 0 0 0 0 0 0 0 0 0 0 0 0 0 0 0 0.25 0"/>
<feBlend mode="normal" in2="shape" result="effect1_innerShadow_366_601"/>
<feColorMatrix in="SourceAlpha" type="matrix" values="0 0 0 0 0 0 0 0 0 0 0 0 0 0 0 0 0 0 127 0" result="hardAlpha"/>
<feOffset dx="-30.5007"/>
<feGaussianBlur stdDeviation="24.4005"/>
<feComposite in2="hardAlpha" operator="arithmetic" k2="-1" k3="1"/>
<feColorMatrix type="matrix" values="0 0 0 0 0 0 0 0 0 0 0 0 0 0 0 0 0 0 0.25 0"/>
<feBlend mode="normal" in2="effect1_innerShadow_366_601" result="effect2_innerShadow_366_601"/>
</filter>
<filter id="filter1_ii_366_601" x="2721.78" y="923.566" width="1756.84" height="296.771" filterUnits="userSpaceOnUse" color-interpolation-filters="sRGB">
<feFlood flood-opacity="0" result="BackgroundImageFix"/>
<feBlend mode="normal" in="SourceGraphic" in2="BackgroundImageFix" result="shape"/>
<feColorMatrix in="SourceAlpha" type="matrix" values="0 0 0 0 0 0 0 0 0 0 0 0 0 0 0 0 0 0 127 0" result="hardAlpha"/>
<feOffset dx="30.5007"/>
<feGaussianBlur stdDeviation="15.2503"/>
<feComposite in2="hardAlpha" operator="arithmetic" k2="-1" k3="1"/>
<feColorMatrix type="matrix" values="0 0 0 0 0 0 0 0 0 0 0 0 0 0 0 0 0 0 0.25 0"/>
<feBlend mode="normal" in2="shape" result="effect1_innerShadow_366_601"/>
<feColorMatrix in="SourceAlpha" type="matrix" values="0 0 0 0 0 0 0 0 0 0 0 0 0 0 0 0 0 0 127 0" result="hardAlpha"/>
<feOffset dx="-30.5007"/>
<feGaussianBlur stdDeviation="15.2503"/>
<feComposite in2="hardAlpha" operator="arithmetic" k2="-1" k3="1"/>
<feColorMatrix type="matrix" values="0 0 0 0 0 0 0 0 0 0 0 0 0 0 0 0 0 0 0.25 0"/>
<feBlend mode="normal" in2="effect1_innerShadow_366_601" result="effect2_innerShadow_366_601"/>
</filter>
<filter id="filter2_ii_366_601" x="2721.78" y="1203.38" width="1756.84" height="296.771" filterUnits="userSpaceOnUse" color-interpolation-filters="sRGB">
<feFlood flood-opacity="0" result="BackgroundImageFix"/>
<feBlend mode="normal" in="SourceGraphic" in2="BackgroundImageFix" result="shape"/>
<feColorMatrix in="SourceAlpha" type="matrix" values="0 0 0 0 0 0 0 0 0 0 0 0 0 0 0 0 0 0 127 0" result="hardAlpha"/>
<feOffset dx="30.5007"/>
<feGaussianBlur stdDeviation="15.2503"/>
<feComposite in2="hardAlpha" operator="arithmetic" k2="-1" k3="1"/>
<feColorMatrix type="matrix" values="0 0 0 0 0 0 0 0 0 0 0 0 0 0 0 0 0 0 0.25 0"/>
<feBlend mode="normal" in2="shape" result="effect1_innerShadow_366_601"/>
<feColorMatrix in="SourceAlpha" type="matrix" values="0 0 0 0 0 0 0 0 0 0 0 0 0 0 0 0 0 0 127 0" result="hardAlpha"/>
<feOffset dx="-30.5007"/>
<feGaussianBlur stdDeviation="15.2503"/>
<feComposite in2="hardAlpha" operator="arithmetic" k2="-1" k3="1"/>
<feColorMatrix type="matrix" values="0 0 0 0 0 0 0 0 0 0 0 0 0 0 0 0 0 0 0.25 0"/>
<feBlend mode="normal" in2="effect1_innerShadow_366_601" result="effect2_innerShadow_366_601"/>
</filter>
<filter id="filter3_ii_366_601" x="2721.78" y="1483.19" width="1756.84" height="296.771" filterUnits="userSpaceOnUse" color-interpolation-filters="sRGB">
<feFlood flood-opacity="0" result="BackgroundImageFix"/>
<feBlend mode="normal" in="SourceGraphic" in2="BackgroundImageFix" result="shape"/>
<feColorMatrix in="SourceAlpha" type="matrix" values="0 0 0 0 0 0 0 0 0 0 0 0 0 0 0 0 0 0 127 0" result="hardAlpha"/>
<feOffset dx="30.5007"/>
<feGaussianBlur stdDeviation="15.2503"/>
<feComposite in2="hardAlpha" operator="arithmetic" k2="-1" k3="1"/>
<feColorMatrix type="matrix" values="0 0 0 0 0 0 0 0 0 0 0 0 0 0 0 0 0 0 0.25 0"/>
<feBlend mode="normal" in2="shape" result="effect1_innerShadow_366_601"/>
<feColorMatrix in="SourceAlpha" type="matrix" values="0 0 0 0 0 0 0 0 0 0 0 0 0 0 0 0 0 0 127 0" result="hardAlpha"/>
<feOffset dx="-30.5007"/>
<feGaussianBlur stdDeviation="15.2503"/>
<feComposite in2="hardAlpha" operator="arithmetic" k2="-1" k3="1"/>
<feColorMatrix type="matrix" values="0 0 0 0 0 0 0 0 0 0 0 0 0 0 0 0 0 0 0.25 0"/>
<feBlend mode="normal" in2="effect1_innerShadow_366_601" result="effect2_innerShadow_366_601"/>
</filter>
<filter id="filter4_i_366_601" x="3015.15" y="601.352" width="220.457" height="271.334" filterUnits="userSpaceOnUse" color-interpolation-filters="sRGB">
<feFlood flood-opacity="0" result="BackgroundImageFix"/>
<feBlend mode="normal" in="SourceGraphic" in2="BackgroundImageFix" result="shape"/>
<feColorMatrix in="SourceAlpha" type="matrix" values="0 0 0 0 0 0 0 0 0 0 0 0 0 0 0 0 0 0 127 0" result="hardAlpha"/>
<feOffset/>
<feGaussianBlur stdDeviation="30.5007"/>
<feComposite in2="hardAlpha" operator="arithmetic" k2="-1" k3="1"/>
<feColorMatrix type="matrix" values="0 0 0 0 0 0 0 0 0 0 0 0 0 0 0 0 0 0 1 0"/>
<feBlend mode="normal" in2="shape" result="effect1_innerShadow_366_601"/>
</filter>
<filter id="filter5_i_366_601" x="3430.62" y="694.622" width="356.125" height="84.792" filterUnits="userSpaceOnUse" color-interpolation-filters="sRGB">
<feFlood flood-opacity="0" result="BackgroundImageFix"/>
<feBlend mode="normal" in="SourceGraphic" in2="BackgroundImageFix" result="shape"/>
<feColorMatrix in="SourceAlpha" type="matrix" values="0 0 0 0 0 0 0 0 0 0 0 0 0 0 0 0 0 0 127 0" result="hardAlpha"/>
<feOffset/>
<feGaussianBlur stdDeviation="12.2003"/>
<feComposite in2="hardAlpha" operator="arithmetic" k2="-1" k3="1"/>
<feColorMatrix type="matrix" values="0 0 0 0 0 0 0 0 0 0 0 0 0 0 0 0 0 0 1 0"/>
<feBlend mode="normal" in2="shape" result="effect1_innerShadow_366_601"/>
</filter>
<filter id="filter6_i_366_601" x="3133.89" y="923.566" width="203.5" height="237.417" filterUnits="userSpaceOnUse" color-interpolation-filters="sRGB">
<feFlood flood-opacity="0" result="BackgroundImageFix"/>
<feBlend mode="normal" in="SourceGraphic" in2="BackgroundImageFix" result="shape"/>
<feColorMatrix in="SourceAlpha" type="matrix" values="0 0 0 0 0 0 0 0 0 0 0 0 0 0 0 0 0 0 127 0" result="hardAlpha"/>
<feOffset/>
<feGaussianBlur stdDeviation="30.5007"/>
<feComposite in2="hardAlpha" operator="arithmetic" k2="-1" k3="1"/>
<feColorMatrix type="matrix" values="0 0 0 0 0 0 0 0 0 0 0 0 0 0 0 0 0 0 1 0"/>
<feBlend mode="normal" in2="shape" result="effect1_innerShadow_366_601"/>
</filter>
<filter id="filter7_i_366_601" x="3133.89" y="1203.38" width="203.5" height="237.417" filterUnits="userSpaceOnUse" color-interpolation-filters="sRGB">
<feFlood flood-opacity="0" result="BackgroundImageFix"/>
<feBlend mode="normal" in="SourceGraphic" in2="BackgroundImageFix" result="shape"/>
<feColorMatrix in="SourceAlpha" type="matrix" values="0 0 0 0 0 0 0 0 0 0 0 0 0 0 0 0 0 0 127 0" result="hardAlpha"/>
<feOffset/>
<feGaussianBlur stdDeviation="30.5007"/>
<feComposite in2="hardAlpha" operator="arithmetic" k2="-1" k3="1"/>
<feColorMatrix type="matrix" values="0 0 0 0 0 0 0 0 0 0 0 0 0 0 0 0 0 0 1 0"/>
<feBlend mode="normal" in2="shape" result="effect1_innerShadow_366_601"/>
</filter>
<filter id="filter8_i_366_601" x="3184.73" y="974.435" width="101.75" height="101.75" filterUnits="userSpaceOnUse" color-interpolation-filters="sRGB">
<feFlood flood-opacity="0" result="BackgroundImageFix"/>
<feBlend mode="normal" in="SourceGraphic" in2="BackgroundImageFix" result="shape"/>
<feColorMatrix in="SourceAlpha" type="matrix" values="0 0 0 0 0 0 0 0 0 0 0 0 0 0 0 0 0 0 127 0" result="hardAlpha"/>
<feOffset/>
<feGaussianBlur stdDeviation="6.10013"/>
<feComposite in2="hardAlpha" operator="arithmetic" k2="-1" k3="1"/>
<feColorMatrix type="matrix" values="0 0 0 0 0 0 0 0 0 0 0 0 0 0 0 0 0 0 1 0"/>
<feBlend mode="normal" in2="shape" result="effect1_innerShadow_366_601"/>
</filter>
<filter id="filter9_i_366_601" x="3184.73" y="1254.25" width="101.75" height="101.75" filterUnits="userSpaceOnUse" color-interpolation-filters="sRGB">
<feFlood flood-opacity="0" result="BackgroundImageFix"/>
<feBlend mode="normal" in="SourceGraphic" in2="BackgroundImageFix" result="shape"/>
<feColorMatrix in="SourceAlpha" type="matrix" values="0 0 0 0 0 0 0 0 0 0 0 0 0 0 0 0 0 0 127 0" result="hardAlpha"/>
<feOffset/>
<feGaussianBlur stdDeviation="6.10013"/>
<feComposite in2="hardAlpha" operator="arithmetic" k2="-1" k3="1"/>
<feColorMatrix type="matrix" values="0 0 0 0 0 0 0 0 0 0 0 0 0 0 0 0 0 0 1 0"/>
<feBlend mode="normal" in2="shape" result="effect1_innerShadow_366_601"/>
</filter>
<filter id="filter10_i_366_601" x="1812.82" y="2771.12" width="801.199" height="686.743" filterUnits="userSpaceOnUse" color-interpolation-filters="sRGB">
<feFlood flood-opacity="0" result="BackgroundImageFix"/>
<feBlend mode="normal" in="SourceGraphic" in2="BackgroundImageFix" result="shape"/>
<feColorMatrix in="SourceAlpha" type="matrix" values="0 0 0 0 0 0 0 0 0 0 0 0 0 0 0 0 0 0 127 0" result="hardAlpha"/>
<feOffset/>
<feGaussianBlur stdDeviation="61.0013"/>
<feComposite in2="hardAlpha" operator="arithmetic" k2="-1" k3="1"/>
<feColorMatrix type="matrix" values="0 0 0 0 0 0 0 0 0 0 0 0 0 0 0 0 0 0 1 0"/>
<feBlend mode="normal" in2="shape" result="effect1_innerShadow_366_601"/>
</filter>
<linearGradient id="paint0_linear_366_601" x1="3600.2" y1="1500.15" x2="3600.2" y2="1610.38" gradientUnits="userSpaceOnUse">
<stop stop-color="#F8F8F9"/>
<stop offset="1" stop-color="#D3E2F5" stop-opacity="0.9"/>
</linearGradient>
<linearGradient id="paint1_linear_366_601" x1="3125.4" y1="686.146" x2="3125.4" y2="745.5" gradientUnits="userSpaceOnUse">
<stop stop-color="white"/>
<stop offset="1" stop-opacity="0.15"/>
</linearGradient>
<radialGradient id="paint2_radial_366_601" cx="0" cy="0" r="1" gradientUnits="userSpaceOnUse" gradientTransform="translate(2213.38 3114.49) rotate(180) scale(316.665 267.067)">
<stop stop-color="white"/>
<stop offset="0.635417" stop-opacity="0.8"/>
</radialGradient>
</defs>
</svg>
