<svg width="5971" height="2455" viewBox="0 0 5971 2455" fill="none" xmlns="http://www.w3.org/2000/svg">
<rect width="5970.26" height="2454.35" fill="#F2F4F9"/>
<g filter="url(#filter0_ii_377_534)">
<rect x="3487.02" y="505.176" width="1978.07" height="1443.99" rx="35.5769" fill="white"/>
</g>
<rect x="3494.13" y="512.291" width="1963.84" height="1429.76" rx="28.4615" stroke="black" stroke-width="14.2307"/>
<path d="M3669.99 782.106C3700.03 782.106 3724.39 757.751 3724.39 727.708C3724.39 697.665 3700.03 673.311 3669.99 673.311C3639.95 673.311 3615.59 697.665 3615.59 727.708C3615.59 757.751 3639.95 782.106 3669.99 782.106Z" fill="#333333"/>
<path d="M3669.93 762.156C3663.87 762.155 3657.92 760.55 3652.68 757.506C3647.44 754.461 3643.11 750.084 3640.11 744.821C3637.11 739.557 3635.56 733.593 3635.61 727.535C3635.66 721.477 3637.31 715.541 3640.4 710.328C3643.45 705.199 3647.78 700.948 3652.96 697.993C3654.04 697.376 3655.32 697.215 3656.53 697.544C3657.73 697.873 3658.75 698.666 3659.36 699.748C3659.98 700.83 3660.14 702.113 3659.81 703.314C3659.48 704.515 3658.69 705.536 3657.61 706.152C3653.78 708.336 3650.6 711.49 3648.39 715.298C3646.17 719.105 3645 723.429 3645 727.834C3645 741.58 3656.18 752.765 3669.93 752.765C3683.68 752.765 3694.86 741.58 3694.86 727.834C3694.85 723.429 3693.68 719.105 3691.47 715.297C3689.25 711.49 3686.07 708.335 3682.25 706.152C3681.7 705.852 3681.22 705.446 3680.83 704.959C3680.45 704.471 3680.16 703.912 3679.99 703.313C3679.82 702.714 3679.78 702.087 3679.85 701.47C3679.93 700.852 3680.13 700.256 3680.43 699.715C3680.74 699.174 3681.15 698.7 3681.65 698.32C3682.14 697.941 3682.7 697.662 3683.3 697.502C3683.91 697.342 3684.53 697.303 3685.15 697.387C3685.77 697.471 3686.36 697.677 3686.9 697.993C3692.17 700.989 3696.55 705.33 3699.6 710.572C3702.65 715.814 3704.25 721.77 3704.25 727.834C3704.25 732.342 3703.37 736.807 3701.64 740.973C3699.92 745.139 3697.39 748.924 3694.2 752.112C3691.02 755.3 3687.23 757.828 3683.07 759.552C3678.9 761.276 3674.43 762.161 3669.93 762.158L3669.93 762.156Z" fill="white"/>
<path d="M3669.93 723.74C3669.31 723.74 3668.7 723.619 3668.13 723.383C3667.56 723.147 3667.05 722.801 3666.61 722.365C3666.17 721.929 3665.83 721.411 3665.59 720.841C3665.36 720.271 3665.23 719.661 3665.23 719.044V692.667C3665.25 691.434 3665.76 690.257 3666.63 689.392C3667.51 688.526 3668.7 688.041 3669.93 688.041C3671.16 688.041 3672.35 688.526 3673.23 689.392C3674.1 690.257 3674.61 691.434 3674.63 692.667V719.044C3674.63 719.66 3674.5 720.271 3674.27 720.841C3674.03 721.411 3673.69 721.928 3673.25 722.364C3672.81 722.801 3672.3 723.146 3671.73 723.383C3671.16 723.619 3670.55 723.74 3669.93 723.74V723.74Z" fill="white"/>
<g filter="url(#filter1_ii_377_534)">
<rect x="3487.02" y="950.242" width="1978.07" height="346.163" fill="#1B75BA"/>
</g>
<rect x="3494.13" y="957.358" width="1963.84" height="331.932" stroke="black" stroke-width="14.2307"/>
<g filter="url(#filter2_ii_377_534)">
<rect x="3487.02" y="1276.62" width="1978.07" height="346.163" fill="#918D8C"/>
</g>
<rect x="3494.13" y="1283.74" width="1963.84" height="331.932" stroke="black" stroke-width="14.2307"/>
<g filter="url(#filter3_ii_377_534)">
<path d="M3487.02 1603.01H5465.09V1913.59C5465.09 1933.24 5449.16 1949.17 5429.51 1949.17H3522.59C3502.94 1949.17 3487.02 1933.24 3487.02 1913.59V1603.01Z" fill="black"/>
</g>
<path d="M3494.13 1610.12H5457.97V1913.59C5457.97 1929.31 5445.23 1942.05 5429.51 1942.05H3522.59C3506.87 1942.05 3494.13 1929.31 3494.13 1913.59V1610.12Z" stroke="black" stroke-width="14.2307"/>
<path d="M3635.38 1622.79H5316.75V1733.57C5316.75 1743.4 5308.78 1751.36 5298.96 1751.36H3653.17C3643.35 1751.36 3635.38 1743.4 3635.38 1733.57V1622.79Z" fill="url(#paint0_linear_377_534)"/>
<g filter="url(#filter4_i_377_534)">
<rect x="3793.64" y="574.408" width="257.15" height="316.492" rx="42.6922" fill="white"/>
</g>
<rect x="3797.2" y="577.966" width="250.034" height="309.376" rx="39.1345" stroke="black" stroke-width="7.11537"/>
<path d="M3813.43 574.408H4031.02V842.658C4031.02 858.377 4018.28 871.119 4002.56 871.119H3841.9C3826.18 871.119 3813.43 858.377 3813.43 842.658V574.408Z" fill="white"/>
<path d="M3813.43 612.76C3813.43 599.343 3813.43 592.635 3817.6 588.467C3821.77 584.299 3828.48 584.299 3841.9 584.299H4002.56C4015.98 584.299 4022.69 584.299 4026.85 588.467C4031.02 592.635 4031.02 599.343 4031.02 612.76V684.412C4031.02 697.829 4031.02 704.537 4026.85 708.706C4022.69 712.874 4015.98 712.874 4002.56 712.874H3841.9C3828.48 712.874 3821.77 712.874 3817.6 708.706C3813.43 704.537 3813.43 697.829 3813.43 684.412V612.76Z" fill="url(#paint1_linear_377_534)"/>
<g filter="url(#filter5_i_377_534)">
<rect x="4278.27" y="683.201" width="415.395" height="98.9037" rx="42.6922" fill="#D9D9D9"/>
</g>
<rect x="4281.82" y="686.759" width="408.28" height="91.7883" rx="39.1345" stroke="black" stroke-width="7.11537"/>
<line x1="4344.69" y1="735.428" x2="4627.17" y2="735.428" stroke="black" stroke-width="14.2307" stroke-linecap="round"/>
<rect x="4918.32" y="680.428" width="401.165" height="183.577" fill="#911016" stroke="black" stroke-width="14.2307"/>
<rect x="4980.47" y="821.668" width="267.04" height="49.4518" fill="black"/>
<circle cx="5010.14" cy="762.326" r="19.7807" fill="black"/>
<circle cx="5079.41" cy="762.326" r="19.7807" fill="black"/>
<circle cx="5148.61" cy="762.326" r="19.7807" fill="black"/>
<circle cx="5217.82" cy="762.326" r="19.7807" fill="black"/>
<line x1="4930.99" y1="640.083" x2="4950.77" y2="640.083" stroke="black" stroke-width="7.11537"/>
<line x1="4940.89" y1="600.52" x2="4980.45" y2="600.52" stroke="black" stroke-width="7.11537"/>
<line x1="4970.57" y1="640.083" x2="4990.35" y2="640.083" stroke="black" stroke-width="7.11537"/>
<line x1="4947.22" y1="643.641" x2="4947.22" y2="594.189" stroke="black" stroke-width="7.11537"/>
<line x1="4976.85" y1="643.641" x2="4976.85" y2="594.189" stroke="black" stroke-width="7.11537"/>
<line x1="5039.73" y1="640.083" x2="5079.29" y2="640.083" stroke="black" stroke-width="7.11537"/>
<line x1="5069.41" y1="600.52" x2="5108.97" y2="600.52" stroke="black" stroke-width="7.11537"/>
<line x1="5075.75" y1="643.641" x2="5075.75" y2="594.189" stroke="black" stroke-width="7.11537"/>
<line x1="5184.53" y1="643.641" x2="5184.53" y2="594.189" stroke="black" stroke-width="7.11537"/>
<line x1="5158.41" y1="620.302" x2="5207.86" y2="620.302" stroke="black" stroke-width="7.11537"/>
<line x1="5257.36" y1="620.304" x2="5306.81" y2="620.304" stroke="black" stroke-width="7.11537"/>
<g filter="url(#filter6_i_377_534)">
<path d="M3932.12 950.242H4169.49V1141.79C4169.49 1188.94 4131.26 1227.17 4084.1 1227.17H4017.5C3970.35 1227.17 3932.12 1188.94 3932.12 1141.79V950.242Z" fill="#686867"/>
</g>
<path d="M3939.23 957.358H4162.37V1141.79C4162.37 1185.01 4127.33 1220.06 4084.1 1220.06H4017.5C3974.27 1220.06 3939.23 1185.01 3939.23 1141.79V957.358Z" stroke="black" stroke-width="14.2307"/>
<g filter="url(#filter7_i_377_534)">
<path d="M3932.12 1276.62H4169.49V1468.17C4169.49 1515.33 4131.26 1553.56 4084.1 1553.56H4017.5C3970.35 1553.56 3932.12 1515.33 3932.12 1468.17V1276.62Z" fill="#686867"/>
</g>
<path d="M3939.23 1283.74H4162.37V1468.17C4162.37 1511.4 4127.33 1546.44 4084.1 1546.44H4017.5C3974.27 1546.44 3939.23 1511.4 3939.23 1468.17V1283.74Z" stroke="black" stroke-width="14.2307"/>
<circle cx="4050.76" cy="1068.93" r="79.1229" fill="black"/>
<g filter="url(#filter8_i_377_534)">
<circle cx="4050.77" cy="1068.93" r="59.3422" fill="#FFD700"/>
</g>
<circle cx="4050.73" cy="1068.93" r="19.7807" fill="black"/>
<circle cx="4050.76" cy="1395.31" r="79.1229" fill="black"/>
<g filter="url(#filter9_i_377_534)">
<circle cx="4050.77" cy="1395.31" r="59.3422" fill="#FFD700"/>
</g>
<circle cx="4050.73" cy="1395.31" r="19.7807" fill="black"/>
<path d="M3045.36 1145.56V1017.48C3045.36 1013.55 3048.55 1010.37 3052.48 1010.37H3201.9C3205.83 1010.37 3209.02 1013.55 3209.02 1017.48V1145.56C3209.02 1149.49 3205.83 1152.67 3201.9 1152.67H3052.48C3048.55 1152.67 3045.36 1149.49 3045.36 1145.56Z" fill="#FFD700" stroke="black" stroke-width="28.4615"/>
<path d="M816.468 939.213V1216.71C816.468 1220.64 813.283 1223.83 809.353 1223.83H563.777C538.193 1223.83 519.407 1204.92 519.407 1183.97V970.794C519.407 950.484 537.623 932.098 562.524 932.098H809.353C813.283 932.098 816.468 935.283 816.468 939.213Z" fill="#333333" stroke="black" stroke-width="28.4615"/>
<g filter="url(#filter10_i_377_534)">
<path d="M805.453 980.48V1182.96C805.453 1194.75 815.01 1204.31 826.799 1204.31L3031.56 1204.31C3043.35 1204.31 3052.91 1194.75 3052.91 1182.96V980.48C3052.91 968.69 3043.35 959.133 3031.56 959.133L826.799 959.133C815.01 959.133 805.453 968.69 805.453 980.48Z" fill="#2C2C2C"/>
</g>
<path d="M819.684 1182.96V980.48C819.684 976.55 822.87 973.364 826.799 973.364L3031.56 973.364C3035.49 973.364 3038.68 976.55 3038.68 980.48V1182.96C3038.68 1186.89 3035.49 1190.08 3031.56 1190.08L826.799 1190.08C822.87 1190.08 819.684 1186.89 819.684 1182.96Z" stroke="black" stroke-width="28.4615"/>
<line x1="3173.44" y1="1024.6" x2="3173.44" y2="1145.56" stroke="black" stroke-width="14.2307"/>
<line x1="3144.98" y1="1024.6" x2="3144.98" y2="1145.56" stroke="black" stroke-width="14.2307"/>
<line x1="3116.52" y1="1024.6" x2="3116.52" y2="1145.56" stroke="black" stroke-width="14.2307"/>
<line x1="3088.06" y1="1024.6" x2="3088.06" y2="1145.56" stroke="black" stroke-width="14.2307"/>
<path d="M3324.98 1056.28H3306.61V1093.02H3324.98V1056.28ZM3811.78 1074.65L3628.08 968.587V1180.71L3811.78 1074.65ZM3324.98 1093.02H3646.45V1056.28H3324.98V1093.02Z" fill="black"/>
<path d="M4211.6 283H3666.6L3394.2 754.975L3121.7 283H2576.8L2304.4 754.975L2031.9 283H1487L2031.9 1227.05L1487 2171H2031.9L2304.4 1699.02L2576.8 2171H3121.7L2576.8 1227.05L2849.3 754.975L3394.2 1699.02L3939.1 754.975L4211.6 1227.05L4484 754.975L4211.6 283Z" fill="#3B3835" fill-opacity="0.05"/>
<defs>
<filter id="filter0_ii_377_534" x="3451.44" y="505.176" width="2049.23" height="1443.99" filterUnits="userSpaceOnUse" color-interpolation-filters="sRGB">
<feFlood flood-opacity="0" result="BackgroundImageFix"/>
<feBlend mode="normal" in="SourceGraphic" in2="BackgroundImageFix" result="shape"/>
<feColorMatrix in="SourceAlpha" type="matrix" values="0 0 0 0 0 0 0 0 0 0 0 0 0 0 0 0 0 0 127 0" result="hardAlpha"/>
<feOffset dx="35.5769"/>
<feGaussianBlur stdDeviation="28.4615"/>
<feComposite in2="hardAlpha" operator="arithmetic" k2="-1" k3="1"/>
<feColorMatrix type="matrix" values="0 0 0 0 0 0 0 0 0 0 0 0 0 0 0 0 0 0 0.25 0"/>
<feBlend mode="normal" in2="shape" result="effect1_innerShadow_377_534"/>
<feColorMatrix in="SourceAlpha" type="matrix" values="0 0 0 0 0 0 0 0 0 0 0 0 0 0 0 0 0 0 127 0" result="hardAlpha"/>
<feOffset dx="-35.5769"/>
<feGaussianBlur stdDeviation="28.4615"/>
<feComposite in2="hardAlpha" operator="arithmetic" k2="-1" k3="1"/>
<feColorMatrix type="matrix" values="0 0 0 0 0 0 0 0 0 0 0 0 0 0 0 0 0 0 0.25 0"/>
<feBlend mode="normal" in2="effect1_innerShadow_377_534" result="effect2_innerShadow_377_534"/>
</filter>
<filter id="filter1_ii_377_534" x="3451.44" y="950.242" width="2049.23" height="346.162" filterUnits="userSpaceOnUse" color-interpolation-filters="sRGB">
<feFlood flood-opacity="0" result="BackgroundImageFix"/>
<feBlend mode="normal" in="SourceGraphic" in2="BackgroundImageFix" result="shape"/>
<feColorMatrix in="SourceAlpha" type="matrix" values="0 0 0 0 0 0 0 0 0 0 0 0 0 0 0 0 0 0 127 0" result="hardAlpha"/>
<feOffset dx="35.5769"/>
<feGaussianBlur stdDeviation="17.7884"/>
<feComposite in2="hardAlpha" operator="arithmetic" k2="-1" k3="1"/>
<feColorMatrix type="matrix" values="0 0 0 0 0 0 0 0 0 0 0 0 0 0 0 0 0 0 0.25 0"/>
<feBlend mode="normal" in2="shape" result="effect1_innerShadow_377_534"/>
<feColorMatrix in="SourceAlpha" type="matrix" values="0 0 0 0 0 0 0 0 0 0 0 0 0 0 0 0 0 0 127 0" result="hardAlpha"/>
<feOffset dx="-35.5769"/>
<feGaussianBlur stdDeviation="17.7884"/>
<feComposite in2="hardAlpha" operator="arithmetic" k2="-1" k3="1"/>
<feColorMatrix type="matrix" values="0 0 0 0 0 0 0 0 0 0 0 0 0 0 0 0 0 0 0.25 0"/>
<feBlend mode="normal" in2="effect1_innerShadow_377_534" result="effect2_innerShadow_377_534"/>
</filter>
<filter id="filter2_ii_377_534" x="3451.44" y="1276.62" width="2049.23" height="346.162" filterUnits="userSpaceOnUse" color-interpolation-filters="sRGB">
<feFlood flood-opacity="0" result="BackgroundImageFix"/>
<feBlend mode="normal" in="SourceGraphic" in2="BackgroundImageFix" result="shape"/>
<feColorMatrix in="SourceAlpha" type="matrix" values="0 0 0 0 0 0 0 0 0 0 0 0 0 0 0 0 0 0 127 0" result="hardAlpha"/>
<feOffset dx="35.5769"/>
<feGaussianBlur stdDeviation="17.7884"/>
<feComposite in2="hardAlpha" operator="arithmetic" k2="-1" k3="1"/>
<feColorMatrix type="matrix" values="0 0 0 0 0 0 0 0 0 0 0 0 0 0 0 0 0 0 0.25 0"/>
<feBlend mode="normal" in2="shape" result="effect1_innerShadow_377_534"/>
<feColorMatrix in="SourceAlpha" type="matrix" values="0 0 0 0 0 0 0 0 0 0 0 0 0 0 0 0 0 0 127 0" result="hardAlpha"/>
<feOffset dx="-35.5769"/>
<feGaussianBlur stdDeviation="17.7884"/>
<feComposite in2="hardAlpha" operator="arithmetic" k2="-1" k3="1"/>
<feColorMatrix type="matrix" values="0 0 0 0 0 0 0 0 0 0 0 0 0 0 0 0 0 0 0.25 0"/>
<feBlend mode="normal" in2="effect1_innerShadow_377_534" result="effect2_innerShadow_377_534"/>
</filter>
<filter id="filter3_ii_377_534" x="3451.44" y="1603.01" width="2049.23" height="346.162" filterUnits="userSpaceOnUse" color-interpolation-filters="sRGB">
<feFlood flood-opacity="0" result="BackgroundImageFix"/>
<feBlend mode="normal" in="SourceGraphic" in2="BackgroundImageFix" result="shape"/>
<feColorMatrix in="SourceAlpha" type="matrix" values="0 0 0 0 0 0 0 0 0 0 0 0 0 0 0 0 0 0 127 0" result="hardAlpha"/>
<feOffset dx="35.5769"/>
<feGaussianBlur stdDeviation="17.7884"/>
<feComposite in2="hardAlpha" operator="arithmetic" k2="-1" k3="1"/>
<feColorMatrix type="matrix" values="0 0 0 0 0 0 0 0 0 0 0 0 0 0 0 0 0 0 0.25 0"/>
<feBlend mode="normal" in2="shape" result="effect1_innerShadow_377_534"/>
<feColorMatrix in="SourceAlpha" type="matrix" values="0 0 0 0 0 0 0 0 0 0 0 0 0 0 0 0 0 0 127 0" result="hardAlpha"/>
<feOffset dx="-35.5769"/>
<feGaussianBlur stdDeviation="17.7884"/>
<feComposite in2="hardAlpha" operator="arithmetic" k2="-1" k3="1"/>
<feColorMatrix type="matrix" values="0 0 0 0 0 0 0 0 0 0 0 0 0 0 0 0 0 0 0.25 0"/>
<feBlend mode="normal" in2="effect1_innerShadow_377_534" result="effect2_innerShadow_377_534"/>
</filter>
<filter id="filter4_i_377_534" x="3793.64" y="574.408" width="257.148" height="316.492" filterUnits="userSpaceOnUse" color-interpolation-filters="sRGB">
<feFlood flood-opacity="0" result="BackgroundImageFix"/>
<feBlend mode="normal" in="SourceGraphic" in2="BackgroundImageFix" result="shape"/>
<feColorMatrix in="SourceAlpha" type="matrix" values="0 0 0 0 0 0 0 0 0 0 0 0 0 0 0 0 0 0 127 0" result="hardAlpha"/>
<feOffset/>
<feGaussianBlur stdDeviation="35.5769"/>
<feComposite in2="hardAlpha" operator="arithmetic" k2="-1" k3="1"/>
<feColorMatrix type="matrix" values="0 0 0 0 0 0 0 0 0 0 0 0 0 0 0 0 0 0 1 0"/>
<feBlend mode="normal" in2="shape" result="effect1_innerShadow_377_534"/>
</filter>
<filter id="filter5_i_377_534" x="4278.27" y="683.201" width="415.395" height="98.9043" filterUnits="userSpaceOnUse" color-interpolation-filters="sRGB">
<feFlood flood-opacity="0" result="BackgroundImageFix"/>
<feBlend mode="normal" in="SourceGraphic" in2="BackgroundImageFix" result="shape"/>
<feColorMatrix in="SourceAlpha" type="matrix" values="0 0 0 0 0 0 0 0 0 0 0 0 0 0 0 0 0 0 127 0" result="hardAlpha"/>
<feOffset/>
<feGaussianBlur stdDeviation="14.2307"/>
<feComposite in2="hardAlpha" operator="arithmetic" k2="-1" k3="1"/>
<feColorMatrix type="matrix" values="0 0 0 0 0 0 0 0 0 0 0 0 0 0 0 0 0 0 1 0"/>
<feBlend mode="normal" in2="shape" result="effect1_innerShadow_377_534"/>
</filter>
<filter id="filter6_i_377_534" x="3932.12" y="950.242" width="237.367" height="276.93" filterUnits="userSpaceOnUse" color-interpolation-filters="sRGB">
<feFlood flood-opacity="0" result="BackgroundImageFix"/>
<feBlend mode="normal" in="SourceGraphic" in2="BackgroundImageFix" result="shape"/>
<feColorMatrix in="SourceAlpha" type="matrix" values="0 0 0 0 0 0 0 0 0 0 0 0 0 0 0 0 0 0 127 0" result="hardAlpha"/>
<feOffset/>
<feGaussianBlur stdDeviation="35.5769"/>
<feComposite in2="hardAlpha" operator="arithmetic" k2="-1" k3="1"/>
<feColorMatrix type="matrix" values="0 0 0 0 0 0 0 0 0 0 0 0 0 0 0 0 0 0 1 0"/>
<feBlend mode="normal" in2="shape" result="effect1_innerShadow_377_534"/>
</filter>
<filter id="filter7_i_377_534" x="3932.12" y="1276.62" width="237.367" height="276.93" filterUnits="userSpaceOnUse" color-interpolation-filters="sRGB">
<feFlood flood-opacity="0" result="BackgroundImageFix"/>
<feBlend mode="normal" in="SourceGraphic" in2="BackgroundImageFix" result="shape"/>
<feColorMatrix in="SourceAlpha" type="matrix" values="0 0 0 0 0 0 0 0 0 0 0 0 0 0 0 0 0 0 127 0" result="hardAlpha"/>
<feOffset/>
<feGaussianBlur stdDeviation="35.5769"/>
<feComposite in2="hardAlpha" operator="arithmetic" k2="-1" k3="1"/>
<feColorMatrix type="matrix" values="0 0 0 0 0 0 0 0 0 0 0 0 0 0 0 0 0 0 1 0"/>
<feBlend mode="normal" in2="shape" result="effect1_innerShadow_377_534"/>
</filter>
<filter id="filter8_i_377_534" x="3991.43" y="1009.58" width="118.684" height="118.684" filterUnits="userSpaceOnUse" color-interpolation-filters="sRGB">
<feFlood flood-opacity="0" result="BackgroundImageFix"/>
<feBlend mode="normal" in="SourceGraphic" in2="BackgroundImageFix" result="shape"/>
<feColorMatrix in="SourceAlpha" type="matrix" values="0 0 0 0 0 0 0 0 0 0 0 0 0 0 0 0 0 0 127 0" result="hardAlpha"/>
<feOffset/>
<feGaussianBlur stdDeviation="7.11537"/>
<feComposite in2="hardAlpha" operator="arithmetic" k2="-1" k3="1"/>
<feColorMatrix type="matrix" values="0 0 0 0 0 0 0 0 0 0 0 0 0 0 0 0 0 0 1 0"/>
<feBlend mode="normal" in2="shape" result="effect1_innerShadow_377_534"/>
</filter>
<filter id="filter9_i_377_534" x="3991.43" y="1335.97" width="118.684" height="118.684" filterUnits="userSpaceOnUse" color-interpolation-filters="sRGB">
<feFlood flood-opacity="0" result="BackgroundImageFix"/>
<feBlend mode="normal" in="SourceGraphic" in2="BackgroundImageFix" result="shape"/>
<feColorMatrix in="SourceAlpha" type="matrix" values="0 0 0 0 0 0 0 0 0 0 0 0 0 0 0 0 0 0 127 0" result="hardAlpha"/>
<feOffset/>
<feGaussianBlur stdDeviation="7.11537"/>
<feComposite in2="hardAlpha" operator="arithmetic" k2="-1" k3="1"/>
<feColorMatrix type="matrix" values="0 0 0 0 0 0 0 0 0 0 0 0 0 0 0 0 0 0 1 0"/>
<feBlend mode="normal" in2="shape" result="effect1_innerShadow_377_534"/>
</filter>
<filter id="filter10_i_377_534" x="805.453" y="959.133" width="2247.46" height="302.101" filterUnits="userSpaceOnUse" color-interpolation-filters="sRGB">
<feFlood flood-opacity="0" result="BackgroundImageFix"/>
<feBlend mode="normal" in="SourceGraphic" in2="BackgroundImageFix" result="shape"/>
<feColorMatrix in="SourceAlpha" type="matrix" values="0 0 0 0 0 0 0 0 0 0 0 0 0 0 0 0 0 0 127 0" result="hardAlpha"/>
<feOffset dy="56.923"/>
<feGaussianBlur stdDeviation="53.3653"/>
<feComposite in2="hardAlpha" operator="arithmetic" k2="-1" k3="1"/>
<feColorMatrix type="matrix" values="0 0 0 0 1 0 0 0 0 1 0 0 0 0 1 0 0 0 0.8 0"/>
<feBlend mode="normal" in2="shape" result="effect1_innerShadow_377_534"/>
</filter>
<linearGradient id="paint0_linear_377_534" x1="4476.06" y1="1622.79" x2="4476.06" y2="1751.36" gradientUnits="userSpaceOnUse">
<stop stop-color="#F8F8F9"/>
<stop offset="1" stop-color="#D3E2F5" stop-opacity="0.9"/>
</linearGradient>
<linearGradient id="paint1_linear_377_534" x1="3922.23" y1="673.312" x2="3922.23" y2="742.545" gradientUnits="userSpaceOnUse">
<stop stop-color="white"/>
<stop offset="1" stop-opacity="0.15"/>
</linearGradient>
</defs>
</svg>
