<svg width="650" height="628" viewBox="0 0 650 628" fill="none" xmlns="http://www.w3.org/2000/svg">
<rect width="650" height="627.478" fill="#F2F4F9"/>
<g filter="url(#filter0_ii_26_124)">
<rect x="379.641" y="192" width="215.359" height="157.212" rx="3.87336" fill="white"/>
</g>
<rect x="380.416" y="192.775" width="213.809" height="155.662" rx="3.09869" stroke="black" stroke-width="1.54934"/>
<path d="M399.562 222.15C402.833 222.15 405.485 219.499 405.485 216.228C405.485 212.957 402.833 210.305 399.562 210.305C396.292 210.305 393.64 212.957 393.64 216.228C393.64 219.499 396.292 222.15 399.562 222.15Z" fill="#333333"/>
<path d="M399.555 219.978C398.896 219.978 398.248 219.803 397.678 219.472C397.107 219.14 396.635 218.664 396.309 218.091C395.982 217.518 395.813 216.869 395.819 216.209C395.824 215.549 396.004 214.903 396.341 214.336C396.672 213.777 397.144 213.314 397.708 212.993C397.826 212.925 397.965 212.908 398.096 212.944C398.227 212.98 398.338 213.066 398.405 213.184C398.472 213.302 398.49 213.441 398.454 213.572C398.418 213.703 398.332 213.814 398.214 213.881C397.798 214.119 397.451 214.462 397.21 214.877C396.969 215.291 396.842 215.762 396.841 216.241C396.841 217.738 398.059 218.956 399.555 218.956C401.052 218.956 402.27 217.738 402.27 216.241C402.269 215.762 402.142 215.291 401.9 214.877C401.659 214.462 401.313 214.119 400.896 213.881C400.837 213.848 400.785 213.804 400.743 213.751C400.701 213.698 400.67 213.637 400.651 213.572C400.633 213.507 400.628 213.438 400.636 213.371C400.644 213.304 400.666 213.239 400.699 213.18C400.733 213.121 400.778 213.07 400.831 213.028C400.885 212.987 400.946 212.957 401.012 212.939C401.077 212.922 401.145 212.917 401.212 212.927C401.28 212.936 401.344 212.958 401.403 212.993C401.977 213.319 402.454 213.791 402.786 214.362C403.118 214.933 403.292 215.581 403.292 216.241C403.292 216.732 403.196 217.218 403.008 217.672C402.821 218.126 402.545 218.538 402.198 218.885C401.851 219.232 401.439 219.507 400.986 219.695C400.532 219.882 400.046 219.979 399.555 219.978L399.555 219.978Z" fill="white"/>
<path d="M399.556 215.796C399.489 215.796 399.422 215.783 399.36 215.757C399.298 215.731 399.242 215.694 399.194 215.646C399.147 215.599 399.109 215.542 399.083 215.48C399.058 215.418 399.044 215.352 399.044 215.285V212.413C399.046 212.279 399.101 212.15 399.197 212.056C399.293 211.962 399.421 211.909 399.556 211.909C399.69 211.909 399.819 211.962 399.915 212.056C400.01 212.15 400.065 212.279 400.067 212.413V215.285C400.067 215.352 400.054 215.418 400.028 215.48C400.002 215.542 399.965 215.599 399.917 215.646C399.87 215.694 399.813 215.731 399.751 215.757C399.689 215.783 399.623 215.796 399.556 215.796Z" fill="white"/>
<g filter="url(#filter1_ii_26_124)">
<rect x="379.641" y="240.456" width="215.359" height="37.6878" fill="#1B75BA"/>
</g>
<rect x="380.416" y="241.23" width="213.809" height="36.1384" stroke="black" stroke-width="1.54934"/>
<g filter="url(#filter2_ii_26_124)">
<rect x="379.641" y="275.99" width="215.359" height="37.6878" fill="#918D8C"/>
</g>
<rect x="380.416" y="276.765" width="213.809" height="36.1384" stroke="black" stroke-width="1.54934"/>
<g filter="url(#filter3_ii_26_124)">
<path d="M379.641 311.524H595V345.338C595 347.478 593.266 349.212 591.127 349.212H383.515C381.376 349.212 379.641 347.478 379.641 345.338V311.524Z" fill="black"/>
</g>
<path d="M380.416 312.299H594.225V345.338C594.225 347.05 592.838 348.437 591.127 348.437H383.515C381.803 348.437 380.416 347.05 380.416 345.338V312.299Z" stroke="black" stroke-width="1.54934"/>
<path d="M395.794 313.678H578.849V325.739C578.849 326.809 577.982 327.676 576.913 327.676H397.731C396.662 327.676 395.794 326.809 395.794 325.739V313.678Z" fill="url(#paint0_linear_26_124)"/>
<g filter="url(#filter4_i_26_124)">
<rect x="413.025" y="199.538" width="27.9966" height="34.4574" rx="4.64803" fill="white"/>
</g>
<rect x="413.412" y="199.925" width="27.222" height="33.6827" rx="4.26069" stroke="black" stroke-width="0.774672"/>
<path d="M415.179 199.538H438.869V228.743C438.869 230.454 437.482 231.841 435.77 231.841H418.278C416.567 231.841 415.179 230.454 415.179 228.743V199.538Z" fill="white"/>
<path d="M415.179 203.713C415.179 202.252 415.179 201.522 415.633 201.068C416.087 200.614 416.817 200.614 418.278 200.614H435.77C437.231 200.614 437.961 200.614 438.415 201.068C438.869 201.522 438.869 202.252 438.869 203.713V211.514C438.869 212.975 438.869 213.705 438.415 214.159C437.961 214.613 437.231 214.613 435.77 214.613H418.278C416.817 214.613 416.087 214.613 415.633 214.159C415.179 213.705 415.179 212.975 415.179 211.514V203.713Z" fill="url(#paint1_linear_26_124)"/>
<g filter="url(#filter5_i_26_124)">
<rect x="465.787" y="211.382" width="45.2253" height="10.7679" rx="4.64803" fill="#D9D9D9"/>
</g>
<rect x="466.175" y="211.77" width="44.4506" height="9.99326" rx="4.26069" stroke="black" stroke-width="0.774672"/>
<line x1="473.02" y1="217.068" x2="503.774" y2="217.068" stroke="black" stroke-width="1.54934" stroke-linecap="round"/>
<rect x="535.471" y="211.08" width="43.676" height="19.9865" fill="#911016" stroke="black" stroke-width="1.54934"/>
<rect x="542.238" y="226.457" width="29.0734" height="5.38397" fill="black"/>
<circle cx="545.468" cy="219.997" r="2.15359" fill="black"/>
<circle cx="553.009" cy="219.997" r="2.15359" fill="black"/>
<circle cx="560.544" cy="219.997" r="2.15359" fill="black"/>
<circle cx="568.079" cy="219.997" r="2.15359" fill="black"/>
<line x1="536.851" y1="206.688" x2="539.005" y2="206.688" stroke="black" stroke-width="0.774672"/>
<line x1="537.929" y1="202.381" x2="542.236" y2="202.381" stroke="black" stroke-width="0.774672"/>
<line x1="541.16" y1="206.688" x2="543.314" y2="206.688" stroke="black" stroke-width="0.774672"/>
<line x1="538.618" y1="207.075" x2="538.618" y2="201.691" stroke="black" stroke-width="0.774672"/>
<line x1="541.844" y1="207.075" x2="541.844" y2="201.691" stroke="black" stroke-width="0.774672"/>
<line x1="548.689" y1="206.688" x2="552.996" y2="206.688" stroke="black" stroke-width="0.774672"/>
<line x1="551.921" y1="202.381" x2="556.228" y2="202.381" stroke="black" stroke-width="0.774672"/>
<line x1="552.611" y1="207.075" x2="552.611" y2="201.691" stroke="black" stroke-width="0.774672"/>
<line x1="564.455" y1="207.075" x2="564.455" y2="201.691" stroke="black" stroke-width="0.774672"/>
<line x1="561.61" y1="204.534" x2="566.994" y2="204.534" stroke="black" stroke-width="0.774672"/>
<line x1="572.383" y1="204.534" x2="577.767" y2="204.534" stroke="black" stroke-width="0.774672"/>
<g filter="url(#filter6_i_26_124)">
<path d="M428.101 240.456H453.944V261.31C453.944 266.444 449.782 270.606 444.648 270.606H437.397C432.263 270.606 428.101 266.444 428.101 261.31V240.456Z" fill="#686867"/>
</g>
<path d="M428.875 241.23H453.169V261.31C453.169 266.016 449.354 269.831 444.648 269.831H437.397C432.691 269.831 428.875 266.016 428.875 261.31V241.23Z" stroke="black" stroke-width="1.54934"/>
<g filter="url(#filter7_i_26_124)">
<path d="M428.101 275.99H453.944V296.844C453.944 301.978 449.782 306.14 444.648 306.14H437.397C432.263 306.14 428.101 301.978 428.101 296.844V275.99Z" fill="#686867"/>
</g>
<path d="M428.875 276.765H453.169V296.844C453.169 301.55 449.354 305.365 444.648 305.365H437.397C432.691 305.365 428.875 301.55 428.875 296.844V276.765Z" stroke="black" stroke-width="1.54934"/>
<circle cx="441.018" cy="253.377" r="8.61435" fill="black"/>
<g filter="url(#filter8_i_26_124)">
<circle cx="441.019" cy="253.377" r="6.46076" fill="#FFD700"/>
</g>
<circle cx="441.015" cy="253.377" r="2.15359" fill="black"/>
<circle cx="441.018" cy="288.911" r="8.61435" fill="black"/>
<g filter="url(#filter9_i_26_124)">
<circle cx="441.019" cy="288.911" r="6.46076" fill="#FFD700"/>
</g>
<circle cx="441.015" cy="288.911" r="2.15359" fill="black"/>
<path d="M331.558 261.72V247.776C331.558 247.348 331.904 247.002 332.332 247.002H348.6C349.028 247.002 349.375 247.348 349.375 247.776V261.72C349.375 262.148 349.028 262.495 348.6 262.495H332.332C331.904 262.495 331.558 262.148 331.558 261.72Z" fill="#FFD700" stroke="black" stroke-width="3.09869"/>
<path d="M88.1167 238.48C88.5445 238.48 88.8913 238.827 88.8913 239.255V269.467C88.8913 269.895 88.5445 270.242 88.1167 270.242H61.3801C58.5946 270.242 56.5493 268.183 56.5493 265.903V242.693C56.5493 240.482 58.5326 238.48 61.2437 238.48H88.1167Z" fill="#333333" stroke="black" stroke-width="3.09869"/>
<g filter="url(#filter10_i_26_124)">
<path d="M87.6921 243.748V265.793C87.6921 267.076 88.7326 268.117 90.0162 268.117H330.055C331.339 268.117 332.379 267.076 332.379 265.793V243.748C332.379 242.464 331.339 241.424 330.055 241.424H90.0162C88.7326 241.424 87.6921 242.464 87.6921 243.748Z" fill="#2C2C2C"/>
</g>
<path d="M89.2415 265.793V243.748C89.2415 243.32 89.5883 242.973 90.0162 242.973H330.055C330.483 242.973 330.83 243.32 330.83 243.748V265.793C330.83 266.221 330.483 266.568 330.055 266.568H90.0162C89.5883 266.568 89.2415 266.221 89.2415 265.793Z" stroke="black" stroke-width="3.09869"/>
<line x1="345.502" y1="248.551" x2="345.502" y2="261.72" stroke="black" stroke-width="1.54934"/>
<line x1="342.403" y1="248.551" x2="342.403" y2="261.72" stroke="black" stroke-width="1.54934"/>
<line x1="339.304" y1="248.551" x2="339.304" y2="261.72" stroke="black" stroke-width="1.54934"/>
<line x1="336.206" y1="248.551" x2="336.206" y2="261.72" stroke="black" stroke-width="1.54934"/>
<path d="M362 252C360.895 252 360 252.895 360 254C360 255.105 360.895 256 362 256V252ZM416.414 255.414C417.195 254.633 417.195 253.367 416.414 252.586L403.686 239.858C402.905 239.077 401.639 239.077 400.858 239.858C400.077 240.639 400.077 241.905 400.858 242.686L412.172 254L400.858 265.314C400.077 266.095 400.077 267.361 400.858 268.142C401.639 268.923 402.905 268.923 403.686 268.142L416.414 255.414ZM362 256H415V252H362V256Z" fill="black"/>
<defs>
<filter id="filter0_ii_26_124" x="375.768" y="192" width="223.105" height="157.212" filterUnits="userSpaceOnUse" color-interpolation-filters="sRGB">
<feFlood flood-opacity="0" result="BackgroundImageFix"/>
<feBlend mode="normal" in="SourceGraphic" in2="BackgroundImageFix" result="shape"/>
<feColorMatrix in="SourceAlpha" type="matrix" values="0 0 0 0 0 0 0 0 0 0 0 0 0 0 0 0 0 0 127 0" result="hardAlpha"/>
<feOffset dx="3.87336"/>
<feGaussianBlur stdDeviation="3.09869"/>
<feComposite in2="hardAlpha" operator="arithmetic" k2="-1" k3="1"/>
<feColorMatrix type="matrix" values="0 0 0 0 0 0 0 0 0 0 0 0 0 0 0 0 0 0 0.25 0"/>
<feBlend mode="normal" in2="shape" result="effect1_innerShadow_26_124"/>
<feColorMatrix in="SourceAlpha" type="matrix" values="0 0 0 0 0 0 0 0 0 0 0 0 0 0 0 0 0 0 127 0" result="hardAlpha"/>
<feOffset dx="-3.87336"/>
<feGaussianBlur stdDeviation="3.09869"/>
<feComposite in2="hardAlpha" operator="arithmetic" k2="-1" k3="1"/>
<feColorMatrix type="matrix" values="0 0 0 0 0 0 0 0 0 0 0 0 0 0 0 0 0 0 0.25 0"/>
<feBlend mode="normal" in2="effect1_innerShadow_26_124" result="effect2_innerShadow_26_124"/>
</filter>
<filter id="filter1_ii_26_124" x="375.768" y="240.456" width="223.105" height="37.6878" filterUnits="userSpaceOnUse" color-interpolation-filters="sRGB">
<feFlood flood-opacity="0" result="BackgroundImageFix"/>
<feBlend mode="normal" in="SourceGraphic" in2="BackgroundImageFix" result="shape"/>
<feColorMatrix in="SourceAlpha" type="matrix" values="0 0 0 0 0 0 0 0 0 0 0 0 0 0 0 0 0 0 127 0" result="hardAlpha"/>
<feOffset dx="3.87336"/>
<feGaussianBlur stdDeviation="1.93668"/>
<feComposite in2="hardAlpha" operator="arithmetic" k2="-1" k3="1"/>
<feColorMatrix type="matrix" values="0 0 0 0 0 0 0 0 0 0 0 0 0 0 0 0 0 0 0.25 0"/>
<feBlend mode="normal" in2="shape" result="effect1_innerShadow_26_124"/>
<feColorMatrix in="SourceAlpha" type="matrix" values="0 0 0 0 0 0 0 0 0 0 0 0 0 0 0 0 0 0 127 0" result="hardAlpha"/>
<feOffset dx="-3.87336"/>
<feGaussianBlur stdDeviation="1.93668"/>
<feComposite in2="hardAlpha" operator="arithmetic" k2="-1" k3="1"/>
<feColorMatrix type="matrix" values="0 0 0 0 0 0 0 0 0 0 0 0 0 0 0 0 0 0 0.25 0"/>
<feBlend mode="normal" in2="effect1_innerShadow_26_124" result="effect2_innerShadow_26_124"/>
</filter>
<filter id="filter2_ii_26_124" x="375.768" y="275.99" width="223.105" height="37.6878" filterUnits="userSpaceOnUse" color-interpolation-filters="sRGB">
<feFlood flood-opacity="0" result="BackgroundImageFix"/>
<feBlend mode="normal" in="SourceGraphic" in2="BackgroundImageFix" result="shape"/>
<feColorMatrix in="SourceAlpha" type="matrix" values="0 0 0 0 0 0 0 0 0 0 0 0 0 0 0 0 0 0 127 0" result="hardAlpha"/>
<feOffset dx="3.87336"/>
<feGaussianBlur stdDeviation="1.93668"/>
<feComposite in2="hardAlpha" operator="arithmetic" k2="-1" k3="1"/>
<feColorMatrix type="matrix" values="0 0 0 0 0 0 0 0 0 0 0 0 0 0 0 0 0 0 0.25 0"/>
<feBlend mode="normal" in2="shape" result="effect1_innerShadow_26_124"/>
<feColorMatrix in="SourceAlpha" type="matrix" values="0 0 0 0 0 0 0 0 0 0 0 0 0 0 0 0 0 0 127 0" result="hardAlpha"/>
<feOffset dx="-3.87336"/>
<feGaussianBlur stdDeviation="1.93668"/>
<feComposite in2="hardAlpha" operator="arithmetic" k2="-1" k3="1"/>
<feColorMatrix type="matrix" values="0 0 0 0 0 0 0 0 0 0 0 0 0 0 0 0 0 0 0.25 0"/>
<feBlend mode="normal" in2="effect1_innerShadow_26_124" result="effect2_innerShadow_26_124"/>
</filter>
<filter id="filter3_ii_26_124" x="375.768" y="311.524" width="223.105" height="37.6878" filterUnits="userSpaceOnUse" color-interpolation-filters="sRGB">
<feFlood flood-opacity="0" result="BackgroundImageFix"/>
<feBlend mode="normal" in="SourceGraphic" in2="BackgroundImageFix" result="shape"/>
<feColorMatrix in="SourceAlpha" type="matrix" values="0 0 0 0 0 0 0 0 0 0 0 0 0 0 0 0 0 0 127 0" result="hardAlpha"/>
<feOffset dx="3.87336"/>
<feGaussianBlur stdDeviation="1.93668"/>
<feComposite in2="hardAlpha" operator="arithmetic" k2="-1" k3="1"/>
<feColorMatrix type="matrix" values="0 0 0 0 0 0 0 0 0 0 0 0 0 0 0 0 0 0 0.25 0"/>
<feBlend mode="normal" in2="shape" result="effect1_innerShadow_26_124"/>
<feColorMatrix in="SourceAlpha" type="matrix" values="0 0 0 0 0 0 0 0 0 0 0 0 0 0 0 0 0 0 127 0" result="hardAlpha"/>
<feOffset dx="-3.87336"/>
<feGaussianBlur stdDeviation="1.93668"/>
<feComposite in2="hardAlpha" operator="arithmetic" k2="-1" k3="1"/>
<feColorMatrix type="matrix" values="0 0 0 0 0 0 0 0 0 0 0 0 0 0 0 0 0 0 0.25 0"/>
<feBlend mode="normal" in2="effect1_innerShadow_26_124" result="effect2_innerShadow_26_124"/>
</filter>
<filter id="filter4_i_26_124" x="413.025" y="199.538" width="27.9966" height="34.4574" filterUnits="userSpaceOnUse" color-interpolation-filters="sRGB">
<feFlood flood-opacity="0" result="BackgroundImageFix"/>
<feBlend mode="normal" in="SourceGraphic" in2="BackgroundImageFix" result="shape"/>
<feColorMatrix in="SourceAlpha" type="matrix" values="0 0 0 0 0 0 0 0 0 0 0 0 0 0 0 0 0 0 127 0" result="hardAlpha"/>
<feOffset/>
<feGaussianBlur stdDeviation="3.87336"/>
<feComposite in2="hardAlpha" operator="arithmetic" k2="-1" k3="1"/>
<feColorMatrix type="matrix" values="0 0 0 0 0 0 0 0 0 0 0 0 0 0 0 0 0 0 1 0"/>
<feBlend mode="normal" in2="shape" result="effect1_innerShadow_26_124"/>
</filter>
<filter id="filter5_i_26_124" x="465.787" y="211.382" width="45.2253" height="10.7679" filterUnits="userSpaceOnUse" color-interpolation-filters="sRGB">
<feFlood flood-opacity="0" result="BackgroundImageFix"/>
<feBlend mode="normal" in="SourceGraphic" in2="BackgroundImageFix" result="shape"/>
<feColorMatrix in="SourceAlpha" type="matrix" values="0 0 0 0 0 0 0 0 0 0 0 0 0 0 0 0 0 0 127 0" result="hardAlpha"/>
<feOffset/>
<feGaussianBlur stdDeviation="1.54934"/>
<feComposite in2="hardAlpha" operator="arithmetic" k2="-1" k3="1"/>
<feColorMatrix type="matrix" values="0 0 0 0 0 0 0 0 0 0 0 0 0 0 0 0 0 0 1 0"/>
<feBlend mode="normal" in2="shape" result="effect1_innerShadow_26_124"/>
</filter>
<filter id="filter6_i_26_124" x="428.101" y="240.456" width="25.843" height="30.1502" filterUnits="userSpaceOnUse" color-interpolation-filters="sRGB">
<feFlood flood-opacity="0" result="BackgroundImageFix"/>
<feBlend mode="normal" in="SourceGraphic" in2="BackgroundImageFix" result="shape"/>
<feColorMatrix in="SourceAlpha" type="matrix" values="0 0 0 0 0 0 0 0 0 0 0 0 0 0 0 0 0 0 127 0" result="hardAlpha"/>
<feOffset/>
<feGaussianBlur stdDeviation="3.87336"/>
<feComposite in2="hardAlpha" operator="arithmetic" k2="-1" k3="1"/>
<feColorMatrix type="matrix" values="0 0 0 0 0 0 0 0 0 0 0 0 0 0 0 0 0 0 1 0"/>
<feBlend mode="normal" in2="shape" result="effect1_innerShadow_26_124"/>
</filter>
<filter id="filter7_i_26_124" x="428.101" y="275.99" width="25.843" height="30.1502" filterUnits="userSpaceOnUse" color-interpolation-filters="sRGB">
<feFlood flood-opacity="0" result="BackgroundImageFix"/>
<feBlend mode="normal" in="SourceGraphic" in2="BackgroundImageFix" result="shape"/>
<feColorMatrix in="SourceAlpha" type="matrix" values="0 0 0 0 0 0 0 0 0 0 0 0 0 0 0 0 0 0 127 0" result="hardAlpha"/>
<feOffset/>
<feGaussianBlur stdDeviation="3.87336"/>
<feComposite in2="hardAlpha" operator="arithmetic" k2="-1" k3="1"/>
<feColorMatrix type="matrix" values="0 0 0 0 0 0 0 0 0 0 0 0 0 0 0 0 0 0 1 0"/>
<feBlend mode="normal" in2="shape" result="effect1_innerShadow_26_124"/>
</filter>
<filter id="filter8_i_26_124" x="434.558" y="246.916" width="12.9215" height="12.9215" filterUnits="userSpaceOnUse" color-interpolation-filters="sRGB">
<feFlood flood-opacity="0" result="BackgroundImageFix"/>
<feBlend mode="normal" in="SourceGraphic" in2="BackgroundImageFix" result="shape"/>
<feColorMatrix in="SourceAlpha" type="matrix" values="0 0 0 0 0 0 0 0 0 0 0 0 0 0 0 0 0 0 127 0" result="hardAlpha"/>
<feOffset/>
<feGaussianBlur stdDeviation="0.774672"/>
<feComposite in2="hardAlpha" operator="arithmetic" k2="-1" k3="1"/>
<feColorMatrix type="matrix" values="0 0 0 0 0 0 0 0 0 0 0 0 0 0 0 0 0 0 1 0"/>
<feBlend mode="normal" in2="shape" result="effect1_innerShadow_26_124"/>
</filter>
<filter id="filter9_i_26_124" x="434.558" y="282.451" width="12.9215" height="12.9215" filterUnits="userSpaceOnUse" color-interpolation-filters="sRGB">
<feFlood flood-opacity="0" result="BackgroundImageFix"/>
<feBlend mode="normal" in="SourceGraphic" in2="BackgroundImageFix" result="shape"/>
<feColorMatrix in="SourceAlpha" type="matrix" values="0 0 0 0 0 0 0 0 0 0 0 0 0 0 0 0 0 0 127 0" result="hardAlpha"/>
<feOffset/>
<feGaussianBlur stdDeviation="0.774672"/>
<feComposite in2="hardAlpha" operator="arithmetic" k2="-1" k3="1"/>
<feColorMatrix type="matrix" values="0 0 0 0 0 0 0 0 0 0 0 0 0 0 0 0 0 0 1 0"/>
<feBlend mode="normal" in2="shape" result="effect1_innerShadow_26_124"/>
</filter>
<filter id="filter10_i_26_124" x="87.6921" y="241.424" width="244.687" height="32.8905" filterUnits="userSpaceOnUse" color-interpolation-filters="sRGB">
<feFlood flood-opacity="0" result="BackgroundImageFix"/>
<feBlend mode="normal" in="SourceGraphic" in2="BackgroundImageFix" result="shape"/>
<feColorMatrix in="SourceAlpha" type="matrix" values="0 0 0 0 0 0 0 0 0 0 0 0 0 0 0 0 0 0 127 0" result="hardAlpha"/>
<feOffset dy="6.19737"/>
<feGaussianBlur stdDeviation="5.81004"/>
<feComposite in2="hardAlpha" operator="arithmetic" k2="-1" k3="1"/>
<feColorMatrix type="matrix" values="0 0 0 0 1 0 0 0 0 1 0 0 0 0 1 0 0 0 0.8 0"/>
<feBlend mode="normal" in2="shape" result="effect1_innerShadow_26_124"/>
</filter>
<linearGradient id="paint0_linear_26_124" x1="487.322" y1="313.678" x2="487.322" y2="327.676" gradientUnits="userSpaceOnUse">
<stop stop-color="#F8F8F9"/>
<stop offset="1" stop-color="#D3E2F5" stop-opacity="0.9"/>
</linearGradient>
<linearGradient id="paint1_linear_26_124" x1="427.024" y1="210.306" x2="427.024" y2="217.843" gradientUnits="userSpaceOnUse">
<stop stop-color="white"/>
<stop offset="1" stop-opacity="0.15"/>
</linearGradient>
</defs>
</svg>
