<svg width="137" height="103" viewBox="0 0 137 103" fill="none" xmlns="http://www.w3.org/2000/svg">
<rect x="0.281143" y="0.786621" width="136.285" height="102.213" fill="#F2F4F9"/>
<path d="M114.536 16.3914H94.0399L83.7959 34.1415L73.5481 16.3914H53.0562L42.8121 34.1415L32.5643 16.3914H12.0724L32.5643 51.8954L12.0724 87.3956H32.5643L42.8121 69.6455L53.0562 87.3956H73.5481L53.0562 51.8954L63.304 34.1415L83.7959 69.6455L104.288 34.1415L114.536 51.8954L124.78 34.1415L114.536 16.3914Z" fill="#3B3835" fill-opacity="0.05"/>
<g filter="url(#filter0_d_330_294)">
<path d="M82.3042 37.3977L82.3042 52.0874L79.9862 52.0874" stroke="#7DD1E8" stroke-width="0.198344" stroke-linecap="round" stroke-linejoin="round" stroke-dasharray="0.4 0.4"/>
<path d="M122.068 24.282V64.8094H91.2558V24.282H122.068Z" fill="#C6E8FB"/>
<path d="M122.104 57.9914C121.537 58.0836 121.024 58.5065 120.841 59.062C120.521 58.2521 119.194 58.1695 118.779 58.9337C118.507 57.8487 117.415 57.0396 116.314 57.1062C115.213 57.1729 114.224 58.1079 114.081 59.2179C113.421 58.3755 111.952 58.4124 111.334 59.287C111.328 58.3724 110.559 57.5279 109.661 57.4494C108.762 57.371 107.863 58.0692 107.703 58.9695C107.177 58.2988 105.983 58.3801 105.551 59.1161C104.972 58.2966 103.526 58.4008 103.067 59.2954C102.861 58.4492 101.9 57.8781 101.072 58.1106C100.244 58.3431 99.7094 59.3344 99.9623 60.1671C99.2258 59.3729 97.8668 59.2911 97.0421 59.99C96.2173 60.6889 96.056 62.0598 96.6948 62.9373C96.171 63.0293 95.8767 63.7518 96.1836 64.1922C95.6682 63.882 94.9577 64.4134 94.9316 65.0208V65.03H122.104V57.9914Z" fill="#BCCF59"/>
<path d="M98.557 59.1719C98.3706 59.0289 98.2375 58.8455 98.2285 58.627C98.2195 58.4084 98.4233 58.1774 98.6318 58.2371C98.7195 58.2624 98.7883 58.3305 98.85 58.3981C99.1316 58.7066 99.4314 59.1235 99.5464 59.5331C99.267 59.5218 98.8474 59.3955 98.557 59.1719Z" fill="#BCCF59"/>
<path d="M99.5968 58.2311C99.6523 58.1964 99.7232 58.1748 99.7866 58.1938C99.8672 58.2178 99.9123 58.2958 99.935 58.3702C100.024 58.6578 99.9113 58.9478 99.8017 59.2073C99.7797 59.2593 99.7455 59.3938 99.6779 59.298C99.4822 59.0179 99.1954 58.4795 99.5968 58.2311Z" fill="#BCCF59"/>
<path d="M94.6305 63.7251C94.4078 63.6529 94.2223 63.5251 94.1419 63.3225C94.0615 63.1198 94.1779 62.8325 94.3938 62.8185C94.4846 62.8125 94.5719 62.8534 94.6523 62.8965C95.0193 63.0921 95.4387 63.3836 95.682 63.7307C95.415 63.8147 94.978 63.8375 94.6305 63.7251Z" fill="#BCCF59"/>
<path d="M95.3024 62.486C95.3436 62.4345 95.4034 62.3897 95.4703 62.3864C95.5543 62.3813 95.6224 62.44 95.6684 62.5024C95.8468 62.743 95.8344 63.0542 95.8178 63.3366C95.8143 63.3931 95.8259 63.5315 95.731 63.4641C95.453 63.2668 95.0056 62.8562 95.3024 62.486Z" fill="#BCCF59"/>
<path d="M112.603 58.2458C112.79 58.103 112.924 57.9201 112.933 57.7016C112.942 57.483 112.74 57.2515 112.531 57.3109C112.443 57.335 112.374 57.4034 112.312 57.4712C112.03 57.7791 111.729 58.195 111.613 58.6044C111.892 58.5938 112.312 58.4686 112.603 58.2458Z" fill="#BCCF59"/>
<path d="M121.111 57.6008C121.125 57.364 121.075 57.1436 120.917 56.9934C120.759 56.8432 120.453 56.8509 120.363 57.0502C120.324 57.1342 120.331 57.2312 120.341 57.3231C120.388 57.7407 120.507 58.2427 120.737 58.5987C120.911 58.3756 121.089 57.97 121.111 57.6008Z" fill="#BCCF59"/>
<path d="M111.567 57.3017C111.511 57.267 111.44 57.2451 111.377 57.2639C111.295 57.2879 111.251 57.3657 111.227 57.44C111.138 57.7274 111.251 58.0176 111.359 58.2776C111.38 58.3293 111.414 58.4641 111.482 58.3683C111.679 58.0896 111.967 57.5522 111.567 57.3017Z" fill="#BCCF59"/>
<path d="M100.377 63.3587H100.366C100.084 63.32 99.8616 63.0333 99.8813 62.733C99.8995 62.4564 100.114 62.2008 100.393 62.125C100.576 62.0787 100.769 62.0984 100.939 62.1806C100.926 62.0737 100.937 61.9651 100.971 61.8631C101.006 61.7612 101.063 61.6686 101.138 61.5924C101.353 61.383 101.702 61.3378 101.968 61.4853C102.226 61.628 102.385 61.9387 102.353 62.2408C102.352 62.2521 102.349 62.2632 102.344 62.2732C102.338 62.2833 102.331 62.2922 102.322 62.2994C102.314 62.3066 102.303 62.312 102.293 62.3152C102.282 62.3185 102.271 62.3196 102.259 62.3184C102.248 62.3172 102.237 62.3138 102.227 62.3084C102.217 62.303 102.209 62.2956 102.202 62.2868C102.195 62.2779 102.189 62.2677 102.186 62.2568C102.183 62.2458 102.182 62.2343 102.183 62.223C102.207 61.9883 102.085 61.7481 101.886 61.6381C101.687 61.5282 101.416 61.5623 101.256 61.7183C101.096 61.8742 101.054 62.1515 101.169 62.344C101.18 62.3618 101.184 62.383 101.181 62.4037C101.178 62.4244 101.167 62.4432 101.151 62.4566C101.135 62.47 101.115 62.4771 101.095 62.4767C101.074 62.4763 101.054 62.4683 101.039 62.4543C100.87 62.3031 100.634 62.2405 100.435 62.294C100.225 62.351 100.064 62.5407 100.05 62.745C100.037 62.9539 100.193 63.1602 100.387 63.1869C100.408 63.1901 100.427 63.2014 100.441 63.2184C100.454 63.2354 100.461 63.257 100.46 63.2788C100.458 63.3007 100.449 63.3212 100.433 63.3362C100.418 63.3513 100.397 63.3598 100.375 63.3602L100.377 63.3587Z" fill="#A7C64C"/>
<path d="M106.85 61.5501C106.833 61.5502 106.817 61.5455 106.803 61.5366C106.79 61.5277 106.779 61.5149 106.772 61.4998C106.745 61.4383 106.731 61.3717 106.732 61.3045C106.732 61.2373 106.747 61.171 106.775 61.1099C106.805 61.038 106.849 60.9731 106.905 60.9193C106.96 60.8655 107.027 60.8239 107.099 60.797C107.3 60.7268 107.536 60.773 107.724 60.9119C107.805 60.6601 108.028 60.4637 108.278 60.4469C108.438 60.4334 108.604 60.5068 108.722 60.6363C108.774 60.6911 108.814 60.7571 108.838 60.8295C108.861 60.9019 108.869 60.9788 108.86 61.0546C108.856 61.077 108.843 61.0971 108.825 61.1105C108.807 61.124 108.784 61.1298 108.762 61.1268C108.74 61.123 108.72 61.1106 108.706 61.0921C108.693 61.0736 108.687 61.0505 108.691 61.0279C108.696 60.9778 108.691 60.9271 108.674 60.8796C108.658 60.832 108.631 60.7889 108.596 60.7532C108.557 60.7097 108.51 60.6752 108.457 60.652C108.405 60.6289 108.348 60.6177 108.29 60.6192C108.077 60.6339 107.881 60.8457 107.865 61.082C107.864 61.099 107.858 61.1153 107.847 61.1289C107.837 61.1424 107.823 61.1527 107.807 61.1583C107.792 61.1639 107.774 61.1647 107.758 61.1606C107.742 61.1564 107.727 61.1475 107.716 61.135C107.565 60.9694 107.335 60.8981 107.155 60.9605C107.105 60.9792 107.06 61.0081 107.022 61.0454C106.984 61.0826 106.953 61.1275 106.933 61.1771C106.915 61.2158 106.905 61.2579 106.904 61.3007C106.903 61.3436 106.911 61.3861 106.928 61.4255C106.934 61.4387 106.937 61.4533 106.936 61.468C106.935 61.4826 106.93 61.4967 106.923 61.5091C106.915 61.5214 106.904 61.5315 106.891 61.5385C106.879 61.5455 106.864 61.549 106.85 61.5489L106.85 61.5501Z" fill="#A7C64C"/>
<path d="M104.493 65.0302C104.514 64.8668 104.556 64.7512 104.626 64.6723C104.701 64.5886 104.843 64.5411 104.935 64.6035C104.965 64.6263 104.993 64.6522 105.019 64.6807C105.084 64.75 105.166 64.8343 105.288 64.8222C105.308 64.82 105.327 64.8106 105.341 64.7958C105.354 64.7811 105.363 64.7618 105.364 64.7414C105.377 64.5375 105.391 64.3267 105.481 64.1491C105.556 64.0018 105.718 63.8569 105.901 63.8817C106.018 63.8985 106.13 63.9893 106.202 64.1241C106.275 64.2588 106.302 64.4114 106.33 64.5621C106.333 64.5798 106.341 64.5961 106.354 64.6087C106.367 64.6213 106.383 64.6296 106.401 64.6324C106.418 64.6347 106.436 64.6316 106.452 64.6234C106.468 64.6152 106.481 64.6023 106.489 64.5864C106.582 64.4049 106.728 64.1655 106.927 64.1655H106.935C107.054 64.1695 107.155 64.2632 107.209 64.3496C107.278 64.4598 107.312 64.5953 107.344 64.726C107.351 64.7468 107.365 64.7641 107.384 64.7747C107.403 64.7852 107.425 64.788 107.446 64.7827C107.467 64.7773 107.486 64.7642 107.497 64.7458C107.509 64.7274 107.514 64.7052 107.51 64.6836C107.476 64.546 107.438 64.39 107.353 64.2559C107.252 64.0959 107.098 63.997 106.941 63.9912C106.725 63.9794 106.566 64.1373 106.451 64.3079C106.429 64.215 106.396 64.1252 106.352 64.0405C106.254 63.8572 106.094 63.7334 105.925 63.7084C105.661 63.6699 105.431 63.868 105.328 64.0694C105.24 64.2427 105.214 64.4367 105.2 64.6179C105.18 64.5998 105.16 64.5805 105.142 64.5602C105.108 64.5222 105.07 64.4881 105.03 64.4584C104.856 64.3409 104.623 64.4158 104.498 64.5546C104.369 64.699 104.332 64.8916 104.318 65.0295L104.493 65.0302Z" fill="#A7C64C"/>
<path d="M114.407 61.1436C114.389 61.1436 114.371 61.1377 114.357 61.1268C114.342 61.1159 114.331 61.1005 114.326 61.0829C114.261 60.8723 114.269 60.6453 114.35 60.4403C114.371 60.3854 114.409 60.3065 114.482 60.2574C114.542 60.2207 114.611 60.2017 114.681 60.2025C114.908 60.1968 115.128 60.278 115.298 60.4299C115.351 60.2822 115.458 60.1481 115.62 60.1041C115.685 60.0889 115.751 60.0911 115.814 60.1103C115.877 60.1295 115.934 60.1651 115.979 60.2136C116.062 60.2995 116.091 60.4078 116.061 60.5113C116.054 60.5333 116.039 60.5518 116.019 60.5628C115.999 60.5737 115.976 60.5762 115.954 60.5698C115.943 60.5665 115.933 60.5611 115.925 60.5539C115.916 60.5467 115.909 60.5378 115.903 60.5278C115.898 60.5177 115.895 60.5067 115.893 60.4953C115.892 60.4839 115.893 60.4724 115.897 60.4615C115.913 60.4054 115.879 60.3582 115.856 60.3351C115.805 60.2814 115.725 60.2554 115.665 60.2723C115.523 60.311 115.443 60.4776 115.431 60.616C115.43 60.6335 115.423 60.6501 115.412 60.6637C115.401 60.6773 115.387 60.6872 115.37 60.6921C115.353 60.697 115.336 60.6966 115.319 60.6911C115.303 60.6856 115.288 60.6752 115.278 60.6612C115.208 60.571 115.118 60.4984 115.016 60.4489C114.913 60.3995 114.801 60.3747 114.688 60.3763C114.65 60.3752 114.612 60.3842 114.578 60.4023C114.553 60.4194 114.53 60.4521 114.51 60.5055C114.444 60.6728 114.437 60.858 114.49 61.0297C114.494 61.0406 114.495 61.0521 114.494 61.0635C114.493 61.075 114.49 61.0861 114.485 61.0963C114.48 61.1065 114.473 61.1155 114.464 61.123C114.456 61.1304 114.446 61.136 114.435 61.1395L114.407 61.1436Z" fill="#A7C64C"/>
<path d="M122.107 61.2428C122.063 61.1975 122.011 61.1616 121.953 61.1371C121.89 61.1129 121.823 61.1018 121.756 61.1042C121.689 61.1066 121.623 61.1226 121.562 61.1513C121.501 61.1787 121.446 61.2174 121.399 61.2654C121.312 61.0197 121.175 60.7809 120.92 60.7198C120.713 60.6695 120.475 60.7679 120.314 60.9662C120.177 61.1364 120.109 61.3491 120.049 61.5366C120.043 61.5582 120.046 61.5813 120.056 61.601C120.067 61.6208 120.084 61.6356 120.105 61.6425C120.126 61.6494 120.149 61.6479 120.169 61.6381C120.189 61.6284 120.204 61.6113 120.212 61.5903C120.27 61.4086 120.331 61.2213 120.447 61.0765C120.545 60.9561 120.716 60.8495 120.881 60.8892C121.11 60.9443 121.22 61.2399 121.289 61.4909C121.294 61.5087 121.305 61.5244 121.319 61.5359C121.333 61.5473 121.351 61.5538 121.369 61.5544C121.387 61.5556 121.405 61.5505 121.42 61.5401C121.436 61.5297 121.447 61.5145 121.453 61.4969C121.474 61.4322 121.515 61.3758 121.569 61.3355C121.623 61.2952 121.689 61.273 121.756 61.272C121.823 61.271 121.889 61.2912 121.945 61.3299C122 61.3685 122.043 61.4237 122.066 61.4878C122.083 61.5289 122.093 61.5732 122.093 61.6181C122.093 61.6629 122.084 61.7073 122.067 61.7487C122.058 61.769 122.058 61.7922 122.065 61.8132C122.072 61.8342 122.088 61.8515 122.107 61.8613V61.2428Z" fill="#A7C64C"/>
<path d="M122.105 28.946C121.519 28.8582 120.88 28.9078 120.22 29.0815C118.14 29.6298 117.146 31.4678 117.001 33.5254C116.154 33.0909 115.195 32.6108 114.36 33.3023C113.76 33.8 113.364 34.7463 113.303 35.5165C111.893 35.5646 111.352 35.9015 110.911 37.2804C110.099 36.7427 109.264 37.1239 109.092 38.0729C108.379 37.6322 107.207 38.1398 108.1 38.9153H122.106V28.946" fill="white"/>
<path d="M100.7 65.2945C102.318 64.7168 103.853 63.5435 104.685 62.2319C105.608 60.7784 105.885 58.9618 105.652 57.2499C105.472 55.9235 105.012 54.5798 104.355 53.4173C103.743 52.3343 103.455 51.4005 103.846 50.1425C104.184 49.0594 104.843 48.1126 105.341 47.0946C106.636 44.4495 106.78 41.1703 105.403 38.5701C104.372 36.6276 102.557 35.0906 102.026 32.9512C101.628 31.3471 101.457 29.2104 99.5518 28.6785C96.424 27.8058 94.181 30.8927 93.5787 33.5262C93.1864 35.2439 92.586 36.9421 91.5542 38.3604C91.4785 38.4649 91.3988 38.566 91.3196 38.667V64.6793C92.187 64.9573 93.1119 65.1525 94.0505 65.2947H100.7" fill="#A1BA5A"/>
<path d="M97.3937 52.8972C97.6371 51.6531 98.1309 50.43 98.9932 49.5113C99.5938 48.8712 100.146 48.1705 100.77 47.572C101.379 46.9883 102.163 46.377 102.607 45.6538C102.648 45.5874 102.688 45.5077 102.662 45.4341C102.614 45.2954 102.413 45.3246 102.28 45.3828C101.049 45.9212 99.7141 46.8808 98.3167 46.8028C98.158 46.7936 97.9801 46.7585 97.8949 46.6225C97.8352 46.5263 97.8375 46.4059 97.8458 46.2926C98.0104 44.0254 99.5725 42.1373 100.311 39.9912C100.462 39.5529 100.499 38.9262 100.07 38.7637C99.7717 38.6506 99.461 38.86 99.1801 39.0143C97.8641 39.7334 98.343 37.1979 98.3406 36.5141C98.3364 35.2689 98.3025 33.8604 97.8662 32.6833C97.8508 32.6421 97.8295 32.5969 97.7879 32.5849C97.7249 32.5659 97.6729 32.6361 97.6437 32.6961C97.1674 33.6785 97.0773 35.0284 96.8989 36.1016C96.5628 38.1197 96.3889 40.1527 96.1937 42.1857C96.1576 42.5642 96.1043 42.9508 95.9275 43.286C95.5675 43.972 94.4094 44.125 94.0702 43.2807C95.0387 45.6983 95.5883 48.4745 94.6186 50.8914C94.5501 51.062 94.4675 51.2384 94.3171 51.3414C94.0019 51.5581 93.6292 51.354 93.2556 51.1506C92.882 50.9472 92.5049 50.74 92.1922 50.9655C92.5481 52.8584 94.0885 54.3282 94.5603 56.1947C94.8645 57.4218 94.6859 58.7209 94.0621 59.8166C93.9587 59.9969 93.8316 60.1803 93.6394 60.2551C93.4528 60.3273 93.2409 60.2816 93.0573 60.2017C92.8456 60.1058 92.65 59.9766 92.4778 59.819C92.0589 59.4477 91.7138 58.9482 91.3196 58.5675V60.2344C92.0114 61.4128 92.8752 62.4781 93.8814 63.394C94.2351 63.7158 94.8724 64.504 95.3649 64.5406C95.9126 64.5813 96.4631 63.8535 96.6847 63.4311C97.0315 62.7695 97.1802 62.0111 97.5624 61.3699C98.2486 60.2147 99.3692 60.0688 100.269 59.2361C101.24 58.3372 102.089 57.252 102.561 55.9966C102.601 55.8885 102.623 55.7355 102.521 55.6837C102.459 55.652 102.385 55.6801 102.321 55.7078L98.9391 57.2089C98.5698 57.3737 97.768 57.9273 97.4089 57.7107C97.1242 57.5376 97.1278 56.9706 97.1297 56.6876C97.1394 55.419 97.1496 54.1417 97.3935 52.8977" fill="#95B354"/>
<path d="M96.3009 65.2942C96.3483 64.1221 96.3957 62.969 96.4432 61.8797C96.5884 58.5263 96.7514 55.1724 96.9323 51.818C97.2895 45.1106 97.6797 38.4035 98.1383 31.7016C98.1405 31.6629 98.1278 31.6249 98.1028 31.5956C98.0778 31.5662 98.0426 31.548 98.0045 31.5446C97.9664 31.5413 97.9286 31.5532 97.8991 31.5778C97.8695 31.6023 97.8506 31.6376 97.8463 31.6761C97.1701 38.3624 96.5496 45.0539 95.9849 51.7506C95.6979 55.0989 95.4255 58.4491 95.1677 61.8012C95.0849 62.9165 94.9981 64.0954 94.9139 65.2942H96.3004" fill="#A16D42"/>
<path d="M97.2716 36.9259L97.1767 36.7836L97.0666 36.6202L96.999 36.5196C96.9753 36.4835 96.9516 36.4399 96.9279 36.3976C96.8804 36.3114 96.8268 36.2183 96.7711 36.1198C96.7153 36.0214 96.6686 35.9155 96.6155 35.807C96.5661 35.6972 96.5061 35.5879 96.4622 35.47C96.4184 35.3521 96.3685 35.2346 96.3211 35.1162C96.2737 34.9978 96.2381 34.8755 96.1968 34.7569C96.1769 34.6977 96.1571 34.639 96.1375 34.5807L96.0877 34.4065C96.0557 34.2919 96.0246 34.1814 95.9949 34.0763L95.9254 33.7773C95.8792 33.5935 95.8543 33.4366 95.8339 33.328C95.8135 33.2195 95.8021 33.1574 95.8021 33.1574C95.7973 33.1357 95.8011 33.1129 95.8127 33.0941C95.8243 33.0752 95.8428 33.0618 95.8641 33.0567C95.8854 33.0515 95.9079 33.0551 95.9266 33.0667C95.9453 33.0782 95.9588 33.0968 95.9641 33.1184L95.9653 33.1225L96.0111 33.2869C96.0417 33.3911 96.0782 33.5417 96.1394 33.7174C96.1681 33.8057 96.1994 33.9013 96.2326 34.0024C96.2703 34.1015 96.3099 34.2062 96.3512 34.3153L96.4141 34.4796L96.4867 34.6447C96.5365 34.755 96.5816 34.8695 96.6366 34.9793L96.8026 35.3052C96.8541 35.4142 96.9212 35.5121 96.976 35.6118C97.0351 35.708 97.0861 35.8086 97.1466 35.8895L97.3081 36.1251C97.3337 36.1615 97.3556 36.1973 97.3809 36.2296L97.4571 36.3234L97.5811 36.4763L97.6891 36.6094C97.7273 36.664 97.7437 36.7312 97.7351 36.7976C97.7264 36.864 97.6932 36.9245 97.6423 36.9671C97.5913 37.0097 97.5264 37.0311 97.4605 37.027C97.3946 37.0229 97.3327 36.9937 97.2872 36.9451L97.2716 36.9259Z" fill="#A16D42"/>
<path d="M97.1047 40.6097L97.3355 40.4438L97.6002 40.2537C97.7034 40.1815 97.8177 40.0975 97.9366 40.0039L98.3268 39.7038C98.4662 39.5991 98.6064 39.4763 98.7556 39.3557C98.9048 39.2352 99.059 39.1098 99.2085 38.9745L99.6682 38.5702L100.115 38.1507C100.264 38.0142 100.403 37.8708 100.539 37.7346C100.676 37.5983 100.81 37.4698 100.929 37.3379L101.27 36.9731C101.377 36.8611 101.471 36.7552 101.553 36.6602L101.766 36.4149L101.953 36.201L101.955 36.1988C101.969 36.1827 101.989 36.1729 102.011 36.1714C102.032 36.1698 102.053 36.1767 102.07 36.1906C102.086 36.2044 102.097 36.2242 102.099 36.2458C102.102 36.2674 102.096 36.2892 102.083 36.3066L101.911 36.5348L101.714 36.7962C101.638 36.8982 101.551 37.0128 101.451 37.1331L101.133 37.5256C101.022 37.6664 100.895 37.8053 100.768 37.9545C100.641 38.1037 100.51 38.2575 100.369 38.4063L99.9464 38.8636L99.5092 39.3074C99.3669 39.4561 99.2182 39.593 99.0766 39.7285C98.935 39.864 98.8002 39.9967 98.6638 40.1153L98.2845 40.4544C98.1659 40.5613 98.0578 40.6535 97.9608 40.7329L97.7103 40.9418L97.4918 41.124C97.4263 41.1785 97.3422 41.2044 97.2579 41.1959C97.1736 41.1875 97.096 41.1454 97.0423 41.079C96.9886 41.0125 96.9631 40.9271 96.9714 40.8416C96.9797 40.7561 97.0212 40.6774 97.0867 40.6229L97.1047 40.6097Z" fill="#A16D42"/>
<path d="M96.5001 46.4831L96.2762 46.2742C96.205 46.2077 96.118 46.1271 96.0188 46.0335L95.8604 45.8862C95.8053 45.8313 95.7486 45.7697 95.6889 45.7076L95.3053 45.3035C95.2356 45.2333 95.1699 45.1567 95.1049 45.0773L94.9032 44.8366C94.7671 44.6725 94.6212 44.5079 94.4926 44.324L94.0894 43.7789L93.721 43.2104C93.595 43.026 93.4923 42.8311 93.387 42.6465C93.3348 42.5541 93.2837 42.4633 93.2335 42.3743C93.1823 42.2857 93.1339 42.1983 93.0934 42.1095L92.8545 41.6171C92.818 41.5406 92.7812 41.4684 92.7494 41.3979C92.7176 41.3273 92.692 41.2583 92.6657 41.1945C92.6132 41.0672 92.5677 40.956 92.5298 40.8645L92.4111 40.5774C92.3986 40.5498 92.3973 40.5182 92.4077 40.4897C92.418 40.4611 92.4391 40.4379 92.4663 40.4252C92.4935 40.4124 92.5246 40.4111 92.5527 40.4216C92.5809 40.4321 92.6038 40.4535 92.6163 40.4811L92.6197 40.4879L92.7534 40.7625C92.7961 40.8498 92.8483 40.955 92.9069 41.0775C92.9368 41.1379 92.9681 41.2027 93.0018 41.2701C93.0355 41.3375 93.0779 41.4058 93.1185 41.4782L93.3832 41.9464C93.4281 42.0301 93.4805 42.1124 93.536 42.1955L93.702 42.4511C93.8159 42.6239 93.9271 42.8063 94.0609 42.9774C94.1902 43.1512 94.3218 43.3278 94.4523 43.5047L94.8743 44.0061C95.0088 44.1745 95.1604 44.3247 95.3013 44.4739C95.3724 44.5481 95.4417 44.621 95.5095 44.6925C95.5741 44.7634 95.6421 44.8311 95.7133 44.8951L96.0964 45.2506C96.1564 45.3052 96.2112 45.3586 96.2674 45.4077L96.4335 45.5447L96.7053 45.7671L96.9425 45.9611C96.9778 45.9893 97.0072 46.0244 97.0291 46.0643C97.0509 46.1041 97.0648 46.148 97.0698 46.1933C97.0748 46.2387 97.0709 46.2846 97.0584 46.3284C97.0458 46.3722 97.0248 46.413 96.9965 46.4485C96.9683 46.484 96.9334 46.5134 96.8938 46.5352C96.8543 46.5569 96.8109 46.5704 96.7662 46.575C96.7214 46.5796 96.6762 46.5751 96.6332 46.5619C96.5902 46.5486 96.5502 46.5268 96.5155 46.4978L96.4989 46.4836" fill="#A16D42"/>
<path d="M96.5829 49.4722L96.9677 49.2445L97.4091 48.9831L97.6807 48.8221C97.7739 48.7636 97.8681 48.6998 97.9684 48.6344L98.6148 48.2091C98.7311 48.1369 98.8464 48.0531 98.9631 47.9665L99.3227 47.7051C99.566 47.5265 99.8232 47.3482 100.067 47.1443L100.819 46.5426L101.542 45.9046C101.786 45.6984 102.006 45.475 102.225 45.2644L102.546 44.9532C102.652 44.8521 102.754 44.7518 102.848 44.6485L103.386 44.0755C103.469 43.9864 103.551 43.9024 103.625 43.8199L103.83 43.5792L104.163 43.1891L104.454 42.8488L104.457 42.8452C104.474 42.8258 104.497 42.8138 104.522 42.8116C104.548 42.8095 104.573 42.8175 104.592 42.8338C104.612 42.8501 104.625 42.8735 104.628 42.8991C104.631 42.9246 104.624 42.9504 104.608 42.9708L104.334 43.3289C104.247 43.443 104.141 43.5816 104.019 43.7409C103.959 43.8204 103.894 43.9053 103.826 43.9944C103.757 44.0834 103.678 44.1708 103.599 44.2654L103.087 44.8745C102.998 44.9843 102.9 45.0911 102.799 45.1992C102.697 45.3073 102.596 45.4194 102.491 45.5325C102.281 45.758 102.069 45.9973 101.834 46.2197L101.135 46.9087C100.89 47.1282 100.645 47.348 100.404 47.5643C100.167 47.786 99.9152 47.9819 99.6768 48.1778C99.5569 48.2754 99.4394 48.3712 99.3243 48.4654C99.21 48.5602 99.0964 48.6514 98.9804 48.7342L98.3349 49.2115L98.0479 49.4226L97.7856 49.5983L97.3586 49.8842L96.9869 50.133C96.902 50.1899 96.7982 50.2102 96.6986 50.1894C96.5989 50.1687 96.5114 50.1086 96.4554 50.0225C96.3994 49.9363 96.3794 49.8311 96.3999 49.7299C96.4203 49.6288 96.4795 49.5401 96.5644 49.4832L96.5824 49.4719" fill="#A16D42"/>
<path d="M95.9619 55.2927L95.7761 55.129L95.5626 54.9413C95.4801 54.8691 95.3873 54.787 95.287 54.69L94.9627 54.3832C94.8463 54.2754 94.7348 54.1536 94.6136 54.0323C94.4924 53.911 94.3681 53.7856 94.249 53.6503L93.8825 53.2474L93.5312 52.8313C93.4126 52.6963 93.3066 52.555 93.2008 52.4221C93.095 52.2893 92.9908 52.16 92.9005 52.0322C92.8101 51.9045 92.7214 51.7858 92.6412 51.6756C92.4782 51.4568 92.3589 51.2623 92.2678 51.1319C92.1768 51.0014 92.1284 50.9244 92.1284 50.9244C92.113 50.9015 92.107 50.8735 92.1115 50.8462C92.116 50.8189 92.1308 50.7944 92.1527 50.7779C92.1746 50.7614 92.2019 50.7541 92.229 50.7575C92.2561 50.761 92.2808 50.7749 92.298 50.7964L92.3008 50.7997L92.4548 50.9923C92.5549 51.1126 92.6872 51.2946 92.8649 51.4963C92.9524 51.5983 93.0471 51.7088 93.1474 51.8253C93.2477 51.9418 93.3609 52.0587 93.4726 52.1829C93.5843 52.3071 93.702 52.4347 93.8284 52.5572L94.2039 52.9343C94.3339 53.0546 94.4648 53.1774 94.5922 53.297C94.7196 53.4166 94.8505 53.529 94.976 53.6385C95.1015 53.748 95.2213 53.8551 95.3404 53.949L95.6725 54.2157C95.7733 54.2987 95.8712 54.3728 95.9604 54.4378L96.1882 54.6063L96.3865 54.7538C96.4591 54.8079 96.5076 54.889 96.5213 54.9794C96.535 55.0697 96.5128 55.1619 96.4595 55.2357C96.4062 55.3094 96.3263 55.3586 96.2372 55.3725C96.1481 55.3864 96.0573 55.3638 95.9846 55.3098L95.9628 55.2922" fill="#A16D42"/>
<path d="M95.9573 59.5639L96.293 59.4243C96.3997 59.3798 96.529 59.3254 96.6772 59.2631L96.9145 59.1642C96.9956 59.1274 97.0769 59.0852 97.164 59.0438L97.7224 58.7697L97.8737 58.6953L98.0258 58.6099L98.3396 58.434C98.5531 58.3136 98.7768 58.1964 98.991 58.0539L99.6509 57.6371L100.291 57.188C100.505 57.0436 100.704 56.8847 100.899 56.7336C101.093 56.5824 101.285 56.4407 101.456 56.2929L101.941 55.8789L102.156 55.6948L102.343 55.5203L102.648 55.2363L102.913 54.9887L102.917 54.9853C102.938 54.9656 102.966 54.9551 102.995 54.9561C103.024 54.9571 103.052 54.9694 103.072 54.9905C103.092 55.0116 103.103 55.0399 103.104 55.0693C103.104 55.0987 103.092 55.127 103.072 55.1482L102.818 55.413L102.527 55.7167L102.347 55.9035L102.139 56.1018L101.671 56.5478C101.505 56.7073 101.318 56.8607 101.13 57.0258C100.943 57.1909 100.748 57.3627 100.537 57.5218L99.9099 58.0154L99.259 58.4785C99.0474 58.6366 98.824 58.7687 98.6126 58.905L98.3002 59.1035L98.1484 59.1998L97.9949 59.2864L97.4226 59.6065C97.3338 59.6547 97.2487 59.7052 97.1676 59.7473L96.937 59.8595L96.562 60.0417L96.2356 60.2005C96.1948 60.2225 96.1501 60.2359 96.1042 60.2398C96.0582 60.2438 96.0119 60.2383 95.9681 60.2237C95.9243 60.2091 95.8838 60.1856 95.8492 60.1548C95.8145 60.1239 95.7863 60.0862 95.7664 60.044C95.7464 60.0018 95.7351 59.9559 95.7331 59.9092C95.731 59.8624 95.7383 59.8157 95.7545 59.7719C95.7707 59.7281 95.7955 59.688 95.8273 59.6541C95.8591 59.6203 95.8974 59.5933 95.9398 59.5748L95.9573 59.5639Z" fill="#A16D42"/>
<path d="M95.4041 63.7517L94.8464 63.3315L94.576 63.1279C94.4792 63.0588 94.382 62.9647 94.279 62.879L93.6414 62.3272L93.05 61.7382C92.9578 61.642 92.8603 61.5582 92.7832 61.4643L92.5569 61.2059L92.0922 60.6742C92.0733 60.6529 92.0632 60.625 92.064 60.5964C92.0647 60.5677 92.0763 60.5404 92.0962 60.5201C92.1162 60.4998 92.143 60.488 92.1712 60.4872C92.1995 60.4864 92.227 60.4965 92.2481 60.5156L92.254 60.5209L92.7711 60.984L93.0211 61.2071C93.1077 61.2884 93.2121 61.3592 93.3129 61.4405L93.9533 61.9368C94.1791 62.0884 94.4054 62.2396 94.6175 62.3813C94.7252 62.4506 94.8194 62.5238 94.9259 62.5816L95.2191 62.75C95.5822 62.9582 95.8242 63.0973 95.8242 63.0973C95.8696 63.1238 95.9093 63.1595 95.9407 63.202C95.9722 63.2446 95.9947 63.2933 96.007 63.345C96.0192 63.3967 96.021 63.4505 96.0121 63.5029C96.0032 63.5553 95.9838 63.6054 95.9552 63.6499C95.9266 63.6945 95.8893 63.7327 95.8456 63.7622C95.802 63.7916 95.7528 63.8117 95.7012 63.8213C95.6497 63.8308 95.5967 63.8295 95.5456 63.8176C95.4945 63.8056 95.4464 63.7832 95.4041 63.7517" fill="#A16D42"/>
<path d="M115.732 24.282H110.97L103.155 35.3064C103.891 36.3928 104.786 37.4087 105.402 38.57C105.431 38.625 105.459 38.6803 105.487 38.736L115.732 24.282" fill="#E2F3FE"/>
<path d="M103.156 35.3063L100.397 39.1983C100.445 39.446 100.396 39.7473 100.312 39.9906C99.5728 42.1367 98.0108 44.0248 97.8462 46.292C97.8379 46.4048 97.8355 46.5266 97.8953 46.6219C97.9805 46.7579 98.1584 46.793 98.3171 46.8022C98.3716 46.8051 98.4262 46.8068 98.4805 46.8068C98.9974 46.8068 99.5052 46.6715 100.002 46.4758L105.488 38.736C105.46 38.6803 105.432 38.6249 105.403 38.5699C104.786 37.4086 103.891 36.3927 103.157 35.3063" fill="#CDD794"/>
<path d="M96.6244 44.5232L96.1049 45.256C96.1623 45.3087 96.2152 45.36 96.2695 45.4074L96.4356 45.5443L96.5248 45.6166C96.5575 45.2517 96.5903 44.8869 96.6232 44.5222L96.6244 44.5232ZM100.4 39.1985L97.4017 43.4266C97.2898 45.3448 97.1815 47.2633 97.077 49.1819L97.4126 48.9831L97.6842 48.8221C97.7775 48.7636 97.8716 48.6998 97.972 48.6344L98.6184 48.2091C98.7213 48.1441 98.8233 48.0719 98.9267 47.9961L100.004 46.476C99.5069 46.6717 99.0003 46.8081 98.4822 46.8081C98.4279 46.8081 98.3733 46.8065 98.3188 46.8036C98.1601 46.7944 97.9822 46.7593 97.897 46.6233C97.8372 46.527 97.8396 46.4067 97.8479 46.2933C98.0125 44.0262 99.5745 42.1381 100.313 39.992C100.397 39.7486 100.446 39.4473 100.399 39.1997" fill="#C5D18C"/>
<path d="M95.0306 46.7662L92.2022 50.7551C92.2061 50.7549 92.2101 50.7549 92.214 50.7551C92.2298 50.7551 92.2453 50.7587 92.2595 50.7655C92.2737 50.7724 92.2862 50.7824 92.2961 50.7948L92.299 50.7982L92.3661 50.8824C92.4089 50.8718 92.4529 50.8666 92.497 50.8668C92.7354 50.8668 92.9952 51.0086 93.254 51.1503C93.5127 51.2921 93.7734 51.4336 94.013 51.4336C94.1205 51.4347 94.2257 51.4025 94.3145 51.3412C94.4649 51.2382 94.5474 51.0617 94.616 50.8911C95.1402 49.5833 95.2202 48.1703 95.0297 46.7659" fill="#CDD794"/>
<path d="M97.7887 49.5964L97.7864 49.5981L97.3594 49.884L97.0233 50.109C97.0121 50.3141 97.001 50.5182 96.9901 50.7235L97.7887 49.5964ZM95.7412 45.7646L95.0312 46.766C95.221 48.1704 95.1417 49.5834 94.6175 50.8912C94.549 51.0619 94.4664 51.2383 94.316 51.3413C94.2275 51.4024 94.1228 51.4346 94.0157 51.4337C93.7752 51.4337 93.5152 51.292 93.2567 51.1504C92.9981 51.0089 92.7381 50.8669 92.4997 50.8669C92.4556 50.8667 92.4117 50.8719 92.3688 50.8826L92.4556 50.9914C92.5557 51.1117 92.6881 51.2936 92.8658 51.4953C92.9533 51.5974 93.0479 51.7078 93.1483 51.8243C93.2486 51.9408 93.3618 52.0578 93.4735 52.182C93.5852 52.3062 93.7029 52.4337 93.8293 52.5562L94.2048 52.9334C94.3348 53.0537 94.4657 53.1765 94.5931 53.2961C94.7086 53.4077 94.8303 53.51 94.9463 53.6109L95.9499 52.195C95.9627 52.0467 95.9754 51.8986 95.9879 51.7507C96.1405 49.9793 96.2954 48.2081 96.4525 46.437L96.278 46.2741C96.2068 46.2077 96.1197 46.127 96.0206 46.0334L95.8621 45.8861C95.8237 45.8478 95.7846 45.8062 95.7435 45.7636" fill="#C5D18C"/>
<path d="M91.32 52.0032L91.2558 52.0939V58.8158L91.32 58.725V52.0032Z" fill="#E2F3FE"/>
<path d="M92.1121 50.8853L91.3196 52.0034V58.5667C91.3416 58.5881 91.3637 58.61 91.3855 58.6321L94.0496 54.8735C93.412 53.6001 92.4935 52.433 92.2067 51.0402L92.128 50.9233C92.1203 50.9117 92.115 50.8988 92.1121 50.8853" fill="#CDD794"/>
<path d="M91.3196 58.5665V58.7251L91.3855 58.632C91.3637 58.6099 91.3416 58.588 91.3196 58.5665ZM92.2067 51.0401C92.4935 52.4329 93.412 53.6 94.0496 54.8734L94.6333 54.0524L94.6144 54.0332C94.4958 53.9104 94.3689 53.7865 94.2498 53.6512L93.8833 53.2483L93.532 52.8322C93.4134 52.6972 93.3074 52.5559 93.2016 52.4231C93.0958 52.2902 92.9916 52.161 92.9013 52.0332C92.8109 51.9054 92.7222 51.7867 92.642 51.6765C92.479 51.4577 92.3597 51.2632 92.2686 51.1328L92.2079 51.0423" fill="#C5D18C"/>
<path d="M97.4004 43.4266L96.6231 44.5231C96.5902 44.888 96.5574 45.2528 96.5247 45.6175L96.7073 45.7667L96.9445 45.9607C96.9798 45.9889 97.0093 46.024 97.0311 46.0639C97.053 46.1037 97.0668 46.1476 97.0718 46.193C97.0768 46.2383 97.073 46.2842 97.0604 46.328C97.0478 46.3718 97.0268 46.4126 96.9985 46.4481C96.9703 46.4836 96.9354 46.5131 96.8959 46.5348C96.8563 46.5565 96.8129 46.57 96.7682 46.5746C96.7235 46.5792 96.6783 46.5747 96.6352 46.5615C96.5922 46.5482 96.5522 46.5264 96.5176 46.4974L96.501 46.4832L96.4516 46.4372C96.2935 48.2079 96.1386 49.9792 95.9869 51.7509C95.9744 51.8989 95.9618 52.047 95.949 52.1951L96.9927 50.7236C97.0036 50.5186 97.0147 50.3145 97.0259 50.1092L96.9903 50.1333C96.9483 50.1614 96.9011 50.1809 96.8517 50.1906C96.8022 50.2002 96.7514 50.1999 96.702 50.1897C96.6527 50.1794 96.6058 50.1594 96.5641 50.1307C96.5223 50.1021 96.4866 50.0653 96.4588 50.0227C96.4028 49.9365 96.3828 49.8313 96.4033 49.7302C96.4237 49.629 96.4829 49.5403 96.5678 49.4834L96.5859 49.4721L96.9706 49.2445L97.0764 49.1819C97.1813 47.2634 97.2895 45.345 97.4011 43.4266" fill="#CAA57E"/>
<path d="M96.1039 45.256L95.7433 45.7648C95.7839 45.8074 95.823 45.849 95.862 45.8873L96.0204 46.0346C96.1196 46.1272 96.2061 46.2078 96.2778 46.2752L96.4524 46.4382L96.5017 46.4841L96.5183 46.4983C96.553 46.5274 96.593 46.5492 96.636 46.5624C96.679 46.5757 96.7242 46.5802 96.7689 46.5756C96.8137 46.571 96.8571 46.5575 96.8966 46.5357C96.9361 46.514 96.971 46.4846 96.9993 46.4491C97.0275 46.4136 97.0485 46.3727 97.0611 46.3289C97.0737 46.2851 97.0776 46.2392 97.0726 46.1939C97.0675 46.1486 97.0537 46.1047 97.0319 46.0648C97.01 46.025 96.9806 45.9899 96.9453 45.9616L96.7081 45.7677L96.5254 45.6185L96.4362 45.5463L96.2702 45.4093C96.2159 45.3612 96.163 45.3106 96.1056 45.2579" fill="#CAA57E"/>
<path d="M98.9227 47.9959C98.8195 48.0717 98.7175 48.1439 98.6144 48.2089L97.968 48.6342C97.8676 48.6997 97.7735 48.7634 97.6802 48.8219L97.4086 48.9829L97.073 49.1817L96.9672 49.2443L96.5824 49.472L96.5644 49.4833C96.4795 49.5402 96.4203 49.6289 96.3999 49.73C96.3794 49.8312 96.3994 49.9364 96.4554 50.0225C96.5114 50.1087 96.5989 50.1688 96.6986 50.1895C96.7982 50.2103 96.902 50.19 96.9869 50.1331L97.0225 50.1091L97.3586 49.884L97.7856 49.5981L97.7879 49.5964L98.9225 47.9959" fill="#CAA57E"/>
<path d="M92.217 50.755C92.213 50.7547 92.2091 50.7547 92.2051 50.755L92.1136 50.884C92.1165 50.8976 92.1218 50.9105 92.1295 50.922L92.2082 51.039L92.2689 51.1295C92.36 51.2599 92.4793 51.4544 92.6423 51.6732C92.7225 51.7834 92.8084 51.9032 92.9016 52.0298C92.9948 52.1564 93.098 52.284 93.2019 52.4197C93.3058 52.5555 93.4154 52.6951 93.5323 52.8289L93.8836 53.245L94.2501 53.6479C94.3687 53.7832 94.4951 53.9071 94.6147 54.0299L94.6337 54.0491L94.9458 53.6087C94.8296 53.5078 94.7086 53.4055 94.5926 53.2939C94.4643 53.1735 94.3343 53.0532 94.2043 52.9312L93.8283 52.5562C93.7026 52.4337 93.5873 52.3047 93.4725 52.1819C93.3577 52.0592 93.246 51.9413 93.1473 51.8243C93.0486 51.7073 92.9523 51.5973 92.8648 51.4953C92.6871 51.2936 92.5548 51.1124 92.4547 50.9913L92.3679 50.8825L92.3007 50.7983L92.2979 50.7949C92.288 50.7825 92.2755 50.7725 92.2613 50.7656C92.2471 50.7587 92.2315 50.7552 92.2158 50.7552" fill="#CAA57E"/>
<path d="M107.91 38.7153L106.243 41.0672C106.327 41.5601 106.371 42.0592 106.375 42.5594L108.959 38.9141H108.1C108.031 38.8546 107.967 38.7879 107.911 38.7151L107.91 38.7153ZM119.332 24.282H118.141L108.482 37.9091H108.498C108.707 37.9078 108.913 37.9642 109.094 38.0725C109.212 37.4188 109.645 37.0344 110.168 37.0344C110.208 37.0345 110.248 37.0366 110.288 37.0409L119.333 24.282" fill="#E2F3FE"/>
<path d="M110.166 37.0345C109.643 37.0345 109.21 37.4196 109.092 38.0725C108.911 37.9643 108.705 37.9078 108.496 37.9091H108.48L107.909 38.7152C107.965 38.788 108.029 38.8547 108.099 38.9142H108.958L110.286 37.041C110.246 37.0367 110.206 37.0345 110.166 37.0345" fill="white"/>
<path d="M106.243 41.067L97.2621 53.7374C97.1886 54.3485 97.1582 54.9649 97.1435 55.5824L106.375 42.5597C106.371 42.0595 106.327 41.5604 106.243 41.0675" fill="#CDD794"/>
<path d="M97.2623 53.7376L96.7984 54.3923C96.7675 54.9943 96.7372 55.596 96.7075 56.1973L97.144 55.5817C97.1584 54.9644 97.1888 54.3477 97.2626 53.7367" fill="#C5D18C"/>
<path d="M94.7049 57.3448L92.7835 60.0549C92.8703 60.1113 92.9615 60.1604 93.0561 60.2019C93.1754 60.2572 93.3045 60.2876 93.4356 60.2914C93.5047 60.2921 93.5734 60.2799 93.6382 60.2553C93.8303 60.1805 93.9575 59.9971 94.0609 59.8168C94.489 59.0659 94.7114 58.2124 94.7049 57.3448" fill="#CDD794"/>
<path d="M95.6253 56.0475L94.705 57.3445C94.7117 58.2119 94.4896 59.0654 94.0617 59.8165C93.9583 59.9967 93.8311 60.1801 93.639 60.255C93.5742 60.2795 93.5055 60.2917 93.4364 60.2911C93.3053 60.2872 93.1762 60.2568 93.0569 60.2015C92.9623 60.1601 92.8711 60.1109 92.7843 60.0545L92.3759 60.6304L92.772 60.9837L93.022 61.2069C93.0486 61.2309 93.0768 61.255 93.1062 61.2791L95.4712 57.9428C95.5219 57.3108 95.5733 56.679 95.6253 56.0475" fill="#C5D18C"/>
<path d="M91.32 62.122L91.2558 62.2127V63.89L91.32 63.7993V62.122Z" fill="#E2F3FE"/>
<path d="M91.9584 61.2206L91.3196 62.1219V63.7999L92.5768 62.0266C92.5229 61.9616 92.4693 61.8959 92.4166 61.83C92.2585 61.6317 92.1058 61.4288 91.9586 61.2213" fill="#CDD794"/>
<path d="M92.2311 60.8342L91.9576 61.2193C92.1044 61.4266 92.257 61.6295 92.4157 61.828C92.4683 61.8939 92.5219 61.9596 92.5758 62.0246L92.8908 61.5803C92.8524 61.5418 92.8153 61.5033 92.7819 61.4631L92.5556 61.2046L92.2311 60.8333" fill="#C5D18C"/>
<path d="M96.798 54.3918L96.4728 54.8502C96.508 54.9082 96.5255 54.9755 96.5231 55.0436C96.5206 55.1116 96.4985 55.1774 96.4593 55.2327C96.4201 55.288 96.3657 55.3303 96.3029 55.3543C96.2401 55.3784 96.1717 55.383 96.1063 55.3677L95.6246 56.0474C95.5727 56.6792 95.5213 57.311 95.4704 57.9427L96.7072 56.1978C96.7371 55.5959 96.7674 54.9942 96.798 54.3927" fill="#CAA57E"/>
<path d="M96.4749 54.8502L96.1084 55.3676C96.1739 55.3832 96.2424 55.3787 96.3053 55.3547C96.3683 55.3308 96.4228 55.2885 96.462 55.2331C96.5013 55.1777 96.5234 55.1118 96.5257 55.0436C96.528 54.9754 96.5103 54.9081 96.4749 54.8502" fill="#CAA57E"/>
<path d="M92.375 60.6304L92.2305 60.8342L92.555 61.2056L92.7818 61.465C92.8152 61.5052 92.8529 61.5437 92.8907 61.5822L93.1041 61.28C93.0747 61.2559 93.0465 61.2318 93.0199 61.2078L92.7702 60.9837L92.375 60.6309" fill="#CAA57E"/>
<path d="M121.541 38.9141H119.161L105.718 57.8793C105.739 58.2202 105.739 58.5622 105.718 58.9031C105.969 58.6456 106.335 58.5128 106.697 58.5128C106.977 58.5128 107.256 58.5919 107.48 58.7534L121.541 38.9141Z" fill="#E2F3FE"/>
<path d="M106.696 58.512C106.333 58.512 105.968 58.6449 105.717 58.9024C105.646 60.0817 105.316 61.2415 104.687 62.2319C104.044 63.2427 102.984 64.172 101.791 64.8093H103.186L107.48 58.7527C107.256 58.5912 106.977 58.512 106.697 58.512" fill="#DDE397"/>
<path d="M122.069 34.8095L119.16 38.914H121.54L122.069 38.1667V34.8095Z" fill="white"/>
<path d="M105.714 57.8789L100.802 64.8104H101.789C102.983 64.1731 104.043 63.2445 104.685 62.233C105.314 61.2426 105.643 60.0835 105.715 58.9035C105.736 58.5625 105.736 58.2206 105.715 57.8796" fill="#CDD794"/>
<path d="M90.4972 23.7718V65.4958H122.949V23.7718H90.4972ZM121.846 64.5634H91.6006V24.7042H121.846V64.5634Z" fill="#A06E67"/>
<path d="M100.164 24.4588V64.8085H101.13V24.4588" fill="#A06E67"/>
<path d="M112.315 24.4588V64.8085H113.282V24.4588" fill="#A06E67"/>
<path d="M122.26 36.0432H90.4972V37.0243H122.26" fill="#A06E67"/>
<path d="M122.26 52.243H90.4972V53.224H122.26" fill="#A06E67"/>
<path d="M63.694 32.273H64.6801C64.9038 32.273 65.0927 32.3071 65.2468 32.3753C65.4023 32.4435 65.5203 32.5444 65.6007 32.6781C65.6826 32.8104 65.7235 32.9734 65.7235 33.1671C65.7235 33.3035 65.6955 33.4283 65.6396 33.5415C65.585 33.6533 65.5059 33.7488 65.4023 33.8279C65.3 33.9056 65.1772 33.9636 65.034 34.0018L64.9235 34.0448H63.9967L63.9927 33.7235H64.6923C64.8342 33.7235 64.9522 33.699 65.0463 33.6499C65.1404 33.5994 65.2113 33.5319 65.2591 33.4473C65.3068 33.3628 65.3307 33.2694 65.3307 33.1671C65.3307 33.0525 65.3082 32.9522 65.2632 32.8663C65.2181 32.7804 65.1472 32.7142 65.0504 32.6679C64.9549 32.6201 64.8315 32.5963 64.6801 32.5963H64.0888V35.2518H63.694V32.273ZM65.435 35.2518L64.7108 33.9015L65.122 33.8995L65.8565 35.2273V35.2518H65.435ZM67.1372 35.2927C66.9831 35.2927 66.8433 35.2668 66.7178 35.215C66.5937 35.1618 66.4866 35.0875 66.3966 34.992C66.3079 34.8965 66.2397 34.7833 66.192 34.6524C66.1443 34.5214 66.1204 34.3782 66.1204 34.2227V34.1368C66.1204 33.9568 66.147 33.7965 66.2002 33.656C66.2534 33.5142 66.3257 33.3942 66.417 33.296C66.5084 33.1977 66.6121 33.1234 66.728 33.0729C66.844 33.0225 66.964 32.9973 67.0881 32.9973C67.2463 32.9973 67.3827 33.0245 67.4973 33.0791C67.6132 33.1336 67.708 33.21 67.7817 33.3082C67.8553 33.4051 67.9099 33.5196 67.9453 33.6519C67.9808 33.7829 67.9985 33.9261 67.9985 34.0816V34.2514H66.3454V33.9425H67.62V33.9138C67.6146 33.8156 67.5941 33.7201 67.5587 33.6274C67.5246 33.5346 67.47 33.4583 67.395 33.3982C67.32 33.3382 67.2177 33.3082 67.0881 33.3082C67.0022 33.3082 66.9231 33.3266 66.8508 33.3635C66.7785 33.3989 66.7164 33.4521 66.6646 33.523C66.6128 33.594 66.5725 33.6806 66.5439 33.7829C66.5152 33.8852 66.5009 34.0032 66.5009 34.1368V34.2227C66.5009 34.3278 66.5152 34.4267 66.5439 34.5194C66.5739 34.6108 66.6169 34.6913 66.6728 34.7608C66.7301 34.8304 66.7989 34.8849 66.8794 34.9245C66.9612 34.964 67.054 34.9838 67.1577 34.9838C67.2913 34.9838 67.4045 34.9565 67.4973 34.902C67.59 34.8474 67.6712 34.7745 67.7407 34.6831L67.9699 34.8652C67.9221 34.9374 67.8614 35.0063 67.7878 35.0718C67.7141 35.1373 67.6234 35.1905 67.5157 35.2314C67.4093 35.2723 67.2831 35.2927 67.1372 35.2927ZM69.7294 34.6647C69.7294 34.6101 69.7171 34.5596 69.6925 34.5133C69.6693 34.4655 69.6209 34.4226 69.5473 34.3844C69.475 34.3448 69.3659 34.3107 69.2199 34.2821C69.0972 34.2562 68.986 34.2255 68.8864 34.19C68.7882 34.1545 68.7044 34.1116 68.6348 34.0611C68.5666 34.0107 68.5141 33.9513 68.4773 33.8831C68.4404 33.8149 68.422 33.7351 68.422 33.6438C68.422 33.5565 68.4411 33.4739 68.4793 33.3962C68.5189 33.3185 68.5741 33.2496 68.645 33.1896C68.7173 33.1296 68.8039 33.0825 68.9049 33.0484C69.0058 33.0143 69.1183 32.9973 69.2424 32.9973C69.4197 32.9973 69.5711 33.0286 69.6966 33.0914C69.8221 33.1541 69.9183 33.238 69.9851 33.343C70.0519 33.4467 70.0853 33.5619 70.0853 33.6888H69.7068C69.7068 33.6274 69.6884 33.5681 69.6516 33.5108C69.6161 33.4521 69.5636 33.4037 69.4941 33.3655C69.4259 33.3273 69.342 33.3082 69.2424 33.3082C69.1374 33.3082 69.0522 33.3246 68.9867 33.3573C68.9226 33.3887 68.8755 33.4289 68.8455 33.478C68.8169 33.5271 68.8026 33.579 68.8026 33.6335C68.8026 33.6744 68.8094 33.7113 68.823 33.744C68.838 33.7754 68.8639 33.8047 68.9008 33.832C68.9376 33.8579 68.9894 33.8824 69.0562 33.9056C69.1231 33.9288 69.2083 33.952 69.312 33.9752C69.4934 34.0161 69.6427 34.0652 69.76 34.1225C69.8773 34.1798 69.9646 34.25 70.0219 34.3332C70.0792 34.4164 70.1078 34.5174 70.1078 34.636C70.1078 34.7329 70.0874 34.8215 70.0465 34.902C70.0069 34.9825 69.9489 35.052 69.8726 35.1107C69.7975 35.1679 69.7075 35.213 69.6025 35.2457C69.4988 35.2771 69.3822 35.2927 69.2527 35.2927C69.0576 35.2927 68.8926 35.258 68.7575 35.1884C68.6225 35.1188 68.5202 35.0288 68.4507 34.9183C68.3811 34.8079 68.3463 34.6913 68.3463 34.5685H68.7269C68.7323 34.6722 68.7623 34.7547 68.8169 34.8161C68.8714 34.8761 68.9383 34.919 69.0174 34.9449C69.0965 34.9695 69.1749 34.9818 69.2527 34.9818C69.3563 34.9818 69.4429 34.9681 69.5125 34.9409C69.5834 34.9136 69.6373 34.8761 69.6741 34.8283C69.7109 34.7806 69.7294 34.726 69.7294 34.6647ZM71.5236 35.2927C71.3695 35.2927 71.2297 35.2668 71.1042 35.215C70.9801 35.1618 70.873 35.0875 70.783 34.992C70.6943 34.8965 70.6261 34.7833 70.5784 34.6524C70.5307 34.5214 70.5068 34.3782 70.5068 34.2227V34.1368C70.5068 33.9568 70.5334 33.7965 70.5866 33.656C70.6398 33.5142 70.7121 33.3942 70.8034 33.296C70.8948 33.1977 70.9985 33.1234 71.1144 33.0729C71.2304 33.0225 71.3504 32.9973 71.4745 32.9973C71.6327 32.9973 71.7691 33.0245 71.8837 33.0791C71.9996 33.1336 72.0944 33.21 72.1681 33.3082C72.2417 33.4051 72.2963 33.5196 72.3317 33.6519C72.3672 33.7829 72.3849 33.9261 72.3849 34.0816V34.2514H70.7318V33.9425H72.0064V33.9138C72.001 33.8156 71.9805 33.7201 71.9451 33.6274C71.911 33.5346 71.8564 33.4583 71.7814 33.3982C71.7064 33.3382 71.6041 33.3082 71.4745 33.3082C71.3886 33.3082 71.3095 33.3266 71.2372 33.3635C71.1649 33.3989 71.1028 33.4521 71.051 33.523C70.9992 33.594 70.9589 33.6806 70.9303 33.7829C70.9017 33.8852 70.8873 34.0032 70.8873 34.1368V34.2227C70.8873 34.3278 70.9017 34.4267 70.9303 34.5194C70.9603 34.6108 71.0033 34.6913 71.0592 34.7608C71.1165 34.8304 71.1853 34.8849 71.2658 34.9245C71.3477 34.964 71.4404 34.9838 71.5441 34.9838C71.6777 34.9838 71.7909 34.9565 71.8837 34.902C71.9764 34.8474 72.0576 34.7745 72.1271 34.6831L72.3563 34.8652C72.3085 34.9374 72.2479 35.0063 72.1742 35.0718C72.1005 35.1373 72.0098 35.1905 71.9021 35.2314C71.7957 35.2723 71.6695 35.2927 71.5236 35.2927ZM73.7536 33.0382V33.3287H72.5568V33.0382H73.7536ZM72.9619 32.5001H73.3404V34.7035C73.3404 34.7785 73.352 34.8351 73.3751 34.8733C73.3983 34.9115 73.4283 34.9368 73.4652 34.949C73.502 34.9613 73.5415 34.9675 73.5838 34.9675C73.6152 34.9675 73.6479 34.9647 73.682 34.9593C73.7175 34.9524 73.7441 34.947 73.7618 34.9429L73.7639 35.2518C73.7339 35.2614 73.6943 35.2702 73.6452 35.2784C73.5975 35.288 73.5395 35.2927 73.4713 35.2927C73.3786 35.2927 73.2933 35.2743 73.2156 35.2375C73.1378 35.2007 73.0758 35.1393 73.0294 35.0534C72.9844 34.9661 72.9619 34.8488 72.9619 34.7015V32.5001ZM76.356 33.8586H75.6011L75.597 33.5415H76.2824C76.3956 33.5415 76.4945 33.5224 76.579 33.4842C76.6636 33.446 76.7291 33.3914 76.7754 33.3205C76.8232 33.2482 76.847 33.1623 76.847 33.0627C76.847 32.9536 76.8259 32.8649 76.7836 32.7968C76.7427 32.7272 76.6793 32.6767 76.5933 32.6454C76.5088 32.6126 76.401 32.5963 76.2701 32.5963H75.6891V35.2518H75.2942V32.273H76.2701C76.4228 32.273 76.5592 32.2887 76.6793 32.3201C76.7993 32.3501 76.9009 32.3978 76.9841 32.4633C77.0687 32.5274 77.1328 32.6092 77.1764 32.7088C77.2201 32.8083 77.2419 32.9277 77.2419 33.0668C77.2419 33.1896 77.2105 33.3007 77.1478 33.4003C77.085 33.4985 76.9977 33.579 76.8859 33.6417C76.7754 33.7044 76.6459 33.7447 76.4972 33.7624L76.356 33.8586ZM76.3376 35.2518H75.4456L75.6686 34.9306H76.3376C76.4631 34.9306 76.5695 34.9088 76.6568 34.8652C76.7454 34.8215 76.8129 34.7601 76.8593 34.681C76.9057 34.6006 76.9289 34.5058 76.9289 34.3966C76.9289 34.2862 76.9091 34.1907 76.8695 34.1102C76.83 34.0297 76.7679 33.9677 76.6834 33.924C76.5988 33.8804 76.4897 33.8586 76.356 33.8586H75.7934L75.7975 33.5415H76.5667L76.6506 33.656C76.7938 33.6683 76.9152 33.7092 77.0148 33.7788C77.1144 33.847 77.1901 33.9343 77.2419 34.0407C77.2951 34.147 77.3217 34.2643 77.3217 34.3926C77.3217 34.578 77.2808 34.7349 77.1989 34.8631C77.1185 34.99 77.0046 35.0868 76.8573 35.1536C76.71 35.2191 76.5367 35.2518 76.3376 35.2518ZM79.2019 34.7404V33.0382H79.5824V35.2518H79.2203L79.2019 34.7404ZM79.2735 34.2739L79.431 34.2698C79.431 34.4171 79.4153 34.5535 79.3839 34.679C79.3539 34.8031 79.3048 34.9108 79.2366 35.0022C79.1684 35.0936 79.0791 35.1652 78.9686 35.2171C78.8581 35.2675 78.7238 35.2927 78.5656 35.2927C78.4578 35.2927 78.359 35.2771 78.2689 35.2457C78.1803 35.2143 78.1039 35.1659 78.0398 35.1004C77.9757 35.035 77.9259 34.9497 77.8904 34.8447C77.8563 34.7397 77.8393 34.6135 77.8393 34.4662V33.0382H78.2178V34.4703C78.2178 34.5699 78.2287 34.6524 78.2505 34.7179C78.2737 34.782 78.3044 34.8331 78.3426 34.8713C78.3821 34.9081 78.4258 34.934 78.4735 34.949C78.5226 34.964 78.5731 34.9715 78.6249 34.9715C78.7859 34.9715 78.9134 34.9409 79.0075 34.8795C79.1016 34.8167 79.1691 34.7329 79.21 34.6278C79.2523 34.5214 79.2735 34.4035 79.2735 34.2739ZM81.0861 33.0382V33.3287H79.8893V33.0382H81.0861ZM80.2944 32.5001H80.6729V34.7035C80.6729 34.7785 80.6845 34.8351 80.7076 34.8733C80.7308 34.9115 80.7608 34.9368 80.7977 34.949C80.8345 34.9613 80.874 34.9675 80.9163 34.9675C80.9477 34.9675 80.9804 34.9647 81.0145 34.9593C81.05 34.9524 81.0766 34.947 81.0943 34.9429L81.0964 35.2518C81.0664 35.2614 81.0268 35.2702 80.9777 35.2784C80.93 35.288 80.872 35.2927 80.8038 35.2927C80.7111 35.2927 80.6258 35.2743 80.5481 35.2375C80.4703 35.2007 80.4083 35.1393 80.3619 35.0534C80.3169 34.9661 80.2944 34.8488 80.2944 34.7015V32.5001ZM82.4569 33.0382V33.3287H81.26V33.0382H82.4569ZM81.6651 32.5001H82.0436V34.7035C82.0436 34.7785 82.0552 34.8351 82.0784 34.8733C82.1016 34.9115 82.1316 34.9368 82.1684 34.949C82.2052 34.9613 82.2448 34.9675 82.2871 34.9675C82.3184 34.9675 82.3512 34.9647 82.3853 34.9593C82.4207 34.9524 82.4473 34.947 82.4651 34.9429L82.4671 35.2518C82.4371 35.2614 82.3976 35.2702 82.3485 35.2784C82.3007 35.288 82.2427 35.2927 82.1746 35.2927C82.0818 35.2927 81.9966 35.2743 81.9188 35.2375C81.8411 35.2007 81.779 35.1393 81.7326 35.0534C81.6876 34.9661 81.6651 34.8488 81.6651 34.7015V32.5001ZM82.7597 34.1696V34.1225C82.7597 33.9629 82.7829 33.8149 82.8292 33.6785C82.8756 33.5408 82.9424 33.4214 83.0297 33.3205C83.117 33.2182 83.2227 33.1391 83.3469 33.0832C83.471 33.0259 83.6101 32.9973 83.7642 32.9973C83.9197 32.9973 84.0595 33.0259 84.1836 33.0832C84.3091 33.1391 84.4155 33.2182 84.5028 33.3205C84.5914 33.4214 84.659 33.5408 84.7053 33.6785C84.7517 33.8149 84.7749 33.9629 84.7749 34.1225V34.1696C84.7749 34.3291 84.7517 34.4771 84.7053 34.6135C84.659 34.7499 84.5914 34.8692 84.5028 34.9715C84.4155 35.0725 84.3098 35.1516 84.1857 35.2089C84.0629 35.2648 83.9238 35.2927 83.7683 35.2927C83.6128 35.2927 83.473 35.2648 83.3489 35.2089C83.2248 35.1516 83.1184 35.0725 83.0297 34.9715C82.9424 34.8692 82.8756 34.7499 82.8292 34.6135C82.7829 34.4771 82.7597 34.3291 82.7597 34.1696ZM83.1382 34.1225V34.1696C83.1382 34.28 83.1511 34.3844 83.177 34.4826C83.203 34.5794 83.2418 34.6653 83.2937 34.7404C83.3469 34.8154 83.413 34.8747 83.4921 34.9183C83.5712 34.9606 83.6633 34.9818 83.7683 34.9818C83.872 34.9818 83.9627 34.9606 84.0404 34.9183C84.1195 34.8747 84.185 34.8154 84.2368 34.7404C84.2886 34.6653 84.3275 34.5794 84.3534 34.4826C84.3807 34.3844 84.3944 34.28 84.3944 34.1696V34.1225C84.3944 34.0134 84.3807 33.9104 84.3534 33.8136C84.3275 33.7154 84.288 33.6288 84.2348 33.5537C84.1829 33.4774 84.1175 33.4173 84.0384 33.3737C83.9606 33.3301 83.8692 33.3082 83.7642 33.3082C83.6606 33.3082 83.5692 33.3301 83.4901 33.3737C83.4123 33.4173 83.3469 33.4774 83.2937 33.5537C83.2418 33.6288 83.203 33.7154 83.177 33.8136C83.1511 33.9104 83.1382 34.0134 83.1382 34.1225ZM85.628 33.5108V35.2518H85.2495V33.0382H85.6076L85.628 33.5108ZM85.538 34.0611L85.3805 34.055C85.3818 33.9036 85.4043 33.7638 85.448 33.6356C85.4916 33.506 85.553 33.3935 85.6321 33.298C85.7112 33.2025 85.8053 33.1289 85.9145 33.077C86.0249 33.0238 86.147 32.9973 86.2807 32.9973C86.3898 32.9973 86.488 33.0123 86.5753 33.0423C86.6626 33.0709 86.7369 33.1173 86.7983 33.1814C86.861 33.2455 86.9088 33.3287 86.9415 33.431C86.9742 33.5319 86.9906 33.6553 86.9906 33.8013V35.2518H86.6101V33.7972C86.6101 33.6813 86.593 33.5885 86.5589 33.519C86.5248 33.448 86.475 33.3969 86.4096 33.3655C86.3441 33.3328 86.2636 33.3164 86.1681 33.3164C86.074 33.3164 85.9881 33.3362 85.9104 33.3757C85.834 33.4153 85.7678 33.4699 85.7119 33.5394C85.6574 33.609 85.6144 33.6888 85.583 33.7788C85.553 33.8674 85.538 33.9616 85.538 34.0611Z" fill="black"/>
<path d="M21.5534 56.6184C21.5534 56.4497 21.4847 56.2879 21.3624 56.1686C21.2402 56.0494 21.0744 55.9824 20.9015 55.9824C20.7286 55.9824 20.5628 56.0494 20.4405 56.1686C20.3183 56.2879 20.2496 56.4497 20.2496 56.6184V57.4666H21.5534V56.6184Z" fill="#373737" fill-opacity="0.35"/>
<path d="M18.0768 56.6186C18.0711 56.4536 17.9998 56.2971 17.8781 56.1823C17.7564 56.0675 17.5938 56.0034 17.4245 56.0034C17.2552 56.0034 17.0926 56.0675 16.9709 56.1823C16.8492 56.2971 16.778 56.4536 16.7722 56.6186V57.4669H18.0768V56.6186Z" fill="#373737" fill-opacity="0.35"/>
<path d="M23.5167 63.1908V59.7986C23.5159 59.5739 23.424 59.3587 23.2611 59.1999C23.0982 59.0411 22.8775 58.9516 22.6472 58.951H21.561V57.4668H20.2572V58.951H18.084V57.4668H16.7795V58.951H15.6932C15.463 58.9516 15.2424 59.0411 15.0796 59.1999C14.9168 59.3587 14.8251 59.574 14.8245 59.7986V63.1908C14.5942 63.1916 14.3735 63.2812 14.2106 63.4401C14.0477 63.599 13.9559 63.8143 13.9551 64.0391V71.6711C13.9559 71.8958 14.0477 72.1111 14.2106 72.27C14.3735 72.4289 14.5942 72.5185 14.8245 72.5193H23.5167C23.747 72.5185 23.9677 72.4289 24.1306 72.27C24.2935 72.1111 24.3853 71.8958 24.3861 71.6711V64.0391C24.3853 63.8143 24.2935 63.599 24.1306 63.4401C23.9677 63.2812 23.747 63.1916 23.5167 63.1908V63.1908ZM18.7359 70.3991V67.8551H16.997L18.7359 64.4628H20.474L19.6053 66.1593H21.3434L18.7359 70.3991Z" fill="#373737" fill-opacity="0.35"/>
<path d="M36.7174 56.6869H36.5955C36.5955 56.6869 36.6247 57.237 36.2346 57.3807H36.7174V56.6869Z" fill="black"/>
<path d="M35.8514 57.3807H36.5412C36.6384 57.3807 36.7174 57.3281 36.7174 57.2629V56.8047C36.7174 56.7397 36.6384 56.6869 36.5412 56.6869H35.8514V57.3807Z" fill="black"/>
<path d="M36.7186 56.8099C36.7186 56.7449 36.8478 56.6921 36.5424 56.6921H35.8526V57.109C36.2513 57.1261 36.585 57.0209 36.7186 56.8772V56.8099Z" fill="#24211E"/>
<path d="M40.571 57.7629H39.4484V56.3131H40.5779C40.6386 56.3128 40.697 56.3358 40.741 56.3773C40.7851 56.4188 40.8114 56.4756 40.8144 56.5358C40.8158 56.5408 40.8163 56.5461 40.816 56.5513V57.5199C40.8161 57.5519 40.8099 57.5836 40.7976 57.6132C40.7853 57.6427 40.7672 57.6696 40.7444 57.6922C40.7216 57.7148 40.6946 57.7326 40.6648 57.7448C40.635 57.7569 40.6031 57.7631 40.571 57.7629Z" fill="#D1D3D4"/>
<path d="M39.8221 57.1534C39.7639 56.9631 39.761 56.4294 39.9267 56.314H40.5768C40.6402 56.314 40.7011 56.339 40.746 56.3837C40.7909 56.4283 40.8161 56.4888 40.8161 56.5519V57.4961C40.0538 57.5187 39.914 57.4518 39.8221 57.1534Z" fill="#D9DADB"/>
<path d="M39.6322 57.9824V56.0679H36.7271V57.9824H39.6322Z" fill="black"/>
<path d="M35.8525 57.0448H34.6935" stroke="black" stroke-width="0.6"/>
<path d="M25.5896 67.2223V69.3333H28.3225V67.2223H25.5896Z" fill="#696C6E"/>
<path d="M25.5896 67.2223V69.3333H28.3225V67.2223H25.5896Z" fill="#D1D3D4"/>
<path d="M25.5896 67.2233H28.3235V69.3343H27.648C27.648 69.3343 27.9278 69.0709 27.9278 68.1182C27.9278 67.1655 27.3055 67.2806 26.5927 67.2806C25.8799 67.2806 25.5896 67.2233 25.5896 67.2233Z" fill="#C1C4C6"/>
<path d="M27.5748 68.1108C27.6911 68.3868 27.6969 69.1651 27.3658 69.3333H25.5896V67.6126C27.1119 67.5788 27.3914 67.6751 27.5748 68.1108Z" fill="#D9DADB"/>
<path d="M28.3225 68.0974V68.1367H27.801V68.2778H26.1324V68.1367H25.9419V68.2778H25.5896V68.2385H25.9024V68.0974H26.1719V68.2385H27.7615V68.0974H28.3225Z" fill="#E5E8EA"/>
<path d="M28.3225 68.1171V68.1562H27.801V68.2973H26.1324V68.1562H25.9419V68.2973H25.5896V68.258H25.9024V68.1171H26.1719V68.258H27.7615V68.1171H28.3225Z" fill="#ADB1B2"/>
<path opacity="0.7" d="M28.3225 69.3333H25.5896V67.2223L25.6463 69.2729L28.3225 69.3333Z" fill="#E5E8EA"/>
<path d="M26.4793 68.5772V69.0678H26.9003V68.5772H26.4793Z" fill="#7E8183"/>
<path d="M26.4793 68.7005C26.6574 68.7302 26.801 68.9322 26.8829 69.0678H26.4793V68.7005Z" fill="#8E9192"/>
<path d="M26.5963 68.5772H26.9029V68.9274C26.8414 68.8215 26.7303 68.664 26.5963 68.5772Z" fill="#696C6E"/>
<path d="M26.4818 69.0678V68.5774H26.9028V69.0678L26.9141 68.5679H26.4722L26.4818 69.0678Z" fill="#E5E8EA"/>
<path opacity="0.7" d="M26.4793 69.0114V69.0678H26.9003V69.0114H26.4793Z" fill="#696C6E"/>
<path d="M26.4793 67.5093V68H26.9003V67.5093H26.4793Z" fill="#7E8183"/>
<path d="M26.4793 67.6324C26.6574 67.6621 26.801 67.8643 26.8829 68H26.4793V67.6324Z" fill="#8E9192"/>
<path d="M26.5963 67.5085H26.9029V67.8588C26.8414 67.7534 26.7303 67.5961 26.5963 67.5085Z" fill="#696C6E"/>
<path d="M26.4818 68V67.5093H26.9028V68L26.9141 67.4998H26.4722L26.4818 68Z" fill="#E5E8EA"/>
<path opacity="0.7" d="M26.4793 67.9436V68H26.9003V67.9436H26.4793Z" fill="#696C6E"/>
<path d="M28.0567 66.7397V69.8553H32.2873V66.7397H28.0567Z" fill="black"/>
<path opacity="0.6" d="M32.2873 69.8279V69.8553H28.0567V67.9846C30.569 67.8844 31.8277 69.1938 32.2873 69.8279Z" fill="black"/>
<path d="M28.0567 69.3335V69.8553H32.2873V69.3335H28.0567Z" fill="black"/>
<path opacity="0.6" d="M28.0567 66.7397V67.2225H32.2873V66.7397H28.0567Z" fill="black"/>
<path opacity="0.6" d="M28.0567 67.2228C28.0567 67.2228 31.3677 67.0667 31.6961 66.7401H32.2873V67.2228H28.0567Z" fill="black"/>
<path opacity="0.3" d="M32.2873 69.8553C32.2873 69.8553 29.3444 69.5636 28.7796 69.3335H28.0567V69.8553H32.2873Z" fill="black"/>
<path d="M32.2891 67.7233H33.2944C33.3281 67.7233 33.3614 67.7298 33.3925 67.7426C33.4236 67.7554 33.4519 67.7742 33.4757 67.7979C33.4995 67.8215 33.5184 67.8496 33.5313 67.8806C33.5442 67.9115 33.5508 67.9447 33.5507 67.9781V68.9696C33.5508 69.0031 33.5442 69.0363 33.5313 69.0672C33.5184 69.0982 33.4996 69.1263 33.4757 69.15C33.4519 69.1737 33.4237 69.1925 33.3925 69.2053C33.3614 69.2181 33.3281 69.2247 33.2944 69.2247H32.2891V67.7233Z" fill="black"/>
<path d="M33.5507 68.7739C33.5508 68.8073 33.5442 68.8405 33.5313 68.8715C33.5184 68.9024 33.4996 68.9305 33.4757 68.9542C33.4519 68.9779 33.4237 68.9967 33.3925 69.0095C33.3614 69.0223 33.3281 69.0289 33.2944 69.0289H32.2891V68.1276C32.87 68.0905 33.3559 68.318 33.5503 68.629L33.5507 68.7739Z" fill="black"/>
<path d="M34.8301 68.4625H33.0916" stroke="black" stroke-width="0.6"/>
<path d="M34.8301 68.7498L34.8281 56.7565" stroke="black" stroke-width="0.6"/>
<circle cx="75.2875" cy="25.0194" r="4.13068" fill="#333333"/>
<path d="M77.8361 24.5783C78.0769 25.492 77.6757 26.7337 76.6706 27.3602C75.7013 27.9644 74.4343 27.8901 73.5655 27.1682C72.6702 26.4243 72.3672 25.2263 72.7935 24.1538C73.1617 23.2276 74.2017 22.3366 75.6903 22.5346C75.7416 22.3589 75.7932 22.1815 75.851 21.9836L76.9618 23.2222L75.3631 23.7034C75.4145 23.5182 75.4596 23.3557 75.5129 23.1636C75.3577 23.1636 75.2109 23.1481 75.0685 23.1662C74.2332 23.2723 73.6352 23.7078 73.3695 24.5043C72.917 25.8611 73.9346 27.0994 75.2158 27.114C76.2493 27.1257 77.1037 26.3915 77.2316 25.3708C77.2553 25.1813 77.2248 24.9845 77.2115 24.7915C77.2078 24.7367 77.2038 24.6989 77.2685 24.6867C77.4556 24.6515 77.6426 24.6154 77.8361 24.5783Z" fill="white"/>
<path d="M24.449 34.2897H23.6532V33.9685H24.449C24.6032 33.9685 24.728 33.944 24.8234 33.8949C24.9189 33.8458 24.9885 33.7776 25.0321 33.6903C25.0771 33.603 25.0996 33.5034 25.0996 33.3916C25.0996 33.2893 25.0771 33.1931 25.0321 33.1031C24.9885 33.0131 24.9189 32.9408 24.8234 32.8863C24.728 32.8303 24.6032 32.8024 24.449 32.8024H23.7453V35.4579H23.3504V32.4791H24.449C24.6741 32.4791 24.8644 32.518 25.0198 32.5957C25.1753 32.6735 25.2933 32.7812 25.3738 32.919C25.4543 33.0554 25.4945 33.2116 25.4945 33.3875C25.4945 33.5784 25.4543 33.7414 25.3738 33.8765C25.2933 34.0115 25.1753 34.1145 25.0198 34.1854C24.8644 34.255 24.6741 34.2897 24.449 34.2897ZM25.8075 34.3757V34.3286C25.8075 34.169 25.8307 34.021 25.8771 33.8847C25.9235 33.7469 25.9903 33.6275 26.0776 33.5266C26.1649 33.4243 26.2706 33.3452 26.3947 33.2893C26.5188 33.232 26.6579 33.2034 26.8121 33.2034C26.9675 33.2034 27.1073 33.232 27.2315 33.2893C27.3569 33.3452 27.4633 33.4243 27.5506 33.5266C27.6393 33.6275 27.7068 33.7469 27.7532 33.8847C27.7995 34.021 27.8227 34.169 27.8227 34.3286V34.3757C27.8227 34.5352 27.7995 34.6832 27.7532 34.8196C27.7068 34.956 27.6393 35.0754 27.5506 35.1777C27.4633 35.2786 27.3576 35.3577 27.2335 35.415C27.1108 35.4709 26.9716 35.4989 26.8161 35.4989C26.6607 35.4989 26.5209 35.4709 26.3967 35.415C26.2726 35.3577 26.1662 35.2786 26.0776 35.1777C25.9903 35.0754 25.9235 34.956 25.8771 34.8196C25.8307 34.6832 25.8075 34.5352 25.8075 34.3757ZM26.186 34.3286V34.3757C26.186 34.4861 26.199 34.5905 26.2249 34.6887C26.2508 34.7855 26.2897 34.8715 26.3415 34.9465C26.3947 35.0215 26.4608 35.0808 26.54 35.1245C26.6191 35.1667 26.7111 35.1879 26.8161 35.1879C26.9198 35.1879 27.0105 35.1667 27.0883 35.1245C27.1674 35.0808 27.2328 35.0215 27.2847 34.9465C27.3365 34.8715 27.3754 34.7855 27.4013 34.6887C27.4286 34.5905 27.4422 34.4861 27.4422 34.3757V34.3286C27.4422 34.2195 27.4286 34.1165 27.4013 34.0197C27.3754 33.9215 27.3358 33.8349 27.2826 33.7599C27.2308 33.6835 27.1653 33.6235 27.0862 33.5798C27.0085 33.5362 26.9171 33.5143 26.8121 33.5143C26.7084 33.5143 26.617 33.5362 26.5379 33.5798C26.4602 33.6235 26.3947 33.6835 26.3415 33.7599C26.2897 33.8349 26.2508 33.9215 26.2249 34.0197C26.199 34.1165 26.186 34.2195 26.186 34.3286ZM28.858 35.0651L29.4267 33.2443H29.6763L29.6272 33.6064L29.0482 35.4579H28.8048L28.858 35.0651ZM28.4754 33.2443L28.9603 35.0856L28.995 35.4579H28.7393L28.0969 33.2443H28.4754ZM30.2205 35.0713L30.6829 33.2443H31.0593L30.4169 35.4579H30.1632L30.2205 35.0713ZM29.7316 33.2443L30.288 35.0344L30.3515 35.4579H30.11L29.5147 33.6023L29.4656 33.2443H29.7316ZM32.3667 35.4989C32.2125 35.4989 32.0727 35.473 31.9473 35.4211C31.8231 35.3679 31.7161 35.2936 31.6261 35.1981C31.5374 35.1026 31.4692 34.9894 31.4215 34.8585C31.3737 34.7276 31.3499 34.5843 31.3499 34.4289V34.3429C31.3499 34.1629 31.3765 34.0026 31.4296 33.8621C31.4828 33.7203 31.5551 33.6003 31.6465 33.5021C31.7379 33.4039 31.8416 33.3295 31.9575 33.2791C32.0734 33.2286 32.1935 33.2034 32.3176 33.2034C32.4758 33.2034 32.6122 33.2306 32.7267 33.2852C32.8427 33.3398 32.9375 33.4161 33.0111 33.5143C33.0848 33.6112 33.1393 33.7258 33.1748 33.8581C33.2103 33.989 33.228 34.1322 33.228 34.2877V34.4575H31.5749V34.1486H32.8495V34.1199C32.844 34.0217 32.8236 33.9263 32.7881 33.8335C32.754 33.7408 32.6995 33.6644 32.6245 33.6044C32.5494 33.5443 32.4471 33.5143 32.3176 33.5143C32.2316 33.5143 32.1525 33.5328 32.0802 33.5696C32.008 33.605 31.9459 33.6582 31.8941 33.7292C31.8422 33.8001 31.802 33.8867 31.7734 33.989C31.7447 34.0913 31.7304 34.2093 31.7304 34.3429V34.4289C31.7304 34.5339 31.7447 34.6328 31.7734 34.7255C31.8034 34.8169 31.8463 34.8974 31.9023 34.9669C31.9595 35.0365 32.0284 35.091 32.1089 35.1306C32.1907 35.1702 32.2835 35.1899 32.3871 35.1899C32.5208 35.1899 32.634 35.1627 32.7267 35.1081C32.8195 35.0535 32.9007 34.9806 32.9702 34.8892L33.1994 35.0713C33.1516 35.1436 33.0909 35.2124 33.0173 35.2779C32.9436 35.3434 32.8529 35.3966 32.7452 35.4375C32.6388 35.4784 32.5126 35.4989 32.3667 35.4989ZM34.0484 33.5921V35.4579H33.6699V33.2443H34.0382L34.0484 33.5921ZM34.7399 33.232L34.7379 33.5839C34.7065 33.5771 34.6765 33.573 34.6478 33.5716C34.6206 33.5689 34.5892 33.5675 34.5537 33.5675C34.4664 33.5675 34.3894 33.5812 34.3225 33.6085C34.2557 33.6357 34.1991 33.6739 34.1527 33.723C34.1064 33.7721 34.0695 33.8308 34.0423 33.899C34.0163 33.9658 33.9993 34.0395 33.9911 34.1199L33.8847 34.1813C33.8847 34.0476 33.8977 33.9222 33.9236 33.8049C33.9509 33.6876 33.9925 33.5839 34.0484 33.4939C34.1043 33.4025 34.1752 33.3316 34.2612 33.2811C34.3485 33.2293 34.4521 33.2034 34.5721 33.2034C34.5994 33.2034 34.6308 33.2068 34.6663 33.2136C34.7017 33.2191 34.7263 33.2252 34.7399 33.232ZM37.2482 34.0647H36.4932L36.4892 33.7476H37.1745C37.2877 33.7476 37.3866 33.7285 37.4712 33.6903C37.5558 33.6521 37.6212 33.5975 37.6676 33.5266C37.7153 33.4543 37.7392 33.3684 37.7392 33.2688C37.7392 33.1597 37.7181 33.0711 37.6758 33.0029C37.6349 32.9333 37.5714 32.8828 37.4855 32.8515C37.4009 32.8187 37.2932 32.8024 37.1623 32.8024H36.5812V35.4579H36.1864V32.4791H37.1623C37.315 32.4791 37.4514 32.4948 37.5714 32.5262C37.6915 32.5562 37.7931 32.6039 37.8763 32.6694C37.9608 32.7335 38.0249 32.8153 38.0686 32.9149C38.1122 33.0145 38.1341 33.1338 38.1341 33.2729C38.1341 33.3957 38.1027 33.5068 38.0399 33.6064C37.9772 33.7046 37.8899 33.7851 37.7781 33.8478C37.6676 33.9106 37.538 33.9508 37.3894 33.9685L37.2482 34.0647ZM37.2298 35.4579H36.3378L36.5608 35.1367H37.2298C37.3553 35.1367 37.4616 35.1149 37.5489 35.0713C37.6376 35.0276 37.7051 34.9662 37.7515 34.8871C37.7978 34.8067 37.821 34.7119 37.821 34.6028C37.821 34.4923 37.8013 34.3968 37.7617 34.3163C37.7222 34.2359 37.6601 34.1738 37.5755 34.1302C37.491 34.0865 37.3819 34.0647 37.2482 34.0647H36.6856L36.6897 33.7476H37.4589L37.5428 33.8621C37.686 33.8744 37.8074 33.9153 37.907 33.9849C38.0065 34.0531 38.0822 34.1404 38.1341 34.2468C38.1873 34.3532 38.2138 34.4705 38.2138 34.5987C38.2138 34.7842 38.1729 34.941 38.0911 35.0692C38.0106 35.1961 37.8967 35.2929 37.7494 35.3597C37.6021 35.4252 37.4289 35.4579 37.2298 35.4579ZM40.094 34.9465V33.2443H40.4746V35.4579H40.1124L40.094 34.9465ZM40.1656 34.48L40.3232 34.4759C40.3232 34.6232 40.3075 34.7596 40.2761 34.8851C40.2461 35.0092 40.197 35.117 40.1288 35.2083C40.0606 35.2997 39.9713 35.3713 39.8608 35.4232C39.7503 35.4736 39.616 35.4989 39.4578 35.4989C39.35 35.4989 39.2511 35.4832 39.1611 35.4518C39.0724 35.4204 38.9961 35.372 38.932 35.3066C38.8679 35.2411 38.8181 35.1558 38.7826 35.0508C38.7485 34.9458 38.7315 34.8196 38.7315 34.6723V33.2443H39.11V34.6764C39.11 34.776 39.1209 34.8585 39.1427 34.924C39.1659 34.9881 39.1966 35.0392 39.2348 35.0774C39.2743 35.1142 39.318 35.1402 39.3657 35.1552C39.4148 35.1702 39.4653 35.1777 39.5171 35.1777C39.678 35.1777 39.8056 35.147 39.8997 35.0856C39.9938 35.0229 40.0613 34.939 40.1022 34.8339C40.1445 34.7276 40.1656 34.6096 40.1656 34.48ZM41.9783 33.2443V33.5348H40.7815V33.2443H41.9783ZM41.1865 32.7062H41.565V34.9096C41.565 34.9847 41.5766 35.0413 41.5998 35.0795C41.623 35.1176 41.653 35.1429 41.6898 35.1552C41.7267 35.1674 41.7662 35.1736 41.8085 35.1736C41.8399 35.1736 41.8726 35.1708 41.9067 35.1654C41.9422 35.1586 41.9688 35.1531 41.9865 35.149L41.9885 35.4579C41.9585 35.4675 41.919 35.4764 41.8699 35.4845C41.8221 35.4941 41.7642 35.4989 41.696 35.4989C41.6032 35.4989 41.518 35.4805 41.4402 35.4436C41.3625 35.4068 41.3004 35.3454 41.2541 35.2595C41.209 35.1722 41.1865 35.0549 41.1865 34.9076V32.7062ZM43.3491 33.2443V33.5348H42.1522V33.2443H43.3491ZM42.5573 32.7062H42.9358V34.9096C42.9358 34.9847 42.9474 35.0413 42.9706 35.0795C42.9937 35.1176 43.0238 35.1429 43.0606 35.1552C43.0974 35.1674 43.137 35.1736 43.1792 35.1736C43.2106 35.1736 43.2433 35.1708 43.2774 35.1654C43.3129 35.1586 43.3395 35.1531 43.3572 35.149L43.3593 35.4579C43.3293 35.4675 43.2897 35.4764 43.2406 35.4845C43.1929 35.4941 43.1349 35.4989 43.0667 35.4989C42.974 35.4989 42.8887 35.4805 42.811 35.4436C42.7332 35.4068 42.6712 35.3454 42.6248 35.2595C42.5798 35.1722 42.5573 35.0549 42.5573 34.9076V32.7062ZM43.6518 34.3757V34.3286C43.6518 34.169 43.675 34.021 43.7214 33.8847C43.7678 33.7469 43.8346 33.6275 43.9219 33.5266C44.0092 33.4243 44.1149 33.3452 44.239 33.2893C44.3631 33.232 44.5023 33.2034 44.6564 33.2034C44.8119 33.2034 44.9517 33.232 45.0758 33.2893C45.2013 33.3452 45.3077 33.4243 45.395 33.5266C45.4836 33.6275 45.5511 33.7469 45.5975 33.8847C45.6439 34.021 45.6671 34.169 45.6671 34.3286V34.3757C45.6671 34.5352 45.6439 34.6832 45.5975 34.8196C45.5511 34.956 45.4836 35.0754 45.395 35.1777C45.3077 35.2786 45.202 35.3577 45.0778 35.415C44.9551 35.4709 44.816 35.4989 44.6605 35.4989C44.505 35.4989 44.3652 35.4709 44.2411 35.415C44.1169 35.3577 44.0106 35.2786 43.9219 35.1777C43.8346 35.0754 43.7678 34.956 43.7214 34.8196C43.675 34.6832 43.6518 34.5352 43.6518 34.3757ZM44.0303 34.3286V34.3757C44.0303 34.4861 44.0433 34.5905 44.0692 34.6887C44.0951 34.7855 44.134 34.8715 44.1858 34.9465C44.239 35.0215 44.3052 35.0808 44.3843 35.1245C44.4634 35.1667 44.5555 35.1879 44.6605 35.1879C44.7641 35.1879 44.8548 35.1667 44.9326 35.1245C45.0117 35.0808 45.0772 35.0215 45.129 34.9465C45.1808 34.8715 45.2197 34.7855 45.2456 34.6887C45.2729 34.5905 45.2865 34.4861 45.2865 34.3757V34.3286C45.2865 34.2195 45.2729 34.1165 45.2456 34.0197C45.2197 33.9215 45.1801 33.8349 45.1269 33.7599C45.0751 33.6835 45.0096 33.6235 44.9305 33.5798C44.8528 33.5362 44.7614 33.5143 44.6564 33.5143C44.5527 33.5143 44.4613 33.5362 44.3822 33.5798C44.3045 33.6235 44.239 33.6835 44.1858 33.7599C44.134 33.8349 44.0951 33.9215 44.0692 34.0197C44.0433 34.1165 44.0303 34.2195 44.0303 34.3286ZM46.5202 33.7169V35.4579H46.1417V33.2443H46.4997L46.5202 33.7169ZM46.4302 34.2672L46.2726 34.2611C46.274 34.1097 46.2965 33.9699 46.3402 33.8417C46.3838 33.7121 46.4452 33.5996 46.5243 33.5041C46.6034 33.4086 46.6975 33.335 46.8066 33.2832C46.9171 33.23 47.0392 33.2034 47.1728 33.2034C47.282 33.2034 47.3802 33.2184 47.4674 33.2484C47.5547 33.277 47.6291 33.3234 47.6905 33.3875C47.7532 33.4516 47.8009 33.5348 47.8337 33.6371C47.8664 33.738 47.8828 33.8615 47.8828 34.0074V35.4579H47.5022V34.0033C47.5022 33.8874 47.4852 33.7946 47.4511 33.7251C47.417 33.6541 47.3672 33.603 47.3017 33.5716C47.2363 33.5389 47.1558 33.5225 47.0603 33.5225C46.9662 33.5225 46.8803 33.5423 46.8025 33.5819C46.7262 33.6214 46.66 33.676 46.6041 33.7455C46.5495 33.8151 46.5066 33.8949 46.4752 33.9849C46.4452 34.0736 46.4302 34.1677 46.4302 34.2672Z" fill="black"/>
<path d="M80.192 79.4439V80.5343C80.1552 80.5889 80.0965 80.6503 80.016 80.7185C79.9356 80.7853 79.8244 80.844 79.6826 80.8944C79.5421 80.9435 79.3607 80.9681 79.1383 80.9681C78.9569 80.9681 78.7899 80.9367 78.6371 80.874C78.4857 80.8099 78.3541 80.7171 78.2422 80.5957C78.1318 80.473 78.0458 80.3243 77.9845 80.1497C77.9245 79.9738 77.8944 79.7746 77.8944 79.5523V79.3211C77.8944 79.0988 77.9204 78.9004 77.9722 78.7258C78.0254 78.5512 78.1031 78.4032 78.2054 78.2818C78.3077 78.1591 78.4332 78.0663 78.5819 78.0036C78.7305 77.9395 78.901 77.9074 79.0933 77.9074C79.3211 77.9074 79.5114 77.947 79.6641 78.0261C79.8183 78.1038 79.9383 78.2116 80.0242 78.3493C80.1115 78.4871 80.1674 78.6439 80.192 78.8199H79.7971C79.7794 78.7121 79.7439 78.6139 79.6907 78.5253C79.6389 78.4366 79.5646 78.3657 79.4677 78.3125C79.3709 78.2579 79.2461 78.2307 79.0933 78.2307C78.9556 78.2307 78.8362 78.2559 78.7353 78.3064C78.6344 78.3568 78.5512 78.4291 78.4857 78.5232C78.4202 78.6173 78.3711 78.7312 78.3384 78.8649C78.307 78.9986 78.2913 79.1493 78.2913 79.317V79.5523C78.2913 79.7242 78.3111 79.8776 78.3507 80.0126C78.3916 80.1477 78.4496 80.2629 78.5246 80.3584C78.5996 80.4525 78.6889 80.5241 78.7926 80.5732C78.8976 80.6223 79.0136 80.6469 79.1404 80.6469C79.2809 80.6469 79.3948 80.6353 79.4821 80.6121C79.5694 80.5875 79.6375 80.5589 79.6867 80.5262C79.7358 80.4921 79.7733 80.46 79.7992 80.43V79.763H79.1097V79.4439H80.192ZM81.9453 79.7589H81.1495V79.4377H81.9453C82.0994 79.4377 82.2242 79.4132 82.3197 79.3641C82.4152 79.315 82.4848 79.2468 82.5284 79.1595C82.5734 79.0722 82.5959 78.9726 82.5959 78.8608C82.5959 78.7585 82.5734 78.6623 82.5284 78.5723C82.4848 78.4823 82.4152 78.41 82.3197 78.3555C82.2242 78.2995 82.0994 78.2716 81.9453 78.2716H81.2415V80.9272H80.8467V77.9483H81.9453C82.1704 77.9483 82.3606 77.9872 82.5161 78.0649C82.6716 78.1427 82.7896 78.2504 82.8701 78.3882C82.9505 78.5246 82.9908 78.6808 82.9908 78.8567C82.9908 79.0477 82.9505 79.2106 82.8701 79.3457C82.7896 79.4807 82.6716 79.5837 82.5161 79.6546C82.3606 79.7242 82.1704 79.7589 81.9453 79.7589ZM85.0776 80.1743C85.0776 80.1047 85.0667 80.0433 85.0449 79.9901C85.0244 79.9356 84.9876 79.8865 84.9344 79.8428C84.8826 79.7992 84.8103 79.7576 84.7175 79.718C84.6261 79.6785 84.5102 79.6382 84.3697 79.5973C84.2224 79.5537 84.0894 79.5053 83.9708 79.4521C83.8521 79.3975 83.7505 79.3354 83.6659 79.2659C83.5814 79.1963 83.5166 79.1165 83.4716 79.0265C83.4266 78.9365 83.404 78.8335 83.404 78.7176C83.404 78.6016 83.4279 78.4946 83.4757 78.3964C83.5234 78.2982 83.5916 78.2129 83.6802 78.1406C83.7703 78.067 83.8773 78.0097 84.0015 77.9688C84.1256 77.9279 84.264 77.9074 84.4168 77.9074C84.6405 77.9074 84.83 77.9504 84.9855 78.0363C85.1424 78.1209 85.2617 78.232 85.3436 78.3698C85.4254 78.5062 85.4663 78.6521 85.4663 78.8076H85.0735C85.0735 78.6958 85.0496 78.5969 85.0019 78.5109C84.9542 78.4237 84.8819 78.3555 84.785 78.3064C84.6882 78.2559 84.5654 78.2307 84.4168 78.2307C84.2763 78.2307 84.1603 78.2518 84.069 78.2941C83.9776 78.3364 83.9094 78.3937 83.8644 78.4659C83.8207 78.5382 83.7989 78.6207 83.7989 78.7135C83.7989 78.7762 83.8119 78.8335 83.8378 78.8853C83.8651 78.9358 83.9067 78.9829 83.9626 79.0265C84.0199 79.0702 84.0922 79.1104 84.1794 79.1472C84.2681 79.184 84.3738 79.2195 84.4966 79.2536C84.6657 79.3013 84.8116 79.3545 84.9344 79.4132C85.0571 79.4718 85.1581 79.538 85.2372 79.6116C85.3176 79.6839 85.377 79.7664 85.4152 79.8592C85.4547 79.9506 85.4745 80.0542 85.4745 80.1702C85.4745 80.2916 85.4499 80.4014 85.4008 80.4996C85.3517 80.5978 85.2815 80.6816 85.1901 80.7512C85.0987 80.8208 84.9889 80.8746 84.8607 80.9128C84.7339 80.9497 84.592 80.9681 84.4352 80.9681C84.2974 80.9681 84.1617 80.949 84.028 80.9108C83.8957 80.8726 83.775 80.8153 83.6659 80.7389C83.5582 80.6626 83.4716 80.5684 83.4061 80.4566C83.342 80.3434 83.3099 80.2125 83.3099 80.0638H83.7027C83.7027 80.1661 83.7225 80.2541 83.7621 80.3277C83.8016 80.4 83.8555 80.46 83.9237 80.5077C83.9933 80.5555 84.0717 80.5909 84.159 80.6141C84.2476 80.636 84.3397 80.6469 84.4352 80.6469C84.5729 80.6469 84.6896 80.6278 84.785 80.5896C84.8805 80.5514 84.9528 80.4968 85.0019 80.4259C85.0524 80.355 85.0776 80.2711 85.0776 80.1743ZM88.1198 78.2122L87.1337 80.9272H86.7307L87.8662 77.9483H88.126L88.1198 78.2122ZM88.9464 80.9272L87.9582 78.2122L87.9521 77.9483H88.2119L89.3515 80.9272H88.9464ZM88.8952 79.8244V80.1477H87.2217V79.8244H88.8952ZM90.0716 79.1861V80.9272H89.6931V78.7135H90.0512L90.0716 79.1861ZM89.9816 79.7364L89.8241 79.7303C89.8254 79.5789 89.8479 79.4391 89.8916 79.3109C89.9352 79.1813 89.9966 79.0688 90.0757 78.9733C90.1548 78.8778 90.2489 78.8042 90.3581 78.7524C90.4685 78.6992 90.5906 78.6726 90.7243 78.6726C90.8334 78.6726 90.9316 78.6876 91.0189 78.7176C91.1062 78.7462 91.1805 78.7926 91.2419 78.8567C91.3046 78.9208 91.3524 79.004 91.3851 79.1063C91.4178 79.2072 91.4342 79.3307 91.4342 79.4766V80.9272H91.0537V79.4725C91.0537 79.3566 91.0366 79.2638 91.0025 79.1943C90.9684 79.1234 90.9186 79.0722 90.8532 79.0408C90.7877 79.0081 90.7072 78.9917 90.6117 78.9917C90.5176 78.9917 90.4317 79.0115 90.354 79.0511C90.2776 79.0906 90.2114 79.1452 90.1555 79.2147C90.101 79.2843 90.058 79.3641 90.0266 79.4541C89.9966 79.5428 89.9816 79.6369 89.9816 79.7364ZM92.9359 78.7135V79.004H91.739V78.7135H92.9359ZM92.1441 78.1754H92.5226V80.3789C92.5226 80.4539 92.5342 80.5105 92.5574 80.5487C92.5806 80.5869 92.6106 80.6121 92.6474 80.6244C92.6842 80.6366 92.7238 80.6428 92.7661 80.6428C92.7974 80.6428 92.8302 80.64 92.8643 80.6346C92.8997 80.6278 92.9263 80.6223 92.9441 80.6182L92.9461 80.9272C92.9161 80.9367 92.8766 80.9456 92.8275 80.9538C92.7797 80.9633 92.7218 80.9681 92.6536 80.9681C92.5608 80.9681 92.4756 80.9497 92.3978 80.9128C92.3201 80.876 92.258 80.8146 92.2116 80.7287C92.1666 80.6414 92.1441 80.5241 92.1441 80.3768V78.1754ZM94.2985 80.9681C94.1443 80.9681 94.0045 80.9422 93.879 80.8903C93.7549 80.8371 93.6479 80.7628 93.5578 80.6673C93.4692 80.5719 93.401 80.4586 93.3533 80.3277C93.3055 80.1968 93.2816 80.0536 93.2816 79.8981V79.8121C93.2816 79.6321 93.3082 79.4718 93.3614 79.3314C93.4146 79.1895 93.4869 79.0695 93.5783 78.9713C93.6697 78.8731 93.7733 78.7987 93.8893 78.7483C94.0052 78.6978 94.1252 78.6726 94.2494 78.6726C94.4076 78.6726 94.544 78.6999 94.6585 78.7544C94.7745 78.809 94.8693 78.8853 94.9429 78.9836C95.0166 79.0804 95.0711 79.195 95.1066 79.3273C95.142 79.4582 95.1598 79.6014 95.1598 79.7569V79.9267H93.5067V79.6178H94.7813V79.5891C94.7758 79.4909 94.7554 79.3955 94.7199 79.3027C94.6858 79.21 94.6313 79.1336 94.5562 79.0736C94.4812 79.0136 94.3789 78.9836 94.2494 78.9836C94.1634 78.9836 94.0843 79.002 94.012 79.0388C93.9397 79.0743 93.8777 79.1274 93.8259 79.1984C93.774 79.2693 93.7338 79.3559 93.7051 79.4582C93.6765 79.5605 93.6622 79.6785 93.6622 79.8121V79.8981C93.6622 80.0031 93.6765 80.102 93.7051 80.1947C93.7352 80.2861 93.7781 80.3666 93.834 80.4361C93.8913 80.5057 93.9602 80.5603 94.0407 80.5998C94.1225 80.6394 94.2153 80.6591 94.3189 80.6591C94.4526 80.6591 94.5658 80.6319 94.6585 80.5773C94.7513 80.5227 94.8324 80.4498 94.902 80.3584L95.1311 80.5405C95.0834 80.6128 95.0227 80.6816 94.9491 80.7471C94.8754 80.8126 94.7847 80.8658 94.6769 80.9067C94.5706 80.9476 94.4444 80.9681 94.2985 80.9681ZM95.9802 79.1861V80.9272H95.6017V78.7135H95.9597L95.9802 79.1861ZM95.8902 79.7364L95.7326 79.7303C95.734 79.5789 95.7565 79.4391 95.8001 79.3109C95.8438 79.1813 95.9052 79.0688 95.9843 78.9733C96.0634 78.8778 96.1575 78.8042 96.2666 78.7524C96.3771 78.6992 96.4992 78.6726 96.6328 78.6726C96.7419 78.6726 96.8401 78.6876 96.9274 78.7176C97.0147 78.7462 97.0891 78.7926 97.1504 78.8567C97.2132 78.9208 97.2609 79.004 97.2937 79.1063C97.3264 79.2072 97.3428 79.3307 97.3428 79.4766V80.9272H96.9622V79.4725C96.9622 79.3566 96.9452 79.2638 96.9111 79.1943C96.877 79.1234 96.8272 79.0722 96.7617 79.0408C96.6963 79.0081 96.6158 78.9917 96.5203 78.9917C96.4262 78.9917 96.3403 79.0115 96.2625 79.0511C96.1861 79.0906 96.12 79.1452 96.0641 79.2147C96.0095 79.2843 95.9665 79.3641 95.9352 79.4541C95.9052 79.5428 95.8902 79.6369 95.8902 79.7364ZM98.2961 79.1861V80.9272H97.9177V78.7135H98.2757L98.2961 79.1861ZM98.2061 79.7364L98.0486 79.7303C98.05 79.5789 98.0725 79.4391 98.1161 79.3109C98.1598 79.1813 98.2211 79.0688 98.3002 78.9733C98.3793 78.8778 98.4735 78.8042 98.5826 78.7524C98.693 78.6992 98.8151 78.6726 98.9488 78.6726C99.0579 78.6726 99.1561 78.6876 99.2434 78.7176C99.3307 78.7462 99.405 78.7926 99.4664 78.8567C99.5291 78.9208 99.5769 79.004 99.6096 79.1063C99.6423 79.2072 99.6587 79.3307 99.6587 79.4766V80.9272H99.2782V79.4725C99.2782 79.3566 99.2611 79.2638 99.227 79.1943C99.1929 79.1234 99.1431 79.0722 99.0777 79.0408C99.0122 79.0081 98.9317 78.9917 98.8363 78.9917C98.7421 78.9917 98.6562 79.0115 98.5785 79.0511C98.5021 79.0906 98.4359 79.1452 98.38 79.2147C98.3255 79.2843 98.2825 79.3641 98.2511 79.4541C98.2211 79.5428 98.2061 79.6369 98.2061 79.7364ZM101.539 80.5487V79.4091C101.539 79.3218 101.521 79.2461 101.486 79.182C101.452 79.1165 101.4 79.0661 101.33 79.0306C101.261 78.9951 101.175 78.9774 101.072 78.9774C100.977 78.9774 100.893 78.9938 100.821 79.0265C100.75 79.0592 100.694 79.1022 100.653 79.1554C100.613 79.2086 100.594 79.2659 100.594 79.3273H100.215C100.215 79.2482 100.236 79.1697 100.277 79.092C100.317 79.0142 100.376 78.944 100.453 78.8813C100.53 78.8172 100.623 78.7667 100.731 78.7299C100.84 78.6917 100.961 78.6726 101.095 78.6726C101.256 78.6726 101.398 78.6999 101.52 78.7544C101.645 78.809 101.741 78.8915 101.811 79.002C101.882 79.1111 101.917 79.2482 101.917 79.4132V80.4443C101.917 80.518 101.924 80.5964 101.936 80.6796C101.949 80.7628 101.969 80.8344 101.995 80.8944V80.9272H101.6C101.581 80.8835 101.566 80.8255 101.555 80.7533C101.544 80.6796 101.539 80.6114 101.539 80.5487ZM101.604 79.585L101.608 79.851H101.226C101.118 79.851 101.022 79.8599 100.937 79.8776C100.853 79.894 100.782 79.9192 100.725 79.9533C100.667 79.9874 100.624 80.0304 100.594 80.0822C100.564 80.1327 100.549 80.192 100.549 80.2602C100.549 80.3298 100.564 80.3932 100.596 80.4505C100.627 80.5077 100.674 80.5534 100.737 80.5875C100.801 80.6203 100.879 80.6366 100.972 80.6366C101.088 80.6366 101.19 80.6121 101.279 80.563C101.368 80.5139 101.438 80.4539 101.49 80.3829C101.543 80.312 101.572 80.2431 101.576 80.1763L101.737 80.3584C101.728 80.4157 101.702 80.4791 101.66 80.5487C101.617 80.6182 101.561 80.6851 101.49 80.7492C101.42 80.8119 101.337 80.8644 101.24 80.9067C101.145 80.9476 101.037 80.9681 100.917 80.9681C100.767 80.9681 100.635 80.9387 100.522 80.8801C100.41 80.8214 100.323 80.743 100.26 80.6448C100.199 80.5453 100.168 80.4341 100.168 80.3113C100.168 80.1927 100.191 80.0883 100.238 79.9983C100.284 79.9069 100.351 79.8312 100.438 79.7712C100.525 79.7098 100.631 79.6635 100.753 79.6321C100.876 79.6007 101.013 79.585 101.164 79.585H101.604Z" fill="black"/>
<path d="M43.0625 37.7558L43.0625 52.4455L45.3805 52.4455" stroke="#7DD1E8" stroke-width="0.198344" stroke-linecap="round" stroke-linejoin="round" stroke-dasharray="0.4 0.4"/>
<g clip-path="url(#clip0_330_294)">
<path d="M35.5629 29.1501C37.8443 29.1501 39.6937 27.3007 39.6937 25.0194C39.6937 22.7381 37.8443 20.8887 35.5629 20.8887C33.2816 20.8887 31.4322 22.7381 31.4322 25.0194C31.4322 27.3007 33.2816 29.1501 35.5629 29.1501Z" fill="#333333"/>
<path d="M35.5628 27.6352C35.1028 27.6351 34.651 27.5133 34.2533 27.2821C33.8555 27.0509 33.5261 26.7186 33.2983 26.3189C33.0706 25.9192 32.9527 25.4663 32.9566 25.0063C32.9605 24.5463 33.0861 24.0955 33.3206 23.6997C33.5521 23.3102 33.8807 22.9874 34.2744 22.763C34.3565 22.7161 34.4539 22.7039 34.5451 22.7289C34.6363 22.7539 34.7139 22.8141 34.7607 22.8963C34.8075 22.9784 34.8197 23.0758 34.7947 23.167C34.7697 23.2582 34.7095 23.3358 34.6274 23.3826C34.3369 23.5484 34.0953 23.7879 33.9272 24.077C33.759 24.3661 33.6702 24.6945 33.6697 25.029C33.6697 26.0728 34.5189 26.9221 35.5628 26.9221C36.6067 26.9221 37.456 26.0728 37.456 25.029C37.4555 24.6945 37.3666 24.3661 37.1984 24.077C37.0303 23.7879 36.7887 23.5483 36.4982 23.3826C36.4568 23.3598 36.4204 23.3289 36.391 23.2919C36.3617 23.2549 36.34 23.2124 36.3271 23.167C36.3143 23.1215 36.3107 23.0739 36.3164 23.027C36.3222 22.9801 36.3372 22.9348 36.3606 22.8937C36.384 22.8527 36.4153 22.8167 36.4527 22.7879C36.4901 22.759 36.5329 22.7379 36.5786 22.7257C36.6242 22.7135 36.6718 22.7106 36.7186 22.717C36.7655 22.7234 36.8105 22.739 36.8513 22.763C37.2516 22.9905 37.5844 23.3201 37.8159 23.7182C38.0474 24.1162 38.1693 24.5685 38.1691 25.029C38.1694 25.3713 38.1021 25.7104 37.9712 26.0267C37.8403 26.3431 37.6483 26.6305 37.4063 26.8726C37.1642 27.1147 36.8768 27.3066 36.5604 27.4375C36.2441 27.5684 35.905 27.6357 35.5627 27.6354L35.5628 27.6352Z" fill="white"/>
<path d="M35.5605 24.7181C35.5136 24.7181 35.4673 24.7089 35.424 24.691C35.3807 24.6731 35.3414 24.6468 35.3083 24.6137C35.2752 24.5806 35.2489 24.5413 35.231 24.498C35.2131 24.4547 35.2039 24.4083 35.2039 24.3615V22.3586C35.2053 22.2649 35.2434 22.1756 35.3102 22.1099C35.3769 22.0441 35.4668 22.0073 35.5604 22.0073C35.6541 22.0073 35.744 22.0441 35.8107 22.1099C35.8774 22.1756 35.9156 22.2649 35.917 22.3586V24.3615C35.917 24.4083 35.9078 24.4547 35.8899 24.498C35.872 24.5412 35.8457 24.5806 35.8126 24.6137C35.7795 24.6468 35.7402 24.6731 35.6969 24.691C35.6537 24.7089 35.6073 24.7181 35.5605 24.7181V24.7181Z" fill="white"/>
</g>
<path d="M62.6556 58.2425C61.7887 58.2425 60.9703 58.0472 60.352 57.6924L47.3796 50.2581C46.7366 49.8893 46.3815 49.3903 46.381 48.8552C46.3806 48.32 46.7298 47.8273 47.3655 47.4609L60.2525 40.0266C60.8678 39.6718 61.6838 39.4765 62.5512 39.4765C63.4186 39.4765 64.236 39.6693 64.8543 40.0261L77.8267 47.4604C78.4702 47.8292 78.8253 48.3282 78.8258 48.8634C78.8262 49.3985 78.477 49.8912 77.8413 50.2581L64.9543 57.691C64.3395 58.0472 63.523 58.2425 62.6556 58.2425ZM62.5512 39.7393C61.7299 39.7393 60.9611 39.922 60.3856 40.2537L47.4986 47.688C46.9478 48.0057 46.6453 48.4203 46.6457 48.8552C46.6462 49.29 46.9541 49.7104 47.5122 50.0301L60.4841 57.4648C61.0636 57.797 61.8343 57.9802 62.6556 57.9802C63.4769 57.9802 64.2462 57.7975 64.8212 57.4653L77.7087 50.0311C78.259 49.7138 78.5615 49.2992 78.5611 48.8643C78.5606 48.4295 78.2527 48.0086 77.6941 47.6884L64.7222 40.2537C64.1432 39.922 63.3725 39.7393 62.5512 39.7393V39.7393Z" fill="#E5E5E5"/>
<path d="M77.7879 57.4763L64.8946 64.9139C63.6639 65.6241 61.662 65.6241 60.423 64.9139L47.4447 57.4758C46.8216 57.119 46.5108 56.6499 46.5118 56.1818L46.5016 59.7553C46.5016 60.2234 46.8114 60.692 47.4345 61.0493L60.4128 68.4874C61.6518 69.1976 63.6537 69.1976 64.8845 68.4874L77.7777 61.0493C78.3892 60.6968 78.6952 60.235 78.6966 59.7726L78.7068 56.1996C78.7054 56.662 78.3994 57.1234 77.7879 57.4763Z" fill="#808285"/>
<path d="M77.7961 61.0934L64.9028 68.5315C63.6721 69.2412 61.6702 69.2412 60.4312 68.5315L47.4554 61.0934C46.8322 60.7361 46.5209 60.2675 46.5224 59.7994L46.5122 63.3724C46.5122 63.8405 46.822 64.3096 47.4452 64.6669L60.423 72.1064C61.6619 72.8166 63.6639 72.8166 64.8946 72.1064L77.7859 64.6669C78.3974 64.3139 78.7034 63.8526 78.7048 63.3902L78.715 59.8167C78.7136 60.2791 78.4076 60.741 77.7961 61.0934Z" fill="#231F20"/>
<path d="M62.6585 72.7658C61.7916 72.7658 60.9732 72.5701 60.3545 72.2157L47.3825 64.781C46.737 64.4112 46.382 63.9132 46.3956 63.3732V59.7906H46.6588C46.6588 60.2423 46.9653 60.6608 47.5248 60.9819L60.4972 68.4166C61.0762 68.7483 61.8474 68.9311 62.6687 68.9311C63.49 68.9311 64.2588 68.7483 64.8339 68.4166L77.7213 60.9824C78.2701 60.6656 78.5727 60.2529 78.5742 59.9121H78.8253V63.392C78.8253 63.9223 78.4775 64.416 77.8442 64.781L64.9567 72.2157C64.3419 72.5701 63.5259 72.7658 62.6585 72.7658ZM46.6404 60.5706L46.6321 63.3708C46.6321 63.8109 46.9391 64.2304 47.4995 64.5515L60.4851 71.9935C61.0645 72.3257 61.8367 72.5089 62.659 72.5089C63.4812 72.5089 64.2506 72.3261 64.8266 71.994L77.7271 64.552C78.276 64.2352 78.579 63.8216 78.5805 63.3876L78.5882 60.587C78.3948 60.8401 78.1503 61.0502 77.8704 61.2041L64.9698 68.6461C64.3545 69.001 63.5371 69.1967 62.6692 69.1967C61.8013 69.1967 60.9819 69.0039 60.3627 68.6461L47.3771 61.2041C47.089 61.0473 46.8379 60.8313 46.6404 60.5706V60.5706Z" fill="#E5E5E5"/>
<path d="M62.6543 69.1486C61.7869 69.1486 60.969 68.9557 60.3503 68.5985L47.3754 61.1622C46.7299 60.792 46.3754 60.2944 46.3885 59.7545V56.1733H46.6517C46.6517 56.625 46.9582 57.044 47.5182 57.3646L60.4901 64.7994C61.0695 65.1311 61.8408 65.3143 62.6621 65.3143C63.4834 65.3143 64.2522 65.1315 64.8272 64.7994L77.7147 57.3651C78.263 57.0488 78.5656 56.6356 78.567 56.2948H78.8181V59.7747C78.8181 60.305 78.4704 60.7987 77.8376 61.1642L64.9501 68.5985C64.3352 68.9533 63.5188 69.1486 62.6543 69.1486ZM46.6333 56.9538L46.627 59.754C46.627 60.1937 46.9334 60.6131 47.4939 60.9342L60.478 68.3767C61.0579 68.7089 61.8296 68.8916 62.6519 68.8916C63.4741 68.8916 64.2439 68.7089 64.8195 68.3767L77.72 60.9347C78.2693 60.6179 78.5724 60.2048 78.5734 59.7709L78.5816 56.9702C78.3882 57.2233 78.1435 57.4334 77.8633 57.5869L64.9627 65.0288C64.3474 65.3842 63.5305 65.5794 62.6621 65.5794C61.7937 65.5794 60.9753 65.3866 60.3556 65.0293L47.3705 57.5869C47.0823 57.4302 46.831 57.2144 46.6333 56.9538Z" fill="#E5E5E5"/>
<path d="M77.7879 53.7714L64.8946 61.2105C63.6639 61.9207 61.662 61.9207 60.423 61.2105L47.4447 53.7709C46.8216 53.4142 46.5108 52.9451 46.5118 52.4769L46.5016 56.0518C46.5016 56.52 46.8114 56.9886 47.4345 57.3459L60.4128 64.7825C61.6518 65.4927 63.6537 65.4927 64.8845 64.7825L77.7777 57.3444C78.3892 56.992 78.6952 56.5301 78.6966 56.0682L78.7068 52.4948C78.7054 52.9571 78.3994 53.4185 77.7879 53.7714Z" fill="#006B94"/>
<path d="M62.6469 65.4436C61.7799 65.4436 60.9616 65.2507 60.3428 64.894L47.3709 57.4592C46.7249 57.0889 46.3704 56.589 46.3888 56.0514V52.4076H46.6472C46.6472 52.9201 46.9532 53.339 47.5132 53.6611L60.4856 61.0958C61.0645 61.428 61.8358 61.6107 62.6571 61.6107C63.4784 61.6107 64.2472 61.428 64.8222 61.0963L77.7107 53.6601C78.259 53.3438 78.5621 52.9307 78.563 52.5291H78.8195V56.0697C78.8161 56.6001 78.4669 57.0938 77.8335 57.4592L64.9451 64.8935C64.3302 65.2483 63.5143 65.4436 62.6469 65.4436ZM46.6336 53.2489L46.6273 56.049C46.6273 56.4892 46.9338 56.9081 47.4942 57.2292L60.4783 64.6717C61.0582 65.0039 61.83 65.1871 62.6522 65.1871C63.4745 65.1871 64.2443 65.0039 64.8198 64.6717L77.7204 57.2297C78.2697 56.913 78.5727 56.4998 78.5737 56.0659L78.582 53.2653C78.3886 53.5185 78.1439 53.7288 77.8637 53.8824L64.9631 61.3239C64.3477 61.6792 63.5308 61.8749 62.6624 61.8749C61.794 61.8749 60.9757 61.6792 60.3559 61.3244L47.3709 53.8824C47.0825 53.7257 46.8311 53.5097 46.6336 53.2489Z" fill="#E5E5E5"/>
<path d="M77.7591 47.5744C78.9971 48.2841 79.0039 49.4349 77.7737 50.1446L71.3312 53.8617L64.8886 57.5789C63.6584 58.2886 61.6574 58.2886 60.4204 57.5789L47.448 50.1446C46.2105 49.4349 46.2041 48.2846 47.4344 47.5749L60.3179 40.1421C61.5482 39.4324 63.5496 39.4324 64.7862 40.1421L77.7591 47.5744Z" fill="white"/>
<path d="M75.7218 47.5625C76.7956 48.1781 76.8014 49.1761 75.7344 49.7918L64.557 56.2411C63.4885 56.8568 61.7537 56.8568 60.6798 56.2411L49.4267 49.7918C48.3528 49.1761 48.3475 48.1781 49.4145 47.5625L60.5939 41.1136C61.6624 40.498 63.3967 40.498 64.4705 41.1136L75.7218 47.5625Z" fill="#562B82"/>
<path d="M72.3084 47.8524C73.1035 48.308 73.1078 49.0466 72.3176 49.5022L64.0427 54.2751C63.2525 54.7307 61.9678 54.7307 61.1723 54.2751L52.8429 49.5022C52.0479 49.0466 52.044 48.308 52.8337 47.8524L61.1092 43.0794C61.8989 42.6238 63.184 42.6238 63.9785 43.0794L72.3084 47.8524Z" fill="#7DD1E8"/>
<path d="M77.7879 50.1422L64.8946 57.5799C63.6639 58.29 61.662 58.29 60.423 57.5799L47.4447 50.1422C46.8221 49.7845 46.5108 49.3159 46.5118 48.8477L46.5016 52.4212C46.5016 52.8893 46.8114 53.3584 47.4345 53.7152L60.4128 61.1533C61.6518 61.8635 63.6537 61.8635 64.8845 61.1533L77.7777 53.7157C78.3892 53.3628 78.6952 52.9014 78.6966 52.439L78.7068 48.8656C78.7054 49.3279 78.3994 49.7893 77.7879 50.1422Z" fill="white"/>
<path d="M62.6451 61.8142C61.7777 61.8142 60.9598 61.6214 60.341 61.2646L47.3686 53.8299C46.7231 53.4601 46.3686 52.962 46.389 52.4221V48.7633H46.6449C46.6449 49.2907 46.9514 49.7097 47.5114 50.0303L60.4833 57.465C61.0627 57.7972 61.8335 57.9804 62.6548 57.9804C63.4761 57.9804 64.2449 57.7977 64.8199 57.466L77.7079 50.0308C78.2562 49.7145 78.5588 49.3013 78.5602 48.8848H78.8186V52.4404C78.8133 52.9707 78.4636 53.4644 77.8308 53.8299L64.9433 61.2641C64.3284 61.619 63.512 61.8142 62.6451 61.8142ZM46.6338 49.6195L46.6274 52.4197C46.6274 52.8598 46.9339 53.2788 47.4944 53.5999L60.4785 61.0424C61.0584 61.3745 61.8291 61.5577 62.6548 61.5577C63.4804 61.5577 64.2468 61.3745 64.8224 61.0424L77.7205 53.6004C78.2698 53.2836 78.5729 52.8704 78.5738 52.4365L78.5821 49.6359C78.3887 49.889 78.144 50.0991 77.8638 50.2525L64.9632 57.695C64.3479 58.0499 63.531 58.2456 62.6626 58.2456C61.7942 58.2456 60.9758 58.0499 60.3561 57.695L47.371 50.2525C47.0827 50.096 46.8313 49.8802 46.6338 49.6195V49.6195Z" fill="#E5E5E5"/>
<path d="M49.1861 51.7299C48.9891 51.6139 48.811 51.6045 48.6809 51.6791L48.0116 52.0765C48.1379 52 48.3191 52.0107 48.5167 52.1266C48.9082 52.3567 49.2233 52.9139 49.222 53.3721C49.222 53.5996 49.1425 53.76 49.0156 53.8353L49.6855 53.4385C49.8118 53.3633 49.8914 53.2028 49.892 52.9747C49.8926 52.5152 49.5775 51.9599 49.1861 51.7299Z" fill="#4DC5DA"/>
<path d="M48.5164 52.1297C48.9078 52.3597 49.2229 52.9169 49.2217 53.3751C49.2204 53.8333 48.9028 54.0182 48.5119 53.7882C48.1211 53.5581 47.8047 52.9997 47.806 52.5415C47.8073 52.0833 48.1255 51.8996 48.5164 52.1297Z" fill="#7DD1E8"/>
<ellipse cx="51.0368" cy="57.5988" rx="0.830964" ry="1.4394" transform="rotate(155.533 51.0368 57.5988)" fill="white"/>
<ellipse cx="51.0395" cy="57.5986" rx="0.609374" ry="1.05556" transform="rotate(155.533 51.0395 57.5986)" fill="black"/>
<path d="M76.6387 51.9062C76.3189 52.2309 76.1582 52.853 76.2784 53.2969C76.3987 53.7408 76.7546 53.8376 77.0738 53.513C77.393 53.1884 77.5546 52.5648 77.4344 52.1209C77.3141 51.677 76.9579 51.5817 76.6387 51.9062Z" fill="#7DD1E8"/>
<rect x="0.0306103" y="0.0530185" width="4.23679" height="1.00618" transform="matrix(0.866007 0.500033 3.77386e-05 1 51.1634 53.6367)" fill="black" stroke="#C4C4C4" stroke-width="0.0706898"/>
<rect x="0.0612205" y="0.106037" width="3.79333" height="1.54492" transform="matrix(0.866007 0.500033 3.77386e-05 1 56.8036 56.4198)" fill="#830000" stroke="#AE4141" stroke-width="0.14138"/>
<rect width="5.62102" height="0.843152" transform="matrix(0.866007 -0.500033 -3.7683e-05 1 65.9975 58.3059)" fill="black"/>
<rect width="0.515967" height="1.03193" transform="matrix(0.866007 -0.500033 -3.77206e-05 1 73.2252 54.4328)" fill="black"/>
<rect width="0.515967" height="1.03193" transform="matrix(0.866007 -0.500033 -3.77206e-05 1 73.9661 54.0028)" fill="black"/>
<circle r="0.171989" transform="matrix(0.866007 -0.500033 -3.77206e-05 1 73.8208 53.5041)" fill="black"/>
<path d="M75.924 51.7053C76.0849 51.5417 76.2551 51.4863 76.4005 51.5249L77.1527 51.7363C77.0104 51.6949 76.8375 51.7523 76.676 51.9161C76.3562 52.2408 76.1955 52.8629 76.3157 53.3068C76.3748 53.5274 76.4936 53.6623 76.6362 53.7022L75.8836 53.4916C75.7417 53.4515 75.6229 53.3166 75.563 53.0955C75.443 52.6503 75.6042 52.03 75.924 51.7053Z" fill="#4DC5DA"/>
<path d="M102.769 67.9963C103.368 68.3973 103.854 68.9444 104.181 69.5862C104.59 70.3917 104.765 71.3713 104.702 72.4961C104.7 72.5289 104.705 72.5617 104.716 72.5925C104.728 72.6232 104.745 72.6513 104.768 72.6747C104.791 72.6981 104.819 72.7165 104.849 72.7286C104.88 72.7407 104.913 72.7463 104.946 72.745C105.015 72.7436 105.081 72.7164 105.131 72.6689C105.181 72.6214 105.212 72.5569 105.217 72.4882C105.374 69.7174 104.133 68.2795 103.064 67.5606C102.35 67.0833 101.535 66.7759 100.682 66.6618C100.613 66.6566 100.544 66.6772 100.49 66.7196C100.435 66.7619 100.398 66.823 100.386 66.8909C100.38 66.9232 100.381 66.9564 100.389 66.9882C100.397 67.02 100.411 67.0498 100.431 67.0757C100.451 67.1016 100.476 67.123 100.505 67.1385C100.534 67.1539 100.566 67.1632 100.599 67.1657C101.377 67.2765 102.118 67.5603 102.769 67.9963V67.9963Z" fill="#9C9C9B"/>
<path d="M101.729 72.5778C101.725 72.6104 101.727 72.6434 101.737 72.6748C101.746 72.7062 101.762 72.7352 101.784 72.76C101.805 72.7847 101.831 72.8047 101.861 72.8187C101.891 72.8326 101.923 72.8402 101.956 72.8409C102.025 72.843 102.092 72.8193 102.145 72.7745C102.198 72.7296 102.232 72.6669 102.241 72.5986C102.273 72.2013 102.221 71.8024 102.088 71.4278C101.884 70.8683 101.393 70.161 100.211 69.9726C100.174 69.967 100.136 69.9691 100.1 69.9786C100.064 69.9882 100.031 70.005 100.001 70.0281C99.9512 70.0667 99.9158 70.1213 99.9011 70.1826C99.893 70.2145 99.8916 70.2477 99.8971 70.28C99.9025 70.3124 99.9147 70.3432 99.9329 70.3705C99.951 70.3978 99.9747 70.421 100.002 70.4385C100.03 70.4561 100.061 70.4677 100.094 70.4725C101.906 70.76 101.737 72.503 101.729 72.5778Z" fill="#9C9C9B"/>
<path d="M103.407 72.677C103.476 72.6761 103.542 72.6494 103.593 72.6023C103.643 72.5551 103.675 72.4909 103.68 72.4222C103.802 70.5566 102.942 69.5587 102.2 69.05C101.704 68.7129 101.139 68.489 100.546 68.3941C100.477 68.3867 100.408 68.4051 100.352 68.4458C100.296 68.4865 100.258 68.5465 100.244 68.614C100.237 68.6462 100.236 68.6794 100.243 68.7115C100.25 68.7436 100.263 68.7739 100.282 68.8005C100.301 68.8271 100.326 68.8494 100.354 68.8659C100.382 68.8825 100.414 68.8929 100.446 68.8966C100.969 68.9848 101.465 69.1847 101.901 69.4828C102.827 70.123 103.252 71.1145 103.166 72.4253C103.164 72.4581 103.168 72.491 103.179 72.5219C103.19 72.5528 103.208 72.5811 103.23 72.6048C103.253 72.6285 103.28 72.6471 103.311 72.6596C103.341 72.672 103.374 72.678 103.407 72.677V72.677Z" fill="#9C9C9B"/>
<path d="M95.1991 72.3212C95.1991 72.096 95.3817 71.9134 95.607 71.9134H99.6851C99.9103 71.9134 100.093 72.096 100.093 72.3212V75.6857C100.093 75.9109 99.9103 76.0935 99.6851 76.0935H95.607C95.3817 76.0935 95.1991 75.9109 95.1991 75.6857V72.3212Z" fill="#808285"/>
<path d="M92.9682 73.9675C92.9682 73.6633 92.7216 73.4167 92.4174 73.4167H50.973C50.6688 73.4167 50.4222 73.6633 50.4222 73.9675V73.9675C50.4222 74.2716 50.6688 74.5182 50.973 74.5182H92.4174C92.7216 74.5182 92.9682 74.2716 92.9682 73.9675V73.9675Z" fill="#414042"/>
<path d="M99.4111 72.3988H96.0507C95.9347 72.3988 95.8407 72.4929 95.8407 72.6089V75.3422C95.8407 75.4582 95.9347 75.5523 96.0507 75.5523H99.4111C99.5271 75.5523 99.6212 75.4582 99.6212 75.3422V72.6089C99.6212 72.4929 99.5271 72.3988 99.4111 72.3988Z" fill="#414042"/>
<path d="M95.2392 73.1417H92.4165V74.794H95.2392V73.1417Z" fill="#4D4D4F"/>
<path d="M50.973 61.094C50.6688 61.094 50.4222 61.3406 50.4222 61.6448V73.968C50.4222 74.2722 50.6688 74.5187 50.973 74.5187V74.5187C51.2772 74.5187 51.5237 74.2722 51.5237 73.968V61.6448C51.5237 61.3406 51.2772 61.094 50.973 61.094V61.094Z" fill="#414042"/>
<path d="M50.1502 61.5924C49.821 60.8688 49.8927 60.1282 50.3104 59.9381C50.7281 59.748 51.3337 60.1805 51.6629 60.9041C51.9922 61.6276 51.9205 62.3683 51.5027 62.5584C51.085 62.7484 50.4795 62.316 50.1502 61.5924Z" fill="white"/>
<path d="M50.351 61.5003C50.1096 60.9697 50.1622 60.4265 50.4685 60.2871C50.7748 60.1477 51.2189 60.4649 51.4603 60.9955C51.7018 61.5261 51.6492 62.0693 51.3429 62.2087C51.0365 62.348 50.5925 62.0309 50.351 61.5003Z" fill="black"/>
</g>
<defs>
<filter id="filter0_d_330_294" x="13.8608" y="20.8887" width="109.183" height="60.2679" filterUnits="userSpaceOnUse" color-interpolation-filters="sRGB">
<feFlood flood-opacity="0" result="BackgroundImageFix"/>
<feColorMatrix in="SourceAlpha" type="matrix" values="0 0 0 0 0 0 0 0 0 0 0 0 0 0 0 0 0 0 127 0" result="hardAlpha"/>
<feOffset dy="0.0942531"/>
<feGaussianBlur stdDeviation="0.0471266"/>
<feComposite in2="hardAlpha" operator="out"/>
<feColorMatrix type="matrix" values="0 0 0 0 0 0 0 0 0 0 0 0 0 0 0 0 0 0 0.25 0"/>
<feBlend mode="normal" in2="BackgroundImageFix" result="effect1_dropShadow_330_294"/>
<feBlend mode="normal" in="SourceGraphic" in2="effect1_dropShadow_330_294" result="shape"/>
</filter>
<clipPath id="clip0_330_294">
<rect width="8.26135" height="8.26135" fill="white" transform="translate(31.4287 20.8887)"/>
</clipPath>
</defs>
</svg>
