<svg id="dark" xmlns="http://www.w3.org/2000/svg" viewBox="0 0 641.11 97.41"><defs><style>.cls-1{fill:#ffffff;}.cls-2{fill:#70c4ec;}.cls-3{fill:#116295;}.cls-4{fill:#1b75ba;}.cls-5{fill:#003c77;}.cls-6{fill:#c4daf1;}.cls-7{fill:#2599df;}</style></defs><path class="cls-1" d="M76.79,67.29H66L57.69,46.17,50.59,25l-7,21.4L35.42,67.29H24.67L0,.1H14.21L30.05,48.57,46.36.1h8.26l16.8,48.47L86.78.1H101Z"/><path class="cls-1" d="M158.88,67.29H108.57V.1h50.31V12.38H121.15V27.84h36.38V39.65H121.15V54.81h37.73Z"/><path class="cls-1" d="M216.38,54.62H181.25l-5.76,12.67H161.76L191.9.1h13.82l30.15,67.19H222ZM198.81,14.21l-12.48,28.6h25Z"/><path class="cls-1" d="M248,11.62H226.65V.1H282V11.62H260.64V67.29H248Z"/><path class="cls-1" d="M335.42,67.39V40.22h-33V67.39H289.73V.19H302.4V28.51h33V.19H348v67.2Z"/><path class="cls-1" d="M410,67.29h-50.3V.1H410V12.38H372.28V27.84h36.39V39.65H372.28V54.81H410Z"/><path class="cls-1" d="M479.42,67.29H464.34L444.76,44.83H432.57V67.29H419.9V0c10.66,0,21.31.1,32,.1,15.83.09,24.19,10.65,24.19,22.27,0,9.21-4.23,18.52-17,21.11l20.36,23ZM432.57,11.9V33.41h19.3c8.06,0,11.51-5.38,11.51-10.76S459.83,11.9,451.87,11.9Z"/><g id="icon"><polygon class="cls-2" points="528.64 24.35 514.58 48.7 542.7 48.7 528.64 24.35"/><path class="cls-2" d="M514.58,48.7l14.06-24.35h0L542.7,48.7Zm14.06-24.35L514.58,48.7H542.7L528.64,24.35Z"/><polygon class="cls-2" points="542.7 48.7 528.64 73.06 556.75 73.06 542.7 48.7"/><path class="cls-2" d="M528.64,73.06,542.7,48.7h0l14.06,24.36ZM542.7,48.7,528.64,73.06h28.11l-14-24.36Z"/><polygon class="cls-3" points="627.05 0 612.99 24.35 641.11 24.35 627.05 0"/><path class="cls-3" d="M613,24.35,627.05,0h0l14.06,24.35ZM627.05,0,613,24.35h28.12L627.05,0Z"/><polygon class="cls-4" points="556.75 73.06 542.7 97.41 570.81 97.41 556.75 73.06"/><path class="cls-4" d="M542.7,97.41l14-24.35h0l14,24.35Zm14.06-24.35L542.7,97.41h28.11L556.75,73.06Z"/><polygon class="cls-2" points="584.87 24.35 570.81 48.7 598.93 48.7 584.87 24.35"/><path class="cls-2" d="M570.81,48.7l14.06-24.35h0L598.93,48.7Zm14.06-24.35L570.81,48.7h28.12L584.87,24.35Z"/><polygon class="cls-4" points="514.58 0 500.52 24.35 528.64 24.35 514.58 0"/><path class="cls-4" d="M500.52,24.35,514.58,0h0l14.06,24.35ZM514.58,0,500.52,24.35h28.12L514.58,0Z"/><polygon class="cls-5" points="514.58 48.7 500.52 73.06 528.64 73.06 514.58 48.7"/><path class="cls-5" d="M500.52,73.06,514.58,48.7h0l14.06,24.36ZM514.58,48.7,500.52,73.06h28.12L514.58,48.7Z"/><polygon class="cls-3" points="542.7 0 528.64 24.35 556.75 24.35 542.7 0"/><path class="cls-3" d="M528.64,24.35,542.7,0h0l14.06,24.35ZM542.7,0,528.64,24.35h28.11L542.7,0Z"/><polygon class="cls-4" points="570.81 0 556.75 24.35 584.87 24.35 570.81 0"/><path class="cls-4" d="M556.75,24.35,570.81,0h0l14.06,24.35ZM570.81,0l-14,24.35h28.11L570.81,0Z"/><polygon class="cls-3" points="514.58 97.41 528.64 73.06 500.52 73.06 514.58 97.41"/><path class="cls-3" d="M514.58,97.41h0L500.52,73.06h28.12Zm14.06-24.35H500.52l14.06,24.35Z"/><polygon class="cls-3" points="612.99 24.35 627.05 0 598.93 0 612.99 24.35"/><path class="cls-3" d="M613,24.35h0L598.93,0h28.12ZM627.05,0H598.93L613,24.35Z"/><polygon class="cls-3" points="556.75 24.35 570.81 0 542.7 0 556.75 24.35"/><path class="cls-3" d="M556.75,24.35h0L542.7,0h28.11ZM570.81,0H542.7l14.06,24.35Z"/><polygon class="cls-5" points="542.7 48.7 556.75 24.35 528.64 24.35 542.7 48.7"/><path class="cls-5" d="M542.7,48.7h0L528.64,24.35h28.11Zm14-24.35H528.64L542.7,48.7Z"/><polygon class="cls-2" points="570.81 48.7 584.87 24.35 556.75 24.35 570.81 48.7"/><path class="cls-2" d="M570.81,48.7h0L556.75,24.35h28.12Zm14.06-24.35H556.75L570.81,48.7Z"/><polygon class="cls-6" points="528.64 73.06 542.7 48.7 514.58 48.7 528.64 73.06"/><path class="cls-6" d="M528.64,73.06h0L514.58,48.7H542.7ZM542.7,48.7H514.58l14.06,24.36Z"/><polygon class="cls-6" points="584.87 73.06 598.93 48.7 570.81 48.7 584.87 73.06"/><path class="cls-6" d="M584.87,73.06h0L570.81,48.7h28.12ZM598.93,48.7H570.81l14.06,24.36Z"/><polygon class="cls-7" points="542.7 97.41 556.75 73.06 528.64 73.06 542.7 97.41"/><path class="cls-7" d="M542.7,97.41h0L528.64,73.06h28.11Zm14-24.35H528.64L542.7,97.41Z"/><polygon class="cls-5" points="627.05 48.7 641.11 24.35 612.99 24.35 627.05 48.7"/><path class="cls-5" d="M627.05,48.7h0L613,24.35h28.12Zm14.06-24.35H613L627.05,48.7Z"/><polygon class="cls-7" points="598.93 48.7 612.99 24.35 584.87 24.35 598.93 48.7"/><path class="cls-7" d="M598.93,48.7h0L584.87,24.35H613ZM613,24.35H584.87L598.93,48.7Z"/><polygon class="cls-5" points="500.52 24.35 514.58 0 486.46 0 500.52 24.35"/><path class="cls-5" d="M500.52,24.35h0L486.46,0h28.12ZM514.58,0H486.46l14.06,24.35Z"/><polygon class="cls-7" points="514.58 48.7 528.64 24.35 500.52 24.35 514.58 48.7"/><path class="cls-7" d="M514.58,48.7h0L500.52,24.35h28.12Zm14.06-24.35H500.52L514.58,48.7Z"/><polygon class="cls-4" points="500.52 73.06 486.46 97.41 514.58 97.41 500.52 73.06"/><path class="cls-4" d="M486.46,97.41l14.06-24.35h0l14.06,24.35Zm14.06-24.35L486.46,97.41h28.12L500.52,73.06Z"/><polygon class="cls-4" points="598.93 0 584.87 24.35 612.99 24.35 598.93 0"/><path class="cls-4" d="M584.87,24.35,598.93,0h0L613,24.35ZM598.93,0,584.87,24.35H613L598.93,0Z"/></g></svg>