<svg width="2494" height="377" viewBox="0 0 2494 377" fill="none" xmlns="http://www.w3.org/2000/svg">
<g clip-path="url(#clip0_174_2718)">
<path d="M2004.6 188.893L2058.91 282.946H1950.3L2004.6 188.893Z" fill="#1F4D93"/>
<path d="M2004.6 188.894L1950.3 94.8413L2058.91 94.8413L2004.6 188.894Z" fill="#153462"/>
<path d="M2004.6 188.894L2113.21 188.894L2058.91 282.947L2004.6 188.894Z" fill="#22549F"/>
<path d="M2004.6 188.894L2058.9 94.8412L2113.21 188.894L2004.6 188.894Z" fill="#245AAB"/>
<path d="M2330.65 188.893L2276.35 94.8394L2384.96 94.8394L2330.65 188.893Z" fill="#173A6E"/>
<path d="M2330.65 188.894L2222.05 188.894L2276.35 94.8406L2330.65 188.894Z" fill="#1D4786"/>
<path d="M2330.65 188.894L2276.35 282.947L2222.05 188.894L2330.65 188.894Z" fill="#22549F"/>
<path d="M2493.68 94.8404H2385.08L2439.38 0.787231L2493.68 94.8404Z" fill="#2F74DC"/>
<path d="M2493.68 94.8408L2439.38 188.894L2385.08 94.8408L2493.68 94.8408Z" fill="#2761B7"/>
<path d="M2167.63 94.8408L2113.33 0.787686L2221.93 0.787686L2167.63 94.8408Z" fill="#317AE8"/>
<path d="M2167.63 94.8406L2276.23 94.8406L2221.93 188.894L2167.63 94.8406Z" fill="#173A6E"/>
<path d="M2167.63 94.841L2059.03 94.841L2113.33 0.787889L2167.63 94.841Z" fill="#2F74DC"/>
<path d="M2167.63 94.8406L2221.93 0.787484L2276.23 94.8406L2167.63 94.8406Z" fill="#102749"/>
<path d="M2167.63 94.8398L2113.33 188.893L2059.03 94.8398L2167.63 94.8398Z" fill="#2761B7"/>
<path d="M2004.6 0.787231L2058.91 94.8404H1950.3L2004.6 0.787231Z" fill="#1A407A"/>
<path d="M2004.6 0.787109L1950.3 94.8402L1896 0.787125L2004.6 0.787109Z" fill="#1F4D93"/>
<path d="M2330.65 0.787231L2384.96 94.8404H2276.35L2330.65 0.787231Z" fill="#102749"/>
<path d="M2330.65 0.787236L2439.26 0.787231L2384.96 94.8404L2330.65 0.787236Z" fill="#317AE8"/>
<path d="M2167.63 282.947L2221.93 377H2113.33L2167.63 282.947Z" fill="#1D4786"/>
<path d="M2167.63 282.947L2059.03 282.947L2113.33 188.894L2167.63 282.947Z" fill="#102749"/>
<path d="M2167.63 282.947L2113.33 377.001L2059.03 282.947L2167.63 282.947Z" fill="#173A6E"/>
<path d="M2004.6 377L1950.3 282.947H2058.91L2004.6 377Z" fill="#1D4786"/>
<path d="M2004.6 377H1896L1950.3 282.947L2004.6 377Z" fill="#1A407A"/>
<path d="M254.902 1L226.157 91.7772L207.175 149.52L158.636 1H129.891L81.8939 150.326L62.9119 91.7772L33.8965 1H0L64.8101 189H98.9777L120.129 124.811L144.535 51.2229L168.94 124.811L189.82 189H224.802L288.798 1H254.902Z" fill="black"/>
<path d="M347.316 160.263V107.623H450.904V79.6914H347.316V29.4686H455.514V1H315.86V189H457.141V160.263H347.316Z" fill="black"/>
<path d="M644.821 189H679.26L594.383 1H559.131L473.983 189H508.151L525.506 150.057H627.466L644.821 189ZM576.486 32.6914L615.264 121.589H537.708L576.486 32.6914Z" fill="black"/>
<path d="M823.526 1H668.687V30.0057H730.243V189H761.97V30.0057H823.526V1Z" fill="black"/>
<path d="M982.289 1V78.8857H883.311V1H851.584V189H883.311V108.16H982.289V189H1014.02V1H982.289Z" fill="black"/>
<path d="M1092.24 160.263V107.623H1195.83V79.6914H1092.24V29.4686H1200.44V1H1060.79V189H1202.07V160.263H1092.24Z" fill="black"/>
<path d="M1365.62 189H1405.21L1347.45 122.931C1377.82 116.486 1396.53 94.1943 1396.53 63.04C1396.53 25.7086 1369.95 1 1329.28 1H1240.33V189H1272.06V124.811H1310.57L1365.62 189ZM1365.07 63.04C1365.07 83.72 1351.51 96.0743 1329.01 96.0743H1271.79V30.0057H1329.01C1351.51 30.0057 1365.07 42.6286 1365.07 63.04Z" fill="black"/>
<path d="M1522.54 93.3886L1587.08 1H1549.93L1523.9 38.8686L1501.93 71.3657L1480.24 38.8686L1454.21 1H1416.79L1481.05 93.3886L1414.07 189H1451.77L1479.97 148.446L1501.66 116.486L1523.09 148.446L1551.29 189H1589.52L1522.54 93.3886Z" fill="black"/>
<path d="M1787.53 1L1715.4 92.0457L1643.26 1H1614.52V189H1646.25V54.4457L1711.87 136.897H1718.65L1784.54 54.1771V189H1816V1H1787.53Z" fill="black"/>
</g>
<defs>
<clipPath id="clip0_174_2718">
<rect width="2494" height="377.001" fill="white"/>
</clipPath>
</defs>
</svg>
