<svg width="2494" height="377" viewBox="0 0 2494 377" fill="none" xmlns="http://www.w3.org/2000/svg">
<g clip-path="url(#clip0_174_2691)">
<path d="M2004.6 187.893L2058.91 281.946H1950.3L2004.6 187.893Z" fill="#1F4D93"/>
<path d="M2004.6 187.894L1950.3 93.8412L2058.91 93.8412L2004.6 187.894Z" fill="#153462"/>
<path d="M2004.6 187.894L2113.21 187.894L2058.91 281.947L2004.6 187.894Z" fill="#22549F"/>
<path d="M2004.6 187.894L2058.9 93.8412L2113.21 187.894L2004.6 187.894Z" fill="#245AAB"/>
<path d="M2330.65 187.893L2276.35 93.8394L2384.96 93.8394L2330.65 187.893Z" fill="#173A6E"/>
<path d="M2330.65 187.894L2222.05 187.894L2276.35 93.8406L2330.65 187.894Z" fill="#1D4786"/>
<path d="M2330.65 187.894L2276.35 281.947L2222.05 187.894L2330.65 187.894Z" fill="#22549F"/>
<path d="M2493.68 93.8404H2385.08L2439.38 -0.212769L2493.68 93.8404Z" fill="#2F74DC"/>
<path d="M2493.68 93.8408L2439.38 187.894L2385.08 93.8408L2493.68 93.8408Z" fill="#2761B7"/>
<path d="M2167.63 93.8408L2113.33 -0.212314L2221.93 -0.212314L2167.63 93.8408Z" fill="#317AE8"/>
<path d="M2167.63 93.8406L2276.23 93.8406L2221.93 187.894L2167.63 93.8406Z" fill="#173A6E"/>
<path d="M2167.63 93.841L2059.03 93.841L2113.33 -0.212111L2167.63 93.841Z" fill="#2F74DC"/>
<path d="M2167.63 93.8406L2221.93 -0.212516L2276.23 93.8406L2167.63 93.8406Z" fill="#102749"/>
<path d="M2167.63 93.8399L2113.33 187.893L2059.03 93.8399L2167.63 93.8399Z" fill="#2761B7"/>
<path d="M2004.6 -0.212769L2058.91 93.8404H1950.3L2004.6 -0.212769Z" fill="#1A407A"/>
<path d="M2004.6 -0.21283L1950.3 93.8403L1896 -0.212814L2004.6 -0.21283Z" fill="#1F4D93"/>
<path d="M2330.65 -0.212769L2384.96 93.8404H2276.35L2330.65 -0.212769Z" fill="#102749"/>
<path d="M2330.65 -0.212764L2439.26 -0.212769L2384.96 93.8404L2330.65 -0.212764Z" fill="#317AE8"/>
<path d="M2167.63 281.947L2221.93 376H2113.33L2167.63 281.947Z" fill="#1D4786"/>
<path d="M2167.63 281.947L2059.03 281.947L2113.33 187.894L2167.63 281.947Z" fill="#102749"/>
<path d="M2167.63 281.947L2113.33 376.001L2059.03 281.947L2167.63 281.947Z" fill="#173A6E"/>
<path d="M2004.6 376L1950.3 281.947H2058.91L2004.6 376Z" fill="#1D4786"/>
<path d="M2004.6 376H1896L1950.3 281.947L2004.6 376Z" fill="#1A407A"/>
<path d="M254.902 0.212891L226.157 90.99L207.175 148.733L158.636 0.212891H129.891L81.8939 149.539L62.9119 90.99L33.8965 0.212891H0L64.8101 188.213H98.9777L120.129 124.024L144.535 50.4358L168.94 124.024L189.82 188.213H224.802L288.798 0.212891H254.902Z" fill="white"/>
<path d="M347.316 159.476V106.836H450.904V78.9043H347.316V28.6815H455.514V0.212891H315.86V188.213H457.141V159.476H347.316Z" fill="white"/>
<path d="M644.821 188.213H679.26L594.383 0.212891H559.131L473.983 188.213H508.151L525.506 149.27H627.466L644.821 188.213ZM576.486 31.9043L615.264 120.801H537.708L576.486 31.9043Z" fill="white"/>
<path d="M823.526 0.212891H668.687V29.2186H730.243V188.213H761.97V29.2186H823.526V0.212891Z" fill="white"/>
<path d="M982.289 0.212891V78.0986H883.311V0.212891H851.584V188.213H883.311V107.373H982.289V188.213H1014.02V0.212891H982.289Z" fill="white"/>
<path d="M1092.24 159.476V106.836H1195.83V78.9043H1092.24V28.6815H1200.44V0.212891H1060.79V188.213H1202.07V159.476H1092.24Z" fill="white"/>
<path d="M1365.62 188.213H1405.21L1347.45 122.144C1377.82 115.699 1396.53 93.4072 1396.53 62.2529C1396.53 24.9215 1369.95 0.212891 1329.28 0.212891H1240.33V188.213H1272.06V124.024H1310.57L1365.62 188.213ZM1365.07 62.2529C1365.07 82.9329 1351.51 95.2872 1329.01 95.2872H1271.79V29.2186H1329.01C1351.51 29.2186 1365.07 41.8415 1365.07 62.2529Z" fill="white"/>
<path d="M1522.54 92.6015L1587.08 0.212891H1549.93L1523.9 38.0815L1501.93 70.5786L1480.24 38.0815L1454.21 0.212891H1416.79L1481.05 92.6015L1414.07 188.213H1451.77L1479.97 147.659L1501.66 115.699L1523.09 147.659L1551.29 188.213H1589.52L1522.54 92.6015Z" fill="white"/>
<path d="M1787.53 0.212891L1715.4 91.2586L1643.26 0.212891H1614.52V188.213H1646.25V53.6586L1711.87 136.11H1718.65L1784.54 53.39V188.213H1816V0.212891H1787.53Z" fill="white"/>
</g>
<defs>
<clipPath id="clip0_174_2691">
<rect width="2494" height="377" fill="white"/>
</clipPath>
</defs>
</svg>
