<svg width="365" height="365" viewBox="0 0 365 365" fill="none" xmlns="http://www.w3.org/2000/svg">
<g filter="url(#filter0_d_26_128)">
<g filter="url(#filter1_i_26_128)">
<rect x="56" y="13" width="252.492" height="251.656" rx="19.8963" fill="white"/>
</g>
<rect x="63.8473" y="21.672" width="235.985" height="233.476" rx="12.7461" fill="black" stroke="black" stroke-width="0.621761"/>
<circle cx="118.672" cy="219.512" r="5.54158" stroke="#FE0808" stroke-opacity="0.5" stroke-width="0.621761"/>
<circle cx="182.227" cy="219.512" r="5.54158" stroke="#FE0808" stroke-opacity="0.5" stroke-width="0.621761"/>
<circle cx="245.75" cy="219.512" r="5.54158" stroke="#FE0808" stroke-opacity="0.5" stroke-width="0.621761"/>
<rect x="81.9739" y="51.5384" width="198.963" height="149.223" fill="#F4F7FF"/>
<g filter="url(#filter2_d_26_128)">
<rect x="91.2854" y="95.0598" width="180.311" height="18.6528" fill="white"/>
</g>
<path d="M148.293 108.228C147.769 108.228 147.285 108.142 146.841 107.97C146.396 107.791 146.012 107.542 145.687 107.224C145.362 106.905 145.106 106.531 144.921 106.099C144.742 105.668 144.652 105.197 144.652 104.687C144.652 104.176 144.742 103.705 144.921 103.274C145.106 102.843 145.362 102.468 145.687 102.15C146.018 101.832 146.406 101.586 146.851 101.414C147.295 101.235 147.779 101.145 148.303 101.145C148.807 101.145 149.281 101.231 149.726 101.404C150.17 101.57 150.545 101.822 150.85 102.16L150.382 102.628C150.097 102.336 149.782 102.127 149.437 102.001C149.092 101.868 148.721 101.802 148.323 101.802C147.905 101.802 147.517 101.875 147.159 102.021C146.801 102.16 146.489 102.362 146.224 102.628C145.959 102.886 145.75 103.191 145.597 103.543C145.451 103.888 145.378 104.269 145.378 104.687C145.378 105.105 145.451 105.489 145.597 105.841C145.75 106.186 145.959 106.491 146.224 106.756C146.489 107.015 146.801 107.217 147.159 107.363C147.517 107.502 147.905 107.572 148.323 107.572C148.721 107.572 149.092 107.505 149.437 107.373C149.782 107.24 150.097 107.028 150.382 106.736L150.85 107.204C150.545 107.542 150.17 107.797 149.726 107.97C149.281 108.142 148.804 108.228 148.293 108.228ZM154.166 108.218C153.662 108.218 153.207 108.106 152.803 107.88C152.405 107.648 152.09 107.333 151.858 106.935C151.626 106.531 151.509 106.07 151.509 105.552C151.509 105.028 151.626 104.567 151.858 104.169C152.09 103.772 152.405 103.46 152.803 103.234C153.201 103.009 153.655 102.896 154.166 102.896C154.683 102.896 155.141 103.009 155.538 103.234C155.943 103.46 156.258 103.772 156.484 104.169C156.716 104.567 156.832 105.028 156.832 105.552C156.832 106.07 156.716 106.531 156.484 106.935C156.258 107.333 155.943 107.648 155.538 107.88C155.134 108.106 154.676 108.218 154.166 108.218ZM154.166 107.592C154.544 107.592 154.879 107.509 155.17 107.343C155.462 107.171 155.691 106.932 155.857 106.627C156.029 106.315 156.115 105.957 156.115 105.552C156.115 105.141 156.029 104.783 155.857 104.478C155.691 104.173 155.462 103.937 155.17 103.772C154.879 103.599 154.547 103.513 154.176 103.513C153.804 103.513 153.473 103.599 153.181 103.772C152.889 103.937 152.657 104.173 152.484 104.478C152.312 104.783 152.226 105.141 152.226 105.552C152.226 105.957 152.312 106.315 152.484 106.627C152.657 106.932 152.889 107.171 153.181 107.343C153.473 107.509 153.801 107.592 154.166 107.592ZM160.94 102.896C161.364 102.896 161.736 102.979 162.054 103.145C162.379 103.304 162.631 103.549 162.81 103.881C162.996 104.213 163.089 104.63 163.089 105.134V108.169H162.382V105.204C162.382 104.654 162.243 104.239 161.965 103.961C161.693 103.675 161.308 103.533 160.811 103.533C160.439 103.533 160.114 103.609 159.836 103.762C159.564 103.908 159.351 104.123 159.199 104.408C159.053 104.687 158.98 105.025 158.98 105.423V108.169H158.274V102.946H158.95V104.378L158.841 104.11C159.007 103.732 159.272 103.437 159.637 103.224C160.001 103.006 160.436 102.896 160.94 102.896ZM165.116 108.169V102.289C165.116 101.825 165.252 101.45 165.524 101.165C165.796 100.88 166.187 100.737 166.698 100.737C166.897 100.737 167.089 100.764 167.275 100.817C167.46 100.87 167.616 100.953 167.742 101.066L167.503 101.593C167.404 101.507 167.288 101.444 167.155 101.404C167.023 101.357 166.88 101.334 166.728 101.334C166.429 101.334 166.2 101.417 166.041 101.583C165.882 101.749 165.802 101.994 165.802 102.319V103.115L165.822 103.443V108.169H165.116ZM164.181 103.533V102.946H167.414V103.533H164.181ZM168.369 108.169V102.946H169.075V108.169H168.369ZM168.727 101.792C168.581 101.792 168.459 101.742 168.359 101.643C168.26 101.543 168.21 101.424 168.21 101.285C168.21 101.145 168.26 101.029 168.359 100.936C168.459 100.837 168.581 100.787 168.727 100.787C168.873 100.787 168.996 100.834 169.095 100.926C169.195 101.019 169.244 101.135 169.244 101.275C169.244 101.42 169.195 101.543 169.095 101.643C169.002 101.742 168.88 101.792 168.727 101.792ZM173.287 110.148C172.81 110.148 172.352 110.079 171.914 109.939C171.477 109.8 171.122 109.601 170.85 109.343L171.208 108.805C171.453 109.024 171.755 109.197 172.113 109.323C172.478 109.455 172.863 109.522 173.267 109.522C173.93 109.522 174.418 109.366 174.73 109.054C175.041 108.749 175.197 108.271 175.197 107.621V106.318L175.297 105.423L175.227 104.528V102.946H175.903V107.532C175.903 108.434 175.681 109.094 175.237 109.512C174.799 109.936 174.149 110.148 173.287 110.148ZM173.158 107.97C172.66 107.97 172.213 107.864 171.815 107.651C171.417 107.432 171.102 107.131 170.87 106.746C170.644 106.361 170.531 105.92 170.531 105.423C170.531 104.926 170.644 104.488 170.87 104.11C171.102 103.725 171.417 103.427 171.815 103.214C172.213 103.002 172.66 102.896 173.158 102.896C173.622 102.896 174.04 102.992 174.411 103.185C174.783 103.377 175.078 103.662 175.297 104.04C175.515 104.418 175.625 104.879 175.625 105.423C175.625 105.967 175.515 106.428 175.297 106.806C175.078 107.184 174.783 107.472 174.411 107.671C174.04 107.87 173.622 107.97 173.158 107.97ZM173.227 107.343C173.612 107.343 173.954 107.263 174.252 107.104C174.551 106.938 174.786 106.713 174.958 106.428C175.131 106.136 175.217 105.801 175.217 105.423C175.217 105.045 175.131 104.713 174.958 104.428C174.786 104.143 174.551 103.921 174.252 103.762C173.954 103.596 173.612 103.513 173.227 103.513C172.849 103.513 172.508 103.596 172.203 103.762C171.904 103.921 171.669 104.143 171.496 104.428C171.331 104.713 171.248 105.045 171.248 105.423C171.248 105.801 171.331 106.136 171.496 106.428C171.669 106.713 171.904 106.938 172.203 107.104C172.508 107.263 172.849 107.343 173.227 107.343ZM180.028 108.218C179.583 108.218 179.195 108.135 178.864 107.97C178.532 107.804 178.273 107.555 178.088 107.224C177.909 106.892 177.819 106.477 177.819 105.98V102.946H178.526V105.9C178.526 106.458 178.661 106.879 178.933 107.164C179.212 107.442 179.6 107.582 180.097 107.582C180.462 107.582 180.777 107.509 181.042 107.363C181.314 107.21 181.52 106.991 181.659 106.706C181.805 106.421 181.878 106.08 181.878 105.682V102.946H182.584V108.169H181.908V106.736L182.017 106.995C181.852 107.379 181.593 107.681 181.241 107.9C180.896 108.112 180.492 108.218 180.028 108.218ZM184.553 108.169V102.946H185.229V104.368L185.16 104.12C185.306 103.722 185.551 103.42 185.896 103.214C186.241 103.002 186.668 102.896 187.179 102.896V103.583C187.153 103.583 187.126 103.583 187.1 103.583C187.073 103.576 187.047 103.573 187.02 103.573C186.47 103.573 186.038 103.742 185.727 104.08C185.415 104.412 185.259 104.886 185.259 105.503V108.169H184.553ZM190.638 108.218C190.094 108.218 189.617 108.106 189.205 107.88C188.794 107.648 188.472 107.333 188.24 106.935C188.008 106.531 187.892 106.07 187.892 105.552C187.892 105.035 188.002 104.577 188.22 104.179C188.446 103.781 188.751 103.47 189.136 103.244C189.527 103.012 189.965 102.896 190.449 102.896C190.94 102.896 191.374 103.009 191.752 103.234C192.137 103.453 192.438 103.765 192.657 104.169C192.876 104.567 192.986 105.028 192.986 105.552C192.986 105.585 192.982 105.622 192.976 105.662C192.976 105.695 192.976 105.731 192.976 105.771H188.429V105.244H192.598L192.319 105.453C192.319 105.075 192.236 104.74 192.07 104.448C191.911 104.15 191.692 103.917 191.414 103.752C191.135 103.586 190.814 103.503 190.449 103.503C190.091 103.503 189.769 103.586 189.484 103.752C189.199 103.917 188.977 104.15 188.817 104.448C188.658 104.746 188.579 105.088 188.579 105.473V105.582C188.579 105.98 188.665 106.332 188.837 106.637C189.016 106.935 189.262 107.171 189.573 107.343C189.892 107.509 190.253 107.592 190.658 107.592C190.976 107.592 191.271 107.535 191.543 107.423C191.822 107.31 192.06 107.137 192.259 106.905L192.657 107.363C192.425 107.641 192.133 107.854 191.782 108C191.437 108.145 191.056 108.218 190.638 108.218ZM198.758 108.169L196.41 101.205H197.166L199.365 107.761H198.987L201.255 101.205H201.931L204.17 107.761H203.812L206.03 101.205H206.736L204.389 108.169H203.613L201.474 101.951H201.673L199.524 108.169H198.758ZM207.908 108.169V102.946H208.614V108.169H207.908ZM208.266 101.792C208.12 101.792 207.997 101.742 207.898 101.643C207.798 101.543 207.749 101.424 207.749 101.285C207.749 101.145 207.798 101.029 207.898 100.936C207.997 100.837 208.12 100.787 208.266 100.787C208.412 100.787 208.534 100.834 208.634 100.926C208.733 101.019 208.783 101.135 208.783 101.275C208.783 101.42 208.733 101.543 208.634 101.643C208.541 101.742 208.418 101.792 208.266 101.792ZM211.385 104.577H215.066V105.214H211.385V104.577ZM211.465 108.169H210.729V101.205H215.504V101.842H211.465V108.169ZM216.875 108.169V102.946H217.581V108.169H216.875ZM217.233 101.792C217.087 101.792 216.964 101.742 216.865 101.643C216.765 101.543 216.716 101.424 216.716 101.285C216.716 101.145 216.765 101.029 216.865 100.936C216.964 100.837 217.087 100.787 217.233 100.787C217.379 100.787 217.501 100.834 217.601 100.926C217.7 101.019 217.75 101.135 217.75 101.275C217.75 101.42 217.7 101.543 217.601 101.643C217.508 101.742 217.385 101.792 217.233 101.792Z" fill="#24211E"/>
<path d="M159.168 66.7465C158.505 66.7465 157.871 66.647 157.266 66.4481C156.66 66.2408 156.184 65.9755 155.836 65.6522L156.296 64.6823C156.627 64.9724 157.05 65.2128 157.564 65.4035C158.078 65.5942 158.613 65.6895 159.168 65.6895C159.674 65.6895 160.084 65.6315 160.399 65.5154C160.714 65.3994 160.946 65.2419 161.096 65.0429C161.245 64.8356 161.319 64.6035 161.319 64.3465C161.319 64.0481 161.22 63.8077 161.021 63.6253C160.83 63.4429 160.577 63.2978 160.262 63.19C159.956 63.074 159.616 62.9745 159.243 62.8916C158.87 62.8087 158.493 62.7134 158.111 62.6056C157.738 62.4895 157.394 62.3445 157.079 62.1704C156.772 61.9963 156.524 61.7641 156.333 61.474C156.142 61.1755 156.047 60.7942 156.047 60.3299C156.047 59.8823 156.163 59.4719 156.395 59.0989C156.636 58.7175 157 58.4149 157.489 58.1911C157.987 57.959 158.617 57.8429 159.38 57.8429C159.885 57.8429 160.387 57.9092 160.884 58.0419C161.382 58.1745 161.813 58.3652 162.177 58.6139L161.767 59.6087C161.394 59.36 161 59.1818 160.586 59.074C160.171 58.9579 159.769 58.8999 159.38 58.8999C158.89 58.8999 158.488 58.9621 158.173 59.0864C157.858 59.2108 157.626 59.3766 157.477 59.5838C157.336 59.7911 157.266 60.0232 157.266 60.2802C157.266 60.5869 157.361 60.8315 157.552 61.0139C157.751 61.1963 158.003 61.3413 158.31 61.4491C158.625 61.5569 158.969 61.6564 159.342 61.7476C159.715 61.8305 160.088 61.9258 160.461 62.0336C160.843 62.1413 161.187 62.2823 161.494 62.4564C161.809 62.6305 162.061 62.8626 162.252 63.1527C162.443 63.4429 162.538 63.816 162.538 64.2719C162.538 64.7113 162.418 65.1216 162.177 65.503C161.937 65.8761 161.564 66.1786 161.058 66.4108C160.561 66.6346 159.931 66.7465 159.168 66.7465ZM167.115 66.7216C166.411 66.7216 165.789 66.5766 165.25 66.2864C164.72 65.9963 164.305 65.5983 164.007 65.0926C163.716 64.5869 163.571 64.0066 163.571 63.3517C163.571 62.6968 163.712 62.1165 163.994 61.6108C164.284 61.1051 164.678 60.7113 165.176 60.4294C165.681 60.1393 166.249 59.9942 166.879 59.9942C167.518 59.9942 168.081 60.1351 168.57 60.417C169.059 60.6989 169.441 61.0968 169.714 61.6108C169.996 62.1165 170.137 62.7092 170.137 63.389C170.137 63.4387 170.133 63.4968 170.125 63.5631C170.125 63.6294 170.121 63.6916 170.112 63.7496H164.504V62.8916H169.491L169.006 63.19C169.014 62.7672 168.927 62.39 168.744 62.0584C168.562 61.7268 168.309 61.4698 167.986 61.2875C167.671 61.0968 167.302 61.0014 166.879 61.0014C166.465 61.0014 166.096 61.0968 165.772 61.2875C165.449 61.4698 165.196 61.731 165.014 62.0709C164.831 62.4025 164.74 62.7838 164.74 63.2149V63.4139C164.74 63.8533 164.84 64.247 165.039 64.5952C165.246 64.9351 165.532 65.2004 165.897 65.3911C166.262 65.5818 166.68 65.6771 167.153 65.6771C167.542 65.6771 167.895 65.6108 168.21 65.4781C168.533 65.3455 168.815 65.1465 169.055 64.8812L169.714 65.6522C169.416 66.0004 169.043 66.2657 168.595 66.4481C168.156 66.6305 167.663 66.7216 167.115 66.7216ZM174.058 66.7216C173.395 66.7216 172.881 66.5434 172.516 66.1869C172.151 65.8305 171.969 65.3206 171.969 64.6574V58.6139H173.163V64.6077C173.163 64.9641 173.25 65.2377 173.424 65.4284C173.606 65.6191 173.863 65.7144 174.195 65.7144C174.568 65.7144 174.879 65.6108 175.127 65.4035L175.501 66.2615C175.318 66.4191 175.098 66.5351 174.841 66.6097C174.593 66.6843 174.332 66.7216 174.058 66.7216ZM170.85 61.0388V60.0564H175.053V61.0388H170.85ZM179.049 66.7216C178.386 66.7216 177.872 66.5434 177.507 66.1869C177.142 65.8305 176.96 65.3206 176.96 64.6574V58.6139H178.154V64.6077C178.154 64.9641 178.241 65.2377 178.415 65.4284C178.597 65.6191 178.854 65.7144 179.186 65.7144C179.559 65.7144 179.87 65.6108 180.119 65.4035L180.492 66.2615C180.309 66.4191 180.09 66.5351 179.833 66.6097C179.584 66.6843 179.323 66.7216 179.049 66.7216ZM175.841 61.0388V60.0564H180.044V61.0388H175.841ZM181.935 66.647V60.0564H183.129V66.647H181.935ZM182.532 58.788C182.3 58.788 182.105 58.7134 181.947 58.5641C181.798 58.4149 181.723 58.2325 181.723 58.017C181.723 57.7932 181.798 57.6066 181.947 57.4574C182.105 57.3082 182.3 57.2336 182.532 57.2336C182.764 57.2336 182.955 57.3082 183.104 57.4574C183.261 57.5983 183.34 57.7766 183.34 57.9921C183.34 58.216 183.265 58.4066 183.116 58.5641C182.967 58.7134 182.772 58.788 182.532 58.788ZM188.927 59.9942C189.466 59.9942 189.939 60.0978 190.345 60.3051C190.759 60.5123 191.083 60.8274 191.315 61.2502C191.547 61.6729 191.663 62.2077 191.663 62.8543V66.647H190.469V62.9911C190.469 62.3527 190.312 61.8719 189.997 61.5486C189.69 61.2253 189.255 61.0636 188.691 61.0636C188.268 61.0636 187.899 61.1465 187.584 61.3123C187.269 61.4781 187.025 61.7227 186.85 62.046C186.685 62.3693 186.602 62.7714 186.602 63.2522V66.647H185.408V60.0564H186.552V61.8346L186.366 61.3621C186.581 60.931 186.913 60.5952 187.36 60.3548C187.808 60.1144 188.33 59.9942 188.927 59.9942ZM196.757 69.1341C196.152 69.1341 195.563 69.047 194.991 68.8729C194.428 68.7071 193.968 68.4667 193.611 68.1517L194.183 67.2315C194.49 67.4968 194.867 67.704 195.315 67.8532C195.762 68.0108 196.231 68.0895 196.72 68.0895C197.499 68.0895 198.071 67.9071 198.436 67.5424C198.801 67.1776 198.983 66.6222 198.983 65.8761V64.4833L199.107 63.1776L199.045 61.8595V60.0564H200.177V65.7517C200.177 66.9123 199.887 67.7662 199.306 68.3134C198.726 68.8605 197.876 69.1341 196.757 69.1341ZM196.608 66.3735C195.97 66.3735 195.398 66.2408 194.892 65.9755C194.394 65.702 193.997 65.3248 193.698 64.8439C193.408 64.3631 193.263 63.8077 193.263 63.1776C193.263 62.5393 193.408 61.9838 193.698 61.5113C193.997 61.0305 194.394 60.6574 194.892 60.3921C195.398 60.1268 195.97 59.9942 196.608 59.9942C197.172 59.9942 197.686 60.1103 198.15 60.3424C198.614 60.5662 198.983 60.9144 199.257 61.3869C199.539 61.8595 199.679 62.4564 199.679 63.1776C199.679 63.8906 199.539 64.4833 199.257 64.9558C198.983 65.4284 198.614 65.7849 198.15 66.0253C197.686 66.2574 197.172 66.3735 196.608 66.3735ZM196.745 65.3289C197.184 65.3289 197.574 65.2377 197.914 65.0553C198.254 64.8729 198.519 64.6201 198.71 64.2968C198.908 63.9735 199.008 63.6004 199.008 63.1776C199.008 62.7548 198.908 62.3818 198.71 62.0584C198.519 61.7351 198.254 61.4864 197.914 61.3123C197.574 61.1299 197.184 61.0388 196.745 61.0388C196.305 61.0388 195.912 61.1299 195.563 61.3123C195.224 61.4864 194.954 61.7351 194.755 62.0584C194.564 62.3818 194.469 62.7548 194.469 63.1776C194.469 63.6004 194.564 63.9735 194.755 64.2968C194.954 64.6201 195.224 64.8729 195.563 65.0553C195.912 65.2377 196.305 65.3289 196.745 65.3289ZM204.348 66.7216C203.801 66.7216 203.279 66.647 202.781 66.4978C202.292 66.3486 201.907 66.1662 201.625 65.9507L202.122 65.0056C202.404 65.1963 202.752 65.3579 203.167 65.4906C203.581 65.6232 204.004 65.6895 204.435 65.6895C204.99 65.6895 205.388 65.6108 205.629 65.4533C205.878 65.2957 206.002 65.0761 206.002 64.7942C206.002 64.5869 205.927 64.4253 205.778 64.3092C205.629 64.1932 205.43 64.1061 205.181 64.0481C204.941 63.99 204.671 63.9403 204.373 63.8989C204.074 63.8491 203.776 63.7911 203.478 63.7248C203.179 63.6501 202.906 63.5507 202.657 63.4263C202.408 63.2937 202.209 63.1154 202.06 62.8916C201.911 62.6595 201.836 62.3527 201.836 61.9714C201.836 61.5735 201.948 61.2253 202.172 60.9268C202.396 60.6284 202.711 60.4004 203.117 60.2429C203.531 60.0771 204.021 59.9942 204.584 59.9942C205.015 59.9942 205.451 60.0481 205.89 60.1559C206.338 60.2553 206.702 60.4004 206.984 60.5911L206.474 61.5362C206.176 61.3372 205.865 61.2004 205.542 61.1258C205.218 61.0512 204.895 61.0139 204.572 61.0139C204.05 61.0139 203.66 61.1009 203.403 61.275C203.146 61.4408 203.017 61.6564 203.017 61.9217C203.017 62.1455 203.092 62.3196 203.241 62.4439C203.399 62.56 203.598 62.6512 203.838 62.7175C204.087 62.7838 204.36 62.8419 204.659 62.8916C204.957 62.9331 205.256 62.9911 205.554 63.0657C205.853 63.132 206.122 63.2274 206.363 63.3517C206.611 63.4761 206.81 63.6501 206.959 63.874C207.117 64.0978 207.196 64.3963 207.196 64.7693C207.196 65.1672 207.08 65.5113 206.847 65.8014C206.615 66.0916 206.288 66.3196 205.865 66.4854C205.442 66.6429 204.937 66.7216 204.348 66.7216Z" fill="#24211E"/>
<g filter="url(#filter3_d_26_128)">
<rect x="194.448" y="128.016" width="74.6113" height="15.544" rx="3.73056" fill="white"/>
<rect x="194.759" y="128.326" width="73.9895" height="14.9223" rx="3.41968" stroke="#C4C4C5" stroke-width="0.621761"/>
</g>
<g filter="url(#filter4_d_26_128)">
<rect x="194.245" y="153.729" width="74.6113" height="15.544" rx="3.73056" fill="white"/>
<rect x="194.556" y="154.039" width="73.9895" height="14.9223" rx="3.41968" stroke="#C4C4C5" stroke-width="0.621761"/>
</g>
<path d="M96.1356 136.288H99.8165V136.924H96.1356V136.288ZM96.2152 139.879H95.4791V132.915H100.254V133.552H96.2152V139.879ZM101.528 139.879V134.656H102.204V136.079L102.135 135.83C102.281 135.432 102.526 135.13 102.871 134.925C103.216 134.712 103.644 134.606 104.154 134.606V135.293C104.128 135.293 104.101 135.293 104.075 135.293C104.048 135.286 104.022 135.283 103.995 135.283C103.445 135.283 103.014 135.452 102.702 135.79C102.39 136.122 102.234 136.596 102.234 137.213V139.879H101.528ZM107.613 139.929C107.069 139.929 106.592 139.816 106.18 139.59C105.769 139.358 105.448 139.043 105.216 138.645C104.983 138.241 104.867 137.78 104.867 137.262C104.867 136.745 104.977 136.288 105.196 135.89C105.421 135.492 105.726 135.18 106.111 134.955C106.502 134.722 106.94 134.606 107.424 134.606C107.915 134.606 108.349 134.719 108.727 134.945C109.112 135.163 109.414 135.475 109.633 135.88C109.851 136.278 109.961 136.739 109.961 137.262C109.961 137.296 109.957 137.332 109.951 137.372C109.951 137.405 109.951 137.442 109.951 137.481H105.405V136.954H109.573L109.294 137.163C109.294 136.785 109.211 136.45 109.046 136.158C108.886 135.86 108.668 135.628 108.389 135.462C108.11 135.296 107.789 135.213 107.424 135.213C107.066 135.213 106.744 135.296 106.459 135.462C106.174 135.628 105.952 135.86 105.793 136.158C105.633 136.457 105.554 136.798 105.554 137.183V137.292C105.554 137.69 105.64 138.042 105.812 138.347C105.991 138.645 106.237 138.881 106.549 139.053C106.867 139.219 107.228 139.302 107.633 139.302C107.951 139.302 108.246 139.245 108.518 139.133C108.797 139.02 109.036 138.848 109.235 138.615L109.633 139.073C109.4 139.352 109.109 139.564 108.757 139.71C108.412 139.856 108.031 139.929 107.613 139.929ZM113.478 139.929C112.98 139.929 112.533 139.816 112.135 139.59C111.743 139.365 111.435 139.053 111.209 138.655C110.984 138.257 110.871 137.793 110.871 137.262C110.871 136.739 110.984 136.278 111.209 135.88C111.435 135.475 111.743 135.163 112.135 134.945C112.533 134.719 112.98 134.606 113.478 134.606C113.942 134.606 114.353 134.709 114.711 134.915C115.076 135.12 115.364 135.422 115.577 135.82C115.789 136.211 115.895 136.692 115.895 137.262C115.895 137.833 115.786 138.317 115.567 138.715C115.355 139.106 115.066 139.408 114.701 139.62C114.343 139.826 113.935 139.929 113.478 139.929ZM113.527 139.302C113.899 139.302 114.23 139.219 114.522 139.053C114.821 138.881 115.053 138.642 115.219 138.337C115.391 138.025 115.477 137.667 115.477 137.262C115.477 136.858 115.391 136.503 115.219 136.198C115.053 135.893 114.821 135.654 114.522 135.482C114.23 135.309 113.899 135.223 113.527 135.223C113.163 135.223 112.834 135.309 112.543 135.482C112.251 135.654 112.019 135.893 111.846 136.198C111.674 136.503 111.587 136.858 111.587 137.262C111.587 137.667 111.674 138.025 111.846 138.337C112.019 138.642 112.251 138.881 112.543 139.053C112.834 139.219 113.163 139.302 113.527 139.302ZM115.467 141.809V138.327L115.567 137.272L115.497 136.228V134.656H116.174V141.809H115.467ZM120.299 139.929C119.855 139.929 119.467 139.846 119.135 139.68C118.804 139.514 118.545 139.265 118.36 138.934C118.18 138.602 118.091 138.188 118.091 137.69V134.656H118.797V137.611C118.797 138.168 118.933 138.589 119.205 138.874C119.484 139.153 119.872 139.292 120.369 139.292C120.734 139.292 121.049 139.219 121.314 139.073C121.586 138.921 121.792 138.702 121.931 138.416C122.077 138.131 122.15 137.79 122.15 137.392V134.656H122.856V139.879H122.18V138.446L122.289 138.705C122.123 139.09 121.865 139.391 121.513 139.61C121.168 139.822 120.764 139.929 120.299 139.929ZM127.043 139.929C126.499 139.929 126.022 139.816 125.611 139.59C125.199 139.358 124.878 139.043 124.646 138.645C124.413 138.241 124.297 137.78 124.297 137.262C124.297 136.745 124.407 136.288 124.626 135.89C124.851 135.492 125.156 135.18 125.541 134.955C125.932 134.722 126.37 134.606 126.854 134.606C127.345 134.606 127.779 134.719 128.157 134.945C128.542 135.163 128.844 135.475 129.063 135.88C129.281 136.278 129.391 136.739 129.391 137.262C129.391 137.296 129.387 137.332 129.381 137.372C129.381 137.405 129.381 137.442 129.381 137.481H124.835V136.954H129.003L128.724 137.163C128.724 136.785 128.641 136.45 128.476 136.158C128.316 135.86 128.098 135.628 127.819 135.462C127.54 135.296 127.219 135.213 126.854 135.213C126.496 135.213 126.174 135.296 125.889 135.462C125.604 135.628 125.382 135.86 125.223 136.158C125.063 136.457 124.984 136.798 124.984 137.183V137.292C124.984 137.69 125.07 138.042 125.242 138.347C125.421 138.645 125.667 138.881 125.979 139.053C126.297 139.219 126.658 139.302 127.063 139.302C127.381 139.302 127.676 139.245 127.948 139.133C128.227 139.02 128.466 138.848 128.665 138.615L129.063 139.073C128.83 139.352 128.539 139.564 128.187 139.71C127.842 139.856 127.461 139.929 127.043 139.929ZM133.495 134.606C133.919 134.606 134.29 134.689 134.609 134.855C134.934 135.014 135.186 135.26 135.365 135.591C135.551 135.923 135.643 136.341 135.643 136.845V139.879H134.937V136.914C134.937 136.364 134.798 135.949 134.519 135.671C134.247 135.386 133.863 135.243 133.365 135.243C132.994 135.243 132.669 135.319 132.39 135.472C132.118 135.618 131.906 135.833 131.754 136.118C131.608 136.397 131.535 136.735 131.535 137.133V139.879H130.828V134.656H131.505V136.089L131.396 135.82C131.561 135.442 131.827 135.147 132.191 134.935C132.556 134.716 132.991 134.606 133.495 134.606ZM139.72 139.929C139.203 139.929 138.738 139.816 138.327 139.59C137.923 139.358 137.604 139.043 137.372 138.645C137.14 138.241 137.024 137.78 137.024 137.262C137.024 136.739 137.14 136.278 137.372 135.88C137.604 135.482 137.923 135.17 138.327 134.945C138.738 134.719 139.203 134.606 139.72 134.606C140.164 134.606 140.566 134.693 140.924 134.865C141.282 135.037 141.564 135.296 141.769 135.641L141.242 135.999C141.063 135.734 140.841 135.538 140.576 135.412C140.31 135.286 140.022 135.223 139.71 135.223C139.339 135.223 139.004 135.309 138.705 135.482C138.407 135.648 138.171 135.883 137.999 136.188C137.827 136.493 137.74 136.851 137.74 137.262C137.74 137.674 137.827 138.032 137.999 138.337C138.171 138.642 138.407 138.881 138.705 139.053C139.004 139.219 139.339 139.302 139.71 139.302C140.022 139.302 140.31 139.239 140.576 139.113C140.841 138.987 141.063 138.794 141.242 138.536L141.769 138.894C141.564 139.232 141.282 139.491 140.924 139.67C140.566 139.842 140.164 139.929 139.72 139.929ZM143.119 141.859C142.874 141.859 142.638 141.819 142.413 141.739C142.194 141.66 142.005 141.54 141.846 141.381L142.174 140.854C142.306 140.98 142.449 141.076 142.602 141.142C142.761 141.215 142.937 141.252 143.129 141.252C143.361 141.252 143.56 141.185 143.726 141.053C143.898 140.927 144.061 140.701 144.213 140.376L144.551 139.61L144.631 139.501L146.78 134.656H147.476L144.86 140.506C144.714 140.844 144.551 141.112 144.372 141.311C144.2 141.51 144.011 141.65 143.805 141.729C143.6 141.815 143.371 141.859 143.119 141.859ZM144.512 140.028L142.104 134.656H142.84L144.969 139.451L144.512 140.028Z" fill="#24211E"/>
<path d="M201.978 139.939C201.421 139.939 200.94 139.859 200.535 139.7C200.138 139.541 199.829 139.312 199.61 139.013C199.398 138.708 199.292 138.35 199.292 137.939C199.292 137.541 199.395 137.203 199.6 136.924C199.813 136.639 200.118 136.42 200.516 136.268C200.92 136.115 201.408 136.039 201.978 136.039C202.542 136.039 203.026 136.115 203.43 136.268C203.835 136.42 204.143 136.639 204.356 136.924C204.574 137.203 204.684 137.541 204.684 137.939C204.684 138.35 204.574 138.708 204.356 139.013C204.137 139.312 203.825 139.541 203.42 139.7C203.016 139.859 202.535 139.939 201.978 139.939ZM201.978 139.332C202.595 139.332 203.076 139.206 203.42 138.954C203.772 138.702 203.948 138.36 203.948 137.929C203.948 137.498 203.772 137.16 203.42 136.914C203.076 136.662 202.595 136.536 201.978 136.536C201.361 136.536 200.88 136.662 200.535 136.914C200.191 137.16 200.018 137.498 200.018 137.929C200.018 138.36 200.191 138.702 200.535 138.954C200.88 139.206 201.361 139.332 201.978 139.332ZM201.978 136.447C201.461 136.447 201.02 136.377 200.655 136.238C200.297 136.099 200.021 135.9 199.829 135.641C199.637 135.376 199.541 135.061 199.541 134.696C199.541 134.311 199.64 133.983 199.839 133.711C200.045 133.432 200.33 133.22 200.695 133.074C201.059 132.928 201.487 132.855 201.978 132.855C202.469 132.855 202.897 132.928 203.261 133.074C203.633 133.22 203.921 133.432 204.127 133.711C204.332 133.983 204.435 134.311 204.435 134.696C204.435 135.061 204.339 135.376 204.147 135.641C203.954 135.9 203.672 136.099 203.301 136.238C202.936 136.377 202.495 136.447 201.978 136.447ZM201.978 135.969C202.522 135.969 202.946 135.856 203.251 135.631C203.556 135.405 203.709 135.104 203.709 134.726C203.709 134.328 203.55 134.019 203.231 133.801C202.92 133.575 202.502 133.462 201.978 133.462C201.454 133.462 201.036 133.575 200.725 133.801C200.413 134.019 200.257 134.324 200.257 134.716C200.257 135.1 200.406 135.405 200.705 135.631C201.01 135.856 201.434 135.969 201.978 135.969ZM208.531 139.939C207.914 139.939 207.393 139.803 206.969 139.531C206.544 139.252 206.223 138.854 206.004 138.337C205.785 137.813 205.676 137.186 205.676 136.457C205.676 135.667 205.808 135.008 206.074 134.477C206.346 133.94 206.72 133.535 207.198 133.263C207.675 132.991 208.229 132.855 208.859 132.855C209.171 132.855 209.469 132.885 209.754 132.945C210.04 133.005 210.292 133.101 210.51 133.233L210.222 133.81C210.043 133.691 209.837 133.608 209.605 133.562C209.373 133.509 209.128 133.482 208.869 133.482C208.12 133.482 207.519 133.721 207.068 134.198C206.624 134.676 206.402 135.389 206.402 136.337C206.402 136.483 206.409 136.666 206.422 136.884C206.442 137.097 206.481 137.309 206.541 137.521L206.292 137.332C206.365 136.987 206.508 136.695 206.72 136.457C206.932 136.211 207.198 136.026 207.516 135.9C207.834 135.774 208.183 135.711 208.561 135.711C209.025 135.711 209.433 135.797 209.784 135.969C210.136 136.142 210.411 136.384 210.61 136.695C210.809 137.007 210.908 137.375 210.908 137.8C210.908 138.231 210.806 138.609 210.6 138.934C210.394 139.252 210.109 139.501 209.744 139.68C209.386 139.852 208.982 139.939 208.531 139.939ZM208.501 139.332C208.833 139.332 209.124 139.272 209.376 139.153C209.635 139.027 209.837 138.851 209.983 138.625C210.129 138.393 210.202 138.125 210.202 137.82C210.202 137.362 210.043 136.997 209.725 136.725C209.413 136.453 208.988 136.317 208.451 136.317C208.093 136.317 207.781 136.384 207.516 136.516C207.251 136.649 207.042 136.831 206.889 137.064C206.737 137.289 206.661 137.548 206.661 137.839C206.661 138.091 206.73 138.334 206.869 138.566C207.009 138.791 207.214 138.977 207.486 139.123C207.765 139.262 208.103 139.332 208.501 139.332ZM214.384 139.939C213.827 139.939 213.346 139.859 212.942 139.7C212.544 139.541 212.235 139.312 212.016 139.013C211.804 138.708 211.698 138.35 211.698 137.939C211.698 137.541 211.801 137.203 212.006 136.924C212.219 136.639 212.524 136.42 212.922 136.268C213.326 136.115 213.814 136.039 214.384 136.039C214.948 136.039 215.432 136.115 215.836 136.268C216.241 136.42 216.549 136.639 216.762 136.924C216.981 137.203 217.09 137.541 217.09 137.939C217.09 138.35 216.981 138.708 216.762 139.013C216.543 139.312 216.231 139.541 215.827 139.7C215.422 139.859 214.941 139.939 214.384 139.939ZM214.384 139.332C215.001 139.332 215.482 139.206 215.827 138.954C216.178 138.702 216.354 138.36 216.354 137.929C216.354 137.498 216.178 137.16 215.827 136.914C215.482 136.662 215.001 136.536 214.384 136.536C213.767 136.536 213.286 136.662 212.942 136.914C212.597 137.16 212.424 137.498 212.424 137.929C212.424 138.36 212.597 138.702 212.942 138.954C213.286 139.206 213.767 139.332 214.384 139.332ZM214.384 136.447C213.867 136.447 213.426 136.377 213.061 136.238C212.703 136.099 212.428 135.9 212.235 135.641C212.043 135.376 211.947 135.061 211.947 134.696C211.947 134.311 212.046 133.983 212.245 133.711C212.451 133.432 212.736 133.22 213.101 133.074C213.465 132.928 213.893 132.855 214.384 132.855C214.875 132.855 215.303 132.928 215.667 133.074C216.039 133.22 216.327 133.432 216.533 133.711C216.738 133.983 216.841 134.311 216.841 134.696C216.841 135.061 216.745 135.376 216.553 135.641C216.36 135.9 216.079 136.099 215.707 136.238C215.342 136.377 214.901 136.447 214.384 136.447ZM214.384 135.969C214.928 135.969 215.352 135.856 215.657 135.631C215.962 135.405 216.115 135.104 216.115 134.726C216.115 134.328 215.956 134.019 215.638 133.801C215.326 133.575 214.908 133.462 214.384 133.462C213.86 133.462 213.442 133.575 213.131 133.801C212.819 134.019 212.663 134.324 212.663 134.716C212.663 135.1 212.812 135.405 213.111 135.631C213.416 135.856 213.84 135.969 214.384 135.969ZM221.302 139.879V132.915H221.909L225.092 138.347H224.774L227.928 132.915H228.534V139.879H227.828V134.019H227.997L225.092 138.993H224.744L221.819 134.019H222.008V139.879H221.302ZM235.897 132.915H236.623V139.879H235.897V132.915ZM231.54 139.879H230.803V132.915H231.54V139.879ZM235.967 136.666H231.46V136.019H235.967V136.666ZM238.18 139.879V139.411L241.662 135.004L241.811 135.243H238.239V134.656H242.368V135.114L238.896 139.531L238.717 139.292H242.438V139.879H238.18Z" fill="#24211E"/>
<path d="M200.402 162.001H204.082V162.637H200.402V162.001ZM200.481 165.592H199.745V158.628H204.52V159.265H200.481V165.592ZM208.95 165.592V164.438L208.92 164.249V162.319C208.92 161.874 208.794 161.533 208.542 161.294C208.297 161.055 207.929 160.936 207.438 160.936C207.1 160.936 206.778 160.992 206.473 161.105C206.168 161.218 205.909 161.367 205.697 161.553L205.379 161.026C205.644 160.8 205.962 160.628 206.334 160.508C206.705 160.382 207.097 160.319 207.508 160.319C208.184 160.319 208.705 160.488 209.07 160.827C209.441 161.158 209.627 161.666 209.627 162.349V165.592H208.95ZM207.15 165.642C206.758 165.642 206.417 165.579 206.125 165.453C205.84 165.32 205.621 165.141 205.468 164.915C205.316 164.683 205.24 164.418 205.24 164.119C205.24 163.848 205.303 163.602 205.429 163.383C205.561 163.158 205.773 162.979 206.065 162.846C206.364 162.707 206.762 162.637 207.259 162.637H209.06V163.164H207.279C206.775 163.164 206.423 163.254 206.224 163.433C206.032 163.612 205.936 163.834 205.936 164.1C205.936 164.398 206.052 164.637 206.284 164.816C206.516 164.995 206.841 165.084 207.259 165.084C207.657 165.084 207.999 164.995 208.284 164.816C208.576 164.63 208.788 164.365 208.92 164.02L209.08 164.507C208.947 164.852 208.715 165.128 208.383 165.333C208.058 165.539 207.647 165.642 207.15 165.642ZM214.211 160.319C214.636 160.319 215.007 160.402 215.325 160.568C215.65 160.727 215.902 160.973 216.082 161.304C216.267 161.636 216.36 162.054 216.36 162.558V165.592H215.654V162.627C215.654 162.077 215.514 161.662 215.236 161.384C214.964 161.099 214.579 160.956 214.082 160.956C213.711 160.956 213.386 161.032 213.107 161.185C212.835 161.331 212.623 161.546 212.47 161.831C212.324 162.11 212.251 162.448 212.251 162.846V165.592H211.545V158.21H212.251V161.802L212.112 161.533C212.278 161.155 212.543 160.86 212.908 160.648C213.273 160.429 213.707 160.319 214.211 160.319ZM218.268 165.592V160.369H218.944V161.792L218.875 161.543C219.021 161.145 219.266 160.843 219.611 160.638C219.956 160.425 220.384 160.319 220.894 160.319V161.006C220.868 161.006 220.841 161.006 220.815 161.006C220.788 160.999 220.762 160.996 220.735 160.996C220.185 160.996 219.754 161.165 219.442 161.503C219.13 161.835 218.974 162.309 218.974 162.926V165.592H218.268ZM224.353 165.642C223.809 165.642 223.332 165.529 222.92 165.303C222.509 165.071 222.188 164.756 221.955 164.358C221.723 163.954 221.607 163.493 221.607 162.975C221.607 162.458 221.717 162.001 221.936 161.603C222.161 161.205 222.466 160.893 222.851 160.667C223.242 160.435 223.68 160.319 224.164 160.319C224.655 160.319 225.089 160.432 225.467 160.658C225.852 160.876 226.154 161.188 226.372 161.593C226.591 161.991 226.701 162.451 226.701 162.975C226.701 163.009 226.697 163.045 226.691 163.085C226.691 163.118 226.691 163.154 226.691 163.194H222.144V162.667H226.313L226.034 162.876C226.034 162.498 225.951 162.163 225.786 161.871C225.626 161.573 225.407 161.341 225.129 161.175C224.85 161.009 224.529 160.926 224.164 160.926C223.806 160.926 223.484 161.009 223.199 161.175C222.914 161.341 222.692 161.573 222.532 161.871C222.373 162.17 222.294 162.511 222.294 162.896V163.005C222.294 163.403 222.38 163.755 222.552 164.06C222.731 164.358 222.977 164.594 223.289 164.766C223.607 164.932 223.968 165.015 224.373 165.015C224.691 165.015 224.986 164.958 225.258 164.846C225.537 164.733 225.776 164.561 225.975 164.328L226.372 164.786C226.14 165.065 225.849 165.277 225.497 165.423C225.152 165.569 224.771 165.642 224.353 165.642ZM230.805 160.319C231.229 160.319 231.6 160.402 231.919 160.568C232.244 160.727 232.496 160.973 232.675 161.304C232.86 161.636 232.953 162.054 232.953 162.558V165.592H232.247V162.627C232.247 162.077 232.108 161.662 231.829 161.384C231.557 161.099 231.173 160.956 230.675 160.956C230.304 160.956 229.979 161.032 229.7 161.185C229.428 161.331 229.216 161.546 229.064 161.831C228.918 162.11 228.845 162.448 228.845 162.846V165.592H228.138V160.369H228.815V161.802L228.705 161.533C228.871 161.155 229.137 160.86 229.501 160.648C229.866 160.429 230.3 160.319 230.805 160.319ZM237.527 160.319C237.952 160.319 238.323 160.402 238.641 160.568C238.966 160.727 239.218 160.973 239.398 161.304C239.583 161.636 239.676 162.054 239.676 162.558V165.592H238.97V162.627C238.97 162.077 238.831 161.662 238.552 161.384C238.28 161.099 237.895 160.956 237.398 160.956C237.027 160.956 236.702 161.032 236.423 161.185C236.151 161.331 235.939 161.546 235.786 161.831C235.64 162.11 235.568 162.448 235.568 162.846V165.592H234.861V158.21H235.568V161.802L235.428 161.533C235.594 161.155 235.859 160.86 236.224 160.648C236.589 160.429 237.023 160.319 237.527 160.319ZM243.802 165.642C243.259 165.642 242.781 165.529 242.37 165.303C241.959 165.071 241.637 164.756 241.405 164.358C241.173 163.954 241.057 163.493 241.057 162.975C241.057 162.458 241.166 162.001 241.385 161.603C241.611 161.205 241.916 160.893 242.3 160.667C242.692 160.435 243.129 160.319 243.613 160.319C244.104 160.319 244.539 160.432 244.917 160.658C245.301 160.876 245.603 161.188 245.822 161.593C246.041 161.991 246.15 162.451 246.15 162.975C246.15 163.009 246.147 163.045 246.14 163.085C246.14 163.118 246.14 163.154 246.14 163.194H241.594V162.667H245.762L245.484 162.876C245.484 162.498 245.401 162.163 245.235 161.871C245.076 161.573 244.857 161.341 244.578 161.175C244.3 161.009 243.978 160.926 243.613 160.926C243.255 160.926 242.934 161.009 242.648 161.175C242.363 161.341 242.141 161.573 241.982 161.871C241.823 162.17 241.743 162.511 241.743 162.896V163.005C241.743 163.403 241.829 163.755 242.002 164.06C242.181 164.358 242.426 164.594 242.738 164.766C243.056 164.932 243.418 165.015 243.822 165.015C244.141 165.015 244.436 164.958 244.708 164.846C244.986 164.733 245.225 164.561 245.424 164.328L245.822 164.786C245.59 165.065 245.298 165.277 244.946 165.423C244.602 165.569 244.22 165.642 243.802 165.642ZM247.588 165.592V160.369H248.294V165.592H247.588ZM247.946 159.215C247.8 159.215 247.677 159.165 247.578 159.066C247.478 158.966 247.429 158.847 247.429 158.708C247.429 158.568 247.478 158.452 247.578 158.359C247.677 158.26 247.8 158.21 247.946 158.21C248.092 158.21 248.215 158.257 248.314 158.35C248.414 158.442 248.463 158.558 248.463 158.698C248.463 158.844 248.414 158.966 248.314 159.066C248.221 159.165 248.099 159.215 247.946 159.215ZM251.911 165.642C251.42 165.642 251.042 165.509 250.777 165.244C250.511 164.978 250.379 164.604 250.379 164.119V159.215H251.085V164.08C251.085 164.385 251.161 164.62 251.314 164.786C251.473 164.952 251.699 165.035 251.99 165.035C252.302 165.035 252.561 164.945 252.766 164.766L253.015 165.273C252.876 165.399 252.707 165.492 252.508 165.552C252.315 165.612 252.116 165.642 251.911 165.642ZM249.444 160.956V160.369H252.677V160.956H249.444Z" fill="#24211E"/>
<path fill-rule="evenodd" clip-rule="evenodd" d="M264.501 134.257L260.203 138.987C259.939 139.278 259.511 139.278 259.248 138.987L254.949 134.257C254.685 133.966 254.685 133.496 254.949 133.205C255.213 132.915 255.64 132.915 255.904 133.205L259.725 137.41L263.546 133.205C263.81 132.915 264.238 132.915 264.501 133.205C264.765 133.496 264.765 133.966 264.501 134.257Z" fill="#C4C4C5"/>
<path fill-rule="evenodd" clip-rule="evenodd" d="M264.298 159.969L259.999 164.7C259.735 164.991 259.308 164.991 259.044 164.7L254.745 159.969C254.481 159.679 254.481 159.208 254.745 158.918C255.009 158.628 255.437 158.628 255.701 158.918L259.522 163.123L263.343 158.918C263.606 158.628 264.034 158.628 264.298 158.918C264.562 159.208 264.562 159.679 264.298 159.969Z" fill="#C4C4C5"/>
<path d="M96.832 164.754V158.427H94.3848V157.79H100.015V158.427H97.5682V164.754H96.832ZM102.717 164.804C102.173 164.804 101.695 164.691 101.284 164.465C100.873 164.233 100.551 163.918 100.319 163.52C100.087 163.116 99.971 162.655 99.971 162.137C99.971 161.62 100.08 161.163 100.299 160.765C100.525 160.367 100.83 160.055 101.214 159.83C101.606 159.597 102.044 159.481 102.528 159.481C103.018 159.481 103.453 159.594 103.831 159.82C104.216 160.038 104.517 160.35 104.736 160.755C104.955 161.153 105.064 161.614 105.064 162.137C105.064 162.171 105.061 162.207 105.054 162.247C105.054 162.28 105.054 162.317 105.054 162.356H100.508V161.829H104.676L104.398 162.038C104.398 161.66 104.315 161.325 104.149 161.033C103.99 160.735 103.771 160.503 103.493 160.337C103.214 160.171 102.892 160.088 102.528 160.088C102.17 160.088 101.848 160.171 101.563 160.337C101.277 160.503 101.055 160.735 100.896 161.033C100.737 161.332 100.657 161.673 100.657 162.058V162.167C100.657 162.565 100.744 162.917 100.916 163.222C101.095 163.52 101.341 163.756 101.652 163.928C101.971 164.094 102.332 164.177 102.737 164.177C103.055 164.177 103.35 164.12 103.622 164.008C103.9 163.895 104.139 163.723 104.338 163.49L104.736 163.948C104.504 164.227 104.212 164.439 103.861 164.585C103.516 164.731 103.134 164.804 102.717 164.804ZM113.028 159.481C113.453 159.481 113.821 159.564 114.132 159.73C114.451 159.889 114.696 160.135 114.869 160.466C115.048 160.798 115.137 161.216 115.137 161.72V164.754H114.431V161.789C114.431 161.239 114.298 160.824 114.033 160.546C113.774 160.261 113.406 160.118 112.929 160.118C112.57 160.118 112.259 160.194 111.993 160.347C111.735 160.493 111.533 160.708 111.387 160.993C111.247 161.272 111.178 161.61 111.178 162.008V164.754H110.471V161.789C110.471 161.239 110.339 160.824 110.073 160.546C109.808 160.261 109.437 160.118 108.959 160.118C108.608 160.118 108.299 160.194 108.034 160.347C107.769 160.493 107.563 160.708 107.417 160.993C107.278 161.272 107.208 161.61 107.208 162.008V164.754H106.502V159.531H107.179V160.944L107.069 160.695C107.228 160.317 107.484 160.022 107.835 159.81C108.193 159.591 108.614 159.481 109.099 159.481C109.609 159.481 110.044 159.611 110.402 159.869C110.76 160.121 110.992 160.503 111.098 161.013L110.82 160.904C110.972 160.479 111.241 160.138 111.625 159.879C112.017 159.614 112.484 159.481 113.028 159.481ZM119.749 164.804C119.298 164.804 118.89 164.701 118.525 164.495C118.16 164.283 117.868 163.981 117.649 163.59C117.437 163.192 117.331 162.708 117.331 162.137C117.331 161.567 117.437 161.086 117.649 160.695C117.862 160.297 118.15 159.995 118.515 159.79C118.88 159.584 119.291 159.481 119.749 159.481C120.246 159.481 120.69 159.594 121.082 159.82C121.48 160.038 121.791 160.35 122.017 160.755C122.242 161.153 122.355 161.614 122.355 162.137C122.355 162.668 122.242 163.132 122.017 163.53C121.791 163.928 121.48 164.24 121.082 164.465C120.69 164.691 120.246 164.804 119.749 164.804ZM117.053 166.684V159.531H117.729V161.103L117.659 162.147L117.759 163.202V166.684H117.053ZM119.699 164.177C120.07 164.177 120.402 164.094 120.694 163.928C120.985 163.756 121.218 163.517 121.39 163.212C121.562 162.9 121.649 162.542 121.649 162.137C121.649 161.733 121.562 161.378 121.39 161.073C121.218 160.768 120.985 160.529 120.694 160.357C120.402 160.184 120.07 160.098 119.699 160.098C119.327 160.098 118.992 160.184 118.694 160.357C118.402 160.529 118.17 160.768 117.998 161.073C117.832 161.378 117.749 161.733 117.749 162.137C117.749 162.542 117.832 162.9 117.998 163.212C118.17 163.517 118.402 163.756 118.694 163.928C118.992 164.094 119.327 164.177 119.699 164.177ZM126.013 164.804C125.469 164.804 124.992 164.691 124.581 164.465C124.17 164.233 123.848 163.918 123.616 163.52C123.384 163.116 123.268 162.655 123.268 162.137C123.268 161.62 123.377 161.163 123.596 160.765C123.821 160.367 124.126 160.055 124.511 159.83C124.902 159.597 125.34 159.481 125.824 159.481C126.315 159.481 126.749 159.594 127.127 159.82C127.512 160.038 127.814 160.35 128.033 160.755C128.252 161.153 128.361 161.614 128.361 162.137C128.361 162.171 128.358 162.207 128.351 162.247C128.351 162.28 128.351 162.317 128.351 162.356H123.805V161.829H127.973L127.694 162.038C127.694 161.66 127.612 161.325 127.446 161.033C127.287 160.735 127.068 160.503 126.789 160.337C126.511 160.171 126.189 160.088 125.824 160.088C125.466 160.088 125.144 160.171 124.859 160.337C124.574 160.503 124.352 160.735 124.193 161.033C124.034 161.332 123.954 161.673 123.954 162.058V162.167C123.954 162.565 124.04 162.917 124.213 163.222C124.392 163.52 124.637 163.756 124.949 163.928C125.267 164.094 125.629 164.177 126.033 164.177C126.351 164.177 126.647 164.12 126.919 164.008C127.197 163.895 127.436 163.723 127.635 163.49L128.033 163.948C127.801 164.227 127.509 164.439 127.157 164.585C126.812 164.731 126.431 164.804 126.013 164.804ZM129.799 164.754V159.531H130.475V160.954L130.406 160.705C130.551 160.307 130.797 160.005 131.142 159.8C131.487 159.587 131.914 159.481 132.425 159.481V160.168C132.398 160.168 132.372 160.168 132.345 160.168C132.319 160.161 132.292 160.158 132.266 160.158C131.715 160.158 131.284 160.327 130.973 160.665C130.661 160.997 130.505 161.471 130.505 162.088V164.754H129.799ZM136.598 164.754V163.6L136.568 163.411V161.481C136.568 161.037 136.442 160.695 136.19 160.456C135.945 160.217 135.577 160.098 135.086 160.098C134.748 160.098 134.426 160.154 134.121 160.267C133.816 160.38 133.557 160.529 133.345 160.715L133.027 160.188C133.292 159.962 133.61 159.79 133.982 159.67C134.353 159.544 134.745 159.481 135.156 159.481C135.832 159.481 136.353 159.65 136.718 159.989C137.089 160.32 137.275 160.828 137.275 161.511V164.754H136.598ZM134.798 164.804C134.406 164.804 134.065 164.741 133.773 164.615C133.488 164.482 133.269 164.303 133.116 164.077C132.964 163.845 132.888 163.58 132.888 163.282C132.888 163.01 132.951 162.764 133.077 162.545C133.209 162.32 133.421 162.141 133.713 162.008C134.012 161.869 134.41 161.799 134.907 161.799H136.708V162.326H134.927C134.423 162.326 134.071 162.416 133.872 162.595C133.68 162.774 133.584 162.996 133.584 163.262C133.584 163.56 133.7 163.799 133.932 163.978C134.164 164.157 134.489 164.246 134.907 164.246C135.305 164.246 135.646 164.157 135.932 163.978C136.223 163.792 136.436 163.527 136.568 163.182L136.728 163.669C136.595 164.014 136.363 164.29 136.031 164.495C135.706 164.701 135.295 164.804 134.798 164.804ZM140.844 164.804C140.354 164.804 139.976 164.671 139.71 164.406C139.445 164.14 139.312 163.766 139.312 163.282V158.377H140.019V163.242C140.019 163.547 140.095 163.782 140.248 163.948C140.407 164.114 140.632 164.197 140.924 164.197C141.236 164.197 141.494 164.107 141.7 163.928L141.949 164.436C141.809 164.562 141.64 164.654 141.441 164.714C141.249 164.774 141.05 164.804 140.844 164.804ZM138.377 160.118V159.531H141.611V160.118H138.377ZM145.393 164.804C144.949 164.804 144.561 164.721 144.229 164.555C143.898 164.389 143.639 164.14 143.453 163.809C143.274 163.477 143.185 163.063 143.185 162.565V159.531H143.891V162.486C143.891 163.043 144.027 163.464 144.299 163.749C144.578 164.028 144.966 164.167 145.463 164.167C145.828 164.167 146.143 164.094 146.408 163.948C146.68 163.796 146.886 163.577 147.025 163.291C147.171 163.006 147.244 162.665 147.244 162.267V159.531H147.95V164.754H147.274V163.321L147.383 163.58C147.217 163.965 146.958 164.266 146.607 164.485C146.262 164.697 145.858 164.804 145.393 164.804ZM149.918 164.754V159.531H150.595V160.954L150.525 160.705C150.671 160.307 150.917 160.005 151.261 159.8C151.606 159.587 152.034 159.481 152.545 159.481V160.168C152.518 160.168 152.492 160.168 152.465 160.168C152.439 160.161 152.412 160.158 152.386 160.158C151.835 160.158 151.404 160.327 151.092 160.665C150.781 160.997 150.625 161.471 150.625 162.088V164.754H149.918ZM156.003 164.804C155.46 164.804 154.982 164.691 154.571 164.465C154.16 164.233 153.838 163.918 153.606 163.52C153.374 163.116 153.258 162.655 153.258 162.137C153.258 161.62 153.367 161.163 153.586 160.765C153.812 160.367 154.117 160.055 154.501 159.83C154.893 159.597 155.33 159.481 155.814 159.481C156.305 159.481 156.74 159.594 157.118 159.82C157.502 160.038 157.804 160.35 158.023 160.755C158.242 161.153 158.351 161.614 158.351 162.137C158.351 162.171 158.348 162.207 158.341 162.247C158.341 162.28 158.341 162.317 158.341 162.356H153.795V161.829H157.963L157.685 162.038C157.685 161.66 157.602 161.325 157.436 161.033C157.277 160.735 157.058 160.503 156.779 160.337C156.501 160.171 156.179 160.088 155.814 160.088C155.456 160.088 155.135 160.171 154.85 160.337C154.564 160.503 154.342 160.735 154.183 161.033C154.024 161.332 153.944 161.673 153.944 162.058V162.167C153.944 162.565 154.03 162.917 154.203 163.222C154.382 163.52 154.627 163.756 154.939 163.928C155.257 164.094 155.619 164.177 156.023 164.177C156.342 164.177 156.637 164.12 156.909 164.008C157.187 163.895 157.426 163.723 157.625 163.49L158.023 163.948C157.791 164.227 157.499 164.439 157.148 164.585C156.803 164.731 156.421 164.804 156.003 164.804ZM164.551 164.804C164.107 164.804 163.719 164.721 163.387 164.555C163.056 164.389 162.797 164.14 162.611 163.809C162.432 163.477 162.343 163.063 162.343 162.565V159.531H163.049V162.486C163.049 163.043 163.185 163.464 163.457 163.749C163.736 164.028 164.124 164.167 164.621 164.167C164.986 164.167 165.301 164.094 165.566 163.948C165.838 163.796 166.044 163.577 166.183 163.291C166.329 163.006 166.402 162.665 166.402 162.267V159.531H167.108V164.754H166.432V163.321L166.541 163.58C166.375 163.965 166.116 164.266 165.765 164.485C165.42 164.697 165.016 164.804 164.551 164.804ZM171.743 159.481C172.167 159.481 172.538 159.564 172.857 159.73C173.182 159.889 173.434 160.135 173.613 160.466C173.799 160.798 173.891 161.216 173.891 161.72V164.754H173.185V161.789C173.185 161.239 173.046 160.824 172.767 160.546C172.495 160.261 172.111 160.118 171.613 160.118C171.242 160.118 170.917 160.194 170.638 160.347C170.366 160.493 170.154 160.708 170.002 160.993C169.856 161.272 169.783 161.61 169.783 162.008V164.754H169.076V159.531H169.753V160.964L169.644 160.695C169.809 160.317 170.075 160.022 170.439 159.81C170.804 159.591 171.239 159.481 171.743 159.481ZM175.799 164.754V159.531H176.506V164.754H175.799ZM176.157 158.377C176.011 158.377 175.889 158.327 175.789 158.228C175.69 158.128 175.64 158.009 175.64 157.87C175.64 157.73 175.69 157.614 175.789 157.522C175.889 157.422 176.011 157.372 176.157 157.372C176.303 157.372 176.426 157.419 176.525 157.512C176.625 157.604 176.675 157.72 176.675 157.86C176.675 158.006 176.625 158.128 176.525 158.228C176.433 158.327 176.31 158.377 176.157 158.377ZM180.122 164.804C179.632 164.804 179.253 164.671 178.988 164.406C178.723 164.14 178.59 163.766 178.59 163.282V158.377H179.297V163.242C179.297 163.547 179.373 163.782 179.525 163.948C179.685 164.114 179.91 164.197 180.202 164.197C180.514 164.197 180.772 164.107 180.978 163.928L181.227 164.436C181.087 164.562 180.918 164.654 180.719 164.714C180.527 164.774 180.328 164.804 180.122 164.804ZM177.655 160.118V159.531H180.888V160.118H177.655Z" fill="#24211E"/>
<g filter="url(#filter5_d_26_128)">
<rect x="194.448" y="177.757" width="74.6113" height="15.544" rx="3.73056" fill="white"/>
</g>
<path d="M97.0608 189.62L94.7131 182.657H95.4691L97.6677 189.212H97.2896L99.5578 182.657H100.234L102.473 189.212H102.114L104.333 182.657H105.039L102.691 189.62H101.916L99.7767 183.403H99.9756L97.8268 189.62H97.0608ZM106.211 189.62V184.397H106.917V189.62H106.211ZM106.569 183.243C106.423 183.243 106.3 183.194 106.201 183.094C106.101 182.995 106.051 182.875 106.051 182.736C106.051 182.597 106.101 182.481 106.201 182.388C106.3 182.288 106.423 182.239 106.569 182.239C106.715 182.239 106.837 182.285 106.937 182.378C107.036 182.471 107.086 182.587 107.086 182.726C107.086 182.872 107.036 182.995 106.937 183.094C106.844 183.194 106.721 183.243 106.569 183.243ZM111.548 184.348C111.973 184.348 112.344 184.431 112.663 184.596C112.988 184.756 113.24 185.001 113.419 185.333C113.604 185.664 113.697 186.082 113.697 186.586V189.62H112.991V186.656C112.991 186.105 112.852 185.691 112.573 185.412C112.301 185.127 111.916 184.984 111.419 184.984C111.048 184.984 110.723 185.061 110.444 185.213C110.172 185.359 109.96 185.575 109.807 185.86C109.662 186.138 109.589 186.477 109.589 186.875V189.62H108.882V184.397H109.559V185.83L109.449 185.561C109.615 185.183 109.88 184.888 110.245 184.676C110.61 184.457 111.044 184.348 111.548 184.348ZM117.684 189.67C117.187 189.67 116.739 189.557 116.341 189.332C115.95 189.106 115.642 188.795 115.416 188.397C115.191 187.992 115.078 187.528 115.078 187.004C115.078 186.473 115.191 186.009 115.416 185.611C115.642 185.213 115.95 184.905 116.341 184.686C116.739 184.46 117.187 184.348 117.684 184.348C118.142 184.348 118.55 184.451 118.908 184.656C119.273 184.862 119.561 185.163 119.773 185.561C119.992 185.953 120.102 186.434 120.102 187.004C120.102 187.568 119.996 188.048 119.783 188.446C119.571 188.844 119.283 189.149 118.918 189.362C118.56 189.567 118.148 189.67 117.684 189.67ZM117.734 189.043C118.105 189.043 118.437 188.96 118.729 188.795C119.027 188.622 119.259 188.383 119.425 188.078C119.598 187.767 119.684 187.408 119.684 187.004C119.684 186.593 119.598 186.235 119.425 185.929C119.259 185.624 119.027 185.389 118.729 185.223C118.437 185.051 118.105 184.964 117.734 184.964C117.369 184.964 117.041 185.051 116.749 185.223C116.457 185.389 116.225 185.624 116.053 185.929C115.88 186.235 115.794 186.593 115.794 187.004C115.794 187.408 115.88 187.767 116.053 188.078C116.225 188.383 116.457 188.622 116.749 188.795C117.041 188.96 117.369 189.043 117.734 189.043ZM119.704 189.62V188.048L119.773 186.994L119.674 185.939V182.239H120.38V189.62H119.704ZM126.354 189.67C125.923 189.67 125.515 189.61 125.13 189.491C124.745 189.365 124.444 189.209 124.225 189.023L124.543 188.466C124.755 188.625 125.027 188.765 125.359 188.884C125.69 188.997 126.039 189.053 126.403 189.053C126.901 189.053 127.259 188.977 127.478 188.824C127.697 188.665 127.806 188.456 127.806 188.198C127.806 188.005 127.743 187.856 127.617 187.75C127.498 187.637 127.338 187.554 127.139 187.501C126.941 187.442 126.718 187.392 126.473 187.352C126.228 187.312 125.982 187.266 125.737 187.213C125.498 187.16 125.279 187.083 125.08 186.984C124.881 186.878 124.719 186.735 124.593 186.556C124.473 186.377 124.414 186.138 124.414 185.84C124.414 185.555 124.493 185.299 124.652 185.074C124.812 184.848 125.044 184.673 125.349 184.547C125.661 184.414 126.039 184.348 126.483 184.348C126.821 184.348 127.159 184.394 127.498 184.487C127.836 184.573 128.114 184.689 128.333 184.835L128.025 185.402C127.793 185.243 127.544 185.13 127.279 185.064C127.013 184.991 126.748 184.955 126.483 184.955C126.012 184.955 125.664 185.037 125.438 185.203C125.22 185.362 125.11 185.568 125.11 185.82C125.11 186.019 125.17 186.175 125.289 186.288C125.415 186.4 125.578 186.49 125.777 186.556C125.982 186.616 126.204 186.666 126.443 186.705C126.689 186.745 126.931 186.795 127.169 186.855C127.415 186.908 127.637 186.984 127.836 187.083C128.041 187.176 128.204 187.312 128.323 187.491C128.449 187.664 128.512 187.893 128.512 188.178C128.512 188.483 128.426 188.748 128.254 188.974C128.088 189.192 127.843 189.365 127.518 189.491C127.199 189.61 126.811 189.67 126.354 189.67ZM132.504 189.67C132.053 189.67 131.645 189.567 131.281 189.362C130.916 189.149 130.624 188.848 130.405 188.456C130.193 188.058 130.087 187.574 130.087 187.004C130.087 186.434 130.193 185.953 130.405 185.561C130.618 185.163 130.906 184.862 131.271 184.656C131.636 184.451 132.047 184.348 132.504 184.348C133.002 184.348 133.446 184.46 133.837 184.686C134.235 184.905 134.547 185.217 134.773 185.621C134.998 186.019 135.111 186.48 135.111 187.004C135.111 187.534 134.998 187.999 134.773 188.397C134.547 188.795 134.235 189.106 133.837 189.332C133.446 189.557 133.002 189.67 132.504 189.67ZM129.808 191.55V184.397H130.485V185.969L130.415 187.014L130.515 188.068V191.55H129.808ZM132.455 189.043C132.826 189.043 133.158 188.96 133.449 188.795C133.741 188.622 133.973 188.383 134.146 188.078C134.318 187.767 134.404 187.408 134.404 187.004C134.404 186.599 134.318 186.244 134.146 185.939C133.973 185.634 133.741 185.396 133.449 185.223C133.158 185.051 132.826 184.964 132.455 184.964C132.083 184.964 131.748 185.051 131.45 185.223C131.158 185.396 130.926 185.634 130.753 185.939C130.588 186.244 130.505 186.599 130.505 187.004C130.505 187.408 130.588 187.767 130.753 188.078C130.926 188.383 131.158 188.622 131.45 188.795C131.748 188.96 132.083 189.043 132.455 189.043ZM138.769 189.67C138.225 189.67 137.748 189.557 137.337 189.332C136.925 189.1 136.604 188.785 136.372 188.387C136.139 187.982 136.023 187.521 136.023 187.004C136.023 186.487 136.133 186.029 136.352 185.631C136.577 185.233 136.882 184.921 137.267 184.696C137.658 184.464 138.096 184.348 138.58 184.348C139.071 184.348 139.505 184.46 139.883 184.686C140.268 184.905 140.57 185.217 140.789 185.621C141.007 186.019 141.117 186.48 141.117 187.004C141.117 187.037 141.114 187.074 141.107 187.113C141.107 187.146 141.107 187.183 141.107 187.223H136.561V186.695H140.729L140.45 186.904C140.45 186.526 140.367 186.191 140.202 185.9C140.042 185.601 139.824 185.369 139.545 185.203C139.266 185.037 138.945 184.955 138.58 184.955C138.222 184.955 137.9 185.037 137.615 185.203C137.33 185.369 137.108 185.601 136.949 185.9C136.789 186.198 136.71 186.54 136.71 186.924V187.034C136.71 187.432 136.796 187.783 136.968 188.088C137.148 188.387 137.393 188.622 137.705 188.795C138.023 188.96 138.384 189.043 138.789 189.043C139.107 189.043 139.402 188.987 139.674 188.874C139.953 188.761 140.192 188.589 140.391 188.357L140.789 188.814C140.556 189.093 140.265 189.305 139.913 189.451C139.568 189.597 139.187 189.67 138.769 189.67ZM144.773 189.67C144.229 189.67 143.752 189.557 143.34 189.332C142.929 189.1 142.608 188.785 142.375 188.387C142.143 187.982 142.027 187.521 142.027 187.004C142.027 186.487 142.137 186.029 142.356 185.631C142.581 185.233 142.886 184.921 143.271 184.696C143.662 184.464 144.1 184.348 144.584 184.348C145.075 184.348 145.509 184.46 145.887 184.686C146.272 184.905 146.574 185.217 146.792 185.621C147.011 186.019 147.121 186.48 147.121 187.004C147.121 187.037 147.117 187.074 147.111 187.113C147.111 187.146 147.111 187.183 147.111 187.223H142.564V186.695H146.733L146.454 186.904C146.454 186.526 146.371 186.191 146.205 185.9C146.046 185.601 145.827 185.369 145.549 185.203C145.27 185.037 144.949 184.955 144.584 184.955C144.226 184.955 143.904 185.037 143.619 185.203C143.334 185.369 143.112 185.601 142.952 185.9C142.793 186.198 142.714 186.54 142.714 186.924V187.034C142.714 187.432 142.8 187.783 142.972 188.088C143.151 188.387 143.397 188.622 143.708 188.795C144.027 188.96 144.388 189.043 144.793 189.043C145.111 189.043 145.406 188.987 145.678 188.874C145.957 188.761 146.196 188.589 146.394 188.357L146.792 188.814C146.56 189.093 146.268 189.305 145.917 189.451C145.572 189.597 145.191 189.67 144.773 189.67ZM150.638 189.67C150.14 189.67 149.692 189.557 149.295 189.332C148.903 189.106 148.595 188.795 148.369 188.397C148.144 187.992 148.031 187.528 148.031 187.004C148.031 186.473 148.144 186.009 148.369 185.611C148.595 185.213 148.903 184.905 149.295 184.686C149.692 184.46 150.14 184.348 150.638 184.348C151.095 184.348 151.503 184.451 151.861 184.656C152.226 184.862 152.514 185.163 152.727 185.561C152.946 185.953 153.055 186.434 153.055 187.004C153.055 187.568 152.949 188.048 152.737 188.446C152.524 188.844 152.236 189.149 151.871 189.362C151.513 189.567 151.102 189.67 150.638 189.67ZM150.687 189.043C151.059 189.043 151.39 188.96 151.682 188.795C151.981 188.622 152.213 188.383 152.378 188.078C152.551 187.767 152.637 187.408 152.637 187.004C152.637 186.593 152.551 186.235 152.378 185.929C152.213 185.624 151.981 185.389 151.682 185.223C151.39 185.051 151.059 184.964 150.687 184.964C150.323 184.964 149.994 185.051 149.702 185.223C149.411 185.389 149.178 185.624 149.006 185.929C148.834 186.235 148.747 186.593 148.747 187.004C148.747 187.408 148.834 187.767 149.006 188.078C149.178 188.383 149.411 188.622 149.702 188.795C149.994 188.96 150.323 189.043 150.687 189.043ZM152.657 189.62V188.048L152.727 186.994L152.627 185.939V182.239H153.333V189.62H152.657ZM160.063 189.67C159.619 189.67 159.231 189.587 158.899 189.421C158.567 189.255 158.309 189.007 158.123 188.675C157.944 188.344 157.854 187.929 157.854 187.432V184.397H158.561V187.352C158.561 187.909 158.697 188.33 158.969 188.615C159.247 188.894 159.635 189.033 160.133 189.033C160.497 189.033 160.812 188.96 161.078 188.814C161.35 188.662 161.555 188.443 161.694 188.158C161.84 187.873 161.913 187.531 161.913 187.133V184.397H162.62V189.62H161.943V188.188L162.053 188.446C161.887 188.831 161.628 189.133 161.277 189.352C160.932 189.564 160.527 189.67 160.063 189.67ZM167.254 184.348C167.679 184.348 168.05 184.431 168.368 184.596C168.693 184.756 168.945 185.001 169.124 185.333C169.31 185.664 169.403 186.082 169.403 186.586V189.62H168.697V186.656C168.697 186.105 168.557 185.691 168.279 185.412C168.007 185.127 167.622 184.984 167.125 184.984C166.754 184.984 166.429 185.061 166.15 185.213C165.878 185.359 165.666 185.575 165.513 185.86C165.367 186.138 165.294 186.477 165.294 186.875V189.62H164.588V184.397H165.265V185.83L165.155 185.561C165.321 185.183 165.586 184.888 165.951 184.676C166.316 184.457 166.75 184.348 167.254 184.348ZM171.311 189.62V184.397H172.017V189.62H171.311ZM171.669 183.243C171.523 183.243 171.4 183.194 171.301 183.094C171.201 182.995 171.152 182.875 171.152 182.736C171.152 182.597 171.201 182.481 171.301 182.388C171.4 182.288 171.523 182.239 171.669 182.239C171.815 182.239 171.938 182.285 172.037 182.378C172.137 182.471 172.186 182.587 172.186 182.726C172.186 182.872 172.137 182.995 172.037 183.094C171.944 183.194 171.822 183.243 171.669 183.243ZM175.634 189.67C175.143 189.67 174.765 189.537 174.5 189.272C174.235 189.007 174.102 188.632 174.102 188.148V183.243H174.808V188.108C174.808 188.413 174.885 188.649 175.037 188.814C175.196 188.98 175.422 189.063 175.714 189.063C176.025 189.063 176.284 188.974 176.489 188.795L176.738 189.302C176.599 189.428 176.43 189.521 176.231 189.58C176.039 189.64 175.84 189.67 175.634 189.67ZM173.167 184.984V184.397H176.4V184.984H173.167Z" fill="#24211E"/>
<path fill-rule="evenodd" clip-rule="evenodd" d="M264.501 183.999L260.203 188.729C259.939 189.02 259.511 189.02 259.248 188.729L254.949 183.999C254.685 183.708 254.685 183.238 254.949 182.947C255.213 182.657 255.64 182.657 255.904 182.947L259.725 187.152L263.546 182.947C263.81 182.657 264.238 182.657 264.501 182.947C264.765 183.238 264.765 183.708 264.501 183.999Z" fill="#24211E"/>
<path d="M206.325 184.348C206.75 184.348 207.118 184.431 207.43 184.596C207.748 184.756 207.993 185.001 208.166 185.333C208.345 185.664 208.434 186.082 208.434 186.586V189.62H207.728V186.656C207.728 186.105 207.595 185.691 207.33 185.412C207.071 185.127 206.703 184.984 206.226 184.984C205.868 184.984 205.556 185.061 205.291 185.213C205.032 185.359 204.83 185.575 204.684 185.86C204.545 186.138 204.475 186.477 204.475 186.875V189.62H203.769V186.656C203.769 186.105 203.636 185.691 203.371 185.412C203.105 185.127 202.734 184.984 202.257 184.984C201.905 184.984 201.597 185.061 201.331 185.213C201.066 185.359 200.86 185.575 200.715 185.86C200.575 186.138 200.506 186.477 200.506 186.875V189.62H199.799V184.397H200.476V185.81L200.366 185.561C200.526 185.183 200.781 184.888 201.132 184.676C201.491 184.457 201.912 184.348 202.396 184.348C202.906 184.348 203.341 184.477 203.699 184.736C204.057 184.988 204.289 185.369 204.395 185.88L204.117 185.77C204.269 185.346 204.538 185.004 204.923 184.746C205.314 184.48 205.781 184.348 206.325 184.348ZM209.116 190.615L212.399 181.244H213.046L209.763 190.615H209.116ZM214.405 189.67C213.974 189.67 213.566 189.61 213.181 189.491C212.796 189.365 212.495 189.209 212.276 189.023L212.594 188.466C212.806 188.625 213.078 188.765 213.41 188.884C213.741 188.997 214.09 189.053 214.454 189.053C214.952 189.053 215.31 188.977 215.529 188.824C215.748 188.665 215.857 188.456 215.857 188.198C215.857 188.005 215.794 187.856 215.668 187.75C215.549 187.637 215.39 187.554 215.191 187.501C214.992 187.442 214.769 187.392 214.524 187.352C214.279 187.312 214.033 187.266 213.788 187.213C213.549 187.16 213.33 187.083 213.131 186.984C212.932 186.878 212.77 186.735 212.644 186.556C212.525 186.377 212.465 186.138 212.465 185.84C212.465 185.555 212.544 185.299 212.704 185.074C212.863 184.848 213.095 184.673 213.4 184.547C213.712 184.414 214.09 184.348 214.534 184.348C214.872 184.348 215.211 184.394 215.549 184.487C215.887 184.573 216.166 184.689 216.384 184.835L216.076 185.402C215.844 185.243 215.595 185.13 215.33 185.064C215.065 184.991 214.799 184.955 214.534 184.955C214.063 184.955 213.715 185.037 213.489 185.203C213.271 185.362 213.161 185.568 213.161 185.82C213.161 186.019 213.221 186.175 213.34 186.288C213.466 186.4 213.629 186.49 213.828 186.556C214.033 186.616 214.255 186.666 214.494 186.705C214.74 186.745 214.982 186.795 215.22 186.855C215.466 186.908 215.688 186.984 215.887 187.083C216.093 187.176 216.255 187.312 216.374 187.491C216.5 187.664 216.563 187.893 216.563 188.178C216.563 188.483 216.477 188.748 216.305 188.974C216.139 189.192 215.894 189.365 215.569 189.491C215.25 189.61 214.862 189.67 214.405 189.67Z" fill="#24211E"/>
<g filter="url(#filter6_d_26_128)">
<rect x="194.245" y="144.622" width="74.6113" height="31.088" rx="3.73056" fill="white"/>
</g>
<rect x="196.121" y="146.489" width="70.8807" height="14.9223" rx="1.86528" fill="#1B75BA"/>
<path d="M201.062 157.791C200.505 157.791 200.024 157.711 199.619 157.552C199.221 157.393 198.913 157.164 198.694 156.866C198.482 156.561 198.376 156.202 198.376 155.791C198.376 155.393 198.479 155.055 198.684 154.777C198.896 154.491 199.201 154.273 199.599 154.12C200.004 153.967 200.491 153.891 201.062 153.891C201.625 153.891 202.11 153.967 202.514 154.12C202.919 154.273 203.227 154.491 203.439 154.777C203.658 155.055 203.768 155.393 203.768 155.791C203.768 156.202 203.658 156.561 203.439 156.866C203.22 157.164 202.909 157.393 202.504 157.552C202.1 157.711 201.619 157.791 201.062 157.791ZM201.062 157.184C201.678 157.184 202.159 157.058 202.504 156.806C202.856 156.554 203.031 156.212 203.031 155.781C203.031 155.35 202.856 155.012 202.504 154.767C202.159 154.515 201.678 154.389 201.062 154.389C200.445 154.389 199.964 154.515 199.619 154.767C199.274 155.012 199.102 155.35 199.102 155.781C199.102 156.212 199.274 156.554 199.619 156.806C199.964 157.058 200.445 157.184 201.062 157.184ZM201.062 154.299C200.544 154.299 200.103 154.229 199.739 154.09C199.38 153.951 199.105 153.752 198.913 153.493C198.721 153.228 198.624 152.913 198.624 152.548C198.624 152.164 198.724 151.835 198.923 151.563C199.128 151.285 199.414 151.073 199.778 150.927C200.143 150.781 200.571 150.708 201.062 150.708C201.552 150.708 201.98 150.781 202.345 150.927C202.716 151.073 203.005 151.285 203.211 151.563C203.416 151.835 203.519 152.164 203.519 152.548C203.519 152.913 203.423 153.228 203.23 153.493C203.038 153.752 202.756 153.951 202.385 154.09C202.02 154.229 201.579 154.299 201.062 154.299ZM201.062 153.822C201.606 153.822 202.03 153.709 202.335 153.483C202.64 153.258 202.793 152.956 202.793 152.578C202.793 152.18 202.634 151.872 202.315 151.653C202.003 151.427 201.586 151.315 201.062 151.315C200.538 151.315 200.12 151.427 199.808 151.653C199.497 151.872 199.341 152.177 199.341 152.568C199.341 152.953 199.49 153.258 199.788 153.483C200.093 153.709 200.518 153.822 201.062 153.822ZM207.615 157.791C206.998 157.791 206.477 157.655 206.053 157.383C205.628 157.104 205.307 156.707 205.088 156.189C204.869 155.665 204.759 155.039 204.759 154.309C204.759 153.52 204.892 152.86 205.157 152.329C205.429 151.792 205.804 151.388 206.281 151.116C206.759 150.844 207.313 150.708 207.943 150.708C208.255 150.708 208.553 150.738 208.838 150.797C209.123 150.857 209.375 150.953 209.594 151.086L209.306 151.663C209.127 151.543 208.921 151.461 208.689 151.414C208.457 151.361 208.211 151.335 207.953 151.335C207.203 151.335 206.603 151.573 206.152 152.051C205.708 152.528 205.486 153.241 205.486 154.19C205.486 154.336 205.492 154.518 205.506 154.737C205.525 154.949 205.565 155.161 205.625 155.373L205.376 155.184C205.449 154.84 205.592 154.548 205.804 154.309C206.016 154.064 206.281 153.878 206.6 153.752C206.918 153.626 207.266 153.563 207.644 153.563C208.109 153.563 208.516 153.649 208.868 153.822C209.219 153.994 209.495 154.236 209.694 154.548C209.893 154.859 209.992 155.228 209.992 155.652C209.992 156.083 209.889 156.461 209.684 156.786C209.478 157.104 209.193 157.353 208.828 157.532C208.47 157.705 208.066 157.791 207.615 157.791ZM207.585 157.184C207.916 157.184 208.208 157.124 208.46 157.005C208.719 156.879 208.921 156.703 209.067 156.478C209.213 156.246 209.286 155.977 209.286 155.672C209.286 155.214 209.127 154.85 208.808 154.578C208.497 154.306 208.072 154.17 207.535 154.17C207.177 154.17 206.865 154.236 206.6 154.369C206.335 154.501 206.126 154.684 205.973 154.916C205.821 155.141 205.744 155.4 205.744 155.692C205.744 155.944 205.814 156.186 205.953 156.418C206.092 156.644 206.298 156.829 206.57 156.975C206.849 157.114 207.187 157.184 207.585 157.184ZM213.468 157.791C212.911 157.791 212.43 157.711 212.025 157.552C211.627 157.393 211.319 157.164 211.1 156.866C210.888 156.561 210.782 156.202 210.782 155.791C210.782 155.393 210.885 155.055 211.09 154.777C211.302 154.491 211.607 154.273 212.005 154.12C212.41 153.967 212.897 153.891 213.468 153.891C214.032 153.891 214.516 153.967 214.92 154.12C215.325 154.273 215.633 154.491 215.845 154.777C216.064 155.055 216.174 155.393 216.174 155.791C216.174 156.202 216.064 156.561 215.845 156.866C215.627 157.164 215.315 157.393 214.91 157.552C214.506 157.711 214.025 157.791 213.468 157.791ZM213.468 157.184C214.085 157.184 214.565 157.058 214.91 156.806C215.262 156.554 215.438 156.212 215.438 155.781C215.438 155.35 215.262 155.012 214.91 154.767C214.565 154.515 214.085 154.389 213.468 154.389C212.851 154.389 212.37 154.515 212.025 154.767C211.68 155.012 211.508 155.35 211.508 155.781C211.508 156.212 211.68 156.554 212.025 156.806C212.37 157.058 212.851 157.184 213.468 157.184ZM213.468 154.299C212.95 154.299 212.509 154.229 212.145 154.09C211.787 153.951 211.511 153.752 211.319 153.493C211.127 153.228 211.03 152.913 211.03 152.548C211.03 152.164 211.13 151.835 211.329 151.563C211.535 151.285 211.82 151.073 212.184 150.927C212.549 150.781 212.977 150.708 213.468 150.708C213.959 150.708 214.386 150.781 214.751 150.927C215.122 151.073 215.411 151.285 215.617 151.563C215.822 151.835 215.925 152.164 215.925 152.548C215.925 152.913 215.829 153.228 215.636 153.493C215.444 153.752 215.162 153.951 214.791 154.09C214.426 154.229 213.985 154.299 213.468 154.299ZM213.468 153.822C214.012 153.822 214.436 153.709 214.741 153.483C215.046 153.258 215.199 152.956 215.199 152.578C215.199 152.18 215.04 151.872 214.721 151.653C214.41 151.427 213.992 151.315 213.468 151.315C212.944 151.315 212.526 151.427 212.214 151.653C211.903 151.872 211.747 152.177 211.747 152.568C211.747 152.953 211.896 153.258 212.194 153.483C212.499 153.709 212.924 153.822 213.468 153.822ZM220.386 157.731V150.767H220.993L224.176 156.199H223.858L227.011 150.767H227.618V157.731H226.912V151.872H227.081L224.176 156.846H223.828L220.903 151.872H221.092V157.731H220.386ZM234.981 150.767H235.707V157.731H234.981V150.767ZM230.623 157.731H229.887V150.767H230.623V157.731ZM235.05 154.518H230.544V153.871H235.05V154.518ZM237.263 157.731V157.264L240.745 152.857L240.895 153.095H237.323V152.508H241.452V152.966L237.98 157.383L237.801 157.144H241.521V157.731H237.263Z" fill="white"/>
<path d="M201.199 164.388C201.816 164.388 202.337 164.527 202.761 164.805C203.186 165.077 203.507 165.472 203.726 165.989C203.945 166.507 204.054 167.133 204.054 167.869C204.054 168.652 203.918 169.312 203.646 169.849C203.381 170.386 203.01 170.791 202.532 171.063C202.055 171.335 201.501 171.471 200.871 171.471C200.559 171.471 200.261 171.441 199.976 171.381C199.697 171.321 199.445 171.225 199.22 171.093L199.508 170.516C199.687 170.635 199.893 170.721 200.125 170.774C200.364 170.821 200.609 170.844 200.861 170.844C201.61 170.844 202.207 170.605 202.652 170.128C203.103 169.65 203.328 168.937 203.328 167.989C203.328 167.836 203.318 167.654 203.298 167.442C203.285 167.229 203.249 167.017 203.189 166.805L203.438 166.994C203.371 167.339 203.229 167.634 203.01 167.879C202.798 168.118 202.532 168.301 202.214 168.427C201.902 168.553 201.554 168.616 201.169 168.616C200.712 168.616 200.304 168.529 199.946 168.357C199.594 168.184 199.319 167.942 199.12 167.631C198.921 167.319 198.822 166.951 198.822 166.526C198.822 166.089 198.924 165.711 199.13 165.392C199.336 165.074 199.617 164.829 199.976 164.656C200.34 164.477 200.748 164.388 201.199 164.388ZM201.229 164.994C200.897 164.994 200.602 165.057 200.344 165.183C200.092 165.303 199.893 165.475 199.747 165.701C199.601 165.926 199.528 166.195 199.528 166.507C199.528 166.964 199.684 167.329 199.995 167.601C200.314 167.873 200.742 168.009 201.279 168.009C201.637 168.009 201.949 167.942 202.214 167.81C202.486 167.677 202.695 167.495 202.841 167.263C202.993 167.031 203.069 166.772 203.069 166.487C203.069 166.228 203 165.986 202.861 165.76C202.721 165.535 202.516 165.353 202.244 165.213C201.972 165.067 201.634 164.994 201.229 164.994ZM206.306 171.411V164.746L206.625 165.084H204.665V164.447H207.023V171.411H206.306ZM210.886 171.471C210.388 171.471 209.914 171.391 209.463 171.232C209.012 171.066 208.654 170.847 208.389 170.575L208.737 170.008C208.956 170.24 209.254 170.433 209.632 170.585C210.017 170.738 210.431 170.814 210.876 170.814C211.466 170.814 211.914 170.685 212.219 170.426C212.531 170.161 212.686 169.816 212.686 169.392C212.686 169.093 212.613 168.838 212.468 168.626C212.328 168.407 212.089 168.238 211.751 168.118C211.413 167.999 210.949 167.939 210.358 167.939H208.876L209.234 164.447H213.045V165.084H209.523L209.891 164.736L209.583 167.661L209.214 167.302H210.518C211.221 167.302 211.784 167.389 212.209 167.561C212.633 167.734 212.938 167.976 213.124 168.287C213.316 168.592 213.413 168.95 213.413 169.362C213.413 169.753 213.32 170.111 213.134 170.436C212.948 170.754 212.67 171.006 212.298 171.192C211.927 171.378 211.456 171.471 210.886 171.471ZM217.542 171.411V164.447H218.149L221.333 169.879H221.014L224.168 164.447H224.775V171.411H224.068V165.552H224.237L221.333 170.526H220.984L218.06 165.552H218.249V171.411H217.542ZM232.137 164.447H232.863V171.411H232.137V164.447ZM227.78 171.411H227.044V164.447H227.78V171.411ZM232.207 168.198H227.7V167.551H232.207V168.198ZM234.42 171.411V170.943L237.902 166.536L238.051 166.775H234.48V166.188H238.608V166.646L235.136 171.063L234.957 170.824H238.678V171.411H234.42Z" fill="#24211E"/>
<g filter="url(#filter7_i_26_128)">
<rect x="274.112" y="52.7756" width="4.35232" height="73.3677" rx="2.17616" fill="#CAC9C9"/>
</g>
</g>
<defs>
<filter id="filter0_d_26_128" x="0.0415535" y="0.564793" width="364.409" height="363.573" filterUnits="userSpaceOnUse" color-interpolation-filters="sRGB">
<feFlood flood-opacity="0" result="BackgroundImageFix"/>
<feColorMatrix in="SourceAlpha" type="matrix" values="0 0 0 0 0 0 0 0 0 0 0 0 0 0 0 0 0 0 127 0" result="hardAlpha"/>
<feOffset dy="43.5232"/>
<feGaussianBlur stdDeviation="27.9792"/>
<feComposite in2="hardAlpha" operator="out"/>
<feColorMatrix type="matrix" values="0 0 0 0 0 0 0 0 0 0 0 0 0 0 0 0 0 0 0.25 0"/>
<feBlend mode="normal" in2="BackgroundImageFix" result="effect1_dropShadow_26_128"/>
<feBlend mode="normal" in="SourceGraphic" in2="effect1_dropShadow_26_128" result="shape"/>
</filter>
<filter id="filter1_i_26_128" x="56" y="13" width="252.492" height="251.656" filterUnits="userSpaceOnUse" color-interpolation-filters="sRGB">
<feFlood flood-opacity="0" result="BackgroundImageFix"/>
<feBlend mode="normal" in="SourceGraphic" in2="BackgroundImageFix" result="shape"/>
<feColorMatrix in="SourceAlpha" type="matrix" values="0 0 0 0 0 0 0 0 0 0 0 0 0 0 0 0 0 0 127 0" result="hardAlpha"/>
<feOffset/>
<feGaussianBlur stdDeviation="4.6632"/>
<feComposite in2="hardAlpha" operator="arithmetic" k2="-1" k3="1"/>
<feColorMatrix type="matrix" values="0 0 0 0 0 0 0 0 0 0 0 0 0 0 0 0 0 0 1 0"/>
<feBlend mode="normal" in2="shape" result="effect1_innerShadow_26_128"/>
</filter>
<filter id="filter2_d_26_128" x="88.7984" y="92.5727" width="185.285" height="23.6269" filterUnits="userSpaceOnUse" color-interpolation-filters="sRGB">
<feFlood flood-opacity="0" result="BackgroundImageFix"/>
<feColorMatrix in="SourceAlpha" type="matrix" values="0 0 0 0 0 0 0 0 0 0 0 0 0 0 0 0 0 0 127 0" result="hardAlpha"/>
<feOffset/>
<feGaussianBlur stdDeviation="1.24352"/>
<feComposite in2="hardAlpha" operator="out"/>
<feColorMatrix type="matrix" values="0 0 0 0 0 0 0 0 0 0 0 0 0 0 0 0 0 0 0.25 0"/>
<feBlend mode="normal" in2="BackgroundImageFix" result="effect1_dropShadow_26_128"/>
<feBlend mode="normal" in="SourceGraphic" in2="effect1_dropShadow_26_128" result="shape"/>
</filter>
<filter id="filter3_d_26_128" x="193.205" y="126.772" width="77.0984" height="18.031" filterUnits="userSpaceOnUse" color-interpolation-filters="sRGB">
<feFlood flood-opacity="0" result="BackgroundImageFix"/>
<feColorMatrix in="SourceAlpha" type="matrix" values="0 0 0 0 0 0 0 0 0 0 0 0 0 0 0 0 0 0 127 0" result="hardAlpha"/>
<feOffset/>
<feGaussianBlur stdDeviation="0.621761"/>
<feComposite in2="hardAlpha" operator="out"/>
<feColorMatrix type="matrix" values="0 0 0 0 0 0 0 0 0 0 0 0 0 0 0 0 0 0 0.25 0"/>
<feBlend mode="normal" in2="BackgroundImageFix" result="effect1_dropShadow_26_128"/>
<feBlend mode="normal" in="SourceGraphic" in2="effect1_dropShadow_26_128" result="shape"/>
</filter>
<filter id="filter4_d_26_128" x="193.001" y="152.485" width="77.0984" height="18.031" filterUnits="userSpaceOnUse" color-interpolation-filters="sRGB">
<feFlood flood-opacity="0" result="BackgroundImageFix"/>
<feColorMatrix in="SourceAlpha" type="matrix" values="0 0 0 0 0 0 0 0 0 0 0 0 0 0 0 0 0 0 127 0" result="hardAlpha"/>
<feOffset/>
<feGaussianBlur stdDeviation="0.621761"/>
<feComposite in2="hardAlpha" operator="out"/>
<feColorMatrix type="matrix" values="0 0 0 0 0 0 0 0 0 0 0 0 0 0 0 0 0 0 0.25 0"/>
<feBlend mode="normal" in2="BackgroundImageFix" result="effect1_dropShadow_26_128"/>
<feBlend mode="normal" in="SourceGraphic" in2="effect1_dropShadow_26_128" result="shape"/>
</filter>
<filter id="filter5_d_26_128" x="193.205" y="176.513" width="77.0984" height="18.031" filterUnits="userSpaceOnUse" color-interpolation-filters="sRGB">
<feFlood flood-opacity="0" result="BackgroundImageFix"/>
<feColorMatrix in="SourceAlpha" type="matrix" values="0 0 0 0 0 0 0 0 0 0 0 0 0 0 0 0 0 0 127 0" result="hardAlpha"/>
<feOffset/>
<feGaussianBlur stdDeviation="0.621761"/>
<feComposite in2="hardAlpha" operator="out"/>
<feColorMatrix type="matrix" values="0 0 0 0 0 0 0 0 0 0 0 0 0 0 0 0 0 0 0.25 0"/>
<feBlend mode="normal" in2="BackgroundImageFix" result="effect1_dropShadow_26_128"/>
<feBlend mode="normal" in="SourceGraphic" in2="effect1_dropShadow_26_128" result="shape"/>
</filter>
<filter id="filter6_d_26_128" x="191.758" y="143.379" width="79.5854" height="36.0621" filterUnits="userSpaceOnUse" color-interpolation-filters="sRGB">
<feFlood flood-opacity="0" result="BackgroundImageFix"/>
<feColorMatrix in="SourceAlpha" type="matrix" values="0 0 0 0 0 0 0 0 0 0 0 0 0 0 0 0 0 0 127 0" result="hardAlpha"/>
<feOffset dy="1.24352"/>
<feGaussianBlur stdDeviation="1.24352"/>
<feComposite in2="hardAlpha" operator="out"/>
<feColorMatrix type="matrix" values="0 0 0 0 0 0 0 0 0 0 0 0 0 0 0 0 0 0 0.25 0"/>
<feBlend mode="normal" in2="BackgroundImageFix" result="effect1_dropShadow_26_128"/>
<feBlend mode="normal" in="SourceGraphic" in2="effect1_dropShadow_26_128" result="shape"/>
</filter>
<filter id="filter7_i_26_128" x="274.112" y="52.7756" width="4.35229" height="73.3677" filterUnits="userSpaceOnUse" color-interpolation-filters="sRGB">
<feFlood flood-opacity="0" result="BackgroundImageFix"/>
<feBlend mode="normal" in="SourceGraphic" in2="BackgroundImageFix" result="shape"/>
<feColorMatrix in="SourceAlpha" type="matrix" values="0 0 0 0 0 0 0 0 0 0 0 0 0 0 0 0 0 0 127 0" result="hardAlpha"/>
<feOffset/>
<feGaussianBlur stdDeviation="0.621761"/>
<feComposite in2="hardAlpha" operator="arithmetic" k2="-1" k3="1"/>
<feColorMatrix type="matrix" values="0 0 0 0 0 0 0 0 0 0 0 0 0 0 0 0 0 0 0.25 0"/>
<feBlend mode="normal" in2="shape" result="effect1_innerShadow_26_128"/>
</filter>
</defs>
</svg>
