<svg fill="none" height="500" viewBox="0 0 501 500" width="501" xmlns="http://www.w3.org/2000/svg" xmlns:xlink="http://www.w3.org/1999/xlink"><filter id="a" color-interpolation-filters="sRGB" filterUnits="userSpaceOnUse" height="363.573" width="364.409" x="68.2139" y="111.737"><feFlood flood-opacity="0" result="BackgroundImageFix"/><feColorMatrix in="SourceAlpha" result="hardAlpha" type="matrix" values="0 0 0 0 0 0 0 0 0 0 0 0 0 0 0 0 0 0 127 0"/><feOffset dy="43.5232"/><feGaussianBlur stdDeviation="27.9792"/><feComposite in2="hardAlpha" operator="out"/><feColorMatrix type="matrix" values="0 0 0 0 0 0 0 0 0 0 0 0 0 0 0 0 0 0 0.25 0"/><feBlend in2="BackgroundImageFix" mode="normal" result="effect1_dropShadow_28_390"/><feBlend in="SourceGraphic" in2="effect1_dropShadow_28_390" mode="normal" result="shape"/></filter><filter id="b" color-interpolation-filters="sRGB" filterUnits="userSpaceOnUse" height="251.656" width="252.492" x="124.172" y="124.172"><feFlood flood-opacity="0" result="BackgroundImageFix"/><feBlend in="SourceGraphic" in2="BackgroundImageFix" mode="normal" result="shape"/><feColorMatrix in="SourceAlpha" result="hardAlpha" type="matrix" values="0 0 0 0 0 0 0 0 0 0 0 0 0 0 0 0 0 0 127 0"/><feOffset/><feGaussianBlur stdDeviation="4.6632"/><feComposite in2="hardAlpha" k2="-1" k3="1" operator="arithmetic"/><feColorMatrix type="matrix" values="0 0 0 0 0 0 0 0 0 0 0 0 0 0 0 0 0 0 1 0"/><feBlend in2="shape" mode="normal" result="effect1_innerShadow_28_390"/></filter><filter id="c" color-interpolation-filters="sRGB" filterUnits="userSpaceOnUse" height="23.6269" width="185.285" x="156.971" y="203.745"><feFlood flood-opacity="0" result="BackgroundImageFix"/><feColorMatrix in="SourceAlpha" result="hardAlpha" type="matrix" values="0 0 0 0 0 0 0 0 0 0 0 0 0 0 0 0 0 0 127 0"/><feOffset/><feGaussianBlur stdDeviation="1.24352"/><feComposite in2="hardAlpha" operator="out"/><feColorMatrix type="matrix" values="0 0 0 0 0 0 0 0 0 0 0 0 0 0 0 0 0 0 0.25 0"/><feBlend in2="BackgroundImageFix" mode="normal" result="effect1_dropShadow_28_390"/><feBlend in="SourceGraphic" in2="effect1_dropShadow_28_390" mode="normal" result="shape"/></filter><filter id="d" color-interpolation-filters="sRGB" filterUnits="userSpaceOnUse" height="18.031" width="77.0984" x="261.377" y="237.944"><feFlood flood-opacity="0" result="BackgroundImageFix"/><feColorMatrix in="SourceAlpha" result="hardAlpha" type="matrix" values="0 0 0 0 0 0 0 0 0 0 0 0 0 0 0 0 0 0 127 0"/><feOffset/><feGaussianBlur stdDeviation=".621761"/><feComposite in2="hardAlpha" operator="out"/><feColorMatrix type="matrix" values="0 0 0 0 0 0 0 0 0 0 0 0 0 0 0 0 0 0 0.25 0"/><feBlend in2="BackgroundImageFix" mode="normal" result="effect1_dropShadow_28_390"/><feBlend in="SourceGraphic" in2="effect1_dropShadow_28_390" mode="normal" result="shape"/></filter><filter id="e" color-interpolation-filters="sRGB" filterUnits="userSpaceOnUse" height="18.031" width="77.0984" x="261.174" y="263.657"><feFlood flood-opacity="0" result="BackgroundImageFix"/><feColorMatrix in="SourceAlpha" result="hardAlpha" type="matrix" values="0 0 0 0 0 0 0 0 0 0 0 0 0 0 0 0 0 0 127 0"/><feOffset/><feGaussianBlur stdDeviation=".621761"/><feComposite in2="hardAlpha" operator="out"/><feColorMatrix type="matrix" values="0 0 0 0 0 0 0 0 0 0 0 0 0 0 0 0 0 0 0.25 0"/><feBlend in2="BackgroundImageFix" mode="normal" result="effect1_dropShadow_28_390"/><feBlend in="SourceGraphic" in2="effect1_dropShadow_28_390" mode="normal" result="shape"/></filter><filter id="f" color-interpolation-filters="sRGB" filterUnits="userSpaceOnUse" height="18.031" width="77.0984" x="261.377" y="287.685"><feFlood flood-opacity="0" result="BackgroundImageFix"/><feColorMatrix in="SourceAlpha" result="hardAlpha" type="matrix" values="0 0 0 0 0 0 0 0 0 0 0 0 0 0 0 0 0 0 127 0"/><feOffset/><feGaussianBlur stdDeviation=".621761"/><feComposite in2="hardAlpha" operator="out"/><feColorMatrix type="matrix" values="0 0 0 0 0 0 0 0 0 0 0 0 0 0 0 0 0 0 0.25 0"/><feBlend in2="BackgroundImageFix" mode="normal" result="effect1_dropShadow_28_390"/><feBlend in="SourceGraphic" in2="effect1_dropShadow_28_390" mode="normal" result="shape"/></filter><filter id="g" color-interpolation-filters="sRGB" filterUnits="userSpaceOnUse" height="36.0621" width="79.5854" x="259.93" y="254.551"><feFlood flood-opacity="0" result="BackgroundImageFix"/><feColorMatrix in="SourceAlpha" result="hardAlpha" type="matrix" values="0 0 0 0 0 0 0 0 0 0 0 0 0 0 0 0 0 0 127 0"/><feOffset dy="1.24352"/><feGaussianBlur stdDeviation="1.24352"/><feComposite in2="hardAlpha" operator="out"/><feColorMatrix type="matrix" values="0 0 0 0 0 0 0 0 0 0 0 0 0 0 0 0 0 0 0.25 0"/><feBlend in2="BackgroundImageFix" mode="normal" result="effect1_dropShadow_28_390"/><feBlend in="SourceGraphic" in2="effect1_dropShadow_28_390" mode="normal" result="shape"/></filter><filter id="h" color-interpolation-filters="sRGB" filterUnits="userSpaceOnUse" height="73.3677" width="4.35229" x="342.284" y="163.948"><feFlood flood-opacity="0" result="BackgroundImageFix"/><feBlend in="SourceGraphic" in2="BackgroundImageFix" mode="normal" result="shape"/><feColorMatrix in="SourceAlpha" result="hardAlpha" type="matrix" values="0 0 0 0 0 0 0 0 0 0 0 0 0 0 0 0 0 0 127 0"/><feOffset/><feGaussianBlur stdDeviation=".621761"/><feComposite in2="hardAlpha" k2="-1" k3="1" operator="arithmetic"/><feColorMatrix type="matrix" values="0 0 0 0 0 0 0 0 0 0 0 0 0 0 0 0 0 0 0.25 0"/><feBlend in2="shape" mode="normal" result="effect1_innerShadow_28_390"/></filter><path d="m0 0h500.836v500h-500.836z" fill="#fff"/><g filter="url(#a)"><g filter="url(#b)"><rect fill="#fff" height="251.656" rx="19.8963" width="252.492" x="124.172" y="124.172"/></g><g stroke-width=".621761"><rect fill="#000" height="233.476" rx="12.7461" stroke="#000" width="235.985" x="132.02" y="132.844"/><circle cx="186.845" cy="330.684" r="5.54158" stroke="#fe0808" stroke-opacity=".5"/><circle cx="250.399" cy="330.684" r="5.54158" stroke="#fe0808" stroke-opacity=".5"/><circle cx="313.922" cy="330.684" r="5.54158" stroke="#fe0808" stroke-opacity=".5"/></g><path d="m150.146 162.711h198.963v149.223h-198.963z" fill="#f4f7ff"/><g filter="url(#c)"><path d="m159.458 206.232h180.311v18.6528h-180.311z" fill="#fff"/></g><path d="m216.465 219.401c-.523 0-1.008-.087-1.452-.259-.444-.179-.829-.428-1.154-.746-.325-.319-.58-.693-.766-1.124-.179-.431-.269-.902-.269-1.413s.09-.982.269-1.413c.186-.431.441-.805.766-1.124.332-.318.72-.564 1.164-.736.444-.179.928-.269 1.452-.269.504 0 .979.087 1.423.259.444.166.819.418 1.124.756l-.467.468c-.286-.292-.601-.501-.945-.627-.345-.133-.717-.199-1.115-.199-.418 0-.805.073-1.164.219-.358.139-.669.341-.935.607-.265.258-.474.563-.626.915-.146.345-.219.726-.219 1.144s.073.802.219 1.154c.152.345.361.65.626.915.266.259.577.461.935.607.359.139.746.209 1.164.209.398 0 .77-.066 1.115-.199.344-.133.659-.345.945-.637l.467.468c-.305.338-.68.593-1.124.766-.444.172-.922.259-1.433.259zm5.873-.01c-.504 0-.958-.113-1.363-.339-.398-.232-.713-.547-.945-.945-.232-.404-.348-.865-.348-1.383 0-.523.116-.984.348-1.382s.547-.71.945-.935c.398-.226.852-.339 1.363-.339.517 0 .975.113 1.373.339.404.225.719.537.945.935.232.398.348.859.348 1.382 0 .518-.116.979-.348 1.383-.226.398-.541.713-.945.945-.405.226-.862.339-1.373.339zm0-.627c.378 0 .713-.083 1.005-.249.292-.172.52-.411.686-.716.173-.312.259-.67.259-1.075 0-.411-.086-.769-.259-1.074-.166-.305-.394-.54-.686-.706-.292-.173-.624-.259-.995-.259s-.703.086-.995.259c-.292.166-.524.401-.696.706-.173.305-.259.663-.259 1.074 0 .405.086.763.259 1.075.172.305.404.544.696.716.292.166.62.249.985.249zm6.774-4.696c.425 0 .796.083 1.114.249.325.159.577.405.756.736.186.332.279.75.279 1.254v3.034h-.706v-2.965c0-.55-.14-.965-.418-1.243-.272-.285-.657-.428-1.154-.428-.371 0-.696.076-.975.229-.272.146-.484.361-.637.646-.146.279-.219.617-.219 1.015v2.746h-.706v-5.223h.677v1.433l-.11-.269c.166-.378.431-.673.796-.885.365-.219.799-.329 1.303-.329zm4.176 5.273v-5.88c0-.464.136-.838.408-1.124.272-.285.663-.427 1.174-.427.199 0 .391.026.577.079s.342.136.468.249l-.239.527c-.1-.086-.216-.149-.348-.189-.133-.046-.276-.07-.428-.07-.299 0-.527.083-.687.249-.159.166-.238.411-.238.736v.796l.02.328v4.726zm-.935-4.636v-.587h3.233v.587zm4.188 4.636v-5.223h.707v5.223zm.358-6.377c-.145 0-.268-.05-.368-.149-.099-.1-.149-.219-.149-.358 0-.14.05-.256.149-.348.1-.1.223-.15.368-.15.146 0 .269.047.369.14.099.092.149.208.149.348 0 .146-.05.268-.149.368-.093.099-.216.149-.369.149zm4.56 8.357c-.477 0-.935-.07-1.372-.209-.438-.14-.793-.339-1.065-.597l.358-.537c.246.218.547.391.906.517.364.132.749.199 1.154.199.663 0 1.15-.156 1.462-.468.312-.305.468-.782.468-1.432v-1.304l.099-.895-.07-.895v-1.582h.677v4.586c0 .902-.222 1.562-.667 1.98-.437.424-1.087.637-1.95.637zm-.129-2.179c-.497 0-.945-.106-1.343-.318-.398-.219-.713-.521-.945-.906-.225-.384-.338-.825-.338-1.323 0-.497.113-.935.338-1.313.232-.385.547-.683.945-.895.398-.213.846-.319 1.343-.319.464 0 .882.096 1.254.289.371.192.666.477.885.855s.328.839.328 1.383-.109 1.005-.328 1.383-.514.666-.885.865c-.372.199-.79.299-1.254.299zm.07-.627c.384 0 .726-.079 1.024-.239.299-.165.534-.391.707-.676.172-.292.258-.627.258-1.005s-.086-.709-.258-.995c-.173-.285-.408-.507-.707-.666-.298-.166-.64-.249-1.024-.249-.378 0-.72.083-1.025.249-.298.159-.534.381-.706.666-.166.286-.249.617-.249.995s.083.713.249 1.005c.172.285.408.511.706.676.305.16.647.239 1.025.239zm6.8.876c-.444 0-.832-.083-1.164-.249-.331-.166-.59-.415-.776-.746-.179-.332-.268-.746-.268-1.244v-3.034h.706v2.955c0 .557.136.978.408 1.263.278.279.666.418 1.164.418.364 0 .679-.073.945-.219.272-.152.477-.371.617-.657.145-.285.218-.626.218-1.024v-2.736h.707v5.223h-.677v-1.433l.11.259c-.166.385-.425.686-.776.905-.345.212-.75.319-1.214.319zm4.525-.05v-5.223h.677v1.423l-.07-.249c.146-.398.391-.7.736-.905.345-.213.773-.319 1.284-.319v.687c-.027 0-.054 0-.08 0-.027-.007-.053-.01-.08-.01-.55 0-.981.169-1.293.507-.312.332-.467.806-.467 1.423v2.666zm6.085.05c-.544 0-1.021-.113-1.432-.339-.411-.232-.733-.547-.965-.945-.232-.404-.348-.865-.348-1.383 0-.517.109-.974.328-1.372.225-.398.53-.71.915-.935.391-.233.829-.349 1.313-.349.491 0 .925.113 1.303.339.385.218.687.53.906.935.219.398.328.859.328 1.382 0 .034-.003.07-.01.11v.109h-4.546v-.527h4.168l-.279.209c0-.378-.082-.713-.248-1.005-.159-.298-.378-.53-.657-.696-.278-.166-.6-.249-.965-.249-.358 0-.68.083-.965.249s-.507.398-.666.696c-.159.299-.239.64-.239 1.025v.109c0 .398.086.75.259 1.055.179.298.424.534.736.706.318.166.68.249 1.084.249.318 0 .614-.057.886-.169.278-.113.517-.285.716-.518l.398.458c-.232.279-.524.491-.876.637-.345.146-.726.219-1.144.219zm8.12-.05-2.347-6.964h.756l2.198 6.556h-.378l2.268-6.556h.677l2.238 6.556h-.358l2.218-6.556h.707l-2.348 6.964h-.776l-2.139-6.218h.199l-2.149 6.218zm9.15 0v-5.223h.706v5.223zm.358-6.377c-.146 0-.268-.05-.368-.149-.099-.1-.149-.219-.149-.358 0-.14.05-.256.149-.348.1-.1.222-.15.368-.15s.269.047.368.14c.1.092.15.208.15.348 0 .146-.05.268-.15.368-.093.099-.215.149-.368.149zm3.12 2.786h3.68v.636h-3.68zm.079 3.591h-.736v-6.964h4.775v.637h-4.039zm5.41 0v-5.223h.706v5.223zm.358-6.377c-.146 0-.268-.05-.368-.149-.099-.1-.149-.219-.149-.358 0-.14.05-.256.149-.348.1-.1.222-.15.368-.15s.269.047.368.14c.1.092.149.208.149.348 0 .146-.049.268-.149.368-.093.099-.215.149-.368.149z" fill="#24211e"/><path d="m227.341 177.919c-.664 0-1.298-.1-1.903-.299-.605-.207-1.082-.472-1.43-.796l.46-.97c.332.291.754.531 1.268.722.514.19 1.049.286 1.605.286.505 0 .916-.058 1.231-.174s.547-.274.696-.473c.149-.207.224-.439.224-.696 0-.299-.1-.539-.299-.722-.19-.182-.443-.327-.758-.435-.307-.116-.647-.215-1.02-.298s-.75-.178-1.131-.286c-.374-.116-.718-.261-1.033-.435-.306-.175-.555-.407-.746-.697-.19-.298-.286-.68-.286-1.144 0-.448.116-.858.348-1.231.241-.381.606-.684 1.095-.908.497-.232 1.127-.348 1.89-.348.506 0 1.007.066 1.505.199.497.133.928.323 1.293.572l-.411.995c-.373-.249-.766-.427-1.181-.535-.414-.116-.816-.174-1.206-.174-.489 0-.891.062-1.206.187-.315.124-.547.29-.697.497-.141.207-.211.439-.211.696 0 .307.095.552.286.734.199.182.452.328.758.435.316.108.66.208 1.033.299.373.083.746.178 1.119.286.381.108.725.248 1.032.423.315.174.568.406.758.696.191.29.286.663.286 1.119 0 .439-.12.85-.36 1.231-.241.373-.614.676-1.119.908-.498.224-1.128.336-1.89.336zm7.947-.025c-.705 0-1.327-.145-1.865-.435-.531-.291-.946-.688-1.244-1.194-.29-.506-.435-1.086-.435-1.741s.141-1.235.423-1.741c.29-.506.683-.9 1.181-1.181.506-.291 1.073-.436 1.704-.436.638 0 1.202.141 1.691.423s.87.68 1.144 1.194c.282.506.423 1.098.423 1.778 0 .05-.005.108-.013.174 0 .067-.004.129-.012.187h-5.609v-.858h4.987l-.485.298c.008-.423-.079-.8-.261-1.131-.183-.332-.435-.589-.759-.771-.315-.191-.684-.286-1.106-.286-.415 0-.784.095-1.107.286-.324.182-.576.443-.759.783-.182.332-.273.713-.273 1.144v.199c0 .439.099.833.298 1.181.207.34.493.606.858.796.365.191.784.286 1.256.286.39 0 .742-.066 1.057-.199.323-.132.605-.331.846-.597l.659.771c-.299.349-.672.614-1.119.796-.44.183-.933.274-1.48.274zm6.942 0c-.663 0-1.177-.178-1.542-.535-.364-.356-.547-.866-.547-1.529v-6.044h1.194v5.994c0 .356.087.63.261.821.183.19.44.286.771.286.373 0 .684-.104.933-.311l.373.858c-.182.157-.402.273-.659.348-.249.075-.51.112-.784.112zm-3.208-5.683v-.982h4.203v.982zm8.2 5.683c-.664 0-1.178-.178-1.542-.535-.365-.356-.548-.866-.548-1.529v-6.044h1.194v5.994c0 .356.087.63.261.821.183.19.44.286.771.286.373 0 .684-.104.933-.311l.373.858c-.182.157-.402.273-.659.348-.249.075-.51.112-.783.112zm-3.209-5.683v-.982h4.203v.982zm6.094 5.608v-6.59h1.194v6.59zm.597-7.859c-.232 0-.427-.074-.584-.224-.15-.149-.224-.331-.224-.547 0-.224.074-.41.224-.559.157-.15.352-.224.584-.224s.423.074.572.224c.158.141.236.319.236.534 0 .224-.074.415-.223.572-.15.15-.344.224-.585.224zm6.396 1.206c.538 0 1.011.104 1.417.311.415.208.738.523.97.945.232.423.348.958.348 1.604v3.793h-1.193v-3.656c0-.638-.158-1.119-.473-1.442-.307-.324-.742-.485-1.306-.485-.423 0-.791.083-1.106.249-.315.165-.56.41-.734.733-.166.324-.249.726-.249 1.206v3.395h-1.194v-6.59h1.144v1.778l-.186-.473c.215-.431.547-.767.995-1.007.447-.24.97-.361 1.567-.361zm7.83 9.14c-.606 0-1.194-.087-1.766-.261-.564-.166-1.024-.406-1.381-.721l.572-.92c.307.265.684.472 1.132.621.448.158.916.237 1.405.237.78 0 1.352-.183 1.716-.547.365-.365.547-.921.547-1.667v-1.393l.125-1.305-.062-1.318v-1.803h1.131v5.695c0 1.16-.29 2.014-.87 2.562-.581.547-1.43.82-2.549.82zm-.15-2.76c-.638 0-1.21-.133-1.716-.398-.497-.274-.895-.651-1.194-1.132-.29-.481-.435-1.036-.435-1.666 0-.639.145-1.194.435-1.667.299-.48.697-.853 1.194-1.119.506-.265 1.078-.398 1.716-.398.564 0 1.078.116 1.542.349.465.223.833.572 1.107 1.044.282.473.423 1.07.423 1.791 0 .713-.141 1.305-.423 1.778-.274.473-.642.829-1.107 1.069-.464.233-.978.349-1.542.349zm.137-1.045c.439 0 .829-.091 1.169-.273.34-.183.605-.436.796-.759.199-.323.298-.696.298-1.119s-.099-.796-.298-1.119c-.191-.324-.456-.572-.796-.746-.34-.183-.73-.274-1.169-.274s-.833.091-1.181.274c-.34.174-.61.422-.809.746-.19.323-.286.696-.286 1.119s.096.796.286 1.119c.199.323.469.576.809.759.348.182.742.273 1.181.273zm7.603 1.393c-.547 0-1.069-.075-1.566-.224-.49-.149-.875-.332-1.157-.547l.497-.945c.282.19.631.352 1.045.485.415.132.837.199 1.268.199.556 0 .954-.079 1.194-.237.249-.157.373-.377.373-.659 0-.207-.074-.369-.224-.485-.149-.116-.348-.203-.596-.261-.241-.058-.51-.108-.809-.149-.298-.05-.597-.108-.895-.174-.299-.075-.572-.174-.821-.299-.249-.132-.447-.31-.597-.534-.149-.232-.224-.539-.224-.92 0-.398.112-.747.336-1.045s.539-.526.945-.684c.415-.166.904-.249 1.468-.249.431 0 .866.054 1.305.162.448.1.813.245 1.095.435l-.51.945c-.299-.199-.61-.335-.933-.41s-.646-.112-.97-.112c-.522 0-.912.087-1.169.261-.257.166-.385.382-.385.647 0 .224.074.398.224.522.157.116.356.207.597.274.248.066.522.124.82.174.299.041.597.099.896.174.298.066.567.162.808.286.249.124.448.298.597.522.157.224.236.522.236.895 0 .398-.116.742-.348 1.033-.232.29-.56.518-.983.684-.422.157-.928.236-1.517.236z" fill="#24211e"/><g filter="url(#d)"><rect fill="#fff" height="15.544" rx="3.73056" width="74.6113" x="262.621" y="239.188"/><rect height="14.9223" rx="3.41968" stroke="#c4c4c5" stroke-width=".621761" width="73.9895" x="262.931" y="239.499"/></g><g filter="url(#e)"><rect fill="#fff" height="15.544" rx="3.73056" width="74.6113" x="262.417" y="264.901"/><rect height="14.9223" rx="3.41968" stroke="#c4c4c5" stroke-width=".621761" width="73.9895" x="262.728" y="265.212"/></g><path d="m164.308 247.46h3.681v.636h-3.681zm.08 3.591h-.737v-6.964h4.776v.637h-4.039zm5.312 0v-5.223h.677v1.423l-.07-.249c.146-.398.392-.7.736-.905.345-.212.773-.318 1.284-.318v.686c-.027 0-.053 0-.08 0-.026-.007-.053-.01-.079-.01-.551 0-.982.169-1.294.507-.311.332-.467.806-.467 1.423v2.666zm6.085.05c-.543 0-1.021-.113-1.432-.338-.411-.233-.733-.548-.965-.946-.232-.404-.348-.865-.348-1.382 0-.518.109-.975.328-1.373.225-.398.531-.71.915-.935.392-.232.829-.348 1.313-.348.491 0 .926.112 1.304.338.384.219.686.53.905.935.219.398.328.859.328 1.383 0 .033-.003.069-.01.109v.11h-4.546v-.528h4.168l-.278.209c0-.378-.083-.713-.249-1.005-.159-.298-.378-.53-.657-.696-.278-.166-.6-.249-.965-.249-.358 0-.679.083-.965.249-.285.166-.507.398-.666.696-.159.299-.239.64-.239 1.025v.11c0 .397.086.749.259 1.054.179.298.424.534.736.706.318.166.68.249 1.084.249.319 0 .614-.056.886-.169.278-.113.517-.285.716-.517l.398.457c-.232.279-.524.491-.876.637-.344.146-.726.219-1.144.219zm5.865 0c-.497 0-.945-.113-1.343-.338-.391-.226-.7-.538-.925-.936-.226-.397-.338-.862-.338-1.392 0-.524.112-.985.338-1.383.225-.405.534-.716.925-.935.398-.226.846-.338 1.343-.338.464 0 .875.102 1.234.308.364.206.653.507.865.905.212.391.318.872.318 1.443 0 .57-.109 1.054-.328 1.452-.212.391-.501.693-.865.905-.359.206-.766.309-1.224.309zm.05-.627c.371 0 .703-.083.995-.249.298-.172.53-.411.696-.716.172-.312.259-.67.259-1.074 0-.405-.087-.76-.259-1.065-.166-.305-.398-.544-.696-.716-.292-.172-.624-.259-.995-.259-.365 0-.693.087-.985.259s-.524.411-.697.716c-.172.305-.258.66-.258 1.065 0 .404.086.762.258 1.074.173.305.405.544.697.716.292.166.62.249.985.249zm1.94 2.507v-3.482l.099-1.054-.07-1.045v-1.572h.677v7.153zm4.832-1.88c-.445 0-.833-.083-1.164-.249-.332-.166-.59-.414-.776-.746-.179-.332-.269-.746-.269-1.244v-3.034h.707v2.955c0 .557.136.978.407 1.263.279.279.667.418 1.164.418.365 0 .68-.073.946-.219.271-.152.477-.371.616-.656.146-.286.219-.627.219-1.025v-2.736h.706v5.223h-.676v-1.432l.109.258c-.165.385-.424.687-.776.905-.344.213-.749.319-1.213.319zm6.743 0c-.543 0-1.021-.113-1.432-.338-.411-.233-.733-.548-.965-.946-.232-.404-.348-.865-.348-1.382 0-.518.109-.975.328-1.373.225-.398.531-.71.915-.935.392-.232.829-.348 1.313-.348.491 0 .926.112 1.304.338.384.219.686.53.905.935.219.398.328.859.328 1.383 0 .033-.003.069-.01.109v.11h-4.546v-.528h4.168l-.278.209c0-.378-.083-.713-.249-1.005-.159-.298-.378-.53-.657-.696-.278-.166-.6-.249-.965-.249-.358 0-.679.083-.965.249-.285.166-.507.398-.666.696-.159.299-.239.64-.239 1.025v.11c0 .397.086.749.259 1.054.179.298.424.534.736.706.318.166.68.249 1.084.249.319 0 .614-.056.886-.169.278-.113.517-.285.716-.517l.398.457c-.232.279-.524.491-.876.637-.344.146-.726.219-1.144.219zm6.452-5.322c.424 0 .796.082 1.114.248.325.159.577.405.756.736.186.332.279.75.279 1.254v3.034h-.707v-2.964c0-.551-.139-.965-.417-1.244-.272-.285-.657-.428-1.154-.428-.372 0-.697.076-.975.229-.272.146-.484.361-.637.647-.146.278-.219.616-.219 1.014v2.746h-.706v-5.223h.676v1.433l-.109-.269c.166-.378.431-.673.796-.885.365-.219.799-.328 1.303-.328zm6.225 5.322c-.517 0-.981-.113-1.392-.338-.405-.233-.723-.548-.955-.946-.233-.404-.349-.865-.349-1.382 0-.524.116-.985.349-1.383.232-.398.55-.71.955-.935.411-.226.875-.338 1.392-.338.445 0 .846.086 1.204.258.358.173.64.431.846.776l-.528.358c-.179-.265-.401-.461-.666-.587s-.554-.189-.866-.189c-.371 0-.706.087-1.004.259-.299.166-.534.401-.707.706-.172.305-.258.663-.258 1.075 0 .411.086.769.258 1.074.173.305.408.544.707.716.298.166.633.249 1.004.249.312 0 .601-.063.866-.189s.487-.318.666-.577l.528.358c-.206.338-.488.597-.846.776-.358.173-.759.259-1.204.259zm3.399 1.93c-.245 0-.481-.04-.706-.12-.219-.079-.408-.199-.567-.358l.328-.527c.133.126.275.222.428.288.159.073.335.11.527.11.232 0 .431-.066.597-.199.173-.126.335-.352.488-.677l.338-.766.079-.109 2.149-4.845h.697l-2.617 5.85c-.146.338-.308.607-.487.806-.173.199-.362.338-.567.417-.206.087-.435.13-.687.13zm1.393-1.831-2.407-5.372h.736l2.129 4.795z" fill="#24211e"/><path d="m270.15 251.111c-.557 0-1.038-.08-1.442-.239-.398-.159-.706-.388-.925-.686-.213-.306-.319-.664-.319-1.075 0-.398.103-.736.309-1.015.212-.285.517-.504.915-.656.405-.153.892-.229 1.462-.229.564 0 1.048.076 1.453.229.404.152.713.371.925.656.219.279.328.617.328 1.015 0 .411-.109.769-.328 1.075-.219.298-.531.527-.935.686-.405.159-.886.239-1.443.239zm0-.607c.617 0 1.098-.126 1.443-.378.351-.252.527-.594.527-1.025s-.176-.769-.527-1.014c-.345-.253-.826-.379-1.443-.379-.616 0-1.097.126-1.442.379-.345.245-.517.583-.517 1.014s.172.773.517 1.025.826.378 1.442.378zm0-2.885c-.517 0-.958-.07-1.323-.209-.358-.139-.633-.338-.825-.597-.193-.265-.289-.58-.289-.945 0-.385.1-.713.298-.985.206-.278.491-.491.856-.636.365-.146.793-.219 1.283-.219.491 0 .919.073 1.284.219.371.145.66.358.865.636.206.272.309.6.309.985 0 .365-.097.68-.289.945-.192.259-.474.458-.846.597-.364.139-.805.209-1.323.209zm0-.478c.544 0 .969-.112 1.274-.338.305-.225.457-.527.457-.905 0-.398-.159-.706-.477-.925-.312-.226-.73-.339-1.254-.339s-.941.113-1.253.339c-.312.219-.468.524-.468.915 0 .385.15.69.448.915.305.226.73.338 1.273.338zm6.553 3.97c-.617 0-1.137-.136-1.562-.408-.424-.279-.746-.677-.965-1.194-.219-.524-.328-1.151-.328-1.88 0-.789.133-1.449.398-1.98.272-.537.647-.942 1.124-1.213.478-.272 1.031-.408 1.661-.408.312 0 .611.029.896.089s.537.156.756.289l-.289.577c-.179-.12-.384-.203-.616-.249-.233-.053-.478-.08-.737-.08-.749 0-1.349.239-1.8.717-.445.477-.667 1.19-.667 2.139 0 .145.007.328.02.547.02.212.06.424.12.636l-.249-.189c.073-.345.215-.636.428-.875.212-.246.477-.431.795-.557.319-.126.667-.189 1.045-.189.464 0 .872.086 1.224.258.351.173.626.415.825.727.199.311.299.679.299 1.104 0 .431-.103.809-.309 1.134-.205.318-.49.567-.855.746-.358.173-.763.259-1.214.259zm-.03-.607c.332 0 .624-.06.876-.179.258-.126.461-.302.607-.527.145-.233.218-.501.218-.806 0-.458-.159-.823-.477-1.095-.312-.271-.736-.407-1.273-.407-.359 0-.67.066-.936.199-.265.132-.474.315-.626.547-.153.225-.229.484-.229.776 0 .252.07.494.209.726.139.225.345.411.617.557.278.139.616.209 1.014.209zm5.883.607c-.557 0-1.038-.08-1.442-.239-.398-.159-.706-.388-.925-.686-.212-.306-.319-.664-.319-1.075 0-.398.103-.736.309-1.015.212-.285.517-.504.915-.656.405-.153.892-.229 1.462-.229.564 0 1.048.076 1.453.229.404.152.713.371.925.656.219.279.328.617.328 1.015 0 .411-.109.769-.328 1.075-.219.298-.531.527-.935.686-.405.159-.886.239-1.443.239zm0-.607c.617 0 1.098-.126 1.443-.378.351-.252.527-.594.527-1.025s-.176-.769-.527-1.014c-.345-.253-.826-.379-1.443-.379-.616 0-1.097.126-1.442.379-.345.245-.517.583-.517 1.014s.172.773.517 1.025.826.378 1.442.378zm0-2.885c-.517 0-.958-.07-1.323-.209-.358-.139-.633-.338-.825-.597-.193-.265-.289-.58-.289-.945 0-.385.1-.713.299-.985.205-.278.49-.491.855-.636.365-.146.793-.219 1.283-.219.491 0 .919.073 1.284.219.371.145.66.358.865.636.206.272.309.6.309.985 0 .365-.097.68-.289.945-.192.259-.474.458-.845.597-.365.139-.806.209-1.324.209zm0-.478c.544 0 .969-.112 1.274-.338.305-.225.457-.527.457-.905 0-.398-.159-.706-.477-.925-.312-.226-.73-.339-1.254-.339s-.941.113-1.253.339c-.312.219-.468.524-.468.915 0 .385.15.69.448.915.305.226.73.338 1.273.338zm6.918 3.91v-6.964h.607l3.184 5.432h-.319l3.154-5.432h.607v6.964h-.707v-5.859h.17l-2.905 4.974h-.348l-2.925-4.974h.189v5.859zm14.595-6.964h.726v6.964h-.726zm-4.357 6.964h-.736v-6.964h.736zm4.427-3.213h-4.507v-.647h4.507zm2.213 3.213v-.468l3.482-4.407.149.239h-3.571v-.587h4.128v.458l-3.472 4.417-.179-.239h3.721v.587z" fill="#24211e"/><path d="m268.574 273.173h3.681v.636h-3.681zm.079 3.591h-.736v-6.964h4.775v.637h-4.039zm8.47 0v-1.154l-.03-.189v-1.93c0-.444-.126-.786-.378-1.025-.246-.238-.614-.358-1.105-.358-.338 0-.659.057-.964.169-.306.113-.564.262-.776.448l-.319-.527c.266-.226.584-.398.955-.518.372-.126.763-.189 1.174-.189.677 0 1.197.17 1.562.508.371.331.557.839.557 1.522v3.243zm-1.801.05c-.391 0-.733-.063-1.025-.189-.285-.133-.504-.312-.656-.537-.153-.233-.229-.498-.229-.796 0-.272.063-.518.189-.737.133-.225.345-.404.637-.537.298-.139.696-.209 1.193-.209h1.801v.528h-1.781c-.504 0-.855.089-1.054.268-.193.179-.289.401-.289.667 0 .298.116.537.349.716.232.179.557.269.974.269.398 0 .74-.09 1.025-.269.292-.186.504-.451.637-.796l.159.488c-.133.344-.365.62-.696.825-.325.206-.737.309-1.234.309zm7.062-5.323c.424 0 .795.083 1.114.249.325.159.577.405.756.736.186.332.278.75.278 1.254v3.034h-.706v-2.965c0-.55-.139-.965-.418-1.243-.272-.285-.656-.428-1.154-.428-.371 0-.696.076-.975.229-.272.146-.484.361-.636.647-.146.278-.219.616-.219 1.014v2.746h-.706v-7.382h.706v3.592l-.139-.269c.165-.378.431-.673.795-.885.365-.219.8-.329 1.304-.329zm4.056 5.273v-5.223h.677v1.423l-.07-.249c.146-.398.391-.7.736-.905.345-.212.773-.319 1.284-.319v.687c-.027 0-.053 0-.08 0-.026-.007-.053-.01-.08-.01-.55 0-.981.169-1.293.507-.312.332-.467.806-.467 1.423v2.666zm6.085.05c-.543 0-1.021-.113-1.432-.339-.411-.232-.733-.547-.965-.945-.232-.404-.348-.865-.348-1.382 0-.518.109-.975.328-1.373.225-.398.53-.71.915-.935.391-.232.829-.349 1.313-.349.491 0 .925.113 1.304.339.384.219.686.53.905.935.219.398.328.859.328 1.383 0 .033-.003.069-.01.109v.109h-4.546v-.527h4.168l-.278.209c0-.378-.083-.713-.249-1.005-.159-.298-.378-.53-.657-.696-.278-.166-.6-.249-.965-.249-.358 0-.679.083-.965.249-.285.166-.507.398-.666.696-.159.299-.239.64-.239 1.025v.109c0 .398.086.75.259 1.055.179.298.424.534.736.706.318.166.68.249 1.084.249.319 0 .614-.056.886-.169.278-.113.517-.285.716-.517l.398.457c-.232.279-.524.491-.876.637-.344.146-.726.219-1.144.219zm6.452-5.323c.424 0 .796.083 1.114.249.325.159.577.405.756.736.186.332.279.75.279 1.254v3.034h-.707v-2.965c0-.55-.139-.965-.417-1.243-.272-.285-.657-.428-1.154-.428-.372 0-.697.076-.975.229-.272.146-.485.361-.637.647-.146.278-.219.616-.219 1.014v2.746h-.706v-5.223h.676v1.433l-.109-.269c.166-.378.431-.673.796-.885.364-.219.799-.329 1.303-.329zm6.723 0c.424 0 .796.083 1.114.249.325.159.577.405.756.736.186.332.278.75.278 1.254v3.034h-.706v-2.965c0-.55-.139-.965-.418-1.243-.272-.285-.656-.428-1.154-.428-.371 0-.696.076-.975.229-.272.146-.484.361-.636.647-.146.278-.219.616-.219 1.014v2.746h-.706v-7.382h.706v3.592l-.139-.269c.165-.378.431-.673.795-.885.365-.219.8-.329 1.304-.329zm6.275 5.323c-.544 0-1.022-.113-1.433-.339-.411-.232-.733-.547-.965-.945-.232-.404-.348-.865-.348-1.382 0-.518.11-.975.328-1.373.226-.398.531-.71.916-.935.391-.232.829-.349 1.313-.349.491 0 .925.113 1.303.339.385.219.686.53.905.935.219.398.329.859.329 1.383 0 .033-.004.069-.01.109v.109h-4.547v-.527h4.169l-.279.209c0-.378-.083-.713-.249-1.005-.159-.298-.378-.53-.656-.696-.279-.166-.6-.249-.965-.249-.358 0-.68.083-.965.249s-.508.398-.667.696c-.159.299-.238.64-.238 1.025v.109c0 .398.086.75.258 1.055.179.298.425.534.736.706.319.166.68.249 1.085.249.318 0 .613-.056.885-.169.279-.113.517-.285.716-.517l.398.457c-.232.279-.524.491-.875.637-.345.146-.726.219-1.144.219zm3.785-.05v-5.223h.707v5.223zm.358-6.377c-.146 0-.268-.05-.368-.149-.099-.1-.149-.219-.149-.358s.05-.255.149-.348c.1-.1.222-.15.368-.15s.269.047.368.14c.1.093.15.209.15.348 0 .146-.05.268-.15.368-.092.099-.215.149-.368.149zm3.965 6.427c-.491 0-.869-.133-1.134-.398s-.398-.64-.398-1.124v-4.905h.707v4.865c0 .305.076.54.228.706.16.166.385.249.677.249.312 0 .57-.09.776-.269l.248.508c-.139.126-.308.218-.507.278-.192.06-.391.09-.597.09zm-2.467-4.686v-.587h3.233v.587z" fill="#24211e"/><path clip-rule="evenodd" d="m332.674 245.429-4.299 4.731c-.264.29-.691.29-.955 0l-4.299-4.731c-.264-.291-.264-.761 0-1.052.264-.29.692-.29.956 0l3.82 4.206 3.821-4.206c.264-.29.692-.29.956 0 .264.291.264.761 0 1.052z" fill="#c4c4c5" fill-rule="evenodd"/><path clip-rule="evenodd" d="m332.47 271.142-4.298 4.73c-.264.291-.692.291-.956 0l-4.298-4.73c-.264-.291-.264-.761 0-1.052.263-.29.691-.29.955 0l3.821 4.206 3.821-4.206c.264-.29.691-.29.955 0 .264.291.264.761 0 1.052z" fill="#c4c4c5" fill-rule="evenodd"/><path d="m165.004 275.926v-6.327h-2.447v-.637h5.631v.637h-2.447v6.327zm5.885.05c-.544 0-1.021-.113-1.433-.339-.411-.232-.732-.547-.964-.945-.233-.404-.349-.865-.349-1.382 0-.518.11-.975.329-1.373.225-.398.53-.71.915-.935.391-.232.829-.349 1.313-.349.491 0 .925.113 1.303.339.385.219.687.53.906.935.218.398.328.859.328 1.383 0 .033-.004.069-.01.109v.109h-4.546v-.527h4.168l-.279.209c0-.378-.083-.713-.248-1.005-.16-.298-.378-.53-.657-.696s-.6-.249-.965-.249c-.358 0-.68.083-.965.249s-.507.398-.666.696c-.16.299-.239.64-.239 1.025v.109c0 .398.086.75.258 1.055.179.298.425.534.737.706.318.166.679.249 1.084.249.318 0 .613-.056.885-.169.279-.113.518-.285.717-.517l.398.457c-.233.279-.524.491-.876.637-.345.146-.726.219-1.144.219zm10.311-5.323c.425 0 .793.083 1.105.249.318.159.563.405.736.736.179.332.268.75.268 1.254v3.034h-.706v-2.965c0-.55-.132-.965-.398-1.243-.258-.285-.627-.428-1.104-.428-.358 0-.67.076-.935.229-.259.146-.461.361-.607.647-.139.278-.209.616-.209 1.014v2.746h-.706v-2.965c0-.55-.133-.965-.398-1.243-.265-.285-.637-.428-1.114-.428-.352 0-.66.076-.926.229-.265.146-.47.361-.616.647-.14.278-.209.616-.209 1.014v2.746h-.707v-5.223h.677v1.413l-.109-.249c.159-.378.414-.673.766-.885.358-.219.779-.329 1.263-.329.511 0 .945.13 1.303.388.358.252.59.634.697 1.144l-.279-.109c.153-.424.421-.766.806-1.025.391-.265.859-.398 1.402-.398zm6.721 5.323c-.451 0-.859-.103-1.224-.309-.364-.212-.656-.514-.875-.905-.212-.398-.318-.882-.318-1.452 0-.571.106-1.052.318-1.443.212-.398.501-.7.865-.905.365-.206.776-.309 1.234-.309.497 0 .942.113 1.333.339.398.219.71.53.935.935.226.398.338.859.338 1.383 0 .53-.112.994-.338 1.392-.225.398-.537.71-.935.935-.391.226-.836.339-1.333.339zm-2.696 1.88v-7.153h.676v1.572l-.069 1.045.099 1.054v3.482zm2.646-2.507c.372 0 .703-.083.995-.249.292-.172.524-.411.696-.716.173-.312.259-.67.259-1.074 0-.405-.086-.76-.259-1.065-.172-.305-.404-.544-.696-.716-.292-.173-.623-.259-.995-.259-.371 0-.706.086-1.005.259-.291.172-.524.411-.696.716-.166.305-.249.66-.249 1.065 0 .404.083.762.249 1.074.172.305.405.544.696.716.299.166.634.249 1.005.249zm6.315.627c-.544 0-1.022-.113-1.433-.339-.411-.232-.733-.547-.965-.945-.232-.404-.348-.865-.348-1.382 0-.518.109-.975.328-1.373.226-.398.531-.71.915-.935.392-.232.829-.349 1.314-.349.49 0 .925.113 1.303.339.384.219.686.53.905.935.219.398.328.859.328 1.383 0 .033-.003.069-.01.109v.109h-4.546v-.527h4.168l-.278.209c0-.378-.083-.713-.249-1.005-.159-.298-.378-.53-.656-.696-.279-.166-.601-.249-.965-.249-.359 0-.68.083-.965.249-.286.166-.508.398-.667.696-.159.299-.239.64-.239 1.025v.109c0 .398.087.75.259 1.055.179.298.424.534.736.706.319.166.68.249 1.085.249.318 0 .613-.056.885-.169.278-.113.517-.285.716-.517l.398.457c-.232.279-.524.491-.875.637-.345.146-.727.219-1.144.219zm3.785-.05v-5.223h.677v1.423l-.07-.249c.146-.398.391-.7.736-.905.345-.212.773-.319 1.283-.319v.687c-.026 0-.053 0-.079 0-.027-.007-.053-.01-.08-.01-.55 0-.981.169-1.293.507-.312.332-.468.806-.468 1.423v2.666zm6.8 0v-1.154l-.03-.189v-1.93c0-.444-.126-.786-.378-1.025-.246-.238-.614-.358-1.105-.358-.338 0-.659.057-.965.169-.305.113-.563.262-.776.448l-.318-.527c.265-.226.584-.398.955-.518.372-.126.763-.189 1.174-.189.677 0 1.197.17 1.562.508.371.331.557.839.557 1.522v3.243zm-1.801.05c-.391 0-.733-.063-1.025-.189-.285-.133-.504-.312-.656-.537-.153-.233-.229-.498-.229-.796 0-.272.063-.518.189-.736.133-.226.345-.405.637-.538.298-.139.696-.209 1.193-.209h1.801v.528h-1.781c-.504 0-.855.089-1.054.268-.193.179-.289.401-.289.667 0 .298.116.537.348.716.233.179.558.269.975.269.398 0 .74-.09 1.025-.269.292-.186.504-.451.637-.796l.159.488c-.133.345-.365.62-.696.825-.325.206-.737.309-1.234.309zm6.047 0c-.491 0-.869-.133-1.134-.398-.266-.265-.398-.64-.398-1.124v-4.905h.706v4.865c0 .305.076.54.229.706.159.166.385.249.676.249.312 0 .571-.09.776-.269l.249.508c-.139.126-.308.219-.507.278-.193.06-.392.09-.597.09zm-2.467-4.686v-.587h3.233v.587zm7.016 4.686c-.445 0-.833-.083-1.164-.249-.332-.166-.591-.414-.776-.746-.179-.332-.269-.746-.269-1.244v-3.034h.706v2.955c0 .557.136.978.408 1.263.279.279.667.418 1.164.418.365 0 .68-.073.945-.219.272-.152.478-.371.617-.656.146-.286.219-.627.219-1.025v-2.736h.706v5.223h-.676v-1.433l.109.259c-.166.385-.424.687-.776.905-.345.213-.749.319-1.213.319zm4.525-.05v-5.223h.676v1.423l-.069-.249c.146-.398.391-.7.736-.905.345-.212.772-.319 1.283-.319v.687c-.026 0-.053 0-.079 0-.027-.007-.053-.01-.08-.01-.55 0-.982.169-1.293.507-.312.332-.468.806-.468 1.423v2.666zm6.085.05c-.544 0-1.021-.113-1.433-.339-.411-.232-.733-.547-.965-.945-.232-.404-.348-.865-.348-1.382 0-.518.11-.975.328-1.373.226-.398.531-.71.916-.935.391-.232.829-.349 1.313-.349.491 0 .925.113 1.303.339.385.219.686.53.905.935.219.398.329.859.329 1.383 0 .033-.004.069-.01.109v.109h-4.547v-.527h4.169l-.279.209c0-.378-.083-.713-.249-1.005-.159-.298-.378-.53-.656-.696-.279-.166-.6-.249-.965-.249-.358 0-.68.083-.965.249s-.507.398-.667.696c-.159.299-.238.64-.238 1.025v.109c0 .398.086.75.258 1.055.179.298.425.534.736.706.319.166.68.249 1.085.249.318 0 .613-.056.885-.169.279-.113.517-.285.716-.517l.398.457c-.232.279-.524.491-.875.637-.345.146-.726.219-1.144.219zm8.548 0c-.445 0-.833-.083-1.164-.249-.332-.166-.591-.414-.776-.746-.179-.332-.269-.746-.269-1.244v-3.034h.706v2.955c0 .557.136.978.408 1.263.279.279.667.418 1.164.418.365 0 .68-.073.945-.219.272-.152.478-.371.617-.656.146-.286.219-.627.219-1.025v-2.736h.706v5.223h-.676v-1.433l.109.259c-.166.385-.424.687-.776.905-.345.213-.749.319-1.213.319zm7.191-5.323c.424 0 .796.083 1.114.249.325.159.577.405.756.736.186.332.279.75.279 1.254v3.034h-.707v-2.965c0-.55-.139-.965-.417-1.243-.272-.285-.657-.428-1.154-.428-.372 0-.697.076-.975.229-.272.146-.484.361-.637.647-.146.278-.219.616-.219 1.014v2.746h-.706v-5.223h.676v1.433l-.109-.269c.166-.378.431-.673.796-.885.364-.219.799-.329 1.303-.329zm4.057 5.273v-5.223h.706v5.223zm.358-6.377c-.146 0-.269-.05-.368-.149-.1-.099-.15-.219-.15-.358s.05-.255.15-.348c.099-.1.222-.15.368-.15s.268.047.368.14c.099.093.149.209.149.348 0 .146-.05.269-.149.368-.093.099-.216.149-.368.149zm3.965 6.427c-.491 0-.869-.133-1.134-.398-.266-.265-.398-.64-.398-1.124v-4.905h.706v4.865c0 .305.076.54.229.706.159.166.384.249.676.249.312 0 .571-.09.776-.269l.249.508c-.139.126-.309.219-.507.278-.193.06-.392.09-.597.09zm-2.468-4.686v-.587h3.234v.587z" fill="#24211e"/><g filter="url(#f)"><rect fill="#fff" height="15.544" rx="3.73056" width="74.6113" x="262.621" y="288.929"/></g><path d="m165.233 300.792-2.348-6.963h.756l2.199 6.556h-.378l2.268-6.556h.677l2.238 6.556h-.358l2.218-6.556h.707l-2.348 6.963h-.776l-2.139-6.217h.199l-2.149 6.217zm9.15 0v-5.222h.706v5.222zm.358-6.376c-.146 0-.268-.05-.368-.15-.099-.099-.149-.218-.149-.358 0-.139.05-.255.149-.348.1-.099.222-.149.368-.149s.269.046.368.139c.1.093.149.209.149.348 0 .146-.049.269-.149.368-.093.1-.215.15-.368.15zm4.98 1.104c.424 0 .796.083 1.114.249.325.159.577.404.756.736.186.331.279.749.279 1.253v3.034h-.707v-2.964c0-.551-.139-.965-.418-1.244-.272-.285-.656-.427-1.154-.427-.371 0-.696.076-.974.228-.272.146-.485.362-.637.647-.146.279-.219.617-.219 1.015v2.745h-.706v-5.222h.676v1.432l-.109-.268c.165-.378.431-.674.796-.886.364-.219.799-.328 1.303-.328zm6.136 5.322c-.498 0-.945-.113-1.343-.338-.392-.226-.7-.537-.926-.935-.225-.405-.338-.869-.338-1.393 0-.53.113-.995.338-1.393.226-.398.534-.706.926-.925.398-.225.845-.338 1.343-.338.457 0 .865.103 1.223.308.365.206.653.508.866.906.219.391.328.872.328 1.442 0 .564-.106 1.045-.318 1.443-.213.397-.501.703-.866.915-.358.205-.769.308-1.233.308zm.049-.627c.372 0 .703-.082.995-.248.299-.173.531-.411.697-.717.172-.311.258-.669.258-1.074 0-.411-.086-.769-.258-1.074-.166-.305-.398-.541-.697-.707-.292-.172-.623-.258-.995-.258-.364 0-.693.086-.985.258-.291.166-.523.402-.696.707-.172.305-.259.663-.259 1.074 0 .405.087.763.259 1.074.173.306.405.544.696.717.292.166.621.248.985.248zm1.97.577v-1.571l.07-1.055-.1-1.054v-3.701h.707v7.381zm6.65.05c-.431 0-.839-.059-1.224-.179-.384-.126-.686-.282-.905-.467l.318-.558c.213.16.485.299.816.418.332.113.68.169 1.045.169.497 0 .855-.076 1.074-.228.219-.16.328-.368.328-.627 0-.192-.063-.342-.189-.448-.119-.113-.278-.195-.477-.249-.199-.059-.421-.109-.667-.149-.245-.04-.49-.086-.736-.139-.239-.053-.457-.129-.656-.229-.199-.106-.362-.249-.488-.428-.119-.179-.179-.417-.179-.716 0-.285.08-.54.239-.766.159-.225.391-.401.696-.527.312-.133.69-.199 1.134-.199.339 0 .677.046 1.015.139.338.086.617.202.836.348l-.309.567c-.232-.159-.481-.271-.746-.338-.265-.073-.53-.109-.796-.109-.471 0-.819.083-1.044.248-.219.16-.329.365-.329.617 0 .199.06.355.18.468.126.113.288.202.487.268.206.06.428.11.666.15.246.039.488.089.727.149.245.053.467.129.666.229.206.093.368.228.488.408.126.172.189.401.189.686 0 .305-.087.57-.259.796-.166.219-.411.391-.736.517-.318.12-.706.179-1.164.179zm6.151 0c-.451 0-.859-.103-1.224-.308-.365-.212-.656-.514-.875-.905-.213-.398-.319-.883-.319-1.453s.106-1.051.319-1.442c.212-.398.5-.7.865-.906.365-.205.776-.308 1.234-.308.497 0 .941.113 1.333.338.398.219.709.531.935.935.225.398.338.859.338 1.383 0 .531-.113.995-.338 1.393-.226.398-.537.709-.935.935-.392.225-.836.338-1.333.338zm-2.696 1.88v-7.152h.676v1.571l-.069 1.045.099 1.055v3.481zm2.646-2.507c.371 0 .703-.082.995-.248.292-.173.524-.411.696-.717.173-.311.259-.669.259-1.074 0-.404-.086-.759-.259-1.064-.172-.305-.404-.544-.696-.717-.292-.172-.624-.258-.995-.258s-.706.086-1.005.258c-.292.173-.524.412-.696.717-.166.305-.249.66-.249 1.064 0 .405.083.763.249 1.074.172.306.404.544.696.717.299.166.634.248 1.005.248zm6.314.627c-.543 0-1.021-.113-1.432-.338-.411-.232-.733-.547-.965-.945-.232-.405-.348-.866-.348-1.383s.109-.975.328-1.373c.226-.398.531-.709.915-.935.392-.232.829-.348 1.313-.348.491 0 .926.113 1.304.338.384.219.686.531.905.935.219.398.328.859.328 1.383 0 .033-.003.07-.01.11v.109h-4.546v-.527h4.168l-.278.209c0-.378-.083-.713-.249-1.005-.159-.299-.378-.531-.657-.697-.278-.165-.6-.248-.965-.248-.358 0-.679.083-.965.248-.285.166-.507.398-.666.697-.159.298-.239.64-.239 1.024v.11c0 .398.086.749.259 1.054.179.299.424.534.736.707.318.166.68.248 1.084.248.319 0 .614-.056.886-.169.278-.112.517-.285.716-.517l.398.458c-.232.278-.524.49-.876.636-.344.146-.726.219-1.144.219zm6.004 0c-.544 0-1.021-.113-1.432-.338-.411-.232-.733-.547-.965-.945-.232-.405-.348-.866-.348-1.383s.109-.975.328-1.373c.225-.398.53-.709.915-.935.391-.232.829-.348 1.313-.348.491 0 .925.113 1.303.338.385.219.687.531.906.935.219.398.328.859.328 1.383 0 .033-.003.07-.01.11v.109h-4.546v-.527h4.168l-.278.209c0-.378-.083-.713-.249-1.005-.159-.299-.378-.531-.657-.697-.278-.165-.6-.248-.965-.248-.358 0-.68.083-.965.248-.285.166-.507.398-.666.697-.159.298-.239.64-.239 1.024v.11c0 .398.086.749.259 1.054.179.299.424.534.736.707.318.166.68.248 1.084.248.319 0 .614-.056.886-.169.278-.112.517-.285.716-.517l.398.458c-.232.278-.524.49-.876.636-.345.146-.726.219-1.144.219zm5.865 0c-.498 0-.945-.113-1.343-.338-.391-.226-.7-.537-.925-.935-.226-.405-.339-.869-.339-1.393 0-.53.113-.995.339-1.393.225-.398.534-.706.925-.925.398-.225.845-.338 1.343-.338.458 0 .865.103 1.224.308.364.206.653.508.865.906.219.391.328.872.328 1.442 0 .564-.106 1.045-.318 1.443-.212.397-.501.703-.866.915-.358.205-.769.308-1.233.308zm.05-.627c.371 0 .703-.082.994-.248.299-.173.531-.411.697-.717.172-.311.258-.669.258-1.074 0-.411-.086-.769-.258-1.074-.166-.305-.398-.541-.697-.707-.291-.172-.623-.258-.994-.258-.365 0-.693.086-.985.258-.292.166-.524.402-.697.707-.172.305-.258.663-.258 1.074 0 .405.086.763.258 1.074.173.306.405.544.697.717.292.166.62.248.985.248zm1.969.577v-1.571l.07-1.055-.099-1.054v-3.701h.706v7.381zm7.406.05c-.444 0-.832-.083-1.164-.249-.331-.165-.59-.414-.776-.746-.179-.331-.268-.746-.268-1.243v-3.034h.706v2.954c0 .557.136.979.408 1.264.279.278.667.418 1.164.418.365 0 .68-.073.945-.219.272-.153.478-.372.617-.657.146-.285.219-.627.219-1.025v-2.735h.706v5.222h-.676v-1.432l.109.259c-.166.384-.424.686-.776.905-.345.212-.749.318-1.214.318zm7.192-5.322c.424 0 .795.083 1.114.249.325.159.577.404.756.736.186.331.278.749.278 1.253v3.034h-.706v-2.964c0-.551-.139-.965-.418-1.244-.272-.285-.656-.427-1.154-.427-.371 0-.696.076-.975.228-.272.146-.484.362-.636.647-.146.279-.219.617-.219 1.015v2.745h-.707v-5.222h.677v1.432l-.109-.268c.165-.378.431-.674.795-.886.365-.219.8-.328 1.304-.328zm4.056 5.272v-5.222h.707v5.222zm.358-6.376c-.145 0-.268-.05-.368-.15-.099-.099-.149-.218-.149-.358 0-.139.05-.255.149-.348.1-.099.223-.149.368-.149.146 0 .269.046.368.139.1.093.15.209.15.348 0 .146-.05.269-.15.368-.092.1-.215.15-.368.15zm3.965 6.426c-.49 0-.868-.132-1.134-.398-.265-.265-.398-.64-.398-1.124v-4.904h.707v4.864c0 .305.076.541.228.707.16.165.385.248.677.248.312 0 .57-.089.776-.268l.249.507c-.14.126-.309.219-.508.279-.192.059-.391.089-.597.089zm-2.467-4.685v-.587h3.233v.587z" fill="#24211e"/><path clip-rule="evenodd" d="m332.674 295.171-4.299 4.731c-.264.29-.691.29-.955 0l-4.299-4.731c-.264-.291-.264-.761 0-1.052.264-.29.692-.29.956 0l3.82 4.206 3.821-4.206c.264-.29.692-.29.956 0 .264.291.264.761 0 1.052z" fill="#24211e" fill-rule="evenodd"/><path d="m274.498 295.52c.424 0 .792.083 1.104.249.318.159.564.404.736.736.179.331.269.749.269 1.253v3.034h-.707v-2.964c0-.551-.132-.965-.398-1.244-.258-.285-.626-.427-1.104-.427-.358 0-.67.076-.935.228-.259.146-.461.362-.607.647-.139.279-.209.617-.209 1.015v2.745h-.706v-2.964c0-.551-.133-.965-.398-1.244-.265-.285-.637-.427-1.114-.427-.352 0-.66.076-.925.228-.266.146-.471.362-.617.647-.139.279-.209.617-.209 1.015v2.745h-.706v-5.222h.676v1.412l-.109-.248c.159-.378.414-.674.766-.886.358-.219.779-.328 1.263-.328.511 0 .945.129 1.303.388.359.252.591.633.697 1.144l-.279-.109c.153-.425.421-.767.806-1.025.391-.265.859-.398 1.403-.398zm2.791 6.267 3.283-9.371h.646l-3.283 9.371zm5.288-.945c-.431 0-.839-.059-1.224-.179-.384-.126-.686-.282-.905-.467l.319-.558c.212.16.484.299.815.418.332.113.68.169 1.045.169.497 0 .855-.076 1.074-.228.219-.16.329-.368.329-.627 0-.192-.063-.342-.19-.448-.119-.113-.278-.195-.477-.249-.199-.059-.421-.109-.667-.149-.245-.04-.49-.086-.736-.139-.238-.053-.457-.129-.656-.229-.199-.106-.362-.249-.488-.428-.119-.179-.179-.417-.179-.716 0-.285.08-.54.239-.766.159-.225.391-.401.696-.527.312-.133.69-.199 1.134-.199.339 0 .677.046 1.015.139.338.086.617.202.836.348l-.309.567c-.232-.159-.48-.271-.746-.338-.265-.073-.53-.109-.796-.109-.47 0-.819.083-1.044.248-.219.16-.328.365-.328.617 0 .199.059.355.179.468.126.113.288.202.487.268.206.06.428.11.667.15.245.039.487.089.726.149.245.053.467.129.666.229.206.093.368.228.488.408.126.172.189.401.189.686 0 .305-.086.57-.259.796-.166.219-.411.391-.736.517-.318.12-.706.179-1.164.179z" fill="#24211e"/><g filter="url(#g)"><rect fill="#fff" height="31.088" rx="3.73056" width="74.6113" x="262.417" y="255.795"/></g><rect fill="#1b75ba" height="14.9223" rx="1.86528" width="70.8807" x="264.293" y="257.661"/><path d="m269.234 268.963c-.557 0-1.038-.08-1.442-.239-.398-.159-.707-.388-.926-.686-.212-.305-.318-.663-.318-1.075 0-.397.103-.736.308-1.014.213-.285.518-.504.916-.657.404-.152.892-.229 1.462-.229.564 0 1.048.077 1.453.229.404.153.712.372.925.657.219.278.328.617.328 1.014 0 .412-.109.77-.328 1.075-.219.298-.531.527-.935.686-.405.159-.886.239-1.443.239zm0-.607c.617 0 1.098-.126 1.443-.378.351-.252.527-.593.527-1.024 0-.432-.176-.77-.527-1.015-.345-.252-.826-.378-1.443-.378s-1.098.126-1.442.378c-.345.245-.518.583-.518 1.015 0 .431.173.772.518 1.024.344.252.825.378 1.442.378zm0-2.885c-.517 0-.958-.069-1.323-.209-.358-.139-.633-.338-.826-.597-.192-.265-.288-.58-.288-.945 0-.384.099-.713.298-.985.206-.278.491-.49.856-.636s.792-.219 1.283-.219.919.073 1.283.219c.372.146.66.358.866.636.205.272.308.601.308.985 0 .365-.096.68-.288.945-.193.259-.474.458-.846.597-.365.14-.806.209-1.323.209zm0-.477c.544 0 .968-.113 1.273-.339.306-.225.458-.527.458-.905 0-.398-.159-.706-.477-.925-.312-.225-.73-.338-1.254-.338s-.942.113-1.253.338c-.312.219-.468.524-.468.915 0 .385.149.69.448.915.305.226.729.339 1.273.339zm6.553 3.969c-.617 0-1.138-.136-1.562-.408-.424-.278-.746-.676-.965-1.194-.219-.524-.328-1.15-.328-1.88 0-.789.132-1.449.398-1.98.272-.537.646-.941 1.124-1.213.477-.272 1.031-.408 1.661-.408.312 0 .61.03.896.089.285.06.537.156.756.289l-.289.577c-.179-.119-.385-.202-.617-.249-.232-.053-.477-.079-.736-.079-.749 0-1.35.238-1.8.716-.445.477-.667 1.19-.667 2.139 0 .146.007.328.02.547.02.212.06.424.119.637l-.248-.189c.073-.345.215-.637.427-.876.213-.245.478-.431.796-.557.319-.126.667-.189 1.045-.189.464 0 .872.086 1.223.259.352.172.627.414.826.726s.298.68.298 1.104c0 .431-.102.809-.308 1.134-.205.319-.491.567-.855.746-.359.173-.763.259-1.214.259zm-.03-.607c.332 0 .623-.059.875-.179.259-.126.461-.302.607-.527.146-.232.219-.501.219-.806 0-.458-.159-.822-.477-1.094-.312-.272-.736-.408-1.274-.408-.358 0-.67.066-.935.199s-.474.315-.627.547c-.152.226-.228.484-.228.776 0 .252.069.494.209.726.139.226.344.411.616.557.279.14.617.209 1.015.209zm5.883.607c-.557 0-1.038-.08-1.442-.239-.398-.159-.707-.388-.926-.686-.212-.305-.318-.663-.318-1.075 0-.397.103-.736.309-1.014.212-.285.517-.504.915-.657.404-.152.892-.229 1.462-.229.564 0 1.048.077 1.453.229.404.153.713.372.925.657.219.278.328.617.328 1.014 0 .412-.109.77-.328 1.075-.219.298-.531.527-.935.686-.405.159-.886.239-1.443.239zm0-.607c.617 0 1.098-.126 1.443-.378.351-.252.527-.593.527-1.024 0-.432-.176-.77-.527-1.015-.345-.252-.826-.378-1.443-.378s-1.097.126-1.442.378c-.345.245-.518.583-.518 1.015 0 .431.173.772.518 1.024s.825.378 1.442.378zm0-2.885c-.517 0-.958-.069-1.323-.209-.358-.139-.633-.338-.826-.597-.192-.265-.288-.58-.288-.945 0-.384.099-.713.298-.985.206-.278.491-.49.856-.636s.792-.219 1.283-.219.919.073 1.283.219c.372.146.66.358.866.636.206.272.308.601.308.985 0 .365-.096.68-.288.945-.192.259-.474.458-.846.597-.365.14-.806.209-1.323.209zm0-.477c.544 0 .968-.113 1.274-.339.305-.225.457-.527.457-.905 0-.398-.159-.706-.477-.925-.312-.225-.73-.338-1.254-.338s-.942.113-1.253.338c-.312.219-.468.524-.468.915 0 .385.149.69.448.915.305.226.729.339 1.273.339zm6.918 3.909v-6.963h.607l3.183 5.431h-.318l3.154-5.431h.607v6.963h-.707v-5.859h.169l-2.905 4.974h-.348l-2.924-4.974h.189v5.859zm14.595-6.963h.726v6.963h-.726zm-4.357 6.963h-.736v-6.963h.736zm4.427-3.213h-4.507v-.647h4.507zm2.213 3.213v-.467l3.482-4.407.149.239h-3.571v-.587h4.128v.457l-3.472 4.417-.179-.239h3.721v.587z" fill="#fff"/><path d="m269.372 275.56c.616 0 1.137.139 1.561.418.425.271.747.666.965 1.183.219.518.329 1.144.329 1.881 0 .782-.136 1.442-.408 1.979-.265.537-.637.942-1.114 1.214-.478.272-1.032.408-1.662.408-.311 0-.61-.03-.895-.09-.279-.059-.531-.156-.756-.288l.288-.577c.179.119.385.205.617.258.239.047.484.07.736.07.75 0 1.347-.239 1.791-.716.451-.478.676-1.191.676-2.139 0-.153-.009-.335-.029-.547-.014-.212-.05-.425-.11-.637l.249.189c-.066.345-.209.64-.428.886-.212.238-.477.421-.796.547-.311.126-.66.189-1.044.189-.458 0-.866-.087-1.224-.259-.351-.172-.627-.414-.826-.726s-.298-.68-.298-1.104c0-.438.103-.816.308-1.135.206-.318.488-.563.846-.736.365-.179.773-.268 1.224-.268zm.029.607c-.331 0-.626.063-.885.189-.252.119-.451.291-.597.517-.146.225-.219.494-.219.806 0 .457.156.822.468 1.094.318.272.746.408 1.283.408.358 0 .67-.066.935-.199.272-.133.481-.315.627-.547.153-.232.229-.491.229-.776 0-.259-.07-.501-.209-.726-.139-.226-.345-.408-.617-.548-.272-.145-.61-.218-1.015-.218zm5.078 6.416v-6.665l.318.338h-1.96v-.637h2.358v6.964zm4.579.06c-.497 0-.971-.08-1.422-.239-.451-.166-.81-.385-1.075-.657l.348-.567c.219.233.518.425.896.577.384.153.799.229 1.243.229.59 0 1.038-.129 1.343-.388.312-.265.468-.61.468-1.034 0-.299-.073-.554-.219-.766-.139-.219-.378-.388-.716-.508-.339-.119-.803-.179-1.393-.179h-1.482l.358-3.492h3.81v.637h-3.522l.368-.348-.308 2.925-.368-.358h1.303c.703 0 1.267.086 1.691.258.425.173.73.415.915.726.193.305.289.664.289 1.075 0 .391-.093.749-.279 1.074-.185.319-.464.571-.835.756-.372.186-.843.279-1.413.279zm6.657-.06v-6.964h.607l3.183 5.432h-.318l3.153-5.432h.607v6.964h-.706v-5.859h.169l-2.905 4.974h-.348l-2.925-4.974h.189v5.859zm14.594-6.964h.727v6.964h-.727zm-4.357 6.964h-.736v-6.964h.736zm4.427-3.213h-4.506v-.647h4.506zm2.213 3.213v-.467l3.482-4.407.149.238h-3.571v-.587h4.128v.458l-3.471 4.417-.18-.239h3.721v.587z" fill="#24211e"/><g filter="url(#h)"><rect fill="#cac9c9" height="73.3677" rx="2.17616" width="4.35232" x="342.284" y="163.948"/></g></g></svg>