<svg width="626" height="501" viewBox="0 0 626 501" fill="none" xmlns="http://www.w3.org/2000/svg">
<rect width="625.985" height="500.293" fill="#F2F4F9"/>
<g filter="url(#filter0_ii_27_32)">
<rect x="355.626" y="65" width="215.359" height="157.212" rx="3.87336" fill="white"/>
</g>
<rect x="356.401" y="65.7747" width="213.809" height="155.662" rx="3.09869" stroke="black" stroke-width="1.54934"/>
<path d="M375.547 95.1503C378.818 95.1503 381.47 92.4987 381.47 89.2278C381.47 85.957 378.818 83.3054 375.547 83.3054C372.277 83.3054 369.625 85.957 369.625 89.2278C369.625 92.4987 372.277 95.1503 375.547 95.1503Z" fill="#333333"/>
<path d="M375.54 92.9782C374.881 92.9781 374.233 92.8034 373.663 92.4719C373.093 92.1404 372.62 91.664 372.294 91.0909C371.967 90.5178 371.798 89.8685 371.804 89.209C371.809 88.5494 371.989 87.9031 372.326 87.3356C372.657 86.7771 373.129 86.3144 373.693 85.9926C373.811 85.9255 373.951 85.9079 374.081 85.9437C374.212 85.9796 374.323 86.0659 374.39 86.1837C374.457 86.3015 374.475 86.4412 374.439 86.5719C374.403 86.7027 374.317 86.8138 374.199 86.881C373.783 87.1187 373.436 87.4621 373.195 87.8766C372.954 88.2911 372.827 88.762 372.826 89.2415C372.826 90.7381 374.044 91.9558 375.54 91.9558C377.037 91.9558 378.255 90.7381 378.255 89.2415C378.254 88.7619 378.127 88.2911 377.885 87.8766C377.644 87.4621 377.298 87.1186 376.881 86.881C376.822 86.8482 376.77 86.8041 376.728 86.751C376.686 86.6979 376.655 86.637 376.636 86.5718C376.618 86.5066 376.613 86.4384 376.621 86.3711C376.629 86.3039 376.651 86.239 376.684 86.1801C376.718 86.1212 376.763 86.0696 376.816 86.0283C376.87 85.9869 376.931 85.9566 376.997 85.9392C377.062 85.9217 377.13 85.9175 377.198 85.9266C377.265 85.9358 377.329 85.9582 377.388 85.9926C377.962 86.3189 378.439 86.7914 378.771 87.3621C379.103 87.9328 379.277 88.5813 379.277 89.2415C379.277 89.7323 379.181 90.2184 378.993 90.672C378.806 91.1255 378.53 91.5377 378.183 91.8847C377.836 92.2318 377.424 92.5071 376.971 92.6947C376.517 92.8824 376.031 92.9788 375.54 92.9784L375.54 92.9782Z" fill="white"/>
<path d="M375.541 88.7958C375.474 88.7958 375.407 88.7826 375.345 88.7569C375.283 88.7313 375.227 88.6936 375.179 88.6461C375.132 88.5986 375.094 88.5423 375.068 88.4802C375.043 88.4182 375.03 88.3517 375.03 88.2845V85.4129C375.032 85.2786 375.086 85.1505 375.182 85.0563C375.278 84.962 375.406 84.9092 375.541 84.9092C375.675 84.9092 375.804 84.962 375.9 85.0563C375.995 85.1505 376.05 85.2786 376.052 85.4129V88.2845C376.052 88.3517 376.039 88.4182 376.013 88.4802C375.987 88.5422 375.95 88.5986 375.902 88.6461C375.855 88.6936 375.798 88.7312 375.736 88.7569C375.674 88.7826 375.608 88.7958 375.541 88.7958Z" fill="white"/>
<g filter="url(#filter1_ii_27_32)">
<rect x="355.626" y="113.456" width="215.359" height="37.6878" fill="#1B75BA"/>
</g>
<rect x="356.401" y="114.23" width="213.809" height="36.1384" stroke="black" stroke-width="1.54934"/>
<g filter="url(#filter2_ii_27_32)">
<rect x="355.626" y="148.99" width="215.359" height="37.6878" fill="#918D8C"/>
</g>
<rect x="356.401" y="149.765" width="213.809" height="36.1384" stroke="black" stroke-width="1.54934"/>
<g filter="url(#filter3_ii_27_32)">
<path d="M355.626 184.524H570.985V218.338C570.985 220.478 569.251 222.212 567.112 222.212H359.5C357.361 222.212 355.626 220.478 355.626 218.338V184.524Z" fill="black"/>
</g>
<path d="M356.401 185.299H570.21V218.338C570.21 220.05 568.823 221.437 567.112 221.437H359.5C357.788 221.437 356.401 220.05 356.401 218.338V185.299Z" stroke="black" stroke-width="1.54934"/>
<path d="M371.779 186.678H554.834V198.739C554.834 199.809 553.967 200.676 552.898 200.676H373.716C372.646 200.676 371.779 199.809 371.779 198.739V186.678Z" fill="url(#paint0_linear_27_32)"/>
<g filter="url(#filter4_i_27_32)">
<rect x="389.01" y="72.5376" width="27.9966" height="34.4574" rx="4.64803" fill="white"/>
</g>
<rect x="389.397" y="72.9249" width="27.222" height="33.6827" rx="4.26069" stroke="black" stroke-width="0.774672"/>
<path d="M391.164 72.5376H414.854V101.743C414.854 103.454 413.467 104.841 411.755 104.841H394.263C392.552 104.841 391.164 103.454 391.164 101.743V72.5376Z" fill="white"/>
<path d="M391.164 76.7131C391.164 75.2524 391.164 74.522 391.618 74.0682C392.072 73.6144 392.802 73.6144 394.263 73.6144H411.755C413.216 73.6144 413.946 73.6144 414.4 74.0682C414.854 74.522 414.854 75.2524 414.854 76.7131V84.5141C414.854 85.9748 414.854 86.7052 414.4 87.159C413.946 87.6128 413.216 87.6128 411.755 87.6128H394.263C392.802 87.6128 392.072 87.6128 391.618 87.159C391.164 86.7052 391.164 85.9748 391.164 84.5141V76.7131Z" fill="url(#paint1_linear_27_32)"/>
<g filter="url(#filter5_i_27_32)">
<rect x="441.772" y="84.3822" width="45.2253" height="10.7679" rx="4.64803" fill="#D9D9D9"/>
</g>
<rect x="442.16" y="84.7695" width="44.4506" height="9.99326" rx="4.26069" stroke="black" stroke-width="0.774672"/>
<line x1="449.005" y1="90.0683" x2="479.759" y2="90.0683" stroke="black" stroke-width="1.54934" stroke-linecap="round"/>
<rect x="511.456" y="84.0802" width="43.676" height="19.9865" fill="#911016" stroke="black" stroke-width="1.54934"/>
<rect x="518.223" y="99.4574" width="29.0734" height="5.38397" fill="black"/>
<circle cx="521.453" cy="92.9965" r="2.15359" fill="black"/>
<circle cx="528.995" cy="92.9966" r="2.15359" fill="black"/>
<circle cx="536.529" cy="92.9966" r="2.15359" fill="black"/>
<circle cx="544.064" cy="92.9966" r="2.15359" fill="black"/>
<line x1="512.836" y1="79.6878" x2="514.99" y2="79.6878" stroke="black" stroke-width="0.774672"/>
<line x1="513.914" y1="75.3805" x2="518.221" y2="75.3805" stroke="black" stroke-width="0.774672"/>
<line x1="517.146" y1="79.6878" x2="519.299" y2="79.6878" stroke="black" stroke-width="0.774672"/>
<line x1="514.604" y1="80.0751" x2="514.604" y2="74.6912" stroke="black" stroke-width="0.774672"/>
<line x1="517.829" y1="80.0751" x2="517.829" y2="74.6912" stroke="black" stroke-width="0.774672"/>
<line x1="524.674" y1="79.6878" x2="528.982" y2="79.6878" stroke="black" stroke-width="0.774672"/>
<line x1="527.906" y1="75.3805" x2="532.213" y2="75.3805" stroke="black" stroke-width="0.774672"/>
<line x1="528.596" y1="80.0751" x2="528.596" y2="74.6912" stroke="black" stroke-width="0.774672"/>
<line x1="540.44" y1="80.0751" x2="540.44" y2="74.6912" stroke="black" stroke-width="0.774672"/>
<line x1="537.596" y1="77.5342" x2="542.98" y2="77.5342" stroke="black" stroke-width="0.774672"/>
<line x1="548.369" y1="77.5342" x2="553.753" y2="77.5342" stroke="black" stroke-width="0.774672"/>
<g filter="url(#filter6_i_27_32)">
<path d="M404.086 113.456H429.929V134.31C429.929 139.444 425.767 143.606 420.633 143.606H413.382C408.248 143.606 404.086 139.444 404.086 134.31V113.456Z" fill="#686867"/>
</g>
<path d="M404.86 114.23H429.154V134.31C429.154 139.016 425.339 142.831 420.633 142.831H413.382C408.676 142.831 404.86 139.016 404.86 134.31V114.23Z" stroke="black" stroke-width="1.54934"/>
<g filter="url(#filter7_i_27_32)">
<path d="M404.086 148.99H429.929V169.844C429.929 174.978 425.767 179.14 420.633 179.14H413.382C408.248 179.14 404.086 174.978 404.086 169.844V148.99Z" fill="#686867"/>
</g>
<path d="M404.86 149.765H429.154V169.844C429.154 174.55 425.339 178.365 420.633 178.365H413.382C408.676 178.365 404.86 174.55 404.86 169.844V149.765Z" stroke="black" stroke-width="1.54934"/>
<circle cx="417.003" cy="126.377" r="8.61435" fill="black"/>
<g filter="url(#filter8_i_27_32)">
<circle cx="417.004" cy="126.377" r="6.46076" fill="#FFD700"/>
</g>
<circle cx="417" cy="126.377" r="2.15359" fill="black"/>
<circle cx="417.003" cy="161.911" r="8.61435" fill="black"/>
<g filter="url(#filter9_i_27_32)">
<circle cx="417.004" cy="161.911" r="6.46076" fill="#FFD700"/>
</g>
<circle cx="417" cy="161.911" r="2.15359" fill="black"/>
<path d="M337.985 162.815C336.881 162.815 335.985 163.71 335.985 164.815C335.985 165.919 336.881 166.815 337.985 166.815V162.815ZM392.399 166.229C393.18 165.448 393.18 164.181 392.399 163.4L379.671 150.672C378.89 149.891 377.624 149.891 376.843 150.672C376.062 151.453 376.062 152.72 376.843 153.501L388.157 164.815L376.843 176.128C376.062 176.909 376.062 178.176 376.843 178.957C377.624 179.738 378.89 179.738 379.671 178.957L392.399 166.229ZM337.985 166.815H390.985V162.815H337.985V166.815Z" fill="black"/>
<mask id="path-48-inside-1_27_32" fill="white">
<path d="M234.22 391.976C233.533 391.976 232.822 391.976 232.135 391.952C231.58 391.976 231.048 391.952 230.495 391.952C230.229 391.952 229.963 391.929 229.717 391.929C229.428 391.929 229.141 391.929 228.875 391.905C227.767 391.905 226.656 391.861 225.572 391.818C223.619 391.75 221.669 391.663 219.759 391.551C218.496 391.484 217.23 391.396 215.987 391.309C214.944 391.241 213.923 391.154 212.906 391.066C211.862 390.979 210.865 390.888 209.845 390.776C208.737 390.665 207.649 390.554 206.585 390.423C205.652 390.311 204.723 390.2 203.813 390.089C203.591 390.065 203.349 390.022 203.126 390.001C202.416 389.914 201.705 389.803 200.998 389.691C200.021 389.557 199.092 389.425 198.136 389.27C197.183 389.135 196.25 388.96 195.317 388.805C194.94 388.738 194.563 388.67 194.185 388.606C191.744 388.162 189.373 387.673 187.043 387.164C185.312 386.763 183.628 386.366 181.964 385.945C180.257 385.5 178.593 385.058 176.95 384.57C176.128 384.347 175.31 384.105 174.512 383.839C173.713 383.616 172.915 383.35 172.117 383.084C171.339 382.841 170.541 382.575 169.787 382.305C169.009 382.039 168.258 381.773 167.504 381.507C167.48 381.483 167.46 381.483 167.46 381.483C165.931 380.927 164.442 380.351 162.981 379.751C161.671 379.219 160.364 378.663 159.098 378.11C157.899 377.602 156.747 377.046 155.592 376.513C153.885 375.691 152.198 374.849 150.578 373.983C149.8 373.562 149.025 373.14 148.271 372.719C146.85 371.921 145.456 371.098 144.102 370.232C143.415 369.832 142.772 369.41 142.105 368.969C140.397 367.881 138.734 366.728 137.158 365.572C136.447 365.064 135.784 364.551 135.117 364.043C135.029 363.975 134.938 363.908 134.851 363.844C134.474 363.534 134.073 363.244 133.719 362.934C133.12 362.489 132.544 362.024 131.988 361.516C131.19 360.848 130.412 360.205 129.658 359.517C129.304 359.228 128.971 358.918 128.638 358.584C128.622 358.568 128.607 358.554 128.594 358.54C128.106 358.119 127.617 357.674 127.152 357.186C127.085 357.142 127.018 357.075 126.954 357.007L126.93 356.984C126.863 356.94 126.819 356.896 126.752 356.829C126.132 356.252 125.509 355.629 124.933 355.029C124.314 354.409 123.714 353.786 123.135 353.142C122.714 352.698 122.293 352.233 121.916 351.788C121.273 351.1 120.653 350.366 120.053 349.658C119.545 349.059 119.033 348.459 118.589 347.839C118.188 347.35 117.811 346.862 117.433 346.397C117.39 346.353 117.366 346.309 117.346 346.262C116.77 345.507 116.214 344.752 115.682 343.997C115.218 343.354 114.773 342.71 114.372 342.067C114.349 342.023 114.305 341.999 114.285 341.956C114.174 341.777 114.062 341.622 113.951 341.443C113.729 341.133 113.53 340.8 113.308 340.466C112.975 339.934 112.641 339.402 112.331 338.869C112.022 338.357 111.712 337.825 111.399 337.316C111.109 336.851 110.843 336.362 110.601 335.894C110.334 335.405 110.068 334.917 109.802 334.408C109.715 334.209 109.604 334.007 109.513 333.808C109.445 333.697 109.378 333.586 109.334 333.475C109.092 333.053 108.89 332.632 108.667 332.187C108.247 331.345 107.869 330.499 107.492 329.657C107.25 329.148 107.048 328.659 106.825 328.147C106.627 327.639 106.404 327.126 106.206 326.618C106.007 326.109 105.805 325.573 105.606 325.064C105.206 323.999 104.852 322.911 104.498 321.846C105.229 322.136 105.983 322.423 106.738 322.689C133.888 332.632 167.049 330.59 190.006 316.587C203.005 308.665 210.879 293.327 211.498 277.281L211.498 277.237C211.3 272.133 210.347 267.008 208.572 262.102C200.341 239.219 177.074 228.235 146.311 232.672C115.723 237.11 93.1864 266.718 92.4792 301.737C92.5028 302.937 92.5668 304.156 92.6577 305.376C92.6813 305.575 92.7015 305.797 92.7015 306.02C92.6342 305.976 92.5466 305.909 92.4792 305.865C92.5028 307.108 92.5668 308.351 92.6577 309.595C92.6813 309.794 92.7015 310.016 92.7015 310.238C91.9909 309.773 91.3275 309.261 90.6169 308.752C90.5732 308.709 90.5058 308.685 90.462 308.618C90.3273 308.53 90.196 308.439 90.0613 308.328C89.1756 307.684 88.3101 306.973 87.4446 306.242C87.1786 306.043 86.9126 305.821 86.6667 305.599C86.266 305.245 85.8888 304.911 85.5116 304.554C84.6697 303.823 83.848 303.044 83.0734 302.246C82.6727 301.845 82.2955 301.447 81.8981 301.026C81.4772 300.625 81.0764 300.184 80.7228 299.763C80.3221 299.318 79.9449 298.897 79.5677 298.432C79.1906 297.987 78.8134 297.545 78.4362 297.077C78.059 296.612 77.6818 296.123 77.3282 295.655C74.9339 292.505 72.7381 288.973 70.8287 285.024C70.63 284.58 70.4077 284.138 70.2091 283.693C68.8788 280.785 67.7035 277.655 66.7505 274.282C66.5282 273.571 66.3295 272.84 66.151 272.109C65.9288 271.31 65.7301 270.488 65.5752 269.666C65.4203 269.046 65.3092 268.423 65.1745 267.803C64.9758 266.782 64.7737 265.761 64.6423 264.696C64.5312 264.076 64.4437 263.453 64.3527 262.833C63.9082 259.547 63.6422 256.087 63.5748 252.424C63.5513 251.026 63.531 249.628 63.5748 248.273C63.5513 248.249 63.5513 248.229 63.5748 248.206C63.0629 224.771 69.1853 206.437 81.6287 193.721C97.5341 177.496 123.795 169.619 161.9 169.619L297.471 169.619L297.471 165.268L161.91 165.269C121.387 165.269 93.1494 174.012 75.5366 191.969C62.1839 205.551 55.3072 224.548 55.0176 248.384C54.9941 248.452 54.9941 248.495 55.0176 248.563C55.6171 277.369 68.1043 300.649 90.3509 314.676L90.3509 314.7C91.6374 315.498 92.9675 316.297 94.3449 317.052C102.905 356.155 141.256 394.149 226.831 396.215C227.586 396.238 228.36 396.238 229.138 396.259C229.583 396.259 230.047 396.282 230.492 396.282C231.024 396.282 231.58 396.306 232.132 396.282C232.819 396.306 233.506 396.306 234.217 396.306L234.217 391.979L234.22 391.976ZM101.976 315.609C101.599 313.389 101.356 311.192 101.198 308.975C101.043 306.69 100.976 304.402 101.063 302.138C101.04 302.071 101.04 302.003 101.063 301.939C99.9756 269.76 120.384 240.84 147.533 236.914C174.374 233.053 193.69 241.753 200.523 260.794C202.163 265.367 202.961 270.205 202.961 275.02C202.961 275.751 202.938 276.486 202.894 277.241C202.938 277.908 202.961 278.572 202.961 279.239C202.961 293.155 196.442 306.869 185.571 313.507C162.856 327.332 127.59 328.066 101.973 315.616L101.976 315.609Z"/>
</mask>
<path d="M234.22 391.976C233.533 391.976 232.822 391.976 232.135 391.952C231.58 391.976 231.048 391.952 230.495 391.952C230.229 391.952 229.963 391.929 229.717 391.929C229.428 391.929 229.141 391.929 228.875 391.905C227.767 391.905 226.656 391.861 225.572 391.818C223.619 391.75 221.669 391.663 219.759 391.551C218.496 391.484 217.23 391.396 215.987 391.309C214.944 391.241 213.923 391.154 212.906 391.066C211.862 390.979 210.865 390.888 209.845 390.776C208.737 390.665 207.649 390.554 206.585 390.423C205.652 390.311 204.723 390.2 203.813 390.089C203.591 390.065 203.349 390.022 203.126 390.001C202.416 389.914 201.705 389.803 200.998 389.691C200.021 389.557 199.092 389.425 198.136 389.27C197.183 389.135 196.25 388.96 195.317 388.805C194.94 388.738 194.563 388.67 194.185 388.606C191.744 388.162 189.373 387.673 187.043 387.164C185.312 386.763 183.628 386.366 181.964 385.945C180.257 385.5 178.593 385.058 176.95 384.57C176.128 384.347 175.31 384.105 174.512 383.839C173.713 383.616 172.915 383.35 172.117 383.084C171.339 382.841 170.541 382.575 169.787 382.305C169.009 382.039 168.258 381.773 167.504 381.507C167.48 381.483 167.46 381.483 167.46 381.483C165.931 380.927 164.442 380.351 162.981 379.751C161.671 379.219 160.364 378.663 159.098 378.11C157.899 377.602 156.747 377.046 155.592 376.513C153.885 375.691 152.198 374.849 150.578 373.983C149.8 373.562 149.025 373.14 148.271 372.719C146.85 371.921 145.456 371.098 144.102 370.232C143.415 369.832 142.772 369.41 142.105 368.969C140.397 367.881 138.734 366.728 137.158 365.572C136.447 365.064 135.784 364.551 135.117 364.043C135.029 363.975 134.938 363.908 134.851 363.844C134.474 363.534 134.073 363.244 133.719 362.934C133.12 362.489 132.544 362.024 131.988 361.516C131.19 360.848 130.412 360.205 129.658 359.517C129.304 359.228 128.971 358.918 128.638 358.584C128.622 358.568 128.607 358.554 128.594 358.54C128.106 358.119 127.617 357.674 127.152 357.186C127.085 357.142 127.018 357.075 126.954 357.007L126.93 356.984C126.863 356.94 126.819 356.896 126.752 356.829C126.132 356.252 125.509 355.629 124.933 355.029C124.314 354.409 123.714 353.786 123.135 353.142C122.714 352.698 122.293 352.233 121.916 351.788C121.273 351.1 120.653 350.366 120.053 349.658C119.545 349.059 119.033 348.459 118.589 347.839C118.188 347.35 117.811 346.862 117.433 346.397C117.39 346.353 117.366 346.309 117.346 346.262C116.77 345.507 116.214 344.752 115.682 343.997C115.218 343.354 114.773 342.71 114.372 342.067C114.349 342.023 114.305 341.999 114.285 341.956C114.174 341.777 114.062 341.622 113.951 341.443C113.729 341.133 113.53 340.8 113.308 340.466C112.975 339.934 112.641 339.402 112.331 338.869C112.022 338.357 111.712 337.825 111.399 337.316C111.109 336.851 110.843 336.362 110.601 335.894C110.334 335.405 110.068 334.917 109.802 334.408C109.715 334.209 109.604 334.007 109.513 333.808C109.445 333.697 109.378 333.586 109.334 333.475C109.092 333.053 108.89 332.632 108.667 332.187C108.247 331.345 107.869 330.499 107.492 329.657C107.25 329.148 107.048 328.659 106.825 328.147C106.627 327.639 106.404 327.126 106.206 326.618C106.007 326.109 105.805 325.573 105.606 325.064C105.206 323.999 104.852 322.911 104.498 321.846C105.229 322.136 105.983 322.423 106.738 322.689C133.888 332.632 167.049 330.59 190.006 316.587C203.005 308.665 210.879 293.327 211.498 277.281L211.498 277.237C211.3 272.133 210.347 267.008 208.572 262.102C200.341 239.219 177.074 228.235 146.311 232.672C115.723 237.11 93.1864 266.718 92.4792 301.737C92.5028 302.937 92.5668 304.156 92.6577 305.376C92.6813 305.575 92.7015 305.797 92.7015 306.02C92.6342 305.976 92.5466 305.909 92.4792 305.865C92.5028 307.108 92.5668 308.351 92.6577 309.595C92.6813 309.794 92.7015 310.016 92.7015 310.238C91.9909 309.773 91.3275 309.261 90.6169 308.752C90.5732 308.709 90.5058 308.685 90.462 308.618C90.3273 308.53 90.196 308.439 90.0613 308.328C89.1756 307.684 88.3101 306.973 87.4446 306.242C87.1786 306.043 86.9126 305.821 86.6667 305.599C86.266 305.245 85.8888 304.911 85.5116 304.554C84.6697 303.823 83.848 303.044 83.0734 302.246C82.6727 301.845 82.2955 301.447 81.8981 301.026C81.4772 300.625 81.0764 300.184 80.7228 299.763C80.3221 299.318 79.9449 298.897 79.5677 298.432C79.1906 297.987 78.8134 297.545 78.4362 297.077C78.059 296.612 77.6818 296.123 77.3282 295.655C74.9339 292.505 72.7381 288.973 70.8287 285.024C70.63 284.58 70.4077 284.138 70.2091 283.693C68.8788 280.785 67.7035 277.655 66.7505 274.282C66.5282 273.571 66.3295 272.84 66.151 272.109C65.9288 271.31 65.7301 270.488 65.5752 269.666C65.4203 269.046 65.3092 268.423 65.1745 267.803C64.9758 266.782 64.7737 265.761 64.6423 264.696C64.5312 264.076 64.4437 263.453 64.3527 262.833C63.9082 259.547 63.6422 256.087 63.5748 252.424C63.5513 251.026 63.531 249.628 63.5748 248.273C63.5513 248.249 63.5513 248.229 63.5748 248.206C63.0629 224.771 69.1853 206.437 81.6287 193.721C97.5341 177.496 123.795 169.619 161.9 169.619L297.471 169.619L297.471 165.268L161.91 165.269C121.387 165.269 93.1494 174.012 75.5366 191.969C62.1839 205.551 55.3072 224.548 55.0176 248.384C54.9941 248.452 54.9941 248.495 55.0176 248.563C55.6171 277.369 68.1043 300.649 90.3509 314.676L90.3509 314.7C91.6374 315.498 92.9675 316.297 94.3449 317.052C102.905 356.155 141.256 394.149 226.831 396.215C227.586 396.238 228.36 396.238 229.138 396.259C229.583 396.259 230.047 396.282 230.492 396.282C231.024 396.282 231.58 396.306 232.132 396.282C232.819 396.306 233.506 396.306 234.217 396.306L234.217 391.979L234.22 391.976ZM101.976 315.609C101.599 313.389 101.356 311.192 101.198 308.975C101.043 306.69 100.976 304.402 101.063 302.138C101.04 302.071 101.04 302.003 101.063 301.939C99.9756 269.76 120.384 240.84 147.533 236.914C174.374 233.053 193.69 241.753 200.523 260.794C202.163 265.367 202.961 270.205 202.961 275.02C202.961 275.751 202.938 276.486 202.894 277.241C202.938 277.908 202.961 278.572 202.961 279.239C202.961 293.155 196.442 306.869 185.571 313.507C162.856 327.332 127.59 328.066 101.973 315.616L101.976 315.609Z" stroke="black" stroke-width="12.3947" mask="url(#path-48-inside-1_27_32)"/>
<mask id="path-49-inside-2_27_32" fill="white">
<path d="M92.7031 310.244C92.0161 309.779 91.3056 309.267 90.6186 308.758C90.5748 308.715 90.5074 308.691 90.4636 308.624C90.3289 308.536 90.1976 308.445 90.0629 308.334C89.1772 307.69 88.3117 306.979 87.4462 306.248C87.1802 306.049 86.9141 305.827 86.6683 305.604C86.2675 305.251 85.8904 304.917 85.5166 304.56C84.6747 303.829 83.853 303.05 83.075 302.252C82.6743 301.851 82.2971 301.453 81.8997 301.032C81.4788 300.631 81.078 300.19 80.7244 299.768C80.3237 299.324 79.9465 298.903 79.5693 298.438C79.1922 297.993 78.815 297.551 78.4378 297.083C78.0606 296.618 77.6834 296.129 77.3298 295.664C74.9354 292.514 72.7397 288.983 70.8303 285.034C70.608 284.589 70.4093 284.147 70.2106 283.703C68.8804 280.795 67.7051 277.664 66.7521 274.292C66.5298 273.581 66.3311 272.849 66.1526 272.118C65.9304 271.32 65.7317 270.498 65.5768 269.679C65.4219 269.059 65.3107 268.435 65.176 267.815C64.9773 266.794 64.7753 265.773 64.6439 264.709C64.5328 264.089 64.4452 263.465 64.3543 262.845C63.9098 259.56 63.6437 256.1 63.5764 252.437C63.5528 251.039 63.5326 249.64 63.5764 248.286C64.1758 278.224 77.8619 295.469 91.5682 305.234C91.878 305.456 92.1677 305.679 92.4775 305.877C92.5011 307.121 92.565 308.364 92.656 309.607C92.6795 309.806 92.6998 310.029 92.6998 310.251L92.7031 310.244Z"/>
</mask>
<path d="M92.7031 310.244L98.2451 313.018L100.677 308.158L96.1769 305.112L92.7031 310.244ZM90.6186 308.758L86.2351 313.139L86.5604 313.465L86.9301 313.739L90.6186 308.758ZM90.4636 308.624L95.6606 305.247L94.9445 304.145L93.8425 303.428L90.4636 308.624ZM90.0629 308.334L94.0081 303.554L93.8606 303.433L93.7059 303.32L90.0629 308.334ZM87.4462 306.248L91.4457 301.514L91.3042 301.394L91.1559 301.284L87.4462 306.248ZM86.6683 305.604L90.8258 301.009L90.798 300.983L90.7699 300.959L86.6683 305.604ZM85.5166 304.56L89.7979 300.079L89.6914 299.977L89.5803 299.881L85.5166 304.56ZM83.075 302.252L87.5143 297.927L87.4865 297.899L87.4585 297.871L83.075 302.252ZM81.8997 301.032L86.4075 296.779L86.2939 296.659L86.1741 296.545L81.8997 301.032ZM80.7244 299.768L85.4709 295.784L85.4012 295.701L85.3286 295.62L80.7244 299.768ZM79.5693 298.438L84.3824 294.533L84.3398 294.481L84.296 294.429L79.5693 298.438ZM78.4378 297.083L83.2646 293.196L83.2577 293.187L83.2508 293.179L78.4378 297.083ZM77.3298 295.664L72.3957 299.414L72.3968 299.416L77.3298 295.664ZM70.8303 285.034L76.4097 282.336L76.3921 282.299L76.374 282.263L70.8303 285.034ZM70.2106 283.703L75.8691 281.175L75.8578 281.15L75.8463 281.125L70.2106 283.703ZM66.7521 274.292L72.716 272.606L72.6927 272.524L72.6671 272.442L66.7521 274.292ZM66.1526 272.118L72.1732 270.649L72.1497 270.552L72.1231 270.457L66.1526 272.118ZM65.5768 269.679L71.6661 268.527L71.6328 268.35L71.5893 268.176L65.5768 269.679ZM65.176 267.815L59.0928 268.999L59.1056 269.065L59.1199 269.131L65.176 267.815ZM64.6439 264.709L70.7947 263.95L70.774 263.782L70.7441 263.615L64.6439 264.709ZM64.3543 262.845L58.2129 263.676L58.2175 263.711L58.2225 263.745L64.3543 262.845ZM63.5764 252.437L57.3799 252.541L57.3801 252.551L63.5764 252.437ZM63.5764 248.286L69.7725 248.162L57.3822 248.086L63.5764 248.286ZM91.5682 305.234L95.182 300.199L95.1731 300.193L95.1642 300.186L91.5682 305.234ZM92.4775 305.877L98.6737 305.76L98.611 302.45L95.8243 300.661L92.4775 305.877ZM92.656 309.607L86.4751 310.059L86.4853 310.199L86.5017 310.337L92.656 309.607ZM92.6998 310.251L86.5024 310.251L98.2418 313.025L92.6998 310.251ZM96.1769 305.112C95.5894 304.714 94.9557 304.258 94.307 303.778L86.9301 313.739C87.6555 314.276 88.4428 314.844 89.2294 315.377L96.1769 305.112ZM95.002 304.377C94.6419 304.017 94.3162 303.78 94.1911 303.69C94.1551 303.664 94.1252 303.644 94.1058 303.63C94.0875 303.617 94.0715 303.606 94.0694 303.605C94.0536 303.594 94.0923 303.62 94.1371 303.652C94.3373 303.795 95.0525 304.311 95.6606 305.247L85.2666 312C85.9185 313.003 86.6893 313.565 86.9451 313.747C86.9776 313.77 87.0047 313.789 87.0225 313.802C87.0388 313.813 87.0536 313.823 87.0543 313.823C87.0683 313.833 87.0248 313.803 86.973 313.766C86.8742 313.696 86.5734 313.478 86.2351 313.139L95.002 304.377ZM93.8425 303.428C93.8103 303.407 93.8924 303.459 94.0081 303.554L86.1177 313.113C86.5028 313.431 86.8476 313.665 87.0848 313.819L93.8425 303.428ZM93.7059 303.32C93.0083 302.813 92.2817 302.22 91.4457 301.514L83.4467 310.982C84.3417 311.738 85.3461 312.567 86.4198 313.347L93.7059 303.32ZM91.1559 301.284C91.0697 301.219 90.9533 301.124 90.8258 301.009L82.5108 310.2C82.875 310.53 83.2907 310.879 83.7365 311.212L91.1559 301.284ZM90.7699 300.959C90.3583 300.595 90.0702 300.339 89.7979 300.079L81.2352 309.041C81.7105 309.495 82.1768 309.906 82.5667 310.25L90.7699 300.959ZM89.5803 299.881C88.8731 299.267 88.1764 298.607 87.5143 297.927L78.6358 306.576C79.5295 307.494 80.4762 308.391 81.4529 309.239L89.5803 299.881ZM87.4585 297.871C87.1268 297.539 86.8035 297.199 86.4075 296.779L77.392 305.285C77.7907 305.708 78.2218 306.163 78.6916 306.633L87.4585 297.871ZM86.1741 296.545C85.9638 296.344 85.7217 296.082 85.4709 295.784L75.978 303.753C76.4343 304.297 76.9937 304.918 77.6253 305.519L86.1741 296.545ZM85.3286 295.62C84.9249 295.172 84.6466 294.859 84.3824 294.533L74.7563 302.342C75.2464 302.946 75.7225 303.475 76.1203 303.917L85.3286 295.62ZM84.296 294.429C83.896 293.958 83.5804 293.588 83.2646 293.196L73.611 300.97C74.0495 301.515 74.4883 302.028 74.8427 302.446L84.296 294.429ZM83.2508 293.179C82.9334 292.788 82.6011 292.358 82.2629 291.913L72.3968 299.416C72.7658 299.901 73.1878 300.448 73.6247 300.987L83.2508 293.179ZM82.2639 291.914C80.1165 289.089 78.1377 285.91 76.4097 282.336L65.2509 287.731C67.3417 292.056 69.7543 295.939 72.3957 299.414L82.2639 291.914ZM76.374 282.263C76.2185 281.952 76.0689 281.622 75.8691 281.175L64.5522 286.23C64.7497 286.673 64.9975 287.226 65.2866 287.804L76.374 282.263ZM75.8463 281.125C74.6422 278.492 73.5788 275.66 72.716 272.606L60.7882 275.977C61.8314 279.669 63.1186 283.097 64.5749 286.281L75.8463 281.125ZM72.6671 272.442C72.4912 271.88 72.3268 271.278 72.1732 270.649L60.132 273.588C60.3354 274.421 60.5685 275.282 60.837 276.141L72.6671 272.442ZM72.1231 270.457C71.9385 269.793 71.7828 269.143 71.6661 268.527L59.4874 270.831C59.6805 271.852 59.9223 272.846 60.1822 273.78L72.1231 270.457ZM71.5893 268.176C71.4576 267.649 71.4391 267.452 71.2321 266.5L59.1199 269.131C59.1824 269.419 59.3861 270.468 59.5642 271.181L71.5893 268.176ZM71.2593 266.632C71.0509 265.561 70.8947 264.761 70.7947 263.95L58.4932 265.467C58.6559 266.786 58.9038 268.028 59.0928 268.999L71.2593 266.632ZM70.7441 263.615C70.655 263.118 70.5852 262.622 70.4861 261.946L58.2225 263.745C58.3053 264.309 58.4106 265.059 58.5438 265.802L70.7441 263.615ZM70.4957 262.014C70.0848 258.977 69.8359 255.757 69.7727 252.323L57.3801 252.551C57.4516 256.442 57.7348 260.143 58.2129 263.676L70.4957 262.014ZM69.7729 252.332C69.7491 250.92 69.7324 249.667 69.7705 248.486L57.3822 248.086C57.3329 249.614 57.3566 251.157 57.3799 252.541L69.7729 252.332ZM57.3803 248.41C58.0236 280.541 72.8696 299.522 87.9723 310.281L95.1642 300.186C82.8542 291.416 70.328 275.906 69.7725 248.162L57.3803 248.41ZM87.9544 310.268C88.0483 310.336 88.6409 310.779 89.1306 311.093L95.8243 300.661C95.6945 300.578 95.7078 300.577 95.182 300.199L87.9544 310.268ZM86.2812 305.995C86.3073 307.371 86.3778 308.728 86.4751 310.059L98.8368 309.155C98.7523 308 98.6948 306.87 98.6737 305.76L86.2812 305.995ZM86.5017 310.337C86.5063 310.376 86.5068 310.386 86.5062 310.377C86.5058 310.372 86.5049 310.358 86.5041 310.338C86.5032 310.318 86.5024 310.289 86.5024 310.251L98.8971 310.251C98.8971 309.678 98.8464 309.182 98.8102 308.878L86.5017 310.337ZM98.2418 313.025L98.2451 313.018L87.1611 307.471L87.1577 307.477L98.2418 313.025Z" fill="black" mask="url(#path-49-inside-2_27_32)"/>
<mask id="path-51-inside-3_27_32" fill="white">
<path d="M92.4912 301.742C91.4271 264.899 114.516 233.054 146.323 228.458C177.086 224.021 200.357 235.005 208.584 257.888C210.823 264.145 211.756 270.759 211.51 277.239C211.312 272.134 210.355 267.009 208.584 262.103C200.353 239.22 177.086 228.236 146.323 232.673C115.735 237.111 93.1984 266.719 92.4912 301.738L92.4912 301.742Z"/>
</mask>
<path d="M92.4912 301.742C91.4271 264.899 114.516 233.054 146.323 228.458C177.086 224.021 200.357 235.005 208.584 257.888C210.823 264.145 211.756 270.759 211.51 277.239C211.312 272.134 210.355 267.009 208.584 262.103C200.353 239.22 177.086 228.236 146.323 232.673C115.735 237.111 93.1984 266.719 92.4912 301.738L92.4912 301.742Z" fill="#6E6A69"/>
<path d="M92.4912 301.742L86.2964 301.921L98.6886 301.742L92.4912 301.742ZM146.323 228.458L145.438 222.324L145.437 222.325L146.323 228.458ZM208.584 257.888L214.419 255.799L214.416 255.791L208.584 257.888ZM211.51 277.239L205.318 277.48L217.703 277.474L211.51 277.239ZM208.584 262.103L202.752 264.2L202.755 264.207L208.584 262.103ZM146.323 232.673L145.438 226.54L145.433 226.54L146.323 232.673ZM92.4912 301.738L86.2951 301.613L86.2939 301.676L86.2939 301.738L92.4912 301.738ZM98.686 301.563C97.6904 267.093 119.229 238.635 147.209 234.592L145.437 222.325C109.802 227.474 85.1638 262.706 86.2964 301.921L98.686 301.563ZM147.208 234.592C176.174 230.414 195.858 240.811 202.752 259.984L214.416 255.791C204.855 229.2 177.999 217.627 145.438 222.324L147.208 234.592ZM202.749 259.976C204.707 265.447 205.535 271.269 205.317 277.004L217.703 277.474C217.977 270.249 216.94 262.843 214.419 255.799L202.749 259.976ZM217.703 276.998C217.481 271.285 216.41 265.529 214.413 259.998L202.755 264.207C204.301 268.489 205.143 272.983 205.318 277.48L217.703 276.998ZM214.416 260.005C204.851 233.415 178 221.843 145.438 226.54L147.208 238.807C176.173 234.629 195.855 245.025 202.752 264.2L214.416 260.005ZM145.433 226.54C111.177 231.51 87.0488 264.291 86.2951 301.613L98.6873 301.863C99.348 269.147 120.292 242.712 147.213 238.807L145.433 226.54ZM86.2939 301.738L86.2939 301.742L98.6886 301.742L98.6886 301.738L86.2939 301.738Z" fill="black" mask="url(#path-51-inside-3_27_32)"/>
<mask id="path-53-inside-4_27_32" fill="white">
<path d="M55.0294 248.39C55.0058 247.504 55.0058 246.638 55.0058 245.772C55.0058 221.181 61.9027 201.652 75.545 187.736C93.1578 169.803 121.392 161.059 161.918 161.059L297.471 161.059L297.471 165.275L161.918 165.275C121.395 165.275 93.1578 174.018 75.545 191.975C62.1923 205.557 55.3156 224.554 55.0294 248.39Z"/>
</mask>
<path d="M55.0294 248.39C55.0058 247.504 55.0058 246.638 55.0058 245.772C55.0058 221.181 61.9027 201.652 75.545 187.736C93.1578 169.803 121.392 161.059 161.918 161.059L297.471 161.059L297.471 165.275L161.918 165.275C121.395 165.275 93.1578 174.018 75.545 191.975C62.1923 205.557 55.3156 224.554 55.0294 248.39Z" fill="#6E6A69"/>
<path d="M55.0294 248.39L48.8342 248.555L61.2263 248.465L55.0294 248.39ZM75.545 187.736L71.1236 183.393L71.1195 183.397L75.545 187.736ZM161.918 161.059L161.918 154.862H161.918L161.918 161.059ZM297.471 161.059L303.668 161.059L303.668 154.862L297.471 154.862L297.471 161.059ZM297.471 165.275L297.471 171.472L303.668 171.472L303.668 165.275L297.471 165.275ZM161.918 165.275L161.918 159.077L161.918 165.275ZM75.545 191.975L79.9645 196.319L79.9693 196.314L75.545 191.975ZM61.2246 248.225C61.2035 247.435 61.2032 246.65 61.2032 245.772L48.8084 245.772C48.8084 246.626 48.8081 247.573 48.8342 248.555L61.2246 248.225ZM61.2032 245.772C61.2032 222.353 67.7448 204.545 79.9706 192.074L71.1195 183.397C56.0607 198.758 48.8084 220.01 48.8084 245.772L61.2032 245.772ZM79.9665 192.078C95.8741 175.882 122.082 167.257 161.918 167.257L161.918 154.862C120.702 154.862 90.4415 163.724 71.1236 183.393L79.9665 192.078ZM161.918 167.257L297.471 167.257L297.471 154.862L161.918 154.862L161.918 167.257ZM291.273 161.059L291.273 165.275L303.668 165.275L303.668 161.059L291.273 161.059ZM297.471 159.077L161.918 159.077L161.918 171.472L297.471 171.472L297.471 159.077ZM161.918 159.077C120.706 159.077 90.4394 167.94 71.1207 187.635L79.9693 196.314C95.8762 180.097 122.085 171.472 161.918 171.472L161.918 159.077ZM71.1256 187.63C56.3807 202.629 49.1327 223.314 48.8325 248.316L61.2263 248.465C61.4986 225.795 68.004 208.486 79.9645 196.319L71.1256 187.63Z" fill="black" mask="url(#path-53-inside-4_27_32)"/>
<mask id="path-55-inside-5_27_32" fill="white">
<path d="M101.978 315.609C101.601 313.388 101.358 311.191 101.2 308.974C101.045 306.69 100.978 304.402 101.065 302.137C101.089 303.003 101.133 303.869 101.2 304.756C101.355 306.952 101.601 309.173 101.978 311.39C127.596 323.84 162.865 323.109 185.576 309.281C195.868 303 202.256 290.371 202.899 277.233C202.943 277.901 202.967 278.564 202.967 279.232C202.967 293.148 196.447 306.862 185.576 313.499C162.862 327.325 127.596 328.059 101.978 315.609Z"/>
</mask>
<path d="M101.978 315.609C101.601 313.388 101.358 311.191 101.2 308.974C101.045 306.69 100.978 304.402 101.065 302.137C101.089 303.003 101.133 303.869 101.2 304.756C101.355 306.952 101.601 309.173 101.978 311.39C127.596 323.84 162.865 323.109 185.576 309.281C195.868 303 202.256 290.371 202.899 277.233C202.943 277.901 202.967 278.564 202.967 279.232C202.967 293.148 196.447 306.862 185.576 313.499C162.862 327.325 127.596 328.059 101.978 315.609Z" fill="#6E6A69"/>
<path d="M101.978 315.609L95.8681 316.647L96.4019 319.789L99.269 321.183L101.978 315.609ZM101.2 308.974L95.0169 309.393L95.0176 309.404L95.0184 309.415L101.2 308.974ZM101.065 302.137L107.26 301.969L94.8726 301.898L101.065 302.137ZM101.2 304.756L107.382 304.32L107.381 304.303L107.38 304.286L101.2 304.756ZM101.978 311.39L95.8684 312.429L96.4028 315.571L99.269 316.964L101.978 311.39ZM185.576 309.281L188.799 314.574L188.805 314.571L185.576 309.281ZM202.899 277.233L209.084 276.828L196.709 276.93L202.899 277.233ZM185.576 313.499L188.798 318.793L188.806 318.789L185.576 313.499ZM108.088 314.571C107.75 312.585 107.529 310.591 107.382 308.533L95.0184 309.415C95.188 311.792 95.4512 314.192 95.8681 316.647L108.088 314.571ZM107.383 308.555C107.239 306.422 107.181 304.363 107.258 302.377L94.8726 301.898C94.7743 304.44 94.8517 306.957 95.0169 309.393L107.383 308.555ZM94.8703 302.306C94.8965 303.27 94.9453 304.236 95.0205 305.225L107.38 304.286C107.32 303.503 107.281 302.737 107.26 301.969L94.8703 302.306ZM95.018 305.191C95.1846 307.553 95.4514 309.979 95.8684 312.429L108.088 310.351C107.75 308.367 107.525 306.352 107.382 304.32L95.018 305.191ZM99.269 316.964C126.581 330.238 164.103 329.611 188.799 314.574L182.353 303.987C161.627 316.607 128.61 317.443 104.687 305.816L99.269 316.964ZM188.805 314.571C201.214 306.998 208.369 292.257 209.089 277.536L196.709 276.93C196.144 288.486 190.522 299.002 182.348 303.991L188.805 314.571ZM196.715 277.639C196.751 278.183 196.769 278.711 196.769 279.232L209.164 279.232C209.164 278.418 209.135 277.618 209.084 276.828L196.715 277.639ZM196.769 279.232C196.769 291.472 190.995 302.929 182.347 308.21L188.806 318.789C201.899 310.794 209.164 294.823 209.164 279.232L196.769 279.232ZM182.354 308.206C161.623 320.823 128.61 321.661 104.687 310.035L99.269 321.183C126.582 334.457 164.1 333.826 188.798 318.793L182.354 308.206Z" fill="black" mask="url(#path-55-inside-5_27_32)"/>
<path d="M307.541 154.087L307.541 176.553C307.541 176.981 307.195 177.327 306.767 177.327L286.625 177.327C286.197 177.327 285.851 176.981 285.851 176.553L285.851 154.087C285.851 153.659 286.197 153.313 286.625 153.313L306.767 153.313C307.195 153.313 307.541 153.659 307.541 154.087Z" fill="#FFD700" stroke="black" stroke-width="3.09869"/>
<path d="M325.359 157.186L325.359 172.679L307.541 172.679L307.541 157.186L325.359 157.186Z" fill="#FFD700" stroke="black" stroke-width="3.09869"/>
<g filter="url(#filter10_i_27_32)">
<path d="M338.068 423.673L338.068 359.702C338.068 353.284 332.866 348.082 326.448 348.082L247.942 348.082C241.524 348.082 236.322 353.284 236.322 359.702L236.322 423.673C236.322 430.091 241.524 435.293 247.942 435.293L326.448 435.293C332.866 435.293 338.068 430.091 338.068 423.673Z" fill="#686867"/>
</g>
<path d="M336.519 359.702L336.519 423.673C336.519 429.235 332.01 433.744 326.448 433.744L247.942 433.744C242.38 433.744 237.871 429.235 237.871 423.673L237.871 359.702C237.871 354.14 242.38 349.631 247.942 349.631L326.448 349.631C332.01 349.631 336.519 354.14 336.519 359.702Z" stroke="black" stroke-width="3.09869"/>
<path d="M326.268 366.293L326.268 417.082C326.268 421.16 322.962 424.467 318.883 424.467L255.498 424.467C251.419 424.467 248.112 421.16 248.112 417.082L248.112 366.293C248.112 362.215 251.419 358.908 255.498 358.908L318.883 358.908C322.962 358.908 326.268 362.215 326.268 366.293Z" stroke="url(#paint2_radial_27_32)" stroke-width="2.27237"/>
<path d="M235.491 400.823L222.903 400.823C221.767 400.823 220.845 399.901 220.845 398.764L220.845 384.72C220.845 383.581 221.768 382.66 222.903 382.66L235.491 382.66L235.491 400.823Z" fill="black" stroke="black" stroke-width="3.09869"/>
<path d="M269.753 401.378C268.28 401.378 266.923 401.146 265.68 400.682C264.456 400.2 263.382 399.522 262.459 398.647C261.554 397.773 260.844 396.747 260.33 395.569C259.833 394.391 259.584 393.097 259.584 391.687C259.584 390.278 259.833 388.984 260.33 387.806C260.844 386.628 261.563 385.602 262.486 384.728C263.409 383.853 264.491 383.184 265.734 382.72C266.976 382.238 268.342 381.997 269.833 381.997C271.483 381.997 272.965 382.274 274.279 382.827C275.61 383.38 276.728 384.183 277.633 385.236L274.864 387.806C274.19 387.092 273.453 386.566 272.655 386.227C271.856 385.87 270.987 385.691 270.046 385.691C269.141 385.691 268.316 385.834 267.57 386.12C266.825 386.405 266.177 386.816 265.627 387.351C265.095 387.886 264.678 388.52 264.376 389.251C264.092 389.983 263.95 390.795 263.95 391.687C263.95 392.562 264.092 393.365 264.376 394.097C264.678 394.828 265.095 395.471 265.627 396.024C266.177 396.559 266.816 396.97 267.544 397.255C268.289 397.541 269.105 397.684 269.993 397.684C270.845 397.684 271.67 397.55 272.468 397.282C273.285 396.996 274.074 396.524 274.838 395.863L277.287 398.995C276.275 399.763 275.095 400.351 273.746 400.762C272.415 401.172 271.084 401.378 269.753 401.378ZM273.347 398.433L273.347 391.393L277.287 391.393L277.287 398.995L273.347 398.433Z" fill="white"/>
<path d="M281.292 401.056L281.292 382.318L289.358 382.318C291.026 382.318 292.464 382.595 293.671 383.148C294.877 383.684 295.809 384.46 296.466 385.477C297.122 386.494 297.451 387.708 297.451 389.118C297.451 390.51 297.122 391.714 296.466 392.731C295.809 393.749 294.877 394.534 293.671 395.087C292.464 395.622 291.026 395.89 289.358 395.89L283.688 395.89L285.605 393.936L285.605 401.056L281.292 401.056ZM285.605 394.418L283.688 392.357L289.119 392.357C290.45 392.357 291.444 392.071 292.1 391.5C292.757 390.929 293.085 390.135 293.085 389.118C293.085 388.083 292.757 387.28 292.1 386.708C291.444 386.137 290.45 385.852 289.119 385.852L283.688 385.852L285.605 383.791L285.605 394.418Z" fill="white"/>
<path d="M306.912 401.378C305.421 401.378 303.993 401.181 302.626 400.789C301.26 400.378 300.159 399.852 299.325 399.209L300.789 395.944C301.588 396.515 302.529 396.988 303.611 397.362C304.711 397.719 305.821 397.898 306.939 397.898C307.791 397.898 308.474 397.817 308.988 397.657C309.521 397.478 309.911 397.237 310.16 396.934C310.408 396.631 310.532 396.283 310.532 395.89C310.532 395.39 310.337 394.998 309.947 394.712C309.556 394.409 309.042 394.168 308.403 393.989C307.764 393.793 307.054 393.615 306.273 393.454C305.51 393.276 304.738 393.062 303.957 392.812C303.194 392.562 302.493 392.241 301.854 391.848C301.215 391.455 300.692 390.938 300.284 390.295C299.893 389.653 299.698 388.832 299.698 387.833C299.698 386.762 299.982 385.789 300.55 384.915C301.136 384.023 302.005 383.318 303.159 382.8C304.33 382.265 305.794 381.997 307.551 381.997C308.722 381.997 309.876 382.14 311.012 382.426C312.147 382.693 313.15 383.104 314.02 383.657L312.689 386.949C311.819 386.45 310.949 386.084 310.08 385.852C309.21 385.602 308.358 385.477 307.524 385.477C306.69 385.477 306.007 385.575 305.475 385.772C304.942 385.968 304.561 386.227 304.33 386.548C304.099 386.851 303.984 387.208 303.984 387.619C303.984 388.1 304.179 388.493 304.57 388.796C304.96 389.082 305.475 389.314 306.113 389.492C306.752 389.671 307.453 389.849 308.216 390.028C308.997 390.206 309.769 390.411 310.532 390.643C311.313 390.875 312.023 391.188 312.662 391.58C313.301 391.973 313.815 392.49 314.206 393.133C314.614 393.775 314.818 394.587 314.818 395.569C314.818 396.622 314.525 397.585 313.94 398.46C313.354 399.334 312.476 400.039 311.304 400.574C310.151 401.11 308.687 401.378 306.912 401.378Z" fill="white"/>
<line x1="321.487" y1="158.735" x2="321.487" y2="171.905" stroke="black" stroke-width="1.54934"/>
<line x1="318.388" y1="158.735" x2="318.388" y2="171.905" stroke="black" stroke-width="1.54934"/>
<line x1="315.29" y1="158.735" x2="315.29" y2="171.905" stroke="black" stroke-width="1.54934"/>
<line x1="312.191" y1="158.735" x2="312.191" y2="171.905" stroke="black" stroke-width="1.54934"/>
<mask id="path-68-inside-6_27_32" fill="white">
<path d="M234.22 391.979C233.533 391.979 232.822 391.979 232.135 391.955C231.58 391.979 231.048 391.955 230.495 391.955C230.229 391.955 229.963 391.931 229.717 391.931C229.428 391.931 229.141 391.931 228.875 391.908C227.767 391.884 226.68 391.864 225.572 391.82C223.619 391.753 221.669 391.665 219.759 391.554C218.496 391.487 217.23 391.399 215.987 391.311C214.943 391.244 213.923 391.156 212.906 391.069C211.862 390.981 210.865 390.89 209.845 390.779C208.737 390.668 207.649 390.557 206.585 390.425C205.652 390.314 204.723 390.203 203.813 390.092C202.86 389.957 201.928 389.825 200.998 389.691C196.142 389.003 191.481 388.137 187.046 387.16C185.315 386.759 183.631 386.362 181.968 385.94C180.26 385.496 178.597 385.054 176.953 384.566C176.131 384.323 175.313 384.077 174.515 383.834C173.693 383.592 172.895 383.346 172.121 383.08C170.545 382.571 169.016 382.035 167.507 381.503C167.483 381.479 167.463 381.479 167.463 381.479C165.934 380.923 164.446 380.347 162.984 379.747C161.674 379.215 160.367 378.659 159.101 378.106C156.128 376.819 153.289 375.421 150.585 373.979C149.807 373.557 149.032 373.136 148.278 372.715C146.857 371.916 145.462 371.094 144.109 370.228C143.422 369.827 142.778 369.406 142.112 368.965C140.404 367.876 138.741 366.724 137.164 365.568C136.454 365.059 135.79 364.547 135.124 364.039C134.059 363.216 133.016 362.374 131.995 361.508C131.197 360.841 130.419 360.197 129.665 359.51C129.311 359.22 128.978 358.91 128.644 358.577C128.068 358.088 127.513 357.556 126.957 357C126.89 356.976 126.822 356.912 126.758 356.821C126.139 356.245 125.539 355.645 124.94 355.022C122.633 352.67 120.505 350.274 118.595 347.831C118.195 347.343 117.817 346.854 117.44 346.389C117.396 346.345 117.373 346.301 117.353 346.254C116.777 345.499 116.221 344.745 115.689 343.99C115.224 343.346 114.78 342.703 114.379 342.059C114.201 341.86 114.069 341.638 113.958 341.439C113.736 341.129 113.537 340.796 113.315 340.462C112.981 339.93 112.648 339.397 112.338 338.865C112.028 338.353 111.719 337.82 111.405 337.312C111.116 336.847 110.85 336.358 110.607 335.89C110.206 335.179 109.853 334.491 109.52 333.804C109.21 333.272 108.944 332.739 108.678 332.183C108.257 331.341 107.879 330.495 107.502 329.653C121.3 360.056 158.141 386.466 229.01 387.689L229.364 387.689C229.741 387.713 230.094 387.733 230.495 387.733C231.051 387.733 231.583 387.757 232.135 387.733C232.822 387.757 233.533 387.757 234.22 387.757L234.22 391.972L234.22 391.979Z"/>
</mask>
<path d="M234.22 391.979C233.533 391.979 232.822 391.979 232.135 391.955C231.58 391.979 231.048 391.955 230.495 391.955C230.229 391.955 229.963 391.931 229.717 391.931C229.428 391.931 229.141 391.931 228.875 391.908C227.767 391.884 226.68 391.864 225.572 391.82C223.619 391.753 221.669 391.665 219.759 391.554C218.496 391.487 217.23 391.399 215.987 391.311C214.943 391.244 213.923 391.156 212.906 391.069C211.862 390.981 210.865 390.89 209.845 390.779C208.737 390.668 207.649 390.557 206.585 390.425C205.652 390.314 204.723 390.203 203.813 390.092C202.86 389.957 201.928 389.825 200.998 389.691C196.142 389.003 191.481 388.137 187.046 387.16C185.315 386.759 183.631 386.362 181.968 385.94C180.26 385.496 178.597 385.054 176.953 384.566C176.131 384.323 175.313 384.077 174.515 383.834C173.693 383.592 172.895 383.346 172.121 383.08C170.545 382.571 169.016 382.035 167.507 381.503C167.483 381.479 167.463 381.479 167.463 381.479C165.934 380.923 164.446 380.347 162.984 379.747C161.674 379.215 160.367 378.659 159.101 378.106C156.128 376.819 153.289 375.421 150.585 373.979C149.807 373.557 149.032 373.136 148.278 372.715C146.857 371.916 145.462 371.094 144.109 370.228C143.422 369.827 142.778 369.406 142.112 368.965C140.404 367.876 138.741 366.724 137.164 365.568C136.454 365.059 135.79 364.547 135.124 364.039C134.059 363.216 133.016 362.374 131.995 361.508C131.197 360.841 130.419 360.197 129.665 359.51C129.311 359.22 128.978 358.91 128.644 358.577C128.068 358.088 127.513 357.556 126.957 357C126.89 356.976 126.822 356.912 126.758 356.821C126.139 356.245 125.539 355.645 124.94 355.022C122.633 352.67 120.505 350.274 118.595 347.831C118.195 347.343 117.817 346.854 117.44 346.389C117.396 346.345 117.373 346.301 117.353 346.254C116.777 345.499 116.221 344.745 115.689 343.99C115.224 343.346 114.78 342.703 114.379 342.059C114.201 341.86 114.069 341.638 113.958 341.439C113.736 341.129 113.537 340.796 113.315 340.462C112.981 339.93 112.648 339.397 112.338 338.865C112.028 338.353 111.719 337.82 111.405 337.312C111.116 336.847 110.85 336.358 110.607 335.89C110.206 335.179 109.853 334.491 109.52 333.804C109.21 333.272 108.944 332.739 108.678 332.183C108.257 331.341 107.879 330.495 107.502 329.653C121.3 360.056 158.141 386.466 229.01 387.689L229.364 387.689C229.741 387.713 230.094 387.733 230.495 387.733C231.051 387.733 231.583 387.757 232.135 387.733C232.822 387.757 233.533 387.757 234.22 387.757L234.22 391.972L234.22 391.979Z" fill="#6E6A69"/>
<path d="M234.22 391.979L234.22 398.176L240.417 398.176L240.417 391.979L234.22 391.979ZM232.135 391.955L232.348 385.761L232.11 385.753L231.872 385.763L232.135 391.955ZM228.875 391.908L229.423 385.735L229.215 385.716L229.007 385.712L228.875 391.908ZM225.572 391.82L225.817 385.628L225.801 385.627L225.785 385.626L225.572 391.82ZM219.759 391.554L220.119 385.367L220.104 385.366L220.089 385.365L219.759 391.554ZM215.987 391.311L216.423 385.129L216.405 385.128L216.387 385.127L215.987 391.311ZM212.906 391.069L213.438 384.894L213.424 384.893L212.906 391.069ZM209.845 390.779L210.516 384.618L210.49 384.615L210.464 384.613L209.845 390.779ZM206.585 390.425L207.345 384.275L207.332 384.273L207.319 384.271L206.585 390.425ZM203.813 390.092L202.946 396.228L203.003 396.236L203.061 396.243L203.813 390.092ZM200.998 389.691L201.887 383.557L201.877 383.556L201.867 383.554L200.998 389.691ZM187.046 387.16L185.647 393.198L185.68 393.205L185.713 393.212L187.046 387.16ZM181.968 385.94L180.405 391.938L180.426 391.943L180.447 391.948L181.968 385.94ZM176.953 384.566L178.719 378.625L178.708 378.622L176.953 384.566ZM174.515 383.834L176.317 377.905L176.294 377.898L176.27 377.891L174.515 383.834ZM172.121 383.08L174.135 377.219L174.08 377.2L174.025 377.182L172.121 383.08ZM167.507 381.503L163.123 385.884L164.118 386.879L165.445 387.347L167.507 381.503ZM167.463 381.479L165.345 387.303L166.371 387.676L167.462 387.676L167.463 381.479ZM162.984 379.747L165.337 374.014L165.327 374.01L165.317 374.006L162.984 379.747ZM159.101 378.106L161.58 372.426L161.572 372.423L161.563 372.419L159.101 378.106ZM150.585 373.979L147.634 379.428L147.651 379.438L147.668 379.447L150.585 373.979ZM148.278 372.715L145.242 378.118L145.249 378.122L145.256 378.126L148.278 372.715ZM144.109 370.228L147.448 365.008L147.342 364.94L147.232 364.876L144.109 370.228ZM142.112 368.965L145.532 363.797L145.488 363.768L145.443 363.739L142.112 368.965ZM137.164 365.568L140.829 360.571L140.801 360.55L140.772 360.529L137.164 365.568ZM135.124 364.039L131.335 368.943L131.349 368.954L131.364 368.965L135.124 364.039ZM131.995 361.508L136.005 356.783L135.988 356.768L135.97 356.753L131.995 361.508ZM129.665 359.51L133.839 354.929L133.719 354.82L133.593 354.717L129.665 359.51ZM128.644 358.577L133.028 354.196L132.848 354.016L132.654 353.851L128.644 358.577ZM126.957 357L131.341 352.619L130.341 351.618L129.005 351.151L126.957 357ZM126.758 356.821L131.828 353.256L131.454 352.725L130.979 352.283L126.758 356.821ZM124.94 355.022L129.407 350.726L129.386 350.704L129.364 350.682L124.94 355.022ZM118.595 347.831L123.478 344.015L123.433 343.957L123.387 343.901L118.595 347.831ZM117.44 346.389L122.253 342.485L122.051 342.235L121.824 342.008L117.44 346.389ZM117.353 346.254L123.049 343.814L122.746 343.107L122.28 342.495L117.353 346.254ZM115.689 343.99L120.754 340.419L120.734 340.39L120.713 340.362L115.689 343.99ZM114.379 342.059L119.64 338.783L119.353 338.323L118.991 337.919L114.379 342.059ZM113.958 341.439L119.368 338.415L119.198 338.111L118.995 337.828L113.958 341.439ZM113.315 340.462L108.062 343.751L108.109 343.826L108.157 343.898L113.315 340.462ZM112.338 338.865L117.695 335.748L117.668 335.702L117.641 335.657L112.338 338.865ZM111.405 337.312L116.683 334.063L116.674 334.049L116.666 334.035L111.405 337.312ZM110.607 335.89L116.111 333.04L116.06 332.943L116.006 332.846L110.607 335.89ZM109.52 333.804L115.096 331.099L114.994 330.889L114.876 330.687L109.52 333.804ZM108.678 332.183L114.268 329.508L114.245 329.46L114.221 329.413L108.678 332.183ZM107.502 329.653L113.146 327.092L101.846 332.185L107.502 329.653ZM229.01 387.689L228.903 393.886L228.957 393.887L229.01 393.887L229.01 387.689ZM229.364 387.689L229.751 381.504L229.557 381.492L229.364 381.492L229.364 387.689ZM232.135 387.733L232.348 381.539L232.109 381.531L231.871 381.541L232.135 387.733ZM234.22 387.757L240.417 387.757L240.417 381.559L234.22 381.559L234.22 387.757ZM234.22 385.781C233.513 385.781 232.91 385.781 232.348 385.761L231.923 398.149C232.734 398.177 233.552 398.176 234.22 398.176L234.22 385.781ZM231.872 385.763C231.469 385.78 231.425 385.758 230.495 385.758L230.495 398.152C230.67 398.152 231.69 398.177 232.398 398.147L231.872 385.763ZM230.495 385.758C230.524 385.758 230.526 385.759 230.378 385.752C230.322 385.75 230.223 385.745 230.12 385.741C230.014 385.738 229.875 385.734 229.717 385.734L229.717 398.129C229.683 398.129 229.669 398.128 229.69 398.129C229.715 398.13 229.745 398.131 229.819 398.134C229.932 398.139 230.201 398.152 230.495 398.152L230.495 385.758ZM229.717 385.734C229.642 385.734 229.586 385.734 229.533 385.734C229.481 385.733 229.445 385.733 229.417 385.732C229.357 385.731 229.369 385.73 229.423 385.735L228.328 398.081C228.918 398.133 229.489 398.129 229.717 398.129L229.717 385.734ZM229.007 385.712C227.873 385.688 226.854 385.669 225.817 385.628L225.327 398.013C226.505 398.059 227.662 398.081 228.744 398.104L229.007 385.712ZM225.785 385.626C223.874 385.561 221.974 385.475 220.119 385.367L219.399 397.741C221.363 397.855 223.363 397.945 225.358 398.014L225.785 385.626ZM220.089 385.365C218.885 385.301 217.667 385.217 216.423 385.129L215.552 397.493C216.794 397.581 218.107 397.672 219.429 397.743L220.089 385.365ZM216.387 385.127C215.419 385.064 214.463 384.983 213.438 384.894L212.374 397.243C213.383 397.33 214.468 397.424 215.588 397.496L216.387 385.127ZM213.424 384.893C212.408 384.808 211.467 384.722 210.516 384.618L209.174 396.94C210.264 397.059 211.316 397.154 212.388 397.244L213.424 384.893ZM210.464 384.613C209.354 384.501 208.33 384.396 207.345 384.275L205.825 396.576C206.968 396.717 208.12 396.834 209.226 396.945L210.464 384.613ZM207.319 384.271C206.387 384.16 205.465 384.05 204.566 383.94L203.061 396.243C203.98 396.356 204.918 396.468 205.851 396.579L207.319 384.271ZM204.681 383.955C203.723 383.82 202.803 383.69 201.887 383.557L200.109 395.824C201.052 395.961 201.998 396.094 202.946 396.228L204.681 383.955ZM201.867 383.554C197.181 382.891 192.675 382.054 188.379 381.108L185.713 393.212C190.287 394.22 195.103 395.115 200.13 395.827L201.867 383.554ZM188.445 381.123C186.726 380.725 185.091 380.338 183.489 379.933L180.447 391.948C182.172 392.385 183.904 392.794 185.647 393.198L188.445 381.123ZM183.53 379.943C181.83 379.5 180.254 379.081 178.719 378.625L175.187 390.506C176.939 391.027 178.69 391.491 180.405 391.938L183.53 379.943ZM178.708 378.622C177.905 378.385 177.103 378.144 176.317 377.905L172.713 389.764C173.523 390.01 174.358 390.261 175.198 390.509L178.708 378.622ZM176.27 377.891C175.488 377.66 174.787 377.443 174.135 377.219L170.106 388.941C171.003 389.249 171.898 389.524 172.76 389.778L176.27 377.891ZM174.025 377.182C172.536 376.701 171.077 376.191 169.569 375.659L165.445 387.347C166.954 387.88 168.553 388.44 170.217 388.977L174.025 377.182ZM171.89 377.122C171.23 376.461 170.45 375.973 169.62 375.667C169.217 375.519 168.828 375.422 168.463 375.363C168.282 375.333 168.107 375.313 167.94 375.3C167.857 375.294 167.775 375.289 167.696 375.286C167.656 375.285 167.617 375.284 167.578 375.283C167.559 375.282 167.54 375.282 167.521 375.282C167.511 375.282 167.502 375.282 167.492 375.282C167.487 375.282 167.483 375.282 167.478 375.282C167.476 375.282 167.472 375.282 167.471 375.282C167.467 375.282 167.464 375.282 167.463 381.479C167.462 387.676 167.459 387.676 167.455 387.676C167.454 387.676 167.451 387.676 167.448 387.676C167.443 387.676 167.439 387.676 167.434 387.676C167.425 387.676 167.415 387.676 167.406 387.676C167.386 387.676 167.367 387.676 167.348 387.675C167.309 387.675 167.27 387.674 167.231 387.672C167.152 387.669 167.071 387.665 166.988 387.658C166.822 387.645 166.649 387.625 166.47 387.596C166.11 387.538 165.727 387.442 165.332 387.297C164.518 386.997 163.76 386.521 163.123 385.884L171.89 377.122ZM169.581 375.655C168.131 375.127 166.721 374.582 165.337 374.014L160.631 385.481C162.171 386.112 163.738 386.719 165.345 387.303L169.581 375.655ZM165.317 374.006C164.068 373.498 162.812 372.964 161.58 372.426L156.622 383.786C157.923 384.354 159.28 384.931 160.651 385.489L165.317 374.006ZM161.563 372.419C158.771 371.21 156.085 369.888 153.501 368.51L147.668 379.447C150.493 380.953 153.485 382.428 156.639 383.794L161.563 372.419ZM153.535 368.529C152.76 368.109 152.016 367.704 151.299 367.304L145.256 378.126C146.048 378.568 146.853 379.006 147.634 379.428L153.535 368.529ZM151.314 367.312C149.965 366.554 148.677 365.794 147.448 365.008L140.769 375.449C142.248 376.395 143.748 377.279 145.242 378.118L151.314 367.312ZM147.232 364.876C146.711 364.572 146.197 364.237 145.532 363.797L138.691 374.132C139.36 374.575 140.132 375.083 140.985 375.581L147.232 364.876ZM145.443 363.739C143.866 362.734 142.315 361.66 140.829 360.571L133.5 370.566C135.166 371.788 136.942 373.019 138.78 374.191L145.443 363.739ZM140.772 360.529C140.158 360.09 139.589 359.65 138.883 359.112L131.364 368.965C131.992 369.444 132.749 370.029 133.556 370.607L140.772 360.529ZM138.913 359.134C137.917 358.365 136.947 357.583 136.005 356.783L127.985 366.233C129.084 367.165 130.202 368.067 131.335 368.943L138.913 359.134ZM135.97 356.753C135.13 356.051 134.472 355.506 133.839 354.929L125.491 364.091C126.366 364.888 127.264 365.631 128.02 366.263L135.97 356.753ZM133.593 354.717C133.438 354.59 133.259 354.427 133.028 354.196L124.261 362.958C124.697 363.394 125.184 363.85 125.737 364.303L133.593 354.717ZM132.654 353.851C132.263 353.519 131.843 353.121 131.341 352.619L122.574 361.381C123.183 361.99 123.874 362.657 124.635 363.302L132.654 353.851ZM129.005 351.151C129.988 351.495 130.658 352.015 131.033 352.357C131.421 352.711 131.679 353.044 131.828 353.256L121.689 360.386C121.972 360.789 122.976 362.172 124.909 362.849L129.005 351.151ZM130.979 352.283C130.468 351.808 129.954 351.295 129.407 350.726L120.473 359.317C121.125 359.995 121.809 360.682 122.538 361.359L130.979 352.283ZM129.364 350.682C127.194 348.47 125.224 346.248 123.478 344.015L113.713 351.648C115.786 354.3 118.072 356.87 120.516 359.361L129.364 350.682ZM123.387 343.901C122.892 343.297 122.864 343.238 122.253 342.485L112.627 350.293C112.771 350.47 113.498 351.388 113.804 351.761L123.387 343.901ZM121.824 342.008C122.152 342.337 122.426 342.69 122.649 343.049C122.862 343.39 122.991 343.678 123.049 343.814L111.656 348.694C111.847 349.141 112.251 349.964 113.057 350.77L121.824 342.008ZM122.28 342.495C121.746 341.796 121.237 341.104 120.754 340.419L110.624 347.561C111.205 348.386 111.808 349.203 112.426 350.013L122.28 342.495ZM120.713 340.362C120.294 339.781 119.938 339.262 119.64 338.783L109.118 345.335C109.621 346.143 110.155 346.912 110.665 347.618L120.713 340.362ZM118.991 337.919C119.161 338.109 119.271 338.267 119.326 338.351C119.378 338.43 119.401 338.475 119.368 338.415L108.549 344.463C108.69 344.717 109.099 345.455 109.768 346.199L118.991 337.919ZM118.995 337.828C118.815 337.578 118.965 337.765 118.472 337.026L108.157 343.898C108.23 344.007 108.281 344.09 108.422 344.309C108.538 344.49 108.714 344.761 108.921 345.05L118.995 337.828ZM118.567 337.173C118.224 336.625 117.945 336.178 117.695 335.748L106.982 341.982C107.351 342.616 107.739 343.234 108.062 343.751L118.567 337.173ZM117.641 335.657C117.43 335.308 116.988 334.558 116.683 334.063L106.128 340.56C106.449 341.083 106.627 341.397 107.036 342.073L117.641 335.657ZM116.666 334.035C116.498 333.766 116.317 333.438 116.111 333.04L105.104 338.739C105.383 339.278 105.733 339.927 106.145 340.588L116.666 334.035ZM116.006 332.846C115.68 332.268 115.385 331.696 115.096 331.099L103.943 336.508C104.321 337.286 104.733 338.089 105.208 338.933L116.006 332.846ZM114.876 330.687C114.691 330.369 114.509 330.011 114.268 329.508L103.087 334.858C103.379 335.467 103.729 336.174 104.163 336.921L114.876 330.687ZM114.221 329.413C113.87 328.71 113.548 327.989 113.159 327.12L101.846 332.185C102.211 333.001 102.643 333.972 103.134 334.953L114.221 329.413ZM101.859 332.214C116.986 365.547 156.595 392.638 228.903 393.886L229.117 381.493C159.688 380.294 125.613 354.564 113.146 327.092L101.859 332.214ZM229.01 393.887L229.364 393.887L229.364 381.492L229.01 381.492L229.01 393.887ZM228.977 393.874C229.367 393.899 229.886 393.93 230.495 393.93L230.495 381.536C230.303 381.536 230.115 381.527 229.751 381.504L228.977 393.874ZM230.495 393.93C230.672 393.93 231.694 393.955 232.4 393.925L231.871 381.541C231.472 381.558 231.43 381.536 230.495 381.536L230.495 393.93ZM231.923 393.927C232.734 393.955 233.552 393.954 234.22 393.954L234.22 381.559C233.513 381.559 232.91 381.559 232.348 381.539L231.923 393.927ZM228.022 387.757L228.022 391.972L240.417 391.972L240.417 387.757L228.022 387.757ZM228.022 391.972L228.022 391.979L240.417 391.979L240.417 391.972L228.022 391.972Z" fill="black" mask="url(#path-68-inside-6_27_32)"/>
<defs>
<filter id="filter0_ii_27_32" x="351.753" y="65" width="223.105" height="157.212" filterUnits="userSpaceOnUse" color-interpolation-filters="sRGB">
<feFlood flood-opacity="0" result="BackgroundImageFix"/>
<feBlend mode="normal" in="SourceGraphic" in2="BackgroundImageFix" result="shape"/>
<feColorMatrix in="SourceAlpha" type="matrix" values="0 0 0 0 0 0 0 0 0 0 0 0 0 0 0 0 0 0 127 0" result="hardAlpha"/>
<feOffset dx="3.87336"/>
<feGaussianBlur stdDeviation="3.09869"/>
<feComposite in2="hardAlpha" operator="arithmetic" k2="-1" k3="1"/>
<feColorMatrix type="matrix" values="0 0 0 0 0 0 0 0 0 0 0 0 0 0 0 0 0 0 0.25 0"/>
<feBlend mode="normal" in2="shape" result="effect1_innerShadow_27_32"/>
<feColorMatrix in="SourceAlpha" type="matrix" values="0 0 0 0 0 0 0 0 0 0 0 0 0 0 0 0 0 0 127 0" result="hardAlpha"/>
<feOffset dx="-3.87336"/>
<feGaussianBlur stdDeviation="3.09869"/>
<feComposite in2="hardAlpha" operator="arithmetic" k2="-1" k3="1"/>
<feColorMatrix type="matrix" values="0 0 0 0 0 0 0 0 0 0 0 0 0 0 0 0 0 0 0.25 0"/>
<feBlend mode="normal" in2="effect1_innerShadow_27_32" result="effect2_innerShadow_27_32"/>
</filter>
<filter id="filter1_ii_27_32" x="351.753" y="113.456" width="223.105" height="37.6877" filterUnits="userSpaceOnUse" color-interpolation-filters="sRGB">
<feFlood flood-opacity="0" result="BackgroundImageFix"/>
<feBlend mode="normal" in="SourceGraphic" in2="BackgroundImageFix" result="shape"/>
<feColorMatrix in="SourceAlpha" type="matrix" values="0 0 0 0 0 0 0 0 0 0 0 0 0 0 0 0 0 0 127 0" result="hardAlpha"/>
<feOffset dx="3.87336"/>
<feGaussianBlur stdDeviation="1.93668"/>
<feComposite in2="hardAlpha" operator="arithmetic" k2="-1" k3="1"/>
<feColorMatrix type="matrix" values="0 0 0 0 0 0 0 0 0 0 0 0 0 0 0 0 0 0 0.25 0"/>
<feBlend mode="normal" in2="shape" result="effect1_innerShadow_27_32"/>
<feColorMatrix in="SourceAlpha" type="matrix" values="0 0 0 0 0 0 0 0 0 0 0 0 0 0 0 0 0 0 127 0" result="hardAlpha"/>
<feOffset dx="-3.87336"/>
<feGaussianBlur stdDeviation="1.93668"/>
<feComposite in2="hardAlpha" operator="arithmetic" k2="-1" k3="1"/>
<feColorMatrix type="matrix" values="0 0 0 0 0 0 0 0 0 0 0 0 0 0 0 0 0 0 0.25 0"/>
<feBlend mode="normal" in2="effect1_innerShadow_27_32" result="effect2_innerShadow_27_32"/>
</filter>
<filter id="filter2_ii_27_32" x="351.753" y="148.99" width="223.105" height="37.6877" filterUnits="userSpaceOnUse" color-interpolation-filters="sRGB">
<feFlood flood-opacity="0" result="BackgroundImageFix"/>
<feBlend mode="normal" in="SourceGraphic" in2="BackgroundImageFix" result="shape"/>
<feColorMatrix in="SourceAlpha" type="matrix" values="0 0 0 0 0 0 0 0 0 0 0 0 0 0 0 0 0 0 127 0" result="hardAlpha"/>
<feOffset dx="3.87336"/>
<feGaussianBlur stdDeviation="1.93668"/>
<feComposite in2="hardAlpha" operator="arithmetic" k2="-1" k3="1"/>
<feColorMatrix type="matrix" values="0 0 0 0 0 0 0 0 0 0 0 0 0 0 0 0 0 0 0.25 0"/>
<feBlend mode="normal" in2="shape" result="effect1_innerShadow_27_32"/>
<feColorMatrix in="SourceAlpha" type="matrix" values="0 0 0 0 0 0 0 0 0 0 0 0 0 0 0 0 0 0 127 0" result="hardAlpha"/>
<feOffset dx="-3.87336"/>
<feGaussianBlur stdDeviation="1.93668"/>
<feComposite in2="hardAlpha" operator="arithmetic" k2="-1" k3="1"/>
<feColorMatrix type="matrix" values="0 0 0 0 0 0 0 0 0 0 0 0 0 0 0 0 0 0 0.25 0"/>
<feBlend mode="normal" in2="effect1_innerShadow_27_32" result="effect2_innerShadow_27_32"/>
</filter>
<filter id="filter3_ii_27_32" x="351.753" y="184.524" width="223.105" height="37.6877" filterUnits="userSpaceOnUse" color-interpolation-filters="sRGB">
<feFlood flood-opacity="0" result="BackgroundImageFix"/>
<feBlend mode="normal" in="SourceGraphic" in2="BackgroundImageFix" result="shape"/>
<feColorMatrix in="SourceAlpha" type="matrix" values="0 0 0 0 0 0 0 0 0 0 0 0 0 0 0 0 0 0 127 0" result="hardAlpha"/>
<feOffset dx="3.87336"/>
<feGaussianBlur stdDeviation="1.93668"/>
<feComposite in2="hardAlpha" operator="arithmetic" k2="-1" k3="1"/>
<feColorMatrix type="matrix" values="0 0 0 0 0 0 0 0 0 0 0 0 0 0 0 0 0 0 0.25 0"/>
<feBlend mode="normal" in2="shape" result="effect1_innerShadow_27_32"/>
<feColorMatrix in="SourceAlpha" type="matrix" values="0 0 0 0 0 0 0 0 0 0 0 0 0 0 0 0 0 0 127 0" result="hardAlpha"/>
<feOffset dx="-3.87336"/>
<feGaussianBlur stdDeviation="1.93668"/>
<feComposite in2="hardAlpha" operator="arithmetic" k2="-1" k3="1"/>
<feColorMatrix type="matrix" values="0 0 0 0 0 0 0 0 0 0 0 0 0 0 0 0 0 0 0.25 0"/>
<feBlend mode="normal" in2="effect1_innerShadow_27_32" result="effect2_innerShadow_27_32"/>
</filter>
<filter id="filter4_i_27_32" x="389.01" y="72.5376" width="27.9966" height="34.4574" filterUnits="userSpaceOnUse" color-interpolation-filters="sRGB">
<feFlood flood-opacity="0" result="BackgroundImageFix"/>
<feBlend mode="normal" in="SourceGraphic" in2="BackgroundImageFix" result="shape"/>
<feColorMatrix in="SourceAlpha" type="matrix" values="0 0 0 0 0 0 0 0 0 0 0 0 0 0 0 0 0 0 127 0" result="hardAlpha"/>
<feOffset/>
<feGaussianBlur stdDeviation="3.87336"/>
<feComposite in2="hardAlpha" operator="arithmetic" k2="-1" k3="1"/>
<feColorMatrix type="matrix" values="0 0 0 0 0 0 0 0 0 0 0 0 0 0 0 0 0 0 1 0"/>
<feBlend mode="normal" in2="shape" result="effect1_innerShadow_27_32"/>
</filter>
<filter id="filter5_i_27_32" x="441.772" y="84.3822" width="45.2253" height="10.7679" filterUnits="userSpaceOnUse" color-interpolation-filters="sRGB">
<feFlood flood-opacity="0" result="BackgroundImageFix"/>
<feBlend mode="normal" in="SourceGraphic" in2="BackgroundImageFix" result="shape"/>
<feColorMatrix in="SourceAlpha" type="matrix" values="0 0 0 0 0 0 0 0 0 0 0 0 0 0 0 0 0 0 127 0" result="hardAlpha"/>
<feOffset/>
<feGaussianBlur stdDeviation="1.54934"/>
<feComposite in2="hardAlpha" operator="arithmetic" k2="-1" k3="1"/>
<feColorMatrix type="matrix" values="0 0 0 0 0 0 0 0 0 0 0 0 0 0 0 0 0 0 1 0"/>
<feBlend mode="normal" in2="shape" result="effect1_innerShadow_27_32"/>
</filter>
<filter id="filter6_i_27_32" x="404.086" y="113.456" width="25.843" height="30.1502" filterUnits="userSpaceOnUse" color-interpolation-filters="sRGB">
<feFlood flood-opacity="0" result="BackgroundImageFix"/>
<feBlend mode="normal" in="SourceGraphic" in2="BackgroundImageFix" result="shape"/>
<feColorMatrix in="SourceAlpha" type="matrix" values="0 0 0 0 0 0 0 0 0 0 0 0 0 0 0 0 0 0 127 0" result="hardAlpha"/>
<feOffset/>
<feGaussianBlur stdDeviation="3.87336"/>
<feComposite in2="hardAlpha" operator="arithmetic" k2="-1" k3="1"/>
<feColorMatrix type="matrix" values="0 0 0 0 0 0 0 0 0 0 0 0 0 0 0 0 0 0 1 0"/>
<feBlend mode="normal" in2="shape" result="effect1_innerShadow_27_32"/>
</filter>
<filter id="filter7_i_27_32" x="404.086" y="148.99" width="25.843" height="30.1502" filterUnits="userSpaceOnUse" color-interpolation-filters="sRGB">
<feFlood flood-opacity="0" result="BackgroundImageFix"/>
<feBlend mode="normal" in="SourceGraphic" in2="BackgroundImageFix" result="shape"/>
<feColorMatrix in="SourceAlpha" type="matrix" values="0 0 0 0 0 0 0 0 0 0 0 0 0 0 0 0 0 0 127 0" result="hardAlpha"/>
<feOffset/>
<feGaussianBlur stdDeviation="3.87336"/>
<feComposite in2="hardAlpha" operator="arithmetic" k2="-1" k3="1"/>
<feColorMatrix type="matrix" values="0 0 0 0 0 0 0 0 0 0 0 0 0 0 0 0 0 0 1 0"/>
<feBlend mode="normal" in2="shape" result="effect1_innerShadow_27_32"/>
</filter>
<filter id="filter8_i_27_32" x="410.543" y="119.916" width="12.9215" height="12.9215" filterUnits="userSpaceOnUse" color-interpolation-filters="sRGB">
<feFlood flood-opacity="0" result="BackgroundImageFix"/>
<feBlend mode="normal" in="SourceGraphic" in2="BackgroundImageFix" result="shape"/>
<feColorMatrix in="SourceAlpha" type="matrix" values="0 0 0 0 0 0 0 0 0 0 0 0 0 0 0 0 0 0 127 0" result="hardAlpha"/>
<feOffset/>
<feGaussianBlur stdDeviation="0.774672"/>
<feComposite in2="hardAlpha" operator="arithmetic" k2="-1" k3="1"/>
<feColorMatrix type="matrix" values="0 0 0 0 0 0 0 0 0 0 0 0 0 0 0 0 0 0 1 0"/>
<feBlend mode="normal" in2="shape" result="effect1_innerShadow_27_32"/>
</filter>
<filter id="filter9_i_27_32" x="410.543" y="155.451" width="12.9215" height="12.9215" filterUnits="userSpaceOnUse" color-interpolation-filters="sRGB">
<feFlood flood-opacity="0" result="BackgroundImageFix"/>
<feBlend mode="normal" in="SourceGraphic" in2="BackgroundImageFix" result="shape"/>
<feColorMatrix in="SourceAlpha" type="matrix" values="0 0 0 0 0 0 0 0 0 0 0 0 0 0 0 0 0 0 127 0" result="hardAlpha"/>
<feOffset/>
<feGaussianBlur stdDeviation="0.774672"/>
<feComposite in2="hardAlpha" operator="arithmetic" k2="-1" k3="1"/>
<feColorMatrix type="matrix" values="0 0 0 0 0 0 0 0 0 0 0 0 0 0 0 0 0 0 1 0"/>
<feBlend mode="normal" in2="shape" result="effect1_innerShadow_27_32"/>
</filter>
<filter id="filter10_i_27_32" x="236.322" y="348.082" width="101.746" height="87.2113" filterUnits="userSpaceOnUse" color-interpolation-filters="sRGB">
<feFlood flood-opacity="0" result="BackgroundImageFix"/>
<feBlend mode="normal" in="SourceGraphic" in2="BackgroundImageFix" result="shape"/>
<feColorMatrix in="SourceAlpha" type="matrix" values="0 0 0 0 0 0 0 0 0 0 0 0 0 0 0 0 0 0 127 0" result="hardAlpha"/>
<feOffset/>
<feGaussianBlur stdDeviation="7.74672"/>
<feComposite in2="hardAlpha" operator="arithmetic" k2="-1" k3="1"/>
<feColorMatrix type="matrix" values="0 0 0 0 0 0 0 0 0 0 0 0 0 0 0 0 0 0 1 0"/>
<feBlend mode="normal" in2="shape" result="effect1_innerShadow_27_32"/>
</filter>
<linearGradient id="paint0_linear_27_32" x1="463.307" y1="186.678" x2="463.307" y2="200.676" gradientUnits="userSpaceOnUse">
<stop stop-color="#F8F8F9"/>
<stop offset="1" stop-color="#D3E2F5" stop-opacity="0.9"/>
</linearGradient>
<linearGradient id="paint1_linear_27_32" x1="403.009" y1="83.3056" x2="403.009" y2="90.8431" gradientUnits="userSpaceOnUse">
<stop stop-color="white"/>
<stop offset="1" stop-opacity="0.15"/>
</linearGradient>
<radialGradient id="paint2_radial_27_32" cx="0" cy="0" r="1" gradientUnits="userSpaceOnUse" gradientTransform="translate(287.19 391.688) rotate(180) scale(40.2141 33.9155)">
<stop stop-color="white"/>
<stop offset="0.635417" stop-opacity="0.8"/>
</radialGradient>
</defs>
</svg>
