<svg width="6437" height="3783" viewBox="0 0 6437 3783" fill="none" xmlns="http://www.w3.org/2000/svg">
<rect width="6436.45" height="3782.08" fill="#F2F4F9"/>
<path d="M1635.5 684.017L4014.62 684.017L4014.62 1838.84L3905.01 1838.84" stroke="black" stroke-width="8" stroke-linecap="round" stroke-linejoin="round"/>
<path d="M5894.77 524.127V2440.4H4437.87V524.127H5894.77Z" fill="#C6E8FB"/>
<path d="M5896.5 2118.02C5869.66 2122.38 5845.44 2142.37 5836.77 2168.64C5821.66 2130.35 5758.89 2126.44 5739.28 2162.57C5726.41 2111.27 5674.78 2073.01 5622.72 2076.17C5570.66 2079.32 5523.9 2123.53 5517.12 2176.01C5485.92 2136.18 5416.45 2137.92 5387.24 2179.28C5386.95 2136.04 5350.61 2096.1 5308.12 2092.39C5265.64 2088.68 5223.13 2121.7 5215.55 2164.27C5190.7 2132.55 5134.24 2136.4 5113.81 2171.2C5086.42 2132.45 5018.04 2137.38 4996.33 2179.68C4986.62 2139.67 4941.18 2112.66 4902.03 2123.65C4862.87 2134.65 4837.59 2181.52 4849.55 2220.9C4814.72 2183.34 4750.47 2179.47 4711.47 2212.52C4672.47 2245.57 4664.85 2310.39 4695.05 2351.88C4670.28 2356.23 4656.37 2390.39 4670.88 2411.21C4646.51 2396.55 4612.92 2421.67 4611.68 2450.4V2450.83H5896.5V2118.02Z" fill="#BCCF59"/>
<path d="M4783.1 2173.83C4774.29 2167.07 4768 2158.4 4767.57 2148.06C4767.14 2137.73 4776.78 2126.81 4786.64 2129.63C4790.79 2130.82 4794.04 2134.04 4796.95 2137.24C4810.27 2151.83 4824.44 2171.54 4829.88 2190.91C4816.67 2190.38 4796.83 2184.4 4783.1 2173.83Z" fill="#BCCF59"/>
<path d="M4832.27 2129.36C4834.89 2127.72 4838.24 2126.7 4841.24 2127.6C4845.05 2128.73 4847.18 2132.42 4848.26 2135.94C4852.47 2149.54 4847.14 2163.25 4841.96 2175.52C4840.91 2177.98 4839.3 2184.34 4836.1 2179.81C4826.85 2166.56 4813.29 2141.1 4832.27 2129.36Z" fill="#BCCF59"/>
<path d="M4597.44 2389.12C4586.91 2385.71 4578.14 2379.66 4574.34 2370.08C4570.54 2360.5 4576.04 2346.91 4586.25 2346.25C4590.55 2345.97 4594.67 2347.9 4598.48 2349.94C4615.83 2359.19 4635.66 2372.97 4647.16 2389.38C4634.53 2393.36 4613.88 2394.44 4597.44 2389.12Z" fill="#BCCF59"/>
<path d="M4629.21 2330.54C4631.16 2328.1 4633.99 2325.99 4637.15 2325.83C4641.12 2325.59 4644.34 2328.37 4646.52 2331.31C4654.95 2342.69 4654.37 2357.41 4653.58 2370.76C4653.42 2373.43 4653.97 2379.98 4649.48 2376.79C4636.33 2367.46 4615.18 2348.04 4629.21 2330.54Z" fill="#BCCF59"/>
<path d="M5447.26 2130.05C5456.09 2123.3 5462.4 2114.65 5462.84 2104.32C5463.28 2093.99 5453.7 2083.04 5443.84 2085.85C5439.68 2086.99 5436.44 2090.22 5433.49 2093.43C5420.15 2107.99 5405.93 2127.65 5400.44 2147.01C5413.63 2146.51 5433.49 2140.59 5447.26 2130.05Z" fill="#BCCF59"/>
<path d="M5849.53 2099.55C5850.2 2088.35 5847.81 2077.93 5840.35 2070.82C5832.89 2063.72 5818.44 2064.09 5814.16 2073.51C5812.34 2077.48 5812.63 2082.07 5813.13 2086.41C5815.37 2106.16 5820.98 2129.9 5831.86 2146.73C5840.06 2136.18 5848.5 2117 5849.53 2099.55Z" fill="#BCCF59"/>
<path d="M5398.24 2085.42C5395.63 2083.78 5392.26 2082.74 5389.27 2083.63C5385.42 2084.77 5383.3 2088.44 5382.19 2091.96C5377.96 2105.55 5383.31 2119.27 5388.4 2131.56C5389.43 2134.01 5391.04 2140.38 5394.25 2135.85C5403.57 2122.67 5417.2 2097.26 5398.24 2085.42Z" fill="#BCCF59"/>
<path d="M4869.18 2371.8H4868.63C4855.28 2369.96 4844.79 2356.41 4845.72 2342.21C4846.58 2329.13 4856.74 2317.05 4869.92 2313.46C4878.56 2311.28 4887.68 2312.2 4895.72 2316.09C4895.1 2311.04 4895.62 2305.9 4897.25 2301.08C4898.88 2296.26 4901.58 2291.88 4905.13 2288.28C4915.29 2278.38 4931.82 2276.24 4944.38 2283.22C4956.59 2289.96 4964.09 2304.66 4962.61 2318.94C4962.56 2319.47 4962.4 2320 4962.14 2320.47C4961.89 2320.95 4961.55 2321.37 4961.14 2321.71C4960.72 2322.05 4960.25 2322.3 4959.74 2322.46C4959.23 2322.61 4958.69 2322.66 4958.16 2322.61C4957.63 2322.55 4957.12 2322.39 4956.65 2322.13C4956.18 2321.88 4955.77 2321.53 4955.43 2321.11C4955.1 2320.69 4954.85 2320.21 4954.69 2319.69C4954.54 2319.17 4954.49 2318.63 4954.55 2318.09C4955.67 2307 4949.91 2295.64 4940.51 2290.44C4931.12 2285.24 4918.26 2286.86 4910.7 2294.23C4903.14 2301.61 4901.18 2314.72 4906.61 2323.82C4907.12 2324.66 4907.32 2325.66 4907.17 2326.64C4907.01 2327.62 4906.51 2328.51 4905.76 2329.14C4905.01 2329.77 4904.06 2330.11 4903.09 2330.09C4902.11 2330.07 4901.17 2329.7 4900.45 2329.03C4892.49 2321.88 4881.32 2318.93 4871.91 2321.45C4861.99 2324.15 4854.34 2333.12 4853.71 2342.78C4853.07 2352.66 4860.44 2362.41 4869.62 2363.67C4870.63 2363.82 4871.54 2364.36 4872.18 2365.16C4872.82 2365.97 4873.14 2366.99 4873.07 2368.02C4873 2369.05 4872.55 2370.02 4871.82 2370.73C4871.08 2371.45 4870.1 2371.85 4869.08 2371.86L4869.18 2371.8Z" fill="#A7C64C"/>
<path d="M5175.21 2286.28C5174.44 2286.29 5173.68 2286.06 5173.02 2285.64C5172.37 2285.22 5171.85 2284.62 5171.52 2283.9C5170.26 2281 5169.62 2277.85 5169.64 2274.67C5169.67 2271.49 5170.36 2268.36 5171.67 2265.47C5173.08 2262.07 5175.17 2259 5177.81 2256.46C5180.45 2253.91 5183.57 2251.94 5186.99 2250.67C5196.49 2247.35 5207.66 2249.54 5216.54 2256.1C5220.38 2244.2 5230.94 2234.91 5242.75 2234.12C5250.31 2233.48 5258.17 2236.95 5263.73 2243.07C5266.2 2245.66 5268.07 2248.79 5269.2 2252.21C5270.33 2255.63 5270.68 2259.27 5270.24 2262.85C5270.05 2263.91 5269.47 2264.86 5268.61 2265.5C5267.75 2266.13 5266.68 2266.41 5265.62 2266.27C5264.57 2266.09 5263.63 2265.5 5263 2264.62C5262.37 2263.75 5262.1 2262.66 5262.26 2261.59C5262.52 2259.22 5262.25 2256.82 5261.47 2254.58C5260.7 2252.33 5259.43 2250.29 5257.77 2248.6C5255.96 2246.55 5253.73 2244.91 5251.23 2243.82C5248.73 2242.72 5246.03 2242.19 5243.31 2242.26C5233.22 2242.96 5223.95 2252.97 5223.2 2264.15C5223.15 2264.95 5222.86 2265.72 5222.38 2266.36C5221.9 2267.01 5221.24 2267.49 5220.49 2267.76C5219.75 2268.02 5218.93 2268.06 5218.16 2267.86C5217.39 2267.67 5216.7 2267.25 5216.16 2266.65C5209.05 2258.82 5198.15 2255.45 5189.65 2258.4C5187.3 2259.29 5185.15 2260.65 5183.34 2262.42C5181.54 2264.18 5180.1 2266.3 5179.14 2268.64C5178.28 2270.47 5177.82 2272.47 5177.79 2274.49C5177.75 2276.52 5178.13 2278.52 5178.91 2280.39C5179.2 2281.01 5179.33 2281.71 5179.29 2282.4C5179.24 2283.09 5179.02 2283.76 5178.66 2284.34C5178.29 2284.92 5177.78 2285.4 5177.18 2285.73C5176.58 2286.06 5175.9 2286.23 5175.22 2286.23L5175.21 2286.28Z" fill="#A7C64C"/>
<path d="M5063.77 2450.83C5064.76 2443.11 5066.75 2437.64 5070.09 2433.91C5073.62 2429.95 5080.34 2427.71 5084.67 2430.66C5086.1 2431.74 5087.43 2432.96 5088.63 2434.31C5091.72 2437.59 5095.58 2441.57 5101.37 2441C5102.31 2440.89 5103.19 2440.45 5103.85 2439.75C5104.51 2439.05 5104.9 2438.14 5104.97 2437.18C5105.58 2427.54 5106.22 2417.57 5110.5 2409.17C5114.04 2402.21 5121.71 2395.36 5130.37 2396.53C5135.87 2397.32 5141.17 2401.61 5144.59 2407.99C5148.01 2414.36 5149.29 2421.58 5150.62 2428.7C5150.77 2429.54 5151.17 2430.31 5151.78 2430.9C5152.38 2431.5 5153.15 2431.89 5153.98 2432.02C5154.81 2432.13 5155.66 2431.99 5156.41 2431.6C5157.15 2431.21 5157.77 2430.6 5158.16 2429.85C5162.56 2421.27 5169.47 2409.94 5178.86 2409.94H5179.25C5184.86 2410.14 5189.62 2414.56 5192.18 2418.65C5195.48 2423.86 5197.06 2430.27 5198.59 2436.45C5198.91 2437.43 5199.59 2438.25 5200.49 2438.75C5201.38 2439.25 5202.43 2439.38 5203.42 2439.13C5204.41 2438.88 5205.28 2438.25 5205.83 2437.39C5206.39 2436.52 5206.61 2435.47 5206.44 2434.45C5204.83 2427.94 5203 2420.56 5199 2414.22C5194.22 2406.66 5186.94 2401.98 5179.51 2401.71C5169.29 2401.15 5161.79 2408.61 5156.35 2416.68C5155.31 2412.29 5153.74 2408.04 5151.68 2404.04C5147.04 2395.37 5139.49 2389.52 5131.49 2388.33C5119 2386.51 5108.11 2395.88 5103.27 2405.4C5099.09 2413.6 5097.89 2422.77 5097.22 2431.34C5096.24 2430.48 5095.32 2429.57 5094.45 2428.61C5092.86 2426.82 5091.08 2425.2 5089.15 2423.79C5080.93 2418.24 5069.94 2421.78 5064.03 2428.35C5057.93 2435.17 5056.18 2444.28 5055.5 2450.8L5063.77 2450.83Z" fill="#A7C64C"/>
<path d="M5532.56 2267.06C5531.7 2267.06 5530.87 2266.79 5530.17 2266.27C5529.48 2265.75 5528.96 2265.03 5528.7 2264.2C5525.62 2254.24 5526.01 2243.51 5529.83 2233.81C5530.86 2231.22 5532.63 2227.48 5536.07 2225.16C5538.92 2223.43 5542.19 2222.53 5545.52 2222.57C5556.23 2222.3 5566.64 2226.14 5574.68 2233.32C5577.2 2226.33 5582.24 2219.99 5589.92 2217.91C5592.95 2217.2 5596.11 2217.3 5599.09 2218.21C5602.06 2219.12 5604.75 2220.8 5606.89 2223.09C5610.78 2227.15 5612.19 2232.27 5610.75 2237.17C5610.44 2238.21 5609.73 2239.08 5608.79 2239.6C5607.84 2240.12 5606.73 2240.24 5605.7 2239.93C5605.19 2239.78 5604.72 2239.52 5604.3 2239.18C5603.89 2238.84 5603.55 2238.42 5603.29 2237.95C5603.04 2237.47 5602.88 2236.95 5602.83 2236.41C5602.77 2235.87 5602.82 2235.33 5602.98 2234.81C5603.75 2232.16 5602.12 2229.93 5601.06 2228.84C5598.64 2226.3 5594.88 2225.07 5592.02 2225.87C5585.29 2227.7 5581.54 2235.57 5580.98 2242.12C5580.91 2242.95 5580.6 2243.73 5580.08 2244.37C5579.56 2245.02 5578.86 2245.48 5578.08 2245.71C5577.29 2245.95 5576.46 2245.93 5575.68 2245.67C5574.9 2245.41 5574.22 2244.92 5573.73 2244.26C5570.41 2239.99 5566.16 2236.56 5561.33 2234.22C5556.49 2231.88 5551.19 2230.71 5545.83 2230.78C5544.02 2230.73 5542.23 2231.16 5540.63 2232.01C5539.43 2232.82 5538.38 2234.37 5537.4 2236.89C5534.29 2244.8 5533.97 2253.56 5536.49 2261.68C5536.65 2262.2 5536.71 2262.74 5536.67 2263.28C5536.63 2263.82 5536.48 2264.35 5536.24 2264.83C5535.99 2265.31 5535.66 2265.74 5535.25 2266.09C5534.84 2266.44 5534.37 2266.7 5533.86 2266.87L5532.56 2267.06Z" fill="#A7C64C"/>
<path d="M5896.65 2271.76C5894.57 2269.62 5892.09 2267.92 5889.36 2266.76C5886.39 2265.62 5883.22 2265.09 5880.04 2265.21C5876.86 2265.32 5873.74 2266.08 5870.85 2267.44C5867.98 2268.73 5865.38 2270.56 5863.17 2272.83C5859.05 2261.21 5852.56 2249.92 5840.5 2247.03C5830.71 2244.65 5819.44 2249.31 5811.83 2258.68C5805.35 2266.73 5802.14 2276.79 5799.32 2285.65C5799.04 2286.68 5799.16 2287.77 5799.66 2288.7C5800.16 2289.63 5800.99 2290.34 5801.98 2290.66C5802.97 2290.99 5804.05 2290.91 5805 2290.45C5805.94 2289.99 5806.67 2289.18 5807.03 2288.19C5809.78 2279.6 5812.64 2270.75 5818.12 2263.9C5822.75 2258.21 5830.85 2253.16 5838.64 2255.04C5849.51 2257.65 5854.68 2271.62 5857.97 2283.49C5858.2 2284.33 5858.69 2285.08 5859.37 2285.62C5860.04 2286.16 5860.87 2286.47 5861.73 2286.5C5862.6 2286.55 5863.45 2286.31 5864.17 2285.82C5864.88 2285.33 5865.41 2284.61 5865.68 2283.78C5866.7 2280.71 5868.62 2278.05 5871.19 2276.14C5873.76 2274.24 5876.85 2273.19 5880.03 2273.14C5883.22 2273.1 5886.34 2274.05 5888.96 2275.88C5891.58 2277.71 5893.59 2280.31 5894.69 2283.34C5895.51 2285.29 5895.95 2287.39 5895.96 2289.5C5895.97 2291.62 5895.56 2293.72 5894.75 2295.68C5894.33 2296.64 5894.29 2297.74 5894.64 2298.73C5894.99 2299.72 5895.72 2300.54 5896.65 2301.01V2271.76Z" fill="#A7C64C"/>
<path d="M5896.55 744.663C5868.82 740.509 5838.61 742.854 5807.4 751.07C5709.05 776.994 5662.08 863.902 5655.21 961.189C5615.17 940.649 5569.8 917.946 5530.34 950.64C5501.96 974.174 5483.24 1018.92 5480.32 1055.34C5413.69 1057.61 5388.08 1073.54 5367.22 1138.74C5328.83 1113.32 5289.38 1131.34 5281.25 1176.21C5247.52 1155.38 5192.08 1179.38 5234.33 1216.04H5896.57V744.663" fill="white"/>
<path d="M4884.44 2463.33C4960.92 2436.02 5033.52 2380.54 5072.86 2318.52C5116.51 2249.8 5129.59 2163.9 5118.59 2082.95C5110.08 2020.24 5088.31 1956.7 5057.25 1901.74C5028.33 1850.53 5014.7 1806.38 5033.2 1746.89C5049.15 1695.68 5080.31 1650.91 5103.86 1602.78C5165.1 1477.71 5171.91 1322.66 5106.78 1199.71C5058.07 1107.86 4972.25 1035.19 4947.14 934.032C4928.32 858.184 4920.23 757.153 4830.14 732.003C4682.25 690.739 4576.19 836.699 4547.71 961.219C4529.16 1042.44 4500.77 1122.73 4451.98 1189.8C4448.41 1194.74 4444.64 1199.52 4440.89 1204.29V2434.24C4481.91 2447.39 4525.64 2456.62 4570.02 2463.34H4884.44" fill="#A1BA5A"/>
<path d="M4728.1 1877.16C4739.6 1818.33 4762.96 1760.5 4803.73 1717.06C4832.12 1686.79 4858.21 1653.66 4887.73 1625.36C4916.54 1597.77 4953.59 1568.86 4974.59 1534.66C4976.54 1531.52 4978.43 1527.76 4977.18 1524.27C4974.94 1517.72 4965.44 1519.1 4959.16 1521.85C4900.95 1547.31 4837.81 1592.68 4771.74 1588.99C4764.23 1588.56 4755.82 1586.9 4751.8 1580.47C4748.97 1575.92 4749.08 1570.23 4749.47 1564.87C4757.26 1457.67 4831.12 1368.39 4866.05 1266.92C4873.2 1246.19 4874.91 1216.56 4854.66 1208.88C4840.54 1203.53 4825.84 1213.43 4812.56 1220.72C4750.34 1254.73 4772.98 1134.84 4772.87 1102.51C4772.67 1043.63 4771.07 977.034 4750.44 921.375C4749.71 919.429 4748.7 917.289 4746.74 916.72C4743.75 915.821 4741.3 919.144 4739.92 921.978C4717.4 968.431 4713.14 1032.26 4704.7 1083C4688.81 1178.43 4680.59 1274.55 4671.36 1370.68C4669.65 1388.58 4667.13 1406.86 4658.77 1422.71C4641.75 1455.14 4586.99 1462.38 4570.95 1422.46C4616.75 1536.77 4642.73 1668.04 4596.88 1782.32C4593.64 1790.38 4589.74 1798.73 4582.63 1803.6C4567.72 1813.84 4550.1 1804.19 4532.44 1794.57C4514.77 1784.96 4496.94 1775.16 4482.15 1785.82C4498.98 1875.32 4571.81 1944.82 4594.12 2033.07C4608.51 2091.1 4600.06 2152.52 4570.57 2204.33C4565.68 2212.85 4559.67 2221.53 4550.58 2225.06C4541.76 2228.48 4531.74 2226.32 4523.06 2222.54C4513.05 2218 4503.8 2211.9 4495.66 2204.44C4475.85 2186.89 4459.53 2163.27 4440.89 2145.27V2224.09C4473.6 2279.8 4514.44 2330.17 4562.02 2373.48C4578.75 2388.7 4608.88 2425.97 4632.17 2427.7C4658.06 2429.62 4684.1 2395.21 4694.57 2375.24C4710.97 2343.95 4718 2308.09 4736.07 2277.78C4768.52 2223.15 4821.5 2216.26 4864.06 2176.88C4909.97 2134.38 4950.13 2083.07 4972.4 2023.71C4974.32 2018.6 4975.37 2011.36 4970.55 2008.91C4967.61 2007.41 4964.09 2008.74 4961.09 2010.05L4801.17 2081.03C4783.71 2088.82 4745.8 2115 4728.81 2104.76C4715.36 2096.57 4715.52 2069.76 4715.61 2056.38C4716.07 1996.4 4716.56 1936 4728.09 1877.18" fill="#95B354"/>
<path d="M4676.42 2463.33C4678.67 2407.91 4680.91 2353.39 4683.15 2301.88C4690.02 2143.32 4697.73 1984.74 4706.28 1826.13C4723.17 1508.98 4741.62 1191.84 4763.3 874.957C4763.41 873.128 4762.81 871.328 4761.63 869.942C4760.44 868.556 4758.78 867.692 4756.98 867.535C4755.18 867.378 4753.39 867.939 4751.99 869.1C4750.59 870.261 4749.7 871.93 4749.5 873.751C4717.52 1189.9 4688.19 1506.3 4661.48 1822.94C4647.91 1981.26 4635.03 2139.67 4622.84 2298.17C4618.93 2350.91 4614.83 2406.64 4610.84 2463.33H4676.4" fill="#A16D42"/>
<path d="M4722.32 1121.98L4717.84 1115.25L4712.63 1107.52L4709.44 1102.77C4708.31 1101.06 4707.19 1099 4706.07 1097C4703.83 1092.92 4701.29 1088.52 4698.66 1083.86C4696.02 1079.21 4693.81 1074.2 4691.3 1069.07C4688.97 1063.88 4686.13 1058.71 4684.05 1053.14C4681.98 1047.56 4679.62 1042.01 4677.38 1036.41C4675.14 1030.81 4673.45 1025.03 4671.5 1019.42C4670.56 1016.62 4669.63 1013.84 4668.7 1011.09L4666.34 1002.85C4664.83 997.434 4663.36 992.21 4661.96 987.237L4658.67 973.103C4656.48 964.409 4655.31 956.989 4654.34 951.857C4653.38 946.725 4652.84 943.788 4652.84 943.788C4652.61 942.763 4652.79 941.688 4653.34 940.797C4653.89 939.905 4654.76 939.269 4655.77 939.027C4656.78 938.784 4657.84 938.955 4658.73 939.501C4659.61 940.047 4660.25 940.925 4660.5 941.945L4660.56 942.138L4662.72 949.911C4664.17 954.838 4665.9 961.962 4668.79 970.27C4670.15 974.446 4671.63 978.964 4673.2 983.743C4674.98 988.432 4676.85 993.382 4678.8 998.537L4681.78 1006.31L4685.21 1014.12C4687.56 1019.33 4689.7 1024.75 4692.3 1029.93L4700.15 1045.34C4702.58 1050.5 4705.76 1055.13 4708.35 1059.84C4711.14 1064.39 4713.55 1069.15 4716.41 1072.97L4724.05 1084.11C4725.26 1085.83 4726.29 1087.53 4727.49 1089.05L4731.09 1093.49L4736.96 1100.72L4742.06 1107.01C4743.87 1109.59 4744.65 1112.77 4744.24 1115.91C4743.83 1119.05 4742.26 1121.91 4739.85 1123.93C4737.44 1125.94 4734.37 1126.95 4731.25 1126.76C4728.14 1126.56 4725.21 1125.18 4723.06 1122.89L4722.32 1121.98Z" fill="#A16D42"/>
<path d="M4714.43 1296.16L4725.34 1288.31L4737.86 1279.32C4742.74 1275.91 4748.15 1271.94 4753.77 1267.51L4772.22 1253.32C4778.81 1248.37 4785.44 1242.57 4792.49 1236.87C4799.55 1231.16 4806.84 1225.24 4813.91 1218.84L4835.64 1199.72L4856.76 1179.89C4863.83 1173.43 4870.37 1166.65 4876.83 1160.21C4883.29 1153.77 4889.62 1147.69 4895.27 1141.46L4911.37 1124.2C4916.42 1118.91 4920.87 1113.91 4924.74 1109.41L4934.84 1097.81L4943.67 1087.7L4943.76 1087.6C4944.45 1086.83 4945.39 1086.37 4946.4 1086.3C4947.42 1086.22 4948.42 1086.55 4949.2 1087.21C4949.98 1087.86 4950.48 1088.8 4950.6 1089.82C4950.72 1090.84 4950.45 1091.87 4949.84 1092.69L4941.69 1103.48L4932.37 1115.84C4928.79 1120.67 4924.66 1126.08 4919.96 1131.77L4904.92 1150.33C4899.66 1156.99 4893.63 1163.56 4887.64 1170.61C4881.65 1177.67 4875.45 1184.94 4868.76 1191.97L4848.8 1213.59L4828.13 1234.58C4821.4 1241.61 4814.37 1248.09 4807.67 1254.49C4800.97 1260.9 4794.6 1267.17 4788.15 1272.78L4770.22 1288.82C4764.61 1293.87 4759.5 1298.23 4754.91 1301.98L4743.07 1311.86L4732.74 1320.47C4729.64 1323.05 4725.66 1324.28 4721.67 1323.88C4717.69 1323.48 4714.02 1321.49 4711.48 1318.35C4708.94 1315.2 4707.73 1311.17 4708.13 1307.12C4708.52 1303.08 4710.48 1299.36 4713.58 1296.78L4714.43 1296.16Z" fill="#A16D42"/>
<path d="M4685.85 1573.86L4675.26 1563.98C4671.89 1560.84 4667.78 1557.03 4663.09 1552.6L4655.6 1545.64C4652.99 1543.04 4650.31 1540.13 4647.49 1537.19L4629.35 1518.09C4626.05 1514.76 4622.95 1511.14 4619.87 1507.39L4610.34 1496.01C4603.9 1488.25 4597 1480.46 4590.92 1471.77L4571.86 1445.99L4554.44 1419.11C4548.48 1410.4 4543.63 1401.18 4538.65 1392.45C4536.18 1388.08 4533.76 1383.79 4531.39 1379.58C4528.97 1375.39 4526.68 1371.26 4524.76 1367.06L4513.47 1343.78C4511.74 1340.16 4510 1336.75 4508.5 1333.41C4507 1330.08 4505.78 1326.81 4504.54 1323.8C4502.06 1317.78 4499.91 1312.52 4498.11 1308.19L4492.5 1294.62C4491.91 1293.31 4491.85 1291.82 4492.34 1290.47C4492.83 1289.12 4493.83 1288.02 4495.11 1287.42C4496.4 1286.82 4497.87 1286.76 4499.2 1287.25C4500.53 1287.75 4501.61 1288.76 4502.21 1290.07L4502.36 1290.38L4508.69 1303.37C4510.71 1307.5 4513.18 1312.47 4515.95 1318.27C4517.36 1321.12 4518.84 1324.18 4520.43 1327.37C4522.03 1330.56 4524.03 1333.79 4525.95 1337.21L4538.47 1359.35C4540.59 1363.31 4543.07 1367.2 4545.69 1371.12L4553.54 1383.21C4558.93 1391.38 4564.19 1400.01 4570.51 1408.1C4576.62 1416.31 4582.85 1424.67 4589.02 1433.03L4608.97 1456.74C4615.33 1464.7 4622.5 1471.8 4629.16 1478.86C4632.52 1482.36 4635.8 1485.81 4639.01 1489.19C4642.06 1492.55 4645.27 1495.75 4648.64 1498.77L4666.76 1515.58C4669.59 1518.16 4672.18 1520.69 4674.84 1523.01L4682.69 1529.49L4695.55 1540L4706.76 1549.18C4708.43 1550.51 4709.82 1552.17 4710.86 1554.05C4711.89 1555.94 4712.54 1558.01 4712.78 1560.16C4713.02 1562.3 4712.84 1564.47 4712.24 1566.54C4711.65 1568.61 4710.65 1570.54 4709.32 1572.22C4707.98 1573.9 4706.33 1575.29 4704.46 1576.32C4702.59 1577.35 4700.54 1577.99 4698.43 1578.2C4696.31 1578.42 4694.17 1578.21 4692.14 1577.58C4690.1 1576.96 4688.21 1575.93 4686.57 1574.55L4685.79 1573.88" fill="#A16D42"/>
<path d="M4689.76 1715.2L4707.95 1704.44L4728.83 1692.08L4741.67 1684.47C4746.08 1681.7 4750.53 1678.69 4755.27 1675.59L4785.84 1655.48C4791.33 1652.07 4796.78 1648.11 4802.3 1644.01L4819.3 1631.65C4830.81 1623.21 4842.97 1614.78 4854.5 1605.14L4890.04 1576.69L4924.24 1546.52C4935.76 1536.77 4946.17 1526.2 4956.52 1516.25L4971.72 1501.53C4976.73 1496.75 4981.57 1492.01 4985.99 1487.13L5011.45 1460.03C5015.37 1455.82 5019.22 1451.85 5022.72 1447.94L5032.41 1436.56L5048.18 1418.12L5061.93 1402.03L5062.07 1401.86C5062.86 1400.94 5063.97 1400.37 5065.17 1400.27C5066.37 1400.17 5067.55 1400.55 5068.48 1401.32C5069.41 1402.09 5070 1403.2 5070.14 1404.41C5070.28 1405.61 5069.95 1406.83 5069.22 1407.8L5056.25 1424.73C5052.13 1430.12 5047.11 1436.68 5041.38 1444.21C5038.51 1447.97 5035.46 1451.98 5032.23 1456.2C5029 1460.41 5025.25 1464.54 5021.52 1469.01L4997.31 1497.81C4993.1 1503 4988.48 1508.05 4983.67 1513.16C4978.87 1518.27 4974.06 1523.58 4969.09 1528.92C4959.17 1539.59 4949.16 1550.9 4938.06 1561.41L4904.98 1594C4893.4 1604.37 4881.82 1614.76 4870.43 1624.99C4859.21 1635.48 4847.32 1644.74 4836.05 1654C4830.38 1658.61 4824.83 1663.15 4819.38 1667.6C4813.98 1672.08 4808.6 1676.4 4803.12 1680.31L4772.6 1702.88L4759.03 1712.86L4746.63 1721.17L4726.44 1734.69L4708.86 1746.45C4704.85 1749.14 4699.94 1750.1 4695.23 1749.12C4690.52 1748.14 4686.38 1745.3 4683.73 1741.22C4681.08 1737.15 4680.14 1732.17 4681.1 1727.39C4682.07 1722.61 4684.87 1718.41 4688.89 1715.73L4689.74 1715.19" fill="#A16D42"/>
<path d="M4660.39 1990.42L4651.61 1982.68L4641.52 1973.8C4637.62 1970.39 4633.23 1966.51 4628.49 1961.92L4613.15 1947.41C4607.65 1942.31 4602.37 1936.55 4596.64 1930.82C4590.91 1925.08 4585.03 1919.15 4579.4 1912.76L4562.08 1893.71L4545.46 1874.03C4539.86 1867.65 4534.84 1860.97 4529.84 1854.69C4524.84 1848.4 4519.91 1842.29 4515.64 1836.25C4511.37 1830.21 4507.17 1824.6 4503.38 1819.39C4495.68 1809.04 4490.04 1799.85 4485.73 1793.68C4481.42 1787.51 4479.13 1783.87 4479.13 1783.87C4478.41 1782.79 4478.12 1781.46 4478.34 1780.17C4478.55 1778.88 4479.25 1777.72 4480.28 1776.94C4481.32 1776.16 4482.61 1775.81 4483.89 1775.98C4485.17 1776.14 4486.34 1776.8 4487.15 1777.81L4487.29 1777.97L4494.57 1787.08C4499.3 1792.77 4505.56 1801.37 4513.96 1810.91C4518.1 1815.73 4522.57 1820.96 4527.32 1826.46C4532.06 1831.97 4537.41 1837.5 4542.69 1843.37C4547.98 1849.25 4553.54 1855.28 4559.52 1861.07L4577.27 1878.9C4583.42 1884.59 4589.61 1890.4 4595.63 1896.05C4601.66 1901.71 4607.85 1907.02 4613.78 1912.2C4619.71 1917.38 4625.38 1922.44 4631.01 1926.88L4646.71 1939.49C4651.48 1943.42 4656.11 1946.92 4660.33 1949.99L4671.09 1957.96L4680.47 1964.94C4683.91 1967.49 4686.2 1971.33 4686.85 1975.6C4687.5 1979.87 4686.45 1984.23 4683.93 1987.72C4681.41 1991.2 4677.63 1993.53 4673.41 1994.19C4669.2 1994.85 4664.91 1993.78 4661.47 1991.22L4660.44 1990.39" fill="#A16D42"/>
<path d="M4660.18 2192.37L4676.05 2185.77C4681.1 2183.66 4687.21 2181.09 4694.22 2178.14L4705.44 2173.47C4709.27 2171.73 4713.12 2169.73 4717.24 2167.78L4743.64 2154.82L4750.79 2151.3L4757.98 2147.26L4772.82 2138.94C4782.92 2133.25 4793.49 2127.71 4803.62 2120.97L4834.82 2101.26L4865.11 2080.03C4875.2 2073.2 4884.63 2065.69 4893.82 2058.54C4903.01 2051.39 4912.08 2044.69 4920.17 2037.7L4943.09 2018.13L4953.29 2009.42L4962.13 2001.17L4976.52 1987.74L4989.07 1976.04L4989.23 1975.88C4990.25 1974.94 4991.59 1974.45 4992.96 1974.49C4994.33 1974.54 4995.63 1975.12 4996.58 1976.12C4997.54 1977.12 4998.07 1978.46 4998.08 1979.85C4998.08 1981.24 4997.55 1982.58 4996.6 1983.58L4984.59 1996.1L4970.81 2010.46L4962.32 2019.29L4952.49 2028.67L4930.36 2049.75C4922.51 2057.3 4913.64 2064.55 4904.78 2072.36C4895.92 2080.16 4886.7 2088.29 4876.74 2095.81L4847.07 2119.15L4816.3 2141.05C4806.29 2148.52 4795.73 2154.77 4785.73 2161.21L4770.96 2170.6L4763.78 2175.15L4756.53 2179.25L4729.46 2194.38C4725.27 2196.66 4721.24 2199.05 4717.4 2201.04L4706.5 2206.34L4688.77 2214.96L4673.34 2222.47C4671.41 2223.51 4669.3 2224.14 4667.12 2224.33C4664.95 2224.52 4662.76 2224.26 4660.69 2223.57C4658.62 2222.87 4656.7 2221.77 4655.07 2220.31C4653.43 2218.85 4652.1 2217.06 4651.15 2215.07C4650.21 2213.07 4649.67 2210.9 4649.58 2208.69C4649.48 2206.48 4649.82 2204.27 4650.59 2202.2C4651.36 2200.13 4652.53 2198.24 4654.03 2196.63C4655.54 2195.03 4657.35 2193.76 4659.35 2192.88L4660.18 2192.37Z" fill="#A16D42"/>
<path d="M4634.02 2390.39L4607.65 2370.52L4594.87 2360.89C4590.29 2357.62 4585.69 2353.17 4580.82 2349.12L4550.68 2323.03L4522.71 2295.18C4518.35 2290.63 4513.74 2286.67 4510.1 2282.23L4499.4 2270.01L4477.42 2244.87C4476.53 2243.86 4476.05 2242.55 4476.09 2241.19C4476.12 2239.84 4476.67 2238.55 4477.61 2237.59C4478.56 2236.63 4479.83 2236.07 4481.16 2236.03C4482.5 2235.99 4483.8 2236.47 4484.79 2237.37L4485.07 2237.62L4509.52 2259.52L4521.35 2270.07C4525.44 2273.91 4530.37 2277.26 4535.14 2281.11L4565.42 2304.57C4576.1 2311.74 4586.8 2318.89 4596.83 2325.59C4601.92 2328.87 4606.37 2332.33 4611.41 2335.06L4625.27 2343.02C4642.44 2352.87 4653.88 2359.45 4653.88 2359.45C4656.03 2360.7 4657.91 2362.38 4659.4 2364.4C4660.88 2366.41 4661.95 2368.71 4662.53 2371.16C4663.11 2373.6 4663.19 2376.14 4662.77 2378.62C4662.35 2381.1 4661.43 2383.47 4660.08 2385.57C4658.73 2387.68 4656.96 2389.49 4654.9 2390.88C4652.83 2392.27 4650.51 2393.22 4648.07 2393.67C4645.63 2394.13 4643.13 2394.07 4640.71 2393.5C4638.3 2392.94 4636.02 2391.88 4634.02 2390.39" fill="#A16D42"/>
<path d="M5595.19 524.127H5370.05L5000.53 1045.4C5035.3 1096.77 5077.63 1144.8 5106.73 1199.71C5108.12 1202.31 5109.46 1204.93 5110.77 1207.56L5595.19 524.127" fill="#E2F3FE"/>
<path d="M5000.55 1045.4L4870.12 1229.42C4872.36 1241.13 4870.04 1255.38 4866.07 1266.89C4831.13 1368.36 4757.28 1457.64 4749.49 1564.84C4749.1 1570.17 4748.99 1575.93 4751.81 1580.44C4755.84 1586.87 4764.25 1588.53 4771.76 1588.96C4774.34 1589.1 4776.92 1589.18 4779.48 1589.18C4803.92 1589.18 4827.94 1582.78 4851.43 1573.53L5110.83 1207.56C5109.51 1204.93 5108.16 1202.31 5106.79 1199.71C5077.63 1144.8 5035.32 1096.77 5000.58 1045.4" fill="#CDD794"/>
<path d="M4691.72 1481.2L4667.16 1515.85C4669.87 1518.34 4672.37 1520.77 4674.94 1523.01L4682.79 1529.49L4687.01 1532.9C4688.56 1515.65 4690.11 1498.4 4691.67 1481.16L4691.72 1481.2ZM4870.24 1229.43L4728.48 1429.35C4723.18 1520.05 4718.06 1610.76 4713.12 1701.48L4728.99 1692.08L4741.83 1684.47C4746.24 1681.7 4750.7 1678.69 4755.44 1675.59L4786 1655.48C4790.87 1652.41 4795.69 1649 4800.58 1645.41L4851.53 1573.54C4828.02 1582.79 4804.06 1589.24 4779.57 1589.24C4777 1589.24 4774.42 1589.16 4771.84 1589.03C4764.33 1588.59 4755.92 1586.93 4751.9 1580.5C4749.07 1575.95 4749.18 1570.26 4749.57 1564.9C4757.36 1457.7 4831.21 1368.43 4866.15 1266.95C4870.12 1255.44 4872.41 1241.2 4870.2 1229.49" fill="#C5D18C"/>
<path d="M4616.36 1587.25L4482.62 1775.86C4482.81 1775.85 4483 1775.85 4483.18 1775.86C4483.93 1775.86 4484.66 1776.03 4485.34 1776.36C4486.01 1776.68 4486.6 1777.16 4487.07 1777.74L4487.2 1777.9L4490.37 1781.88C4492.4 1781.38 4494.48 1781.13 4496.57 1781.15C4507.84 1781.15 4520.12 1787.85 4532.36 1794.55C4544.59 1801.25 4556.92 1807.94 4568.25 1807.94C4573.33 1808 4578.3 1806.47 4582.5 1803.57C4589.61 1798.7 4593.52 1790.36 4596.76 1782.29C4621.54 1720.46 4625.32 1653.64 4616.32 1587.24" fill="#CDD794"/>
<path d="M4746.78 1721.07L4746.66 1721.15L4726.47 1734.67L4710.58 1745.31C4710.05 1755.01 4709.53 1764.66 4709.01 1774.36L4746.78 1721.07ZM4649.96 1539.89L4616.39 1587.24C4625.36 1653.64 4621.62 1720.46 4596.83 1782.3C4593.59 1790.36 4589.68 1798.71 4582.57 1803.58C4578.39 1806.46 4573.44 1807.99 4568.37 1807.95C4557 1807.95 4544.71 1801.24 4532.48 1794.55C4520.26 1787.86 4507.97 1781.15 4496.69 1781.15C4494.61 1781.14 4492.53 1781.38 4490.5 1781.89L4494.61 1787.03C4499.34 1792.72 4505.6 1801.32 4514 1810.86C4518.14 1815.68 4522.61 1820.91 4527.36 1826.42C4532.1 1831.92 4537.45 1837.45 4542.74 1843.33C4548.02 1849.2 4553.58 1855.23 4559.56 1861.02L4577.31 1878.85C4583.46 1884.54 4589.65 1890.35 4595.67 1896C4601.14 1901.28 4606.89 1906.12 4612.37 1910.89L4659.83 1843.94C4660.43 1836.93 4661.03 1829.93 4661.62 1822.93C4668.84 1739.18 4676.16 1655.43 4683.6 1571.69L4675.34 1563.98C4671.98 1560.84 4667.86 1557.03 4663.17 1552.6L4655.68 1545.64C4653.86 1543.83 4652.01 1541.86 4650.07 1539.84" fill="#C5D18C"/>
<path d="M4440.91 1834.88L4437.87 1839.17V2157L4440.91 2152.71V1834.88Z" fill="#E2F3FE"/>
<path d="M4478.36 1782.01L4440.89 1834.88V2145.21C4441.93 2146.23 4442.98 2147.26 4444.01 2148.31L4569.97 1970.59C4539.83 1910.38 4496.4 1855.19 4482.84 1789.34L4479.11 1783.81C4478.75 1783.26 4478.5 1782.65 4478.36 1782.01" fill="#CDD794"/>
<path d="M4440.89 2145.23V2152.73L4444.01 2148.32C4442.98 2147.27 4441.93 2146.24 4440.89 2145.23ZM4482.84 1789.35C4496.4 1855.21 4539.83 1910.39 4569.97 1970.6L4597.58 1931.78L4596.68 1930.87C4591.07 1925.07 4585.07 1919.21 4579.44 1912.81L4562.11 1893.76L4545.5 1874.09C4539.89 1867.7 4534.88 1861.02 4529.88 1854.74C4524.88 1848.46 4519.95 1842.35 4515.68 1836.31C4511.41 1830.26 4507.21 1824.65 4503.42 1819.44C4495.71 1809.1 4490.07 1799.9 4485.77 1793.73L4482.89 1789.45" fill="#C5D18C"/>
<path d="M4728.41 1429.35L4691.66 1481.19C4690.1 1498.45 4688.55 1515.69 4687.01 1532.94L4695.64 1539.99L4706.86 1549.17C4708.53 1550.5 4709.92 1552.16 4710.95 1554.05C4711.99 1555.93 4712.64 1558.01 4712.88 1560.15C4713.11 1562.29 4712.93 1564.46 4712.34 1566.53C4711.74 1568.6 4710.75 1570.53 4709.41 1572.21C4708.08 1573.89 4706.43 1575.28 4704.56 1576.31C4702.69 1577.34 4700.64 1577.98 4698.52 1578.2C4696.4 1578.41 4694.27 1578.2 4692.23 1577.57C4690.2 1576.95 4688.31 1575.92 4686.67 1574.54L4685.88 1573.87L4683.55 1571.7C4676.07 1655.42 4668.75 1739.17 4661.58 1822.95C4660.99 1829.95 4660.39 1836.95 4659.78 1843.95L4709.13 1774.38C4709.65 1764.68 4710.18 1755.03 4710.7 1745.32L4709.02 1746.46C4707.03 1747.79 4704.81 1748.71 4702.47 1749.17C4700.13 1749.63 4697.72 1749.61 4695.39 1749.13C4693.06 1748.64 4690.84 1747.69 4688.87 1746.34C4686.9 1744.98 4685.2 1743.25 4683.89 1741.23C4681.24 1737.16 4680.3 1732.18 4681.27 1727.4C4682.23 1722.62 4685.03 1718.42 4689.05 1715.73L4689.9 1715.2L4708.09 1704.43L4713.09 1701.48C4718.05 1610.76 4723.17 1520.05 4728.45 1429.35" fill="#CAA57E"/>
<path d="M4667.11 1515.86L4650.06 1539.91C4651.98 1541.93 4653.83 1543.89 4655.67 1545.7L4663.16 1552.67C4667.85 1557.05 4671.94 1560.86 4675.33 1564.05L4683.59 1571.75L4685.92 1573.93L4686.7 1574.6C4688.34 1575.97 4690.24 1577 4692.27 1577.63C4694.3 1578.25 4696.44 1578.47 4698.56 1578.25C4700.67 1578.03 4702.72 1577.39 4704.59 1576.37C4706.46 1575.34 4708.11 1573.95 4709.45 1572.27C4710.78 1570.59 4711.78 1568.66 4712.37 1566.59C4712.97 1564.52 4713.15 1562.35 4712.91 1560.2C4712.68 1558.06 4712.02 1555.98 4710.99 1554.1C4709.95 1552.21 4708.56 1550.56 4706.89 1549.22L4695.68 1540.05L4687.04 1532.99L4682.82 1529.58L4674.97 1523.1C4672.4 1520.83 4669.9 1518.44 4667.19 1515.95" fill="#CAA57E"/>
<path d="M4800.39 1645.4C4795.52 1648.98 4790.69 1652.4 4785.81 1655.47L4755.25 1675.58C4750.51 1678.68 4746.05 1681.69 4741.65 1684.46L4728.8 1692.07L4712.93 1701.47L4707.93 1704.43L4689.74 1715.19L4688.89 1715.73C4684.87 1718.42 4682.07 1722.61 4681.1 1727.39C4680.14 1732.18 4681.08 1737.15 4683.73 1741.23C4686.38 1745.3 4690.52 1748.14 4695.23 1749.12C4699.94 1750.1 4704.85 1749.14 4708.86 1746.46L4710.54 1745.32L4726.44 1734.68L4746.63 1721.16L4746.74 1721.08L4800.38 1645.4" fill="#CAA57E"/>
<path d="M4483.32 1775.85C4483.14 1775.84 4482.95 1775.84 4482.76 1775.85L4478.43 1781.95C4478.57 1782.6 4478.83 1783.21 4479.19 1783.75L4482.91 1789.28L4485.78 1793.56C4490.09 1799.73 4495.73 1808.92 4503.43 1819.27C4507.23 1824.48 4511.29 1830.15 4515.69 1836.13C4520.1 1842.12 4524.98 1848.15 4529.89 1854.57C4534.81 1860.99 4539.99 1867.59 4545.52 1873.91L4562.13 1893.59L4579.46 1912.64C4585.06 1919.04 4591.04 1924.9 4596.7 1930.7L4597.59 1931.61L4612.35 1910.79C4606.86 1906.02 4601.14 1901.18 4595.65 1895.9C4589.58 1890.21 4583.44 1884.52 4577.29 1878.75L4559.51 1861.02C4553.57 1855.23 4548.12 1849.13 4542.69 1843.33C4537.26 1837.52 4531.98 1831.95 4527.31 1826.41C4522.65 1820.88 4518.09 1815.68 4513.96 1810.86C4505.55 1801.32 4499.3 1792.75 4494.56 1787.03L4490.46 1781.88L4487.28 1777.9L4487.15 1777.74C4486.68 1777.16 4486.09 1776.68 4485.42 1776.36C4484.75 1776.03 4484.01 1775.86 4483.27 1775.86" fill="#CAA57E"/>
<path d="M5225.34 1206.58L5146.51 1317.79C5150.49 1341.09 5152.58 1364.69 5152.77 1388.34L5274.96 1215.98H5234.34C5231.04 1213.17 5228.03 1210.01 5225.37 1206.57L5225.34 1206.58ZM5765.43 524.127H5709.08L5252.39 1168.46H5253.14C5263.05 1168.4 5272.78 1171.07 5281.31 1176.19C5286.91 1145.28 5307.37 1127.11 5332.11 1127.11C5334.01 1127.11 5335.9 1127.21 5337.79 1127.41L5765.44 524.127" fill="#E2F3FE"/>
<path d="M5332.02 1127.11C5307.28 1127.11 5286.81 1145.31 5281.21 1176.19C5272.69 1171.07 5262.95 1168.4 5253.05 1168.46H5252.3L5225.29 1206.57C5227.95 1210.02 5230.96 1213.17 5234.26 1215.98H5274.87L5337.68 1127.41C5335.8 1127.21 5333.9 1127.11 5332.01 1127.11" fill="white"/>
<path d="M5146.5 1317.79L4721.87 1916.89C4718.4 1945.78 4716.96 1974.92 4716.27 2004.12L5152.76 1388.37C5152.57 1364.71 5150.48 1341.12 5146.5 1317.81" fill="#CDD794"/>
<path d="M4721.88 1916.89L4699.95 1947.84C4698.49 1976.31 4697.06 2004.76 4695.65 2033.19L4716.29 2004.08C4716.97 1974.89 4718.41 1945.74 4721.9 1916.84" fill="#C5D18C"/>
<path d="M4600.96 2087.46L4510.11 2215.6C4514.22 2218.27 4518.53 2220.59 4523 2222.55C4528.64 2225.16 4534.74 2226.6 4540.94 2226.79C4544.21 2226.82 4547.46 2226.24 4550.52 2225.08C4559.61 2221.54 4565.62 2212.87 4570.51 2204.34C4590.75 2168.84 4601.27 2128.48 4600.96 2087.46" fill="#CDD794"/>
<path d="M4644.48 2026.11L4600.97 2087.44C4601.28 2128.46 4590.78 2168.81 4570.55 2204.33C4565.66 2212.85 4559.65 2221.52 4550.56 2225.06C4547.5 2226.22 4544.25 2226.8 4540.98 2226.77C4534.78 2226.58 4528.68 2225.15 4523.04 2222.53C4518.56 2220.57 4514.25 2218.25 4510.15 2215.58L4490.84 2242.81L4509.57 2259.52L4521.39 2270.07C4522.64 2271.21 4523.98 2272.34 4525.37 2273.48L4637.19 2115.73C4639.59 2085.85 4642.02 2055.98 4644.48 2026.11" fill="#C5D18C"/>
<path d="M4440.91 2313.32L4437.87 2317.61V2396.92L4440.91 2392.63V2313.32Z" fill="#E2F3FE"/>
<path d="M4471.1 2270.71L4440.89 2313.32V2392.66L4500.34 2308.82C4497.79 2305.74 4495.25 2302.64 4492.76 2299.52C4485.29 2290.14 4478.07 2280.55 4471.11 2270.74" fill="#CDD794"/>
<path d="M4483.99 2252.44L4471.06 2270.65C4478 2280.45 4485.22 2290.04 4492.72 2299.43C4495.21 2302.55 4497.74 2305.65 4500.29 2308.73L4515.18 2287.72C4513.37 2285.9 4511.62 2284.08 4510.03 2282.18L4499.33 2269.96L4483.99 2252.4" fill="#C5D18C"/>
<path d="M4699.93 1947.82L4684.55 1969.5C4686.22 1972.25 4687.04 1975.43 4686.93 1978.64C4686.82 1981.86 4685.77 1984.97 4683.92 1987.59C4682.06 1990.2 4679.49 1992.2 4676.52 1993.34C4673.55 1994.47 4670.32 1994.69 4667.23 1993.97L4644.45 2026.11C4641.99 2055.98 4639.56 2085.86 4637.16 2115.72L4695.64 2033.22C4697.05 2004.76 4698.48 1976.31 4699.93 1947.87" fill="#CAA57E"/>
<path d="M4684.65 1969.5L4667.33 1993.97C4670.42 1994.71 4673.66 1994.49 4676.64 1993.36C4679.61 1992.23 4682.19 1990.23 4684.04 1987.61C4685.9 1984.99 4686.95 1981.87 4687.06 1978.65C4687.16 1975.43 4686.33 1972.24 4684.65 1969.5" fill="#CAA57E"/>
<path d="M4490.79 2242.79L4483.96 2252.43L4499.31 2269.99L4510.03 2282.26C4511.61 2284.16 4513.39 2285.98 4515.18 2287.8L4525.27 2273.51C4523.88 2272.37 4522.55 2271.23 4521.29 2270.09L4509.48 2259.5L4490.79 2242.81" fill="#CAA57E"/>
<path d="M5869.85 1215.97H5757.32L5121.71 2112.71C5122.7 2128.83 5122.7 2145 5121.71 2161.12C5133.58 2148.95 5150.87 2142.66 5168 2142.66C5181.24 2142.66 5194.42 2146.41 5205.01 2154.04L5869.85 1215.97Z" fill="#E2F3FE"/>
<path d="M5167.92 2142.64C5150.76 2142.64 5133.5 2148.92 5121.64 2161.1C5118.27 2216.86 5102.68 2271.7 5072.94 2318.53C5042.56 2366.32 4992.43 2410.26 4936 2440.39H5002L5205 2154.02C5194.41 2146.38 5181.23 2142.64 5167.99 2142.64" fill="#DDE397"/>
<path d="M5894.83 1021.9L5757.27 1215.97H5869.8L5894.83 1180.63V1021.9Z" fill="white"/>
<path d="M5121.53 2112.69L4889.24 2440.44H4935.93C4992.36 2410.3 5042.48 2366.4 5072.87 2318.57C5102.61 2271.74 5118.16 2216.93 5121.56 2161.14C5122.55 2145.02 5122.55 2128.85 5121.56 2112.73" fill="#CDD794"/>
<path d="M4402 500V2472.85H5936.45V500H4402ZM5884.27 2428.77H4454.18V544.086H5884.27V2428.77Z" fill="#A06E67"/>
<path d="M4859.07 532.485V2440.36H4904.78V532.485" fill="#A06E67"/>
<path d="M5433.62 532.485V2440.36H5479.34V532.485" fill="#A06E67"/>
<path d="M5903.85 1080.24H4402.01V1126.62H5903.85" fill="#A06E67"/>
<path d="M5903.85 1846.22H4402.01V1892.6H5903.85" fill="#A06E67"/>
<path d="M570.382 1135.81L601.153 1196.9H634.957V1195.44L599.806 1127.94C604.298 1125.92 608.341 1123.53 611.935 1120.76C615.603 1117.99 618.748 1114.73 621.368 1110.99C623.914 1107.32 625.86 1103.16 627.208 1098.52C628.631 1093.8 629.342 1088.53 629.342 1082.69C629.342 1074.6 627.919 1067.49 625.074 1061.35C622.304 1055.21 618.336 1050.08 613.17 1045.96C607.929 1041.84 601.64 1038.74 594.303 1036.64C586.965 1034.47 578.767 1033.38 569.708 1033.38H514.903V1196.9H546.461V1135.81H570.382ZM546.461 1110.2V1058.99H569.708C574.05 1058.99 577.906 1059.51 581.275 1060.56C584.645 1061.61 587.49 1063.11 589.811 1065.05C592.431 1067.23 594.378 1070 595.65 1073.36C596.998 1076.66 597.672 1080.48 597.672 1084.82C597.672 1088.41 597.148 1091.67 596.1 1094.59C595.126 1097.51 593.666 1100.02 591.72 1102.11C589.399 1104.74 586.367 1106.76 582.623 1108.18C578.954 1109.53 574.687 1110.2 569.82 1110.2H546.461ZM713.121 1199.15C724.876 1199.15 735.058 1196.86 743.668 1192.3C752.278 1187.73 758.567 1182.64 762.535 1177.02L746.925 1160.18C743.331 1164.82 738.652 1168.3 732.887 1170.62C727.122 1172.94 721.17 1174.1 715.03 1174.1C710.688 1174.1 706.682 1173.43 703.014 1172.08C699.345 1170.73 696.088 1168.82 693.243 1166.35C690.473 1163.96 688.264 1161.3 686.617 1158.38C684.97 1155.38 683.622 1151.45 682.574 1146.59V1146.25H765.006V1133C765.006 1124.09 763.771 1115.97 761.3 1108.63C758.829 1101.22 755.235 1094.89 750.519 1089.65C745.727 1084.41 739.887 1080.37 732.999 1077.52C726.186 1074.6 718.399 1073.14 709.64 1073.14C701.179 1073.14 693.355 1074.67 686.168 1077.74C678.98 1080.81 672.766 1085.12 667.525 1090.66C662.285 1096.2 658.204 1102.83 655.284 1110.54C652.364 1118.17 650.904 1126.63 650.904 1135.92V1140.41C650.904 1148.57 652.364 1156.25 655.284 1163.43C658.279 1170.55 662.509 1176.72 667.975 1181.96C673.44 1187.28 679.991 1191.47 687.628 1194.54C695.265 1197.61 703.762 1199.15 713.121 1199.15ZM709.415 1098.41C713.383 1098.41 716.865 1099.05 719.859 1100.32C722.929 1101.52 725.512 1103.16 727.608 1105.26C729.705 1107.43 731.352 1109.98 732.55 1112.9C733.748 1115.82 734.347 1118.92 734.347 1122.22V1124.69H683.136C683.884 1120.72 685.007 1117.13 686.505 1113.91C688.002 1110.69 689.874 1107.92 692.12 1105.6C694.291 1103.28 696.837 1101.52 699.757 1100.32C702.677 1099.05 705.896 1098.41 709.415 1098.41ZM870.685 1163.55C870.685 1165.42 870.198 1167.14 869.225 1168.71C868.326 1170.28 866.941 1171.67 865.069 1172.87C863.123 1174.06 860.615 1175.04 857.545 1175.79C854.55 1176.46 851.031 1176.8 846.988 1176.8C843.619 1176.8 840.325 1176.46 837.105 1175.79C833.961 1175.11 831.153 1174.03 828.683 1172.53C826.212 1171.11 824.19 1169.24 822.618 1166.91C821.046 1164.52 820.147 1161.67 819.923 1158.38H790.162C790.162 1163.32 791.36 1168.26 793.756 1173.2C796.227 1178.07 799.82 1182.41 804.537 1186.23C809.254 1190.12 815.094 1193.27 822.057 1195.66C829.094 1198.06 837.18 1199.26 846.314 1199.26C854.625 1199.26 862.149 1198.36 868.888 1196.56C875.626 1194.69 881.391 1192.11 886.183 1188.81C890.899 1185.52 894.531 1181.63 897.076 1177.13C899.697 1172.57 901.007 1167.59 901.007 1162.2C901.007 1156.36 899.697 1151.34 897.076 1147.15C894.531 1142.88 890.974 1139.25 886.407 1136.26C881.84 1133.34 876.412 1130.94 870.123 1129.07C863.834 1127.2 857.021 1125.66 849.684 1124.46C844.592 1123.71 840.4 1122.85 837.105 1121.88C833.811 1120.83 831.228 1119.67 829.356 1118.4C827.41 1117.2 826.062 1115.85 825.313 1114.36C824.565 1112.78 824.19 1111.1 824.19 1109.3C824.19 1107.51 824.602 1105.82 825.426 1104.25C826.324 1102.6 827.597 1101.18 829.244 1099.98C831.041 1098.63 833.362 1097.59 836.207 1096.84C839.052 1096.09 842.384 1095.71 846.202 1095.71C850.694 1095.71 854.513 1096.27 857.657 1097.4C860.877 1098.52 863.422 1100.02 865.294 1101.89C866.642 1103.31 867.652 1104.92 868.326 1106.72C869 1108.44 869.337 1110.31 869.337 1112.33H900.558C900.558 1106.72 899.322 1101.52 896.852 1096.72C894.381 1091.93 890.825 1087.78 886.183 1084.26C881.466 1080.81 875.738 1078.12 869 1076.17C862.262 1074.15 854.662 1073.14 846.202 1073.14C838.116 1073.14 830.854 1074.15 824.415 1076.17C817.976 1078.19 812.511 1080.93 808.019 1084.37C803.526 1087.81 800.082 1091.82 797.687 1096.39C795.291 1100.95 794.093 1105.75 794.093 1110.76C794.093 1115.93 795.253 1120.5 797.574 1124.46C799.97 1128.43 803.264 1131.91 807.457 1134.91C811.65 1137.98 816.666 1140.6 822.506 1142.77C828.421 1144.87 834.934 1146.62 842.047 1148.05C847.662 1149.1 852.304 1150.14 855.973 1151.19C859.641 1152.24 862.599 1153.36 864.845 1154.56C867.016 1155.83 868.513 1157.18 869.337 1158.6C870.235 1160.03 870.685 1161.67 870.685 1163.55ZM989.391 1199.15C1001.15 1199.15 1011.33 1196.86 1019.94 1192.3C1028.55 1187.73 1034.84 1182.64 1038.8 1177.02L1023.19 1160.18C1019.6 1164.82 1014.92 1168.3 1009.16 1170.62C1003.39 1172.94 997.439 1174.1 991.3 1174.1C986.957 1174.1 982.952 1173.43 979.283 1172.08C975.615 1170.73 972.358 1168.82 969.513 1166.35C966.743 1163.96 964.534 1161.3 962.887 1158.38C961.24 1155.38 959.892 1151.45 958.844 1146.59V1146.25H1041.28V1133C1041.28 1124.09 1040.04 1115.97 1037.57 1108.63C1035.1 1101.22 1031.5 1094.89 1026.79 1089.65C1022 1084.41 1016.16 1080.37 1009.27 1077.52C1002.46 1074.6 994.669 1073.14 985.909 1073.14C977.449 1073.14 969.625 1074.67 962.438 1077.74C955.25 1080.81 949.036 1085.12 943.795 1090.66C938.554 1096.2 934.474 1102.83 931.554 1110.54C928.634 1118.17 927.174 1126.63 927.174 1135.92V1140.41C927.174 1148.57 928.634 1156.25 931.554 1163.43C934.549 1170.55 938.779 1176.72 944.244 1181.96C949.71 1187.28 956.261 1191.47 963.897 1194.54C971.534 1197.61 980.032 1199.15 989.391 1199.15ZM985.685 1098.41C989.653 1098.41 993.134 1099.05 996.129 1100.32C999.199 1101.52 1001.78 1103.16 1003.88 1105.26C1005.97 1107.43 1007.62 1109.98 1008.82 1112.9C1010.02 1115.82 1010.62 1118.92 1010.62 1122.22V1124.69H959.405C960.154 1120.72 961.277 1117.13 962.774 1113.91C964.272 1110.69 966.144 1107.92 968.39 1105.6C970.561 1103.28 973.106 1101.52 976.026 1100.32C978.946 1099.05 982.166 1098.41 985.685 1098.41ZM1125.84 1045.63H1094.62V1075.39H1066.88V1098.41H1094.62V1153.66C1094.62 1161.67 1095.67 1168.56 1097.76 1174.33C1099.86 1180.02 1102.86 1184.7 1106.75 1188.36C1110.57 1192.11 1115.17 1194.88 1120.56 1196.68C1126.03 1198.4 1132.09 1199.26 1138.76 1199.26C1142.2 1199.26 1145.68 1199.07 1149.2 1198.7C1152.79 1198.4 1156.24 1197.95 1159.53 1197.35C1162.83 1196.75 1165.93 1196 1168.85 1195.1C1171.77 1194.13 1174.32 1193.01 1176.49 1191.73L1173.46 1170.28C1172.04 1170.66 1170.31 1171.03 1168.29 1171.41C1166.35 1171.78 1164.25 1172.12 1162 1172.42C1159.68 1172.79 1157.25 1173.09 1154.7 1173.32C1152.23 1173.54 1149.8 1173.65 1147.4 1173.65C1144.11 1173.65 1141.11 1173.28 1138.42 1172.53C1135.8 1171.78 1133.55 1170.51 1131.68 1168.71C1129.81 1166.99 1128.35 1164.67 1127.3 1161.75C1126.33 1158.75 1125.84 1155.05 1125.84 1150.63V1098.41H1171.21V1075.39H1125.84V1045.63ZM1343.49 1196.9H1403.12C1412.11 1196.9 1420.19 1195.89 1427.38 1193.87C1434.57 1191.85 1440.67 1188.81 1445.68 1184.77C1450.7 1180.73 1454.56 1175.71 1457.25 1169.72C1459.95 1163.73 1461.29 1156.81 1461.29 1148.95C1461.29 1144.83 1460.73 1140.86 1459.61 1137.04C1458.56 1133.15 1456.92 1129.55 1454.67 1126.26C1452.5 1123.19 1449.8 1120.5 1446.58 1118.17C1443.44 1115.85 1439.17 1113.94 1433.78 1112.45V1112.33C1436.55 1111.29 1439.06 1110.01 1441.3 1108.52C1443.63 1107.02 1445.68 1105.37 1447.48 1103.57C1450.78 1100.28 1453.25 1096.46 1454.89 1092.12C1456.62 1087.7 1457.51 1083.02 1457.59 1078.08C1457.59 1070.44 1456.17 1063.82 1453.32 1058.2C1450.55 1052.59 1446.58 1047.95 1441.42 1044.28C1436.25 1040.61 1430 1037.88 1422.66 1036.08C1415.4 1034.28 1407.31 1033.38 1398.4 1033.38H1343.49V1196.9ZM1375.16 1124.8H1404.58C1409 1124.88 1412.82 1125.47 1416.04 1126.6C1419.26 1127.72 1421.88 1129.33 1423.9 1131.43C1425.92 1133.45 1427.38 1135.92 1428.28 1138.84C1429.25 1141.76 1429.74 1145.05 1429.74 1148.72C1429.74 1152.24 1429.1 1155.42 1427.83 1158.27C1426.63 1161.11 1424.83 1163.55 1422.44 1165.57C1420.27 1167.36 1417.53 1168.79 1414.24 1169.83C1411.02 1170.88 1407.35 1171.41 1403.23 1171.41H1375.16V1124.8ZM1375.16 1102V1059.1H1398.52C1403.61 1059.18 1408.03 1059.74 1411.77 1060.79C1415.59 1061.83 1418.62 1063.52 1420.87 1065.84C1422.59 1067.49 1423.86 1069.55 1424.68 1072.02C1425.58 1074.49 1426.03 1077.37 1426.03 1080.66C1426.03 1083.81 1425.51 1086.62 1424.46 1089.09C1423.49 1091.56 1422.06 1093.65 1420.19 1095.38C1417.95 1097.55 1414.99 1099.19 1411.32 1100.32C1407.65 1101.37 1403.42 1101.93 1398.63 1102H1375.16ZM1562.26 1196.9H1590.56V1075.39H1559.22V1160.63C1558.25 1162.57 1557.09 1164.33 1555.74 1165.9C1554.4 1167.48 1552.86 1168.82 1551.14 1169.95C1549.12 1171.22 1546.76 1172.19 1544.06 1172.87C1541.44 1173.54 1538.49 1173.88 1535.19 1173.88C1531.52 1173.88 1528.42 1173.43 1525.87 1172.53C1523.32 1171.63 1521.27 1170.13 1519.69 1168.04C1518.12 1166.02 1516.96 1163.32 1516.21 1159.95C1515.54 1156.58 1515.2 1152.43 1515.2 1147.49V1075.39H1483.98V1147.26C1483.98 1156.47 1484.99 1164.37 1487.01 1170.96C1489.11 1177.47 1492.03 1182.82 1495.77 1187.02C1499.52 1191.28 1504.01 1194.39 1509.25 1196.34C1514.49 1198.28 1520.25 1199.26 1526.54 1199.26C1533.43 1199.26 1539.76 1197.54 1545.52 1194.09C1551.36 1190.65 1556.34 1185.89 1560.46 1179.83L1562.26 1196.9ZM1678.38 1045.63H1647.16V1075.39H1619.42V1098.41H1647.16V1153.66C1647.16 1161.67 1648.21 1168.56 1650.3 1174.33C1652.4 1180.02 1655.39 1184.7 1659.29 1188.36C1663.11 1192.11 1667.71 1194.88 1673.1 1196.68C1678.57 1198.4 1684.63 1199.26 1691.29 1199.26C1694.74 1199.26 1698.22 1199.07 1701.74 1198.7C1705.33 1198.4 1708.78 1197.95 1712.07 1197.35C1715.37 1196.75 1718.47 1196 1721.39 1195.1C1724.31 1194.13 1726.86 1193.01 1729.03 1191.73L1726 1170.28C1724.57 1170.66 1722.85 1171.03 1720.83 1171.41C1718.88 1171.78 1716.79 1172.12 1714.54 1172.42C1712.22 1172.79 1709.79 1173.09 1707.24 1173.32C1704.77 1173.54 1702.34 1173.65 1699.94 1173.65C1696.65 1173.65 1693.65 1173.28 1690.96 1172.53C1688.34 1171.78 1686.09 1170.51 1684.22 1168.71C1682.35 1166.99 1680.89 1164.67 1679.84 1161.75C1678.87 1158.75 1678.38 1155.05 1678.38 1150.63V1098.41H1723.75V1075.39H1678.38V1045.63ZM1816.51 1045.63H1785.29V1075.39H1757.55V1098.41H1785.29V1153.66C1785.29 1161.67 1786.34 1168.56 1788.44 1174.33C1790.53 1180.02 1793.53 1184.7 1797.42 1188.36C1801.24 1192.11 1805.85 1194.88 1811.24 1196.68C1816.7 1198.4 1822.77 1199.26 1829.43 1199.26C1832.87 1199.26 1836.36 1199.07 1839.87 1198.7C1843.47 1198.4 1846.91 1197.95 1850.21 1197.35C1853.5 1196.75 1856.61 1196 1859.53 1195.1C1862.45 1194.13 1864.99 1193.01 1867.16 1191.73L1864.13 1170.28C1862.71 1170.66 1860.99 1171.03 1858.97 1171.41C1857.02 1171.78 1854.92 1172.12 1852.68 1172.42C1850.36 1172.79 1847.92 1173.09 1845.38 1173.32C1842.91 1173.54 1840.47 1173.65 1838.08 1173.65C1834.78 1173.65 1831.79 1173.28 1829.09 1172.53C1826.47 1171.78 1824.23 1170.51 1822.35 1168.71C1820.48 1166.99 1819.02 1164.67 1817.97 1161.75C1817 1158.75 1816.51 1155.05 1816.51 1150.63V1098.41H1861.89V1075.39H1816.51V1045.63ZM1893.11 1135.02V1137.38C1893.11 1146.29 1894.38 1154.52 1896.92 1162.09C1899.47 1169.57 1903.21 1176.09 1908.16 1181.63C1913.02 1187.17 1919.01 1191.51 1926.12 1194.65C1933.31 1197.72 1941.47 1199.26 1950.61 1199.26C1959.67 1199.26 1967.75 1197.72 1974.86 1194.65C1981.98 1191.51 1987.97 1187.17 1992.83 1181.63C1997.7 1176.09 2001.41 1169.57 2003.95 1162.09C2006.5 1154.52 2007.77 1146.29 2007.77 1137.38V1135.02C2007.77 1126.19 2006.5 1118.02 2003.95 1110.54C2001.41 1102.98 1997.7 1096.42 1992.83 1090.88C1987.89 1085.34 1981.86 1081 1974.75 1077.86C1967.64 1074.71 1959.52 1073.14 1950.38 1073.14C1941.25 1073.14 1933.12 1074.71 1926.01 1077.86C1918.97 1081 1913.02 1085.34 1908.16 1090.88C1903.21 1096.42 1899.47 1102.98 1896.92 1110.54C1894.38 1118.02 1893.11 1126.19 1893.11 1135.02ZM1924.33 1137.38V1135.02C1924.33 1130.08 1924.81 1125.4 1925.79 1120.98C1926.76 1116.56 1928.3 1112.67 1930.39 1109.3C1932.49 1105.93 1935.18 1103.28 1938.48 1101.33C1941.77 1099.38 1945.74 1098.41 1950.38 1098.41C1955.1 1098.41 1959.1 1099.38 1962.4 1101.33C1965.69 1103.28 1968.39 1105.93 1970.48 1109.3C1972.51 1112.67 1974 1116.56 1974.98 1120.98C1975.95 1125.4 1976.44 1130.08 1976.44 1135.02V1137.38C1976.44 1142.47 1975.95 1147.26 1974.98 1151.75C1974 1156.17 1972.51 1160.03 1970.48 1163.32C1968.39 1166.69 1965.69 1169.35 1962.4 1171.29C1959.1 1173.24 1955.17 1174.21 1950.61 1174.21C1945.89 1174.21 1941.85 1173.24 1938.48 1171.29C1935.18 1169.35 1932.49 1166.69 1930.39 1163.32C1928.3 1160.03 1926.76 1156.17 1925.79 1151.75C1924.81 1147.26 1924.33 1142.47 1924.33 1137.38ZM2035.51 1196.9H2066.84V1110.54C2067.89 1108.89 2069.05 1107.39 2070.32 1106.05C2071.6 1104.7 2073.02 1103.54 2074.59 1102.56C2076.54 1101.22 2078.75 1100.21 2081.22 1099.53C2083.76 1098.86 2086.53 1098.52 2089.53 1098.52C2093.12 1098.52 2096.34 1098.9 2099.19 1099.64C2102.03 1100.32 2104.46 1101.55 2106.49 1103.35C2108.51 1105.15 2110.04 1107.62 2111.09 1110.76C2112.21 1113.83 2112.77 1117.76 2112.77 1122.55V1196.9H2144V1122.1C2144 1113.27 2142.95 1105.78 2140.85 1099.64C2138.83 1093.43 2135.98 1088.34 2132.32 1084.37C2128.57 1080.48 2124.15 1077.63 2119.06 1075.84C2113.97 1074.04 2108.36 1073.14 2102.22 1073.14C2097.43 1073.14 2092.9 1073.81 2088.63 1075.16C2084.36 1076.51 2080.43 1078.46 2076.84 1081C2074.74 1082.5 2072.76 1084.18 2070.88 1086.06C2069.01 1087.93 2067.29 1089.99 2065.72 1092.23L2063.81 1075.39H2035.51V1196.9Z" fill="black"/>
<circle cx="1327.83" cy="695.486" r="195.313" fill="#333333"/>
<path d="M1448.34 674.624C1459.72 717.829 1440.76 776.538 1393.23 806.163C1347.4 834.732 1287.49 831.22 1246.41 797.085C1204.07 761.91 1189.75 705.266 1209.91 654.553C1227.32 610.759 1276.49 568.633 1346.88 577.992C1349.3 569.686 1351.74 561.298 1354.48 551.937L1407 610.506L1331.41 633.257C1333.84 624.501 1335.97 616.815 1338.49 607.735C1331.15 607.735 1324.21 607 1317.48 607.856C1277.98 612.873 1249.71 633.463 1237.14 671.128C1215.75 735.279 1263.86 793.833 1324.44 794.521C1373.31 795.076 1413.71 760.36 1419.76 712.099C1420.88 703.14 1419.43 693.831 1418.81 684.708C1418.63 682.117 1418.44 680.327 1421.5 679.753C1430.35 678.087 1439.19 676.378 1448.34 674.624Z" fill="white"/>
<path d="M4089.39 3280.91L4089.28 3216.45H4030.76V3240.03H4057.83L4057.72 3269.68C4056.89 3270.65 4055.66 3271.59 4054.01 3272.49C4052.44 3273.31 4050.61 3274.06 4048.51 3274.73C4046.41 3275.41 4044.17 3275.93 4041.77 3276.3C4039.37 3276.68 4036.94 3276.87 4034.47 3276.87C4030.43 3276.79 4026.8 3276.15 4023.58 3274.96C4020.43 3273.68 4017.66 3271.85 4015.27 3269.45C4013.84 3268.03 4012.53 3266.42 4011.34 3264.62C4010.21 3262.75 4009.2 3260.73 4008.3 3258.56C4006.88 3254.82 4005.76 3250.51 4004.93 3245.64C4004.19 3240.78 4003.81 3235.39 4003.81 3229.47V3207.01C4003.81 3202.29 4004.07 3197.92 4004.6 3193.87C4005.2 3189.83 4006.02 3186.16 4007.07 3182.87C4008.42 3178.6 4010.1 3174.89 4012.12 3171.75C4014.22 3168.6 4016.54 3166.06 4019.08 3164.11C4021.03 3162.69 4023.13 3161.6 4025.37 3160.85C4027.62 3160.11 4029.94 3159.73 4032.34 3159.73C4036.75 3159.73 4040.54 3160.33 4043.68 3161.53C4046.9 3162.65 4049.56 3164.37 4051.65 3166.69C4053.53 3168.79 4054.99 3171.37 4056.03 3174.44C4057.16 3177.51 4057.98 3181.03 4058.5 3185H4089.28C4088.45 3177.14 4086.69 3170.06 4084 3163.77C4081.38 3157.49 4077.71 3152.13 4072.99 3147.71C4068.27 3143.37 4062.47 3140.04 4055.58 3137.72C4048.77 3135.4 4040.76 3134.24 4031.55 3134.24C4025.56 3134.24 4019.87 3135.06 4014.48 3136.71C4009.09 3138.36 4004.11 3140.79 3999.54 3144.01C3995.65 3146.85 3992.06 3150.22 3988.76 3154.12C3985.54 3158.01 3982.7 3162.39 3980.23 3167.26C3977.61 3172.72 3975.59 3178.82 3974.16 3185.56C3972.74 3192.22 3972.03 3199.45 3972.03 3207.24V3229.47C3972.03 3237.63 3972.74 3245.2 3974.16 3252.16C3975.66 3259.12 3977.83 3265.37 3980.68 3270.91C3983.15 3275.93 3986.14 3280.38 3989.66 3284.28C3993.25 3288.17 3997.22 3291.46 4001.57 3294.16C4005.98 3296.78 4010.81 3298.76 4016.05 3300.11C4021.37 3301.53 4027.02 3302.25 4033.01 3302.25C4039.9 3302.25 4046.34 3301.61 4052.33 3300.34C4058.32 3299.06 4063.74 3297.38 4068.61 3295.28C4073.4 3293.26 4077.56 3290.98 4081.08 3288.43C4084.6 3285.89 4087.37 3283.38 4089.39 3280.91ZM4148.68 3240.03H4173.05C4181.96 3240.03 4190.01 3238.76 4197.2 3236.21C4204.39 3233.67 4210.53 3230.11 4215.62 3225.54C4220.63 3221.05 4224.49 3215.7 4227.19 3209.48C4229.96 3203.27 4231.34 3196.49 4231.34 3189.16C4231.34 3181.29 4229.96 3174.14 4227.19 3167.71C4224.49 3161.27 4220.63 3155.73 4215.62 3151.08C4210.53 3146.52 4204.39 3142.96 4197.2 3140.42C4190.01 3137.79 4181.96 3136.48 4173.05 3136.48H4117.13V3300H4148.68V3240.03ZM4148.68 3214.42V3162.09H4173.05C4177.55 3162.09 4181.44 3162.8 4184.73 3164.22C4188.03 3165.65 4190.8 3167.59 4193.04 3170.06C4195.22 3172.53 4196.83 3175.42 4197.87 3178.71C4199 3182.01 4199.56 3185.56 4199.56 3189.38C4199.56 3192.67 4199 3195.86 4197.87 3198.93C4196.83 3201.92 4195.22 3204.58 4193.04 3206.9C4190.8 3209.22 4188.03 3211.05 4184.73 3212.4C4181.44 3213.75 4177.55 3214.42 4173.05 3214.42H4148.68ZM4338.14 3257.32C4338.14 3260.24 4337.54 3262.94 4336.35 3265.41C4335.15 3267.81 4333.43 3269.86 4331.18 3271.59C4328.93 3273.31 4326.16 3274.66 4322.87 3275.63C4319.65 3276.6 4315.94 3277.09 4311.75 3277.09C4307.03 3277.09 4302.69 3276.57 4298.72 3275.52C4294.83 3274.47 4291.5 3272.82 4288.73 3270.58C4285.88 3268.33 4283.67 3265.45 4282.1 3261.93C4280.53 3258.41 4279.67 3254.18 4279.52 3249.24H4248.52C4248.52 3257.7 4250.13 3265.07 4253.35 3271.36C4256.65 3277.65 4261.1 3283.12 4266.72 3287.76C4272.63 3292.48 4279.56 3296.07 4287.49 3298.54C4295.5 3300.94 4303.59 3302.13 4311.75 3302.13C4320.06 3302.13 4327.74 3301.16 4334.77 3299.21C4341.81 3297.19 4347.88 3294.24 4352.97 3290.34C4358.06 3286.52 4362.03 3281.84 4364.87 3276.3C4367.79 3270.69 4369.25 3264.29 4369.25 3257.1C4369.25 3248.79 4367.34 3241.45 4363.52 3235.09C4359.71 3228.72 4354.58 3223.15 4348.14 3218.35C4343.87 3215.43 4339.19 3212.85 4334.1 3210.61C4329.01 3208.36 4323.66 3206.45 4318.04 3204.88C4312.8 3203.46 4308.08 3201.92 4303.89 3200.27C4299.77 3198.63 4296.25 3196.79 4293.33 3194.77C4290.41 3192.82 4288.17 3190.62 4286.59 3188.14C4285.1 3185.67 4284.35 3182.9 4284.35 3179.83C4284.35 3176.91 4284.91 3174.22 4286.03 3171.75C4287.23 3169.2 4288.95 3166.99 4291.2 3165.12C4293.45 3163.33 4296.18 3161.94 4299.4 3160.97C4302.69 3159.92 4306.44 3159.39 4310.63 3159.39C4315.19 3159.39 4319.16 3160.03 4322.53 3161.3C4325.98 3162.5 4328.86 3164.19 4331.18 3166.36C4333.43 3168.6 4335.11 3171.26 4336.23 3174.33C4337.43 3177.4 4338.11 3180.77 4338.25 3184.44H4369.03C4369.03 3177.1 4367.6 3170.36 4364.76 3164.22C4361.91 3158.08 4357.95 3152.77 4352.85 3148.28C4347.76 3143.86 4341.66 3140.42 4334.55 3137.94C4327.51 3135.47 4319.72 3134.24 4311.19 3134.24C4302.95 3134.24 4295.32 3135.32 4288.28 3137.5C4281.24 3139.59 4275.14 3142.62 4269.97 3146.59C4264.81 3150.56 4260.76 3155.35 4257.84 3160.97C4254.92 3166.58 4253.46 3172.83 4253.46 3179.72C4253.46 3185.71 4254.55 3191.25 4256.72 3196.34C4258.97 3201.43 4262.26 3206.08 4266.6 3210.27C4270.95 3214.46 4276.52 3218.32 4283.34 3221.84C4290.23 3225.35 4298.2 3228.35 4307.26 3230.82C4313.1 3232.39 4317.97 3234.11 4321.86 3235.99C4325.83 3237.78 4329.05 3239.77 4331.52 3241.94C4333.91 3244.18 4335.6 3246.58 4336.57 3249.13C4337.62 3251.67 4338.14 3254.4 4338.14 3257.32ZM4609.92 3265.86L4619.47 3300H4652.71L4600.15 3136.48H4571.51L4517.94 3300H4551.18L4560.84 3265.86H4609.92ZM4568.59 3239.02L4585.77 3178.82L4602.51 3239.02H4568.59ZM4668.77 3300H4700.1V3213.64C4701.15 3211.99 4702.31 3210.49 4703.58 3209.15C4704.85 3207.8 4706.28 3206.64 4707.85 3205.66C4709.8 3204.32 4712 3203.31 4714.48 3202.63C4717.02 3201.96 4719.79 3201.62 4722.79 3201.62C4726.38 3201.62 4729.6 3202 4732.44 3202.74C4735.29 3203.42 4737.72 3204.65 4739.74 3206.45C4741.77 3208.25 4743.3 3210.72 4744.35 3213.86C4745.47 3216.93 4746.03 3220.86 4746.03 3225.65V3300H4777.25V3225.21C4777.25 3216.37 4776.21 3208.88 4774.11 3202.74C4772.09 3196.53 4769.24 3191.44 4765.57 3187.47C4761.83 3183.58 4757.41 3180.73 4752.32 3178.94C4747.23 3177.14 4741.62 3176.24 4735.48 3176.24C4730.68 3176.24 4726.16 3176.91 4721.89 3178.26C4717.62 3179.61 4713.69 3181.56 4710.1 3184.1C4708 3185.6 4706.02 3187.28 4704.14 3189.16C4702.27 3191.03 4700.55 3193.09 4698.98 3195.33L4697.07 3178.49H4668.77V3300ZM4864.18 3148.73H4832.96V3178.49H4805.22V3201.51H4832.96V3256.76C4832.96 3264.77 4834.01 3271.66 4836.1 3277.43C4838.2 3283.12 4841.19 3287.8 4845.09 3291.46C4848.9 3295.21 4853.51 3297.98 4858.9 3299.78C4864.36 3301.5 4870.43 3302.36 4877.09 3302.36C4880.54 3302.36 4884.02 3302.17 4887.54 3301.8C4891.13 3301.5 4894.57 3301.05 4897.87 3300.45C4901.16 3299.85 4904.27 3299.1 4907.19 3298.2C4910.11 3297.23 4912.66 3296.11 4914.83 3294.83L4911.79 3273.38C4910.37 3273.76 4908.65 3274.13 4906.63 3274.51C4904.68 3274.88 4902.59 3275.22 4900.34 3275.52C4898.02 3275.89 4895.59 3276.19 4893.04 3276.42C4890.57 3276.64 4888.14 3276.75 4885.74 3276.75C4882.45 3276.75 4879.45 3276.38 4876.76 3275.63C4874.14 3274.88 4871.89 3273.61 4870.02 3271.81C4868.15 3270.09 4866.69 3267.77 4865.64 3264.85C4864.66 3261.85 4864.18 3258.15 4864.18 3253.73V3201.51H4909.55V3178.49H4864.18V3148.73ZM5004 3302.25C5015.75 3302.25 5025.93 3299.96 5034.54 3295.4C5043.15 3290.83 5049.44 3285.74 5053.41 3280.12L5037.8 3263.28C5034.21 3267.92 5029.53 3271.4 5023.76 3273.72C5018 3276.04 5012.05 3277.2 5005.91 3277.2C5001.56 3277.2 4997.56 3276.53 4993.89 3275.18C4990.22 3273.83 4986.96 3271.92 4984.12 3269.45C4981.35 3267.06 4979.14 3264.4 4977.49 3261.48C4975.85 3258.48 4974.5 3254.55 4973.45 3249.69V3249.35H5055.88V3236.1C5055.88 3227.19 5054.65 3219.07 5052.18 3211.73C5049.71 3204.32 5046.11 3197.99 5041.39 3192.75C5036.6 3187.51 5030.76 3183.47 5023.88 3180.62C5017.06 3177.7 5009.28 3176.24 5000.52 3176.24C4992.06 3176.24 4984.23 3177.78 4977.04 3180.84C4969.86 3183.91 4963.64 3188.22 4958.4 3193.76C4953.16 3199.3 4949.08 3205.93 4946.16 3213.64C4943.24 3221.27 4941.78 3229.73 4941.78 3239.02V3243.51C4941.78 3251.67 4943.24 3259.35 4946.16 3266.53C4949.15 3273.65 4953.39 3279.82 4958.85 3285.06C4964.32 3290.38 4970.87 3294.57 4978.5 3297.64C4986.14 3300.71 4994.64 3302.25 5004 3302.25ZM5000.29 3201.51C5004.26 3201.51 5007.74 3202.15 5010.74 3203.42C5013.81 3204.62 5016.39 3206.26 5018.48 3208.36C5020.58 3210.53 5022.23 3213.08 5023.43 3216C5024.62 3218.92 5025.22 3222.02 5025.22 3225.32V3227.79H4974.01C4974.76 3223.82 4975.88 3220.23 4977.38 3217.01C4978.88 3213.79 4980.75 3211.02 4983 3208.7C4985.17 3206.38 4987.71 3204.62 4990.63 3203.42C4993.55 3202.15 4996.77 3201.51 5000.29 3201.51ZM5083.17 3300H5114.5V3213.64C5115.55 3211.99 5116.71 3210.49 5117.99 3209.15C5119.26 3207.8 5120.68 3206.64 5122.25 3205.66C5124.2 3204.32 5126.41 3203.31 5128.88 3202.63C5131.43 3201.96 5134.2 3201.62 5137.19 3201.62C5140.78 3201.62 5144 3202 5146.85 3202.74C5149.69 3203.42 5152.13 3204.65 5154.15 3206.45C5156.17 3208.25 5157.7 3210.72 5158.75 3213.86C5159.88 3216.93 5160.44 3220.86 5160.44 3225.65V3300H5191.66V3225.21C5191.66 3216.37 5190.61 3208.88 5188.51 3202.74C5186.49 3196.53 5183.65 3191.44 5179.98 3187.47C5176.24 3183.58 5171.82 3180.73 5166.73 3178.94C5161.64 3177.14 5156.02 3176.24 5149.88 3176.24C5145.09 3176.24 5140.56 3176.91 5136.29 3178.26C5132.02 3179.61 5128.09 3181.56 5124.5 3184.1C5122.4 3185.6 5120.42 3187.28 5118.55 3189.16C5116.68 3191.03 5114.95 3193.09 5113.38 3195.33L5111.47 3178.49H5083.17V3300ZM5221.31 3300H5252.64V3213.64C5253.69 3211.99 5254.85 3210.49 5256.12 3209.15C5257.39 3207.8 5258.82 3206.64 5260.39 3205.66C5262.34 3204.32 5264.54 3203.31 5267.01 3202.63C5269.56 3201.96 5272.33 3201.62 5275.33 3201.62C5278.92 3201.62 5282.14 3202 5284.98 3202.74C5287.83 3203.42 5290.26 3204.65 5292.28 3206.45C5294.3 3208.25 5295.84 3210.72 5296.89 3213.86C5298.01 3216.93 5298.57 3220.86 5298.57 3225.65V3300H5329.79V3225.21C5329.79 3216.37 5328.74 3208.88 5326.65 3202.74C5324.63 3196.53 5321.78 3191.44 5318.11 3187.47C5314.37 3183.58 5309.95 3180.73 5304.86 3178.94C5299.77 3177.14 5294.15 3176.24 5288.02 3176.24C5283.22 3176.24 5278.69 3176.91 5274.43 3178.26C5270.16 3179.61 5266.23 3181.56 5262.63 3184.1C5260.54 3185.6 5258.55 3187.28 5256.68 3189.16C5254.81 3191.03 5253.09 3193.09 5251.52 3195.33L5249.61 3178.49H5221.31V3300ZM5435.36 3300H5467.03V3298.09C5465.46 3295.02 5464.26 3291.35 5463.44 3287.08C5462.61 3282.82 5462.2 3277.43 5462.2 3270.91V3218.8C5462.2 3211.77 5460.89 3205.59 5458.27 3200.27C5455.65 3194.88 5452.02 3190.43 5447.38 3186.91C5442.73 3183.39 5437.23 3180.73 5430.87 3178.94C5424.58 3177.14 5417.76 3176.24 5410.43 3176.24C5402.27 3176.24 5395 3177.29 5388.64 3179.38C5382.35 3181.41 5377.04 3184.18 5372.69 3187.7C5368.28 3191.21 5364.91 3195.29 5362.59 3199.94C5360.34 3204.58 5359.22 3209.48 5359.22 3214.65H5390.44C5390.44 3212.48 5390.74 3210.49 5391.34 3208.7C5392.01 3206.9 5393.02 3205.36 5394.37 3204.09C5395.87 3202.67 5397.81 3201.58 5400.21 3200.83C5402.6 3200.01 5405.45 3199.6 5408.74 3199.6C5412.49 3199.6 5415.74 3200.09 5418.51 3201.06C5421.36 3201.96 5423.72 3203.27 5425.59 3204.99C5427.39 3206.64 5428.73 3208.62 5429.63 3210.94C5430.53 3213.19 5430.98 3215.73 5430.98 3218.58V3225.77H5413.57C5404.59 3225.77 5396.61 3226.59 5389.65 3228.24C5382.76 3229.81 5376.96 3232.13 5372.24 3235.2C5367 3238.57 5363.07 3242.87 5360.45 3248.12C5357.83 3253.28 5356.52 3259.23 5356.52 3265.97C5356.52 3271.21 5357.57 3276.08 5359.67 3280.57C5361.76 3284.99 5364.68 3288.81 5368.43 3292.03C5372.17 3295.25 5376.62 3297.75 5381.79 3299.55C5387.03 3301.35 5392.76 3302.25 5398.97 3302.25C5402.79 3302.25 5406.35 3301.87 5409.64 3301.12C5412.94 3300.45 5415.97 3299.48 5418.74 3298.2C5421.43 3297.01 5423.9 3295.58 5426.15 3293.94C5428.4 3292.29 5430.38 3290.53 5432.1 3288.66C5432.48 3290.83 5432.93 3292.89 5433.45 3294.83C5433.97 3296.78 5434.61 3298.5 5435.36 3300ZM5405.6 3278.1C5402.68 3278.1 5400.1 3277.76 5397.85 3277.09C5395.68 3276.34 5393.84 3275.37 5392.35 3274.17C5390.85 3272.9 5389.69 3271.36 5388.87 3269.57C5388.12 3267.69 5387.74 3265.67 5387.74 3263.5C5387.74 3260.73 5388.27 3258.19 5389.31 3255.86C5390.36 3253.47 5391.97 3251.41 5394.14 3249.69C5396.31 3248.04 5399.12 3246.77 5402.57 3245.87C5406.01 3244.9 5410.17 3244.41 5415.03 3244.41H5430.98V3265.3C5430.08 3266.87 5428.85 3268.44 5427.27 3270.01C5425.7 3271.51 5423.83 3272.86 5421.66 3274.06C5419.49 3275.26 5417.05 3276.23 5414.36 3276.98C5411.66 3277.73 5408.74 3278.1 5405.6 3278.1Z" fill="black"/>
<path d="M1332 2109.67L1332 1855.78L2268.73 1855.78" stroke="black" stroke-width="8" stroke-linecap="round" stroke-linejoin="round"/>
<path d="M549.483 2826.67H573.853C582.762 2826.67 590.811 2825.4 597.998 2822.85C605.186 2820.31 611.325 2816.75 616.416 2812.19C621.433 2807.69 625.288 2802.34 627.984 2796.13C630.754 2789.91 632.139 2783.14 632.139 2775.8C632.139 2767.94 630.754 2760.79 627.984 2754.35C625.288 2747.91 621.433 2742.37 616.416 2737.73C611.325 2733.16 605.186 2729.6 597.998 2727.06C590.811 2724.44 582.762 2723.13 573.853 2723.13H517.925V2886.64H549.483V2826.67ZM549.483 2801.07V2748.73H573.853C578.345 2748.73 582.238 2749.44 585.532 2750.87C588.827 2752.29 591.597 2754.24 593.843 2756.71C596.014 2759.18 597.624 2762.06 598.672 2765.35C599.795 2768.65 600.357 2772.21 600.357 2776.02C600.357 2779.32 599.795 2782.5 598.672 2785.57C597.624 2788.56 596.014 2791.22 593.843 2793.54C591.597 2795.86 588.827 2797.7 585.532 2799.05C582.238 2800.39 578.345 2801.07 573.853 2801.07H549.483ZM650.894 2824.76V2827.12C650.894 2836.03 652.167 2844.27 654.712 2851.83C657.258 2859.32 661.001 2865.83 665.943 2871.37C670.809 2876.91 676.799 2881.25 683.911 2884.4C691.099 2887.47 699.26 2889 708.394 2889C717.453 2889 725.539 2887.47 732.652 2884.4C739.764 2881.25 745.754 2876.91 750.62 2871.37C755.487 2865.83 759.193 2859.32 761.739 2851.83C764.284 2844.27 765.557 2836.03 765.557 2827.12V2824.76C765.557 2815.93 764.284 2807.77 761.739 2800.28C759.193 2792.72 755.487 2786.17 750.62 2780.63C745.679 2775.09 739.652 2770.75 732.539 2767.6C725.427 2764.46 717.303 2762.88 708.169 2762.88C699.035 2762.88 690.912 2764.46 683.799 2767.6C676.761 2770.75 670.809 2775.09 665.943 2780.63C661.001 2786.17 657.258 2792.72 654.712 2800.28C652.167 2807.77 650.894 2815.93 650.894 2824.76ZM682.115 2827.12V2824.76C682.115 2819.82 682.601 2815.14 683.574 2810.73C684.548 2806.31 686.083 2802.42 688.179 2799.05C690.275 2795.68 692.971 2793.02 696.265 2791.07C699.559 2789.13 703.527 2788.15 708.169 2788.15C712.886 2788.15 716.892 2789.13 720.186 2791.07C723.48 2793.02 726.175 2795.68 728.272 2799.05C730.293 2802.42 731.791 2806.31 732.764 2810.73C733.737 2815.14 734.224 2819.82 734.224 2824.76V2827.12C734.224 2832.21 733.737 2837 732.764 2841.5C731.791 2845.91 730.293 2849.77 728.272 2853.06C726.175 2856.43 723.48 2859.09 720.186 2861.04C716.892 2862.98 712.961 2863.96 708.394 2863.96C703.677 2863.96 699.634 2862.98 696.265 2861.04C692.971 2859.09 690.275 2856.43 688.179 2853.06C686.083 2849.77 684.548 2845.91 683.574 2841.5C682.601 2837 682.115 2832.21 682.115 2827.12ZM802.281 2886.64H829.683L842.598 2821.73L845.069 2809.38L847.652 2821.73L861.016 2886.64H888.418L910.205 2765.13H881.568L872.583 2836.78L871.011 2848.57L868.877 2837L855.738 2765.13H834.849L821.709 2837.34L819.575 2848.91L818.115 2837.34L809.019 2765.13H780.493L802.281 2886.64ZM990.391 2888.89C1002.15 2888.89 1012.33 2886.61 1020.94 2882.04C1029.55 2877.47 1035.84 2872.38 1039.8 2866.77L1024.19 2849.92C1020.6 2854.56 1015.92 2858.04 1010.16 2860.36C1004.39 2862.69 998.439 2863.85 992.3 2863.85C987.958 2863.85 983.952 2863.17 980.283 2861.82C976.615 2860.48 973.358 2858.57 970.513 2856.1C967.743 2853.7 965.534 2851.04 963.887 2848.12C962.24 2845.13 960.892 2841.2 959.844 2836.33V2835.99H1042.28V2822.74C1042.28 2813.83 1041.04 2805.71 1038.57 2798.37C1036.1 2790.96 1032.51 2784.63 1027.79 2779.39C1023 2774.15 1017.16 2770.11 1010.27 2767.26C1003.46 2764.34 995.669 2762.88 986.909 2762.88C978.449 2762.88 970.625 2764.42 963.438 2767.49C956.25 2770.56 950.036 2774.86 944.795 2780.4C939.554 2785.94 935.474 2792.57 932.554 2800.28C929.634 2807.92 928.174 2816.38 928.174 2825.66V2830.15C928.174 2838.32 929.634 2845.99 932.554 2853.18C935.549 2860.29 939.779 2866.47 945.244 2871.71C950.71 2877.02 957.261 2881.22 964.898 2884.29C972.534 2887.35 981.032 2888.89 990.391 2888.89ZM986.685 2788.15C990.653 2788.15 994.134 2788.79 997.129 2790.06C1000.2 2791.26 1002.78 2792.91 1004.88 2795C1006.97 2797.17 1008.62 2799.72 1009.82 2802.64C1011.02 2805.56 1011.62 2808.67 1011.62 2811.96V2814.43H960.406C961.154 2810.46 962.277 2806.87 963.775 2803.65C965.272 2800.43 967.144 2797.66 969.39 2795.34C971.561 2793.02 974.107 2791.26 977.027 2790.06C979.947 2788.79 983.166 2788.15 986.685 2788.15ZM1156.83 2762.88C1148.67 2762.88 1141.14 2764.87 1134.25 2768.84C1127.37 2772.73 1121.45 2778.12 1116.51 2785.01L1116.28 2782.31L1115.05 2765.13H1085.96V2886.64H1117.18V2813.65C1118.61 2810.2 1120.4 2807.21 1122.57 2804.66C1124.74 2802.12 1127.37 2800.02 1130.43 2798.37C1132.98 2796.95 1135.86 2795.9 1139.08 2795.23C1142.38 2794.48 1146.05 2794.1 1150.09 2794.1C1153.98 2794.1 1158.06 2794.37 1162.33 2794.89C1166.67 2795.34 1170.9 2796.05 1175.02 2797.02L1179.62 2765.92C1177.15 2765.17 1173.9 2764.49 1169.85 2763.89C1165.89 2763.22 1161.54 2762.88 1156.83 2762.88ZM1344.49 2886.64H1404.12C1413.11 2886.64 1421.19 2885.63 1428.38 2883.61C1435.57 2881.59 1441.67 2878.56 1446.68 2874.51C1451.7 2870.47 1455.56 2865.46 1458.25 2859.47C1460.95 2853.48 1462.3 2846.55 1462.3 2838.69C1462.3 2834.57 1461.73 2830.6 1460.61 2826.79C1459.56 2822.89 1457.92 2819.3 1455.67 2816C1453.5 2812.93 1450.8 2810.24 1447.58 2807.92C1444.44 2805.6 1440.17 2803.69 1434.78 2802.19V2802.08C1437.55 2801.03 1440.06 2799.76 1442.3 2798.26C1444.63 2796.76 1446.68 2795.12 1448.48 2793.32C1451.78 2790.02 1454.25 2786.21 1455.89 2781.86C1457.62 2777.45 1458.51 2772.77 1458.59 2767.83C1458.59 2760.19 1457.17 2753.56 1454.32 2747.95C1451.55 2742.33 1447.58 2737.69 1442.42 2734.02C1437.25 2730.35 1431 2727.62 1423.66 2725.82C1416.4 2724.03 1408.31 2723.13 1399.4 2723.13H1344.49V2886.64ZM1376.16 2814.54H1405.58C1410 2814.62 1413.82 2815.22 1417.04 2816.34C1420.26 2817.46 1422.88 2819.07 1424.9 2821.17C1426.92 2823.19 1428.38 2825.66 1429.28 2828.58C1430.25 2831.5 1430.74 2834.8 1430.74 2838.46C1430.74 2841.98 1430.1 2845.17 1428.83 2848.01C1427.63 2850.86 1425.83 2853.29 1423.44 2855.31C1421.27 2857.11 1418.53 2858.53 1415.24 2859.58C1412.02 2860.63 1408.35 2861.15 1404.23 2861.15H1376.16V2814.54ZM1376.16 2791.75V2748.85H1399.52C1404.61 2748.92 1409.03 2749.48 1412.77 2750.53C1416.59 2751.58 1419.62 2753.26 1421.87 2755.58C1423.59 2757.23 1424.86 2759.29 1425.68 2761.76C1426.58 2764.23 1427.03 2767.11 1427.03 2770.41C1427.03 2773.55 1426.51 2776.36 1425.46 2778.83C1424.49 2781.3 1423.06 2783.4 1421.19 2785.12C1418.95 2787.29 1415.99 2788.94 1412.32 2790.06C1408.65 2791.11 1404.42 2791.67 1399.63 2791.75H1376.16ZM1563.26 2886.64H1591.56V2765.13H1560.22V2850.37C1559.25 2852.32 1558.09 2854.08 1556.74 2855.65C1555.4 2857.22 1553.86 2858.57 1552.14 2859.69C1550.12 2860.96 1547.76 2861.94 1545.06 2862.61C1542.44 2863.28 1539.49 2863.62 1536.19 2863.62C1532.52 2863.62 1529.42 2863.17 1526.87 2862.27C1524.32 2861.38 1522.27 2859.88 1520.69 2857.78C1519.12 2855.76 1517.96 2853.06 1517.21 2849.7C1516.54 2846.33 1516.2 2842.17 1516.2 2837.23V2765.13H1484.98V2837C1484.98 2846.21 1485.99 2854.11 1488.01 2860.7C1490.11 2867.21 1493.03 2872.57 1496.77 2876.76C1500.52 2881.03 1505.01 2884.14 1510.25 2886.08C1515.49 2888.03 1521.26 2889 1527.54 2889C1534.43 2889 1540.76 2887.28 1546.52 2883.84C1552.36 2880.39 1557.34 2875.64 1561.46 2869.57L1563.26 2886.64ZM1679.38 2735.37H1648.16V2765.13H1620.42V2788.15H1648.16V2843.41C1648.16 2851.42 1649.21 2858.31 1651.3 2864.07C1653.4 2869.76 1656.4 2874.44 1660.29 2878.11C1664.11 2881.85 1668.71 2884.62 1674.1 2886.42C1679.57 2888.14 1685.63 2889 1692.3 2889C1695.74 2889 1699.22 2888.81 1702.74 2888.44C1706.33 2888.14 1709.78 2887.69 1713.07 2887.09C1716.37 2886.49 1719.47 2885.75 1722.39 2884.85C1725.31 2883.87 1727.86 2882.75 1730.03 2881.48L1727 2860.03C1725.57 2860.4 1723.85 2860.78 1721.83 2861.15C1719.88 2861.52 1717.79 2861.86 1715.54 2862.16C1713.22 2862.54 1710.79 2862.83 1708.24 2863.06C1705.77 2863.28 1703.34 2863.4 1700.94 2863.4C1697.65 2863.4 1694.65 2863.02 1691.96 2862.27C1689.34 2861.52 1687.09 2860.25 1685.22 2858.46C1683.35 2856.73 1681.89 2854.41 1680.84 2851.49C1679.87 2848.5 1679.38 2844.79 1679.38 2840.37V2788.15H1724.75V2765.13H1679.38V2735.37ZM1817.51 2735.37H1786.29V2765.13H1758.55V2788.15H1786.29V2843.41C1786.29 2851.42 1787.34 2858.31 1789.44 2864.07C1791.54 2869.76 1794.53 2874.44 1798.42 2878.11C1802.24 2881.85 1806.85 2884.62 1812.24 2886.42C1817.7 2888.14 1823.77 2889 1830.43 2889C1833.87 2889 1837.36 2888.81 1840.87 2888.44C1844.47 2888.14 1847.91 2887.69 1851.21 2887.09C1854.5 2886.49 1857.61 2885.75 1860.53 2884.85C1863.45 2883.87 1865.99 2882.75 1868.16 2881.48L1865.13 2860.03C1863.71 2860.4 1861.99 2860.78 1859.97 2861.15C1858.02 2861.52 1855.92 2861.86 1853.68 2862.16C1851.36 2862.54 1848.92 2862.83 1846.38 2863.06C1843.91 2863.28 1841.47 2863.4 1839.08 2863.4C1835.78 2863.4 1832.79 2863.02 1830.09 2862.27C1827.47 2861.52 1825.23 2860.25 1823.35 2858.46C1821.48 2856.73 1820.02 2854.41 1818.97 2851.49C1818 2848.5 1817.51 2844.79 1817.51 2840.37V2788.15H1862.89V2765.13H1817.51V2735.37ZM1894.11 2824.76V2827.12C1894.11 2836.03 1895.38 2844.27 1897.93 2851.83C1900.47 2859.32 1904.21 2865.83 1909.16 2871.37C1914.02 2876.91 1920.01 2881.25 1927.12 2884.4C1934.31 2887.47 1942.47 2889 1951.61 2889C1960.67 2889 1968.75 2887.47 1975.86 2884.4C1982.98 2881.25 1988.97 2876.91 1993.83 2871.37C1998.7 2865.83 2002.41 2859.32 2004.95 2851.83C2007.5 2844.27 2008.77 2836.03 2008.77 2827.12V2824.76C2008.77 2815.93 2007.5 2807.77 2004.95 2800.28C2002.41 2792.72 1998.7 2786.17 1993.83 2780.63C1988.89 2775.09 1982.86 2770.75 1975.75 2767.6C1968.64 2764.46 1960.52 2762.88 1951.38 2762.88C1942.25 2762.88 1934.12 2764.46 1927.01 2767.6C1919.97 2770.75 1914.02 2775.09 1909.16 2780.63C1904.21 2786.17 1900.47 2792.72 1897.93 2800.28C1895.38 2807.77 1894.11 2815.93 1894.11 2824.76ZM1925.33 2827.12V2824.76C1925.33 2819.82 1925.81 2815.14 1926.79 2810.73C1927.76 2806.31 1929.3 2802.42 1931.39 2799.05C1933.49 2795.68 1936.18 2793.02 1939.48 2791.07C1942.77 2789.13 1946.74 2788.15 1951.38 2788.15C1956.1 2788.15 1960.1 2789.13 1963.4 2791.07C1966.69 2793.02 1969.39 2795.68 1971.48 2799.05C1973.51 2802.42 1975 2806.31 1975.98 2810.73C1976.95 2815.14 1977.44 2819.82 1977.44 2824.76V2827.12C1977.44 2832.21 1976.95 2837 1975.98 2841.5C1975 2845.91 1973.51 2849.77 1971.48 2853.06C1969.39 2856.43 1966.69 2859.09 1963.4 2861.04C1960.1 2862.98 1956.17 2863.96 1951.61 2863.96C1946.89 2863.96 1942.85 2862.98 1939.48 2861.04C1936.18 2859.09 1933.49 2856.43 1931.39 2853.06C1929.3 2849.77 1927.76 2845.91 1926.79 2841.5C1925.81 2837 1925.33 2832.21 1925.33 2827.12ZM2036.51 2886.64H2067.84V2800.28C2068.89 2798.63 2070.05 2797.14 2071.32 2795.79C2072.6 2794.44 2074.02 2793.28 2075.59 2792.31C2077.54 2790.96 2079.75 2789.95 2082.22 2789.28C2084.76 2788.6 2087.53 2788.26 2090.53 2788.26C2094.12 2788.26 2097.34 2788.64 2100.19 2789.39C2103.03 2790.06 2105.46 2791.3 2107.49 2793.09C2109.51 2794.89 2111.04 2797.36 2112.09 2800.51C2113.21 2803.58 2113.77 2807.51 2113.77 2812.3V2886.64H2145V2811.85C2145 2803.01 2143.95 2795.53 2141.85 2789.39C2139.83 2783.17 2136.98 2778.08 2133.32 2774.11C2129.57 2770.22 2125.15 2767.38 2120.06 2765.58C2114.97 2763.78 2109.36 2762.88 2103.22 2762.88C2098.43 2762.88 2093.9 2763.56 2089.63 2764.91C2085.36 2766.25 2081.43 2768.2 2077.84 2770.75C2075.74 2772.24 2073.76 2773.93 2071.89 2775.8C2070.01 2777.67 2068.29 2779.73 2066.72 2781.98L2064.81 2765.13H2036.51V2886.64Z" fill="black"/>
<g clip-path="url(#clip0_348_203)">
<path d="M1328.89 2570.8C1436.76 2570.8 1524.2 2483.36 1524.2 2375.49C1524.2 2267.62 1436.76 2180.17 1328.89 2180.17C1221.02 2180.17 1133.57 2267.62 1133.57 2375.49C1133.57 2483.36 1221.02 2570.8 1328.89 2570.8Z" fill="#333333"/>
<path d="M1328.88 2499.18C1307.13 2499.18 1285.76 2493.42 1266.96 2482.49C1248.15 2471.55 1232.58 2455.84 1221.81 2436.94C1211.04 2418.04 1205.47 2396.63 1205.65 2374.88C1205.83 2353.13 1211.77 2331.81 1222.86 2313.1C1233.81 2294.68 1249.35 2279.42 1267.96 2268.81C1271.84 2266.59 1276.45 2266.01 1280.76 2267.19C1285.07 2268.38 1288.74 2271.22 1290.95 2275.11C1293.17 2278.99 1293.74 2283.6 1292.56 2287.91C1291.38 2292.22 1288.53 2295.89 1284.65 2298.1C1270.91 2305.94 1259.49 2317.27 1251.54 2330.94C1243.59 2344.61 1239.39 2360.14 1239.37 2375.95C1239.37 2425.31 1279.52 2465.46 1328.88 2465.46C1378.24 2465.46 1418.39 2425.31 1418.39 2375.95C1418.37 2360.14 1414.17 2344.61 1406.22 2330.94C1398.27 2317.27 1386.84 2305.94 1373.11 2298.1C1371.15 2297.02 1369.43 2295.57 1368.04 2293.82C1366.65 2292.07 1365.63 2290.06 1365.02 2287.91C1364.41 2285.76 1364.24 2283.51 1364.51 2281.29C1364.79 2279.07 1365.49 2276.93 1366.6 2274.99C1367.71 2273.05 1369.19 2271.35 1370.96 2269.98C1372.73 2268.62 1374.75 2267.62 1376.91 2267.04C1379.07 2266.47 1381.32 2266.33 1383.53 2266.63C1385.75 2266.93 1387.88 2267.67 1389.8 2268.81C1408.73 2279.57 1424.47 2295.15 1435.41 2313.97C1446.36 2332.79 1452.12 2354.18 1452.11 2375.95C1452.13 2392.14 1448.95 2408.17 1442.76 2423.13C1436.57 2438.08 1427.49 2451.68 1416.04 2463.12C1404.6 2474.57 1391.01 2483.65 1376.05 2489.83C1361.09 2496.02 1345.06 2499.2 1328.87 2499.19L1328.88 2499.18Z" fill="white"/>
<path d="M1328.77 2361.25C1326.56 2361.25 1324.36 2360.81 1322.32 2359.96C1320.27 2359.12 1318.41 2357.87 1316.85 2356.31C1315.28 2354.74 1314.04 2352.88 1313.19 2350.84C1312.34 2348.79 1311.91 2346.6 1311.91 2344.38V2249.68C1311.97 2245.25 1313.78 2241.03 1316.93 2237.92C1320.09 2234.81 1324.34 2233.07 1328.77 2233.07C1333.2 2233.07 1337.45 2234.81 1340.6 2237.92C1343.76 2241.03 1345.56 2245.25 1345.63 2249.68V2344.38C1345.63 2346.6 1345.19 2348.79 1344.35 2350.84C1343.5 2352.88 1342.26 2354.74 1340.69 2356.31C1339.13 2357.87 1337.27 2359.11 1335.22 2359.96C1333.18 2360.81 1330.98 2361.25 1328.77 2361.25V2361.25Z" fill="white"/>
</g>
<path d="M3085.56 2129.89C3044.57 2129.89 3005.87 2120.65 2976.64 2103.88L2363.26 1752.36C2332.85 1734.92 2316.07 1711.32 2316.04 1686.02C2316.02 1660.72 2332.53 1637.42 2362.59 1620.09L2971.93 1268.58C3001.03 1251.8 3039.61 1242.56 3080.62 1242.56C3121.64 1242.56 3160.29 1251.68 3189.52 1268.55L3802.9 1620.07C3833.33 1637.51 3850.12 1661.1 3850.14 1686.41C3850.16 1711.71 3833.65 1735.01 3803.59 1752.36L3194.25 2103.81C3165.18 2120.65 3126.57 2129.89 3085.56 2129.89ZM3080.62 1254.99C3041.79 1254.99 3005.44 1263.63 2978.22 1279.31L2368.88 1630.83C2342.84 1645.85 2328.54 1665.46 2328.56 1686.02C2328.58 1706.58 2343.14 1726.46 2369.53 1741.57L2982.89 2093.12C3010.28 2108.82 3046.73 2117.48 3085.56 2117.48C3124.39 2117.48 3160.77 2108.85 3187.96 2093.14L3797.32 1741.62C3823.34 1726.62 3837.65 1707.02 3837.62 1686.45C3837.6 1665.89 3823.04 1645.99 3796.63 1630.85L3183.27 1279.31C3155.9 1263.63 3119.46 1254.99 3080.62 1254.99V1254.99Z" fill="#E5E5E5"/>
<path d="M3801.07 2093.65L3191.43 2445.32C3133.24 2478.9 3038.58 2478.9 2980 2445.32L2366.34 2093.62C2336.87 2076.75 2322.18 2054.57 2322.22 2032.44L2321.74 2201.4C2321.74 2223.54 2336.39 2245.7 2365.86 2262.59L2979.51 2614.29C3038.1 2647.87 3132.76 2647.87 3190.95 2614.29L3800.59 2262.59C3829.5 2245.93 3843.97 2224.09 3844.03 2202.22L3844.52 2033.28C3844.45 2055.14 3829.98 2076.96 3801.07 2093.65Z" fill="#808285"/>
<path d="M3801.46 2264.68L3191.82 2616.38C3133.63 2649.94 3038.97 2649.94 2980.38 2616.38L2366.84 2264.68C2337.38 2247.79 2322.66 2225.63 2322.73 2203.5L2322.24 2372.44C2322.24 2394.57 2336.89 2416.75 2366.36 2433.65L2979.99 2785.41C3038.57 2818.99 3133.23 2818.99 3191.43 2785.41L3800.97 2433.65C3829.89 2416.96 3844.35 2395.14 3844.42 2373.28L3844.9 2204.32C3844.84 2226.18 3830.37 2248.02 3801.46 2264.68Z" fill="#231F20"/>
<path d="M3085.7 2816.59C3044.71 2816.59 3006.01 2807.34 2976.75 2790.58L2363.39 2439.04C2332.87 2421.56 2316.09 2398.01 2316.73 2372.48V2203.08H2329.18C2329.18 2224.44 2343.67 2244.23 2370.12 2259.41L2983.51 2610.95C3010.88 2626.63 3047.35 2635.27 3086.18 2635.27C3125.01 2635.27 3161.37 2626.63 3188.56 2610.95L3797.92 2259.43C3823.87 2244.45 3838.18 2224.94 3838.24 2208.82H3850.12V2373.37C3850.12 2398.44 3833.67 2421.79 3803.73 2439.04L3194.37 2790.58C3165.29 2807.34 3126.71 2816.59 3085.7 2816.59ZM2328.31 2239.96L2327.91 2372.36C2327.91 2393.18 2342.43 2413.01 2368.93 2428.19L2982.93 2780.07C3010.33 2795.78 3046.84 2804.44 3085.72 2804.44C3124.6 2804.44 3160.98 2795.8 3188.21 2780.1L3798.19 2428.21C3824.14 2413.24 3838.47 2393.68 3838.54 2373.16L3838.91 2240.74C3829.76 2252.7 3818.2 2262.64 3804.97 2269.92L3194.99 2621.8C3165.89 2638.58 3127.24 2647.83 3086.2 2647.83C3045.17 2647.83 3006.42 2638.72 2977.14 2621.8L2363.14 2269.92C2349.52 2262.5 2337.64 2252.29 2328.31 2239.96V2239.96Z" fill="#E5E5E5"/>
<path d="M3085.5 2645.56C3044.48 2645.56 3005.81 2636.44 2976.55 2619.55L2363.06 2267.94C2332.54 2250.43 2315.77 2226.91 2316.39 2201.38V2032.05H2328.84C2328.84 2053.41 2343.33 2073.22 2369.81 2088.38L2983.17 2439.92C3010.57 2455.6 3047.03 2464.26 3085.87 2464.26C3124.7 2464.26 3161.05 2455.62 3188.24 2439.92L3797.6 2088.4C3823.53 2073.44 3837.84 2053.91 3837.91 2037.79H3849.78V2202.33C3849.78 2227.41 3833.34 2250.75 3803.41 2268.03L3194.05 2619.55C3164.98 2636.33 3126.38 2645.56 3085.5 2645.56ZM2327.97 2068.95L2327.67 2201.35C2327.67 2222.14 2342.16 2241.98 2368.66 2257.16L2982.59 2609.06C3010.01 2624.77 3046.5 2633.41 3085.38 2633.41C3124.26 2633.41 3160.66 2624.77 3187.87 2609.06L3797.86 2257.18C3823.83 2242.2 3838.16 2222.67 3838.21 2202.15L3838.6 2069.73C3829.45 2081.7 3817.88 2091.63 3804.63 2098.88L3194.65 2450.77C3165.55 2467.57 3126.93 2476.8 3085.87 2476.8C3044.81 2476.8 3006.11 2467.68 2976.81 2450.79L2362.83 2098.88C2349.2 2091.48 2337.32 2081.27 2327.97 2068.95Z" fill="#E5E5E5"/>
<path d="M3801.07 1918.48L3191.43 2270.23C3133.24 2303.81 3038.58 2303.81 2980 2270.23L2366.34 1918.46C2336.87 1901.59 2322.18 1879.41 2322.22 1857.27L2321.74 2026.31C2321.74 2048.44 2336.39 2070.6 2365.86 2087.49L2979.51 2439.12C3038.1 2472.7 3132.76 2472.7 3190.95 2439.12L3800.59 2087.42C3829.5 2070.76 3843.97 2048.92 3844.03 2027.08L3844.52 1858.12C3844.45 1879.98 3829.98 1901.79 3801.07 1918.48Z" fill="#006B94"/>
<path d="M3085.15 2470.38C3044.16 2470.38 3005.46 2461.26 2976.2 2444.39L2362.84 2092.85C2332.3 2075.35 2315.54 2051.71 2316.41 2026.29V1853.99H2328.63C2328.63 1878.23 2343.09 1898.04 2369.57 1913.26L2982.95 2264.81C3010.33 2280.51 3046.8 2289.15 3085.63 2289.15C3124.46 2289.15 3160.82 2280.51 3188.01 2264.83L3797.41 1913.22C3823.34 1898.26 3837.67 1878.73 3837.72 1859.74H3849.84V2027.15C3849.68 2052.23 3833.17 2075.57 3803.22 2092.85L3193.82 2444.37C3164.74 2461.15 3126.16 2470.38 3085.15 2470.38ZM2327.98 1893.77L2327.69 2026.17C2327.69 2046.99 2342.18 2066.8 2368.68 2081.98L2982.61 2433.89C3010.03 2449.59 3046.52 2458.25 3085.4 2458.25C3124.28 2458.25 3160.68 2449.59 3187.89 2433.89L3797.87 2082C3823.85 2067.03 3838.18 2047.49 3838.22 2026.97L3838.61 1894.55C3829.47 1906.53 3817.9 1916.47 3804.65 1923.73L3194.66 2275.59C3165.57 2292.39 3126.94 2301.64 3085.88 2301.64C3044.82 2301.64 3006.13 2292.39 2976.82 2275.61L2362.84 1923.73C2349.21 1916.32 2337.32 1906.11 2327.98 1893.77Z" fill="#E5E5E5"/>
<path d="M3799.71 1625.46C3858.24 1659.02 3858.56 1713.43 3800.39 1746.99L3495.77 1922.75L3191.15 2098.51C3132.98 2132.06 3038.36 2132.06 2979.87 2098.51L2366.49 1746.99C2307.98 1713.43 2307.68 1659.04 2365.85 1625.49L2975.03 1274.04C3033.2 1240.48 3127.83 1240.48 3186.3 1274.04L3799.71 1625.46Z" fill="white"/>
<path d="M3703.37 1624.89C3754.15 1654 3754.42 1701.19 3703.97 1730.3L3175.46 2035.25C3124.94 2064.36 3042.91 2064.36 2992.14 2035.25L2460.05 1730.3C2409.28 1701.19 2409.02 1654 2459.48 1624.89L2988.07 1319.97C3038.6 1290.86 3120.6 1290.86 3171.38 1319.97L3703.37 1624.89Z" fill="#562B82"/>
<path d="M3541.98 1638.61C3579.57 1660.15 3579.78 1695.07 3542.41 1716.62L3151.14 1942.3C3113.78 1963.84 3053.04 1963.84 3015.42 1942.3L2621.58 1716.62C2583.99 1695.07 2583.81 1660.15 2621.15 1638.61L3012.44 1412.92C3049.78 1391.38 3110.54 1391.38 3148.11 1412.92L3541.98 1638.61Z" fill="#7DD1E8"/>
<path d="M3801.07 1746.87L3191.43 2098.55C3133.24 2132.13 3038.58 2132.13 2980 2098.55L2366.34 1746.87C2336.9 1729.96 2322.18 1707.8 2322.22 1685.66L2321.74 1854.63C2321.74 1876.76 2336.39 1898.94 2365.86 1915.81L2979.51 2267.51C3038.1 2301.09 3132.76 2301.09 3190.95 2267.51L3800.59 1915.84C3829.5 1899.15 3843.97 1877.33 3844.03 1855.47L3844.52 1686.51C3844.45 1708.37 3829.98 1730.18 3801.07 1746.87Z" fill="white"/>
<path d="M3085.06 2298.76C3044.05 2298.76 3005.38 2289.64 2976.12 2272.77L2362.74 1921.23C2332.22 1903.75 2315.45 1880.2 2316.42 1854.67V1681.67H2328.52C2328.52 1706.61 2343.01 1726.42 2369.49 1741.58L2982.85 2093.12C3010.24 2108.82 3046.69 2117.49 3085.52 2117.49C3124.35 2117.49 3160.71 2108.85 3187.9 2093.16L3797.28 1741.6C3823.21 1726.64 3837.52 1707.11 3837.59 1687.41H3849.8V1855.53C3849.55 1880.61 3833.02 1903.95 3803.09 1921.23L3193.73 2272.75C3164.66 2289.53 3126.05 2298.76 3085.06 2298.76ZM2327.99 1722.15L2327.69 1854.55C2327.69 1875.37 2342.18 1895.18 2368.68 1910.36L2982.62 2262.27C3010.04 2277.97 3046.48 2286.63 3085.52 2286.63C3124.56 2286.63 3160.8 2277.97 3188.01 2262.27L3797.88 1910.38C3823.85 1895.41 3838.18 1875.87 3838.23 1855.35L3838.62 1722.93C3829.47 1734.9 3817.9 1744.83 3804.65 1752.09L3194.67 2103.99C3165.58 2120.77 3126.95 2130.02 3085.89 2130.02C3044.83 2130.02 3006.13 2120.77 2976.83 2103.99L2362.85 1752.09C2349.22 1744.68 2337.33 1734.48 2327.99 1722.15V1722.15Z" fill="#E5E5E5"/>
<path d="M2448.67 1821.95C2439.36 1816.47 2430.94 1816.02 2424.79 1819.55L2393.14 1838.34C2399.11 1834.72 2407.68 1835.23 2417.03 1840.71C2435.54 1851.59 2450.44 1877.93 2450.38 1899.6C2450.38 1910.36 2446.61 1917.94 2440.61 1921.5L2472.29 1902.74C2478.26 1899.18 2482.02 1891.6 2482.05 1880.81C2482.08 1859.08 2467.18 1832.83 2448.67 1821.95Z" fill="#4DC5DA"/>
<path d="M2417.01 1840.86C2435.52 1851.74 2450.42 1878.08 2450.36 1899.75C2450.3 1921.41 2435.28 1930.16 2416.8 1919.28C2398.32 1908.4 2383.36 1882 2383.42 1860.33C2383.48 1838.67 2398.53 1829.98 2417.01 1840.86Z" fill="#7DD1E8"/>
<ellipse cx="2536.18" cy="2099.45" rx="39.2908" ry="68.0596" transform="rotate(155.533 2536.18 2099.45)" fill="white"/>
<ellipse cx="2536.31" cy="2099.44" rx="28.8133" ry="49.9104" transform="rotate(155.533 2536.31 2099.44)" fill="black"/>
<path d="M3746.73 1830.28C3731.61 1845.63 3724.01 1875.05 3729.69 1896.04C3735.38 1917.02 3752.21 1921.6 3767.3 1906.25C3782.39 1890.91 3790.04 1861.42 3784.35 1840.43C3778.66 1819.44 3761.82 1814.93 3746.73 1830.28Z" fill="#7DD1E8"/>
<rect x="1.44736" y="2.5069" width="200.33" height="47.5757" transform="matrix(0.866007 0.500033 3.77386e-05 1 2542.17 1912.1)" fill="black" stroke="#C4C4C4" stroke-width="3.34246"/>
<rect x="2.89472" y="5.0138" width="179.362" height="73.0494" transform="matrix(0.866007 0.500033 3.77386e-05 1 2808.86 2043.69)" fill="#830000" stroke="#AE4141" stroke-width="6.68492"/>
<rect width="265.781" height="39.8671" transform="matrix(0.866007 -0.500033 -3.7683e-05 1 3243.58 2132.89)" fill="black"/>
<rect width="24.3967" height="48.7934" transform="matrix(0.866007 -0.500033 -3.77206e-05 1 3585.33 1949.76)" fill="black"/>
<rect width="24.3967" height="48.7934" transform="matrix(0.866007 -0.500033 -3.77206e-05 1 3620.36 1929.42)" fill="black"/>
<circle r="8.13224" transform="matrix(0.866007 -0.500033 -3.77206e-05 1 3613.49 1905.83)" fill="black"/>
<path d="M3712.94 1820.79C3720.54 1813.05 3728.59 1810.43 3735.47 1812.25L3771.03 1822.25C3764.3 1820.3 3756.13 1823.01 3748.49 1830.75C3733.37 1846.11 3725.77 1875.52 3731.46 1896.51C3734.25 1906.94 3739.87 1913.32 3746.61 1915.21L3711.03 1905.25C3704.31 1903.35 3698.7 1896.97 3695.86 1886.52C3690.19 1865.47 3697.82 1836.14 3712.94 1820.79Z" fill="#4DC5DA"/>
<path d="M4982.28 2591.06C5010.59 2610.03 5033.56 2635.9 5049.02 2666.24C5068.38 2704.33 5076.64 2750.65 5073.68 2803.83C5073.58 2805.38 5073.8 2806.93 5074.34 2808.39C5074.88 2809.84 5075.71 2811.17 5076.8 2812.28C5077.88 2813.39 5079.18 2814.25 5080.63 2814.83C5082.07 2815.4 5083.62 2815.66 5085.18 2815.6C5088.44 2815.53 5091.57 2814.25 5093.95 2812C5096.32 2809.76 5097.78 2806.71 5098.02 2803.46C5105.41 2672.44 5046.74 2604.46 4996.21 2570.47C4962.46 2547.9 4923.93 2533.36 4883.56 2527.97C4880.31 2527.72 4877.08 2528.7 4874.49 2530.7C4871.9 2532.7 4870.15 2535.59 4869.58 2538.8C4869.3 2540.33 4869.35 2541.89 4869.72 2543.4C4870.09 2544.9 4870.77 2546.31 4871.72 2547.54C4872.66 2548.76 4873.86 2549.77 4875.22 2550.5C4876.59 2551.24 4878.09 2551.67 4879.64 2551.79C4916.42 2557.03 4951.5 2570.45 4982.28 2591.06V2591.06Z" fill="#9C9C9B"/>
<path d="M4933.07 2807.7C4932.88 2809.24 4933.01 2810.8 4933.45 2812.29C4933.9 2813.77 4934.65 2815.14 4935.66 2816.31C4936.68 2817.48 4937.92 2818.43 4939.33 2819.09C4940.73 2819.75 4942.26 2820.11 4943.81 2820.14C4947.07 2820.24 4950.26 2819.12 4952.76 2817C4955.25 2814.88 4956.87 2811.92 4957.3 2808.68C4958.8 2789.9 4956.33 2771.04 4950.04 2753.32C4940.41 2726.87 4917.17 2693.43 4861.3 2684.52C4859.56 2684.25 4857.78 2684.35 4856.08 2684.8C4854.38 2685.25 4852.78 2686.05 4851.39 2687.14C4849.02 2688.97 4847.35 2691.55 4846.65 2694.45C4846.27 2695.96 4846.2 2697.52 4846.46 2699.05C4846.72 2700.58 4847.3 2702.04 4848.16 2703.33C4849.01 2704.62 4850.13 2705.72 4851.44 2706.55C4852.75 2707.38 4854.22 2707.93 4855.76 2708.15C4941.44 2721.75 4933.47 2804.16 4933.07 2807.7Z" fill="#9C9C9B"/>
<path d="M5012.41 2812.4C5015.67 2812.36 5018.81 2811.1 5021.21 2808.87C5023.6 2806.64 5025.08 2803.6 5025.36 2800.35C5031.1 2712.14 4990.46 2664.96 4955.36 2640.91C4931.91 2624.97 4905.21 2614.38 4877.13 2609.89C4873.89 2609.54 4870.63 2610.41 4867.99 2612.34C4865.34 2614.26 4863.51 2617.1 4862.85 2620.29C4862.52 2621.81 4862.51 2623.38 4862.83 2624.9C4863.14 2626.42 4863.77 2627.85 4864.67 2629.11C4865.58 2630.36 4866.73 2631.42 4868.07 2632.2C4869.41 2632.98 4870.9 2633.48 4872.44 2633.65C4897.14 2637.82 4920.6 2647.28 4941.23 2661.37C4985.01 2691.64 5005.09 2738.52 5001.04 2800.5C5000.92 2802.05 5001.13 2803.61 5001.65 2805.07C5002.17 2806.53 5002.99 2807.87 5004.07 2808.99C5005.14 2810.11 5006.43 2810.99 5007.87 2811.58C5009.31 2812.17 5010.85 2812.45 5012.41 2812.4V2812.4Z" fill="#9C9C9B"/>
<path d="M4624.33 2795.56C4624.33 2784.91 4632.96 2776.28 4643.61 2776.28H4836.44C4847.09 2776.28 4855.73 2784.91 4855.73 2795.56V2954.65C4855.73 2965.29 4847.09 2973.93 4836.44 2973.93H4643.61C4632.96 2973.93 4624.33 2965.29 4624.33 2954.65V2795.56Z" fill="#808285"/>
<path d="M4518.84 2873.41C4518.84 2859.02 4507.18 2847.36 4492.8 2847.36H2533.17C2518.78 2847.36 2507.12 2859.02 2507.12 2873.41V2873.41C2507.12 2887.79 2518.78 2899.45 2533.17 2899.45H4492.8C4507.18 2899.45 4518.84 2887.79 4518.84 2873.41V2873.41Z" fill="#414042"/>
<path d="M4823.49 2799.23H4664.6C4659.11 2799.23 4654.67 2803.67 4654.67 2809.16V2938.4C4654.67 2943.89 4659.11 2948.33 4664.6 2948.33H4823.49C4828.97 2948.33 4833.42 2943.89 4833.42 2938.4V2809.16C4833.42 2803.67 4828.97 2799.23 4823.49 2799.23Z" fill="#414042"/>
<path d="M4626.22 2834.37H4492.76V2912.49H4626.22V2834.37Z" fill="#4D4D4F"/>
<path d="M2533.17 2264.71C2518.78 2264.71 2507.12 2276.37 2507.12 2290.75V2873.43C2507.12 2887.81 2518.78 2899.47 2533.17 2899.47V2899.47C2547.55 2899.47 2559.21 2887.81 2559.21 2873.43V2290.75C2559.21 2276.37 2547.55 2264.71 2533.17 2264.71V2264.71Z" fill="#414042"/>
<path d="M2494.26 2288.26C2478.7 2254.05 2482.09 2219.03 2501.84 2210.04C2521.59 2201.06 2550.22 2221.51 2565.79 2255.72C2581.36 2289.93 2577.97 2324.95 2558.21 2333.94C2538.46 2342.93 2509.83 2322.48 2494.26 2288.26Z" fill="white"/>
<path d="M2503.76 2283.91C2492.34 2258.82 2494.83 2233.14 2509.31 2226.55C2523.8 2219.96 2544.79 2234.96 2556.21 2260.05C2567.63 2285.14 2565.14 2310.82 2550.65 2317.41C2536.17 2324 2515.17 2309 2503.76 2283.91Z" fill="black"/>
<path d="M5128.63 421H4279.58L3855.21 1156.21L3430.69 421H2581.79L2157.42 1156.21L1732.9 421H884L1732.9 1891.58L884 3362H1732.9L2157.42 2626.79L2581.79 3362H3430.69L2581.79 1891.58L3006.31 1156.21L3855.21 2626.79L4704.11 1156.21L5128.63 1891.58L5553 1156.21L5128.63 421Z" fill="#3B3835" fill-opacity="0.05"/>
<defs>
<clipPath id="clip0_348_203">
<rect width="390.625" height="390.625" fill="white" transform="translate(1133.41 2180.17)"/>
</clipPath>
</defs>
</svg>
