<svg width="49" height="37" viewBox="0 0 49 37" fill="none" xmlns="http://www.w3.org/2000/svg">
<rect x="0.789062" y="0.786621" width="47.7766" height="35.8324" fill="#D3E2F5"/>
<g filter="url(#filter0_d_1_2560)">
<path d="M29.5435 13.6212L29.5435 18.7709L28.7309 18.7709" stroke="#7DD1E8" stroke-width="0.198344" stroke-linecap="round" stroke-linejoin="round" stroke-dasharray="0.4 0.4"/>
<path d="M43.4832 9.02328V23.2308H32.6816V9.02328H43.4832Z" fill="#C6E8FB"/>
<path d="M43.496 20.8406C43.297 20.8729 43.1174 21.0212 43.0531 21.2159C42.9411 20.932 42.4758 20.9031 42.3303 21.1709C42.235 20.7906 41.8522 20.5069 41.4662 20.5303C41.0802 20.5537 40.7335 20.8815 40.6833 21.2706C40.4519 20.9753 39.9368 20.9882 39.7203 21.2948C39.7181 20.9742 39.4487 20.6781 39.1337 20.6506C38.8187 20.6231 38.5036 20.8679 38.4474 21.1835C38.2632 20.9484 37.8446 20.9769 37.693 21.2349C37.49 20.9476 36.983 20.9841 36.8221 21.2978C36.75 21.0011 36.4132 20.8009 36.1229 20.8824C35.8326 20.9639 35.6451 21.3114 35.7338 21.6034C35.4756 21.3249 34.9992 21.2962 34.7101 21.5413C34.4209 21.7863 34.3644 22.2669 34.5883 22.5745C34.4047 22.6067 34.3015 22.86 34.4091 23.0144C34.2284 22.9056 33.9794 23.0919 33.9702 23.3049V23.3081H43.496V20.8406Z" fill="#BCCF59"/>
<path d="M35.2412 21.2544C35.1758 21.2043 35.1291 21.14 35.126 21.0634C35.1228 20.9868 35.1943 20.9058 35.2674 20.9267C35.2981 20.9356 35.3222 20.9595 35.3439 20.9832C35.4426 21.0914 35.5477 21.2375 35.588 21.3811C35.49 21.3771 35.3429 21.3328 35.2412 21.2544Z" fill="#BCCF59"/>
<path d="M35.6057 20.9246C35.6251 20.9125 35.65 20.9049 35.6722 20.9116C35.7005 20.92 35.7163 20.9473 35.7242 20.9734C35.7554 21.0742 35.7159 21.1759 35.6775 21.2669C35.6698 21.2851 35.6578 21.3323 35.6341 21.2987C35.5655 21.2005 35.465 21.0117 35.6057 20.9246Z" fill="#BCCF59"/>
<path d="M33.8647 22.8507C33.7866 22.8254 33.7215 22.7806 33.6934 22.7095C33.6652 22.6385 33.706 22.5377 33.7817 22.5328C33.8135 22.5307 33.8441 22.5451 33.8723 22.5602C34.0009 22.6288 34.148 22.7309 34.2333 22.8526C34.1397 22.8821 33.9865 22.8901 33.8647 22.8507Z" fill="#BCCF59"/>
<path d="M34.1002 22.4163C34.1147 22.3982 34.1356 22.3825 34.1591 22.3813C34.1885 22.3796 34.2124 22.4001 34.2285 22.422C34.291 22.5064 34.2867 22.6155 34.2809 22.7144C34.2796 22.7343 34.2837 22.7828 34.2504 22.7592C34.153 22.69 33.9962 22.546 34.1002 22.4163Z" fill="#BCCF59"/>
<path d="M40.1653 20.9298C40.2308 20.8798 40.2776 20.8156 40.2808 20.739C40.2841 20.6624 40.213 20.5812 40.1399 20.6021C40.1091 20.6105 40.0851 20.6345 40.0632 20.6583C39.9643 20.7662 39.8589 20.912 39.8181 21.0555C39.9159 21.0518 40.0632 21.0079 40.1653 20.9298Z" fill="#BCCF59"/>
<path d="M43.1478 20.7037C43.1527 20.6207 43.135 20.5434 43.0797 20.4908C43.0244 20.4381 42.9173 20.4408 42.8855 20.5107C42.872 20.5401 42.8742 20.5741 42.8779 20.6063C42.8945 20.7527 42.9361 20.9287 43.0167 21.0535C43.0775 20.9753 43.1402 20.8331 43.1478 20.7037Z" fill="#BCCF59"/>
<path d="M39.8018 20.5988C39.7825 20.5867 39.7575 20.579 39.7353 20.5856C39.7068 20.594 39.6911 20.6213 39.6828 20.6473C39.6515 20.7481 39.6912 20.8498 39.7289 20.9409C39.7366 20.9591 39.7485 21.0063 39.7722 20.9727C39.8414 20.875 39.9424 20.6867 39.8018 20.5988Z" fill="#BCCF59"/>
<path d="M35.8793 22.7222H35.8753C35.7763 22.7086 35.6985 22.6081 35.7054 22.5028C35.7118 22.4059 35.7871 22.3163 35.8848 22.2897C35.9489 22.2735 36.0165 22.2804 36.0761 22.3092C36.0715 22.2717 36.0754 22.2337 36.0875 22.1979C36.0995 22.1622 36.1195 22.1297 36.1459 22.103C36.2212 22.0296 36.3438 22.0137 36.4369 22.0655C36.5274 22.1155 36.583 22.2244 36.572 22.3303C36.5716 22.3343 36.5705 22.3382 36.5686 22.3417C36.5667 22.3452 36.5642 22.3483 36.5611 22.3508C36.558 22.3534 36.5545 22.3553 36.5507 22.3564C36.547 22.3575 36.543 22.3579 36.5391 22.3575C36.5351 22.3571 36.5313 22.3559 36.5279 22.354C36.5244 22.3521 36.5213 22.3495 36.5188 22.3464C36.5163 22.3433 36.5145 22.3397 36.5133 22.3359C36.5122 22.3321 36.5118 22.328 36.5122 22.3241C36.5206 22.2418 36.4779 22.1576 36.4082 22.119C36.3385 22.0805 36.2432 22.0925 36.1872 22.1471C36.1311 22.2018 36.1166 22.299 36.1568 22.3665C36.1607 22.3727 36.1621 22.3802 36.161 22.3874C36.1598 22.3947 36.1561 22.4012 36.1506 22.4059C36.145 22.4107 36.138 22.4132 36.1307 22.413C36.1235 22.4129 36.1166 22.4101 36.1112 22.4051C36.0521 22.3522 35.9693 22.3302 35.8996 22.3489C35.826 22.3689 35.7693 22.4354 35.7647 22.5071C35.7599 22.5803 35.8146 22.6526 35.8826 22.662C35.8901 22.6631 35.8968 22.667 35.9016 22.673C35.9063 22.679 35.9087 22.6866 35.9082 22.6942C35.9077 22.7019 35.9044 22.709 35.8989 22.7143C35.8934 22.7196 35.8862 22.7226 35.8786 22.7227L35.8793 22.7222Z" fill="#A7C64C"/>
<path d="M38.1483 22.0882C38.1425 22.0882 38.1369 22.0866 38.1321 22.0834C38.1272 22.0803 38.1233 22.0758 38.1209 22.0706C38.1116 22.049 38.1068 22.0257 38.107 22.0021C38.1072 21.9785 38.1123 21.9553 38.122 21.9339C38.1325 21.9087 38.148 21.8859 38.1676 21.867C38.1871 21.8482 38.2103 21.8336 38.2356 21.8242C38.306 21.7995 38.3889 21.8157 38.4547 21.8644C38.4832 21.7762 38.5615 21.7073 38.649 21.7014C38.7051 21.6967 38.7634 21.7224 38.8045 21.7678C38.8229 21.787 38.8368 21.8102 38.8451 21.8356C38.8535 21.8609 38.8561 21.8879 38.8529 21.9145C38.8515 21.9223 38.8471 21.9294 38.8407 21.9341C38.8344 21.9388 38.8264 21.9408 38.8186 21.9398C38.8108 21.9385 38.8038 21.9341 38.7991 21.9276C38.7945 21.9211 38.7925 21.913 38.7937 21.9051C38.7956 21.8875 38.7936 21.8698 38.7878 21.8531C38.7821 21.8364 38.7727 21.8213 38.7604 21.8088C38.747 21.7936 38.7304 21.7815 38.7119 21.7734C38.6934 21.7652 38.6734 21.7613 38.6532 21.7618C38.5784 21.767 38.5097 21.8412 38.5041 21.9241C38.5037 21.93 38.5016 21.9358 38.498 21.9405C38.4945 21.9453 38.4896 21.9489 38.484 21.9508C38.4785 21.9528 38.4725 21.9531 38.4667 21.9516C38.461 21.9502 38.4559 21.947 38.4519 21.9426C38.3992 21.8846 38.3183 21.8596 38.2553 21.8815C38.2379 21.888 38.222 21.8982 38.2086 21.9112C38.1952 21.9243 38.1846 21.94 38.1774 21.9574C38.1711 21.971 38.1677 21.9858 38.1674 22.0008C38.1671 22.0158 38.1699 22.0307 38.1757 22.0445C38.1779 22.0491 38.1788 22.0543 38.1785 22.0594C38.1782 22.0645 38.1766 22.0695 38.1738 22.0738C38.1711 22.0781 38.1673 22.0817 38.1629 22.0841C38.1584 22.0865 38.1534 22.0878 38.1484 22.0878L38.1483 22.0882Z" fill="#A7C64C"/>
<path d="M37.3221 23.3082C37.3294 23.2509 37.3442 23.2104 37.3689 23.1827C37.3951 23.1533 37.4449 23.1367 37.477 23.1586C37.4876 23.1666 37.4975 23.1757 37.5063 23.1857C37.5293 23.21 37.5579 23.2395 37.6008 23.2353C37.6078 23.2345 37.6143 23.2312 37.6192 23.226C37.6241 23.2208 37.627 23.2141 37.6275 23.2069C37.6321 23.1355 37.6368 23.0616 37.6685 22.9993C37.6948 22.9477 37.7516 22.8969 37.8158 22.9056C37.8566 22.9115 37.8959 22.9433 37.9213 22.9905C37.9466 23.0378 37.9561 23.0913 37.9659 23.1441C37.9671 23.1503 37.9701 23.156 37.9745 23.1604C37.979 23.1648 37.9847 23.1677 37.9909 23.1687C37.9971 23.1695 38.0033 23.1684 38.0089 23.1656C38.0144 23.1627 38.019 23.1582 38.0219 23.1526C38.0545 23.089 38.1057 23.005 38.1753 23.005H38.1782C38.2198 23.0065 38.2551 23.0393 38.2741 23.0696C38.2986 23.1082 38.3103 23.1557 38.3216 23.2015C38.324 23.2088 38.329 23.2149 38.3357 23.2186C38.3423 23.2223 38.3501 23.2233 38.3575 23.2214C38.3648 23.2195 38.3712 23.2149 38.3753 23.2085C38.3795 23.202 38.3811 23.1943 38.3798 23.1867C38.3679 23.1384 38.3544 23.0837 38.3247 23.0367C38.2892 22.9806 38.2353 22.946 38.1801 22.9439C38.1044 22.9398 38.0488 22.9952 38.0084 23.055C38.0008 23.0224 37.9891 22.9909 37.9738 22.9612C37.9394 22.8969 37.8834 22.8536 37.8242 22.8448C37.7315 22.8313 37.6508 22.9007 37.6149 22.9714C37.5839 23.0321 37.575 23.1001 37.57 23.1636C37.5628 23.1573 37.556 23.1505 37.5495 23.1434C37.5377 23.1301 37.5245 23.1181 37.5102 23.1077C37.4493 23.0665 37.3678 23.0928 37.324 23.1415C37.2787 23.1921 37.2658 23.2596 37.2608 23.3079L37.3221 23.3082Z" fill="#A7C64C"/>
<path d="M40.7977 21.9457C40.7914 21.9457 40.7852 21.9436 40.78 21.9398C40.7749 21.9359 40.7711 21.9306 40.7691 21.9244C40.7462 21.8506 40.7492 21.771 40.7774 21.6991C40.7851 21.6799 40.7982 21.6522 40.8238 21.635C40.8449 21.6221 40.8691 21.6155 40.8938 21.6158C40.9732 21.6137 41.0504 21.6422 41.11 21.6955C41.1287 21.6437 41.166 21.5967 41.223 21.5812C41.2455 21.5759 41.2689 21.5767 41.291 21.5834C41.313 21.5902 41.333 21.6027 41.3488 21.6196C41.3777 21.6498 41.3881 21.6877 41.3774 21.724C41.3751 21.7317 41.3699 21.7382 41.3629 21.742C41.3559 21.7459 41.3476 21.7468 41.34 21.7445C41.3362 21.7434 41.3327 21.7415 41.3296 21.739C41.3266 21.7364 41.324 21.7333 41.3221 21.7298C41.3203 21.7263 41.3191 21.7224 41.3187 21.7184C41.3183 21.7144 41.3187 21.7104 41.3198 21.7065C41.3255 21.6869 41.3135 21.6703 41.3056 21.6622C41.2876 21.6434 41.2598 21.6343 41.2386 21.6402C41.1887 21.6538 41.1609 21.7122 41.1567 21.7607C41.1562 21.7668 41.1539 21.7727 41.15 21.7774C41.1462 21.7822 41.141 21.7857 41.1352 21.7874C41.1294 21.7891 41.1232 21.789 41.1174 21.7871C41.1116 21.7851 41.1066 21.7815 41.1029 21.7766C41.0783 21.7449 41.0469 21.7195 41.011 21.7022C40.9751 21.6848 40.9358 21.6761 40.8961 21.6767C40.8827 21.6763 40.8694 21.6794 40.8575 21.6858C40.8486 21.6918 40.8409 21.7033 40.8336 21.722C40.8105 21.7806 40.8081 21.8455 40.8268 21.9058C40.8281 21.9096 40.8285 21.9136 40.8282 21.9176C40.8279 21.9216 40.8268 21.9255 40.825 21.9291C40.8232 21.9327 40.8207 21.9358 40.8177 21.9384C40.8146 21.941 40.8112 21.943 40.8074 21.9442L40.7977 21.9457Z" fill="#A7C64C"/>
<path d="M43.4971 21.9804C43.4817 21.9646 43.4633 21.952 43.4431 21.9434C43.421 21.9349 43.3975 21.931 43.374 21.9319C43.3504 21.9327 43.3273 21.9383 43.3059 21.9484C43.2846 21.958 43.2652 21.9715 43.2489 21.9884C43.2184 21.9022 43.1702 21.8185 43.0808 21.7971C43.0082 21.7795 42.9247 21.814 42.8683 21.8835C42.8202 21.9431 42.7964 22.0177 42.7755 22.0835C42.7734 22.091 42.7743 22.0991 42.778 22.106C42.7817 22.1129 42.7879 22.1182 42.7952 22.1206C42.8026 22.123 42.8106 22.1225 42.8176 22.119C42.8246 22.1156 42.83 22.1096 42.8327 22.1023C42.8531 22.0386 42.8743 21.9729 42.9149 21.9221C42.9492 21.88 43.0092 21.8426 43.067 21.8565C43.1476 21.8758 43.1859 21.9794 43.2103 22.0674C43.212 22.0737 43.2157 22.0792 43.2207 22.0832C43.2257 22.0872 43.2319 22.0895 43.2383 22.0897C43.2446 22.0901 43.251 22.0883 43.2563 22.0847C43.2616 22.081 43.2655 22.0757 43.2675 22.0695C43.275 22.0468 43.2893 22.0271 43.3084 22.0129C43.3274 21.9988 43.3503 21.991 43.3739 21.9907C43.3975 21.9903 43.4206 21.9974 43.4401 22.011C43.4596 22.0245 43.4744 22.0439 43.4826 22.0663C43.4887 22.0808 43.4919 22.0963 43.492 22.112C43.4921 22.1277 43.489 22.1433 43.4831 22.1578C43.4799 22.1649 43.4796 22.173 43.4822 22.1804C43.4848 22.1878 43.4902 22.1938 43.4971 22.1973V21.9804Z" fill="#A7C64C"/>
<path d="M43.4963 10.6583C43.2908 10.6275 43.0668 10.6449 42.8354 10.7058C42.1062 10.898 41.758 11.5424 41.7071 12.2637C41.4102 12.1114 41.0738 11.9431 40.7813 12.1855C40.5708 12.3599 40.432 12.6917 40.4104 12.9617C39.9164 12.9786 39.7265 13.0967 39.5719 13.58C39.2872 13.3916 38.9948 13.5252 38.9345 13.8579C38.6844 13.7034 38.2734 13.8813 38.5866 14.1532H43.4965V10.6583" fill="white"/>
<path d="M35.9924 23.4008C36.5595 23.1983 37.0978 22.787 37.3895 22.3272C37.713 21.8176 37.8101 21.1808 37.7285 20.5807C37.6654 20.1157 37.504 19.6446 37.2737 19.2371C37.0593 18.8574 36.9582 18.5301 37.0954 18.0891C37.2137 17.7094 37.4447 17.3775 37.6193 17.0206C38.0734 16.0933 38.1238 14.9437 37.6409 14.0322C37.2798 13.3512 36.6435 12.8124 36.4574 12.0624C36.3178 11.5001 36.2578 10.751 35.5899 10.5645C34.4934 10.2586 33.7071 11.3408 33.4959 12.264C33.3584 12.8661 33.1479 13.4615 32.7862 13.9587C32.7597 13.9953 32.7317 14.0307 32.7039 14.0662V23.1852C33.0081 23.2826 33.3323 23.351 33.6613 23.4009H35.9924" fill="#A1BA5A"/>
<path d="M34.8333 19.0548C34.9187 18.6186 35.0918 18.1899 35.3941 17.8678C35.6046 17.6434 35.798 17.3978 36.0169 17.1879C36.2304 16.9833 36.5052 16.769 36.6609 16.5155C36.6753 16.4922 36.6893 16.4643 36.6801 16.4385C36.6634 16.3899 36.593 16.4001 36.5464 16.4205C36.1149 16.6092 35.6468 16.9456 35.1569 16.9183C35.1013 16.9151 35.0389 16.9028 35.009 16.8551C34.9881 16.8213 34.9889 16.7791 34.9918 16.7394C35.0495 15.9446 35.5971 15.2827 35.8562 14.5304C35.9091 14.3767 35.9218 14.157 35.7717 14.1001C35.667 14.0604 35.558 14.1338 35.4596 14.1879C34.9982 14.44 35.1661 13.5511 35.1653 13.3114C35.1638 12.8749 35.1519 12.3811 34.999 11.9685C34.9936 11.9541 34.9861 11.9382 34.9715 11.934C34.9494 11.9273 34.9312 11.9519 34.921 11.973C34.754 12.3174 34.7224 12.7906 34.6599 13.1668C34.542 13.8743 34.4811 14.587 34.4126 15.2997C34.4 15.4324 34.3813 15.5679 34.3193 15.6854C34.1931 15.9259 33.7871 15.9796 33.6682 15.6836C34.0078 16.5311 34.2004 17.5043 33.8605 18.3516C33.8365 18.4114 33.8075 18.4733 33.7548 18.5094C33.6443 18.5853 33.5136 18.5138 33.3827 18.4425C33.2517 18.3712 33.1195 18.2985 33.0099 18.3776C33.1346 19.0412 33.6746 19.5564 33.84 20.2107C33.9467 20.6409 33.8841 21.0963 33.6654 21.4805C33.6291 21.5437 33.5846 21.608 33.5172 21.6342C33.4518 21.6595 33.3775 21.6435 33.3132 21.6155C33.2389 21.5818 33.1704 21.5366 33.11 21.4813C32.9631 21.3511 32.8422 21.1761 32.7039 21.0426V21.6269C32.9465 22.04 33.2493 22.4135 33.602 22.7346C33.726 22.8474 33.9495 23.1237 34.1221 23.1365C34.3141 23.1508 34.5071 22.8957 34.5848 22.7476C34.7064 22.5156 34.7585 22.2498 34.8925 22.025C35.133 21.62 35.5259 21.5689 35.8414 21.277C36.1818 20.9618 36.4795 20.5814 36.6446 20.1413C36.6589 20.1034 36.6667 20.0498 36.6309 20.0316C36.6091 20.0205 36.583 20.0304 36.5607 20.0401L35.3751 20.5663C35.2456 20.6241 34.9646 20.8181 34.8387 20.7422C34.7389 20.6815 34.7401 20.4828 34.7408 20.3835C34.7442 19.9388 34.7478 19.4911 34.8332 19.0549" fill="#95B354"/>
<path d="M34.4502 23.4007C34.4669 22.9898 34.4835 22.5856 34.5001 22.2037C34.551 21.0281 34.6082 19.8524 34.6716 18.6765C34.7968 16.3251 34.9336 13.9738 35.0943 11.6243C35.0951 11.6108 35.0907 11.5974 35.0819 11.5872C35.0732 11.5769 35.0608 11.5705 35.0475 11.5693C35.0341 11.5681 35.0209 11.5723 35.0105 11.5809C35.0001 11.5895 34.9935 11.6019 34.992 11.6154C34.7549 13.9594 34.5374 16.3052 34.3395 18.6528C34.2388 19.8266 34.1433 21.0011 34.053 22.1762C34.024 22.5672 33.9935 22.9805 33.964 23.4007H34.4501" fill="#A16D42"/>
<path d="M34.7905 13.4558L34.7573 13.4059L34.7187 13.3486L34.695 13.3134C34.6867 13.3007 34.6783 13.2854 34.67 13.2706C34.6534 13.2404 34.6346 13.2077 34.6151 13.1732C34.5955 13.1387 34.5791 13.1016 34.5605 13.0635C34.5432 13.0251 34.5222 12.9868 34.5068 12.9454C34.4914 12.9041 34.4739 12.8629 34.4573 12.8214C34.4407 12.7799 34.4282 12.737 34.4137 12.6954C34.4068 12.6747 34.3998 12.6541 34.393 12.6337L34.3755 12.5726C34.3643 12.5324 34.3534 12.4937 34.343 12.4568L34.3186 12.352C34.3024 12.2876 34.2937 12.2325 34.2865 12.1945C34.2794 12.1564 34.2754 12.1347 34.2754 12.1347C34.2737 12.1271 34.275 12.1191 34.2791 12.1125C34.2832 12.1059 34.2896 12.1012 34.2971 12.0994C34.3046 12.0976 34.3125 12.0988 34.319 12.1029C34.3256 12.1069 34.3303 12.1134 34.3322 12.121L34.3326 12.1224L34.3486 12.1801C34.3594 12.2166 34.3722 12.2694 34.3936 12.331C34.4037 12.362 34.4147 12.3955 34.4263 12.4309C34.4395 12.4657 34.4534 12.5024 34.4679 12.5406L34.4899 12.5982L34.5154 12.6561C34.5328 12.6947 34.5486 12.7349 34.5679 12.7734L34.6261 12.8876C34.6442 12.9258 34.6677 12.9602 34.6869 12.9951C34.7076 13.0289 34.7255 13.0641 34.7467 13.0925L34.8033 13.1751C34.8123 13.1878 34.82 13.2004 34.8289 13.2117L34.8556 13.2446L34.899 13.2982L34.9369 13.3448C34.9503 13.364 34.956 13.3875 34.953 13.4108C34.95 13.4341 34.9383 13.4553 34.9205 13.4702C34.9026 13.4852 34.8798 13.4927 34.8567 13.4912C34.8336 13.4898 34.8119 13.4795 34.796 13.4625L34.7905 13.4558Z" fill="#A16D42"/>
<path d="M34.732 14.7472L34.8129 14.689L34.9057 14.6224C34.9419 14.5971 34.982 14.5676 35.0236 14.5348L35.1604 14.4296C35.2093 14.3929 35.2585 14.3499 35.3108 14.3076C35.3631 14.2653 35.4171 14.2214 35.4695 14.174L35.6307 14.0322L35.7873 13.8852C35.8397 13.8373 35.8881 13.787 35.936 13.7393C35.9839 13.6915 36.0309 13.6465 36.0727 13.6002L36.1922 13.4723C36.2296 13.4331 36.2626 13.396 36.2913 13.3626L36.3661 13.2767L36.4316 13.2016L36.4323 13.2009C36.4374 13.1953 36.4444 13.1918 36.4519 13.1913C36.4594 13.1907 36.4668 13.1931 36.4726 13.198C36.4784 13.2029 36.4821 13.2098 36.483 13.2174C36.4839 13.2249 36.4819 13.2326 36.4774 13.2387L36.4169 13.3187L36.3478 13.4103C36.3213 13.4461 36.2907 13.4862 36.2559 13.5284L36.1443 13.666C36.1053 13.7154 36.0606 13.7641 36.0162 13.8164C35.9718 13.8687 35.9258 13.9226 35.8762 13.9748L35.7282 14.1351L35.575 14.2906C35.5251 14.3428 35.4729 14.3908 35.4233 14.4383C35.3736 14.4858 35.3264 14.5323 35.2786 14.5739L35.1456 14.6928C35.1041 14.7302 35.0661 14.7625 35.0321 14.7904L34.9443 14.8636L34.8677 14.9275C34.8448 14.9466 34.8153 14.9557 34.7857 14.9527C34.7562 14.9498 34.729 14.935 34.7101 14.9117C34.6913 14.8884 34.6824 14.8585 34.6853 14.8285C34.6882 14.7985 34.7027 14.7709 34.7257 14.7518L34.732 14.7472Z" fill="#A16D42"/>
<path d="M34.5201 16.8062L34.4416 16.733C34.4166 16.7097 34.3861 16.6814 34.3513 16.6486L34.2958 16.597C34.2765 16.5777 34.2566 16.5561 34.2357 16.5344L34.1012 16.3927C34.0768 16.3681 34.0537 16.3412 34.0309 16.3134L33.9603 16.229C33.9125 16.1715 33.8614 16.1138 33.8163 16.0493L33.675 15.8582L33.5458 15.6589C33.5017 15.5943 33.4656 15.5259 33.4287 15.4612C33.4104 15.4288 33.3925 15.397 33.3749 15.3658C33.357 15.3348 33.34 15.3041 33.3258 15.273L33.242 15.1004C33.2292 15.0735 33.2163 15.0482 33.2052 15.0235C33.1941 14.9988 33.1851 14.9746 33.1758 14.9522C33.1575 14.9076 33.1415 14.8686 33.1282 14.8365L33.0866 14.7359C33.0822 14.7262 33.0818 14.7151 33.0854 14.7051C33.089 14.6951 33.0964 14.687 33.106 14.6825C33.1155 14.678 33.1264 14.6776 33.1363 14.6813C33.1461 14.6849 33.1541 14.6925 33.1586 14.7021L33.1597 14.7045L33.2066 14.8008C33.2216 14.8314 33.2399 14.8683 33.2604 14.9112C33.2709 14.9324 33.2819 14.9551 33.2937 14.9787C33.3055 15.0023 33.3204 15.0263 33.3346 15.0517L33.4274 15.2158C33.4431 15.2452 33.4615 15.274 33.4809 15.3031L33.5392 15.3927C33.5791 15.4533 33.6181 15.5173 33.665 15.5772C33.7103 15.6382 33.7564 15.7001 33.8022 15.7621L33.9501 15.9378C33.9973 15.9969 34.0504 16.0496 34.0998 16.1019C34.1247 16.1279 34.149 16.1534 34.1728 16.1785C34.1954 16.2034 34.2193 16.2271 34.2442 16.2495L34.3785 16.3741C34.3996 16.3933 34.4188 16.412 34.4385 16.4292L34.4967 16.4772L34.592 16.5552L34.6752 16.6232C34.6875 16.6331 34.6979 16.6454 34.7055 16.6594C34.7132 16.6734 34.718 16.6887 34.7198 16.7046C34.7215 16.7205 34.7202 16.7366 34.7158 16.752C34.7114 16.7673 34.704 16.7816 34.6941 16.7941C34.6842 16.8065 34.672 16.8169 34.6581 16.8245C34.6442 16.8321 34.629 16.8368 34.6133 16.8384C34.5977 16.84 34.5818 16.8385 34.5667 16.8338C34.5517 16.8292 34.5376 16.8215 34.5255 16.8114L34.5197 16.8064" fill="#A16D42"/>
<path d="M34.5491 17.8541L34.684 17.7743L34.8387 17.6826L34.9339 17.6262C34.9666 17.6057 34.9996 17.5833 35.0348 17.5604L35.2614 17.4113C35.3022 17.386 35.3426 17.3566 35.3835 17.3262L35.5096 17.2346C35.5949 17.172 35.685 17.1095 35.7705 17.038L36.034 16.8271L36.2876 16.6034C36.373 16.5311 36.4501 16.4528 36.5269 16.379L36.6396 16.2699C36.6767 16.2345 36.7126 16.1993 36.7453 16.1631L36.9341 15.9622C36.9632 15.931 36.9917 15.9015 37.0177 15.8726L37.0895 15.7882L37.2064 15.6514L37.3084 15.5321L37.3095 15.5309C37.3153 15.5241 37.3236 15.5199 37.3324 15.5191C37.3413 15.5184 37.3501 15.5212 37.357 15.5269C37.3638 15.5326 37.3683 15.5408 37.3693 15.5498C37.3703 15.5587 37.3679 15.5678 37.3624 15.5749L37.2663 15.7005C37.2357 15.7405 37.1985 15.7891 37.1561 15.8449C37.1348 15.8728 37.1121 15.9025 37.0882 15.9338C37.0642 15.965 37.0365 15.9956 37.0088 16.0288L36.8293 16.2423C36.7981 16.2808 36.7638 16.3182 36.7282 16.3561C36.6926 16.394 36.6569 16.4333 36.6201 16.473C36.5465 16.552 36.4723 16.6359 36.39 16.7139L36.1448 16.9554C36.0589 17.0324 35.9731 17.1094 35.8886 17.1853C35.8054 17.263 35.7173 17.3316 35.6337 17.4003C35.5917 17.4345 35.5505 17.4681 35.5101 17.5011C35.4701 17.5344 35.4302 17.5664 35.3896 17.5954L35.1633 17.7627L35.0627 17.8367L34.9707 17.8983L34.821 17.9985L34.6907 18.0858C34.6609 18.1057 34.6246 18.1128 34.5896 18.1055C34.5547 18.0983 34.524 18.0772 34.5044 18.047C34.4848 18.0168 34.4778 17.9799 34.4849 17.9444C34.4921 17.909 34.5128 17.8779 34.5426 17.858L34.5489 17.854" fill="#A16D42"/>
<path d="M34.3314 19.8945L34.2663 19.8372L34.1914 19.7714C34.1625 19.7461 34.13 19.7173 34.0948 19.6833L33.9811 19.5757C33.9403 19.5379 33.9012 19.4952 33.8587 19.4527C33.8162 19.4102 33.7727 19.3662 33.7309 19.3188L33.6024 19.1775L33.4793 19.0317C33.4377 18.9843 33.4005 18.9348 33.3634 18.8882C33.3264 18.8417 33.2898 18.7964 33.2582 18.7516C33.2265 18.7067 33.1954 18.6652 33.1673 18.6265C33.1101 18.5498 33.0683 18.4816 33.0364 18.4359C33.0045 18.3902 32.9875 18.3632 32.9875 18.3632C32.9821 18.3552 32.98 18.3453 32.9816 18.3358C32.9832 18.3262 32.9883 18.3176 32.996 18.3118C33.0037 18.306 33.0133 18.3035 33.0228 18.3047C33.0323 18.3059 33.0409 18.3108 33.0469 18.3183L33.0479 18.3195L33.1019 18.387C33.137 18.4292 33.1834 18.4929 33.2457 18.5637C33.2764 18.5994 33.3096 18.6382 33.3447 18.679C33.3799 18.7198 33.4196 18.7608 33.4587 18.8044C33.4979 18.8479 33.5391 18.8926 33.5835 18.9356L33.7151 19.0678C33.7607 19.11 33.8066 19.153 33.8512 19.1949C33.8959 19.2369 33.9418 19.2763 33.9858 19.3147C34.0298 19.353 34.0718 19.3906 34.1135 19.4235L34.2299 19.517C34.2653 19.5461 34.2996 19.5721 34.3309 19.5949L34.4107 19.6539L34.4802 19.7056C34.5057 19.7246 34.5227 19.753 34.5275 19.7847C34.5323 19.8164 34.5245 19.8487 34.5058 19.8746C34.4872 19.9004 34.4591 19.9177 34.4279 19.9225C34.3967 19.9274 34.3648 19.9195 34.3394 19.9005L34.3317 19.8944" fill="#A16D42"/>
<path d="M34.3298 21.3919L34.4475 21.343C34.4849 21.3273 34.5302 21.3083 34.5822 21.2864L34.6653 21.2518C34.6938 21.2388 34.7223 21.2241 34.7528 21.2096L34.9486 21.1135L35.0016 21.0874L35.0549 21.0574L35.1649 20.9958C35.2398 20.9536 35.3182 20.9125 35.3933 20.8625L35.6246 20.7164L35.8491 20.559C35.924 20.5083 35.9939 20.4527 36.062 20.3997C36.1301 20.3467 36.1974 20.297 36.2574 20.2452L36.4273 20.1001L36.5029 20.0355L36.5684 19.9743L36.6751 19.8748L36.7682 19.788L36.7694 19.7868C36.777 19.7799 36.7869 19.7762 36.797 19.7765C36.8072 19.7769 36.8168 19.7812 36.8239 19.7886C36.831 19.796 36.835 19.8059 36.835 19.8162C36.835 19.8265 36.8311 19.8365 36.8241 19.8439L36.735 19.9367L36.6328 20.0432L36.5699 20.1087L36.497 20.1782L36.3329 20.3345C36.2747 20.3905 36.209 20.4442 36.1433 20.5021C36.0776 20.56 36.0092 20.6202 35.9354 20.676L35.7154 20.849L35.4872 21.0114C35.4131 21.0668 35.3347 21.1131 35.2606 21.1609L35.1511 21.2305L35.0979 21.2642L35.0441 21.2946L34.8434 21.4068C34.8123 21.4237 34.7825 21.4414 34.7541 21.4562L34.6732 21.4955L34.5418 21.5594L34.4273 21.6151C34.413 21.6228 34.3974 21.6274 34.3813 21.6288C34.3652 21.6302 34.3489 21.6283 34.3336 21.6232C34.3182 21.6181 34.304 21.6098 34.2919 21.599C34.2797 21.5882 34.2698 21.575 34.2629 21.5602C34.2559 21.5454 34.2519 21.5293 34.2512 21.5129C34.2505 21.4965 34.253 21.4802 34.2587 21.4648C34.2644 21.4494 34.273 21.4354 34.2842 21.4235C34.2954 21.4116 34.3088 21.4022 34.3236 21.3957L34.3298 21.3919Z" fill="#A16D42"/>
<path d="M34.1358 22.86L33.9403 22.7127L33.8455 22.6413C33.8116 22.6171 33.7775 22.5841 33.7414 22.5541L33.5179 22.3606L33.3106 22.1541C33.2782 22.1204 33.2441 22.091 33.217 22.0581L33.1377 21.9675L32.9748 21.7811C32.9682 21.7736 32.9647 21.7639 32.9649 21.7538C32.9652 21.7438 32.9692 21.7342 32.9762 21.7271C32.9832 21.72 32.9926 21.7159 33.0025 21.7156C33.0124 21.7153 33.0221 21.7188 33.0294 21.7255L33.0315 21.7274L33.2128 21.8897L33.3005 21.9679C33.3308 21.9964 33.3674 22.0212 33.4027 22.0498L33.6273 22.2237C33.7064 22.2769 33.7858 22.3299 33.8601 22.3796C33.8978 22.4039 33.9309 22.4295 33.9682 22.4498L34.071 22.5088C34.1983 22.5818 34.2831 22.6306 34.2831 22.6306C34.299 22.6399 34.313 22.6524 34.324 22.6673C34.335 22.6822 34.3429 22.6993 34.3472 22.7174C34.3515 22.7355 34.3521 22.7544 34.349 22.7728C34.3459 22.7911 34.3391 22.8087 34.329 22.8243C34.319 22.8399 34.3059 22.8533 34.2906 22.8636C34.2753 22.874 34.2581 22.881 34.24 22.8844C34.2219 22.8877 34.2034 22.8873 34.1855 22.8831C34.1675 22.8789 34.1507 22.871 34.1358 22.86Z" fill="#A16D42"/>
<path d="M41.262 9.02328H39.5928L36.8532 12.888C37.111 13.2689 37.4248 13.625 37.6406 14.0321C37.6508 14.0514 37.6608 14.0708 37.6705 14.0904L41.262 9.02328Z" fill="#E2F3FE"/>
<path d="M36.8533 12.888L35.8863 14.2524C35.9029 14.3392 35.8857 14.4449 35.8563 14.5302C35.5973 15.2825 35.0497 15.9444 34.992 16.7392C34.989 16.7788 34.9882 16.8215 35.0092 16.8549C35.039 16.9026 35.1014 16.9149 35.157 16.9181C35.1762 16.9191 35.1953 16.9197 35.2143 16.9197C35.3955 16.9197 35.5736 16.8723 35.7478 16.8037L37.6709 14.0903C37.6612 14.0708 37.6512 14.0514 37.641 14.0321C37.4248 13.625 37.1111 13.2689 36.8536 12.888" fill="#CDD794"/>
<path d="M34.5636 16.1191L34.3815 16.376C34.4017 16.3945 34.4202 16.4125 34.4392 16.4291L34.4975 16.4771L34.5287 16.5024C34.5402 16.3745 34.5517 16.2466 34.5632 16.1188L34.5636 16.1191ZM35.8872 14.2525L34.8361 15.7347C34.7969 16.4072 34.7589 17.0797 34.7223 17.7523L34.84 17.6826L34.9352 17.6262C34.9679 17.6057 35.0009 17.5833 35.0361 17.5604L35.2627 17.4113C35.2987 17.3885 35.3345 17.3632 35.3708 17.3366L35.7485 16.8037C35.5742 16.8723 35.3965 16.9202 35.2149 16.9202C35.1959 16.9202 35.1768 16.9196 35.1576 16.9186C35.102 16.9154 35.0396 16.903 35.0098 16.8554C34.9888 16.8216 34.9897 16.7794 34.9926 16.7397C35.0503 15.9449 35.5979 15.283 35.8569 14.5306C35.8863 14.4453 35.9033 14.3397 35.8869 14.2529" fill="#C5D18C"/>
<path d="M34.0049 16.9054L33.0134 18.3038C33.0148 18.3038 33.0161 18.3038 33.0175 18.3038C33.023 18.3038 33.0285 18.3051 33.0335 18.3075C33.0384 18.3099 33.0428 18.3134 33.0463 18.3178L33.0473 18.3189L33.0708 18.3485C33.0859 18.3447 33.1013 18.3429 33.1167 18.343C33.2003 18.343 33.2914 18.3927 33.3821 18.4424C33.4728 18.4921 33.5642 18.5417 33.6482 18.5417C33.6858 18.5421 33.7227 18.5308 33.7539 18.5093C33.8066 18.4732 33.8355 18.4113 33.8596 18.3515C34.0433 17.893 34.0714 17.3977 34.0046 16.9054" fill="#CDD794"/>
<path d="M34.9718 17.8976L34.971 17.8982L34.8213 17.9985L34.7035 18.0773C34.6996 18.1492 34.6957 18.2208 34.6918 18.2927L34.9718 17.8976ZM34.254 16.5543L34.0051 16.9054C34.0716 17.3977 34.0439 17.8931 33.8601 18.3516C33.8361 18.4114 33.8071 18.4732 33.7544 18.5093C33.7234 18.5307 33.6867 18.542 33.6491 18.5417C33.5648 18.5417 33.4737 18.492 33.383 18.4424C33.2924 18.3928 33.2013 18.343 33.1177 18.343C33.1022 18.3429 33.0868 18.3448 33.0718 18.3485L33.1022 18.3866C33.1373 18.4288 33.1837 18.4926 33.246 18.5633C33.2767 18.5991 33.3099 18.6378 33.345 18.6787C33.3802 18.7195 33.4199 18.7605 33.459 18.804C33.4982 18.8476 33.5394 18.8923 33.5838 18.9352L33.7154 19.0675C33.761 19.1096 33.8069 19.1527 33.8515 19.1946C33.892 19.2338 33.9347 19.2696 33.9754 19.305L34.3272 18.8086C34.3317 18.7566 34.3361 18.7047 34.3405 18.6528C34.394 18.0319 34.4483 17.4109 34.5034 16.7901L34.4422 16.7329C34.4172 16.7097 34.3867 16.6814 34.352 16.6486L34.2964 16.5969C34.2829 16.5835 34.2692 16.5689 34.2548 16.554" fill="#C5D18C"/>
<path d="M32.7041 18.7414L32.6816 18.7732V21.1296L32.7041 21.0978V18.7414Z" fill="#E2F3FE"/>
<path d="M32.9818 18.3495L32.7039 18.7415V21.0423C32.7117 21.0498 32.7194 21.0575 32.7271 21.0652L33.661 19.7476C33.4375 19.3012 33.1155 18.8921 33.015 18.4038L32.9873 18.3628C32.9847 18.3587 32.9828 18.3542 32.9818 18.3495Z" fill="#CDD794"/>
<path d="M32.7039 21.0422V21.0978L32.7271 21.0652C32.7194 21.0574 32.7117 21.0498 32.7039 21.0422ZM33.015 18.4037C33.1155 18.892 33.4375 19.3011 33.661 19.7475L33.8656 19.4598L33.859 19.453C33.8174 19.41 33.7729 19.3665 33.7312 19.3191L33.6027 19.1779L33.4795 19.032C33.438 18.9847 33.4008 18.9351 33.3637 18.8886C33.3266 18.842 33.2901 18.7967 33.2584 18.7519C33.2268 18.7071 33.1957 18.6655 33.1675 18.6268C33.1104 18.5501 33.0686 18.482 33.0367 18.4362L33.0154 18.4045" fill="#C5D18C"/>
<path d="M34.8357 15.7347L34.5632 16.1191C34.5517 16.247 34.5402 16.3749 34.5287 16.5028L34.5927 16.5551L34.6759 16.6231C34.6882 16.633 34.6986 16.6453 34.7062 16.6592C34.7139 16.6732 34.7187 16.6886 34.7205 16.7045C34.7223 16.7204 34.7209 16.7365 34.7165 16.7518C34.7121 16.7672 34.7047 16.7815 34.6948 16.7939C34.6849 16.8064 34.6727 16.8167 34.6588 16.8243C34.6449 16.8319 34.6297 16.8367 34.614 16.8383C34.5984 16.8399 34.5825 16.8383 34.5674 16.8337C34.5524 16.829 34.5383 16.8214 34.5262 16.8112L34.5204 16.8062L34.5031 16.7901C34.4476 17.4109 34.3933 18.0318 34.3402 18.6529C34.3358 18.7048 34.3313 18.7567 34.3269 18.8087L34.6927 18.2928C34.6966 18.2209 34.7005 18.1494 34.7044 18.0774L34.6919 18.0858C34.6772 18.0957 34.6607 18.1025 34.6433 18.1059C34.626 18.1093 34.6081 18.1092 34.5908 18.1056C34.5735 18.102 34.5571 18.095 34.5425 18.0849C34.5279 18.0749 34.5153 18.062 34.5056 18.0471C34.486 18.0169 34.479 17.98 34.4861 17.9445C34.4933 17.9091 34.514 17.878 34.5438 17.858L34.5501 17.8541L34.685 17.7742L34.7221 17.7523C34.7589 17.0797 34.7968 16.4072 34.8359 15.7347" fill="#CAA57E"/>
<path d="M34.3812 16.376L34.2548 16.5544C34.269 16.5693 34.2827 16.5839 34.2964 16.5973L34.3519 16.649C34.3867 16.6815 34.417 16.7097 34.4421 16.7333L34.5033 16.7905L34.5206 16.8066L34.5264 16.8116C34.5386 16.8217 34.5526 16.8294 34.5677 16.834C34.5828 16.8387 34.5986 16.8402 34.6143 16.8386C34.63 16.837 34.6452 16.8323 34.6591 16.8247C34.6729 16.8171 34.6852 16.8067 34.6951 16.7943C34.705 16.7818 34.7123 16.7675 34.7167 16.7522C34.7212 16.7368 34.7225 16.7207 34.7208 16.7048C34.719 16.6889 34.7141 16.6736 34.7065 16.6596C34.6988 16.6456 34.6885 16.6333 34.6761 16.6234L34.593 16.5554L34.5289 16.5031L34.4977 16.4778L34.4395 16.4298C34.4204 16.4129 34.4019 16.3952 34.3818 16.3767" fill="#CAA57E"/>
<path d="M35.3694 17.3365C35.3332 17.3631 35.2974 17.3884 35.2612 17.4112L35.0346 17.5603C34.9995 17.5833 34.9665 17.6056 34.9338 17.6261L34.8386 17.6826L34.7209 17.7523L34.6838 17.7742L34.5489 17.854L34.5426 17.858C34.5128 17.8779 34.4921 17.909 34.4849 17.9445C34.4778 17.9799 34.4848 18.0168 34.5044 18.047C34.524 18.0772 34.5547 18.0983 34.5896 18.1056C34.6246 18.1128 34.6609 18.1057 34.6907 18.0858L34.7032 18.0773L34.821 17.9985L34.9707 17.8982L34.9715 17.8976L35.3693 17.3365" fill="#CAA57E"/>
<path d="M33.0186 18.3038C33.0172 18.3037 33.0158 18.3037 33.0144 18.3038L32.9823 18.349C32.9833 18.3538 32.9852 18.3583 32.9879 18.3623L33.0155 18.4033L33.0368 18.4351C33.0687 18.4808 33.1105 18.549 33.1677 18.6257C33.1958 18.6643 33.2259 18.7063 33.2585 18.7507C33.2912 18.7951 33.3274 18.8398 33.3638 18.8874C33.4002 18.935 33.4387 18.9839 33.4797 19.0308L33.6028 19.1767L33.7313 19.3179C33.7729 19.3654 33.8172 19.4088 33.8591 19.4518L33.8658 19.4586L33.9752 19.3042C33.9344 19.2688 33.892 19.233 33.8514 19.1938C33.8064 19.1516 33.7608 19.1095 33.7152 19.0667L33.5834 18.9352C33.5394 18.8923 33.499 18.8471 33.4587 18.804C33.4185 18.761 33.3793 18.7196 33.3447 18.6786C33.3101 18.6376 33.2763 18.5991 33.2457 18.5633C33.1834 18.4926 33.137 18.4291 33.1019 18.3866L33.0714 18.3485L33.0479 18.319L33.0469 18.3178C33.0434 18.3134 33.0391 18.3099 33.0341 18.3075C33.0291 18.3051 33.0237 18.3039 33.0181 18.3039" fill="#CAA57E"/>
<path d="M38.5199 14.0831L37.9355 14.9076C37.965 15.0804 37.9805 15.2553 37.9819 15.4307L38.8878 14.1528H38.5867C38.5622 14.1319 38.5399 14.1085 38.5202 14.083L38.5199 14.0831ZM42.5242 9.02328H42.1065L38.7205 13.8005H38.7261C38.7995 13.8 38.8717 13.8198 38.9349 13.8577C38.9765 13.6286 39.1281 13.4938 39.3116 13.4938C39.3256 13.4939 39.3397 13.4946 39.3537 13.4961L42.5243 9.02328" fill="#E2F3FE"/>
<path d="M39.3109 13.4939C39.1274 13.4939 38.9757 13.6289 38.9342 13.8578C38.871 13.8198 38.7988 13.8 38.7254 13.8005H38.7198L38.5196 14.083C38.5393 14.1086 38.5616 14.1319 38.5861 14.1528H38.8872L39.3529 13.4961C39.3389 13.4946 39.3248 13.4939 39.3108 13.4939" fill="white"/>
<path d="M37.9354 14.9075L34.7872 19.3493C34.7614 19.5635 34.7508 19.7796 34.7456 19.9961L37.9818 15.4308C37.9804 15.2554 37.9649 15.0805 37.9354 14.9077" fill="#CDD794"/>
<path d="M34.7873 19.3494L34.6246 19.5789C34.6138 19.7899 34.6032 20.0009 34.5928 20.2117L34.7458 19.9959C34.7509 19.7794 34.7615 19.5633 34.7874 19.3491" fill="#C5D18C"/>
<path d="M33.8907 20.614L33.2172 21.564C33.2476 21.5838 33.2795 21.601 33.3127 21.6155C33.3546 21.6349 33.3998 21.6456 33.4458 21.6469C33.47 21.6472 33.4941 21.6429 33.5168 21.6343C33.5841 21.608 33.6287 21.5437 33.665 21.4806C33.8151 21.2173 33.893 20.9181 33.8907 20.614Z" fill="#CDD794"/>
<path d="M34.2134 20.1591L33.8908 20.6138C33.8931 20.9179 33.8152 21.2171 33.6652 21.4804C33.629 21.5436 33.5844 21.6079 33.5171 21.6341C33.4943 21.6427 33.4703 21.647 33.446 21.6468C33.4001 21.6455 33.3548 21.6348 33.313 21.6154C33.2798 21.6009 33.2479 21.5836 33.2174 21.5639L33.0742 21.7658L33.2131 21.8896L33.3008 21.9678C33.3101 21.9763 33.32 21.9847 33.3303 21.9932L34.1594 20.8236C34.1772 20.602 34.1952 20.3805 34.2134 20.1591Z" fill="#C5D18C"/>
<path d="M32.7041 22.2887L32.6816 22.3205V22.9085L32.7041 22.8767V22.2887Z" fill="#E2F3FE"/>
<path d="M32.9279 21.9727L32.7039 22.2886V22.8769L33.1447 22.2552C33.1258 22.2324 33.107 22.2094 33.0885 22.1863C33.0331 22.1168 32.9796 22.0456 32.928 21.9729" fill="#CDD794"/>
<path d="M33.0235 21.8372L32.9276 21.9722C32.9791 22.0449 33.0326 22.116 33.0882 22.1856C33.1067 22.2087 33.1255 22.2317 33.1443 22.2545L33.2548 22.0988C33.2413 22.0853 33.2283 22.0718 33.2166 22.0577L33.1373 21.9671L33.0235 21.8369" fill="#C5D18C"/>
<path d="M34.6245 19.5787L34.5105 19.7394C34.5228 19.7598 34.529 19.7833 34.5281 19.8072C34.5273 19.8311 34.5195 19.8541 34.5058 19.8735C34.492 19.8929 34.473 19.9077 34.4509 19.9162C34.4289 19.9246 34.405 19.9262 34.382 19.9208L34.2131 20.1591C34.195 20.3806 34.1769 20.6021 34.1591 20.8235L34.5927 20.2118C34.6031 20.0008 34.6138 19.7899 34.6245 19.579" fill="#CAA57E"/>
<path d="M34.5112 19.7394L34.3828 19.9208C34.4057 19.9263 34.4297 19.9247 34.4518 19.9163C34.4739 19.9079 34.493 19.8931 34.5067 19.8736C34.5205 19.8542 34.5282 19.8311 34.529 19.8072C34.5299 19.7833 34.5237 19.7597 34.5112 19.7394Z" fill="#CAA57E"/>
<path d="M33.0739 21.7657L33.0233 21.8372L33.1371 21.9674L33.2166 22.0584C33.2283 22.0724 33.2415 22.0859 33.2547 22.0994L33.3296 21.9935C33.3193 21.985 33.3094 21.9766 33.3 21.9682L33.2125 21.8896L33.0739 21.7659" fill="#CAA57E"/>
<path d="M43.2984 14.1528H42.4641L37.7516 20.8013C37.7589 20.9208 37.7589 21.0407 37.7516 21.1602C37.8396 21.07 37.9678 21.0234 38.0948 21.0234C38.193 21.0234 38.2907 21.0511 38.3692 21.1078L43.2984 14.1528Z" fill="#E2F3FE"/>
<path d="M38.0943 21.0231C37.967 21.0231 37.8391 21.0697 37.7511 21.16C37.7261 21.5734 37.6105 21.98 37.39 22.3272C37.1648 22.6816 36.7931 23.0073 36.3748 23.2307H36.864L38.3692 21.1075C38.2906 21.0509 38.1929 21.0231 38.0948 21.0231" fill="#DDE397"/>
<path d="M43.4837 12.7139L42.4637 14.1527H43.2981L43.4837 13.8908V12.7139Z" fill="white"/>
<path d="M37.7503 20.8012L36.028 23.2311H36.3742C36.7926 23.0077 37.1642 22.6822 37.3895 22.3276C37.61 21.9804 37.7253 21.574 37.7505 21.1604C37.7579 21.0408 37.7579 20.921 37.7505 20.8014" fill="#CDD794"/>
<path d="M32.4156 8.84442V23.4714H43.7922V8.84442H32.4156ZM43.4053 23.1445H32.8025V9.17128H43.4053V23.1445Z" fill="#A06E67"/>
<path d="M35.8044 9.08527V23.2305H36.1433V9.08527" fill="#A06E67"/>
<path d="M40.0642 9.08527V23.2305H40.4031V9.08527" fill="#A06E67"/>
<path d="M43.5505 13.1464H32.4156V13.4903H43.5505" fill="#A06E67"/>
<path d="M43.5505 18.8254H32.4156V19.1693H43.5505" fill="#A06E67"/>
<path d="M23.7925 12.27H24.0726C24.1361 12.27 24.1898 12.2797 24.2335 12.2991C24.2777 12.3185 24.3112 12.3471 24.3341 12.3851C24.3573 12.4227 24.3689 12.469 24.3689 12.524C24.3689 12.5627 24.361 12.5981 24.3451 12.6303C24.3296 12.6621 24.3071 12.6892 24.2777 12.7117C24.2486 12.7337 24.2138 12.7502 24.1731 12.761L24.1417 12.7732H23.8785L23.8773 12.682H24.0761C24.1163 12.682 24.1498 12.675 24.1766 12.6611C24.2033 12.6468 24.2235 12.6276 24.237 12.6036C24.2506 12.5796 24.2574 12.553 24.2574 12.524C24.2574 12.4914 24.251 12.4629 24.2382 12.4385C24.2254 12.4141 24.2052 12.3953 24.1777 12.3822C24.1506 12.3686 24.1156 12.3618 24.0726 12.3618H23.9046V13.1161H23.7925V12.27ZM24.287 13.1161L24.0813 12.7326L24.1981 12.732L24.4067 13.1091V13.1161H24.287ZM24.7704 13.1277C24.7267 13.1277 24.687 13.1204 24.6513 13.1056C24.6161 13.0905 24.5857 13.0694 24.5601 13.0423C24.5349 13.0152 24.5155 12.983 24.502 12.9458C24.4884 12.9086 24.4816 12.868 24.4816 12.8238V12.7994C24.4816 12.7483 24.4892 12.7027 24.5043 12.6628C24.5194 12.6226 24.54 12.5885 24.5659 12.5606C24.5919 12.5327 24.6213 12.5116 24.6542 12.4972C24.6872 12.4829 24.7213 12.4757 24.7565 12.4757C24.8014 12.4757 24.8402 12.4835 24.8727 12.499C24.9056 12.5145 24.9326 12.5362 24.9535 12.5641C24.9744 12.5916 24.9899 12.6241 25 12.6617C25.0101 12.6989 25.0151 12.7395 25.0151 12.7837V12.8319H24.5456V12.7442H24.9076V12.7361C24.906 12.7082 24.9002 12.681 24.8902 12.6547C24.8805 12.6284 24.865 12.6067 24.8437 12.5896C24.8224 12.5726 24.7933 12.5641 24.7565 12.5641C24.7321 12.5641 24.7096 12.5693 24.6891 12.5797C24.6686 12.5898 24.6509 12.6049 24.6362 12.6251C24.6215 12.6452 24.6101 12.6698 24.6019 12.6989C24.5938 12.7279 24.5897 12.7614 24.5897 12.7994V12.8238C24.5897 12.8536 24.5938 12.8817 24.6019 12.9081C24.6105 12.934 24.6227 12.9569 24.6385 12.9766C24.6548 12.9964 24.6744 13.0119 24.6972 13.0231C24.7205 13.0343 24.7468 13.04 24.7763 13.04C24.8142 13.04 24.8464 13.0322 24.8727 13.0167C24.8991 13.0012 24.9221 12.9805 24.9419 12.9545L25.007 13.0063C24.9934 13.0268 24.9762 13.0464 24.9552 13.065C24.9343 13.0835 24.9086 13.0987 24.878 13.1103C24.8477 13.1219 24.8119 13.1277 24.7704 13.1277ZM25.5067 12.9493C25.5067 12.9338 25.5032 12.9195 25.4962 12.9063C25.4896 12.8928 25.4759 12.8806 25.455 12.8697C25.4344 12.8585 25.4034 12.8488 25.362 12.8407C25.3271 12.8333 25.2956 12.8246 25.2673 12.8145C25.2394 12.8044 25.2156 12.7922 25.1958 12.7779C25.1764 12.7636 25.1615 12.7467 25.1511 12.7273C25.1406 12.708 25.1354 12.6853 25.1354 12.6594C25.1354 12.6346 25.1408 12.6111 25.1516 12.589C25.1629 12.567 25.1786 12.5474 25.1987 12.5304C25.2192 12.5133 25.2438 12.4999 25.2725 12.4903C25.3012 12.4806 25.3331 12.4757 25.3684 12.4757C25.4187 12.4757 25.4617 12.4846 25.4974 12.5025C25.533 12.5203 25.5603 12.5441 25.5793 12.5739C25.5983 12.6034 25.6078 12.6361 25.6078 12.6721H25.5003C25.5003 12.6547 25.4951 12.6379 25.4846 12.6216C25.4745 12.6049 25.4596 12.5912 25.4399 12.5803C25.4205 12.5695 25.3967 12.5641 25.3684 12.5641C25.3386 12.5641 25.3143 12.5687 25.2958 12.578C25.2775 12.5869 25.2642 12.5983 25.2557 12.6123C25.2475 12.6262 25.2435 12.641 25.2435 12.6564C25.2435 12.6681 25.2454 12.6785 25.2493 12.6878C25.2535 12.6967 25.2609 12.7051 25.2713 12.7128C25.2818 12.7202 25.2965 12.7271 25.3155 12.7337C25.3345 12.7403 25.3587 12.7469 25.3881 12.7535C25.4397 12.7651 25.4821 12.7791 25.5154 12.7953C25.5487 12.8116 25.5735 12.8316 25.5898 12.8552C25.6061 12.8788 25.6142 12.9075 25.6142 12.9412C25.6142 12.9687 25.6084 12.9939 25.5968 13.0167C25.5855 13.0396 25.5691 13.0593 25.5474 13.076C25.5261 13.0923 25.5005 13.105 25.4707 13.1143C25.4412 13.1233 25.4081 13.1277 25.3713 13.1277C25.3159 13.1277 25.269 13.1178 25.2307 13.0981C25.1923 13.0783 25.1633 13.0528 25.1435 13.0214C25.1237 12.99 25.1139 12.9569 25.1139 12.922H25.222C25.2235 12.9514 25.232 12.9749 25.2475 12.9923C25.263 13.0094 25.282 13.0216 25.3045 13.0289C25.3269 13.0359 25.3492 13.0394 25.3713 13.0394C25.4007 13.0394 25.4253 13.0355 25.4451 13.0278C25.4652 13.02 25.4805 13.0094 25.491 12.9958C25.5015 12.9822 25.5067 12.9667 25.5067 12.9493ZM26.0163 13.1277C25.9725 13.1277 25.9328 13.1204 25.8972 13.1056C25.8619 13.0905 25.8315 13.0694 25.8059 13.0423C25.7808 13.0152 25.7614 12.983 25.7478 12.9458C25.7343 12.9086 25.7275 12.868 25.7275 12.8238V12.7994C25.7275 12.7483 25.7351 12.7027 25.7502 12.6628C25.7653 12.6226 25.7858 12.5885 25.8118 12.5606C25.8377 12.5327 25.8672 12.5116 25.9001 12.4972C25.933 12.4829 25.9671 12.4757 26.0024 12.4757C26.0473 12.4757 26.086 12.4835 26.1186 12.499C26.1515 12.5145 26.1784 12.5362 26.1993 12.5641C26.2203 12.5916 26.2358 12.6241 26.2458 12.6617C26.2559 12.6989 26.2609 12.7395 26.2609 12.7837V12.8319H25.7914V12.7442H26.1534V12.7361C26.1519 12.7082 26.1461 12.681 26.136 12.6547C26.1263 12.6284 26.1108 12.6067 26.0895 12.5896C26.0682 12.5726 26.0392 12.5641 26.0024 12.5641C25.9779 12.5641 25.9555 12.5693 25.9349 12.5797C25.9144 12.5898 25.8968 12.6049 25.8821 12.6251C25.8673 12.6452 25.8559 12.6698 25.8478 12.6989C25.8396 12.7279 25.8356 12.7614 25.8356 12.7994V12.8238C25.8356 12.8536 25.8396 12.8817 25.8478 12.9081C25.8563 12.934 25.8685 12.9569 25.8844 12.9766C25.9007 12.9964 25.9202 13.0119 25.9431 13.0231C25.9663 13.0343 25.9927 13.04 26.0221 13.04C26.0601 13.04 26.0922 13.0322 26.1186 13.0167C26.1449 13.0012 26.168 12.9805 26.1877 12.9545L26.2528 13.0063C26.2392 13.0268 26.222 13.0464 26.2011 13.065C26.1802 13.0835 26.1544 13.0987 26.1238 13.1103C26.0936 13.1219 26.0577 13.1277 26.0163 13.1277ZM26.6497 12.4874V12.5699H26.3097V12.4874H26.6497ZM26.4248 12.3345H26.5323V12.9604C26.5323 12.9817 26.5356 12.9977 26.5422 13.0086C26.5488 13.0194 26.5573 13.0266 26.5677 13.0301C26.5782 13.0336 26.5894 13.0353 26.6015 13.0353C26.6104 13.0353 26.6197 13.0345 26.6293 13.033C26.6394 13.0311 26.647 13.0295 26.652 13.0283L26.6526 13.1161C26.6441 13.1188 26.6328 13.1213 26.6189 13.1236C26.6053 13.1264 26.5889 13.1277 26.5695 13.1277C26.5431 13.1277 26.5189 13.1225 26.4969 13.112C26.4748 13.1016 26.4571 13.0841 26.444 13.0597C26.4312 13.0349 26.4248 13.0016 26.4248 12.9598V12.3345ZM27.3888 12.7204H27.1744L27.1732 12.6303H27.3679C27.4001 12.6303 27.4281 12.6249 27.4522 12.614C27.4762 12.6032 27.4948 12.5877 27.5079 12.5675C27.5215 12.547 27.5283 12.5226 27.5283 12.4943C27.5283 12.4633 27.5223 12.4382 27.5103 12.4188C27.4986 12.399 27.4806 12.3847 27.4562 12.3758C27.4322 12.3665 27.4016 12.3618 27.3644 12.3618H27.1994V13.1161H27.0872V12.27H27.3644C27.4078 12.27 27.4465 12.2745 27.4806 12.2834C27.5147 12.2919 27.5436 12.3055 27.5672 12.3241C27.5912 12.3423 27.6094 12.3655 27.6218 12.3938C27.6342 12.4221 27.6404 12.456 27.6404 12.4955C27.6404 12.5304 27.6315 12.5619 27.6137 12.5902C27.5959 12.6181 27.5711 12.641 27.5393 12.6588C27.5079 12.6766 27.4711 12.688 27.4289 12.6931L27.3888 12.7204ZM27.3836 13.1161H27.1302L27.1936 13.0249H27.3836C27.4192 13.0249 27.4494 13.0187 27.4742 13.0063C27.4994 12.9939 27.5186 12.9764 27.5318 12.954C27.5449 12.9311 27.5515 12.9042 27.5515 12.8732C27.5515 12.8418 27.5459 12.8147 27.5347 12.7918C27.5234 12.769 27.5058 12.7514 27.4818 12.739C27.4578 12.7266 27.4268 12.7204 27.3888 12.7204H27.229L27.2302 12.6303H27.4487L27.4725 12.6628C27.5132 12.6663 27.5477 12.6779 27.5759 12.6977C27.6042 12.7171 27.6257 12.7419 27.6404 12.7721C27.6555 12.8023 27.6631 12.8356 27.6631 12.872C27.6631 12.9247 27.6515 12.9693 27.6282 13.0057C27.6054 13.0417 27.573 13.0692 27.5312 13.0882C27.4894 13.1068 27.4402 13.1161 27.3836 13.1161ZM28.1971 12.9708V12.4874H28.3052V13.1161H28.2023L28.1971 12.9708ZM28.2175 12.8383L28.2622 12.8372C28.2622 12.879 28.2577 12.9177 28.2488 12.9534C28.2403 12.9886 28.2264 13.0192 28.207 13.0452C28.1876 13.0712 28.1622 13.0915 28.1309 13.1062C28.0995 13.1205 28.0613 13.1277 28.0164 13.1277C27.9858 13.1277 27.9577 13.1233 27.9321 13.1143C27.907 13.1054 27.8853 13.0917 27.8671 13.0731C27.8489 13.0545 27.8347 13.0303 27.8246 13.0005C27.815 12.9706 27.8101 12.9348 27.8101 12.893V12.4874H27.9176V12.8941C27.9176 12.9224 27.9207 12.9458 27.9269 12.9644C27.9335 12.9826 27.9422 12.9972 27.9531 13.008C27.9643 13.0185 27.9767 13.0258 27.9902 13.0301C28.0042 13.0343 28.0185 13.0365 28.0332 13.0365C28.079 13.0365 28.1152 13.0278 28.1419 13.0103C28.1686 12.9925 28.1878 12.9687 28.1994 12.9389C28.2114 12.9086 28.2175 12.8751 28.2175 12.8383ZM28.7323 12.4874V12.5699H28.3924V12.4874H28.7323ZM28.5074 12.3345H28.6149V12.9604C28.6149 12.9817 28.6182 12.9977 28.6248 13.0086C28.6314 13.0194 28.6399 13.0266 28.6504 13.0301C28.6608 13.0336 28.6721 13.0353 28.6841 13.0353C28.693 13.0353 28.7023 13.0345 28.712 13.033C28.722 13.0311 28.7296 13.0295 28.7346 13.0283L28.7352 13.1161C28.7267 13.1188 28.7154 13.1213 28.7015 13.1236C28.6879 13.1264 28.6715 13.1277 28.6521 13.1277C28.6258 13.1277 28.6015 13.1225 28.5795 13.112C28.5574 13.1016 28.5398 13.0841 28.5266 13.0597C28.5138 13.0349 28.5074 13.0016 28.5074 12.9598V12.3345ZM29.1216 12.4874V12.5699H28.7817V12.4874H29.1216ZM28.8967 12.3345H29.0042V12.9604C29.0042 12.9817 29.0075 12.9977 29.0141 13.0086C29.0207 13.0194 29.0292 13.0266 29.0397 13.0301C29.0501 13.0336 29.0614 13.0353 29.0734 13.0353C29.0823 13.0353 29.0916 13.0345 29.1013 13.033C29.1114 13.0311 29.1189 13.0295 29.1239 13.0283L29.1245 13.1161C29.116 13.1188 29.1048 13.1213 29.0908 13.1236C29.0773 13.1264 29.0608 13.1277 29.0414 13.1277C29.0151 13.1277 28.9909 13.1225 28.9688 13.112C28.9467 13.1016 28.9291 13.0841 28.9159 13.0597C28.9031 13.0349 28.8967 13.0016 28.8967 12.9598V12.3345ZM29.2076 12.8087V12.7953C29.2076 12.75 29.2142 12.708 29.2274 12.6692C29.2406 12.6301 29.2595 12.5962 29.2843 12.5675C29.3091 12.5385 29.3391 12.516 29.3744 12.5001C29.4096 12.4839 29.4492 12.4757 29.4929 12.4757C29.5371 12.4757 29.5768 12.4839 29.6121 12.5001C29.6477 12.516 29.6779 12.5385 29.7027 12.5675C29.7279 12.5962 29.7471 12.6301 29.7602 12.6692C29.7734 12.708 29.78 12.75 29.78 12.7953V12.8087C29.78 12.854 29.7734 12.8961 29.7602 12.9348C29.7471 12.9735 29.7279 13.0074 29.7027 13.0365C29.6779 13.0651 29.6479 13.0876 29.6126 13.1039C29.5778 13.1198 29.5383 13.1277 29.4941 13.1277C29.4499 13.1277 29.4102 13.1198 29.375 13.1039C29.3397 13.0876 29.3095 13.0651 29.2843 13.0365C29.2595 13.0074 29.2406 12.9735 29.2274 12.9348C29.2142 12.8961 29.2076 12.854 29.2076 12.8087ZM29.3151 12.7953V12.8087C29.3151 12.8401 29.3188 12.8697 29.3262 12.8976C29.3335 12.9251 29.3446 12.9495 29.3593 12.9708C29.3744 12.9921 29.3932 13.009 29.4157 13.0214C29.4381 13.0334 29.4643 13.0394 29.4941 13.0394C29.5235 13.0394 29.5493 13.0334 29.5714 13.0214C29.5939 13.009 29.6124 12.9921 29.6272 12.9708C29.6419 12.9495 29.6529 12.9251 29.6603 12.8976C29.668 12.8697 29.6719 12.8401 29.6719 12.8087V12.7953C29.6719 12.7643 29.668 12.7351 29.6603 12.7076C29.6529 12.6797 29.6417 12.6551 29.6266 12.6338C29.6119 12.6121 29.5933 12.595 29.5708 12.5827C29.5487 12.5703 29.5228 12.5641 29.4929 12.5641C29.4635 12.5641 29.4375 12.5703 29.4151 12.5827C29.393 12.595 29.3744 12.6121 29.3593 12.6338C29.3446 12.6551 29.3335 12.6797 29.3262 12.7076C29.3188 12.7351 29.3151 12.7643 29.3151 12.7953ZM30.0223 12.6216V13.1161H29.9148V12.4874H30.0165L30.0223 12.6216ZM29.9967 12.7779L29.952 12.7762C29.9524 12.7332 29.9588 12.6934 29.9712 12.657C29.9836 12.6202 30.001 12.5883 30.0235 12.5612C30.0459 12.534 30.0727 12.5131 30.1037 12.4984C30.135 12.4833 30.1697 12.4757 30.2077 12.4757C30.2387 12.4757 30.2666 12.48 30.2913 12.4885C30.3161 12.4967 30.3373 12.5098 30.3547 12.528C30.3725 12.5462 30.3861 12.5699 30.3954 12.5989C30.4047 12.6276 30.4093 12.6626 30.4093 12.7041V13.1161H30.3012V12.7029C30.3012 12.67 30.2964 12.6437 30.2867 12.6239C30.277 12.6038 30.2629 12.5892 30.2443 12.5803C30.2257 12.571 30.2028 12.5664 30.1757 12.5664C30.149 12.5664 30.1246 12.572 30.1025 12.5832C30.0808 12.5945 30.062 12.61 30.0461 12.6297C30.0306 12.6495 30.0184 12.6721 30.0095 12.6977C30.001 12.7229 29.9967 12.7496 29.9967 12.7779Z" fill="black"/>
<path d="M8.24637 20.3593C8.24637 20.3002 8.22229 20.2434 8.17943 20.2016C8.13657 20.1598 8.07845 20.1363 8.01784 20.1363C7.95723 20.1363 7.8991 20.1598 7.85624 20.2016C7.81338 20.2434 7.78931 20.3002 7.78931 20.3593V20.6566H8.24637V20.3593Z" fill="#373737" fill-opacity="0.35"/>
<path d="M7.02759 20.3594C7.02559 20.3015 7.00062 20.2467 6.95796 20.2064C6.91529 20.1662 6.85827 20.1437 6.79893 20.1437C6.73958 20.1437 6.68256 20.1662 6.6399 20.2064C6.59724 20.2467 6.57227 20.3015 6.57027 20.3594V20.6567H7.02759V20.3594Z" fill="#373737" fill-opacity="0.35"/>
<path d="M8.93462 22.6633V21.4741C8.93435 21.3954 8.90214 21.3199 8.84503 21.2643C8.78792 21.2086 8.71056 21.1772 8.62983 21.177H8.24903V20.6567H7.79197V21.177H7.03012V20.6567H6.5728V21.177H6.192C6.1113 21.1772 6.03396 21.2086 5.97689 21.2643C5.91982 21.32 5.88767 21.3954 5.88747 21.4741V22.6633C5.80671 22.6636 5.72935 22.695 5.67225 22.7507C5.61515 22.8064 5.58295 22.8819 5.58267 22.9607V25.6362C5.58295 25.715 5.61515 25.7905 5.67225 25.8462C5.72935 25.9019 5.80671 25.9333 5.88747 25.9336H8.93462C9.01538 25.9333 9.09274 25.9019 9.14984 25.8462C9.20694 25.7905 9.23914 25.715 9.23942 25.6362V22.9607C9.23914 22.8819 9.20694 22.8064 9.14984 22.7507C9.09274 22.695 9.01538 22.6636 8.93462 22.6633ZM7.25865 25.1903V24.2985H6.64906L7.25865 23.1093H7.86798L7.56344 23.704H8.17277L7.25865 25.1903Z" fill="#373737" fill-opacity="0.35"/>
<path d="M13.5623 20.3833H13.5196C13.5196 20.3833 13.5299 20.5762 13.3931 20.6265H13.5623V20.3833Z" fill="black"/>
<path d="M13.2587 20.6265H13.5006C13.5346 20.6265 13.5623 20.6081 13.5623 20.5852V20.4246C13.5623 20.4018 13.5346 20.3833 13.5006 20.3833H13.2587V20.6265Z" fill="black"/>
<path d="M13.5627 20.4264C13.5627 20.4036 13.6081 20.3851 13.501 20.3851H13.2592V20.5313C13.399 20.5373 13.5159 20.5004 13.5627 20.45V20.4264Z" fill="#24211E"/>
<path d="M14.9133 20.7605H14.5197V20.2523H14.9157C14.937 20.2522 14.9574 20.2602 14.9729 20.2748C14.9883 20.2893 14.9975 20.3092 14.9986 20.3303C14.9991 20.3321 14.9993 20.3339 14.9992 20.3358V20.6753C14.9992 20.6866 14.997 20.6977 14.9927 20.708C14.9884 20.7184 14.9821 20.7278 14.9741 20.7357C14.9661 20.7436 14.9566 20.7499 14.9462 20.7542C14.9357 20.7584 14.9245 20.7606 14.9133 20.7605Z" fill="#D1D3D4"/>
<path d="M14.6507 20.5468C14.6303 20.4801 14.6293 20.293 14.6874 20.2526H14.9153C14.9376 20.2526 14.9589 20.2614 14.9746 20.277C14.9904 20.2926 14.9992 20.3139 14.9992 20.336V20.667C14.732 20.6749 14.683 20.6514 14.6507 20.5468Z" fill="#D9DADB"/>
<path d="M14.5842 20.8375V20.1663H13.5657V20.8375H14.5842Z" fill="black"/>
<path d="M13.2591 20.5088H12.8528" stroke="black" stroke-width="0.198344"/>
<path d="M9.66132 24.0767V24.8167H10.6194V24.0767H9.66132Z" fill="#696C6E"/>
<path d="M9.66132 24.0767V24.8167H10.6194V24.0767H9.66132Z" fill="#D1D3D4"/>
<path d="M9.66132 24.077H10.6197V24.817H10.3829C10.3829 24.817 10.481 24.7247 10.481 24.3907C10.481 24.0567 10.2629 24.0971 10.013 24.0971C9.7631 24.0971 9.66132 24.077 9.66132 24.077Z" fill="#C1C4C6"/>
<path d="M10.3573 24.3881C10.398 24.4849 10.4001 24.7577 10.284 24.8167H9.66132V24.2135C10.195 24.2016 10.293 24.2354 10.3573 24.3881Z" fill="#D9DADB"/>
<path d="M10.6194 24.3834V24.3972H10.4366V24.4467H9.85162V24.3972H9.78483V24.4467H9.66132V24.4329H9.77099V24.3834H9.86547V24.4329H10.4227V24.3834H10.6194Z" fill="#E5E8EA"/>
<path d="M10.6194 24.3903V24.404H10.4366V24.4535H9.85162V24.404H9.78483V24.4535H9.66132V24.4397H9.77099V24.3903H9.86547V24.4397H10.4227V24.3903H10.6194Z" fill="#ADB1B2"/>
<path opacity="0.7" d="M10.6194 24.8167H9.66132V24.0767L9.6812 24.7955L10.6194 24.8167Z" fill="#E5E8EA"/>
<path d="M9.97322 24.5516V24.7236H10.1208V24.5516H9.97322Z" fill="#7E8183"/>
<path d="M9.97322 24.5948C10.0356 24.6053 10.086 24.6761 10.1147 24.7236H9.97322V24.5948Z" fill="#8E9192"/>
<path d="M10.0142 24.5516H10.1217V24.6744C10.1002 24.6373 10.0612 24.5821 10.0142 24.5516Z" fill="#696C6E"/>
<path d="M9.97409 24.7236V24.5517H10.1217V24.7236L10.1256 24.5484H9.97073L9.97409 24.7236Z" fill="#E5E8EA"/>
<path opacity="0.7" d="M9.97322 24.7039V24.7236H10.1208V24.7039H9.97322Z" fill="#696C6E"/>
<path d="M9.97322 24.1773V24.3493H10.1208V24.1773H9.97322Z" fill="#7E8183"/>
<path d="M9.97322 24.2204C10.0356 24.2308 10.086 24.3017 10.1147 24.3493H9.97322V24.2204Z" fill="#8E9192"/>
<path d="M10.0142 24.177H10.1217V24.2998C10.1002 24.2628 10.0612 24.2077 10.0142 24.177Z" fill="#696C6E"/>
<path d="M9.97409 24.3493V24.1773H10.1217V24.3493L10.1256 24.1739H9.97073L9.97409 24.3493Z" fill="#E5E8EA"/>
<path opacity="0.7" d="M9.97322 24.3295V24.3493H10.1208V24.3295H9.97322Z" fill="#696C6E"/>
<path d="M10.5262 23.9075V24.9997H12.0093V23.9075H10.5262Z" fill="black"/>
<path opacity="0.6" d="M12.0093 24.9901V24.9997H10.5262V24.3439C11.4069 24.3088 11.8482 24.7678 12.0093 24.9901Z" fill="black"/>
<path d="M10.5262 24.8168V24.9997H12.0093V24.8168H10.5262Z" fill="black"/>
<path opacity="0.6" d="M10.5262 23.9075V24.0767H12.0093V23.9075H10.5262Z" fill="black"/>
<path opacity="0.6" d="M10.5262 24.0768C10.5262 24.0768 11.6869 24.0221 11.802 23.9076H12.0093V24.0768H10.5262Z" fill="black"/>
<path opacity="0.3" d="M12.0093 24.9997C12.0093 24.9997 10.9776 24.8974 10.7796 24.8168H10.5262V24.9997H12.0093Z" fill="black"/>
<path d="M12.0099 24.2523H12.3624C12.3742 24.2523 12.3858 24.2546 12.3968 24.2591C12.4077 24.2635 12.4176 24.2701 12.4259 24.2784C12.4343 24.2867 12.4409 24.2966 12.4454 24.3074C12.4499 24.3183 12.4522 24.3299 12.4522 24.3416V24.6892C12.4522 24.7009 12.4499 24.7126 12.4454 24.7234C12.4409 24.7343 12.4343 24.7441 12.4259 24.7524C12.4176 24.7607 12.4077 24.7673 12.3968 24.7718C12.3859 24.7763 12.3742 24.7786 12.3624 24.7786H12.0099V24.2523Z" fill="black"/>
<path d="M12.4522 24.6206C12.4522 24.6323 12.4499 24.6439 12.4454 24.6548C12.4409 24.6656 12.4343 24.6755 12.4259 24.6838C12.4176 24.6921 12.4077 24.6987 12.3968 24.7032C12.3859 24.7077 12.3742 24.71 12.3624 24.71H12.0099V24.394C12.2136 24.381 12.3839 24.4608 12.4521 24.5698L12.4522 24.6206Z" fill="black"/>
<path d="M12.9007 24.5114H12.2913" stroke="black" stroke-width="0.198344"/>
<path d="M12.9007 24.6121L12.9 20.4077" stroke="black" stroke-width="0.198344"/>
<circle cx="27.0837" cy="9.28178" r="1.44807" fill="#333333"/>
<path d="M27.9771 9.12715C28.0615 9.44747 27.9209 9.88275 27.5685 10.1024C27.2287 10.3142 26.7846 10.2882 26.48 10.0351C26.1661 9.7743 26.0599 9.35433 26.2094 8.97834C26.3385 8.65364 26.703 8.34131 27.2249 8.4107C27.2429 8.34912 27.261 8.28693 27.2812 8.21753L27.6706 8.65177L27.1102 8.82045C27.1282 8.75553 27.144 8.69854 27.1627 8.63122C27.1083 8.63122 27.0568 8.62578 27.0069 8.63212C26.7141 8.66931 26.5044 8.82197 26.4113 9.10123C26.2527 9.57685 26.6094 10.011 27.0585 10.0161C27.4208 10.0202 27.7204 9.7628 27.7652 9.40499C27.7735 9.33856 27.7628 9.26955 27.7582 9.20191C27.7569 9.1827 27.7555 9.16943 27.7781 9.16517C27.8437 9.15282 27.9093 9.14015 27.9771 9.12715Z" fill="white"/>
<path d="M10.0026 12.8566H9.77656V12.7653H10.0026C10.0464 12.7653 10.0818 12.7584 10.1089 12.7444C10.1361 12.7305 10.1558 12.7111 10.1682 12.6863C10.181 12.6615 10.1874 12.6332 10.1874 12.6015C10.1874 12.5724 10.181 12.5451 10.1682 12.5195C10.1558 12.494 10.1361 12.4734 10.1089 12.4579C10.0818 12.442 10.0464 12.4341 10.0026 12.4341H9.80271V13.1884H9.69056V12.3423H10.0026C10.0665 12.3423 10.1206 12.3533 10.1647 12.3754C10.2089 12.3975 10.2424 12.4281 10.2652 12.4672C10.2881 12.506 10.2995 12.5503 10.2995 12.6003C10.2995 12.6545 10.2881 12.7008 10.2652 12.7392C10.2424 12.7775 10.2089 12.8068 10.1647 12.8269C10.1206 12.8467 10.0665 12.8566 10.0026 12.8566ZM10.3884 12.881V12.8676C10.3884 12.8223 10.395 12.7802 10.4082 12.7415C10.4214 12.7024 10.4404 12.6685 10.4651 12.6398C10.4899 12.6108 10.52 12.5883 10.5552 12.5724C10.5905 12.5561 10.63 12.548 10.6738 12.548C10.7179 12.548 10.7576 12.5561 10.7929 12.5724C10.8285 12.5883 10.8587 12.6108 10.8835 12.6398C10.9087 12.6685 10.9279 12.7024 10.9411 12.7415C10.9542 12.7802 10.9608 12.8223 10.9608 12.8676V12.881C10.9608 12.9263 10.9542 12.9683 10.9411 13.0071C10.9279 13.0458 10.9087 13.0797 10.8835 13.1087C10.8587 13.1374 10.8287 13.1599 10.7935 13.1762C10.7586 13.192 10.7191 13.2 10.6749 13.2C10.6308 13.2 10.591 13.192 10.5558 13.1762C10.5205 13.1599 10.4903 13.1374 10.4651 13.1087C10.4404 13.0797 10.4214 13.0458 10.4082 13.0071C10.395 12.9683 10.3884 12.9263 10.3884 12.881ZM10.4959 12.8676V12.881C10.4959 12.9123 10.4996 12.942 10.507 12.9699C10.5143 12.9974 10.5254 13.0218 10.5401 13.0431C10.5552 13.0644 10.574 13.0812 10.5965 13.0936C10.6189 13.1056 10.6451 13.1117 10.6749 13.1117C10.7044 13.1117 10.7301 13.1056 10.7522 13.0936C10.7747 13.0812 10.7933 13.0644 10.808 13.0431C10.8227 13.0218 10.8337 12.9974 10.8411 12.9699C10.8489 12.942 10.8527 12.9123 10.8527 12.881V12.8676C10.8527 12.8366 10.8489 12.8074 10.8411 12.7799C10.8337 12.752 10.8225 12.7274 10.8074 12.7061C10.7927 12.6844 10.7741 12.6673 10.7516 12.6549C10.7295 12.6425 10.7036 12.6363 10.6738 12.6363C10.6443 12.6363 10.6184 12.6425 10.5959 12.6549C10.5738 12.6673 10.5552 12.6844 10.5401 12.7061C10.5254 12.7274 10.5143 12.752 10.507 12.7799C10.4996 12.8074 10.4959 12.8366 10.4959 12.8676ZM11.2548 13.0768L11.4164 12.5596H11.4873L11.4733 12.6625L11.3089 13.1884H11.2397L11.2548 13.0768ZM11.1462 12.5596L11.2839 13.0826L11.2938 13.1884H11.2211L11.0387 12.5596H11.1462ZM11.6418 13.0785L11.7732 12.5596H11.8801L11.6976 13.1884H11.6256L11.6418 13.0785ZM11.503 12.5596L11.661 13.0681L11.679 13.1884H11.6105L11.4414 12.6613L11.4274 12.5596H11.503ZM12.2514 13.2C12.2076 13.2 12.1679 13.1926 12.1323 13.1779C12.097 13.1628 12.0666 13.1417 12.041 13.1146C12.0159 13.0874 11.9965 13.0553 11.9829 13.0181C11.9694 12.9809 11.9626 12.9402 11.9626 12.8961V12.8717C11.9626 12.8205 11.9702 12.775 11.9853 12.7351C12.0004 12.6948 12.0209 12.6607 12.0469 12.6328C12.0728 12.6049 12.1023 12.5838 12.1352 12.5695C12.1681 12.5552 12.2022 12.548 12.2375 12.548C12.2824 12.548 12.3211 12.5557 12.3537 12.5712C12.3866 12.5867 12.4135 12.6084 12.4344 12.6363C12.4554 12.6638 12.4709 12.6964 12.4809 12.7339C12.491 12.7711 12.496 12.8118 12.496 12.856V12.9042H12.0265V12.8165H12.3885V12.8083C12.387 12.7804 12.3812 12.7533 12.3711 12.727C12.3614 12.7006 12.3459 12.6789 12.3246 12.6619C12.3033 12.6448 12.2743 12.6363 12.2375 12.6363C12.2131 12.6363 12.1906 12.6416 12.1701 12.652C12.1495 12.6621 12.1319 12.6772 12.1172 12.6973C12.1025 12.7175 12.091 12.7421 12.0829 12.7711C12.0748 12.8002 12.0707 12.8337 12.0707 12.8717V12.8961C12.0707 12.9259 12.0748 12.954 12.0829 12.9803C12.0914 13.0063 12.1036 13.0291 12.1195 13.0489C12.1358 13.0687 12.1553 13.0841 12.1782 13.0954C12.2014 13.1066 12.2278 13.1122 12.2572 13.1122C12.2952 13.1122 12.3273 13.1045 12.3537 13.089C12.38 13.0735 12.4031 13.0528 12.4228 13.0268L12.4879 13.0785C12.4743 13.0991 12.4571 13.1186 12.4362 13.1372C12.4153 13.1558 12.3895 13.1709 12.3589 13.1825C12.3287 13.1942 12.2929 13.2 12.2514 13.2ZM12.7291 12.6584V13.1884H12.6216V12.5596H12.7262L12.7291 12.6584ZM12.9255 12.5561L12.9249 12.6561C12.916 12.6541 12.9074 12.653 12.8993 12.6526C12.8916 12.6518 12.8827 12.6514 12.8726 12.6514C12.8478 12.6514 12.8259 12.6553 12.8069 12.6631C12.7879 12.6708 12.7719 12.6816 12.7587 12.6956C12.7455 12.7095 12.7351 12.7262 12.7273 12.7456C12.72 12.7645 12.7151 12.7855 12.7128 12.8083L12.6826 12.8258C12.6826 12.7878 12.6862 12.7522 12.6936 12.7188C12.7014 12.6855 12.7132 12.6561 12.7291 12.6305C12.7449 12.6046 12.7651 12.5844 12.7895 12.5701C12.8143 12.5554 12.8437 12.548 12.8778 12.548C12.8856 12.548 12.8945 12.549 12.9045 12.5509C12.9146 12.5525 12.9216 12.5542 12.9255 12.5561ZM13.6379 12.7926H13.4235L13.4223 12.7026H13.617C13.6491 12.7026 13.6772 12.6971 13.7012 12.6863C13.7252 12.6754 13.7438 12.66 13.757 12.6398C13.7706 12.6193 13.7773 12.5949 13.7773 12.5666C13.7773 12.5356 13.7713 12.5104 13.7593 12.4911C13.7477 12.4713 13.7297 12.457 13.7053 12.4481C13.6813 12.4388 13.6507 12.4341 13.6135 12.4341H13.4484V13.1884H13.3363V12.3423H13.6135C13.6569 12.3423 13.6956 12.3467 13.7297 12.3557C13.7638 12.3642 13.7926 12.3777 13.8163 12.3963C13.8403 12.4145 13.8585 12.4378 13.8709 12.4661C13.8833 12.4943 13.8895 12.5282 13.8895 12.5678C13.8895 12.6026 13.8806 12.6342 13.8628 12.6625C13.8449 12.6904 13.8201 12.7132 13.7884 12.731C13.757 12.7489 13.7202 12.7603 13.678 12.7653L13.6379 12.7926ZM13.6326 13.1884H13.3793L13.4426 13.0971H13.6326C13.6683 13.0971 13.6985 13.0909 13.7233 13.0785C13.7485 13.0661 13.7676 13.0487 13.7808 13.0262C13.794 13.0034 13.8006 12.9765 13.8006 12.9455C13.8006 12.9141 13.795 12.887 13.7837 12.8641C13.7725 12.8413 13.7549 12.8236 13.7308 12.8112C13.7068 12.7988 13.6758 12.7926 13.6379 12.7926H13.4781L13.4792 12.7026H13.6977L13.7216 12.7351C13.7622 12.7386 13.7967 12.7502 13.825 12.77C13.8533 12.7893 13.8748 12.8141 13.8895 12.8444C13.9046 12.8746 13.9121 12.9079 13.9121 12.9443C13.9121 12.997 13.9005 13.0415 13.8773 13.0779C13.8544 13.114 13.8221 13.1415 13.7802 13.1605C13.7384 13.1791 13.6892 13.1884 13.6326 13.1884ZM14.4462 13.0431V12.5596H14.5542V13.1884H14.4514L14.4462 13.0431ZM14.4665 12.9106L14.5112 12.9094C14.5112 12.9513 14.5068 12.99 14.4979 13.0257C14.4894 13.0609 14.4754 13.0915 14.456 13.1175C14.4367 13.1434 14.4113 13.1638 14.3799 13.1785C14.3485 13.1928 14.3104 13.2 14.2654 13.2C14.2348 13.2 14.2068 13.1955 14.1812 13.1866C14.156 13.1777 14.1343 13.1639 14.1161 13.1454C14.0979 13.1268 14.0838 13.1025 14.0737 13.0727C14.064 13.0429 14.0592 13.0071 14.0592 12.9652V12.5596H14.1667V12.9664C14.1667 12.9947 14.1698 13.0181 14.176 13.0367C14.1825 13.0549 14.1913 13.0694 14.2021 13.0803C14.2133 13.0907 14.2257 13.0981 14.2393 13.1024C14.2532 13.1066 14.2676 13.1087 14.2823 13.1087C14.328 13.1087 14.3642 13.1 14.391 13.0826C14.4177 13.0648 14.4369 13.041 14.4485 13.0111C14.4605 12.9809 14.4665 12.9474 14.4665 12.9106ZM14.9813 12.5596V12.6421H14.6414V12.5596H14.9813ZM14.7565 12.4068H14.864V13.0326C14.864 13.0539 14.8673 13.07 14.8738 13.0809C14.8804 13.0917 14.889 13.0989 14.8994 13.1024C14.9099 13.1058 14.9211 13.1076 14.9331 13.1076C14.942 13.1076 14.9513 13.1068 14.961 13.1053C14.9711 13.1033 14.9786 13.1018 14.9837 13.1006L14.9843 13.1884C14.9757 13.1911 14.9645 13.1936 14.9505 13.1959C14.937 13.1986 14.9205 13.2 14.9012 13.2C14.8748 13.2 14.8506 13.1947 14.8285 13.1843C14.8064 13.1738 14.7888 13.1564 14.7756 13.132C14.7629 13.1072 14.7565 13.0739 14.7565 13.032V12.4068ZM15.3707 12.5596V12.6421H15.0307V12.5596H15.3707ZM15.1458 12.4068H15.2533V13.0326C15.2533 13.0539 15.2566 13.07 15.2632 13.0809C15.2698 13.0917 15.2783 13.0989 15.2887 13.1024C15.2992 13.1058 15.3104 13.1076 15.3224 13.1076C15.3314 13.1076 15.3407 13.1068 15.3503 13.1053C15.3604 13.1033 15.368 13.1018 15.373 13.1006L15.3736 13.1884C15.3651 13.1911 15.3538 13.1936 15.3399 13.1959C15.3263 13.1986 15.3099 13.2 15.2905 13.2C15.2641 13.2 15.2399 13.1947 15.2178 13.1843C15.1958 13.1738 15.1781 13.1564 15.165 13.132C15.1522 13.1072 15.1458 13.0739 15.1458 13.032V12.4068ZM15.4567 12.881V12.8676C15.4567 12.8223 15.4633 12.7802 15.4764 12.7415C15.4896 12.7024 15.5086 12.6685 15.5334 12.6398C15.5582 12.6108 15.5882 12.5883 15.6234 12.5724C15.6587 12.5561 15.6982 12.548 15.742 12.548C15.7861 12.548 15.8259 12.5561 15.8611 12.5724C15.8967 12.5883 15.927 12.6108 15.9518 12.6398C15.9769 12.6685 15.9961 12.7024 16.0093 12.7415C16.0225 12.7802 16.029 12.8223 16.029 12.8676V12.881C16.029 12.9263 16.0225 12.9683 16.0093 13.0071C15.9961 13.0458 15.9769 13.0797 15.9518 13.1087C15.927 13.1374 15.8969 13.1599 15.8617 13.1762C15.8268 13.192 15.7873 13.2 15.7431 13.2C15.699 13.2 15.6593 13.192 15.624 13.1762C15.5888 13.1599 15.5586 13.1374 15.5334 13.1087C15.5086 13.0797 15.4896 13.0458 15.4764 13.0071C15.4633 12.9683 15.4567 12.9263 15.4567 12.881ZM15.5642 12.8676V12.881C15.5642 12.9123 15.5679 12.942 15.5752 12.9699C15.5826 12.9974 15.5936 13.0218 15.6083 13.0431C15.6234 13.0644 15.6422 13.0812 15.6647 13.0936C15.6872 13.1056 15.7133 13.1117 15.7431 13.1117C15.7726 13.1117 15.7984 13.1056 15.8204 13.0936C15.8429 13.0812 15.8615 13.0644 15.8762 13.0431C15.8909 13.0218 15.902 12.9974 15.9093 12.9699C15.9171 12.942 15.921 12.9123 15.921 12.881V12.8676C15.921 12.8366 15.9171 12.8074 15.9093 12.7799C15.902 12.752 15.8907 12.7274 15.8756 12.7061C15.8609 12.6844 15.8423 12.6673 15.8199 12.6549C15.7978 12.6425 15.7718 12.6363 15.742 12.6363C15.7125 12.6363 15.6866 12.6425 15.6641 12.6549C15.642 12.6673 15.6234 12.6844 15.6083 12.7061C15.5936 12.7274 15.5826 12.752 15.5752 12.7799C15.5679 12.8074 15.5642 12.8366 15.5642 12.8676ZM16.2714 12.6939V13.1884H16.1639V12.5596H16.2655L16.2714 12.6939ZM16.2458 12.8502L16.201 12.8484C16.2014 12.8054 16.2078 12.7657 16.2202 12.7293C16.2326 12.6925 16.2501 12.6605 16.2725 12.6334C16.295 12.6063 16.3217 12.5854 16.3527 12.5707C16.3841 12.5556 16.4188 12.548 16.4567 12.548C16.4877 12.548 16.5156 12.5523 16.5404 12.5608C16.5652 12.5689 16.5863 12.5821 16.6037 12.6003C16.6216 12.6185 16.6351 12.6421 16.6444 12.6712C16.6537 12.6999 16.6584 12.7349 16.6584 12.7764V13.1884H16.5503V12.7752C16.5503 12.7423 16.5454 12.7159 16.5358 12.6962C16.5261 12.676 16.5119 12.6615 16.4933 12.6526C16.4747 12.6433 16.4519 12.6386 16.4248 12.6386C16.398 12.6386 16.3736 12.6443 16.3515 12.6555C16.3299 12.6667 16.3111 12.6822 16.2952 12.702C16.2797 12.7217 16.2675 12.7444 16.2586 12.77C16.2501 12.7952 16.2458 12.8219 16.2458 12.8502Z" fill="black"/>
<path d="M29.4513 28.707V29.0167C29.4408 29.0322 29.4242 29.0496 29.4013 29.069C29.3785 29.088 29.3469 29.1046 29.3066 29.119C29.2667 29.1329 29.2152 29.1399 29.152 29.1399C29.1005 29.1399 29.053 29.131 29.0097 29.1132C28.9667 29.0949 28.9293 29.0686 28.8975 29.0341C28.8661 28.9993 28.8417 28.957 28.8243 28.9075C28.8072 28.8575 28.7987 28.8009 28.7987 28.7378V28.6721C28.7987 28.609 28.8061 28.5526 28.8208 28.503C28.8359 28.4534 28.858 28.4114 28.887 28.3769C28.9161 28.3421 28.9517 28.3157 28.994 28.2979C29.0362 28.2797 29.0846 28.2706 29.1392 28.2706C29.2039 28.2706 29.258 28.2818 29.3014 28.3043C29.3451 28.3264 29.3792 28.357 29.4036 28.3961C29.4284 28.4352 29.4443 28.4798 29.4513 28.5297H29.3391C29.3341 28.4991 29.324 28.4713 29.3089 28.4461C29.2942 28.4209 29.2731 28.4007 29.2456 28.3856C29.2181 28.3701 29.1826 28.3624 29.1392 28.3624C29.1001 28.3624 29.0662 28.3696 29.0375 28.3839C29.0089 28.3982 28.9853 28.4188 28.9667 28.4455C28.9481 28.4722 28.9341 28.5046 28.9248 28.5425C28.9159 28.5805 28.9115 28.6233 28.9115 28.671V28.7378C28.9115 28.7866 28.9171 28.8302 28.9283 28.8685C28.9399 28.9069 28.9564 28.9396 28.9777 28.9667C28.999 28.9935 29.0244 29.0138 29.0538 29.0277C29.0836 29.0417 29.1166 29.0487 29.1526 29.0487C29.1925 29.0487 29.2249 29.0454 29.2496 29.0388C29.2744 29.0318 29.2938 29.0237 29.3078 29.0144C29.3217 29.0047 29.3324 28.9956 29.3397 28.9871V28.7976H29.1439V28.707H29.4513ZM29.9493 28.7965H29.7232V28.7052H29.9493C29.993 28.7052 30.0285 28.6983 30.0556 28.6843C30.0827 28.6704 30.1025 28.651 30.1149 28.6262C30.1277 28.6014 30.1341 28.5731 30.1341 28.5414C30.1341 28.5123 30.1277 28.485 30.1149 28.4594C30.1025 28.4339 30.0827 28.4133 30.0556 28.3978C30.0285 28.382 29.993 28.374 29.9493 28.374H29.7494V29.1283H29.6372V28.2822H29.9493C30.0132 28.2822 30.0672 28.2932 30.1114 28.3153C30.1556 28.3374 30.1891 28.368 30.2119 28.4071C30.2348 28.4459 30.2462 28.4902 30.2462 28.5402C30.2462 28.5944 30.2348 28.6407 30.2119 28.6791C30.1891 28.7174 30.1556 28.7467 30.1114 28.7668C30.0672 28.7866 30.0132 28.7965 29.9493 28.7965ZM30.8389 28.9144C30.8389 28.8947 30.8358 28.8772 30.8296 28.8621C30.8238 28.8466 30.8133 28.8327 30.7982 28.8203C30.7835 28.8079 30.763 28.7961 30.7366 28.7848C30.7107 28.7736 30.6778 28.7622 30.6379 28.7506C30.596 28.7382 30.5583 28.7244 30.5245 28.7093C30.4908 28.6938 30.462 28.6762 30.438 28.6564C30.4139 28.6367 30.3955 28.614 30.3828 28.5884C30.37 28.5629 30.3636 28.5336 30.3636 28.5007C30.3636 28.4678 30.3704 28.4374 30.3839 28.4095C30.3975 28.3816 30.4169 28.3574 30.442 28.3368C30.4676 28.3159 30.498 28.2996 30.5333 28.288C30.5685 28.2764 30.6078 28.2706 30.6512 28.2706C30.7148 28.2706 30.7686 28.2828 30.8128 28.3072C30.8573 28.3312 30.8912 28.3628 30.9145 28.4019C30.9377 28.4406 30.9493 28.4821 30.9493 28.5263H30.8378C30.8378 28.4945 30.831 28.4664 30.8174 28.442C30.8039 28.4172 30.7833 28.3978 30.7558 28.3839C30.7283 28.3696 30.6935 28.3624 30.6512 28.3624C30.6113 28.3624 30.5784 28.3684 30.5524 28.3804C30.5265 28.3924 30.5071 28.4087 30.4943 28.4292C30.4819 28.4498 30.4757 28.4732 30.4757 28.4995C30.4757 28.5174 30.4794 28.5336 30.4868 28.5483C30.4945 28.5627 30.5063 28.576 30.5222 28.5884C30.5385 28.6008 30.559 28.6123 30.5838 28.6227C30.609 28.6332 30.639 28.6433 30.6739 28.6529C30.7219 28.6665 30.7634 28.6816 30.7982 28.6983C30.8331 28.7149 30.8618 28.7337 30.8842 28.7546C30.9071 28.7752 30.9239 28.7986 30.9348 28.8249C30.946 28.8509 30.9516 28.8803 30.9516 28.9133C30.9516 28.9477 30.9447 28.9789 30.9307 29.0068C30.9168 29.0347 30.8968 29.0585 30.8709 29.0783C30.8449 29.098 30.8137 29.1134 30.7773 29.1242C30.7413 29.1347 30.701 29.1399 30.6565 29.1399C30.6173 29.1399 30.5788 29.1345 30.5408 29.1236C30.5032 29.1128 30.469 29.0965 30.438 29.0748C30.4074 29.0531 30.3828 29.0264 30.3642 28.9946C30.346 28.9625 30.3369 28.9253 30.3369 28.883H30.4484C30.4484 28.9121 30.454 28.9371 30.4653 28.958C30.4765 28.9785 30.4918 28.9956 30.5112 29.0091C30.5309 29.0227 30.5532 29.0328 30.578 29.0394C30.6032 29.0456 30.6293 29.0487 30.6565 29.0487C30.6956 29.0487 30.7287 29.0432 30.7558 29.0324C30.7829 29.0215 30.8035 29.006 30.8174 28.9859C30.8318 28.9658 30.8389 28.9419 30.8389 28.9144ZM31.703 28.3572L31.4229 29.1283H31.3084L31.6309 28.2822H31.7047L31.703 28.3572ZM31.9378 29.1283L31.6571 28.3572L31.6553 28.2822H31.7291L32.0528 29.1283H31.9378ZM31.9232 28.8151V28.9069H31.4479V28.8151H31.9232ZM32.2573 28.6338V29.1283H32.1498V28.4995H32.2515L32.2573 28.6338ZM32.2318 28.7901L32.187 28.7883C32.1874 28.7453 32.1938 28.7056 32.2062 28.6692C32.2186 28.6324 32.236 28.6004 32.2585 28.5733C32.281 28.5462 32.3077 28.5253 32.3387 28.5106C32.3701 28.4955 32.4048 28.4879 32.4427 28.4879C32.4737 28.4879 32.5016 28.4922 32.5264 28.5007C32.5512 28.5088 32.5723 28.522 32.5897 28.5402C32.6075 28.5584 32.6211 28.582 32.6304 28.6111C32.6397 28.6398 32.6444 28.6748 32.6444 28.7163V29.1283H32.5363V28.7151C32.5363 28.6822 32.5314 28.6558 32.5217 28.6361C32.5121 28.6159 32.4979 28.6014 32.4793 28.5925C32.4607 28.5832 32.4379 28.5786 32.4108 28.5786C32.384 28.5786 32.3596 28.5842 32.3375 28.5954C32.3158 28.6066 32.2971 28.6221 32.2812 28.6419C32.2657 28.6617 32.2535 28.6843 32.2446 28.7099C32.236 28.7351 32.2318 28.7618 32.2318 28.7901ZM33.0709 28.4995V28.582H32.7309V28.4995H33.0709ZM32.846 28.3467H32.9535V28.9725C32.9535 28.9938 32.9568 29.0099 32.9634 29.0208C32.97 29.0316 32.9785 29.0388 32.9889 29.0423C32.9994 29.0458 33.0106 29.0475 33.0226 29.0475C33.0315 29.0475 33.0408 29.0467 33.0505 29.0452C33.0606 29.0432 33.0682 29.0417 33.0732 29.0405L33.0738 29.1283C33.0653 29.131 33.054 29.1335 33.0401 29.1358C33.0265 29.1385 33.01 29.1399 32.9907 29.1399C32.9643 29.1399 32.9401 29.1347 32.918 29.1242C32.896 29.1137 32.8783 29.0963 32.8652 29.0719C32.8524 29.0471 32.846 29.0138 32.846 28.972V28.3467ZM33.4579 29.1399C33.4141 29.1399 33.3744 29.1325 33.3387 29.1178C33.3035 29.1027 33.2731 29.0816 33.2475 29.0545C33.2223 29.0274 33.203 28.9952 33.1894 28.958C33.1759 28.9208 33.1691 28.8801 33.1691 28.836V28.8116C33.1691 28.7604 33.1766 28.7149 33.1917 28.675C33.2068 28.6347 33.2274 28.6006 33.2533 28.5727C33.2793 28.5449 33.3087 28.5237 33.3417 28.5094C33.3746 28.4951 33.4087 28.4879 33.4439 28.4879C33.4889 28.4879 33.5276 28.4957 33.5601 28.5112C33.5931 28.5266 33.62 28.5483 33.6409 28.5762C33.6618 28.6037 33.6773 28.6363 33.6874 28.6739C33.6975 28.711 33.7025 28.7517 33.7025 28.7959V28.8441H33.233V28.7564H33.595V28.7482C33.5935 28.7203 33.5876 28.6932 33.5776 28.6669C33.5679 28.6405 33.5524 28.6188 33.5311 28.6018C33.5098 28.5848 33.4807 28.5762 33.4439 28.5762C33.4195 28.5762 33.3971 28.5815 33.3765 28.5919C33.356 28.602 33.3384 28.6171 33.3236 28.6372C33.3089 28.6574 33.2975 28.682 33.2894 28.711C33.2812 28.7401 33.2772 28.7736 33.2772 28.8116V28.836C33.2772 28.8658 33.2812 28.8939 33.2894 28.9202C33.2979 28.9462 33.3101 28.969 33.326 28.9888C33.3422 29.0086 33.3618 29.0241 33.3847 29.0353C33.4079 29.0465 33.4342 29.0521 33.4637 29.0521C33.5016 29.0521 33.5338 29.0444 33.5601 29.0289C33.5865 29.0134 33.6095 28.9927 33.6293 28.9667L33.6944 29.0184C33.6808 29.039 33.6636 29.0585 33.6427 29.0771C33.6217 29.0957 33.596 29.1108 33.5654 29.1225C33.5352 29.1341 33.4993 29.1399 33.4579 29.1399ZM33.9355 28.6338V29.1283H33.828V28.4995H33.9297L33.9355 28.6338ZM33.91 28.7901L33.8652 28.7883C33.8656 28.7453 33.872 28.7056 33.8844 28.6692C33.8968 28.6324 33.9142 28.6004 33.9367 28.5733C33.9592 28.5462 33.9859 28.5253 34.0169 28.5106C34.0483 28.4955 34.0829 28.4879 34.1209 28.4879C34.1519 28.4879 34.1798 28.4922 34.2046 28.5007C34.2294 28.5088 34.2505 28.522 34.2679 28.5402C34.2857 28.5584 34.2993 28.582 34.3086 28.6111C34.3179 28.6398 34.3225 28.6748 34.3225 28.7163V29.1283H34.2144V28.7151C34.2144 28.6822 34.2096 28.6558 34.1999 28.6361C34.1902 28.6159 34.1761 28.6014 34.1575 28.5925C34.1389 28.5832 34.116 28.5786 34.0889 28.5786C34.0622 28.5786 34.0378 28.5842 34.0157 28.5954C33.994 28.6066 33.9752 28.6221 33.9593 28.6419C33.9439 28.6617 33.9317 28.6843 33.9227 28.7099C33.9142 28.7351 33.91 28.7618 33.91 28.7901ZM34.5933 28.6338V29.1283H34.4858V28.4995H34.5875L34.5933 28.6338ZM34.5677 28.7901L34.523 28.7883C34.5234 28.7453 34.5298 28.7056 34.5422 28.6692C34.5546 28.6324 34.572 28.6004 34.5945 28.5733C34.6169 28.5462 34.6437 28.5253 34.6747 28.5106C34.706 28.4955 34.7407 28.4879 34.7787 28.4879C34.8097 28.4879 34.8376 28.4922 34.8624 28.5007C34.8872 28.5088 34.9083 28.522 34.9257 28.5402C34.9435 28.5584 34.9571 28.582 34.9664 28.6111C34.9757 28.6398 34.9803 28.6748 34.9803 28.7163V29.1283H34.8722V28.7151C34.8722 28.6822 34.8674 28.6558 34.8577 28.6361C34.848 28.6159 34.8339 28.6014 34.8153 28.5925C34.7967 28.5832 34.7738 28.5786 34.7467 28.5786C34.72 28.5786 34.6956 28.5842 34.6735 28.5954C34.6518 28.6066 34.633 28.6221 34.6171 28.6419C34.6016 28.6617 34.5894 28.6843 34.5805 28.7099C34.572 28.7351 34.5677 28.7618 34.5677 28.7901ZM35.5143 29.0208V28.6971C35.5143 28.6723 35.5093 28.6508 35.4992 28.6326C35.4895 28.614 35.4748 28.5997 35.4551 28.5896C35.4353 28.5795 35.4109 28.5745 35.3818 28.5745C35.3547 28.5745 35.3309 28.5791 35.3104 28.5884C35.2902 28.5977 35.2743 28.6099 35.2627 28.625C35.2515 28.6402 35.2459 28.6564 35.2459 28.6739H35.1384C35.1384 28.6514 35.1442 28.6291 35.1558 28.607C35.1674 28.5849 35.1841 28.565 35.2058 28.5472C35.2279 28.529 35.2542 28.5146 35.2848 28.5042C35.3158 28.4933 35.3503 28.4879 35.3882 28.4879C35.434 28.4879 35.4742 28.4957 35.5091 28.5112C35.5444 28.5266 35.5719 28.5501 35.5916 28.5815C35.6118 28.6125 35.6218 28.6514 35.6218 28.6983V28.9911C35.6218 29.012 35.6236 29.0343 35.6271 29.058C35.6309 29.0816 35.6366 29.1019 35.6439 29.119V29.1283H35.5318C35.5263 29.1159 35.5221 29.0994 35.519 29.0789C35.5159 29.058 35.5143 29.0386 35.5143 29.0208ZM35.5329 28.7471L35.5341 28.8226H35.4254C35.3948 28.8226 35.3675 28.8251 35.3435 28.8302C35.3195 28.8348 35.2993 28.842 35.2831 28.8517C35.2668 28.8614 35.2544 28.8736 35.2459 28.8883C35.2374 28.9026 35.2331 28.9195 35.2331 28.9388C35.2331 28.9586 35.2375 28.9766 35.2465 28.9929C35.2554 29.0091 35.2687 29.0221 35.2866 29.0318C35.3048 29.0411 35.327 29.0458 35.3534 29.0458C35.3863 29.0458 35.4154 29.0388 35.4405 29.0248C35.4657 29.0109 35.4857 28.9938 35.5004 28.9737C35.5155 28.9536 35.5236 28.934 35.5248 28.915L35.5707 28.9667C35.568 28.983 35.5606 29.001 35.5486 29.0208C35.5366 29.0405 35.5205 29.0595 35.5004 29.0777C35.4806 29.0955 35.457 29.1104 35.4295 29.1225C35.4024 29.1341 35.3718 29.1399 35.3377 29.1399C35.2951 29.1399 35.2577 29.1316 35.2255 29.1149C35.1938 29.0982 35.169 29.076 35.1512 29.0481C35.1337 29.0198 35.125 28.9882 35.125 28.9534C35.125 28.9197 35.1316 28.89 35.1448 28.8645C35.1579 28.8385 35.1769 28.817 35.2017 28.8C35.2265 28.7825 35.2563 28.7693 35.2912 28.7604C35.3261 28.7515 35.365 28.7471 35.408 28.7471H35.5329Z" fill="black"/>
<path d="M15.7867 13.7467L15.7867 18.8964L16.5993 18.8964" stroke="#7DD1E8" stroke-width="0.198344" stroke-linecap="round" stroke-linejoin="round" stroke-dasharray="0.4 0.4"/>
<g clip-path="url(#clip0_1_2560)">
<path d="M13.1576 10.7299C13.9574 10.7299 14.6057 10.0815 14.6057 9.28179C14.6057 8.48204 13.9574 7.83371 13.1576 7.83371C12.3579 7.83371 11.7096 8.48204 11.7096 9.28179C11.7096 10.0815 12.3579 10.7299 13.1576 10.7299Z" fill="#333333"/>
<path d="M13.1576 10.1988C12.9963 10.1988 12.8379 10.1561 12.6985 10.075C12.5591 9.99396 12.4436 9.87746 12.3637 9.73733C12.2839 9.59721 12.2426 9.43845 12.2439 9.27719C12.2453 9.11592 12.2893 8.95789 12.3715 8.81914C12.4527 8.68258 12.5679 8.56943 12.7059 8.49075C12.7347 8.47434 12.7689 8.47005 12.8008 8.47881C12.8328 8.48758 12.86 8.50869 12.8764 8.53749C12.8928 8.5663 12.8971 8.60044 12.8883 8.63241C12.8796 8.66438 12.8584 8.69156 12.8296 8.70797C12.7278 8.76609 12.6431 8.85007 12.5842 8.95142C12.5252 9.05277 12.4941 9.16789 12.4939 9.28514C12.4939 9.65107 12.7916 9.9488 13.1576 9.9488C13.5235 9.9488 13.8213 9.65107 13.8213 9.28514C13.8211 9.16789 13.7899 9.05276 13.731 8.95141C13.672 8.85006 13.5873 8.76608 13.4855 8.70797C13.471 8.69997 13.4582 8.68917 13.4479 8.67619C13.4376 8.66322 13.43 8.64832 13.4255 8.63238C13.421 8.61644 13.4198 8.59976 13.4218 8.58332C13.4238 8.56687 13.429 8.551 13.4372 8.5366C13.4454 8.52221 13.4564 8.50959 13.4695 8.49948C13.4827 8.48937 13.4977 8.48196 13.5137 8.4777C13.5297 8.47343 13.5464 8.47239 13.5628 8.47463C13.5792 8.47687 13.595 8.48235 13.6093 8.49075C13.7496 8.57053 13.8663 8.68607 13.9474 8.82561C14.0286 8.96516 14.0713 9.12371 14.0713 9.28514C14.0713 9.40515 14.0478 9.52401 14.0019 9.63491C13.956 9.74581 13.8887 9.84657 13.8038 9.93144C13.719 10.0163 13.6182 10.0836 13.5073 10.1295C13.3964 10.1754 13.2775 10.199 13.1575 10.1989L13.1576 10.1988Z" fill="white"/>
<path d="M13.1568 9.17618C13.1403 9.17619 13.1241 9.17295 13.1089 9.16667C13.0938 9.16039 13.08 9.15118 13.0684 9.13957C13.0568 9.12797 13.0475 9.11418 13.0413 9.09901C13.035 9.08384 13.0317 9.06759 13.0318 9.05117V8.34901C13.0322 8.31618 13.0456 8.28486 13.069 8.26182C13.0924 8.23878 13.1239 8.22586 13.1568 8.22586C13.1896 8.22586 13.2211 8.23878 13.2445 8.26182C13.2679 8.28486 13.2813 8.31618 13.2818 8.34901V9.05117C13.2818 9.06758 13.2785 9.08384 13.2722 9.09901C13.266 9.11417 13.2568 9.12796 13.2452 9.13956C13.2335 9.15117 13.2198 9.16038 13.2046 9.16667C13.1894 9.17295 13.1732 9.17618 13.1568 9.17618Z" fill="white"/>
</g>
<path d="M22.6554 20.9287C22.3515 20.9287 22.0646 20.8602 21.8478 20.7358L17.3001 18.1296C17.0747 18.0003 16.9502 17.8254 16.9501 17.6378C16.9499 17.4502 17.0723 17.2774 17.2952 17.149L21.8129 14.5428C22.0286 14.4184 22.3147 14.3499 22.6188 14.3499C22.9228 14.3499 23.2094 14.4176 23.4261 14.5426L27.9738 17.1488C28.1994 17.2781 28.3239 17.453 28.3241 17.6406C28.3242 17.8283 28.2018 18.001 27.9789 18.1296L23.4612 20.7353C23.2457 20.8602 22.9595 20.9287 22.6554 20.9287ZM22.6188 14.4421C22.3308 14.4421 22.0613 14.5061 21.8596 14.6224L17.3418 17.2286C17.1488 17.34 17.0427 17.4853 17.0429 17.6378C17.043 17.7902 17.151 17.9376 17.3466 18.0497L21.8941 20.656C22.0973 20.7725 22.3675 20.8367 22.6554 20.8367C22.9433 20.8367 23.213 20.7727 23.4146 20.6562L27.9325 18.05C28.1254 17.9388 28.2314 17.7934 28.2313 17.641C28.2311 17.4885 28.1231 17.341 27.9273 17.2288L23.3798 14.6224C23.1769 14.5061 22.9067 14.4421 22.6188 14.4421Z" fill="#E5E5E5"/>
<path d="M27.9602 20.66L23.4403 23.2674C23.0089 23.5164 22.307 23.5164 21.8727 23.2674L17.323 20.6599C17.1045 20.5348 16.9956 20.3704 16.9959 20.2062L16.9923 21.459C16.9923 21.6231 17.101 21.7874 17.3194 21.9126L21.8691 24.5202C22.3035 24.7691 23.0053 24.7691 23.4367 24.5202L27.9567 21.9126C28.171 21.7891 28.2783 21.6271 28.2788 21.4651L28.2824 20.2125C28.2819 20.3746 28.1746 20.5363 27.9602 20.66Z" fill="#808285"/>
<path d="M27.9631 21.9281L23.4432 24.5356C23.0117 24.7844 22.3099 24.7844 21.8756 24.5356L17.3267 21.9281C17.1083 21.8028 16.9991 21.6385 16.9996 21.4744L16.996 22.727C16.996 22.8911 17.1047 23.0556 17.3231 23.1808L21.8727 25.7888C22.307 26.0378 23.0088 26.0378 23.4403 25.7888L27.9595 23.1808C28.1739 23.0571 28.2812 22.8953 28.2817 22.7332L28.2852 21.4805C28.2847 21.6426 28.1775 21.8045 27.9631 21.9281Z" fill="#231F20"/>
<path d="M22.6564 26.02C22.3525 26.02 22.0656 25.9514 21.8487 25.8272L17.3012 23.2208C17.0749 23.0912 16.9504 22.9166 16.9552 22.7273V21.4713H17.0475C17.0475 21.6297 17.1549 21.7764 17.351 21.889L21.8987 24.4953C22.1017 24.6116 22.3721 24.6757 22.66 24.6757C22.9479 24.6757 23.2174 24.6116 23.419 24.4953L27.9369 21.8891C28.1293 21.7781 28.2354 21.6334 28.2359 21.5139H28.3239V22.7339C28.3239 22.9198 28.202 23.0929 27.98 23.2208L23.4621 25.8272C23.2465 25.9514 22.9605 26.02 22.6564 26.02ZM17.041 21.7448L17.0381 22.7264C17.0381 22.8808 17.1457 23.0278 17.3422 23.1404L21.8945 25.7493C22.0976 25.8657 22.3683 25.9299 22.6566 25.9299C22.9448 25.9299 23.2145 25.8659 23.4164 25.7494L27.9389 23.1405C28.1313 23.0295 28.2376 22.8845 28.2381 22.7324L28.2408 21.7506C28.173 21.8393 28.0873 21.9129 27.9892 21.9669L23.4667 24.5758C23.2509 24.7002 22.9644 24.7688 22.6601 24.7688C22.3559 24.7688 22.0686 24.7012 21.8516 24.5758L17.2993 21.9669C17.1983 21.9119 17.1102 21.8362 17.041 21.7448Z" fill="#E5E5E5"/>
<path d="M22.6549 24.7519C22.3508 24.7519 22.0641 24.6843 21.8472 24.5591L17.2987 21.9522C17.0724 21.8224 16.9481 21.648 16.9527 21.4587V20.2032H17.045C17.045 20.3616 17.1524 20.5085 17.3487 20.6209L21.8962 23.2272C22.0993 23.3435 22.3697 23.4078 22.6576 23.4078C22.9455 23.4078 23.2151 23.3437 23.4167 23.2272L27.9346 20.621C28.1268 20.5102 28.2329 20.3653 28.2334 20.2458H28.3214V21.4658C28.3214 21.6517 28.1995 21.8248 27.9776 21.9529L23.4597 24.5591C23.2442 24.6835 22.958 24.7519 22.6549 24.7519ZM17.0385 20.4769L17.0363 21.4585C17.0363 21.6127 17.1437 21.7597 17.3402 21.8723L21.892 24.4813C22.0953 24.5978 22.3658 24.6618 22.6541 24.6618C22.9423 24.6618 23.2122 24.5978 23.4139 24.4813L27.9364 21.8724C28.129 21.7614 28.2352 21.6165 28.2356 21.4644L28.2385 20.4826C28.1707 20.5714 28.0849 20.645 27.9867 20.6988L23.4642 23.3077C23.2484 23.4323 22.9621 23.5007 22.6576 23.5007C22.3532 23.5007 22.0663 23.4331 21.8491 23.3079L17.297 20.6988C17.1959 20.6439 17.1078 20.5682 17.0385 20.4769Z" fill="#E5E5E5"/>
<path d="M27.9602 19.3612L23.4403 21.9691C23.0089 22.2181 22.307 22.2181 21.8727 21.9691L17.323 19.3611C17.1045 19.236 16.9956 19.0716 16.9959 18.9074L16.9923 20.1607C16.9923 20.3248 17.101 20.4891 17.3194 20.6143L21.8691 23.2214C22.3035 23.4703 23.0053 23.4703 23.4367 23.2214L27.9567 20.6138C28.171 20.4903 28.2783 20.3283 28.2788 20.1664L28.2824 18.9137C28.2819 19.0758 28.1746 19.2375 27.9602 19.3612Z" fill="#006B94"/>
<path d="M22.6523 23.4531C22.3484 23.4531 22.0615 23.3855 21.8446 23.2604L17.2971 20.654C17.0706 20.5242 16.9463 20.349 16.9528 20.1605V18.8831H17.0434C17.0434 19.0628 17.1506 19.2097 17.347 19.3226L21.8946 21.9289C22.0976 22.0454 22.368 22.1094 22.6559 22.1094C22.9438 22.1094 23.2133 22.0454 23.4149 21.9291L27.9331 19.3222C28.1254 19.2113 28.2316 19.0665 28.232 18.9257H28.3219V20.1669C28.3207 20.3529 28.1982 20.5259 27.9762 20.654L23.458 23.2602C23.2424 23.3846 22.9564 23.4531 22.6523 23.4531ZM17.0386 19.178L17.0364 20.1597C17.0364 20.314 17.1438 20.4609 17.3403 20.5734L21.8921 23.1825C22.0954 23.2989 22.3659 23.3632 22.6542 23.3632C22.9424 23.3632 23.2123 23.2989 23.4141 23.1825L27.9365 20.5736C28.1291 20.4626 28.2354 20.3177 28.2357 20.1656L28.2386 19.1838C28.1708 19.2726 28.085 19.3463 27.9868 19.4001L23.4643 22.0089C23.2486 22.1334 22.9622 22.202 22.6578 22.202C22.3533 22.202 22.0664 22.1334 21.8492 22.009L17.2971 19.4001C17.196 19.3452 17.1079 19.2695 17.0386 19.178Z" fill="#E5E5E5"/>
<path d="M27.9501 17.1888C28.3841 17.4376 28.3865 17.841 27.9552 18.0898L25.6967 19.3929L23.4382 20.696C23.0069 20.9448 22.3054 20.9448 21.8718 20.696L17.3241 18.0898C16.8903 17.841 16.8881 17.4377 17.3193 17.189L21.8359 14.5833C22.2671 14.3345 22.9688 14.3345 23.4023 14.5833L27.9501 17.1888Z" fill="white"/>
<path d="M27.2359 17.1846C27.6124 17.4004 27.6144 17.7503 27.2403 17.9661L23.3219 20.227C22.9474 20.4429 22.3392 20.4429 21.9627 20.227L18.0178 17.9661C17.6413 17.7503 17.6394 17.4004 18.0135 17.1846L21.9326 14.9239C22.3072 14.708 22.9152 14.708 23.2916 14.9239L27.2359 17.1846Z" fill="#562B82"/>
<path d="M26.0393 17.2862C26.318 17.4459 26.3196 17.7049 26.0425 17.8646L23.1416 19.5378C22.8646 19.6975 22.4143 19.6975 22.1354 19.5378L19.2154 17.8646C18.9367 17.7049 18.9353 17.4459 19.2122 17.2862L22.1132 15.613C22.3901 15.4533 22.8406 15.4533 23.1191 15.613L26.0393 17.2862Z" fill="#7DD1E8"/>
<path d="M27.9602 18.089L23.4403 20.6963C23.0089 20.9453 22.307 20.9453 21.8727 20.6963L17.323 18.089C17.1047 17.9636 16.9956 17.7993 16.9959 17.6352L16.9923 18.8879C16.9923 19.052 17.101 19.2165 17.3194 19.3415L21.8691 21.9491C22.3035 22.198 23.0053 22.198 23.4367 21.9491L27.9567 19.3417C28.171 19.218 28.2783 19.0562 28.2788 18.8941L28.2824 17.6414C28.2819 17.8035 28.1746 17.9652 27.9602 18.089Z" fill="white"/>
<path d="M22.6517 22.1808C22.3476 22.1808 22.0609 22.1132 21.844 21.9881L17.2963 19.3817C17.07 19.2521 16.9457 19.0775 16.9529 18.8882V17.6056H17.0426C17.0426 17.7905 17.15 17.9373 17.3463 18.0497L21.8938 20.6561C22.097 20.7725 22.3672 20.8368 22.6551 20.8368C22.943 20.8368 23.2125 20.7727 23.4141 20.6564L27.9322 18.0499C28.1244 17.939 28.2305 17.7942 28.231 17.6482H28.3216V18.8946C28.3197 19.0805 28.1971 19.2536 27.9752 19.3817L23.4574 21.9879C23.2418 22.1123 22.9556 22.1808 22.6517 22.1808ZM17.0387 17.9057L17.0365 18.8874C17.0365 19.0417 17.1439 19.1885 17.3404 19.3011L21.8921 21.9102C22.0954 22.0266 22.3656 22.0909 22.6551 22.0909C22.9445 22.0909 23.2132 22.0266 23.415 21.9102L27.9366 19.3013C28.1292 19.1902 28.2354 19.0454 28.2357 18.8933L28.2386 17.9115C28.1708 18.0002 28.0851 18.0739 27.9868 18.1276L23.4643 20.7367C23.2486 20.8611 22.9622 20.9297 22.6578 20.9297C22.3534 20.9297 22.0665 20.8611 21.8492 20.7367L17.2971 18.1276C17.196 18.0728 17.1079 17.9971 17.0387 17.9057Z" fill="#E5E5E5"/>
<path d="M17.9334 18.6455C17.8644 18.6049 17.8019 18.6016 17.7563 18.6277L17.5217 18.7671C17.566 18.7402 17.6295 18.744 17.6988 18.7846C17.836 18.8653 17.9465 19.0606 17.946 19.2212C17.946 19.301 17.9181 19.3573 17.8737 19.3836L18.1085 19.2445C18.1528 19.2182 18.1807 19.1619 18.1809 19.0819C18.1811 18.9209 18.0707 18.7262 17.9334 18.6455Z" fill="#4DC5DA"/>
<path d="M17.6986 18.7857C17.8359 18.8663 17.9463 19.0617 17.9459 19.2223C17.9455 19.3829 17.8341 19.4478 17.6971 19.3671C17.5601 19.2865 17.4492 19.0907 17.4496 18.9301C17.4501 18.7694 17.5616 18.7051 17.6986 18.7857Z" fill="#7DD1E8"/>
<ellipse cx="18.5822" cy="20.703" rx="0.291307" ry="0.504602" transform="rotate(155.533 18.5822 20.703)" fill="white"/>
<ellipse cx="18.5832" cy="20.7029" rx="0.213625" ry="0.370042" transform="rotate(155.533 18.5832 20.7029)" fill="black"/>
<path d="M27.5573 18.7074C27.4452 18.8212 27.3889 19.0393 27.4311 19.1949C27.4732 19.3505 27.598 19.3844 27.7099 19.2707C27.8218 19.1569 27.8784 18.9383 27.8363 18.7826C27.7941 18.627 27.6692 18.5936 27.5573 18.7074Z" fill="#7DD1E8"/>
<rect x="0.0306103" y="0.0530185" width="1.43936" height="0.306823" transform="matrix(0.866007 0.500033 3.77386e-05 1 18.6293 19.3041)" fill="black" stroke="#C4C4C4" stroke-width="0.0706898"/>
<rect x="0.0612205" y="0.106037" width="1.23799" height="0.44978" transform="matrix(0.866007 0.500033 3.77386e-05 1 20.6092 20.2698)" fill="#830000" stroke="#AE4141" stroke-width="0.14138"/>
<rect width="1.97053" height="0.29558" transform="matrix(0.866007 -0.500033 -3.7683e-05 1 23.8269 20.9509)" fill="black"/>
<rect width="0.18088" height="0.36176" transform="matrix(0.866007 -0.500033 -3.77206e-05 1 26.3607 19.5931)" fill="black"/>
<rect width="0.18088" height="0.36176" transform="matrix(0.866007 -0.500033 -3.77206e-05 1 26.6204 19.4424)" fill="black"/>
<circle r="0.0602934" transform="matrix(0.866007 -0.500033 -3.77206e-05 1 26.5695 19.2675)" fill="black"/>
<path d="M27.3068 18.6369C27.3632 18.5796 27.4229 18.5602 27.4739 18.5737L27.7375 18.6478C27.6877 18.6333 27.627 18.6534 27.5704 18.7108C27.4583 18.8247 27.402 19.0427 27.4441 19.1984C27.4648 19.2757 27.5065 19.323 27.5565 19.337L27.2927 19.2631C27.2429 19.2491 27.2012 19.2018 27.1802 19.1243C27.1382 18.9682 27.1947 18.7508 27.3068 18.6369Z" fill="#4DC5DA"/>
<path d="M36.7179 24.348C36.9278 24.4886 37.098 24.6804 37.2127 24.9053C37.3563 25.1877 37.4174 25.5311 37.3955 25.9254C37.3948 25.9369 37.3964 25.9485 37.4004 25.9592C37.4044 25.97 37.4106 25.9799 37.4186 25.9881C37.4267 25.9963 37.4363 26.0027 37.447 26.007C37.4577 26.0112 37.4692 26.0132 37.4808 26.0127C37.505 26.0122 37.5282 26.0027 37.5458 25.986C37.5634 25.9694 37.5742 25.9468 37.576 25.9227C37.6308 24.9513 37.1958 24.4473 36.8212 24.1953C36.5709 24.0279 36.2852 23.9201 35.986 23.8802C35.9619 23.8783 35.9379 23.8856 35.9187 23.9004C35.8995 23.9153 35.8866 23.9367 35.8823 23.9605C35.8803 23.9718 35.8806 23.9834 35.8833 23.9946C35.8861 24.0057 35.8911 24.0162 35.8981 24.0253C35.9052 24.0343 35.914 24.0418 35.9242 24.0473C35.9343 24.0527 35.9454 24.0559 35.9569 24.0568C36.2296 24.0957 36.4896 24.1952 36.7179 24.348Z" fill="#9C9C9B"/>
<path d="M36.353 25.9541C36.3516 25.9655 36.3526 25.9771 36.3559 25.9881C36.3592 25.9991 36.3648 26.0093 36.3723 26.018C36.3798 26.0266 36.389 26.0336 36.3994 26.0385C36.4098 26.0434 36.4211 26.0461 36.4327 26.0463C36.4568 26.0471 36.4805 26.0387 36.499 26.023C36.5175 26.0073 36.5295 25.9853 36.5327 25.9614C36.5438 25.8221 36.5255 25.6823 36.4788 25.5509C36.4074 25.3548 36.2352 25.1069 35.8209 25.0408C35.808 25.0388 35.7949 25.0396 35.7822 25.0429C35.7696 25.0463 35.7578 25.0522 35.7475 25.0603C35.7299 25.0738 35.7175 25.0929 35.7123 25.1144C35.7095 25.1256 35.709 25.1372 35.7109 25.1486C35.7128 25.1599 35.7171 25.1707 35.7235 25.1803C35.7298 25.1899 35.7381 25.198 35.7478 25.2041C35.7575 25.2103 35.7684 25.2144 35.7798 25.216C36.4151 25.3168 36.356 25.9279 36.353 25.9541Z" fill="#9C9C9B"/>
<path d="M36.9413 25.9889C36.9655 25.9886 36.9887 25.9792 37.0065 25.9627C37.0242 25.9462 37.0352 25.9236 37.0373 25.8996C37.0798 25.2455 36.7785 24.8957 36.5183 24.7174C36.3444 24.5992 36.1464 24.5207 35.9383 24.4874C35.9143 24.4848 35.8901 24.4913 35.8705 24.5056C35.8509 24.5198 35.8373 24.5409 35.8324 24.5645C35.83 24.5758 35.8299 24.5874 35.8322 24.5987C35.8346 24.61 35.8392 24.6206 35.8459 24.6299C35.8526 24.6392 35.8612 24.647 35.8711 24.6528C35.881 24.6586 35.8921 24.6623 35.9035 24.6636C36.0866 24.6945 36.2606 24.7646 36.4135 24.8691C36.7381 25.0935 36.887 25.4411 36.857 25.9007C36.8561 25.9122 36.8576 25.9237 36.8615 25.9345C36.8654 25.9454 36.8715 25.9552 36.8794 25.9636C36.8873 25.9719 36.8969 25.9784 36.9076 25.9828C36.9183 25.9871 36.9297 25.9892 36.9413 25.9889Z" fill="#9C9C9B"/>
<path d="M34.064 25.8642C34.064 25.7852 34.128 25.7212 34.207 25.7212H35.6366C35.7156 25.7212 35.7796 25.7852 35.7796 25.8642V27.0436C35.7796 27.1226 35.7156 27.1866 35.6366 27.1866H34.207C34.128 27.1866 34.064 27.1226 34.064 27.0436V25.8642Z" fill="#808285"/>
<path d="M33.2819 26.4413C33.2819 26.3346 33.1955 26.2482 33.0888 26.2482H18.5599C18.4532 26.2482 18.3668 26.3346 18.3668 26.4413C18.3668 26.5479 18.4532 26.6344 18.5599 26.6344H33.0888C33.1955 26.6344 33.2819 26.5479 33.2819 26.4413Z" fill="#414042"/>
<path d="M35.5406 25.8914H34.3625C34.3219 25.8914 34.2889 25.9243 34.2889 25.965V26.9232C34.2889 26.9639 34.3219 26.9968 34.3625 26.9968H35.5406C35.5812 26.9968 35.6142 26.9639 35.6142 26.9232V25.965C35.6142 25.9243 35.5812 25.8914 35.5406 25.8914Z" fill="#414042"/>
<path d="M34.078 26.1518H33.0885V26.731H34.078V26.1518Z" fill="#4D4D4F"/>
<path d="M18.5599 21.9283C18.4532 21.9283 18.3668 22.0147 18.3668 22.1214V26.4414C18.3668 26.5481 18.4532 26.6345 18.5599 26.6345C18.6665 26.6345 18.7529 26.5481 18.7529 26.4414V22.1214C18.7529 22.0147 18.6665 21.9283 18.5599 21.9283Z" fill="#414042"/>
<path d="M18.2714 22.103C18.156 21.8493 18.1811 21.5897 18.3276 21.5231C18.474 21.4564 18.6863 21.608 18.8017 21.8617C18.9171 22.1154 18.892 22.375 18.7456 22.4416C18.5991 22.5083 18.3868 22.3567 18.2714 22.103Z" fill="white"/>
<path d="M18.3418 22.0707C18.2572 21.8847 18.2756 21.6943 18.383 21.6454C18.4904 21.5966 18.646 21.7077 18.7307 21.8937C18.8153 22.0798 18.7969 22.2702 18.6895 22.319C18.5821 22.3679 18.4265 22.2567 18.3418 22.0707Z" fill="black"/>
</g>
<path d="M40.8427 6.25711H33.6576L30.0664 12.4797L26.4739 6.25711H19.2901L15.6989 12.4797L12.1064 6.25711H4.92265L12.1064 18.7036L4.92265 31.1487H12.1064L15.6989 24.9261L19.2901 31.1487H26.4739L19.2901 18.7036L22.8827 12.4797L30.0664 24.9261L37.2501 12.4797L40.8427 18.7036L44.4339 12.4797L40.8427 6.25711Z" fill="#3B3835" fill-opacity="0.05"/>
<defs>
<filter id="filter0_d_1_2560" x="5.48842" y="7.83371" width="38.398" height="21.4947" filterUnits="userSpaceOnUse" color-interpolation-filters="sRGB">
<feFlood flood-opacity="0" result="BackgroundImageFix"/>
<feColorMatrix in="SourceAlpha" type="matrix" values="0 0 0 0 0 0 0 0 0 0 0 0 0 0 0 0 0 0 127 0" result="hardAlpha"/>
<feOffset dy="0.0942531"/>
<feGaussianBlur stdDeviation="0.0471266"/>
<feComposite in2="hardAlpha" operator="out"/>
<feColorMatrix type="matrix" values="0 0 0 0 0 0 0 0 0 0 0 0 0 0 0 0 0 0 0.25 0"/>
<feBlend mode="normal" in2="BackgroundImageFix" result="effect1_dropShadow_1_2560"/>
<feBlend mode="normal" in="SourceGraphic" in2="effect1_dropShadow_1_2560" result="shape"/>
</filter>
<clipPath id="clip0_1_2560">
<rect width="2.89614" height="2.89614" fill="white" transform="translate(11.7083 7.83371)"/>
</clipPath>
</defs>
</svg>
