<svg width="2000" height="1500" viewBox="0 0 2000 1500" fill="none" xmlns="http://www.w3.org/2000/svg">
<rect width="2000" height="1500" rx="100" fill="#D3E2F5"/>
<g filter="url(#filter0_d_42_163)">
<path d="M1203.47 537.273L1203.47 752.847L1169.46 752.847" stroke="#7DD1E8" stroke-width="8.30298" stroke-linecap="round" stroke-linejoin="round" stroke-dasharray="16.61 16.61"/>
<path d="M1787.07 344.799V939.546H1334.89V344.799H1787.07Z" fill="#C6E8FB"/>
<path d="M1787.63 839.492C1779.3 840.845 1771.78 847.051 1769.09 855.202C1764.4 843.317 1744.92 842.106 1738.83 853.32C1734.84 837.398 1718.82 825.523 1702.66 826.502C1686.5 827.48 1671.99 841.202 1669.89 857.491C1660.2 845.129 1638.64 845.67 1629.57 858.505C1629.48 845.083 1618.21 832.69 1605.02 831.538C1591.83 830.387 1578.64 840.633 1576.29 853.846C1568.58 844.003 1551.05 845.196 1544.71 855.997C1536.21 843.971 1514.99 845.5 1508.25 858.628C1505.24 846.21 1491.13 837.829 1478.98 841.241C1466.83 844.652 1458.98 859.201 1462.69 871.421C1451.88 859.766 1431.94 858.565 1419.84 868.822C1407.73 879.078 1405.37 899.196 1414.74 912.074C1407.06 913.423 1402.74 924.026 1407.24 930.49C1399.68 925.937 1389.25 933.735 1388.87 942.65V942.784H1787.63V839.492Z" fill="#BCCF59"/>
<path d="M1442.04 856.815C1439.31 854.717 1437.35 852.026 1437.22 848.819C1437.09 845.612 1440.08 842.221 1443.14 843.097C1444.43 843.468 1445.44 844.468 1446.34 845.46C1450.47 849.988 1454.87 856.105 1456.56 862.117C1452.46 861.951 1446.3 860.096 1442.04 856.815Z" fill="#BCCF59"/>
<path d="M1457.3 843.009C1458.12 842.5 1459.16 842.182 1460.09 842.461C1461.27 842.814 1461.93 843.959 1462.27 845.05C1463.57 849.271 1461.92 853.527 1460.31 857.334C1459.99 858.097 1459.49 860.072 1458.49 858.666C1455.62 854.555 1451.41 846.654 1457.3 843.009Z" fill="#BCCF59"/>
<path d="M1384.42 923.636C1381.15 922.576 1378.43 920.701 1377.25 917.727C1376.07 914.753 1377.78 910.536 1380.95 910.331C1382.28 910.243 1383.56 910.843 1384.74 911.475C1390.13 914.347 1396.28 918.624 1399.85 923.717C1395.93 924.95 1389.52 925.286 1384.42 923.636Z" fill="#BCCF59"/>
<path d="M1394.27 905.449C1394.87 904.693 1395.75 904.036 1396.73 903.987C1397.96 903.913 1398.96 904.775 1399.64 905.689C1402.26 909.221 1402.08 913.788 1401.83 917.931C1401.78 918.761 1401.95 920.792 1400.56 919.803C1396.48 916.907 1389.91 910.881 1394.27 905.449Z" fill="#BCCF59"/>
<path d="M1648.2 843.225C1650.94 841.13 1652.9 838.446 1653.03 835.239C1653.17 832.031 1650.2 828.634 1647.14 829.506C1645.85 829.859 1644.84 830.862 1643.92 831.858C1639.79 836.376 1635.37 842.479 1633.67 848.487C1637.76 848.332 1643.92 846.495 1648.2 843.225Z" fill="#BCCF59"/>
<path d="M1773.03 833.76C1773.23 830.284 1772.49 827.049 1770.18 824.845C1767.86 822.641 1763.38 822.754 1762.05 825.679C1761.48 826.911 1761.57 828.335 1761.73 829.684C1762.42 835.812 1764.16 843.179 1767.54 848.403C1770.09 845.129 1772.71 839.177 1773.03 833.76Z" fill="#BCCF59"/>
<path d="M1632.97 829.368C1632.16 828.86 1631.12 828.539 1630.19 828.814C1628.99 829.167 1628.33 830.308 1627.99 831.399C1626.68 835.616 1628.34 839.876 1629.92 843.69C1630.24 844.449 1630.74 846.427 1631.73 845.022C1634.63 840.932 1638.86 833.045 1632.97 829.368Z" fill="#BCCF59"/>
<path d="M1468.77 918.258H1468.59C1464.45 917.689 1461.19 913.483 1461.48 909.075C1461.75 905.017 1464.9 901.266 1468.99 900.153C1471.68 899.474 1474.51 899.763 1477 900.969C1476.81 899.4 1476.97 897.806 1477.48 896.31C1477.98 894.814 1478.82 893.455 1479.92 892.337C1483.08 889.264 1488.21 888.6 1492.11 890.765C1495.89 892.86 1498.22 897.419 1497.76 901.852C1497.75 902.019 1497.7 902.181 1497.62 902.328C1497.54 902.476 1497.43 902.606 1497.3 902.712C1497.18 902.817 1497.03 902.897 1496.87 902.944C1496.71 902.992 1496.55 903.008 1496.38 902.991C1496.22 902.974 1496.06 902.924 1495.91 902.844C1495.77 902.765 1495.64 902.657 1495.53 902.527C1495.43 902.397 1495.35 902.247 1495.31 902.087C1495.26 901.926 1495.24 901.757 1495.26 901.591C1495.61 898.147 1493.82 894.622 1490.9 893.008C1487.99 891.394 1484 891.896 1481.65 894.184C1479.31 896.473 1478.7 900.542 1480.38 903.367C1480.54 903.628 1480.6 903.939 1480.55 904.243C1480.51 904.546 1480.35 904.822 1480.12 905.019C1479.89 905.216 1479.59 905.321 1479.29 905.314C1478.99 905.308 1478.69 905.191 1478.47 904.985C1476 902.767 1472.53 901.849 1469.61 902.633C1466.53 903.47 1464.16 906.253 1463.96 909.251C1463.77 912.317 1466.05 915.344 1468.9 915.736C1469.21 915.783 1469.5 915.949 1469.7 916.199C1469.89 916.449 1469.99 916.765 1469.97 917.086C1469.95 917.406 1469.81 917.707 1469.58 917.928C1469.35 918.149 1469.05 918.274 1468.73 918.279L1468.77 918.258Z" fill="#A7C64C"/>
<path d="M1563.74 891.718C1563.5 891.719 1563.26 891.65 1563.06 891.519C1562.86 891.388 1562.7 891.201 1562.6 890.979C1562.2 890.077 1562.01 889.1 1562.01 888.114C1562.02 887.127 1562.23 886.154 1562.64 885.258C1563.08 884.202 1563.73 883.25 1564.55 882.46C1565.37 881.67 1566.34 881.06 1567.4 880.666C1570.34 879.635 1573.81 880.313 1576.57 882.351C1577.76 878.656 1581.04 875.774 1584.7 875.527C1587.05 875.329 1589.49 876.407 1591.21 878.307C1591.98 879.111 1592.56 880.08 1592.91 881.143C1593.26 882.205 1593.37 883.334 1593.24 884.445C1593.18 884.775 1593 885.069 1592.73 885.267C1592.46 885.464 1592.13 885.549 1591.8 885.505C1591.47 885.45 1591.18 885.267 1590.99 884.996C1590.79 884.724 1590.71 884.386 1590.76 884.053C1590.84 883.319 1590.76 882.575 1590.51 881.877C1590.27 881.179 1589.88 880.546 1589.36 880.023C1588.8 879.385 1588.11 878.878 1587.33 878.538C1586.56 878.199 1585.72 878.034 1584.88 878.056C1581.74 878.271 1578.87 881.38 1578.64 884.848C1578.62 885.098 1578.53 885.337 1578.38 885.536C1578.23 885.735 1578.03 885.885 1577.8 885.968C1577.56 886.05 1577.31 886.062 1577.07 886.001C1576.83 885.94 1576.62 885.809 1576.45 885.625C1574.24 883.195 1570.86 882.15 1568.22 883.064C1567.49 883.34 1566.83 883.764 1566.27 884.31C1565.7 884.857 1565.26 885.515 1564.96 886.243C1564.7 886.811 1564.55 887.43 1564.54 888.058C1564.53 888.686 1564.65 889.31 1564.89 889.888C1564.98 890.083 1565.02 890.297 1565.01 890.512C1564.99 890.726 1564.92 890.934 1564.81 891.115C1564.7 891.296 1564.54 891.445 1564.35 891.547C1564.17 891.649 1563.96 891.702 1563.74 891.7L1563.74 891.718Z" fill="#A7C64C"/>
<path d="M1529.17 942.787C1529.47 940.388 1530.09 938.693 1531.13 937.535C1532.22 936.305 1534.31 935.61 1535.65 936.524C1536.1 936.86 1536.51 937.24 1536.88 937.658C1537.84 938.675 1539.04 939.912 1540.84 939.735C1541.13 939.702 1541.4 939.564 1541.61 939.348C1541.81 939.131 1541.93 938.848 1541.95 938.548C1542.14 935.557 1542.34 932.463 1543.67 929.856C1544.77 927.695 1547.15 925.569 1549.84 925.932C1551.54 926.18 1553.19 927.511 1554.25 929.489C1555.31 931.467 1555.71 933.706 1556.12 935.917C1556.17 936.177 1556.29 936.417 1556.48 936.601C1556.67 936.786 1556.91 936.907 1557.16 936.948C1557.42 936.983 1557.69 936.937 1557.92 936.817C1558.15 936.696 1558.34 936.507 1558.46 936.274C1559.83 933.611 1561.97 930.096 1564.89 930.096H1565.01C1566.75 930.156 1568.23 931.53 1569.02 932.798C1570.04 934.416 1570.54 936.404 1571.01 938.322C1571.11 938.627 1571.32 938.882 1571.6 939.037C1571.88 939.191 1572.2 939.233 1572.51 939.154C1572.82 939.076 1573.09 938.883 1573.26 938.613C1573.43 938.344 1573.5 938.018 1573.45 937.701C1572.95 935.68 1572.38 933.392 1571.14 931.424C1569.65 929.076 1567.4 927.624 1565.09 927.539C1561.92 927.366 1559.59 929.683 1557.9 932.187C1557.58 930.824 1557.09 929.506 1556.45 928.263C1555.01 925.572 1552.67 923.757 1550.19 923.389C1546.31 922.824 1542.93 925.731 1541.43 928.687C1540.13 931.23 1539.76 934.077 1539.55 936.736C1539.25 936.47 1538.96 936.187 1538.69 935.889C1538.19 935.332 1537.64 934.831 1537.04 934.395C1534.49 932.671 1531.08 933.77 1529.25 935.807C1527.35 937.927 1526.81 940.752 1526.6 942.776L1529.17 942.787Z" fill="#A7C64C"/>
<path d="M1674.66 885.751C1674.4 885.75 1674.14 885.664 1673.92 885.504C1673.71 885.344 1673.55 885.119 1673.47 884.86C1672.51 881.77 1672.63 878.439 1673.81 875.43C1674.13 874.624 1674.69 873.466 1675.75 872.745C1676.64 872.208 1677.65 871.929 1678.68 871.94C1682.01 871.856 1685.24 873.048 1687.74 875.278C1688.52 873.109 1690.08 871.142 1692.47 870.495C1693.41 870.274 1694.39 870.305 1695.31 870.587C1696.23 870.869 1697.07 871.392 1697.73 872.103C1698.94 873.364 1699.38 874.953 1698.93 876.472C1698.83 876.795 1698.61 877.066 1698.32 877.227C1698.03 877.388 1697.68 877.425 1697.36 877.33C1697.21 877.282 1697.06 877.203 1696.93 877.097C1696.8 876.992 1696.69 876.861 1696.62 876.714C1696.54 876.566 1696.49 876.404 1696.47 876.237C1696.46 876.07 1696.47 875.901 1696.52 875.741C1696.76 874.918 1696.25 874.225 1695.92 873.886C1695.17 873.099 1694.01 872.717 1693.12 872.964C1691.03 873.533 1689.87 875.977 1689.69 878.008C1689.67 878.265 1689.57 878.509 1689.41 878.708C1689.25 878.908 1689.03 879.053 1688.79 879.125C1688.55 879.197 1688.29 879.192 1688.05 879.111C1687.8 879.03 1687.59 878.877 1687.44 878.672C1686.41 877.348 1685.09 876.282 1683.59 875.557C1682.09 874.832 1680.44 874.467 1678.78 874.49C1678.22 874.475 1677.66 874.606 1677.17 874.872C1676.79 875.122 1676.47 875.603 1676.16 876.387C1675.2 878.842 1675.1 881.559 1675.88 884.08C1675.93 884.24 1675.95 884.409 1675.94 884.576C1675.93 884.744 1675.88 884.907 1675.8 885.057C1675.73 885.206 1675.62 885.339 1675.5 885.448C1675.37 885.557 1675.23 885.639 1675.07 885.69L1674.66 885.751Z" fill="#A7C64C"/>
<path d="M1787.63 887.205C1786.99 886.542 1786.22 886.015 1785.37 885.655C1784.45 885.3 1783.47 885.136 1782.48 885.172C1781.49 885.208 1780.52 885.443 1779.63 885.863C1778.74 886.265 1777.93 886.833 1777.24 887.537C1775.97 883.931 1773.95 880.428 1770.21 879.531C1767.17 878.793 1763.67 880.237 1761.31 883.147C1759.3 885.644 1758.3 888.767 1757.43 891.518C1757.34 891.835 1757.38 892.174 1757.53 892.463C1757.69 892.753 1757.94 892.971 1758.25 893.072C1758.56 893.174 1758.9 893.15 1759.19 893.008C1759.48 892.865 1759.71 892.613 1759.82 892.305C1760.67 889.639 1761.56 886.891 1763.26 884.765C1764.7 882.999 1767.21 881.434 1769.63 882.017C1773 882.826 1774.61 887.163 1775.63 890.847C1775.7 891.108 1775.85 891.339 1776.06 891.507C1776.27 891.674 1776.53 891.77 1776.8 891.779C1777.07 891.796 1777.33 891.722 1777.55 891.569C1777.77 891.417 1777.94 891.194 1778.02 890.935C1778.34 889.985 1778.94 889.157 1779.73 888.566C1780.53 887.975 1781.49 887.649 1782.48 887.635C1783.47 887.62 1784.43 887.917 1785.25 888.484C1786.06 889.051 1786.68 889.86 1787.03 890.801C1787.28 891.405 1787.42 892.055 1787.42 892.713C1787.42 893.371 1787.3 894.023 1787.05 894.629C1786.91 894.929 1786.9 895.268 1787.01 895.577C1787.12 895.885 1787.34 896.138 1787.63 896.282V887.205Z" fill="#A7C64C"/>
<path d="M1787.63 413.244C1779.03 411.955 1769.65 412.682 1759.97 415.232C1729.44 423.278 1714.86 450.251 1712.73 480.446C1700.3 474.071 1686.22 467.025 1673.98 477.172C1665.17 484.476 1659.36 498.364 1658.45 509.666C1637.77 510.372 1629.82 515.317 1623.35 535.552C1611.43 527.661 1599.19 533.256 1596.67 547.182C1586.2 540.715 1568.99 548.164 1582.1 559.544H1787.64V413.244" fill="white"/>
<path d="M1473.5 946.666C1497.24 938.189 1519.77 920.971 1531.98 901.721C1545.53 880.392 1549.59 853.733 1546.17 828.61C1543.53 809.145 1536.77 789.426 1527.14 772.367C1518.16 756.473 1513.93 742.769 1519.67 724.308C1524.62 708.414 1534.29 694.519 1541.6 679.579C1560.61 640.763 1562.72 592.64 1542.51 554.48C1527.39 525.974 1500.75 503.419 1492.96 472.023C1487.12 448.483 1484.61 417.126 1456.65 409.32C1410.75 396.513 1377.83 441.814 1368.99 480.461C1363.23 505.669 1354.42 530.59 1339.28 551.404C1338.17 552.937 1337 554.42 1335.84 555.904V937.638C1348.57 941.717 1362.14 944.582 1375.92 946.669H1473.5" fill="#A1BA5A"/>
<path d="M1424.97 764.731C1428.54 746.474 1435.79 728.525 1448.45 715.043C1457.26 705.648 1465.36 695.367 1474.52 686.583C1483.46 678.018 1494.96 669.047 1501.48 658.433C1502.08 657.458 1502.67 656.289 1502.28 655.209C1501.58 653.174 1498.64 653.601 1496.69 654.456C1478.62 662.357 1459.02 676.439 1438.52 675.295C1436.19 675.161 1433.58 674.645 1432.33 672.649C1431.45 671.237 1431.49 669.471 1431.61 667.807C1434.02 634.536 1456.95 606.828 1467.79 575.333C1470.01 568.902 1470.54 559.704 1464.25 557.32C1459.87 555.66 1455.31 558.733 1451.19 560.997C1431.88 571.55 1438.9 534.341 1438.87 524.307C1438.81 506.033 1438.31 485.364 1431.91 468.089C1431.68 467.485 1431.37 466.821 1430.76 466.644C1429.83 466.365 1429.07 467.396 1428.64 468.276C1421.65 482.693 1420.33 502.504 1417.71 518.253C1412.78 547.869 1410.23 577.703 1407.36 607.538C1406.83 613.093 1406.05 618.766 1403.46 623.686C1398.17 633.752 1381.18 635.998 1376.2 623.608C1390.41 659.087 1398.48 699.828 1384.25 735.296C1383.24 737.8 1382.03 740.389 1379.82 741.9C1375.2 745.079 1369.73 742.084 1364.25 739.1C1358.76 736.115 1353.23 733.074 1348.64 736.384C1353.86 764.162 1376.47 785.732 1383.39 813.123C1387.86 831.131 1385.23 850.195 1376.08 866.275C1374.56 868.92 1372.7 871.612 1369.88 872.71C1367.14 873.77 1364.03 873.099 1361.34 871.926C1358.23 870.518 1355.36 868.623 1352.83 866.31C1346.68 860.861 1341.62 853.532 1335.83 847.944V872.406C1345.99 889.699 1358.66 905.332 1373.43 918.774C1378.62 923.496 1387.97 935.063 1395.2 935.6C1403.24 936.197 1411.32 925.517 1414.57 919.318C1419.66 909.609 1421.84 898.479 1427.45 889.07C1437.52 872.117 1453.96 869.977 1467.17 857.756C1481.42 844.564 1493.88 828.638 1500.8 810.216C1501.39 808.63 1501.72 806.384 1500.22 805.624C1499.31 805.158 1498.22 805.571 1497.29 805.977L1447.65 828.006C1442.23 830.426 1430.47 838.549 1425.2 835.37C1421.02 832.831 1421.07 824.51 1421.1 820.356C1421.24 801.739 1421.39 782.995 1424.97 764.738" fill="#95B354"/>
<path d="M1408.95 946.662C1409.64 929.461 1410.34 912.539 1411.03 896.554C1413.16 847.342 1415.56 798.123 1418.21 748.897C1423.45 650.464 1429.18 552.036 1435.91 453.685C1435.94 453.117 1435.76 452.558 1435.39 452.128C1435.02 451.698 1434.51 451.43 1433.95 451.381C1433.39 451.332 1432.83 451.507 1432.4 451.867C1431.97 452.227 1431.69 452.745 1431.62 453.31C1421.7 551.433 1412.6 649.632 1404.31 747.908C1400.1 797.044 1396.1 846.209 1392.32 895.402C1391.1 911.769 1389.83 929.069 1388.59 946.662H1408.94" fill="#A16D42"/>
<path d="M1423.18 530.35L1421.79 528.262L1420.18 525.864L1419.18 524.388C1418.84 523.858 1418.49 523.219 1418.14 522.597C1417.44 521.333 1416.66 519.966 1415.84 518.521C1415.02 517.077 1414.33 515.523 1413.56 513.93C1412.83 512.319 1411.95 510.716 1411.31 508.985C1410.66 507.254 1409.93 505.531 1409.24 503.793C1408.54 502.055 1408.02 500.261 1407.41 498.52C1407.12 497.651 1406.83 496.789 1406.54 495.934L1405.81 493.377C1405.34 491.696 1404.88 490.075 1404.45 488.531L1403.43 484.145C1402.75 481.446 1402.38 479.144 1402.09 477.551C1401.79 475.958 1401.62 475.046 1401.62 475.046C1401.55 474.728 1401.6 474.395 1401.77 474.118C1401.94 473.841 1402.22 473.644 1402.53 473.569C1402.84 473.493 1403.17 473.546 1403.45 473.716C1403.72 473.885 1403.92 474.158 1404 474.474L1404.01 474.534L1404.69 476.947C1405.13 478.476 1405.67 480.687 1406.57 483.265C1406.99 484.562 1407.45 485.964 1407.94 487.447C1408.49 488.902 1409.07 490.439 1409.68 492.039L1410.6 494.451L1411.66 496.874C1412.4 498.492 1413.06 500.173 1413.86 501.783L1416.3 506.566C1417.06 508.166 1418.04 509.603 1418.85 511.065C1419.71 512.478 1420.46 513.954 1421.35 515.141L1423.72 518.599C1424.1 519.132 1424.42 519.659 1424.79 520.132L1425.91 521.509L1427.73 523.752L1429.31 525.705C1429.87 526.506 1430.11 527.493 1429.99 528.467C1429.86 529.442 1429.37 530.331 1428.62 530.955C1427.88 531.58 1426.92 531.894 1425.96 531.834C1424.99 531.774 1424.08 531.345 1423.41 530.632L1423.18 530.35Z" fill="#A16D42"/>
<path d="M1420.73 584.411L1424.11 581.978L1428 579.188C1429.51 578.128 1431.19 576.895 1432.93 575.522L1438.66 571.117C1440.71 569.581 1442.76 567.779 1444.95 566.01C1447.14 564.24 1449.41 562.4 1451.6 560.415L1458.35 554.482L1464.9 548.325C1467.09 546.323 1469.12 544.218 1471.13 542.219C1473.13 540.22 1475.1 538.334 1476.85 536.398L1481.85 531.044C1483.42 529.401 1484.8 527.847 1486 526.452L1489.13 522.853L1491.88 519.713L1491.9 519.681C1492.12 519.445 1492.41 519.301 1492.72 519.278C1493.04 519.256 1493.35 519.357 1493.59 519.56C1493.83 519.764 1493.99 520.054 1494.03 520.371C1494.06 520.688 1493.98 521.008 1493.79 521.264L1491.26 524.612L1488.37 528.448C1487.26 529.945 1485.97 531.626 1484.52 533.392L1479.85 539.153C1478.22 541.219 1476.34 543.257 1474.48 545.447C1472.63 547.637 1470.7 549.894 1468.63 552.076L1462.43 558.787L1456.01 565.3C1453.92 567.483 1451.74 569.492 1449.66 571.481C1447.59 573.469 1445.61 575.416 1443.61 577.157L1438.04 582.133C1436.3 583.702 1434.71 585.054 1433.29 586.22L1429.61 589.286L1426.41 591.959C1425.45 592.759 1424.21 593.139 1422.97 593.015C1421.74 592.891 1420.6 592.274 1419.81 591.299C1419.02 590.324 1418.65 589.071 1418.77 587.815C1418.89 586.56 1419.5 585.406 1420.46 584.606L1420.73 584.411Z" fill="#A16D42"/>
<path d="M1411.86 670.605L1408.57 667.539C1407.53 666.565 1406.25 665.381 1404.8 664.007L1402.47 661.846C1401.66 661.041 1400.83 660.136 1399.96 659.225L1394.33 653.295C1393.3 652.264 1392.34 651.141 1391.39 649.975L1388.43 646.443C1386.43 644.034 1384.29 641.618 1382.4 638.92L1376.48 630.92L1371.08 622.578C1369.23 619.872 1367.72 617.011 1366.18 614.302C1365.41 612.946 1364.66 611.615 1363.92 610.308C1363.17 609.008 1362.46 607.726 1361.87 606.423L1358.36 599.196C1357.82 598.073 1357.28 597.013 1356.82 595.979C1356.35 594.944 1355.98 593.93 1355.59 592.994C1354.82 591.126 1354.15 589.494 1353.59 588.152L1351.85 583.938C1351.67 583.533 1351.65 583.07 1351.8 582.651C1351.95 582.232 1352.26 581.892 1352.66 581.704C1353.06 581.517 1353.52 581.498 1353.93 581.652C1354.35 581.806 1354.68 582.12 1354.87 582.525L1354.91 582.624L1356.88 586.654C1357.5 587.936 1358.27 589.48 1359.13 591.278C1359.57 592.164 1360.03 593.114 1360.52 594.103C1361.02 595.092 1361.64 596.095 1362.23 597.158L1366.12 604.028C1366.78 605.257 1367.55 606.465 1368.36 607.683L1370.8 611.434C1372.47 613.97 1374.1 616.648 1376.07 619.159C1377.96 621.709 1379.89 624.301 1381.81 626.897L1388 634.254C1389.98 636.727 1392.2 638.931 1394.27 641.12C1395.31 642.208 1396.33 643.278 1397.32 644.327C1398.27 645.369 1399.27 646.362 1400.31 647.301L1405.94 652.518C1406.82 653.32 1407.62 654.104 1408.45 654.824L1410.88 656.834L1414.87 660.098L1418.35 662.944C1418.87 663.359 1419.3 663.874 1419.62 664.459C1419.94 665.044 1420.15 665.688 1420.22 666.353C1420.29 667.018 1420.24 667.692 1420.05 668.335C1419.87 668.977 1419.56 669.576 1419.15 670.097C1418.73 670.618 1418.22 671.051 1417.64 671.369C1417.06 671.688 1416.42 671.887 1415.77 671.954C1415.11 672.021 1414.45 671.956 1413.81 671.761C1413.18 671.567 1412.6 671.247 1412.09 670.821L1411.84 670.612" fill="#A16D42"/>
<path d="M1413.09 714.47L1418.74 711.129L1425.22 707.293L1429.2 704.93C1430.57 704.072 1431.95 703.136 1433.43 702.175L1442.91 695.934C1444.62 694.874 1446.31 693.645 1448.02 692.374L1453.3 688.538C1456.87 685.917 1460.65 683.3 1464.22 680.309L1475.26 671.479L1485.87 662.116C1489.44 659.089 1492.67 655.811 1495.89 652.721L1500.6 648.154C1502.16 646.67 1503.66 645.197 1505.03 643.682L1512.93 635.273C1514.15 633.966 1515.35 632.733 1516.43 631.522L1519.44 627.99L1524.33 622.264L1528.6 617.27L1528.65 617.217C1528.89 616.933 1529.24 616.757 1529.61 616.726C1529.98 616.695 1530.35 616.811 1530.64 617.05C1530.92 617.29 1531.11 617.633 1531.15 618.009C1531.19 618.384 1531.09 618.761 1530.87 619.061L1526.84 624.317C1525.56 625.991 1524 628.025 1522.23 630.363C1521.33 631.529 1520.39 632.776 1519.38 634.082C1518.38 635.389 1517.22 636.671 1516.06 638.059L1508.55 646.999C1507.24 648.609 1505.81 650.178 1504.32 651.763C1502.83 653.349 1501.33 654.995 1499.79 656.655C1496.71 659.965 1493.6 663.475 1490.16 666.739L1479.89 676.851C1476.3 680.072 1472.7 683.297 1469.17 686.472C1465.69 689.725 1462 692.6 1458.5 695.475C1456.74 696.907 1455.01 698.313 1453.32 699.696C1451.65 701.087 1449.98 702.426 1448.28 703.641L1438.81 710.645L1434.59 713.742L1430.74 716.321L1424.48 720.517L1419.02 724.169C1417.78 725.003 1416.25 725.3 1414.79 724.996C1413.33 724.692 1412.05 723.81 1411.22 722.546C1410.4 721.281 1410.11 719.737 1410.41 718.253C1410.71 716.769 1411.58 715.466 1412.82 714.632L1413.09 714.466" fill="#A16D42"/>
<path d="M1403.96 799.887L1401.24 797.485L1398.1 794.73C1396.89 793.671 1395.53 792.466 1394.06 791.043L1389.3 786.54C1387.59 784.957 1385.96 783.17 1384.18 781.39C1382.4 779.61 1380.57 777.77 1378.83 775.785L1373.45 769.872L1368.29 763.766C1366.55 761.784 1365 759.711 1363.44 757.761C1361.89 755.812 1360.36 753.915 1359.04 752.039C1357.71 750.164 1356.41 748.423 1355.23 746.805C1352.84 743.595 1351.09 740.741 1349.75 738.826C1348.42 736.912 1347.71 735.782 1347.71 735.782C1347.48 735.446 1347.39 735.035 1347.46 734.634C1347.52 734.233 1347.74 733.874 1348.06 733.632C1348.38 733.389 1348.78 733.282 1349.18 733.333C1349.58 733.383 1349.94 733.587 1350.19 733.903L1350.24 733.952L1352.5 736.778C1353.96 738.544 1355.91 741.214 1358.51 744.174C1359.8 745.671 1361.19 747.292 1362.66 749.002C1364.13 750.711 1365.79 752.428 1367.43 754.25C1369.07 756.073 1370.8 757.945 1372.65 759.743L1378.16 765.277C1380.07 767.043 1381.99 768.845 1383.86 770.6C1385.73 772.355 1387.65 774.005 1389.5 775.612C1391.34 777.219 1393.09 778.791 1394.84 780.168L1399.72 784.082C1401.2 785.3 1402.63 786.388 1403.94 787.342L1407.28 789.814L1410.19 791.979C1411.26 792.772 1411.97 793.963 1412.17 795.289C1412.37 796.615 1412.05 797.968 1411.27 799.05C1410.48 800.132 1409.31 800.854 1408 801.058C1406.7 801.262 1405.36 800.931 1404.3 800.138L1403.98 799.88" fill="#A16D42"/>
<path d="M1403.91 862.569L1408.84 860.521C1410.4 859.867 1412.3 859.069 1414.48 858.154L1417.96 856.703C1419.15 856.162 1420.34 855.544 1421.62 854.937L1429.81 850.914L1432.03 849.822L1434.27 848.569L1438.87 845.987C1442 844.221 1445.29 842.501 1448.43 840.41L1458.11 834.292L1467.51 827.702C1470.65 825.582 1473.57 823.251 1476.43 821.033C1479.28 818.815 1482.09 816.735 1484.6 814.566L1491.72 808.491L1494.88 805.789L1497.62 803.229L1502.09 799.061L1505.99 795.426L1506.04 795.377C1506.35 795.088 1506.77 794.934 1507.19 794.948C1507.62 794.962 1508.02 795.144 1508.32 795.453C1508.62 795.763 1508.78 796.178 1508.78 796.609C1508.78 797.041 1508.62 797.456 1508.33 797.768L1504.6 801.653L1500.32 806.111L1497.68 808.851L1494.63 811.762L1487.77 818.307C1485.33 820.648 1482.58 822.898 1479.83 825.321C1477.08 827.744 1474.21 830.266 1471.12 832.6L1461.92 839.845L1452.36 846.64C1449.26 848.961 1445.98 850.9 1442.88 852.899L1438.29 855.813L1436.07 857.225L1433.81 858.497L1425.41 863.194C1424.11 863.901 1422.86 864.643 1421.67 865.261L1418.29 866.907L1412.78 869.58L1407.99 871.911C1407.4 872.234 1406.74 872.43 1406.07 872.488C1405.39 872.547 1404.71 872.466 1404.07 872.252C1403.43 872.037 1402.83 871.693 1402.32 871.24C1401.82 870.786 1401.4 870.234 1401.11 869.614C1400.82 868.995 1400.65 868.322 1400.62 867.636C1400.59 866.949 1400.7 866.264 1400.93 865.621C1401.17 864.978 1401.54 864.39 1402 863.893C1402.47 863.396 1403.03 863 1403.65 862.728L1403.91 862.569Z" fill="#A16D42"/>
<path d="M1395.79 924.025L1387.6 917.859L1383.63 914.871C1382.21 913.857 1380.79 912.476 1379.28 911.219L1369.92 903.12L1361.24 894.477C1359.89 893.064 1358.45 891.835 1357.32 890.458L1354 886.664L1347.18 878.862C1346.91 878.549 1346.76 878.14 1346.77 877.72C1346.78 877.299 1346.95 876.899 1347.24 876.601C1347.53 876.303 1347.93 876.13 1348.34 876.118C1348.76 876.106 1349.16 876.255 1349.47 876.535L1349.56 876.612L1357.15 883.408L1360.82 886.682C1362.09 887.876 1363.62 888.914 1365.1 890.108L1374.5 897.391C1377.81 899.616 1381.13 901.834 1384.24 903.914C1385.82 904.932 1387.2 906.005 1388.77 906.853L1393.07 909.325C1398.4 912.381 1401.95 914.422 1401.95 914.422C1402.62 914.811 1403.2 915.334 1403.66 915.959C1404.12 916.584 1404.45 917.298 1404.63 918.057C1404.81 918.816 1404.84 919.604 1404.71 920.374C1404.58 921.143 1404.29 921.877 1403.87 922.532C1403.45 923.186 1402.91 923.746 1402.27 924.179C1401.62 924.611 1400.9 924.906 1400.15 925.046C1399.39 925.186 1398.61 925.167 1397.86 924.992C1397.11 924.816 1396.41 924.488 1395.79 924.025" fill="#A16D42"/>
<path d="M1694.1 344.799H1624.22L1509.54 506.584C1520.33 522.527 1533.47 537.435 1542.5 554.477C1542.93 555.285 1543.35 556.097 1543.75 556.914L1694.1 344.799" fill="#E2F3FE"/>
<path d="M1509.54 506.584L1469.06 563.699C1469.75 567.334 1469.03 571.756 1467.8 575.326C1456.96 606.821 1434.03 634.529 1431.62 667.8C1431.5 669.457 1431.46 671.244 1432.34 672.642C1433.59 674.638 1436.2 675.154 1438.53 675.288C1439.33 675.33 1440.13 675.355 1440.93 675.355C1448.51 675.355 1455.96 673.37 1463.26 670.498L1543.76 556.914C1543.35 556.097 1542.94 555.285 1542.51 554.477C1533.46 537.436 1520.33 522.527 1509.55 506.584" fill="#CDD794"/>
<path d="M1413.65 641.842L1406.03 652.597C1406.87 653.371 1407.65 654.123 1408.44 654.819L1410.88 656.828L1412.19 657.888C1412.67 652.533 1413.15 647.18 1413.63 641.828L1413.65 641.842ZM1469.06 563.701L1425.06 625.751C1423.42 653.9 1421.83 682.054 1420.29 710.21L1425.22 707.293L1429.21 704.93C1430.57 704.072 1431.96 703.136 1433.43 702.175L1442.91 695.934C1444.42 694.981 1445.92 693.921 1447.44 692.808L1463.25 670.501C1455.95 673.372 1448.52 675.375 1440.92 675.375C1440.12 675.375 1439.32 675.35 1438.52 675.308C1436.19 675.173 1433.58 674.658 1432.33 672.662C1431.45 671.249 1431.49 669.483 1431.61 667.82C1434.02 634.549 1456.95 606.84 1467.79 575.346C1469.02 571.775 1469.73 567.353 1469.05 563.719" fill="#C5D18C"/>
<path d="M1390.32 674.759L1348.81 733.298C1348.87 733.294 1348.93 733.294 1348.99 733.298C1349.22 733.298 1349.45 733.35 1349.65 733.451C1349.86 733.551 1350.05 733.698 1350.19 733.881L1350.23 733.93L1351.22 735.166C1351.85 735.01 1352.49 734.933 1353.14 734.937C1356.64 734.937 1360.45 737.017 1364.25 739.097C1368.05 741.178 1371.87 743.254 1375.39 743.254C1376.96 743.272 1378.51 742.798 1379.81 741.898C1382.02 740.387 1383.23 737.798 1384.24 735.293C1391.93 716.101 1393.1 695.365 1390.31 674.756" fill="#CDD794"/>
<path d="M1430.79 716.294L1430.75 716.318L1424.49 720.514L1419.55 723.817C1419.39 726.826 1419.23 729.821 1419.07 732.834L1430.79 716.294ZM1400.74 660.061L1390.32 674.758C1393.11 695.367 1391.94 716.103 1384.25 735.296C1383.24 737.8 1382.03 740.389 1379.82 741.9C1378.53 742.797 1376.99 743.27 1375.42 743.257C1371.89 743.257 1368.07 741.176 1364.28 739.1C1360.48 737.023 1356.67 734.939 1353.17 734.939C1352.52 734.936 1351.88 735.013 1351.25 735.169L1352.52 736.765C1353.99 738.531 1355.93 741.201 1358.54 744.161C1359.83 745.658 1361.22 747.28 1362.69 748.989C1364.16 750.699 1365.82 752.415 1367.46 754.238C1369.1 756.06 1370.83 757.932 1372.68 759.73L1378.19 765.264C1380.1 767.03 1382.02 768.832 1383.89 770.587C1385.59 772.226 1387.37 773.727 1389.07 775.207L1403.8 754.428C1403.99 752.253 1404.18 750.079 1404.36 747.908C1406.6 721.913 1408.87 695.92 1411.18 669.929L1408.62 667.538C1407.57 666.563 1406.29 665.38 1404.84 664.006L1402.51 661.845C1401.95 661.283 1401.38 660.672 1400.77 660.047" fill="#C5D18C"/>
<path d="M1335.84 751.613L1334.89 752.945V851.589L1335.84 850.257V751.613Z" fill="#E2F3FE"/>
<path d="M1347.47 735.207L1335.84 751.616V847.933C1336.16 848.247 1336.49 848.569 1336.81 848.894L1375.9 793.735C1366.54 775.048 1353.07 757.921 1348.86 737.482L1347.7 735.765C1347.59 735.596 1347.51 735.406 1347.47 735.207" fill="#CDD794"/>
<path d="M1335.84 847.932V850.259L1336.81 848.893C1336.49 848.568 1336.16 848.246 1335.84 847.932ZM1348.86 737.48C1353.07 757.92 1366.54 775.046 1375.9 793.734L1384.47 781.686L1384.19 781.404C1382.45 779.603 1380.59 777.784 1378.84 775.799L1373.46 769.886L1368.31 763.779C1366.57 761.798 1365.01 759.725 1363.46 757.775C1361.9 755.825 1360.38 753.929 1359.05 752.053C1357.72 750.178 1356.42 748.437 1355.24 746.819C1352.85 743.608 1351.1 740.755 1349.77 738.84L1348.87 737.512" fill="#C5D18C"/>
<path d="M1425.06 625.75L1413.65 641.842C1413.17 647.196 1412.69 652.549 1412.21 657.901L1414.89 660.091L1418.37 662.938C1418.89 663.353 1419.32 663.867 1419.64 664.452C1419.96 665.038 1420.16 665.681 1420.24 666.347C1420.31 667.012 1420.25 667.685 1420.07 668.328C1419.89 668.971 1419.58 669.57 1419.16 670.091C1418.75 670.612 1418.24 671.044 1417.66 671.363C1417.08 671.682 1416.44 671.881 1415.78 671.948C1415.13 672.015 1414.46 671.95 1413.83 671.755C1413.2 671.56 1412.61 671.241 1412.1 670.814L1411.86 670.606L1411.14 669.931C1408.82 695.917 1406.54 721.91 1404.32 747.91C1404.13 750.083 1403.95 752.257 1403.76 754.43L1419.08 732.835C1419.24 729.826 1419.4 726.831 1419.56 723.818L1419.04 724.172C1418.42 724.585 1417.73 724.87 1417.01 725.012C1416.28 725.154 1415.53 725.15 1414.81 724.999C1414.09 724.848 1413.4 724.554 1412.79 724.134C1412.17 723.713 1411.65 723.175 1411.24 722.549C1410.42 721.284 1410.13 719.74 1410.43 718.256C1410.73 716.772 1411.6 715.469 1412.84 714.635L1413.11 714.469L1418.75 711.128L1420.31 710.21C1421.84 682.055 1423.43 653.902 1425.07 625.75" fill="#CAA57E"/>
<path d="M1406.03 652.596L1400.74 660.062C1401.33 660.687 1401.91 661.298 1402.48 661.86L1404.8 664.021C1406.26 665.381 1407.53 666.564 1408.58 667.553L1411.14 669.944L1411.87 670.619L1412.11 670.827C1412.62 671.253 1413.21 671.573 1413.84 671.768C1414.47 671.962 1415.13 672.028 1415.79 671.961C1416.44 671.893 1417.08 671.695 1417.66 671.376C1418.24 671.057 1418.75 670.625 1419.17 670.104C1419.58 669.583 1419.89 668.984 1420.08 668.341C1420.26 667.698 1420.32 667.025 1420.24 666.36C1420.17 665.694 1419.97 665.051 1419.65 664.465C1419.33 663.88 1418.89 663.366 1418.38 662.951L1414.89 660.104L1412.21 657.915L1410.91 656.855L1408.47 654.845C1407.67 654.139 1406.9 653.397 1406.05 652.624" fill="#CAA57E"/>
<path d="M1447.44 692.805C1445.92 693.917 1444.42 694.977 1442.91 695.931L1433.42 702.172C1431.95 703.132 1430.57 704.068 1429.2 704.927L1425.22 707.289L1420.29 710.207L1418.74 711.125L1413.09 714.466L1412.83 714.633C1411.58 715.467 1410.71 716.769 1410.41 718.253C1410.11 719.737 1410.41 721.281 1411.23 722.546C1412.05 723.811 1413.33 724.692 1414.8 724.996C1416.26 725.301 1417.78 725.003 1419.03 724.169L1419.55 723.816L1424.48 720.513L1430.75 716.317L1430.78 716.293L1447.43 692.805" fill="#CAA57E"/>
<path d="M1348.99 733.296C1348.93 733.292 1348.87 733.292 1348.81 733.296L1347.47 735.189C1347.51 735.388 1347.59 735.577 1347.7 735.747L1348.86 737.463L1349.75 738.791C1351.08 740.706 1352.84 743.56 1355.23 746.77C1356.4 748.388 1357.66 750.147 1359.03 752.004C1360.4 753.862 1361.91 755.734 1363.44 757.726C1364.96 759.718 1366.57 761.767 1368.29 763.731L1373.44 769.837L1378.82 775.75C1380.56 777.735 1382.42 779.554 1384.17 781.355L1384.45 781.638L1389.03 775.174C1387.33 773.694 1385.55 772.193 1383.85 770.554C1381.97 768.788 1380.06 767.022 1378.15 765.232L1372.63 759.729C1370.79 757.931 1369.1 756.038 1367.41 754.237C1365.73 752.435 1364.09 750.705 1362.64 748.988C1361.19 747.272 1359.78 745.658 1358.49 744.16C1355.88 741.2 1353.94 738.541 1352.47 736.764L1351.2 735.168L1350.21 733.931L1350.17 733.882C1350.03 733.7 1349.84 733.553 1349.64 733.452C1349.43 733.351 1349.2 733.299 1348.97 733.299" fill="#CAA57E"/>
<path d="M1579.3 556.61L1554.84 591.125C1556.07 598.358 1556.72 605.682 1556.78 613.023L1594.7 559.528H1582.1C1581.07 558.654 1580.14 557.675 1579.31 556.607L1579.3 556.61ZM1746.93 344.799H1729.44L1587.7 544.778H1587.93C1591 544.759 1594.03 545.588 1596.67 547.176C1598.41 537.584 1604.76 531.943 1612.44 531.943C1613.03 531.944 1613.62 531.975 1614.2 532.038L1746.93 344.799" fill="#E2F3FE"/>
<path d="M1612.43 531.945C1604.75 531.945 1598.39 537.596 1596.66 547.179C1594.01 545.59 1590.99 544.761 1587.92 544.78H1587.68L1579.3 556.609C1580.13 557.678 1581.06 558.656 1582.08 559.53H1594.69L1614.18 532.041C1613.6 531.978 1613.01 531.946 1612.42 531.945" fill="white"/>
<path d="M1554.84 591.123L1423.05 777.063C1421.97 786.031 1421.52 795.076 1421.31 804.139L1556.78 613.028C1556.72 605.687 1556.07 598.364 1554.84 591.13" fill="#CDD794"/>
<path d="M1423.05 777.065L1416.24 786.672C1415.79 795.506 1415.34 804.336 1414.91 813.162L1421.31 804.127C1421.52 795.067 1421.97 786.018 1423.05 777.051" fill="#C5D18C"/>
<path d="M1385.51 830.002L1357.32 869.772C1358.59 870.6 1359.93 871.322 1361.32 871.93C1363.07 872.741 1364.96 873.188 1366.88 873.244C1367.9 873.254 1368.91 873.074 1369.86 872.714C1372.68 871.616 1374.54 868.925 1376.06 866.279C1382.34 855.259 1385.61 842.733 1385.51 830.002" fill="#CDD794"/>
<path d="M1399.02 810.963L1385.51 829.997C1385.61 842.727 1382.35 855.252 1376.07 866.273C1374.55 868.919 1372.69 871.61 1369.87 872.709C1368.92 873.068 1367.91 873.248 1366.9 873.238C1364.97 873.182 1363.08 872.735 1361.33 871.925C1359.94 871.316 1358.6 870.594 1357.33 869.766L1351.33 878.218L1357.15 883.403L1360.81 886.678C1361.2 887.031 1361.62 887.384 1362.05 887.737L1396.76 838.777C1397.5 829.502 1398.26 820.231 1399.02 810.963" fill="#C5D18C"/>
<path d="M1335.84 900.107L1334.89 901.439V926.053L1335.84 924.722V900.107Z" fill="#E2F3FE"/>
<path d="M1345.21 886.881L1335.84 900.108V924.733L1354.29 898.709C1353.5 897.756 1352.71 896.792 1351.94 895.824C1349.62 892.913 1347.38 889.936 1345.22 886.891" fill="#CDD794"/>
<path d="M1349.23 881.211L1345.21 886.863C1347.37 889.905 1349.61 892.882 1351.93 895.795C1352.71 896.763 1353.49 897.727 1354.28 898.68L1358.91 892.16C1358.34 891.595 1357.8 891.03 1357.31 890.44L1353.99 886.647L1349.23 881.197" fill="#C5D18C"/>
<path d="M1416.24 786.666L1411.47 793.394C1411.98 794.246 1412.24 795.233 1412.2 796.231C1412.17 797.23 1411.84 798.196 1411.27 799.007C1410.69 799.819 1409.9 800.44 1408.97 800.792C1408.05 801.145 1407.05 801.213 1406.09 800.988L1399.02 810.962C1398.26 820.235 1397.5 829.506 1396.76 838.777L1414.91 813.17C1415.35 804.338 1415.79 795.508 1416.24 786.68" fill="#CAA57E"/>
<path d="M1411.47 793.395L1406.09 800.988C1407.05 801.216 1408.05 801.151 1408.98 800.799C1409.9 800.448 1410.7 799.827 1411.28 799.014C1411.85 798.201 1412.18 797.234 1412.21 796.233C1412.24 795.233 1411.98 794.245 1411.47 793.395" fill="#CAA57E"/>
<path d="M1351.34 878.219L1349.22 881.21L1353.99 886.66L1357.31 890.468C1357.8 891.057 1358.36 891.623 1358.91 892.188L1362.04 887.752C1361.61 887.398 1361.2 887.045 1360.81 886.692L1357.14 883.404L1351.34 878.226" fill="#CAA57E"/>
<path d="M1779.3 559.527H1744.37L1547.1 837.846C1547.41 842.849 1547.41 847.867 1547.1 852.871C1550.78 849.091 1556.15 847.142 1561.47 847.142C1565.58 847.142 1569.67 848.304 1572.95 850.674L1779.3 559.527Z" fill="#E2F3FE"/>
<path d="M1561.48 847.131C1556.15 847.131 1550.79 849.08 1547.11 852.86C1546.07 870.166 1541.23 887.187 1532 901.721C1522.57 916.555 1507.01 930.192 1489.5 939.545H1509.98L1572.98 850.663C1569.7 848.293 1565.6 847.131 1561.5 847.131" fill="#DDE397"/>
<path d="M1787.06 499.293L1744.37 559.527H1779.29L1787.06 548.56V499.293Z" fill="white"/>
<path d="M1547.1 837.842L1475 939.562H1489.49C1507.01 930.21 1522.56 916.583 1531.99 901.738C1541.23 887.204 1546.05 870.194 1547.11 852.877C1547.41 847.874 1547.41 842.856 1547.11 837.852" fill="#CDD794"/>
<path d="M1332.06 337.312C1327.48 337.312 1323.76 341.03 1323.76 345.615V941.317C1323.76 945.903 1327.48 949.62 1332.06 949.62H1791.7C1796.28 949.62 1800 945.903 1800 941.317V345.615C1800 341.03 1796.28 337.312 1791.7 337.312H1332.06ZM1783.81 927.634C1783.81 932.22 1780.09 935.937 1775.5 935.937H1348.26C1343.67 935.937 1339.96 932.22 1339.96 927.634V359.298C1339.96 354.713 1343.67 350.995 1348.26 350.995H1775.5C1780.09 350.995 1783.81 354.713 1783.81 359.298V927.634Z" fill="#A06E67"/>
<path d="M1465.62 347.395V939.534H1479.81V347.395" fill="#A06E67"/>
<path d="M1643.95 347.395V939.534H1658.14V347.395" fill="#A06E67"/>
<path d="M1789.88 517.396H1323.76V531.793H1789.88" fill="#A06E67"/>
<path d="M1789.88 755.133H1323.76V769.529H1789.88" fill="#A06E67"/>
<path d="M962.484 464.987H974.208C976.868 464.987 979.114 465.392 980.947 466.203C982.795 467.014 984.198 468.214 985.155 469.803C986.128 471.376 986.614 473.314 986.614 475.617C986.614 477.239 986.282 478.722 985.617 480.068C984.968 481.398 984.028 482.533 982.795 483.474C981.579 484.398 980.119 485.088 978.417 485.542L977.103 486.052H966.084L966.035 482.233H974.354C976.041 482.233 977.444 481.942 978.563 481.358C979.682 480.758 980.525 479.955 981.092 478.95C981.66 477.944 981.944 476.833 981.944 475.617C981.944 474.255 981.676 473.063 981.141 472.041C980.606 471.02 979.763 470.233 978.611 469.682C977.476 469.114 976.009 468.83 974.208 468.83H967.179V500.404H962.484V464.987ZM983.184 500.404L974.573 484.35L979.463 484.325L988.195 500.112V500.404H983.184ZM1003.42 500.891C1001.59 500.891 999.928 500.583 998.436 499.966C996.961 499.334 995.688 498.45 994.617 497.315C993.563 496.18 992.752 494.834 992.185 493.277C991.617 491.72 991.333 490.017 991.333 488.169V487.147C991.333 485.006 991.65 483.101 992.282 481.431C992.915 479.744 993.774 478.317 994.861 477.149C995.947 475.982 997.18 475.098 998.558 474.498C999.936 473.898 1001.36 473.598 1002.84 473.598C1004.72 473.598 1006.34 473.922 1007.7 474.571C1009.08 475.22 1010.21 476.128 1011.09 477.295C1011.96 478.447 1012.61 479.809 1013.03 481.382C1013.45 482.939 1013.66 484.642 1013.66 486.49V488.509H994.009V484.836H1009.16V484.496C1009.1 483.328 1008.86 482.193 1008.43 481.09C1008.03 479.987 1007.38 479.079 1006.49 478.366C1005.6 477.652 1004.38 477.295 1002.84 477.295C1001.82 477.295 1000.88 477.514 1000.02 477.952C999.158 478.374 998.42 479.006 997.804 479.85C997.188 480.693 996.709 481.723 996.369 482.939C996.028 484.155 995.858 485.558 995.858 487.147V488.169C995.858 489.417 996.028 490.593 996.369 491.696C996.725 492.782 997.236 493.739 997.901 494.566C998.582 495.393 999.401 496.042 1000.36 496.512C1001.33 496.983 1002.43 497.218 1003.67 497.218C1005.26 497.218 1006.6 496.893 1007.7 496.245C1008.81 495.596 1009.77 494.728 1010.6 493.642L1013.32 495.807C1012.76 496.666 1012.03 497.485 1011.16 498.264C1010.28 499.042 1009.2 499.675 1007.92 500.161C1006.66 500.648 1005.16 500.891 1003.42 500.891ZM1034.24 493.423C1034.24 492.774 1034.1 492.174 1033.81 491.623C1033.53 491.055 1032.95 490.545 1032.08 490.09C1031.22 489.62 1029.92 489.215 1028.19 488.874C1026.73 488.566 1025.4 488.201 1024.22 487.78C1023.05 487.358 1022.06 486.847 1021.23 486.247C1020.42 485.647 1019.79 484.942 1019.36 484.131C1018.92 483.32 1018.7 482.371 1018.7 481.285C1018.7 480.247 1018.93 479.266 1019.38 478.341C1019.85 477.417 1020.51 476.598 1021.35 475.885C1022.21 475.171 1023.24 474.612 1024.44 474.206C1025.64 473.801 1026.98 473.598 1028.45 473.598C1030.56 473.598 1032.36 473.971 1033.85 474.717C1035.35 475.463 1036.49 476.46 1037.28 477.709C1038.08 478.941 1038.48 480.312 1038.48 481.82H1033.98C1033.98 481.09 1033.76 480.385 1033.32 479.704C1032.9 479.006 1032.27 478.431 1031.45 477.977C1030.63 477.522 1029.64 477.295 1028.45 477.295C1027.2 477.295 1026.19 477.49 1025.41 477.879C1024.65 478.252 1024.09 478.731 1023.73 479.314C1023.39 479.898 1023.22 480.514 1023.22 481.163C1023.22 481.65 1023.3 482.087 1023.47 482.477C1023.65 482.85 1023.95 483.198 1024.39 483.523C1024.83 483.831 1025.45 484.123 1026.24 484.398C1027.03 484.674 1028.05 484.95 1029.28 485.225C1031.44 485.712 1033.21 486.296 1034.61 486.977C1036 487.658 1037.04 488.493 1037.72 489.482C1038.4 490.472 1038.74 491.672 1038.74 493.082C1038.74 494.234 1038.5 495.288 1038.01 496.245C1037.54 497.201 1036.85 498.029 1035.95 498.726C1035.05 499.407 1033.98 499.942 1032.73 500.331C1031.5 500.704 1030.12 500.891 1028.58 500.891C1026.26 500.891 1024.29 500.477 1022.69 499.65C1021.08 498.823 1019.87 497.753 1019.04 496.439C1018.21 495.126 1017.8 493.739 1017.8 492.28H1022.32C1022.39 493.512 1022.75 494.493 1023.39 495.223C1024.04 495.937 1024.84 496.447 1025.78 496.756C1026.72 497.047 1027.65 497.193 1028.58 497.193C1029.81 497.193 1030.84 497.031 1031.66 496.707C1032.51 496.383 1033.15 495.937 1033.59 495.369C1034.02 494.801 1034.24 494.153 1034.24 493.423ZM1055.58 500.891C1053.74 500.891 1052.08 500.583 1050.59 499.966C1049.11 499.334 1047.84 498.45 1046.77 497.315C1045.72 496.18 1044.91 494.834 1044.34 493.277C1043.77 491.72 1043.49 490.017 1043.49 488.169V487.147C1043.49 485.006 1043.8 483.101 1044.44 481.431C1045.07 479.744 1045.93 478.317 1047.01 477.149C1048.1 475.982 1049.33 475.098 1050.71 474.498C1052.09 473.898 1053.52 473.598 1054.99 473.598C1056.87 473.598 1058.5 473.922 1059.86 474.571C1061.24 475.22 1062.36 476.128 1063.24 477.295C1064.11 478.447 1064.76 479.809 1065.18 481.382C1065.61 482.939 1065.82 484.642 1065.82 486.49V488.509H1046.16V484.836H1061.32V484.496C1061.25 483.328 1061.01 482.193 1060.59 481.09C1060.18 479.987 1059.53 479.079 1058.64 478.366C1057.75 477.652 1056.53 477.295 1054.99 477.295C1053.97 477.295 1053.03 477.514 1052.17 477.952C1051.31 478.374 1050.57 479.006 1049.96 479.85C1049.34 480.693 1048.86 481.723 1048.52 482.939C1048.18 484.155 1048.01 485.558 1048.01 487.147V488.169C1048.01 489.417 1048.18 490.593 1048.52 491.696C1048.88 492.782 1049.39 493.739 1050.05 494.566C1050.74 495.393 1051.55 496.042 1052.51 496.512C1053.48 496.983 1054.59 497.218 1055.82 497.218C1057.41 497.218 1058.75 496.893 1059.86 496.245C1060.96 495.596 1061.92 494.728 1062.75 493.642L1065.48 495.807C1064.91 496.666 1064.19 497.485 1063.31 498.264C1062.44 499.042 1061.36 499.675 1060.08 500.161C1058.81 500.648 1057.31 500.891 1055.58 500.891ZM1082.09 474.084V477.539H1067.86V474.084H1082.09ZM1072.68 467.687H1077.18V493.885C1077.18 494.777 1077.31 495.45 1077.59 495.904C1077.87 496.358 1078.22 496.658 1078.66 496.804C1079.1 496.95 1079.57 497.023 1080.07 497.023C1080.44 497.023 1080.83 496.991 1081.24 496.926C1081.66 496.845 1081.98 496.78 1082.19 496.731L1082.21 500.404C1081.86 500.518 1081.39 500.623 1080.8 500.721C1080.23 500.834 1079.54 500.891 1078.73 500.891C1077.63 500.891 1076.62 500.672 1075.69 500.234C1074.77 499.796 1074.03 499.066 1073.48 498.045C1072.94 497.007 1072.68 495.612 1072.68 493.861V467.687ZM1113.03 483.839H1104.06L1104.01 480.068H1112.16C1113.5 480.068 1114.68 479.841 1115.68 479.387C1116.69 478.933 1117.47 478.285 1118.02 477.441C1118.59 476.582 1118.87 475.56 1118.87 474.376C1118.87 473.079 1118.62 472.025 1118.12 471.214C1117.63 470.387 1116.88 469.787 1115.85 469.414C1114.85 469.025 1113.57 468.83 1112.01 468.83H1105.1V500.404H1100.41V464.987H1112.01C1113.83 464.987 1115.45 465.173 1116.88 465.546C1118.3 465.903 1119.51 466.471 1120.5 467.249C1121.51 468.011 1122.27 468.984 1122.79 470.168C1123.31 471.352 1123.56 472.771 1123.56 474.425C1123.56 475.885 1123.19 477.206 1122.45 478.39C1121.7 479.558 1120.66 480.514 1119.33 481.26C1118.02 482.006 1116.48 482.485 1114.71 482.696L1113.03 483.839ZM1112.81 500.404H1102.21L1104.86 496.585H1112.81C1114.31 496.585 1115.57 496.326 1116.61 495.807C1117.66 495.288 1118.46 494.558 1119.02 493.618C1119.57 492.661 1119.84 491.534 1119.84 490.236C1119.84 488.923 1119.61 487.788 1119.14 486.831C1118.67 485.874 1117.93 485.136 1116.92 484.617C1115.92 484.098 1114.62 483.839 1113.03 483.839H1106.34L1106.39 480.068H1115.54L1116.53 481.431C1118.24 481.577 1119.68 482.063 1120.86 482.89C1122.05 483.701 1122.95 484.739 1123.56 486.004C1124.2 487.269 1124.51 488.663 1124.51 490.188C1124.51 492.393 1124.03 494.258 1123.05 495.783C1122.1 497.291 1120.74 498.442 1118.99 499.237C1117.24 500.015 1115.18 500.404 1112.81 500.404ZM1146.87 494.323V474.084H1151.39V500.404H1147.09L1146.87 494.323ZM1147.72 488.777L1149.59 488.728C1149.59 490.48 1149.41 492.101 1149.03 493.593C1148.68 495.069 1148.09 496.35 1147.28 497.437C1146.47 498.523 1145.41 499.375 1144.1 499.991C1142.78 500.591 1141.18 500.891 1139.3 500.891C1138.02 500.891 1136.85 500.704 1135.78 500.331C1134.72 499.958 1133.81 499.383 1133.05 498.604C1132.29 497.826 1131.7 496.812 1131.28 495.564C1130.87 494.315 1130.67 492.815 1130.67 491.063V474.084H1135.17V491.112C1135.17 492.296 1135.3 493.277 1135.56 494.055C1135.83 494.818 1136.2 495.426 1136.65 495.88C1137.12 496.318 1137.64 496.626 1138.21 496.804C1138.79 496.983 1139.39 497.072 1140.01 497.072C1141.92 497.072 1143.44 496.707 1144.56 495.977C1145.68 495.231 1146.48 494.234 1146.97 492.985C1147.47 491.72 1147.72 490.317 1147.72 488.777ZM1169.27 474.084V477.539H1155.04V474.084H1169.27ZM1159.86 467.687H1164.36V493.885C1164.36 494.777 1164.5 495.45 1164.77 495.904C1165.05 496.358 1165.4 496.658 1165.84 496.804C1166.28 496.95 1166.75 497.023 1167.25 497.023C1167.63 497.023 1168.02 496.991 1168.42 496.926C1168.84 496.845 1169.16 496.78 1169.37 496.731L1169.39 500.404C1169.04 500.518 1168.57 500.623 1167.98 500.721C1167.42 500.834 1166.73 500.891 1165.91 500.891C1164.81 500.891 1163.8 500.672 1162.87 500.234C1161.95 499.796 1161.21 499.066 1160.66 498.045C1160.13 497.007 1159.86 495.612 1159.86 493.861V467.687ZM1185.57 474.084V477.539H1171.34V474.084H1185.57ZM1176.16 467.687H1180.66V493.885C1180.66 494.777 1180.79 495.45 1181.07 495.904C1181.35 496.358 1181.7 496.658 1182.14 496.804C1182.58 496.95 1183.05 497.023 1183.55 497.023C1183.92 497.023 1184.31 496.991 1184.72 496.926C1185.14 496.845 1185.46 496.78 1185.67 496.731L1185.69 500.404C1185.33 500.518 1184.86 500.623 1184.28 500.721C1183.71 500.834 1183.02 500.891 1182.21 500.891C1181.11 500.891 1180.1 500.672 1179.17 500.234C1178.25 499.796 1177.51 499.066 1176.96 498.045C1176.42 497.007 1176.16 495.612 1176.16 493.861V467.687ZM1189.17 487.536V486.977C1189.17 485.079 1189.45 483.32 1190 481.698C1190.55 480.06 1191.34 478.641 1192.38 477.441C1193.42 476.225 1194.68 475.285 1196.15 474.62C1197.63 473.939 1199.28 473.598 1201.11 473.598C1202.96 473.598 1204.62 473.939 1206.1 474.62C1207.59 475.285 1208.86 476.225 1209.89 477.441C1210.95 478.641 1211.75 480.06 1212.3 481.698C1212.85 483.32 1213.13 485.079 1213.13 486.977V487.536C1213.13 489.434 1212.85 491.193 1212.3 492.815C1211.75 494.437 1210.95 495.855 1209.89 497.072C1208.86 498.272 1207.6 499.212 1206.12 499.893C1204.66 500.558 1203.01 500.891 1201.16 500.891C1199.31 500.891 1197.65 500.558 1196.18 499.893C1194.7 499.212 1193.43 498.272 1192.38 497.072C1191.34 495.855 1190.55 494.437 1190 492.815C1189.45 491.193 1189.17 489.434 1189.17 487.536ZM1193.67 486.977V487.536C1193.67 488.85 1193.82 490.09 1194.13 491.258C1194.44 492.409 1194.9 493.431 1195.52 494.323C1196.15 495.215 1196.94 495.92 1197.88 496.439C1198.82 496.942 1199.91 497.193 1201.16 497.193C1202.39 497.193 1203.47 496.942 1204.4 496.439C1205.34 495.92 1206.12 495.215 1206.73 494.323C1207.35 493.431 1207.81 492.409 1208.12 491.258C1208.44 490.09 1208.61 488.85 1208.61 487.536V486.977C1208.61 485.679 1208.44 484.455 1208.12 483.304C1207.81 482.136 1207.34 481.106 1206.71 480.214C1206.09 479.306 1205.31 478.593 1204.37 478.074C1203.45 477.555 1202.36 477.295 1201.11 477.295C1199.88 477.295 1198.79 477.555 1197.85 478.074C1196.93 478.593 1196.15 479.306 1195.52 480.214C1194.9 481.106 1194.44 482.136 1194.13 483.304C1193.82 484.455 1193.67 485.679 1193.67 486.977ZM1223.27 479.704V500.404H1218.77V474.084H1223.03L1223.27 479.704ZM1222.2 486.247L1220.33 486.174C1220.35 484.374 1220.61 482.712 1221.13 481.187C1221.65 479.647 1222.38 478.309 1223.32 477.174C1224.26 476.039 1225.38 475.163 1226.68 474.547C1227.99 473.914 1229.44 473.598 1231.03 473.598C1232.33 473.598 1233.5 473.776 1234.54 474.133C1235.57 474.474 1236.46 475.025 1237.19 475.787C1237.93 476.549 1238.5 477.539 1238.89 478.755C1239.28 479.955 1239.47 481.423 1239.47 483.158V500.404H1234.95V483.109C1234.95 481.731 1234.75 480.628 1234.34 479.801C1233.94 478.958 1233.34 478.349 1232.57 477.977C1231.79 477.587 1230.83 477.393 1229.7 477.393C1228.58 477.393 1227.55 477.628 1226.63 478.098C1225.72 478.568 1224.94 479.217 1224.27 480.044C1223.62 480.871 1223.11 481.82 1222.74 482.89C1222.38 483.944 1222.2 485.063 1222.2 486.247Z" fill="black"/>
<path d="M311.618 819.335C311.618 816.86 310.61 814.486 308.816 812.736C307.021 810.985 304.588 810.002 302.051 810.002C299.514 810.002 297.08 810.985 295.286 812.736C293.492 814.486 292.484 816.86 292.484 819.335V831.784H311.618V819.335Z" fill="#373737" fill-opacity="0.35"/>
<path d="M260.592 819.338C260.509 816.915 259.463 814.62 257.677 812.935C255.892 811.25 253.504 810.309 251.02 810.309C248.536 810.309 246.149 811.25 244.363 812.935C242.577 814.62 241.532 816.915 241.448 819.338V831.786H260.592V819.338Z" fill="#373737" fill-opacity="0.35"/>
<path d="M340.318 915.79V866.008C340.306 862.711 338.958 859.552 336.567 857.222C334.177 854.892 330.938 853.579 327.559 853.571H311.618V831.789H292.485V853.571H260.592V831.789H241.448V853.571H225.507C222.129 853.579 218.891 854.892 216.503 857.223C214.114 859.553 212.768 862.712 212.759 866.008V915.79C209.379 915.801 206.14 917.116 203.75 919.448C201.359 921.78 200.011 924.94 200 928.238V1040.24C200.011 1043.54 201.359 1046.7 203.75 1049.03C206.14 1051.36 209.379 1052.68 212.759 1052.69H340.318C343.698 1052.68 346.937 1051.36 349.327 1049.03C351.717 1046.7 353.065 1043.54 353.077 1040.24V928.238C353.065 924.94 351.717 921.78 349.327 919.448C346.937 917.116 343.698 915.801 340.318 915.79V915.79ZM270.159 1021.57V984.239H244.641L270.159 934.457H295.666L282.918 959.353H308.425L270.159 1021.57Z" fill="#373737" fill-opacity="0.35"/>
<path d="M533.819 820.352H532.031C532.031 820.352 532.46 828.425 526.735 830.534H533.819V820.352Z" fill="black"/>
<path d="M521.111 830.534H531.234C532.66 830.534 533.819 829.762 533.819 828.805V822.08C533.819 821.127 532.66 820.352 531.234 820.352H521.111V830.534Z" fill="black"/>
<path d="M533.82 822.156C533.82 821.203 535.717 820.428 531.235 820.428H521.112V826.545C526.964 826.797 531.86 825.253 533.82 823.144V822.156Z" fill="#24211E"/>
<path d="M590.245 836.145H573.771V814.869H590.347C591.237 814.865 592.095 815.203 592.741 815.812C593.388 816.42 593.773 817.253 593.817 818.138C593.838 818.211 593.846 818.288 593.842 818.365V832.58C593.843 833.049 593.751 833.514 593.571 833.948C593.39 834.382 593.125 834.776 592.791 835.108C592.456 835.439 592.059 835.701 591.622 835.879C591.185 836.058 590.717 836.148 590.245 836.145Z" fill="#D1D3D4"/>
<path d="M579.272 827.202C578.418 824.408 578.376 816.576 580.807 814.883H590.347C591.278 814.883 592.172 815.251 592.831 815.906C593.489 816.56 593.859 817.449 593.859 818.375V832.23C582.672 832.562 580.621 831.581 579.272 827.202Z" fill="#D9DADB"/>
<path d="M576.451 839.367V811.271H533.819V839.367H576.451Z" fill="black"/>
<path d="M521.111 825.604H504.103" stroke="black" stroke-width="8.30298"/>
<path d="M370.057 974.954V1005.93H410.163V974.954H370.057Z" fill="#696C6E"/>
<path d="M370.057 974.954V1005.93H410.163V974.954H370.057Z" fill="#D1D3D4"/>
<path d="M370.043 974.968H410.163V1005.95H400.251C400.251 1005.95 404.357 1002.08 404.357 988.101C404.357 974.119 395.224 975.809 384.764 975.809C374.304 975.809 370.043 974.968 370.043 974.968Z" fill="#C1C4C6"/>
<path d="M399.176 987.993C400.883 992.043 400.968 1003.46 396.11 1005.93H370.043V980.681C392.383 980.185 396.486 981.599 399.176 987.993Z" fill="#D9DADB"/>
<path d="M410.163 987.797V988.373H402.509V990.443H378.023V988.373H375.227V990.443H370.057V989.867H374.648V987.797H378.603V989.867H401.93V987.797H410.163Z" fill="#E5E8EA"/>
<path d="M410.163 988.087V988.66H402.509V990.73H378.023V988.66H375.227V990.73H370.057V990.154H374.648V988.087H378.603V990.154H401.93V988.087H410.163Z" fill="#ADB1B2"/>
<path opacity="0.7" d="M410.163 1005.93H370.057V974.954L370.889 1005.05L410.163 1005.93Z" fill="#E5E8EA"/>
<path d="M383.127 994.837V1002.04H389.306V994.837H383.127Z" fill="#7E8183"/>
<path d="M383.131 996.646C385.744 997.082 387.852 1000.05 389.053 1002.04H383.131V996.646Z" fill="#8E9192"/>
<path d="M384.798 994.837H389.297V999.977C388.395 998.423 386.765 996.111 384.798 994.837Z" fill="#696C6E"/>
<path d="M383.129 1002.04V994.84H389.307V1002.04L389.472 994.701H382.988L383.129 1002.04Z" fill="#E5E8EA"/>
<path opacity="0.7" d="M383.127 1001.21V1002.04H389.306V1001.21H383.127Z" fill="#696C6E"/>
<path d="M383.127 979.167V986.367H389.306V979.167H383.127Z" fill="#7E8183"/>
<path d="M383.131 980.972C385.744 981.409 387.852 984.377 389.053 986.367H383.131V980.972Z" fill="#8E9192"/>
<path d="M384.798 979.155H389.297V984.295C388.395 982.748 386.765 980.44 384.798 979.155Z" fill="#696C6E"/>
<path d="M383.129 986.367V979.167H389.307V986.367L389.472 979.027H382.988L383.129 986.367Z" fill="#E5E8EA"/>
<path opacity="0.7" d="M383.127 985.54V986.367H389.306V985.54H383.127Z" fill="#696C6E"/>
<path d="M406.266 967.872V1013.59H468.35V967.872H406.266Z" fill="black"/>
<path opacity="0.6" d="M468.35 1013.19V1013.59H406.266V986.141C443.133 984.671 461.606 1003.89 468.35 1013.19Z" fill="black"/>
<path d="M406.266 1005.94V1013.59H468.35V1005.94H406.266Z" fill="black"/>
<path opacity="0.6" d="M406.266 967.872V974.957H468.35V967.872H406.266Z" fill="black"/>
<path opacity="0.6" d="M406.266 974.963C406.266 974.963 454.855 972.672 459.674 967.878H468.35V974.963H406.266Z" fill="black"/>
<path opacity="0.3" d="M468.35 1013.59C468.35 1013.59 425.163 1009.31 416.874 1005.94H406.266V1013.59H468.35Z" fill="black"/>
<path d="M468.348 982.306H483.1C483.595 982.306 484.084 982.402 484.541 982.59C484.997 982.778 485.412 983.053 485.762 983.401C486.111 983.748 486.388 984.161 486.577 984.614C486.766 985.068 486.863 985.555 486.862 986.046V1000.6C486.863 1001.09 486.766 1001.57 486.577 1002.03C486.388 1002.48 486.111 1002.9 485.762 1003.24C485.412 1003.59 484.997 1003.87 484.541 1004.05C484.084 1004.24 483.595 1004.34 483.1 1004.34H468.348V982.306Z" fill="black"/>
<path d="M486.859 997.724C486.86 998.215 486.763 998.702 486.574 999.156C486.385 999.61 486.108 1000.02 485.759 1000.37C485.409 1000.72 484.995 1000.99 484.538 1001.18C484.081 1001.37 483.592 1001.47 483.097 1001.47H468.345V988.24C476.87 987.695 484 991.033 486.852 995.597L486.859 997.724Z" fill="black"/>
<path d="M506.153 993.156H480.641" stroke="black" stroke-width="8.30298"/>
<path d="M506.153 997.373L506.124 821.37" stroke="black" stroke-width="8.30298"/>
<circle cx="1100.18" cy="355.618" r="60.6184" fill="#333333"/>
<path d="M1137.58 349.144C1141.11 362.554 1135.23 380.775 1120.48 389.97C1106.25 398.836 1087.66 397.746 1074.91 387.152C1061.77 376.235 1057.32 358.654 1063.58 342.915C1068.98 329.323 1084.24 316.248 1106.09 319.153C1106.84 316.575 1107.6 313.972 1108.45 311.066L1124.75 329.244L1101.29 336.305C1102.04 333.588 1102.71 331.202 1103.49 328.384C1101.21 328.384 1099.06 328.156 1096.96 328.422C1084.71 329.979 1075.93 336.369 1072.03 348.059C1065.39 367.969 1080.32 386.143 1099.13 386.356C1114.29 386.529 1126.83 375.754 1128.71 360.775C1129.06 357.995 1128.61 355.105 1128.41 352.274C1128.36 351.47 1128.3 350.914 1129.25 350.736C1132 350.219 1134.74 349.689 1137.58 349.144Z" fill="white"/>
<path d="M385.252 489.542H375.789V485.723H385.252C387.084 485.723 388.568 485.431 389.703 484.847C390.839 484.263 391.666 483.453 392.185 482.415C392.72 481.377 392.987 480.193 392.987 478.863C392.987 477.647 392.72 476.504 392.185 475.433C391.666 474.363 390.839 473.504 389.703 472.855C388.568 472.19 387.084 471.858 385.252 471.858H376.884V503.432H372.189V468.014H385.252C387.928 468.014 390.19 468.476 392.039 469.401C393.887 470.325 395.29 471.606 396.247 473.244C397.204 474.866 397.682 476.723 397.682 478.815C397.682 481.085 397.204 483.023 396.247 484.628C395.29 486.234 393.887 487.458 392.039 488.301C390.19 489.128 387.928 489.542 385.252 489.542ZM401.404 490.564V490.004C401.404 488.107 401.68 486.347 402.231 484.726C402.782 483.088 403.577 481.669 404.615 480.469C405.653 479.252 406.909 478.312 408.385 477.647C409.861 476.966 411.515 476.625 413.347 476.625C415.196 476.625 416.858 476.966 418.334 477.647C419.826 478.312 421.091 479.252 422.129 480.469C423.183 481.669 423.986 483.088 424.537 484.726C425.088 486.347 425.364 488.107 425.364 490.004V490.564C425.364 492.461 425.088 494.221 424.537 495.842C423.986 497.464 423.183 498.883 422.129 500.099C421.091 501.299 419.834 502.24 418.358 502.921C416.899 503.586 415.245 503.918 413.396 503.918C411.547 503.918 409.885 503.586 408.409 502.921C406.934 502.24 405.669 501.299 404.615 500.099C403.577 498.883 402.782 497.464 402.231 495.842C401.68 494.221 401.404 492.461 401.404 490.564ZM405.904 490.004V490.564C405.904 491.877 406.058 493.118 406.366 494.285C406.674 495.437 407.136 496.458 407.753 497.35C408.385 498.242 409.172 498.948 410.112 499.467C411.053 499.969 412.147 500.221 413.396 500.221C414.629 500.221 415.707 499.969 416.631 499.467C417.572 498.948 418.35 498.242 418.967 497.35C419.583 496.458 420.045 495.437 420.353 494.285C420.677 493.118 420.84 491.877 420.84 490.564V490.004C420.84 488.707 420.677 487.482 420.353 486.331C420.045 485.163 419.575 484.134 418.942 483.242C418.326 482.334 417.548 481.62 416.607 481.101C415.683 480.582 414.596 480.323 413.347 480.323C412.115 480.323 411.028 480.582 410.088 481.101C409.164 481.62 408.385 482.334 407.753 483.242C407.136 484.134 406.674 485.163 406.366 486.331C406.058 487.482 405.904 488.707 405.904 490.004ZM437.673 498.761L444.435 477.112H447.403L446.819 481.417L439.935 503.432H437.04L437.673 498.761ZM433.124 477.112L438.889 499.004L439.302 503.432H436.262L428.624 477.112H433.124ZM453.873 498.834L459.371 477.112H463.846L456.208 503.432H453.192L453.873 498.834ZM448.059 477.112L454.676 498.396L455.43 503.432H452.56L445.481 481.369L444.897 477.112H448.059ZM479.39 503.918C477.558 503.918 475.896 503.61 474.404 502.994C472.928 502.361 471.655 501.478 470.585 500.342C469.53 499.207 468.72 497.861 468.152 496.304C467.584 494.748 467.301 493.045 467.301 491.196V490.174C467.301 488.034 467.617 486.128 468.249 484.458C468.882 482.771 469.741 481.344 470.828 480.177C471.914 479.009 473.147 478.125 474.525 477.525C475.904 476.925 477.331 476.625 478.806 476.625C480.688 476.625 482.309 476.95 483.671 477.598C485.05 478.247 486.177 479.155 487.053 480.323C487.928 481.474 488.577 482.836 488.999 484.409C489.42 485.966 489.631 487.669 489.631 489.518V491.537H469.976V487.864H485.131V487.523C485.066 486.355 484.823 485.22 484.401 484.117C483.996 483.015 483.347 482.107 482.455 481.393C481.563 480.68 480.347 480.323 478.806 480.323C477.785 480.323 476.844 480.542 475.985 480.98C475.125 481.401 474.387 482.034 473.771 482.877C473.155 483.72 472.677 484.75 472.336 485.966C471.995 487.182 471.825 488.585 471.825 490.174V491.196C471.825 492.445 471.995 493.62 472.336 494.723C472.693 495.81 473.204 496.767 473.868 497.594C474.55 498.421 475.369 499.069 476.325 499.54C477.298 500.01 478.401 500.245 479.634 500.245C481.223 500.245 482.569 499.921 483.671 499.272C484.774 498.623 485.739 497.756 486.566 496.669L489.291 498.834C488.723 499.694 488.001 500.513 487.126 501.291C486.25 502.069 485.172 502.702 483.89 503.188C482.626 503.675 481.125 503.918 479.39 503.918ZM499.386 481.247V503.432H494.885V477.112H499.264L499.386 481.247ZM507.607 476.966L507.583 481.15C507.21 481.069 506.853 481.02 506.513 481.004C506.188 480.971 505.815 480.955 505.394 480.955C504.356 480.955 503.44 481.117 502.645 481.442C501.85 481.766 501.177 482.22 500.626 482.804C500.075 483.388 499.637 484.085 499.313 484.896C499.004 485.69 498.802 486.566 498.704 487.523L497.44 488.253C497.44 486.664 497.594 485.172 497.902 483.777C498.226 482.382 498.721 481.15 499.386 480.079C500.05 478.993 500.894 478.15 501.915 477.55C502.953 476.933 504.186 476.625 505.613 476.625C505.937 476.625 506.31 476.666 506.732 476.747C507.153 476.812 507.445 476.885 507.607 476.966ZM537.43 486.866H528.454L528.405 483.096H536.554C537.9 483.096 539.076 482.869 540.081 482.415C541.087 481.961 541.865 481.312 542.417 480.469C542.984 479.609 543.268 478.588 543.268 477.404C543.268 476.106 543.017 475.052 542.514 474.241C542.028 473.414 541.273 472.814 540.252 472.441C539.246 472.052 537.965 471.858 536.408 471.858H529.5V503.432H524.805V468.014H536.408C538.225 468.014 539.846 468.201 541.273 468.574C542.701 468.93 543.909 469.498 544.898 470.276C545.903 471.039 546.666 472.012 547.184 473.195C547.703 474.379 547.963 475.798 547.963 477.452C547.963 478.912 547.59 480.234 546.844 481.417C546.098 482.585 545.06 483.542 543.73 484.288C542.417 485.034 540.876 485.512 539.108 485.723L537.43 486.866ZM537.211 503.432H526.605L529.257 499.613H537.211C538.703 499.613 539.968 499.353 541.006 498.834C542.06 498.315 542.863 497.585 543.414 496.645C543.965 495.688 544.241 494.561 544.241 493.264C544.241 491.95 544.006 490.815 543.536 489.858C543.065 488.901 542.328 488.164 541.322 487.645C540.317 487.126 539.019 486.866 537.43 486.866H530.741L530.789 483.096H539.936L540.933 484.458C542.636 484.604 544.079 485.09 545.263 485.918C546.447 486.728 547.347 487.766 547.963 489.031C548.595 490.296 548.912 491.691 548.912 493.215C548.912 495.421 548.425 497.285 547.452 498.81C546.495 500.318 545.141 501.469 543.39 502.264C541.638 503.042 539.579 503.432 537.211 503.432ZM571.266 497.35V477.112H575.791V503.432H571.485L571.266 497.35ZM572.118 491.804L573.991 491.756C573.991 493.507 573.804 495.129 573.431 496.621C573.075 498.096 572.491 499.377 571.68 500.464C570.869 501.55 569.807 502.402 568.493 503.018C567.18 503.618 565.582 503.918 563.701 503.918C562.42 503.918 561.244 503.732 560.174 503.359C559.12 502.986 558.212 502.41 557.45 501.632C556.687 500.853 556.096 499.84 555.674 498.591C555.269 497.342 555.066 495.842 555.066 494.091V477.112H559.566V494.139C559.566 495.323 559.696 496.304 559.955 497.083C560.231 497.845 560.596 498.453 561.05 498.907C561.52 499.345 562.039 499.653 562.607 499.832C563.19 500.01 563.79 500.099 564.407 500.099C566.32 500.099 567.836 499.734 568.955 499.004C570.074 498.258 570.877 497.261 571.364 496.012C571.866 494.748 572.118 493.345 572.118 491.804ZM593.67 477.112V480.566H579.44V477.112H593.67ZM584.256 470.714H588.756V496.913C588.756 497.804 588.894 498.477 589.17 498.931C589.445 499.386 589.802 499.686 590.24 499.832C590.678 499.977 591.148 500.05 591.651 500.05C592.024 500.05 592.413 500.018 592.818 499.953C593.24 499.872 593.556 499.807 593.767 499.759L593.791 503.432C593.435 503.545 592.964 503.651 592.381 503.748C591.813 503.861 591.124 503.918 590.313 503.918C589.21 503.918 588.197 503.699 587.272 503.261C586.348 502.824 585.61 502.094 585.059 501.072C584.524 500.034 584.256 498.64 584.256 496.888V470.714ZM609.968 477.112V480.566H595.737V477.112H609.968ZM600.554 470.714H605.054V496.913C605.054 497.804 605.192 498.477 605.467 498.931C605.743 499.386 606.1 499.686 606.538 499.832C606.976 499.977 607.446 500.05 607.949 500.05C608.322 500.05 608.711 500.018 609.116 499.953C609.538 499.872 609.854 499.807 610.065 499.759L610.089 503.432C609.732 503.545 609.262 503.651 608.678 503.748C608.111 503.861 607.422 503.918 606.611 503.918C605.508 503.918 604.494 503.699 603.57 503.261C602.646 502.824 601.908 502.094 601.357 501.072C600.821 500.034 600.554 498.64 600.554 496.888V470.714ZM613.568 490.564V490.004C613.568 488.107 613.843 486.347 614.395 484.726C614.946 483.088 615.741 481.669 616.779 480.469C617.817 479.252 619.073 478.312 620.549 477.647C622.025 476.966 623.679 476.625 625.511 476.625C627.36 476.625 629.022 476.966 630.498 477.647C631.99 478.312 633.255 479.252 634.293 480.469C635.347 481.669 636.15 483.088 636.701 484.726C637.252 486.347 637.528 488.107 637.528 490.004V490.564C637.528 492.461 637.252 494.221 636.701 495.842C636.15 497.464 635.347 498.883 634.293 500.099C633.255 501.299 631.998 502.24 630.522 502.921C629.063 503.586 627.409 503.918 625.56 503.918C623.711 503.918 622.049 503.586 620.573 502.921C619.098 502.24 617.833 501.299 616.779 500.099C615.741 498.883 614.946 497.464 614.395 495.842C613.843 494.221 613.568 492.461 613.568 490.564ZM618.068 490.004V490.564C618.068 491.877 618.222 493.118 618.53 494.285C618.838 495.437 619.3 496.458 619.917 497.35C620.549 498.242 621.336 498.948 622.276 499.467C623.217 499.969 624.311 500.221 625.56 500.221C626.793 500.221 627.871 499.969 628.795 499.467C629.736 498.948 630.514 498.242 631.131 497.35C631.747 496.458 632.209 495.437 632.517 494.285C632.841 493.118 633.004 491.877 633.004 490.564V490.004C633.004 488.707 632.841 487.482 632.517 486.331C632.209 485.163 631.739 484.134 631.106 483.242C630.49 482.334 629.712 481.62 628.771 481.101C627.847 480.582 626.76 480.323 625.511 480.323C624.279 480.323 623.192 480.582 622.252 481.101C621.328 481.62 620.549 482.334 619.917 483.242C619.3 484.134 618.838 485.163 618.53 486.331C618.222 487.482 618.068 488.707 618.068 490.004ZM647.672 482.731V503.432H643.171V477.112H647.428L647.672 482.731ZM646.601 489.274L644.728 489.201C644.745 487.401 645.012 485.739 645.531 484.215C646.05 482.674 646.78 481.336 647.72 480.201C648.661 479.066 649.78 478.19 651.077 477.574C652.391 476.942 653.842 476.625 655.431 476.625C656.729 476.625 657.896 476.804 658.934 477.16C659.972 477.501 660.856 478.052 661.586 478.815C662.332 479.577 662.899 480.566 663.288 481.782C663.678 482.982 663.872 484.45 663.872 486.185V503.432H659.348V486.136C659.348 484.758 659.145 483.655 658.74 482.828C658.334 481.985 657.742 481.377 656.964 481.004C656.185 480.615 655.229 480.42 654.093 480.42C652.975 480.42 651.953 480.655 651.029 481.125C650.12 481.596 649.334 482.244 648.669 483.071C648.02 483.899 647.509 484.847 647.136 485.918C646.78 486.972 646.601 488.091 646.601 489.274Z" fill="black"/>
<path d="M1199.42 1153.06V1166.03C1198.98 1166.68 1198.28 1167.41 1197.33 1168.22C1196.37 1169.01 1195.05 1169.71 1193.36 1170.31C1191.69 1170.89 1189.54 1171.19 1186.89 1171.19C1184.74 1171.19 1182.75 1170.81 1180.93 1170.07C1179.13 1169.3 1177.57 1168.2 1176.24 1166.76C1174.92 1165.3 1173.9 1163.53 1173.17 1161.46C1172.46 1159.36 1172.1 1157 1172.1 1154.35V1151.6C1172.1 1148.96 1172.41 1146.6 1173.03 1144.53C1173.66 1142.45 1174.58 1140.69 1175.8 1139.25C1177.02 1137.79 1178.51 1136.68 1180.28 1135.94C1182.04 1135.18 1184.07 1134.8 1186.36 1134.8C1189.07 1134.8 1191.33 1135.27 1193.14 1136.21C1194.98 1137.13 1196.4 1138.41 1197.43 1140.05C1198.46 1141.69 1199.13 1143.55 1199.42 1145.64H1194.73C1194.51 1144.36 1194.09 1143.2 1193.46 1142.14C1192.84 1141.09 1191.96 1140.24 1190.81 1139.61C1189.66 1138.96 1188.17 1138.64 1186.36 1138.64C1184.72 1138.64 1183.3 1138.94 1182.1 1139.54C1180.9 1140.14 1179.91 1141 1179.13 1142.12C1178.35 1143.24 1177.77 1144.59 1177.38 1146.18C1177.01 1147.77 1176.82 1149.56 1176.82 1151.56V1154.35C1176.82 1156.4 1177.06 1158.22 1177.53 1159.83C1178.01 1161.43 1178.7 1162.8 1179.59 1163.94C1180.49 1165.06 1181.55 1165.91 1182.78 1166.49C1184.03 1167.07 1185.41 1167.37 1186.92 1167.37C1188.59 1167.37 1189.94 1167.23 1190.98 1166.95C1192.02 1166.66 1192.83 1166.32 1193.41 1165.93C1194 1165.53 1194.44 1165.14 1194.75 1164.79V1156.86H1186.55V1153.06H1199.42ZM1220.27 1156.81H1210.8V1152.99H1220.27C1222.1 1152.99 1223.58 1152.7 1224.72 1152.11C1225.85 1151.53 1226.68 1150.72 1227.2 1149.68C1227.73 1148.64 1228 1147.46 1228 1146.13C1228 1144.91 1227.73 1143.77 1227.2 1142.7C1226.68 1141.63 1225.85 1140.77 1224.72 1140.12C1223.58 1139.46 1222.1 1139.13 1220.27 1139.13H1211.9V1170.7H1207.2V1135.28H1220.27C1222.94 1135.28 1225.2 1135.74 1227.05 1136.67C1228.9 1137.59 1230.3 1138.87 1231.26 1140.51C1232.22 1142.13 1232.7 1143.99 1232.7 1146.08C1232.7 1148.35 1232.22 1150.29 1231.26 1151.9C1230.3 1153.5 1228.9 1154.73 1227.05 1155.57C1225.2 1156.4 1222.94 1156.81 1220.27 1156.81ZM1257.51 1161.75C1257.51 1160.92 1257.38 1160.19 1257.12 1159.56C1256.88 1158.91 1256.44 1158.33 1255.81 1157.81C1255.19 1157.29 1254.33 1156.79 1253.23 1156.32C1252.14 1155.85 1250.76 1155.37 1249.09 1154.89C1247.34 1154.37 1245.76 1153.79 1244.35 1153.16C1242.94 1152.51 1241.73 1151.77 1240.72 1150.95C1239.72 1150.12 1238.95 1149.17 1238.41 1148.1C1237.88 1147.03 1237.61 1145.81 1237.61 1144.43C1237.61 1143.05 1237.89 1141.78 1238.46 1140.61C1239.03 1139.44 1239.84 1138.43 1240.89 1137.57C1241.96 1136.69 1243.24 1136.01 1244.71 1135.53C1246.19 1135.04 1247.83 1134.8 1249.65 1134.8C1252.31 1134.8 1254.56 1135.31 1256.41 1136.33C1258.28 1137.33 1259.7 1138.65 1260.67 1140.29C1261.64 1141.91 1262.13 1143.65 1262.13 1145.5H1257.46C1257.46 1144.17 1257.18 1142.99 1256.61 1141.97C1256.04 1140.93 1255.18 1140.12 1254.03 1139.54C1252.88 1138.94 1251.42 1138.64 1249.65 1138.64C1247.98 1138.64 1246.6 1138.89 1245.52 1139.39C1244.43 1139.9 1243.62 1140.58 1243.08 1141.44C1242.56 1142.3 1242.31 1143.28 1242.31 1144.38C1242.31 1145.13 1242.46 1145.81 1242.77 1146.42C1243.09 1147.02 1243.59 1147.58 1244.25 1148.1C1244.93 1148.62 1245.79 1149.1 1246.83 1149.54C1247.88 1149.97 1249.14 1150.4 1250.6 1150.8C1252.61 1151.37 1254.35 1152 1255.81 1152.7C1257.27 1153.4 1258.47 1154.18 1259.41 1155.06C1260.36 1155.92 1261.07 1156.9 1261.52 1158C1261.99 1159.09 1262.23 1160.32 1262.23 1161.7C1262.23 1163.14 1261.94 1164.45 1261.35 1165.62C1260.77 1166.78 1259.93 1167.78 1258.85 1168.61C1257.76 1169.43 1256.45 1170.07 1254.93 1170.53C1253.42 1170.97 1251.74 1171.19 1249.87 1171.19C1248.23 1171.19 1246.62 1170.96 1245.03 1170.5C1243.46 1170.05 1242.02 1169.37 1240.72 1168.46C1239.44 1167.55 1238.41 1166.43 1237.63 1165.1C1236.87 1163.76 1236.49 1162.2 1236.49 1160.43H1241.16C1241.16 1161.65 1241.4 1162.7 1241.87 1163.57C1242.34 1164.43 1242.98 1165.14 1243.79 1165.71C1244.62 1166.28 1245.55 1166.7 1246.59 1166.98C1247.64 1167.24 1248.73 1167.37 1249.87 1167.37C1251.51 1167.37 1252.89 1167.14 1254.03 1166.69C1255.16 1166.23 1256.02 1165.58 1256.61 1164.74C1257.21 1163.9 1257.51 1162.9 1257.51 1161.75ZM1293.68 1138.42L1281.96 1170.7H1277.16L1290.66 1135.28H1293.75L1293.68 1138.42ZM1303.51 1170.7L1291.76 1138.42L1291.69 1135.28H1294.77L1308.32 1170.7H1303.51ZM1302.9 1157.59V1161.43H1283V1157.59H1302.9ZM1316.89 1150V1170.7H1312.39V1144.38H1316.64L1316.89 1150ZM1315.82 1156.54L1313.94 1156.47C1313.96 1154.67 1314.23 1153.01 1314.75 1151.48C1315.26 1149.94 1315.99 1148.6 1316.93 1147.47C1317.88 1146.33 1318.99 1145.46 1320.29 1144.84C1321.61 1144.21 1323.06 1143.89 1324.65 1143.89C1325.94 1143.89 1327.11 1144.07 1328.15 1144.43C1329.19 1144.77 1330.07 1145.32 1330.8 1146.08C1331.55 1146.84 1332.11 1147.83 1332.5 1149.05C1332.89 1150.25 1333.09 1151.72 1333.09 1153.45V1170.7H1328.56V1153.4C1328.56 1152.03 1328.36 1150.92 1327.95 1150.1C1327.55 1149.25 1326.96 1148.64 1326.18 1148.27C1325.4 1147.88 1324.44 1147.69 1323.31 1147.69C1322.19 1147.69 1321.17 1147.92 1320.24 1148.39C1319.33 1148.86 1318.55 1149.51 1317.88 1150.34C1317.23 1151.17 1316.72 1152.11 1316.35 1153.19C1315.99 1154.24 1315.82 1155.36 1315.82 1156.54ZM1350.94 1144.38V1147.83H1336.71V1144.38H1350.94ZM1341.53 1137.98H1346.03V1164.18C1346.03 1165.07 1346.17 1165.74 1346.44 1166.2C1346.72 1166.65 1347.07 1166.95 1347.51 1167.1C1347.95 1167.25 1348.42 1167.32 1348.92 1167.32C1349.3 1167.32 1349.68 1167.29 1350.09 1167.22C1350.51 1167.14 1350.83 1167.07 1351.04 1167.03L1351.06 1170.7C1350.71 1170.81 1350.24 1170.92 1349.65 1171.02C1349.08 1171.13 1348.4 1171.19 1347.58 1171.19C1346.48 1171.19 1345.47 1170.97 1344.54 1170.53C1343.62 1170.09 1342.88 1169.36 1342.33 1168.34C1341.79 1167.3 1341.53 1165.91 1341.53 1164.16V1137.98ZM1367.14 1171.19C1365.31 1171.19 1363.65 1170.88 1362.16 1170.26C1360.68 1169.63 1359.41 1168.75 1358.34 1167.61C1357.28 1166.47 1356.47 1165.13 1355.9 1163.57C1355.34 1162.02 1355.05 1160.31 1355.05 1158.46V1157.44C1355.05 1155.3 1355.37 1153.4 1356 1151.73C1356.63 1150.04 1357.49 1148.61 1358.58 1147.44C1359.67 1146.28 1360.9 1145.39 1362.28 1144.79C1363.66 1144.19 1365.08 1143.89 1366.56 1143.89C1368.44 1143.89 1370.06 1144.22 1371.42 1144.87C1372.8 1145.51 1373.93 1146.42 1374.8 1147.59C1375.68 1148.74 1376.33 1150.1 1376.75 1151.68C1377.17 1153.23 1377.38 1154.94 1377.38 1156.79V1158.8H1357.73V1155.13H1372.88V1154.79C1372.82 1153.62 1372.57 1152.49 1372.15 1151.39C1371.75 1150.28 1371.1 1149.37 1370.21 1148.66C1369.31 1147.95 1368.1 1147.59 1366.56 1147.59C1365.54 1147.59 1364.6 1147.81 1363.74 1148.25C1362.88 1148.67 1362.14 1149.3 1361.52 1150.14C1360.91 1150.99 1360.43 1152.02 1360.09 1153.23C1359.75 1154.45 1359.58 1155.85 1359.58 1157.44V1158.46C1359.58 1159.71 1359.75 1160.89 1360.09 1161.99C1360.44 1163.08 1360.96 1164.03 1361.62 1164.86C1362.3 1165.69 1363.12 1166.34 1364.08 1166.81C1365.05 1167.28 1366.15 1167.51 1367.38 1167.51C1368.97 1167.51 1370.32 1167.19 1371.42 1166.54C1372.53 1165.89 1373.49 1165.02 1374.32 1163.94L1377.04 1166.1C1376.47 1166.96 1375.75 1167.78 1374.88 1168.56C1374 1169.34 1372.92 1169.97 1371.64 1170.46C1370.38 1170.94 1368.88 1171.19 1367.14 1171.19ZM1387.14 1150V1170.7H1382.64V1144.38H1386.89L1387.14 1150ZM1386.07 1156.54L1384.19 1156.47C1384.21 1154.67 1384.48 1153.01 1385 1151.48C1385.52 1149.94 1386.25 1148.6 1387.19 1147.47C1388.13 1146.33 1389.25 1145.46 1390.54 1144.84C1391.86 1144.21 1393.31 1143.89 1394.9 1143.89C1396.19 1143.89 1397.36 1144.07 1398.4 1144.43C1399.44 1144.77 1400.32 1145.32 1401.05 1146.08C1401.8 1146.84 1402.36 1147.83 1402.75 1149.05C1403.14 1150.25 1403.34 1151.72 1403.34 1153.45V1170.7H1398.81V1153.4C1398.81 1152.03 1398.61 1150.92 1398.2 1150.1C1397.8 1149.25 1397.21 1148.64 1396.43 1148.27C1395.65 1147.88 1394.69 1147.69 1393.56 1147.69C1392.44 1147.69 1391.42 1147.92 1390.49 1148.39C1389.59 1148.86 1388.8 1149.51 1388.13 1150.34C1387.49 1151.17 1386.97 1152.11 1386.6 1153.19C1386.25 1154.24 1386.07 1155.36 1386.07 1156.54ZM1414.67 1150V1170.7H1410.17V1144.38H1414.43L1414.67 1150ZM1413.6 1156.54L1411.73 1156.47C1411.75 1154.67 1412.01 1153.01 1412.53 1151.48C1413.05 1149.94 1413.78 1148.6 1414.72 1147.47C1415.66 1146.33 1416.78 1145.46 1418.08 1144.84C1419.39 1144.21 1420.84 1143.89 1422.43 1143.89C1423.73 1143.89 1424.9 1144.07 1425.94 1144.43C1426.97 1144.77 1427.86 1145.32 1428.59 1146.08C1429.33 1146.84 1429.9 1147.83 1430.29 1149.05C1430.68 1150.25 1430.87 1151.72 1430.87 1153.45V1170.7H1426.35V1153.4C1426.35 1152.03 1426.15 1150.92 1425.74 1150.1C1425.34 1149.25 1424.74 1148.64 1423.97 1148.27C1423.19 1147.88 1422.23 1147.69 1421.09 1147.69C1419.98 1147.69 1418.95 1147.92 1418.03 1148.39C1417.12 1148.86 1416.34 1149.51 1415.67 1150.34C1415.02 1151.17 1414.51 1152.11 1414.14 1153.19C1413.78 1154.24 1413.6 1155.36 1413.6 1156.54ZM1453.23 1166.2V1152.65C1453.23 1151.61 1453.02 1150.71 1452.6 1149.95C1452.19 1149.17 1451.57 1148.57 1450.75 1148.15C1449.92 1147.73 1448.9 1147.52 1447.68 1147.52C1446.55 1147.52 1445.55 1147.71 1444.69 1148.1C1443.85 1148.49 1443.18 1149 1442.7 1149.63C1442.23 1150.27 1441.99 1150.95 1441.99 1151.68H1437.49C1437.49 1150.74 1437.73 1149.8 1438.22 1148.88C1438.71 1147.96 1439.4 1147.12 1440.31 1146.37C1441.24 1145.61 1442.34 1145.01 1443.62 1144.57C1444.92 1144.12 1446.36 1143.89 1447.95 1143.89C1449.86 1143.89 1451.55 1144.22 1453.01 1144.87C1454.49 1145.51 1455.64 1146.5 1456.46 1147.81C1457.31 1149.11 1457.73 1150.74 1457.73 1152.7V1164.96C1457.73 1165.83 1457.8 1166.77 1457.95 1167.76C1458.11 1168.75 1458.34 1169.6 1458.65 1170.31V1170.7H1453.96C1453.73 1170.18 1453.55 1169.49 1453.42 1168.63C1453.29 1167.76 1453.23 1166.95 1453.23 1166.2ZM1454.01 1154.74L1454.06 1157.9H1449.51C1448.23 1157.9 1447.08 1158.01 1446.08 1158.22C1445.07 1158.42 1444.23 1158.72 1443.55 1159.12C1442.87 1159.53 1442.35 1160.04 1441.99 1160.65C1441.63 1161.25 1441.46 1161.96 1441.46 1162.77C1441.46 1163.6 1441.64 1164.35 1442.01 1165.03C1442.39 1165.71 1442.95 1166.26 1443.69 1166.66C1444.46 1167.05 1445.39 1167.25 1446.49 1167.25C1447.87 1167.25 1449.09 1166.95 1450.14 1166.37C1451.19 1165.79 1452.03 1165.07 1452.64 1164.23C1453.28 1163.39 1453.62 1162.57 1453.67 1161.77L1455.59 1163.94C1455.47 1164.62 1455.17 1165.37 1454.66 1166.2C1454.16 1167.03 1453.49 1167.82 1452.64 1168.58C1451.82 1169.33 1450.83 1169.95 1449.68 1170.46C1448.54 1170.94 1447.26 1171.19 1445.83 1171.19C1444.05 1171.19 1442.48 1170.84 1441.14 1170.14C1439.81 1169.44 1438.77 1168.51 1438.03 1167.34C1437.3 1166.16 1436.93 1164.84 1436.93 1163.38C1436.93 1161.97 1437.21 1160.73 1437.76 1159.66C1438.31 1158.57 1439.1 1157.67 1440.14 1156.96C1441.18 1156.23 1442.43 1155.67 1443.89 1155.3C1445.35 1154.93 1446.98 1154.74 1448.78 1154.74H1454.01Z" fill="black"/>
<path d="M627.361 542.527L627.36 758.101L661.377 758.101" stroke="#7DD1E8" stroke-width="8.30298" stroke-linecap="round" stroke-linejoin="round" stroke-dasharray="16.61 16.61"/>
<g clip-path="url(#clip0_42_163)">
<path d="M517.236 416.238C550.715 416.238 577.855 389.098 577.855 355.619C577.855 322.14 550.715 295 517.236 295C483.757 295 456.617 322.14 456.617 355.619C456.617 389.098 483.757 416.238 517.236 416.238Z" fill="#333333"/>
<path d="M517.235 394.006C510.484 394.005 503.854 392.217 498.017 388.824C492.18 385.431 487.346 380.554 484.004 374.688C480.662 368.822 478.931 362.176 478.989 355.426C479.046 348.675 480.889 342.059 484.33 336.251C487.727 330.535 492.55 325.798 498.327 322.504C499.533 321.817 500.962 321.638 502.3 322.005C503.639 322.371 504.777 323.255 505.463 324.461C506.15 325.667 506.33 327.096 505.963 328.434C505.596 329.773 504.713 330.91 503.507 331.597C499.244 334.03 495.7 337.546 493.232 341.788C490.764 346.031 489.46 350.85 489.453 355.758C489.453 371.077 501.916 383.541 517.235 383.541C532.555 383.541 545.017 371.077 545.017 355.758C545.01 350.85 543.706 346.031 541.238 341.788C538.77 337.546 535.225 334.03 530.962 331.597C530.355 331.262 529.82 330.81 529.389 330.267C528.958 329.724 528.64 329.1 528.452 328.433C528.264 327.766 528.21 327.067 528.295 326.379C528.379 325.691 528.599 325.026 528.942 324.424C529.285 323.821 529.745 323.293 530.294 322.87C530.843 322.446 531.471 322.136 532.141 321.958C532.811 321.779 533.51 321.736 534.197 321.829C534.884 321.923 535.546 322.153 536.143 322.504C542.018 325.844 546.902 330.681 550.3 336.522C553.697 342.364 555.485 349.001 555.483 355.758C555.486 360.783 554.5 365.758 552.579 370.401C550.658 375.043 547.841 379.261 544.288 382.814C540.735 386.366 536.517 389.184 531.875 391.104C527.233 393.025 522.257 394.012 517.233 394.008L517.235 394.006Z" fill="white"/>
<path d="M517.236 351.196C516.549 351.196 515.868 351.061 515.233 350.798C514.598 350.535 514.021 350.149 513.535 349.664C513.049 349.178 512.664 348.601 512.401 347.966C512.138 347.331 512.003 346.65 512.003 345.963V316.569C512.023 315.195 512.584 313.884 513.563 312.919C514.542 311.955 515.861 311.414 517.236 311.414C518.61 311.414 519.929 311.955 520.908 312.919C521.888 313.884 522.448 315.195 522.468 316.569V345.963C522.468 346.65 522.333 347.33 522.07 347.965C521.807 348.6 521.422 349.177 520.936 349.663C520.45 350.149 519.874 350.535 519.239 350.798C518.604 351.061 517.923 351.196 517.236 351.196V351.196Z" fill="white"/>
</g>
<path d="M915.041 843.176C902.319 843.176 890.309 840.31 881.236 835.103L690.863 726.004C681.426 720.591 676.216 713.268 676.209 705.415C676.202 697.561 681.326 690.331 690.656 684.953L879.775 575.854C888.805 570.647 900.779 567.781 913.509 567.781C926.238 567.781 938.234 570.611 947.307 575.847L1137.68 684.946C1147.12 690.359 1152.33 697.682 1152.34 705.535C1152.35 713.389 1147.22 720.619 1137.89 726.004L948.775 835.082C939.752 840.31 927.771 843.176 915.041 843.176ZM913.509 571.637C901.456 571.637 890.174 574.319 881.728 579.186L692.609 688.286C684.527 692.948 680.086 699.033 680.093 705.415C680.101 711.797 684.619 717.966 692.809 722.657L883.175 831.763C891.678 836.638 902.989 839.327 915.041 839.327C927.094 839.327 938.384 836.645 946.822 831.771L1135.95 722.671C1144.02 718.016 1148.46 711.931 1148.46 705.549C1148.45 699.167 1143.93 692.991 1135.73 688.293L945.368 579.186C936.872 574.319 925.561 571.637 913.509 571.637V571.637Z" fill="#E5E5E5"/>
<path d="M1137.12 831.932L947.905 941.081C929.845 951.503 900.465 951.503 882.283 941.081L691.825 831.925C682.68 826.69 678.119 819.806 678.133 812.936L677.983 865.377C677.983 872.247 682.531 879.124 691.675 884.367L882.134 993.523C900.316 1003.94 929.695 1003.94 947.756 993.523L1136.97 884.367C1145.94 879.195 1150.43 872.417 1150.45 865.632L1150.6 813.197C1150.58 819.982 1146.09 826.753 1137.12 831.932Z" fill="#808285"/>
<path d="M1137.21 885.013L947.999 994.169C929.938 1004.58 900.559 1004.58 882.377 994.169L691.954 885.013C682.809 879.771 678.241 872.893 678.262 866.023L678.112 918.458C678.112 925.328 682.66 932.212 691.804 937.455L882.256 1046.63C900.438 1057.05 929.817 1057.05 947.878 1046.63L1137.06 937.455C1146.03 932.275 1150.52 925.505 1150.55 918.719L1150.7 866.278C1150.67 873.063 1146.18 879.841 1137.21 885.013Z" fill="#231F20"/>
<path d="M915.092 1056.31C902.369 1056.31 890.359 1053.43 881.279 1048.23L690.913 939.128C681.441 933.701 676.231 926.392 676.43 918.468V865.893H680.293C680.293 872.522 684.791 878.663 693.002 883.375L883.375 992.482C891.87 997.35 903.189 1000.03 915.241 1000.03C927.294 1000.03 938.576 997.35 947.015 992.482L1136.14 883.382C1144.19 878.734 1148.64 872.678 1148.66 867.676H1152.34V918.744C1152.34 926.527 1147.24 933.772 1137.94 939.128L948.818 1048.23C939.795 1053.43 927.821 1056.31 915.092 1056.31ZM680.023 877.34L679.901 918.433C679.901 924.893 684.406 931.048 692.631 935.76L883.196 1044.97C891.699 1049.85 903.032 1052.54 915.099 1052.54C927.165 1052.54 938.455 1049.85 946.908 1044.98L1136.23 935.767C1144.28 931.119 1148.73 925.048 1148.75 918.681L1148.86 877.581C1146.02 881.294 1142.44 884.379 1138.33 886.637L949.011 995.85C939.98 1001.06 927.985 1003.93 915.248 1003.93C902.512 1003.93 890.488 1001.1 881.4 995.85L690.835 886.637C686.607 884.335 682.921 881.166 680.023 877.34V877.34Z" fill="#E5E5E5"/>
<path d="M915.04 1003.22C902.311 1003.22 890.308 1000.39 881.228 995.15L690.819 886.023C681.347 880.589 676.144 873.287 676.336 865.363V812.809H680.199C680.199 819.438 684.697 825.586 692.915 830.291L883.28 939.398C891.783 944.266 903.102 946.954 915.154 946.954C927.207 946.954 938.489 944.273 946.928 939.398L1136.05 830.298C1144.1 825.657 1148.54 819.594 1148.56 814.592H1152.25V865.66C1152.25 873.443 1147.14 880.688 1137.86 886.051L948.731 995.15C939.708 1000.36 927.727 1003.22 915.04 1003.22ZM679.928 824.263L679.836 865.356C679.836 871.809 684.333 877.964 692.558 882.676L883.102 991.896C891.612 996.771 902.938 999.452 915.005 999.452C927.071 999.452 938.368 996.771 946.814 991.896L1136.13 882.683C1144.19 878.035 1148.64 871.971 1148.66 865.604L1148.78 824.504C1145.94 828.218 1142.35 831.301 1138.23 833.553L948.917 942.766C939.886 947.98 927.898 950.846 915.154 950.846C902.41 950.846 890.401 948.015 881.306 942.773L690.748 833.553C686.518 831.254 682.83 828.087 679.928 824.263Z" fill="#E5E5E5"/>
<path d="M1137.12 777.563L947.905 886.733C929.845 897.155 900.465 897.155 882.283 886.733L691.825 777.556C682.68 772.321 678.119 765.436 678.133 758.566L677.983 811.029C677.983 817.899 682.531 824.776 691.675 830.019L882.134 939.153C900.316 949.575 929.695 949.575 947.756 939.153L1136.97 829.997C1145.94 824.826 1150.43 818.048 1150.45 811.269L1150.6 758.828C1150.58 765.613 1146.09 772.384 1137.12 777.563Z" fill="#006B94"/>
<path d="M914.927 948.851C902.205 948.851 890.195 946.021 881.115 940.785L690.749 831.679C681.269 826.245 676.066 818.908 676.337 811.019V757.545H680.129C680.129 765.066 684.619 771.214 692.837 775.94L883.21 885.047C891.706 889.922 903.024 892.603 915.077 892.603C927.129 892.603 938.412 889.922 946.851 885.054L1135.99 775.926C1144.04 771.285 1148.49 765.221 1148.5 759.328H1152.26V811.288C1152.21 819.071 1147.09 826.316 1137.79 831.679L948.654 940.778C939.631 945.985 927.657 948.851 914.927 948.851ZM679.929 769.891L679.837 810.984C679.837 817.443 684.334 823.592 692.559 828.304L883.103 937.524C891.614 942.398 902.939 945.087 915.006 945.087C927.072 945.087 938.369 942.398 946.815 937.524L1136.13 828.311C1144.19 823.663 1148.64 817.599 1148.66 811.231L1148.78 770.132C1145.94 773.849 1142.35 776.934 1138.24 779.188L948.918 888.393C939.887 893.608 927.899 896.48 915.155 896.48C902.412 896.48 890.402 893.608 881.307 888.4L690.749 779.188C686.517 776.889 682.828 773.719 679.929 769.891Z" fill="#E5E5E5"/>
<path d="M1136.7 686.618C1154.87 697.033 1154.97 713.922 1136.92 724.336L1042.37 778.886L947.828 833.436C929.774 843.85 900.409 843.85 882.256 833.436L691.883 724.336C673.722 713.922 673.629 697.04 691.683 686.626L880.752 577.547C898.806 567.133 928.178 567.133 946.324 577.547L1136.7 686.618Z" fill="white"/>
<path d="M1106.77 686.443C1122.53 695.478 1122.61 710.124 1106.95 719.159L942.923 813.804C927.243 822.839 901.783 822.839 886.025 813.804L720.883 719.159C705.124 710.124 705.046 695.478 720.704 686.443L884.763 591.806C900.443 582.771 925.895 582.771 941.654 591.806L1106.77 686.443Z" fill="#562B82"/>
<path d="M1056.67 690.698C1068.34 697.384 1068.4 708.223 1056.81 714.909L935.37 784.953C923.774 791.639 904.922 791.639 893.247 784.953L771.012 714.909C759.344 708.223 759.287 697.384 770.876 690.698L892.32 620.653C903.909 613.967 922.769 613.967 934.429 620.653L1056.67 690.698Z" fill="#7DD1E8"/>
<path d="M1137.12 724.302L947.905 833.45C929.845 843.872 900.465 843.872 882.283 833.45L691.825 724.302C682.687 719.052 678.119 712.175 678.133 705.305L677.983 757.746C677.983 764.616 682.531 771.5 691.675 776.736L882.134 885.892C900.316 896.314 929.695 896.314 947.756 885.892L1136.97 776.743C1145.94 771.564 1150.43 764.793 1150.45 758.008L1150.6 705.566C1150.58 712.352 1146.09 719.123 1137.12 724.302Z" fill="white"/>
<path d="M914.898 895.592C902.168 895.592 890.166 892.762 881.085 887.526L690.712 778.42C681.24 772.993 676.037 765.684 676.336 757.76V704.066H680.093C680.093 711.807 684.59 717.955 692.808 722.66L883.174 831.766C891.677 836.641 902.988 839.33 915.04 839.33C927.093 839.33 938.376 836.648 946.814 831.781L1135.95 722.667C1143.99 718.026 1148.43 711.962 1148.46 705.849H1152.25V758.029C1152.17 765.812 1147.04 773.057 1137.75 778.42L948.625 887.519C939.601 892.726 927.62 895.592 914.898 895.592ZM679.929 716.632L679.836 757.725C679.836 764.184 684.333 770.333 692.558 775.045L883.103 884.264C891.613 889.139 902.924 891.828 915.04 891.828C927.157 891.828 938.404 889.139 946.85 884.264L1136.13 775.052C1144.19 770.403 1148.64 764.34 1148.66 757.972L1148.78 716.872C1145.94 720.587 1142.35 723.67 1138.24 725.922L948.917 835.141C939.887 840.349 927.898 843.221 915.154 843.221C902.411 843.221 890.401 840.349 881.306 835.141L690.748 725.922C686.517 723.625 682.828 720.457 679.929 716.632V716.632Z" fill="#E5E5E5"/>
<path d="M717.366 747.602C714.475 745.9 711.862 745.762 709.953 746.857L700.131 752.688C701.984 751.566 704.644 751.723 707.544 753.424C713.289 756.8 717.913 764.977 717.894 771.701C717.894 775.04 716.727 777.395 714.864 778.499L724.696 772.676C726.549 771.573 727.716 769.218 727.726 765.87C727.735 759.127 723.111 750.978 717.366 747.602Z" fill="#4DC5DA"/>
<path d="M707.524 753.469C713.269 756.845 717.893 765.022 717.875 771.746C717.856 778.47 713.195 781.184 707.459 777.808C701.724 774.432 697.081 766.236 697.1 759.512C697.118 752.788 701.788 750.093 707.524 753.469Z" fill="#7DD1E8"/>
<ellipse cx="744.556" cy="833.73" rx="12.1945" ry="21.1234" transform="rotate(155.533 744.556 833.73)" fill="white"/>
<ellipse cx="744.553" cy="833.726" rx="8.94267" ry="15.4905" transform="rotate(155.533 744.553 833.726)" fill="black"/>
<path d="M1120.25 750.189C1115.56 754.954 1113.2 764.084 1114.97 770.598C1116.73 777.112 1121.95 778.532 1126.64 773.769C1131.32 769.006 1133.69 759.854 1131.93 753.34C1130.16 746.826 1124.94 745.426 1120.25 750.189Z" fill="#7DD1E8"/>
<rect x="1.28139" y="2.21944" width="60.2539" height="12.8441" rx="6.42204" transform="matrix(0.866007 0.500033 3.77386e-05 1 746.519 775.168)" fill="black" stroke="#C4C4C4" stroke-width="2.95918"/>
<mask id="path-125-inside-1_42_163" fill="white">
<rect width="57.7426" height="24.7468" rx="4.93197" transform="matrix(0.866007 0.500033 3.77386e-05 1 829.021 816.875)"/>
</mask>
<rect width="57.7426" height="24.7468" rx="4.93197" transform="matrix(0.866007 0.500033 3.77386e-05 1 829.021 816.875)" fill="#830000" stroke="#AE4141" stroke-width="11.8367" mask="url(#path-125-inside-1_42_163)"/>
<rect width="82.4894" height="12.3734" rx="3.94558" transform="matrix(0.866007 -0.500033 -3.7683e-05 1 964.098 844.107)" fill="black"/>
<rect width="7.57192" height="15.1438" rx="2.95918" transform="matrix(0.866007 -0.500033 -3.77206e-05 1 1070.13 787.268)" fill="black"/>
<rect width="7.57192" height="15.1438" rx="2.95918" transform="matrix(0.866007 -0.500033 -3.77206e-05 1 1081.06 780.957)" fill="black"/>
<circle r="2.52397" transform="matrix(0.866007 -0.500033 -3.77206e-05 1 1078.87 773.639)" fill="black"/>
<path d="M1109.92 747.242C1112.28 744.841 1114.78 744.028 1116.92 744.594L1127.96 747.696C1125.87 747.089 1123.33 747.932 1120.96 750.335C1116.27 755.1 1113.91 764.23 1115.67 770.744C1116.54 773.981 1118.28 775.96 1120.38 776.547L1109.33 773.456C1107.25 772.867 1105.5 770.887 1104.63 767.644C1102.87 761.109 1105.23 752.007 1109.92 747.242Z" fill="#4DC5DA"/>
<path d="M1503.68 986.317C1512.47 992.202 1519.6 1000.23 1524.4 1009.65C1530.4 1021.47 1532.97 1035.85 1532.05 1052.35C1532.02 1052.83 1532.09 1053.32 1532.25 1053.77C1532.42 1054.22 1532.68 1054.63 1533.02 1054.97C1533.35 1055.32 1533.76 1055.59 1534.21 1055.76C1534.65 1055.94 1535.13 1056.02 1535.62 1056C1536.63 1055.98 1537.6 1055.59 1538.34 1054.89C1539.08 1054.19 1539.53 1053.25 1539.6 1052.24C1541.9 1011.57 1523.69 990.473 1508.01 979.924C1497.53 972.919 1485.57 968.407 1473.04 966.734C1472.03 966.658 1471.03 966.96 1470.23 967.581C1469.42 968.203 1468.88 969.099 1468.7 970.095C1468.62 970.569 1468.63 971.056 1468.75 971.523C1468.86 971.99 1469.07 972.428 1469.37 972.808C1469.66 973.187 1470.03 973.501 1470.45 973.728C1470.88 973.956 1471.35 974.092 1471.83 974.128C1483.24 975.754 1494.13 979.92 1503.68 986.317V986.317Z" fill="#9C9C9B"/>
<path d="M1488.41 1053.55C1488.35 1054.03 1488.39 1054.51 1488.53 1054.97C1488.67 1055.44 1488.9 1055.86 1489.22 1056.22C1489.53 1056.59 1489.92 1056.88 1490.36 1057.09C1490.79 1057.29 1491.26 1057.4 1491.75 1057.41C1492.76 1057.44 1493.75 1057.1 1494.52 1056.44C1495.3 1055.78 1495.8 1054.86 1495.93 1053.86C1496.4 1048.03 1495.63 1042.17 1493.68 1036.68C1490.69 1028.46 1483.48 1018.08 1466.14 1015.32C1465.6 1015.24 1465.05 1015.27 1464.52 1015.41C1463.99 1015.55 1463.49 1015.8 1463.06 1016.13C1462.33 1016.7 1461.81 1017.5 1461.59 1018.4C1461.47 1018.87 1461.45 1019.36 1461.53 1019.83C1461.61 1020.31 1461.79 1020.76 1462.06 1021.16C1462.33 1021.56 1462.67 1021.9 1463.08 1022.16C1463.49 1022.41 1463.94 1022.58 1464.42 1022.66C1491.01 1026.88 1488.54 1052.45 1488.41 1053.55Z" fill="#9C9C9B"/>
<path d="M1513.06 1055.01C1514.07 1054.99 1515.04 1054.6 1515.79 1053.91C1516.53 1053.22 1516.99 1052.28 1517.08 1051.27C1518.86 1023.89 1506.24 1009.25 1495.35 1001.78C1488.07 996.835 1479.79 993.549 1471.07 992.156C1470.07 992.047 1469.05 992.318 1468.23 992.915C1467.41 993.512 1466.84 994.393 1466.64 995.384C1466.54 995.855 1466.54 996.342 1466.63 996.813C1466.73 997.285 1466.93 997.729 1467.21 998.12C1467.49 998.51 1467.84 998.837 1468.26 999.08C1468.68 999.323 1469.14 999.476 1469.62 999.53C1477.28 1000.82 1484.56 1003.76 1490.97 1008.13C1504.55 1017.53 1510.78 1032.08 1509.53 1051.32C1509.49 1051.8 1509.56 1052.28 1509.72 1052.73C1509.88 1053.19 1510.14 1053.6 1510.47 1053.95C1510.8 1054.3 1511.2 1054.57 1511.65 1054.75C1512.09 1054.94 1512.57 1055.02 1513.06 1055.01V1055.01Z" fill="#9C9C9B"/>
<path d="M1392.59 1049.79C1392.59 1046.48 1395.27 1043.8 1398.58 1043.8H1458.42C1461.73 1043.8 1464.41 1046.48 1464.41 1049.79V1099.16C1464.41 1102.47 1461.73 1105.14 1458.42 1105.14H1398.58C1395.27 1105.14 1392.59 1102.47 1392.59 1099.16V1049.79Z" fill="#808285"/>
<path d="M1359.83 1073.95C1359.83 1069.48 1356.21 1065.86 1351.75 1065.86H743.543C739.08 1065.86 735.461 1069.48 735.461 1073.95V1073.95C735.461 1078.41 739.08 1082.03 743.543 1082.03H1351.75C1356.21 1082.03 1359.83 1078.41 1359.83 1073.95V1073.95Z" fill="#414042"/>
<path d="M1454.38 1050.93H1405.07C1403.37 1050.93 1401.99 1052.31 1401.99 1054.01V1094.12C1401.99 1095.82 1403.37 1097.2 1405.07 1097.2H1454.38C1456.09 1097.2 1457.47 1095.82 1457.47 1094.12V1054.01C1457.47 1052.31 1456.09 1050.93 1454.38 1050.93Z" fill="#414042"/>
<path d="M1393.17 1061.83H1351.75V1086.08H1393.17V1061.83Z" fill="#4D4D4F"/>
<path d="M743.543 885.025C739.08 885.025 735.461 888.644 735.461 893.108V1073.95C735.461 1078.42 739.08 1082.04 743.543 1082.04V1082.04C748.007 1082.04 751.626 1078.42 751.626 1073.95V893.108C751.626 888.644 748.007 885.025 743.543 885.025V885.025Z" fill="#414042"/>
<path d="M731.438 892.332C726.606 881.713 727.659 870.844 733.789 868.055C739.919 865.265 748.805 871.612 753.637 882.231C758.469 892.849 757.416 903.718 751.286 906.508C745.156 909.297 736.27 902.95 731.438 892.332Z" fill="white"/>
<path d="M734.396 890.98C730.852 883.193 731.624 875.222 736.12 873.177C740.615 871.131 747.132 875.786 750.675 883.572C754.218 891.359 753.447 899.33 748.951 901.376C744.456 903.421 737.939 898.767 734.396 890.98Z" fill="black"/>
</g>
<defs>
<filter id="filter0_d_42_163" x="196.054" y="295" width="1607.89" height="884.077" filterUnits="userSpaceOnUse" color-interpolation-filters="sRGB">
<feFlood flood-opacity="0" result="BackgroundImageFix"/>
<feColorMatrix in="SourceAlpha" type="matrix" values="0 0 0 0 0 0 0 0 0 0 0 0 0 0 0 0 0 0 127 0" result="hardAlpha"/>
<feOffset dy="3.94558"/>
<feGaussianBlur stdDeviation="1.97279"/>
<feComposite in2="hardAlpha" operator="out"/>
<feColorMatrix type="matrix" values="0 0 0 0 0 0 0 0 0 0 0 0 0 0 0 0 0 0 0.25 0"/>
<feBlend mode="normal" in2="BackgroundImageFix" result="effect1_dropShadow_42_163"/>
<feBlend mode="normal" in="SourceGraphic" in2="effect1_dropShadow_42_163" result="shape"/>
</filter>
<clipPath id="clip0_42_163">
<rect width="121.237" height="121.237" fill="white" transform="translate(456.617 295)"/>
</clipPath>
</defs>
</svg>
