<svg fill="none" height="103" viewBox="0 0 137 103" width="137" xmlns="http://www.w3.org/2000/svg" xmlns:xlink="http://www.w3.org/1999/xlink"><filter id="a" color-interpolation-filters="sRGB" filterUnits="userSpaceOnUse" height="60.2679" width="109.183" x="13.8608" y="20.8887"><feFlood flood-opacity="0" result="BackgroundImageFix"/><feColorMatrix in="SourceAlpha" result="hardAlpha" type="matrix" values="0 0 0 0 0 0 0 0 0 0 0 0 0 0 0 0 0 0 127 0"/><feOffset dy=".094253"/><feGaussianBlur stdDeviation=".0471266"/><feComposite in2="hardAlpha" operator="out"/><feColorMatrix type="matrix" values="0 0 0 0 0 0 0 0 0 0 0 0 0 0 0 0 0 0 0.25 0"/><feBlend in2="BackgroundImageFix" mode="normal" result="effect1_dropShadow_1_2560"/><feBlend in="SourceGraphic" in2="effect1_dropShadow_1_2560" mode="normal" result="shape"/></filter><clipPath id="b"><path d="m31.4287 20.8887h8.26135v8.26135h-8.26135z"/></clipPath><path d="m.281143.786621h136.285v102.213h-136.285z" fill="#f2f4f9"/><path d="m114.536 16.3914h-20.4961l-10.244 17.7501-10.2478-17.7501h-20.4919l-10.2441 17.7501-10.2478-17.7501h-20.4919l20.4919 35.504-20.4919 35.5002h20.4919l10.2478-17.7501 10.2441 17.7501h20.4919l-20.4919-35.5002 10.2478-17.7539 20.4919 35.504 20.4921-35.504 10.248 17.7539 10.244-17.7539z" fill="#3b3835" fill-opacity=".05"/><g filter="url(#a)"><path d="m82.3042 37.3977v14.6897h-2.318" stroke="#7dd1e8" stroke-dasharray=".4 .4" stroke-linecap="round" stroke-linejoin="round" stroke-width=".198344"/><path d="m122.068 24.282v40.5274h-30.8122v-40.5274z" fill="#c6e8fb"/><g fill="#bccf59"><path d="m122.104 57.9914c-.567.0922-1.08.5151-1.263 1.0706-.32-.8099-1.647-.8925-2.062-.1283-.272-1.085-1.364-1.8941-2.465-1.8275-1.101.0667-2.09 1.0017-2.233 2.1117-.66-.8424-2.129-.8055-2.747.0691-.006-.9146-.775-1.7591-1.673-1.8376-.899-.0784-1.798.6198-1.958 1.5201-.526-.6707-1.72-.5894-2.152.1466-.579-.8195-2.025-.7153-2.484.1793-.206-.8462-1.167-1.4173-1.995-1.1848s-1.3626 1.2238-1.1097 2.0565c-.7365-.7942-2.0955-.876-2.9202-.1771-.8248.6989-.9861 2.0698-.3473 2.9473-.5238.092-.8181.8145-.5112 1.2549-.5154-.3102-1.2259.2212-1.252.8286v.0092h27.1724z"/><path d="m98.557 59.1719c-.1864-.143-.3195-.3264-.3285-.5449-.009-.2186.1948-.4496.4033-.3899.0877.0253.1565.0934.2182.161.2816.3085.5814.7254.6964 1.135-.2794-.0113-.699-.1376-.9894-.3612z"/><path d="m99.5968 58.2311c.0555-.0347.1264-.0563.1898-.0373.0806.024.1257.102.1484.1764.089.2876-.0237.5776-.1333.8371-.022.052-.0562.1865-.1238.0907-.1957-.2801-.4825-.8185-.0811-1.0669z"/><path d="m94.6305 63.7251c-.2227-.0722-.4082-.2-.4886-.4026-.0804-.2027.036-.49.2519-.504.0908-.006.1781.0349.2585.078.367.1956.7864.4871 1.0297.8342-.267.084-.704.1068-1.0515-.0056z"/><path d="m95.3024 62.486c.0412-.0515.101-.0963.1679-.0996.084-.0051.1521.0536.1981.116.1784.2406.166.5518.1494.8342-.0035.0565.0081.1949-.0868.1275-.278-.1973-.7254-.6079-.4286-.9781z"/><path d="m112.603 58.2458c.187-.1428.321-.3257.33-.5442.009-.2186-.193-.4501-.402-.3907-.088.0241-.157.0925-.219.1603-.282.3079-.583.7238-.699 1.1332.279-.0106.699-.1358.99-.3586z"/><path d="m121.111 57.6008c.014-.2368-.036-.4572-.194-.6074s-.464-.1425-.554.0568c-.039.084-.032.181-.022.2729.047.4176.166.9196.396 1.2756.174-.2231.352-.6287.374-.9979z"/><path d="m111.567 57.3017c-.056-.0347-.127-.0566-.19-.0378-.082.024-.126.1018-.15.1761-.089.2874.024.5776.132.8376.021.0517.055.1865.123.0907.197-.2787.485-.8161.085-1.0666z"/></g><path d="m100.377 63.3587h-.011c-.282-.0387-.5044-.3254-.4847-.6257.0182-.2766.2327-.5322.5117-.608.183-.0463.376-.0266.546.0556-.013-.1069-.002-.2155.032-.3175.035-.1019.092-.1945.167-.2707.215-.2094.564-.2546.83-.1071.258.1427.417.4534.385.7555-.001.0113-.004.0224-.009.0324-.006.0101-.013.019-.022.0262-.008.0072-.019.0126-.029.0158-.011.0033-.022.0044-.034.0032-.011-.0012-.022-.0046-.032-.01s-.018-.0128-.025-.0216c-.007-.0089-.013-.0191-.016-.03-.003-.011-.004-.0225-.003-.0338.024-.2347-.098-.4749-.297-.5849-.199-.1099-.47-.0758-.63.0802-.16.1559-.202.4332-.087.6257.011.0178.015.039.012.0597s-.014.0395-.03.0529-.036.0205-.056.0201c-.021-.0004-.041-.0084-.056-.0224-.169-.1512-.405-.2138-.604-.1603-.21.057-.371.2467-.385.451-.013.2089.143.4152.337.4419.021.0032.04.0145.054.0315.013.017.02.0386.019.0604-.002.0219-.011.0424-.027.0574-.015.0151-.036.0236-.058.024z" fill="#a7c64c"/><path d="m106.85 61.5501c-.017.0001-.033-.0046-.047-.0135-.013-.0089-.024-.0217-.031-.0368-.027-.0615-.041-.1281-.04-.1953 0-.0672.015-.1335.043-.1946.03-.0719.074-.1368.13-.1906.055-.0538.122-.0954.194-.1223.201-.0702.437-.024.625.1149.081-.2518.304-.4482.554-.465.16-.0135.326.0599.444.1894.052.0548.092.1208.116.1932.023.0724.031.1493.022.2251-.004.0224-.017.0425-.035.0559-.018.0135-.041.0193-.063.0163-.022-.0038-.042-.0162-.056-.0347-.013-.0185-.019-.0416-.015-.0642.005-.0501 0-.1008-.017-.1483-.016-.0476-.043-.0907-.078-.1264-.039-.0435-.086-.078-.139-.1012-.052-.0231-.109-.0343-.167-.0328-.213.0147-.409.2265-.425.4628-.001.017-.007.0333-.018.0469-.01.0135-.024.0238-.04.0294-.015.0056-.033.0064-.049.0023-.016-.0042-.031-.0131-.042-.0256-.151-.1656-.381-.2369-.561-.1745-.05.0187-.095.0476-.133.0849-.038.0372-.069.0821-.089.1317-.018.0387-.028.0808-.029.1236-.001.0429.007.0854.024.1248.006.0132.009.0278.008.0425-.001.0146-.006.0287-.013.0411-.008.0123-.019.0224-.032.0294-.012.007-.027.0105-.041.0104z" fill="#a7c64c"/><path d="m104.493 65.0302c.021-.1634.063-.279.133-.3579.075-.0837.217-.1312.309-.0688.03.0228.058.0487.084.0772.065.0693.147.1536.269.1415.02-.0022.039-.0116.053-.0264.013-.0147.022-.034.023-.0544.013-.2039.027-.4147.117-.5923.075-.1473.237-.2922.42-.2674.117.0168.229.1076.301.2424.073.1347.1.2873.128.438.003.0177.011.034.024.0466s.029.0209.047.0237c.017.0023.035-.0008.051-.009s.029-.0211.037-.037c.093-.1815.239-.4209.438-.4209h.008c.119.004.22.0977.274.1841.069.1102.103.2457.135.3764.007.0208.021.0381.04.0487.019.0105.041.0133.062.008.021-.0054.04-.0185.051-.0369.012-.0184.017-.0406.013-.0622-.034-.1376-.072-.2936-.157-.4277-.101-.16-.255-.2589-.412-.2647-.216-.0118-.375.1461-.49.3167-.022-.0929-.055-.1827-.099-.2674-.098-.1833-.258-.3071-.427-.3321-.264-.0385-.494.1596-.597.361-.088.1733-.114.3673-.128.5485-.02-.0181-.04-.0374-.058-.0577-.034-.038-.072-.0721-.112-.1018-.174-.1175-.407-.0426-.532.0962-.129.1444-.166.337-.18.4749z" fill="#a7c64c"/><path d="m114.407 61.1436c-.018 0-.036-.0059-.05-.0168-.015-.0109-.026-.0263-.031-.0439-.065-.2106-.057-.4376.024-.6426.021-.0549.059-.1338.132-.1829.06-.0367.129-.0557.199-.0549.227-.0057.447.0755.617.2274.053-.1477.16-.2818.322-.3258.065-.0152.131-.013.194.0062s.12.0548.165.1033c.083.0859.112.1942.082.2977-.007.022-.022.0405-.042.0515-.02.0109-.043.0134-.065.007-.011-.0033-.021-.0087-.029-.0159-.009-.0072-.016-.0161-.022-.0261-.005-.0101-.008-.0211-.01-.0325-.001-.0114 0-.0229.004-.0338.016-.0561-.018-.1033-.041-.1264-.051-.0537-.131-.0797-.191-.0628-.142.0387-.222.2053-.234.3437-.001.0175-.008.0341-.019.0477s-.025.0235-.042.0284-.034.0045-.051-.001c-.016-.0055-.031-.0159-.041-.0299-.07-.0902-.16-.1628-.262-.2123-.103-.0494-.215-.0742-.328-.0726-.038-.0011-.076.0079-.11.026-.025.0171-.048.0498-.068.1032-.066.1673-.073.3525-.02.5242.004.0109.005.0224.004.0338-.001.0115-.004.0226-.009.0328s-.012.0192-.021.0267c-.008.0074-.018.013-.029.0165z" fill="#a7c64c"/><path d="m122.107 61.2428c-.044-.0453-.096-.0812-.154-.1057-.063-.0242-.13-.0353-.197-.0329s-.133.0184-.194.0471c-.061.0274-.116.0661-.163.1141-.087-.2457-.224-.4845-.479-.5456-.207-.0503-.445.0481-.606.2464-.137.1702-.205.3829-.265.5704-.006.0216-.003.0447.007.0644.011.0198.028.0346.049.0415s.044.0054.064-.0044c.02-.0097.035-.0268.043-.0478.058-.1817.119-.369.235-.5138.098-.1204.269-.227.434-.1873.229.0551.339.3507.408.6017.005.0178.016.0335.03.045.014.0114.032.0179.05.0185.018.0012.036-.0039.051-.0143.016-.0104.027-.0256.033-.0432.021-.0647.062-.1211.116-.1614s.12-.0625.187-.0635.133.0192.189.0579c.055.0386.098.0938.121.1579.017.0411.027.0854.027.1303 0 .0448-.009.0892-.026.1306-.009.0203-.009.0435-.002.0645s.023.0383.042.0481z" fill="#a7c64c"/><path d="m122.105 28.946c-.586-.0878-1.225-.0382-1.885.1355-2.08.5483-3.074 2.3863-3.219 4.4439-.847-.4345-1.806-.9146-2.641-.2231-.6.4977-.996 1.444-1.057 2.2142-1.41.0481-1.951.385-2.392 1.7639-.812-.5377-1.647-.1565-1.819.7925-.713-.4407-1.885.0669-.992.8424h14.006v-9.9693" fill="#fff"/><path d="m100.7 65.2945c1.618-.5777 3.153-1.751 3.985-3.0626.923-1.4535 1.2-3.2701.967-4.982-.18-1.3264-.64-2.6701-1.297-3.8326-.612-1.083-.9-2.0168-.509-3.2748.338-1.0831.997-2.0299 1.495-3.0479 1.295-2.6451 1.439-5.9243.062-8.5245-1.031-1.9425-2.846-3.4795-3.377-5.6189-.398-1.6041-.569-3.7408-2.4742-4.2727-3.1278-.8727-5.3708 2.2142-5.9731 4.8477-.3923 1.7177-.9927 3.4159-2.0245 4.8342-.0757.1045-.1554.2056-.2346.3066v26.0123c.8674.278 1.7923.4732 2.7309.6154h6.6495" fill="#a1ba5a"/><path d="m97.3937 52.8972c.2434-1.2441.7372-2.4672 1.5995-3.3859.6006-.6401 1.1528-1.3408 1.7768-1.9393.609-.5837 1.393-1.195 1.837-1.9182.041-.0664.081-.1461.055-.2197-.048-.1387-.249-.1095-.382-.0513-1.231.5384-2.5659 1.498-3.9633 1.42-.1587-.0092-.3366-.0443-.4218-.1803-.0597-.0962-.0574-.2166-.0491-.3299.1646-2.2672 1.7267-4.1553 2.4652-6.3014.151-.4383.188-1.065-.241-1.2275-.2983-.1131-.609.0963-.8899.2506-1.316.7191-.8371-1.8164-.8395-2.5002-.0042-1.2452-.0381-2.6537-.4744-3.8308-.0154-.0412-.0367-.0864-.0783-.0984-.063-.019-.115.0512-.1442.1112-.4763.9824-.5664 2.3323-.7448 3.4055-.3361 2.0181-.51 4.0511-.7052 6.0841-.0361.3785-.0894.7651-.2662 1.1003-.36.686-1.5181.839-1.8573-.0053.9685 2.4176 1.5181 5.1938.5484 7.6107-.0685.1706-.1511.347-.3015.45-.3152.2167-.6879.0126-1.0615-.1908s-.7507-.4106-1.0634-.1851c.3559 1.8929 1.8963 3.3627 2.3681 5.2292.3042 1.2271.1256 2.5262-.4982 3.6219-.1034.1803-.2305.3637-.4227.4385-.1866.0722-.3985.0265-.5821-.0534-.2117-.0959-.4073-.2251-.5795-.3827-.4189-.3713-.764-.8708-1.1582-1.2515v1.6669c.6918 1.1784 1.5556 2.2437 2.5618 3.1596.3537.3218.991 1.11 1.4835 1.1466.5477.0407 1.0982-.6871 1.3198-1.1095.3468-.6616.4955-1.42.8777-2.0612.6862-1.1552 1.8068-1.3011 2.7066-2.1338.971-.8989 1.82-1.9841 2.292-3.2395.04-.1081.062-.2611-.04-.3129-.062-.0317-.136-.0036-.2.0241l-3.3819 1.5011c-.3693.1648-1.1711.7184-1.5302.5018-.2847-.1731-.2811-.7401-.2792-1.0231.0097-1.2686.0199-2.5459.2638-3.7899" fill="#95b354"/><g fill="#a16d42"><path d="m96.3009 65.2942c.0474-1.1721.0948-2.3252.1423-3.4145.1452-3.3534.3082-6.7073.4891-10.0617.3572-6.7074.7474-13.4145 1.206-20.1164.0022-.0387-.0105-.0767-.0355-.106-.025-.0294-.0602-.0476-.0983-.051-.0381-.0033-.0759.0086-.1054.0332-.0296.0245-.0485.0598-.0528.0983-.6762 6.6863-1.2967 13.3778-1.8614 20.0745-.287 3.3483-.5594 6.6985-.8172 10.0506-.0828 1.1153-.1696 2.2942-.2538 3.493h1.3865"/><path d="m97.2716 36.9259-.0949-.1423-.1101-.1634-.0676-.1006c-.0237-.0361-.0474-.0797-.0711-.122-.0475-.0862-.1011-.1793-.1568-.2778-.0558-.0984-.1025-.2043-.1556-.3128-.0494-.1098-.1094-.2191-.1533-.337-.0438-.1179-.0937-.2354-.1411-.3538s-.083-.2407-.1243-.3593c-.0199-.0592-.0397-.1179-.0593-.1762l-.0498-.1742c-.032-.1146-.0631-.2251-.0928-.3302l-.0695-.299c-.0462-.1838-.0711-.3407-.0915-.4493-.0204-.1085-.0318-.1706-.0318-.1706-.0048-.0217-.001-.0445.0106-.0633.0116-.0189.0301-.0323.0514-.0374.0213-.0052.0438-.0016.0625.01.0187.0115.0322.0301.0375.0517l.0012.0041.0458.1644c.0306.1042.0671.2548.1283.4305.0287.0883.06.1839.0932.285.0377.0991.0773.2038.1186.3129l.0629.1643.0726.1651c.0498.1103.0949.2248.1499.3346l.166.3259c.0515.109.1186.2069.1734.3066.0591.0962.1101.1968.1706.2777l.1615.2356c.0256.0364.0475.0722.0728.1045l.0762.0938.124.1529.108.1331c.0382.0546.0546.1218.046.1882-.0087.0664-.0419.1269-.0928.1695-.051.0426-.1159.064-.1818.0599s-.1278-.0333-.1733-.0819z"/><path d="m97.1047 40.6097.2308-.1659.2647-.1901c.1032-.0722.2175-.1562.3364-.2498l.3902-.3001c.1394-.1047.2796-.2275.4288-.3481.1492-.1205.3034-.2459.4529-.3812l.4597-.4043.4468-.4195c.149-.1365.288-.2799.424-.4161.137-.1363.271-.2648.39-.3967l.341-.3648c.107-.112.201-.2179.283-.3129l.213-.2453.187-.2139.002-.0022c.014-.0161.034-.0259.056-.0274.021-.0016.042.0053.059.0192.016.0138.027.0336.029.0552.003.0216-.003.0434-.016.0608l-.172.2282-.197.2614c-.076.102-.163.2166-.263.3369l-.318.3925c-.111.1408-.238.2797-.365.4289s-.258.303-.399.4518l-.4226.4573-.4372.4438c-.1423.1487-.291.2856-.4326.4211s-.2764.2682-.4128.3868l-.3793.3391c-.1186.1069-.2267.1991-.3237.2785l-.2505.2089-.2185.1822c-.0655.0545-.1496.0804-.2339.0719-.0843-.0084-.1619-.0505-.2156-.1169-.0537-.0665-.0792-.1519-.0709-.2374s.0498-.1642.1153-.2187z"/><path d="m96.5001 46.4831-.2239-.2089c-.0712-.0665-.1582-.1471-.2574-.2407l-.1584-.1473c-.0551-.0549-.1118-.1165-.1715-.1786l-.3836-.4041c-.0697-.0702-.1354-.1468-.2004-.2262l-.2017-.2407c-.1361-.1641-.282-.3287-.4106-.5126l-.4032-.5451-.3684-.5685c-.126-.1844-.2287-.3793-.334-.5639-.0522-.0924-.1033-.1832-.1535-.2722-.0512-.0886-.0996-.176-.1401-.2648l-.2389-.4924c-.0365-.0765-.0733-.1487-.1051-.2192-.0318-.0706-.0574-.1396-.0837-.2034-.0525-.1273-.098-.2385-.1359-.33l-.1187-.2871c-.0125-.0276-.0138-.0592-.0034-.0877.0103-.0286.0314-.0518.0586-.0645.0272-.0128.0583-.0141.0864-.0036.0282.0105.0511.0319.0636.0595l.0034.0068.1337.2746c.0427.0873.0949.1925.1535.315.0299.0604.0612.1252.0949.1926s.0761.1357.1167.2081l.2647.4682c.0449.0837.0973.166.1528.2491l.166.2556c.1139.1728.2251.3552.3589.5263.1293.1738.2609.3504.3914.5273l.422.5014c.1345.1684.2861.3186.427.4678.0711.0742.1404.1471.2082.2186.0646.0709.1326.1386.2038.2026l.3831.3555c.06.0546.1148.108.171.1571l.1661.137.2718.2224.2372.194c.0353.0282.0647.0633.0866.1032.0218.0398.0357.0837.0407.129.005.0454.0011.0913-.0114.1351-.0126.0438-.0336.0846-.0619.1201-.0282.0355-.0631.0649-.1027.0867-.0395.0217-.0829.0352-.1276.0398-.0448.0046-.09.0001-.133-.0131-.043-.0133-.083-.0351-.1177-.0641l-.0166-.0142"/><path d="m96.5829 49.4722.3848-.2277.4414-.2614.2716-.161c.0932-.0585.1874-.1223.2877-.1877l.6464-.4253c.1163-.0722.2316-.156.3483-.2426l.3596-.2614c.2433-.1786.5005-.3569.7443-.5608l.752-.6017.723-.638c.244-.2062.464-.4296.683-.6402l.321-.3112c.106-.1011.208-.2014.302-.3047l.538-.573c.083-.0891.165-.1731.239-.2556l.205-.2407.333-.3901.291-.3403.003-.0036c.017-.0194.04-.0314.065-.0336.026-.0021.051.0059.07.0222.02.0163.033.0397.036.0653.003.0255-.004.0513-.02.0717l-.274.3581c-.087.1141-.193.2527-.315.412-.06.0795-.125.1644-.193.2535-.069.089-.148.1764-.227.271l-.512.6091c-.089.1098-.187.2166-.288.3247-.102.1081-.203.2202-.308.3333-.21.2255-.422.4648-.657.6872l-.699.689c-.245.2195-.49.4393-.731.6556-.237.2217-.4888.4176-.7272.6135-.1199.0976-.2374.1934-.3525.2876-.1143.0948-.2279.186-.3439.2688l-.6455.4773-.287.2111-.2623.1757-.427.2859-.3717.2488c-.0849.0569-.1887.0772-.2883.0564-.0997-.0207-.1872-.0808-.2432-.1669-.056-.0862-.076-.1914-.0555-.2926.0204-.1011.0796-.1898.1645-.2467l.018-.0113"/><path d="m95.9619 55.2927-.1858-.1637-.2135-.1877c-.0825-.0722-.1753-.1543-.2756-.2513l-.3243-.3068c-.1164-.1078-.2279-.2296-.3491-.3509s-.2455-.2467-.3646-.382l-.3665-.4029-.3513-.4161c-.1186-.135-.2246-.2763-.3304-.4092-.1058-.1328-.21-.2621-.3003-.3899-.0904-.1277-.1791-.2464-.2593-.3566-.163-.2188-.2823-.4133-.3734-.5437-.091-.1305-.1394-.2075-.1394-.2075-.0154-.0229-.0214-.0509-.0169-.0782s.0193-.0518.0412-.0683.0492-.0238.0763-.0204c.0271.0035.0518.0174.069.0389l.0028.0033.154.1926c.1001.1203.2324.3023.4101.504.0875.102.1822.2125.2825.329s.2135.2334.3252.3576.2294.2518.3558.3743l.3755.3771c.13.1203.2609.2431.3883.3627s.2583.232.3838.3415.2453.2166.3644.3105l.3321.2667c.1008.083.1987.1571.2879.2221l.2278.1685.1983.1475c.0726.0541.1211.1352.1348.2256.0137.0903-.0085.1825-.0618.2563-.0533.0737-.1332.1229-.2223.1368s-.1799-.0087-.2526-.0627l-.0218-.0176"/><path d="m95.9573 59.5639.3357-.1396c.1067-.0445.236-.0989.3842-.1612l.2373-.0989c.0811-.0368.1624-.079.2495-.1204l.5584-.2741.1513-.0744.1521-.0854.3138-.1759c.2135-.1204.4372-.2376.6514-.3801l.6599-.4168.6401-.4491c.214-.1444.413-.3033.608-.4544.194-.1512.386-.2929.557-.4407l.485-.414.215-.1841.187-.1745.305-.284.265-.2476.004-.0034c.021-.0197.049-.0302.078-.0292s.057.0133.077.0344.031.0494.032.0788c0 .0294-.012.0577-.032.0789l-.254.2648-.291.3037-.18.1868-.208.1983-.468.446c-.166.1595-.353.3129-.541.478-.187.1651-.382.3369-.593.496l-.6271.4936-.6509.4631c-.2116.1581-.435.2902-.6464.4265l-.3124.1985-.1518.0963-.1535.0866-.5723.3201c-.0888.0482-.1739.0987-.255.1408l-.2306.1122-.375.1822-.3264.1588c-.0408.022-.0855.0354-.1314.0393-.046.004-.0923-.0015-.1361-.0161s-.0843-.0381-.1189-.0689c-.0347-.0309-.0629-.0686-.0828-.1108-.02-.0422-.0313-.0881-.0333-.1348-.0021-.0468.0052-.0935.0214-.1373s.041-.0839.0728-.1178c.0318-.0338.0701-.0608.1125-.0793z"/><path d="m95.4041 63.7517-.5577-.4202-.2704-.2036c-.0968-.0691-.194-.1632-.297-.2489l-.6376-.5518-.5914-.589c-.0922-.0962-.1897-.18-.2668-.2739l-.2263-.2584-.4647-.5317c-.0189-.0213-.029-.0492-.0282-.0778.0007-.0287.0123-.056.0322-.0763.02-.0203.0468-.0321.075-.0329.0283-.0008.0558.0093.0769.0284l.0059.0053.5171.4631.25.2231c.0866.0813.191.1521.2918.2334l.6404.4963c.2258.1516.4521.3028.6642.4445.1077.0693.2019.1425.3084.2003l.2932.1684c.3631.2082.6051.3473.6051.3473.0454.0265.0851.0622.1165.1047.0315.0426.054.0913.0663.143.0122.0517.014.1055.0051.1579s-.0283.1025-.0569.147c-.0286.0446-.0659.0828-.1096.1123-.0436.0294-.0928.0495-.1444.0591-.0515.0095-.1045.0082-.1556-.0037-.0511-.012-.0992-.0344-.1415-.0659"/></g><path d="m115.732 24.282h-4.762l-7.815 11.0244c.736 1.0864 1.631 2.1023 2.247 3.2636.029.055.057.1103.085.166z" fill="#e2f3fe"/><path d="m103.156 35.3063-2.759 3.892c.048.2477-.001.549-.085.7923-.7392 2.1461-2.3012 4.0342-2.4658 6.3014-.0083.1128-.0107.2346.0491.3299.0852.136.2631.1711.4218.1803.0545.0029.1091.0046.1634.0046.5169 0 1.0247-.1353 1.5215-.331l5.486-7.7398c-.028-.0557-.056-.1111-.085-.1661-.617-1.1613-1.512-2.1772-2.246-3.2636" fill="#cdd794"/><path d="m96.6244 44.5232-.5195.7328c.0574.0527.1103.104.1646.1514l.1661.1369.0892.0723c.0327-.3649.0655-.7297.0984-1.0944zm3.7756-5.3247-2.9983 4.2281c-.1119 1.9182-.2202 3.8367-.3247 5.7553l.3356-.1988.2716-.161c.0933-.0585.1874-.1223.2878-.1877l.6464-.4253c.1029-.065.2049-.1372.3083-.213l1.0773-1.5201c-.4971.1957-1.0037.3321-1.5218.3321-.0543 0-.1089-.0016-.1634-.0045-.1587-.0092-.3366-.0443-.4218-.1803-.0598-.0963-.0574-.2166-.0491-.33.1646-2.2671 1.7266-4.1552 2.4651-6.3013.084-.2434.133-.5447.086-.7923" fill="#c5d18c"/><path d="m95.0306 46.7662-2.8284 3.9889c.0039-.0002.0079-.0002.0118 0 .0158 0 .0313.0036.0455.0104.0142.0069.0267.0169.0366.0293l.0029.0034.0671.0842c.0428-.0106.0868-.0158.1309-.0156.2384 0 .4982.1418.757.2835.2587.1418.5194.2833.759.2833.1075.0011.2127-.0311.3015-.0924.1504-.103.2329-.2795.3015-.4501.5242-1.3078.6042-2.7208.4137-4.1252" fill="#cdd794"/><path d="m97.7887 49.5964-.0023.0017-.427.2859-.3361.225c-.0112.2051-.0223.4092-.0332.6145zm-2.0475-3.8318-.71 1.0014c.1898 1.4044.1105 2.8174-.4137 4.1252-.0685.1707-.1511.3471-.3015.4501-.0885.0611-.1932.0933-.3003.0924-.2405 0-.5005-.1417-.759-.2833-.2586-.1415-.5186-.2835-.757-.2835-.0441-.0002-.088.005-.1309.0157l.0868.1088c.1001.1203.2325.3022.4102.5039.0875.1021.1821.2125.2825.329.1003.1165.2135.2335.3252.3577s.2294.2517.3558.3742l.3755.3772c.13.1203.2609.2431.3883.3627.1155.1116.2372.2139.3532.3148l1.0036-1.4159c.0128-.1483.0255-.2964.038-.4443.1526-1.7714.3075-3.5426.4646-5.3137l-.1745-.1629c-.0712-.0664-.1583-.1471-.2574-.2407l-.1585-.1473c-.0384-.0383-.0775-.0799-.1186-.1225" fill="#c5d18c"/><path d="m91.32 52.0032-.0642.0907v6.7219l.0642-.0908z" fill="#e2f3fe"/><path d="m92.1121 50.8853-.7925 1.1181v6.5633c.022.0214.0441.0433.0659.0654l2.6641-3.7586c-.6376-1.2734-1.5561-2.4405-1.8429-3.8333l-.0787-.1169c-.0077-.0116-.013-.0245-.0159-.038" fill="#cdd794"/><path d="m91.3196 58.5665v.1586l.0659-.0931c-.0218-.0221-.0439-.044-.0659-.0655zm.8871-7.5264c.2868 1.3928 1.2053 2.5599 1.8429 3.8333l.5837-.821-.0189-.0192c-.1186-.1228-.2455-.2467-.3646-.382l-.3665-.4029-.3513-.4161c-.1186-.135-.2246-.2763-.3304-.4091-.1058-.1329-.21-.2621-.3003-.3899-.0904-.1278-.1791-.2465-.2593-.3567-.163-.2188-.2823-.4133-.3734-.5437l-.0607-.0905" fill="#c5d18c"/><path d="m97.4004 43.4266-.7773 1.0965c-.0329.3649-.0657.7297-.0984 1.0944l.1826.1492.2372.194c.0353.0282.0648.0633.0866.1032.0219.0398.0357.0837.0407.1291.005.0453.0012.0912-.0114.135s-.0336.0846-.0619.1201c-.0282.0355-.0631.065-.1026.0867-.0396.0217-.083.0352-.1277.0398s-.0899.0001-.133-.0131c-.043-.0133-.083-.0351-.1176-.0641l-.0166-.0142-.0494-.046c-.1581 1.7707-.313 3.542-.4647 5.3137-.0125.148-.0251.2961-.0379.4442l1.0437-1.4715c.0109-.205.022-.4091.0332-.6144l-.0356.0241c-.042.0281-.0892.0476-.1386.0573-.0495.0096-.1003.0093-.1497-.0009-.0493-.0103-.0962-.0303-.1379-.059-.0418-.0286-.0775-.0654-.1053-.108-.056-.0862-.076-.1914-.0555-.2925.0204-.1012.0796-.1899.1645-.2468l.0181-.0113.3847-.2276.1058-.0626c.1049-1.9185.2131-3.8369.3247-5.7553" fill="#caa57e"/><path d="m96.1039 45.256-.3606.5088c.0406.0426.0797.0842.1187.1225l.1584.1473c.0992.0926.1857.1732.2574.2406l.1746.163.0493.0459.0166.0142c.0347.0291.0747.0509.1177.0641.043.0133.0882.0178.1329.0132.0448-.0046.0882-.0181.1277-.0399.0395-.0217.0744-.0511.1027-.0866.0282-.0355.0492-.0764.0618-.1202s.0165-.0897.0115-.135c-.0051-.0453-.0189-.0892-.0407-.1291-.0219-.0398-.0513-.0749-.0866-.1032l-.2372-.1939-.1827-.1492-.0892-.0722-.166-.137c-.0543-.0481-.1072-.0987-.1646-.1514" fill="#caa57e"/><path d="m98.9227 47.9959c-.1032.0758-.2052.148-.3083.213l-.6464.4253c-.1004.0655-.1945.1292-.2878.1877l-.2716.161-.3356.1988-.1058.0626-.3848.2277-.018.0113c-.0849.0569-.1441.1456-.1645.2467-.0205.1012-.0005.2064.0555.2925.056.0862.1435.1463.2432.167.0996.0208.2034.0005.2883-.0564l.0356-.024.3361-.2251.427-.2859.0023-.0017 1.1346-1.6005" fill="#caa57e"/><path d="m92.217 50.755c-.004-.0003-.0079-.0003-.0119 0l-.0915.129c.0029.0136.0082.0265.0159.038l.0787.117.0607.0905c.0911.1304.2104.3249.3734.5437.0802.1102.1661.23.2593.3566s.1964.2542.3003.3899c.1039.1358.2135.2754.3304.4092l.3513.4161.3665.4029c.1186.1353.245.2592.3646.382l.019.0192.3121-.4404c-.1162-.1009-.2372-.2032-.3532-.3148-.1283-.1204-.2583-.2407-.3883-.3627l-.376-.375c-.1257-.1225-.241-.2515-.3558-.3743-.1148-.1227-.2265-.2406-.3252-.3576s-.195-.227-.2825-.329c-.1777-.2017-.31-.3829-.4101-.504l-.0868-.1088-.0672-.0842-.0028-.0034c-.0099-.0124-.0224-.0224-.0366-.0293s-.0298-.0104-.0455-.0104" fill="#caa57e"/><path d="m107.91 38.7153-1.667 2.3519c.084.4929.128.992.132 1.4922l2.584-3.6453h-.859c-.069-.0595-.133-.1262-.189-.199zm11.422-14.4333h-1.191l-9.659 13.6271h.016c.209-.0013.415.0551.596.1634.118-.6537.551-1.0381 1.074-1.0381.04.0001.08.0022.12.0065l9.045-12.7589" fill="#e2f3fe"/><path d="m110.166 37.0345c-.523 0-.956.3851-1.074 1.038-.181-.1082-.387-.1647-.596-.1634h-.016l-.571.8061c.056.0728.12.1395.19.199h.859l1.328-1.8732c-.04-.0043-.08-.0065-.12-.0065" fill="#fff"/><path d="m106.243 41.067-8.9809 12.6704c-.0735.6111-.1039 1.2275-.1186 1.845l9.2315-13.0227c-.004-.5002-.048-.9993-.132-1.4922" fill="#cdd794"/><path d="m97.2623 53.7376-.4639.6547c-.0309.602-.0612 1.2037-.0909 1.805l.4365-.6156c.0144-.6173.0448-1.234.1186-1.845" fill="#c5d18c"/><path d="m94.7049 57.3448-1.9214 2.7101c.0868.0564.178.1055.2726.147.1193.0553.2484.0857.3795.0895.0691.0007.1378-.0115.2026-.0361.1921-.0748.3193-.2582.4227-.4385.4281-.7509.6505-1.6044.644-2.472" fill="#cdd794"/><path d="m95.6253 56.0475-.9203 1.297c.0067.8674-.2154 1.7209-.6433 2.472-.1034.1802-.2306.3636-.4227.4385-.0648.0245-.1335.0367-.2026.0361-.1311-.0039-.2602-.0343-.3795-.0896-.0946-.0414-.1858-.0906-.2726-.147l-.4084.5759.3961.3533.25.2232c.0266.024.0548.0481.0842.0722l2.365-3.3363c.0507-.632.1021-1.2638.1541-1.8953" fill="#c5d18c"/><path d="m91.32 62.122-.0642.0907v1.6773l.0642-.0907z" fill="#e2f3fe"/><path d="m91.9584 61.2206-.6388.9013v1.678l1.2572-1.7733c-.0539-.065-.1075-.1307-.1602-.1966-.1581-.1983-.3108-.4012-.458-.6087" fill="#cdd794"/><path d="m92.2311 60.8342-.2735.3851c.1468.2073.2994.4102.4581.6087.0526.0659.1062.1316.1601.1966l.315-.4443c-.0384-.0385-.0755-.077-.1089-.1172l-.2263-.2585-.3245-.3713" fill="#c5d18c"/><path d="m96.798 54.3918-.3252.4584c.0352.058.0527.1253.0503.1934-.0025.068-.0246.1338-.0638.1891s-.0936.0976-.1564.1216c-.0628.0241-.1312.0287-.1966.0134l-.4817.6797c-.0519.6318-.1033 1.2636-.1542 1.8953l1.2368-1.7449c.0299-.6019.0602-1.2036.0908-1.8051" fill="#caa57e"/><path d="m96.4749 54.8502-.3665.5174c.0655.0156.134.0111.1969-.0129.063-.0239.1175-.0662.1567-.1216.0393-.0554.0614-.1213.0637-.1895s-.0154-.1355-.0508-.1934" fill="#caa57e"/><path d="m92.375 60.6304-.1445.2038.3245.3714.2268.2594c.0334.0402.0711.0787.1089.1172l.2134-.3022c-.0294-.0241-.0576-.0482-.0842-.0722l-.2497-.2241-.3952-.3528" fill="#caa57e"/><path d="m121.541 38.9141h-2.38l-13.443 18.9652c.021.3409.021.6829 0 1.0238.251-.2575.617-.3903.979-.3903.28 0 .559.0791.783.2406z" fill="#e2f3fe"/><path d="m106.696 58.512c-.363 0-.728.1329-.979.3904-.071 1.1793-.401 2.3391-1.03 3.3295-.643 1.0108-1.703 1.9401-2.896 2.5774h1.395l4.294-6.0566c-.224-.1615-.503-.2407-.783-.2407" fill="#dde397"/><path d="m122.069 34.8095-2.909 4.1045h2.38l.529-.7473z" fill="#fff"/><path d="m105.714 57.8789-4.912 6.9315h.987c1.194-.6373 2.254-1.5659 2.896-2.5774.629-.9904.958-2.1495 1.03-3.3295.021-.341.021-.6829 0-1.0239" fill="#cdd794"/><path d="m90.4972 23.7718v41.724h32.4518v-41.724zm31.3488 40.7916h-30.2454v-39.8592h30.2454z" fill="#a06e67"/><path d="m100.164 24.4588v40.3497h.966v-40.3497" fill="#a06e67"/><path d="m112.315 24.4588v40.3497h.967v-40.3497" fill="#a06e67"/><path d="m122.26 36.0432h-31.7628v.9811h31.7628" fill="#a06e67"/><path d="m122.26 52.243h-31.7628v.981h31.7628" fill="#a06e67"/><path d="m63.694 32.273h.9861c.2237 0 .4126.0341.5667.1023.1555.0682.2735.1691.3539.3028.0819.1323.1228.2953.1228.489 0 .1364-.028.2612-.0839.3744-.0546.1118-.1337.2073-.2373.2864-.1023.0777-.2251.1357-.3683.1739l-.1105.043h-.9268l-.004-.3213h.6996c.1419 0 .2599-.0245.354-.0736.0941-.0505.165-.118.2128-.2026.0477-.0845.0716-.1779.0716-.2802 0-.1146-.0225-.2149-.0675-.3008-.0451-.0859-.116-.1521-.2128-.1984-.0955-.0478-.2189-.0716-.3703-.0716h-.5913v2.6555h-.3948zm1.741 2.9788-.7242-1.3503.4112-.002.7345 1.3278v.0245zm1.7022.0409c-.1541 0-.2939-.0259-.4194-.0777-.1241-.0532-.2312-.1275-.3212-.223-.0887-.0955-.1569-.2087-.2046-.3396-.0477-.131-.0716-.2742-.0716-.4297v-.0859c0-.18.0266-.3403.0798-.4808.0532-.1418.1255-.2618.2168-.36.0914-.0983.1951-.1726.311-.2231.116-.0504.236-.0756.3601-.0756.1582 0 .2946.0272.4092.0818.1159.0545.2107.1309.2844.2291.0736.0969.1282.2114.1636.3437.0355.131.0532.2742.0532.4297v.1698h-1.6531v-.3089h1.2746v-.0287c-.0054-.0982-.0259-.1937-.0613-.2864-.0341-.0928-.0887-.1691-.1637-.2292-.075-.06-.1773-.09-.3069-.09-.0859 0-.165.0184-.2373.0553-.0723.0354-.1344.0886-.1862.1595-.0518.071-.0921.1576-.1207.2599-.0287.1023-.043.2203-.043.3539v.0859c0 .1051.0143.204.043.2967.03.0914.073.1719.1289.2414.0573.0696.1261.1241.2066.1637.0818.0395.1746.0593.2783.0593.1336 0 .2468-.0273.3396-.0818.0927-.0546.1739-.1275.2434-.2189l.2292.1821c-.0478.0722-.1085.1411-.1821.2066-.0737.0655-.1644.1187-.2721.1596-.1064.0409-.2326.0613-.3785.0613zm2.5922-.628c0-.0546-.0123-.1051-.0369-.1514-.0232-.0478-.0716-.0907-.1452-.1289-.0723-.0396-.1814-.0737-.3274-.1023-.1227-.0259-.2339-.0566-.3335-.0921-.0982-.0355-.182-.0784-.2516-.1289-.0682-.0504-.1207-.1098-.1575-.178-.0369-.0682-.0553-.148-.0553-.2393 0-.0873.0191-.1699.0573-.2476.0396-.0777.0948-.1466.1657-.2066.0723-.06.1589-.1071.2599-.1412.1009-.0341.2134-.0511.3375-.0511.1773 0 .3287.0313.4542.0941.1255.0627.2217.1466.2885.2516.0668.1037.1002.2189.1002.3458h-.3785c0-.0614-.0184-.1207-.0552-.178-.0355-.0587-.088-.1071-.1575-.1453-.0682-.0382-.1521-.0573-.2517-.0573-.105 0-.1902.0164-.2557.0491-.0641.0314-.1112.0716-.1412.1207-.0286.0491-.0429.101-.0429.1555 0 .0409.0068.0778.0204.1105.015.0314.0409.0607.0778.088.0368.0259.0886.0504.1554.0736.0669.0232.1521.0464.2558.0696.1814.0409.3307.09.448.1473s.2046.1275.2619.2107.0859.1842.0859.3028c0 .0969-.0204.1855-.0613.266-.0396.0805-.0976.15-.1739.2087-.0751.0572-.1651.1023-.2701.135-.1037.0314-.2203.047-.3498.047-.1951 0-.3601-.0347-.4952-.1043-.135-.0696-.2373-.1596-.3068-.2701-.0696-.1104-.1044-.227-.1044-.3498h.3806c.0054.1037.0354.1862.09.2476.0545.06.1214.1029.2005.1288.0791.0246.1575.0369.2353.0369.1036 0 .1902-.0137.2598-.0409.0709-.0273.1248-.0648.1616-.1126.0368-.0477.0553-.1023.0553-.1636zm1.7942.628c-.1541 0-.2939-.0259-.4194-.0777-.1241-.0532-.2312-.1275-.3212-.223-.0887-.0955-.1569-.2087-.2046-.3396-.0477-.131-.0716-.2742-.0716-.4297v-.0859c0-.18.0266-.3403.0798-.4808.0532-.1418.1255-.2618.2168-.36.0914-.0983.1951-.1726.311-.2231.116-.0504.236-.0756.3601-.0756.1582 0 .2946.0272.4092.0818.1159.0545.2107.1309.2844.2291.0736.0969.1282.2114.1636.3437.0355.131.0532.2742.0532.4297v.1698h-1.6531v-.3089h1.2746v-.0287c-.0054-.0982-.0259-.1937-.0613-.2864-.0341-.0928-.0887-.1691-.1637-.2292-.075-.06-.1773-.09-.3069-.09-.0859 0-.165.0184-.2373.0553-.0723.0354-.1344.0886-.1862.1595-.0518.071-.0921.1576-.1207.2599s-.043.2203-.043.3539v.0859c0 .1051.0144.204.043.2967.03.0914.073.1719.1289.2414.0573.0696.1261.1241.2066.1637.0819.0395.1746.0593.2783.0593.1336 0 .2468-.0273.3396-.0818.0927-.0546.1739-.1275.2434-.2189l.2292.1821c-.0478.0722-.1084.1411-.1821.2066s-.1644.1187-.2721.1596c-.1064.0409-.2326.0613-.3785.0613zm2.23-2.2545v.2905h-1.1968v-.2905zm-.7917-.5381h.3785v2.2034c0 .075.0116.1316.0347.1698.0232.0382.0532.0635.0901.0757.0368.0123.0763.0185.1186.0185.0314 0 .0641-.0028.0982-.0082.0355-.0069.0621-.0123.0798-.0164l.0021.3089c-.03.0096-.0696.0184-.1187.0266-.0477.0096-.1057.0143-.1739.0143-.0927 0-.178-.0184-.2557-.0552-.0778-.0368-.1398-.0982-.1862-.1841-.045-.0873-.0675-.2046-.0675-.3519zm3.3941 1.3585h-.7549l-.0041-.3171h.6854c.1132 0 .2121-.0191.2966-.0573.0846-.0382.1501-.0928.1964-.1637.0478-.0723.0716-.1582.0716-.2578 0-.1091-.0211-.1978-.0634-.2659-.0409-.0696-.1043-.1201-.1903-.1514-.0845-.0328-.1923-.0491-.3232-.0491h-.581v2.6555h-.3949v-2.9788h.9759c.1527 0 .2891.0157.4092.0471.12.03.2216.0777.3048.1432.0846.0641.1487.1459.1923.2455.0437.0995.0655.2189.0655.358 0 .1228-.0314.2339-.0941.3335-.0628.0982-.1501.1787-.2619.2414-.1105.0627-.24.103-.3887.1207zm-.0184 1.3932h-.892l.223-.3212h.669c.1255 0 .2319-.0218.3192-.0654.0886-.0437.1561-.1051.2025-.1842.0464-.0804.0696-.1752.0696-.2844 0-.1104-.0198-.2059-.0594-.2864-.0395-.0805-.1016-.1425-.1861-.1862-.0846-.0436-.1937-.0654-.3274-.0654h-.5626l.0041-.3171h.7692l.0839.1145c.1432.0123.2646.0532.3642.1228.0996.0682.1753.1555.2271.2619.0532.1063.0798.2236.0798.3519 0 .1854-.0409.3423-.1228.4705-.0804.1269-.1943.2237-.3416.2905-.1473.0655-.3206.0982-.5197.0982zm2.8643-.5114v-1.7022h.3805v2.2136h-.3621zm.0716-.4665.1575-.0041c0 .1473-.0157.2837-.0471.4092-.03.1241-.0791.2318-.1473.3232s-.1575.163-.268.2149c-.1105.0504-.2448.0756-.403.0756-.1078 0-.2066-.0156-.2967-.047-.0886-.0314-.165-.0798-.2291-.1453-.0641-.0654-.1139-.1507-.1494-.2557-.0341-.105-.0511-.2312-.0511-.3785v-1.428h.3785v1.4321c0 .0996.0109.1821.0327.2476.0232.0641.0539.1152.0921.1534.0395.0368.0832.0627.1309.0777.0491.015.0996.0225.1514.0225.161 0 .2885-.0306.3826-.092.0941-.0628.1616-.1466.2025-.2517.0423-.1064.0635-.2243.0635-.3539zm1.8126-1.2357v.2905h-1.1968v-.2905zm-.7917-.5381h.3785v2.2034c0 .075.0116.1316.0347.1698.0232.0382.0532.0635.0901.0757.0368.0123.0763.0185.1186.0185.0314 0 .0641-.0028.0982-.0082.0355-.0069.0621-.0123.0798-.0164l.0021.3089c-.03.0096-.0696.0184-.1187.0266-.0477.0096-.1057.0143-.1739.0143-.0927 0-.178-.0184-.2557-.0552-.0778-.0368-.1398-.0982-.1862-.1841-.045-.0873-.0675-.2046-.0675-.3519zm2.1625.5381v.2905h-1.1969v-.2905zm-.7918-.5381h.3785v2.2034c0 .075.0116.1316.0348.1698s.0532.0635.09.0757c.0368.0123.0764.0185.1187.0185.0313 0 .0641-.0028.0982-.0082.0354-.0069.062-.0123.0798-.0164l.002.3089c-.03.0096-.0695.0184-.1186.0266-.0478.0096-.1058.0143-.1739.0143-.0928 0-.178-.0184-.2558-.0552-.0777-.0368-.1398-.0982-.1862-.1841-.045-.0873-.0675-.2046-.0675-.3519zm1.0946 1.6695v-.0471c0-.1596.0232-.3076.0695-.444.0464-.1377.1132-.2571.2005-.358.0873-.1023.193-.1814.3172-.2373.1241-.0573.2632-.0859.4173-.0859.1555 0 .2953.0286.4194.0859.1255.0559.2319.135.3192.2373.0886.1009.1562.2203.2025.358.0464.1364.0696.2844.0696.444v.0471c0 .1595-.0232.3075-.0696.4439-.0463.1364-.1139.2557-.2025.358-.0873.101-.193.1801-.3171.2374-.1228.0559-.2619.0838-.4174.0838s-.2953-.0279-.4194-.0838c-.1241-.0573-.2305-.1364-.3192-.2374-.0873-.1023-.1541-.2216-.2005-.358-.0463-.1364-.0695-.2844-.0695-.4439zm.3785-.0471v.0471c0 .1104.0129.2148.0388.313.026.0968.0648.1827.1167.2578.0532.075.1193.1343.1984.1779.0791.0423.1712.0635.2762.0635.1037 0 .1944-.0212.2721-.0635.0791-.0436.1446-.1029.1964-.1779.0518-.0751.0907-.161.1166-.2578.0273-.0982.041-.2026.041-.313v-.0471c0-.1091-.0137-.2121-.041-.3089-.0259-.0982-.0654-.1848-.1186-.2599-.0519-.0763-.1173-.1364-.1964-.18-.0778-.0436-.1692-.0655-.2742-.0655-.1036 0-.195.0219-.2741.0655-.0778.0436-.1432.1037-.1964.18-.0519.0751-.0907.1617-.1167.2599-.0259.0968-.0388.1998-.0388.3089zm2.4898-.6117v1.741h-.3785v-2.2136h.3581zm-.09.5503-.1575-.0061c.0013-.1514.0238-.2912.0675-.4194.0436-.1296.105-.2421.1841-.3376s.1732-.1691.2824-.221c.1104-.0532.2325-.0797.3662-.0797.1091 0 .2073.015.2946.045.0873.0286.1616.075.223.1391.0627.0641.1105.1473.1432.2496.0327.1009.0491.2243.0491.3703v1.4505h-.3805v-1.4546c0-.1159-.0171-.2087-.0512-.2782-.0341-.071-.0839-.1221-.1493-.1535-.0655-.0327-.146-.0491-.2415-.0491-.0941 0-.18.0198-.2577.0593-.0764.0396-.1426.0942-.1985.1637-.0545.0696-.0975.1494-.1289.2394-.03.0886-.045.1828-.045.2823z" fill="#000"/><path d="m21.5534 56.6184c0-.1687-.0687-.3305-.191-.4498-.1222-.1192-.288-.1862-.4609-.1862s-.3387.067-.461.1862c-.1222.1193-.1909.2811-.1909.4498v.8482h1.3038z" fill="#373737" fill-opacity=".35"/><path d="m18.0768 56.6186c-.0057-.165-.077-.3215-.1987-.4363s-.2843-.1789-.4536-.1789-.3319.0641-.4536.1789-.1929.2713-.1987.4363v.8483h1.3046z" fill="#373737" fill-opacity=".35"/><path d="m23.5167 63.1908v-3.3922c-.0008-.2247-.0927-.4399-.2556-.5987s-.3836-.2483-.6139-.2489h-1.0862v-1.4842h-1.3038v1.4842h-2.1732v-1.4842h-1.3045v1.4842h-1.0863c-.2302.0006-.4508.0901-.6136.2489s-.2545.3741-.2551.5987v3.3922c-.2303.0008-.451.0904-.6139.2493s-.2547.3742-.2555.599v7.632c.0008.2247.0926.44.2555.5989s.3836.2485.6139.2493h8.6922c.2303-.0008.451-.0904.6139-.2493s.2547-.3742.2555-.5989v-7.632c-.0008-.2248-.0926-.4401-.2555-.599s-.3836-.2485-.6139-.2493zm-4.7808 7.2083v-2.544h-1.7389l1.7389-3.3923h1.7381l-.8687 1.6965h1.7381z" fill="#373737" fill-opacity=".35"/><path d="m36.7174 56.6869h-.1219s.0292.5501-.3609.6938h.4828z" fill="#000"/><path d="m35.8514 57.3807h.6898c.0972 0 .1762-.0526.1762-.1178v-.4582c0-.065-.079-.1178-.1762-.1178h-.6898z" fill="#000"/><path d="m36.7186 56.8099c0-.065.1292-.1178-.1762-.1178h-.6898v.4169c.3987.0171.7324-.0881.866-.2318z" fill="#24211e"/><path d="m40.571 57.7629h-1.1226v-1.4498h1.1295c.0607-.0003.1191.0227.1631.0642.0441.0415.0704.0983.0734.1585.0014.005.0019.0103.0016.0155v.9686c.0001.032-.0061.0637-.0184.0933-.0123.0295-.0304.0564-.0532.079s-.0498.0404-.0796.0526c-.0298.0121-.0617.0183-.0938.0181z" fill="#d1d3d4"/><path d="m39.8221 57.1534c-.0582-.1903-.0611-.724.1046-.8394h.6501c.0634 0 .1243.025.1692.0697.0449.0446.0701.1051.0701.1682v.9442c-.7623.0226-.9021-.0443-.994-.3427z" fill="#d9dadb"/><path d="m39.6322 57.9824v-1.9145h-2.9051v1.9145z" fill="#000"/><path d="m35.8525 57.0448h-1.159" stroke="#000" stroke-width=".198344"/><path d="m25.5896 67.2223v2.111h2.7329v-2.111z" fill="#696c6e"/><path d="m25.5896 67.2223v2.111h2.7329v-2.111z" fill="#d1d3d4"/><path d="m25.5896 67.2233h2.7339v2.111h-.6755s.2798-.2634.2798-1.2161-.6223-.8376-1.3351-.8376-1.0031-.0573-1.0031-.0573z" fill="#c1c4c6"/><path d="m27.5748 68.1108c.1163.276.1221 1.0543-.209 1.2225h-1.7762v-1.7207c1.5223-.0338 1.8018.0625 1.9852.4982z" fill="#d9dadb"/><path d="m28.3225 68.0974v.0393h-.5215v.1411h-1.6686v-.1411h-.1905v.1411h-.3523v-.0393h.3128v-.1411h.2695v.1411h1.5896v-.1411z" fill="#e5e8ea"/><path d="m28.3225 68.1171v.0391h-.5215v.1411h-1.6686v-.1411h-.1905v.1411h-.3523v-.0393h.3128v-.1409h.2695v.1409h1.5896v-.1409z" fill="#adb1b2"/><path d="m28.3225 69.3333h-2.7329v-2.111l.0567 2.0506z" fill="#e5e8ea" opacity=".7"/><path d="m26.4793 68.5772v.4906h.421v-.4906z" fill="#7e8183"/><path d="m26.4793 68.7005c.1781.0297.3217.2317.4036.3673h-.4036z" fill="#8e9192"/><path d="m26.5963 68.5772h.3066v.3502c-.0615-.1059-.1726-.2634-.3066-.3502z" fill="#696c6e"/><path d="m26.4818 69.0678v-.4904h.421v.4904l.0113-.4999h-.4419z" fill="#e5e8ea"/><path d="m26.4793 69.0114v.0564h.421v-.0564z" fill="#696c6e" opacity=".7"/><path d="m26.4793 67.5093v.4907h.421v-.4907z" fill="#7e8183"/><path d="m26.4793 67.6324c.1781.0297.3217.2319.4036.3676h-.4036z" fill="#8e9192"/><path d="m26.5963 67.5085h.3066v.3503c-.0615-.1054-.1726-.2627-.3066-.3503z" fill="#696c6e"/><path d="m26.4818 68v-.4907h.421v.4907l.0113-.5002h-.4419z" fill="#e5e8ea"/><path d="m26.4793 67.9436v.0564h.421v-.0564z" fill="#696c6e" opacity=".7"/><path d="m28.0567 66.7397v3.1156h4.2306v-3.1156z" fill="#000"/><path d="m32.2873 69.8279v.0274h-4.2306v-1.8707c2.5123-.1002 3.771 1.2092 4.2306 1.8433z" fill="#000" opacity=".6"/><path d="m28.0567 69.3335v.5218h4.2306v-.5218z" fill="#000"/><path d="m28.0567 66.7397v.4828h4.2306v-.4828z" fill="#000" opacity=".6"/><path d="m28.0567 67.2228s3.311-.1561 3.6394-.4827h.5912v.4827z" fill="#000" opacity=".6"/><path d="m32.2873 69.8553s-2.9429-.2917-3.5077-.5218h-.7229v.5218z" fill="#000" opacity=".3"/><path d="m32.2891 67.7233h1.0053c.0337 0 .067.0065.0981.0193s.0594.0316.0832.0553c.0238.0236.0427.0517.0556.0827.0129.0309.0195.0641.0194.0975v.9915c.0001.0335-.0065.0667-.0194.0976-.0129.031-.0317.0591-.0556.0828-.0238.0237-.052.0425-.0832.0553-.0311.0128-.0644.0194-.0981.0194h-1.0053z" fill="#000"/><path d="m33.5507 68.7739c.0001.0334-.0065.0666-.0194.0976-.0129.0309-.0317.059-.0556.0827-.0238.0237-.052.0425-.0832.0553-.0311.0128-.0644.0194-.0981.0194h-1.0053v-.9013c.5809-.0371 1.0668.1904 1.2612.5014z" fill="#000"/><path d="m34.8301 68.4625h-1.7385" stroke="#000" stroke-width=".198344"/><path d="m34.8301 68.7498-.002-11.9933" stroke="#000" stroke-width=".198344"/><circle cx="75.2875" cy="25.0194" fill="#333" r="4.13068"/><path d="m77.8361 24.5783c.2408.9137-.1604 2.1554-1.1655 2.7819-.9693.6042-2.2363.5299-3.1051-.192-.8953-.7439-1.1983-1.9419-.772-3.0144.3682-.9262 1.4082-1.8172 2.8968-1.6192.0513-.1757.1029-.3531.1607-.551l1.1108 1.2386-1.5987.4812c.0514-.1852.0965-.3477.1498-.5398-.1552 0-.302-.0155-.4444.0026-.8353.1061-1.4333.5416-1.699 1.3381-.4525 1.3568.5651 2.5951 1.8463 2.6097 1.0335.0117 1.8879-.7225 2.0158-1.7432.0237-.1895-.0068-.3863-.0201-.5793-.0037-.0548-.0077-.0926.057-.1048.1871-.0352.3741-.0713.5676-.1084z" fill="#fff"/><path d="m24.449 34.2897h-.7958v-.3212h.7958c.1542 0 .279-.0245.3744-.0736.0955-.0491.1651-.1173.2087-.2046.045-.0873.0675-.1869.0675-.2987 0-.1023-.0225-.1985-.0675-.2885-.0436-.09-.1132-.1623-.2087-.2168-.0954-.056-.2202-.0839-.3744-.0839h-.7037v2.6555h-.3949v-2.9788h1.0986c.2251 0 .4154.0389.5708.1166.1555.0778.2735.1855.354.3233.0805.1364.1207.2926.1207.4685 0 .1909-.0402.3539-.1207.489-.0805.135-.1985.238-.354.3089-.1554.0696-.3457.1043-.5708.1043zm1.3585.086v-.0471c0-.1596.0232-.3076.0696-.4439.0464-.1378.1132-.2572.2005-.3581.0873-.1023.193-.1814.3171-.2373.1241-.0573.2632-.0859.4174-.0859.1554 0 .2952.0286.4194.0859.1254.0559.2318.135.3191.2373.0887.1009.1562.2203.2026.3581.0463.1363.0695.2843.0695.4439v.0471c0 .1595-.0232.3075-.0695.4439-.0464.1364-.1139.2558-.2026.3581-.0873.1009-.193.18-.3171.2373-.1227.0559-.2619.0839-.4174.0839-.1554 0-.2952-.028-.4194-.0839-.1241-.0573-.2305-.1364-.3191-.2373-.0873-.1023-.1541-.2217-.2005-.3581s-.0696-.2844-.0696-.4439zm.3785-.0471v.0471c0 .1104.013.2148.0389.313.0259.0968.0648.1828.1166.2578.0532.075.1193.1343.1985.178.0791.0422.1711.0634.2761.0634.1037 0 .1944-.0212.2722-.0634.0791-.0437.1445-.103.1964-.178.0518-.075.0907-.161.1166-.2578.0273-.0982.0409-.2026.0409-.313v-.0471c0-.1091-.0136-.2121-.0409-.3089-.0259-.0982-.0655-.1848-.1187-.2598-.0518-.0764-.1173-.1364-.1964-.1801-.0777-.0436-.1691-.0655-.2741-.0655-.1037 0-.1951.0219-.2742.0655-.0777.0437-.1432.1037-.1964.1801-.0518.075-.0907.1616-.1166.2598-.0259.0968-.0389.1998-.0389.3089zm2.672.7365.5687-1.8208h.2496l-.0491.3621-.579 1.8515h-.2434zm-.3826-1.8208.4849 1.8413.0347.3723h-.2557l-.6424-2.2136zm1.7451 1.827.4624-1.827h.3764l-.6424 2.2136h-.2537zm-.4889-1.827.5564 1.7901.0635.4235h-.2415l-.5953-1.8556-.0491-.358zm2.6351 2.2546c-.1542 0-.294-.0259-.4194-.0778-.1242-.0532-.2312-.1275-.3212-.223-.0887-.0955-.1569-.2087-.2046-.3396-.0478-.1309-.0716-.2742-.0716-.4296v-.086c0-.18.0266-.3403.0797-.4808.0532-.1418.1255-.2618.2169-.36s.1951-.1726.311-.223c.1159-.0505.236-.0757.3601-.0757.1582 0 .2946.0272.4091.0818.116.0546.2108.1309.2844.2291.0737.0969.1282.2115.1637.3438.0355.1309.0532.2741.0532.4296v.1698h-1.6531v-.3089h1.2746v-.0287c-.0055-.0982-.0259-.1936-.0614-.2864-.0341-.0927-.0886-.1691-.1636-.2291-.0751-.0601-.1774-.0901-.3069-.0901-.086 0-.1651.0185-.2374.0553-.0722.0354-.1343.0886-.1861.1596-.0519.0709-.0921.1575-.1207.2598-.0287.1023-.043.2203-.043.3539v.086c0 .105.0143.2039.043.2966.03.0914.0729.1719.1289.2414.0572.0696.1261.1241.2066.1637.0818.0396.1746.0593.2782.0593.1337 0 .2469-.0272.3396-.0818.0928-.0546.174-.1275.2435-.2189l.2292.1821c-.0478.0723-.1085.1411-.1821.2066-.0737.0655-.1644.1187-.2721.1596-.1064.0409-.2326.0614-.3785.0614zm1.6817-1.9068v1.8658h-.3785v-2.2136h.3683zm.6915-.3601-.002.3519c-.0314-.0068-.0614-.0109-.0901-.0123-.0272-.0027-.0586-.0041-.0941-.0041-.0873 0-.1643.0137-.2312.041-.0668.0272-.1234.0654-.1698.1145-.0463.0491-.0832.1078-.1104.176-.026.0668-.043.1405-.0512.2209l-.1064.0614c0-.1337.013-.2591.0389-.3764.0273-.1173.0689-.221.1248-.311.0559-.0914.1268-.1623.2128-.2128.0873-.0518.1909-.0777.3109-.0777.0273 0 .0587.0034.0942.0102.0354.0055.06.0116.0736.0184zm2.5083.8327h-.755l-.004-.3171h.6853c.1132 0 .2121-.0191.2967-.0573s.15-.0928.1964-.1637c.0477-.0723.0716-.1582.0716-.2578 0-.1091-.0211-.1977-.0634-.2659-.0409-.0696-.1044-.1201-.1903-.1514-.0846-.0328-.1923-.0491-.3232-.0491h-.5811v2.6555h-.3948v-2.9788h.9759c.1527 0 .2891.0157.4091.0471.1201.03.2217.0777.3049.1432.0845.0641.1486.1459.1923.2455.0436.0996.0655.2189.0655.358 0 .1228-.0314.2339-.0942.3335-.0627.0982-.15.1787-.2618.2414-.1105.0628-.2401.103-.3887.1207zm-.0184 1.3932h-.892l.223-.3212h.669c.1255 0 .2318-.0218.3191-.0654.0887-.0437.1562-.1051.2026-.1842.0463-.0804.0695-.1752.0695-.2843 0-.1105-.0197-.206-.0593-.2865-.0395-.0804-.1016-.1425-.1862-.1861-.0845-.0437-.1936-.0655-.3273-.0655h-.5626l.0041-.3171h.7692l.0839.1145c.1432.0123.2646.0532.3642.1228.0995.0682.1752.1555.2271.2619.0532.1064.0797.2237.0797.3519 0 .1855-.0409.3423-.1227.4705-.0805.1269-.1944.2237-.3417.2905-.1473.0655-.3205.0982-.5196.0982zm2.8642-.5114v-1.7022h.3806v2.2136h-.3622zm.0716-.4665.1576-.0041c0 .1473-.0157.2837-.0471.4092-.03.1241-.0791.2319-.1473.3232-.0682.0914-.1575.163-.268.2149-.1105.0504-.2448.0757-.403.0757-.1078 0-.2067-.0157-.2967-.0471-.0887-.0314-.165-.0798-.2291-.1452-.0641-.0655-.1139-.1508-.1494-.2558-.0341-.105-.0511-.2312-.0511-.3785v-1.428h.3785v1.4321c0 .0996.0109.1821.0327.2476.0232.0641.0539.1152.0921.1534.0395.0368.0832.0628.1309.0778.0491.015.0996.0225.1514.0225.1609 0 .2885-.0307.3826-.0921.0941-.0627.1616-.1466.2025-.2517.0423-.1063.0634-.2243.0634-.3539zm1.8127-1.2357v.2905h-1.1968v-.2905zm-.7918-.5381h.3785v2.2034c0 .0751.0116.1317.0348.1699.0232.0381.0532.0634.09.0757.0369.0122.0764.0184.1187.0184.0314 0 .0641-.0028.0982-.0082.0355-.0068.0621-.0123.0798-.0164l.002.3089c-.03.0096-.0695.0185-.1186.0266-.0478.0096-.1057.0144-.1739.0144-.0928 0-.178-.0184-.2558-.0553-.0777-.0368-.1398-.0982-.1861-.1841-.0451-.0873-.0676-.2046-.0676-.3519zm2.1626.5381v.2905h-1.1969v-.2905zm-.7918-.5381h.3785v2.2034c0 .0751.0116.1317.0348.1699.0231.0381.0532.0634.09.0757.0368.0122.0764.0184.1186.0184.0314 0 .0641-.0028.0982-.0082.0355-.0068.0621-.0123.0798-.0164l.0021.3089c-.03.0096-.0696.0185-.1187.0266-.0477.0096-.1057.0144-.1739.0144-.0927 0-.178-.0184-.2557-.0553-.0778-.0368-.1398-.0982-.1862-.1841-.045-.0873-.0675-.2046-.0675-.3519zm1.0945 1.6695v-.0471c0-.1596.0232-.3076.0696-.4439.0464-.1378.1132-.2572.2005-.3581.0873-.1023.193-.1814.3171-.2373.1241-.0573.2633-.0859.4174-.0859.1555 0 .2953.0286.4194.0859.1255.0559.2319.135.3192.2373.0886.1009.1561.2203.2025.3581.0464.1363.0696.2843.0696.4439v.0471c0 .1595-.0232.3075-.0696.4439s-.1139.2558-.2025.3581c-.0873.1009-.193.18-.3172.2373-.1227.0559-.2618.0839-.4173.0839s-.2953-.028-.4194-.0839c-.1242-.0573-.2305-.1364-.3192-.2373-.0873-.1023-.1541-.2217-.2005-.3581s-.0696-.2844-.0696-.4439zm.3785-.0471v.0471c0 .1104.013.2148.0389.313.0259.0968.0648.1828.1166.2578.0532.075.1194.1343.1985.178.0791.0422.1712.0634.2762.0634.1036 0 .1943-.0212.2721-.0634.0791-.0437.1446-.103.1964-.178s.0907-.161.1166-.2578c.0273-.0982.0409-.2026.0409-.313v-.0471c0-.1091-.0136-.2121-.0409-.3089-.0259-.0982-.0655-.1848-.1187-.2598-.0518-.0764-.1173-.1364-.1964-.1801-.0777-.0436-.1691-.0655-.2741-.0655-.1037 0-.1951.0219-.2742.0655-.0777.0437-.1432.1037-.1964.1801-.0518.075-.0907.1616-.1166.2598-.0259.0968-.0389.1998-.0389.3089zm2.4899-.6117v1.741h-.3785v-2.2136h.358zm-.09.5503-.1576-.0061c.0014-.1514.0239-.2912.0676-.4194.0436-.1296.105-.2421.1841-.3376s.1732-.1691.2823-.2209c.1105-.0532.2326-.0798.3662-.0798.1092 0 .2074.015.2946.045.0873.0286.1617.075.2231.1391.0627.0641.1104.1473.1432.2496.0327.1009.0491.2244.0491.3703v1.4505h-.3806v-1.4546c0-.1159-.017-.2087-.0511-.2782-.0341-.071-.0839-.1221-.1494-.1535-.0654-.0327-.1459-.0491-.2414-.0491-.0941 0-.18.0198-.2578.0594-.0763.0395-.1425.0941-.1984.1636-.0546.0696-.0975.1494-.1289.2394-.03.0887-.045.1828-.045.2823z" fill="#000"/><path d="m80.192 79.4439v1.0904c-.0368.0546-.0955.116-.176.1842-.0804.0668-.1916.1255-.3334.1759-.1405.0491-.3219.0737-.5443.0737-.1814 0-.3484-.0314-.5012-.0941-.1514-.0641-.283-.1569-.3949-.2783-.1104-.1227-.1964-.2714-.2577-.446-.06-.1759-.0901-.3751-.0901-.5974v-.2312c0-.2223.026-.4207.0778-.5953.0532-.1746.1309-.3226.2332-.444.1023-.1227.2278-.2155.3765-.2782.1486-.0641.3191-.0962.5114-.0962.2278 0 .4181.0396.5708.1187.1542.0777.2742.1855.3601.3232.0873.1378.1432.2946.1678.4706h-.3949c-.0177-.1078-.0532-.206-.1064-.2946-.0518-.0887-.1261-.1596-.223-.2128-.0968-.0546-.2216-.0818-.3744-.0818-.1377 0-.2571.0252-.358.0757-.1009.0504-.1841.1227-.2496.2168s-.1146.208-.1473.3417c-.0314.1337-.0471.2844-.0471.4521v.2353c0 .1719.0198.3253.0594.4603.0409.1351.0989.2503.1739.3458.075.0941.1643.1657.268.2148.105.0491.221.0737.3478.0737.1405 0 .2544-.0116.3417-.0348.0873-.0246.1554-.0532.2046-.0859.0491-.0341.0866-.0662.1125-.0962v-.667h-.6895v-.3191zm1.7533.315h-.7958v-.3212h.7958c.1541 0 .2789-.0245.3744-.0736s.1651-.1173.2087-.2046c.045-.0873.0675-.1869.0675-.2987 0-.1023-.0225-.1985-.0675-.2885-.0436-.09-.1132-.1623-.2087-.2168-.0955-.056-.2203-.0839-.3744-.0839h-.7038v2.6556h-.3948v-2.9789h1.0986c.2251 0 .4153.0389.5708.1166.1555.0778.2735.1855.354.3233.0804.1364.1207.2926.1207.4685 0 .191-.0403.3539-.1207.489-.0805.135-.1985.238-.354.3089-.1555.0696-.3457.1043-.5708.1043zm3.1323.4154c0-.0696-.0109-.131-.0327-.1842-.0205-.0545-.0573-.1036-.1105-.1473-.0518-.0436-.1241-.0852-.2169-.1248-.0914-.0395-.2073-.0798-.3478-.1207-.1473-.0436-.2803-.092-.3989-.1452-.1187-.0546-.2203-.1167-.3049-.1862-.0845-.0696-.1493-.1494-.1943-.2394s-.0676-.193-.0676-.3089c0-.116.0239-.223.0717-.3212.0477-.0982.1159-.1835.2045-.2558.0901-.0736.1971-.1309.3213-.1718.1241-.0409.2625-.0614.4153-.0614.2237 0 .4132.043.5687.1289.1569.0846.2762.1957.3581.3335.0818.1364.1227.2823.1227.4378h-.3928c0-.1118-.0239-.2107-.0716-.2967-.0477-.0872-.12-.1554-.2169-.2045-.0968-.0505-.2196-.0757-.3682-.0757-.1405 0-.2565.0211-.3478.0634-.0914.0423-.1596.0996-.2046.1718-.0437.0723-.0655.1548-.0655.2476 0 .0627.013.12.0389.1718.0273.0505.0689.0976.1248.1412.0573.0437.1296.0839.2168.1207.0887.0368.1944.0723.3172.1064.1691.0477.315.1009.4378.1596.1227.0586.2237.1248.3028.1984.0804.0723.1398.1548.178.2476.0395.0914.0593.195.0593.311 0 .1214-.0246.2312-.0737.3294s-.1193.182-.2107.2516-.2012.1234-.3294.1616c-.1268.0369-.2687.0553-.4255.0553-.1378 0-.2735-.0191-.4072-.0573-.1323-.0382-.253-.0955-.3621-.1719-.1077-.0763-.1943-.1705-.2598-.2823-.0641-.1132-.0962-.2441-.0962-.3928h.3928c0 .1023.0198.1903.0594.2639.0395.0723.0934.1323.1616.18.0696.0478.148.0832.2353.1064.0886.0219.1807.0328.2762.0328.1377 0 .2544-.0191.3498-.0573.0955-.0382.1678-.0928.2169-.1637.0505-.0709.0757-.1548.0757-.2516zm3.0422-1.9621-.9861 2.715h-.403l1.1355-2.9789h.2598zm.8266 2.715-.9882-2.715-.0061-.2639h.2598l1.1396 2.9789zm-.0512-1.1028v.3233h-1.6735v-.3233zm1.1764-.6383v1.7411h-.3785v-2.2137h.3581zm-.09.5503-.1575-.0061c.0013-.1514.0238-.2912.0675-.4194.0436-.1296.105-.2421.1841-.3376s.1732-.1691.2824-.2209c.1104-.0532.2325-.0798.3662-.0798.1091 0 .2073.015.2946.045.0873.0286.1616.075.223.1391.0627.0641.1105.1473.1432.2496.0327.1009.0491.2244.0491.3703v1.4506h-.3805v-1.4547c0-.1159-.0171-.2087-.0512-.2782-.0341-.0709-.0839-.1221-.1493-.1535-.0655-.0327-.146-.0491-.2415-.0491-.0941 0-.18.0198-.2577.0594-.0764.0395-.1426.0941-.1985.1636-.0545.0696-.0975.1494-.1289.2394-.03.0887-.045.1828-.045.2823zm2.9543-1.0229v.2905h-1.1969v-.2905zm-.7918-.5381h.3785v2.2035c0 .075.0116.1316.0348.1698s.0532.0634.09.0757c.0368.0122.0764.0184.1187.0184.0313 0 .0641-.0028.0982-.0082.0354-.0068.062-.0123.0798-.0164l.002.309c-.03.0095-.0695.0184-.1186.0266-.0478.0095-.1057.0143-.1739.0143-.0928 0-.178-.0184-.2558-.0553-.0777-.0368-.1398-.0982-.1862-.1841-.045-.0873-.0675-.2046-.0675-.3519zm2.1544 2.7927c-.1542 0-.294-.0259-.4195-.0778-.1241-.0532-.2311-.1275-.3212-.223-.0886-.0954-.1568-.2087-.2045-.3396-.0478-.1309-.0717-.2741-.0717-.4296v-.086c0-.18.0266-.3403.0798-.4807.0532-.1419.1255-.2619.2169-.3601s.195-.1726.311-.223c.1159-.0505.2359-.0757.3601-.0757.1582 0 .2946.0273.4091.0818.116.0546.2108.1309.2844.2292.0737.0968.1282.2114.1637.3437.0354.1309.0532.2741.0532.4296v.1698h-1.6531v-.3089h1.2746v-.0287c-.0055-.0982-.0259-.1936-.0614-.2864-.0341-.0927-.0886-.1691-.1637-.2291-.075-.06-.1773-.09-.3068-.09-.086 0-.1651.0184-.2374.0552-.0723.0355-.1343.0886-.1861.1596-.0519.0709-.0921.1575-.1208.2598-.0286.1023-.0429.2203-.0429.3539v.086c0 .105.0143.2039.0429.2966.0301.0914.073.1719.1289.2414.0573.0696.1262.1242.2067.1637.0818.0396.1746.0593.2782.0593.1337 0 .2469-.0272.3396-.0818.0928-.0546.1739-.1275.2435-.2189l.2291.1821c-.0477.0723-.1084.1411-.182.2066-.0737.0655-.1644.1187-.2722.1596-.1063.0409-.2325.0614-.3784.0614zm1.6817-1.782v1.7411h-.3785v-2.2137h.358zm-.09.5503-.1576-.0061c.0014-.1514.0239-.2912.0675-.4194.0437-.1296.1051-.2421.1842-.3376s.1732-.1691.2823-.2209c.1105-.0532.2326-.0798.3662-.0798.1091 0 .2073.015.2946.045.0873.0286.1617.075.223.1391.0628.0641.1105.1473.1433.2496.0327.1009.0491.2244.0491.3703v1.4506h-.3806v-1.4547c0-.1159-.017-.2087-.0511-.2782-.0341-.0709-.0839-.1221-.1494-.1535-.0654-.0327-.1459-.0491-.2414-.0491-.0941 0-.18.0198-.2578.0594-.0764.0395-.1425.0941-.1984.1636-.0546.0696-.0976.1494-.1289.2394-.03.0887-.045.1828-.045.2823zm2.4059-.5503v1.7411h-.3784v-2.2137h.358zm-.09.5503-.1575-.0061c.0014-.1514.0239-.2912.0675-.4194.0437-.1296.105-.2421.1841-.3376s.1733-.1691.2824-.2209c.1104-.0532.2325-.0798.3662-.0798.1091 0 .2073.015.2946.045.0873.0286.1616.075.223.1391.0627.0641.1105.1473.1432.2496.0327.1009.0491.2244.0491.3703v1.4506h-.3805v-1.4547c0-.1159-.0171-.2087-.0512-.2782-.0341-.0709-.0839-.1221-.1493-.1535-.0655-.0327-.146-.0491-.2414-.0491-.0942 0-.1801.0198-.2578.0594-.0764.0395-.1426.0941-.1985.1636-.0545.0696-.0975.1494-.1289.2394-.03.0887-.045.1828-.045.2823zm3.3329.8123v-1.1396c0-.0873-.018-.163-.053-.2271-.034-.0655-.086-.1159-.156-.1514-.069-.0355-.155-.0532-.258-.0532-.095 0-.179.0164-.251.0491-.071.0327-.127.0757-.168.1289-.04.0532-.059.1105-.059.1719h-.379c0-.0791.021-.1576.062-.2353.04-.0778.099-.148.176-.2107.077-.0641.17-.1146.278-.1514.109-.0382.23-.0573.364-.0573.161 0 .303.0273.425.0818.125.0546.221.1371.291.2476.071.1091.106.2462.106.4112v1.0311c0 .0737.007.1521.019.2353.013.0832.033.1548.059.2148v.0328h-.395c-.019-.0437-.034-.1017-.045-.1739-.011-.0737-.016-.1419-.016-.2046zm.065-.9637.004.266h-.382c-.108 0-.204.0089-.289.0266-.084.0164-.155.0416-.212.0757-.058.0341-.101.0771-.131.1289-.03.0505-.045.1098-.045.178 0 .0696.015.133.047.1903.031.0572.078.1029.141.137.064.0328.142.0491.235.0491.116 0 .218-.0245.307-.0736s.159-.1091.211-.1801c.053-.0709.082-.1398.086-.2066l.161.1821c-.009.0573-.035.1207-.077.1903-.043.0695-.099.1364-.17.2005-.07.0627-.153.1152-.25.1575-.095.0409-.203.0614-.323.0614-.15 0-.282-.0294-.395-.088-.112-.0587-.199-.1371-.262-.2353-.061-.0995-.092-.2107-.092-.3335 0-.1186.023-.223.07-.313.046-.0914.113-.1671.2-.2271.087-.0614.193-.1077.315-.1391.123-.0314.26-.0471.411-.0471z" fill="#000"/><path d="m43.0625 37.7558v14.6897h2.318" stroke="#7dd1e8" stroke-dasharray=".4 .4" stroke-linecap="round" stroke-linejoin="round" stroke-width=".198344"/><g clip-path="url(#b)"><path d="m35.5629 29.1501c2.2814 0 4.1308-1.8494 4.1308-4.1307s-1.8494-4.1307-4.1308-4.1307c-2.2813 0-4.1307 1.8494-4.1307 4.1307s1.8494 4.1307 4.1307 4.1307z" fill="#333"/><g fill="#fff"><path d="m35.5628 27.6352c-.46-.0001-.9118-.1219-1.3095-.3531-.3978-.2312-.7272-.5635-.955-.9632-.2277-.3997-.3456-.8526-.3417-1.3126s.1295-.9108.364-1.3066c.2315-.3895.5601-.7123.9538-.9367.0821-.0469.1795-.0591.2707-.0341s.1688.0852.2156.1674c.0468.0821.059.1795.034.2707s-.0852.1688-.1673.2156c-.2905.1658-.5321.4053-.7002.6944-.1682.2891-.257.6175-.2575.952 0 1.0438.8492 1.8931 1.8931 1.8931s1.8932-.8493 1.8932-1.8931c-.0005-.3345-.0894-.6629-.2576-.952-.1681-.2891-.4097-.5287-.7002-.6944-.0414-.0228-.0778-.0537-.1072-.0907-.0293-.037-.051-.0795-.0639-.1249-.0128-.0455-.0164-.0931-.0107-.14.0058-.0469.0208-.0922.0442-.1333.0234-.041.0547-.077.0921-.1058.0374-.0289.0802-.05.1259-.0622.0456-.0122.0932-.0151.14-.0087.0469.0064.0919.022.1327.046.4003.2275.7331.5571.9646.9552.2315.398.3534.8503.3532 1.3108.0003.3423-.067.6814-.1979.9977-.1309.3164-.3229.6038-.5649.8459-.2421.2421-.5295.434-.8459.5649-.3163.1309-.6554.1982-.9977.1979z"/><path d="m35.5605 24.7181c-.0469 0-.0932-.0092-.1365-.0271s-.0826-.0442-.1157-.0773-.0594-.0724-.0773-.1157-.0271-.0897-.0271-.1365v-2.0029c.0014-.0937.0395-.183.1063-.2487.0667-.0658.1566-.1026.2502-.1026.0937 0 .1836.0368.2503.1026.0667.0657.1049.155.1063.2487v2.0029c0 .0468-.0092.0932-.0271.1365-.0179.0432-.0442.0826-.0773.1157s-.0724.0594-.1157.0773c-.0432.0179-.0896.0271-.1364.0271z"/></g></g><path d="m62.6556 58.2425c-.8669 0-1.6853-.1953-2.3036-.5501l-12.9724-7.4343c-.643-.3688-.9981-.8678-.9986-1.4029-.0004-.5352.3488-1.0279.9845-1.3943l12.887-7.4343c.6153-.3548 1.4313-.5501 2.2987-.5501s1.6848.1928 2.3031.5496l12.9724 7.4343c.6435.3688.9986.8678.9991 1.403.0004.5351-.3488 1.0278-.9845 1.3947l-12.887 7.4329c-.6148.3562-1.4313.5515-2.2987.5515zm-.1044-18.5032c-.8213 0-1.5901.1827-2.1656.5144l-12.887 7.4343c-.5508.3177-.8533.7323-.8529 1.1672.0005.4348.3084.8552.8665 1.1749l12.9719 7.4347c.5795.3322 1.3502.5154 2.1715.5154s1.5906-.1827 2.1656-.5149l12.8875-7.4342c.5503-.3173.8528-.7319.8524-1.1668-.0005-.4348-.3084-.8557-.867-1.1759l-12.9719-7.4347c-.579-.3317-1.3497-.5144-2.171-.5144z" fill="#e5e5e5"/><path d="m77.7879 57.4763-12.8933 7.4376c-1.2307.7102-3.2326.7102-4.4716 0l-12.9783-7.4381c-.6231-.3568-.9339-.8259-.9329-1.294l-.0102 3.5735c0 .4681.3098.9367.9329 1.294l12.9783 7.4381c1.239.7102 3.2409.7102 4.4717 0l12.8932-7.4381c.6115-.3525.9175-.8143.9189-1.2767l.0102-3.573c-.0014.4624-.3074.9238-.9189 1.2767z" fill="#808285"/><path d="m77.7961 61.0934-12.8933 7.4381c-1.2307.7097-3.2326.7097-4.4716 0l-12.9758-7.4381c-.6232-.3573-.9345-.8259-.933-1.294l-.0102 3.573c0 .4681.3098.9372.933 1.2945l12.9778 7.4395c1.2389.7102 3.2409.7102 4.4716 0l12.8913-7.4395c.6115-.353.9175-.8143.9189-1.2767l.0102-3.5735c-.0014.4624-.3074.9243-.9189 1.2767z" fill="#231f20"/><path d="m62.6585 72.7658c-.8669 0-1.6853-.1957-2.304-.5501l-12.972-7.4347c-.6455-.3698-1.0005-.8678-.9869-1.4078v-3.5826h.2632c0 .4517.3065.8702.866 1.1913l12.9724 7.4347c.579.3317 1.3502.5145 2.1715.5145s1.5901-.1828 2.1652-.5145l12.8874-7.4342c.5488-.3168.8514-.7295.8529-1.0703h.2511v3.4799c0 .5303-.3478 1.024-.9811 1.389l-12.8875 7.4347c-.6148.3544-1.4308.5501-2.2982.5501zm-16.0181-12.1952-.0083 2.8002c0 .4401.307.8596.8674 1.1807l12.9856 7.442c.5794.3322 1.3516.5154 2.1739.5154.8222 0 1.5916-.1828 2.1676-.5149l12.9005-7.442c.5489-.3168.8519-.7304.8534-1.1644l.0077-2.8006c-.1934.2531-.4379.4632-.7178.6171l-12.9006 7.442c-.6153.3549-1.4327.5506-2.3006.5506s-1.6873-.1928-2.3065-.5506l-12.9856-7.442c-.2881-.1568-.5392-.3728-.7367-.6335z" fill="#e5e5e5"/><path d="m62.6543 69.1486c-.8674 0-1.6853-.1929-2.304-.5501l-12.9749-7.4363c-.6455-.3702-1-.8678-.9869-1.4077v-3.5812h.2632c0 .4517.3065.8707.8665 1.1913l12.9719 7.4348c.5794.3317 1.3507.5149 2.172.5149s1.5901-.1828 2.1651-.5149l12.8875-7.4343c.5483-.3163.8509-.7295.8523-1.0703h.2511v3.4799c0 .5303-.3477 1.024-.9805 1.3895l-12.8875 7.4343c-.6149.3548-1.4313.5501-2.2958.5501zm-16.021-12.1948-.0063 2.8002c0 .4397.3064.8591.8669 1.1802l12.9841 7.4425c.5799.3322 1.3516.5149 2.1739.5149.8222 0 1.592-.1827 2.1676-.5149l12.9005-7.442c.5493-.3168.8524-.7299.8534-1.1638l.0082-2.8007c-.1934.2531-.4381.4632-.7183.6167l-12.9006 7.4419c-.6153.3554-1.4322.5506-2.3006.5506s-1.6868-.1928-2.3065-.5501l-12.9851-7.4424c-.2882-.1567-.5395-.3725-.7372-.6331z" fill="#e5e5e5"/><path d="m77.7879 53.7714-12.8933 7.4391c-1.2307.7102-3.2326.7102-4.4716 0l-12.9783-7.4396c-.6231-.3567-.9339-.8258-.9329-1.294l-.0102 3.5749c0 .4682.3098.9368.9329 1.2941l12.9783 7.4366c1.239.7102 3.2409.7102 4.4717 0l12.8932-7.4381c.6115-.3524.9175-.8143.9189-1.2762l.0102-3.5734c-.0014.4623-.3074.9237-.9189 1.2766z" fill="#006b94"/><path d="m62.6469 65.4436c-.867 0-1.6853-.1929-2.3041-.5496l-12.9719-7.4348c-.646-.3703-1.0005-.8702-.9821-1.4078v-3.6438h.2584c0 .5125.306.9314.866 1.2535l12.9724 7.4347c.5789.3322 1.3502.5149 2.1715.5149s1.5901-.1827 2.1651-.5144l12.8885-7.4362c.5483-.3163.8514-.7294.8523-1.131h.2565v3.5406c-.0034.5304-.3526 1.0241-.986 1.3895l-12.8884 7.4343c-.6149.3548-1.4308.5501-2.2982.5501zm-16.0133-12.1947-.0063 2.8001c0 .4402.3065.8591.8669 1.1802l12.9841 7.4425c.5799.3322 1.3517.5154 2.1739.5154.8223 0 1.5921-.1832 2.1676-.5154l12.9006-7.442c.5493-.3167.8523-.7299.8533-1.1638l.0083-2.8006c-.1934.2532-.4381.4635-.7183.6171l-12.9006 7.4415c-.6154.3553-1.4323.551-2.3007.551s-1.6867-.1957-2.3065-.5505l-12.985-7.442c-.2884-.1567-.5398-.3727-.7373-.6335z" fill="#e5e5e5"/><path d="m77.7591 47.5744c1.238.7097 1.2448 1.8605.0146 2.5702l-6.4425 3.7171-6.4426 3.7172c-1.2302.7097-3.2312.7097-4.4682 0l-12.9724-7.4343c-1.2375-.7097-1.2439-1.86-.0136-2.5697l12.8835-7.4328c1.2303-.7097 3.2317-.7097 4.4683 0z" fill="#fff"/><path d="m75.7218 47.5625c1.0738.6156 1.0796 1.6136.0126 2.2293l-11.1774 6.4493c-1.0685.6157-2.8033.6157-3.8772 0l-11.2531-6.4493c-1.0739-.6157-1.0792-1.6137-.0122-2.2293l11.1794-6.4489c1.0685-.6156 2.8028-.6156 3.8766 0z" fill="#562b82"/><path d="m72.3084 47.8524c.7951.4556.7994 1.1942.0092 1.6498l-8.2749 4.7729c-.7902.4556-2.0749.4556-2.8704 0l-8.3294-4.7729c-.795-.4556-.7989-1.1942-.0092-1.6498l8.2755-4.773c.7897-.4556 2.0748-.4556 2.8693 0z" fill="#7dd1e8"/><path d="m77.7879 50.1422-12.8933 7.4377c-1.2307.7101-3.2326.7101-4.4716 0l-12.9783-7.4377c-.6226-.3577-.9339-.8263-.9329-1.2945l-.0102 3.5735c0 .4681.3098.9372.9329 1.294l12.9783 7.4381c1.239.7102 3.2409.7102 4.4717 0l12.8932-7.4376c.6115-.3529.9175-.8143.9189-1.2767l.0102-3.5734c-.0014.4623-.3074.9237-.9189 1.2766z" fill="#fff"/><path d="m62.6451 61.8142c-.8674 0-1.6853-.1928-2.3041-.5496l-12.9724-7.4347c-.6455-.3698-1-.8679-.9796-1.4078v-3.6588h.2559c0 .5274.3065.9464.8665 1.267l12.9719 7.4347c.5794.3322 1.3502.5154 2.1715.5154s1.5901-.1827 2.1651-.5144l12.888-7.4352c.5483-.3163.8509-.7295.8523-1.146h.2584v3.5556c-.0053.5303-.355 1.024-.9878 1.3895l-12.8875 7.4342c-.6149.3549-1.4313.5501-2.2982.5501zm-16.0113-12.1947-.0064 2.8002c0 .4401.3065.8591.867 1.1802l12.9841 7.4425c.5799.3321 1.3506.5153 2.1763.5153.8256 0 1.592-.1832 2.1676-.5153l12.8981-7.442c.5493-.3168.8524-.73.8533-1.1639l.0083-2.8006c-.1934.2531-.4381.4632-.7183.6166l-12.9006 7.4425c-.6153.3549-1.4322.5506-2.3006.5506s-1.6868-.1957-2.3065-.5506l-12.9851-7.4425c-.2883-.1565-.5397-.3723-.7372-.633z" fill="#e5e5e5"/><path d="m49.1861 51.7299c-.197-.116-.3751-.1254-.5052-.0508l-.6693.3974c.1263-.0765.3075-.0658.5051.0501.3915.2301.7066.7873.7053 1.2455 0 .2275-.0795.3879-.2064.4632l.6699-.3968c.1263-.0752.2059-.2357.2065-.4638.0006-.4595-.3145-1.0148-.7059-1.2448z" fill="#4dc5da"/><path d="m48.5164 52.1297c.3914.23.7065.7872.7053 1.2454-.0013.4582-.3189.6431-.7098.4131-.3908-.2301-.7072-.7885-.7059-1.2467s.3195-.6419.7104-.4118z" fill="#7dd1e8"/><ellipse cx="51.0368" cy="57.5988" fill="#fff" rx=".830964" ry="1.4394" transform="matrix(-.91019997 .41416907 -.41416907 -.91019997 121.346135 88.887362)"/><ellipse cx="51.0395" cy="57.5986" fill="#000" rx=".609374" ry="1.05556" transform="matrix(-.91019997 .41416907 -.41416907 -.91019997 121.35121 88.885861)"/><path d="m76.6387 51.9062c-.3198.3247-.4805.9468-.3603 1.3907.1203.4439.4762.5407.7954.2161s.4808-.9482.3606-1.3921c-.1203-.4439-.4765-.5392-.7957-.2147z" fill="#7dd1e8"/><path d="m.03061.053019h4.23679v1.00618h-4.23679z" fill="#000" stroke="#c4c4c4" stroke-width=".07069" transform="matrix(.866007 .500033 .00003774 1 51.1634 53.6367)"/><path d="m.061221.106037h3.79333v1.54492h-3.79333z" fill="#830000" stroke="#ae4141" stroke-width=".14138" transform="matrix(.866007 .500033 .00003774 1 56.8036 56.4198)"/><path d="m0 0h5.62102v.843152h-5.62102z" fill="#000" transform="matrix(.866007 -.500033 -.00003768 1 65.9975 58.3059)"/><path d="m0 0h.515967v1.03193h-.515967z" fill="#000" transform="matrix(.866007 -.500033 -.00003772 1 73.2252 54.4328)"/><path d="m0 0h.515967v1.03193h-.515967z" fill="#000" transform="matrix(.866007 -.500033 -.00003772 1 73.9661 54.0028)"/><circle fill="#000" r=".171989" transform="matrix(.866007 -.500033 -.00003772 1 73.8208 53.5041)"/><path d="m75.924 51.7053c.1609-.1636.3311-.219.4765-.1804l.7522.2114c-.1423-.0414-.3152.016-.4767.1798-.3198.3247-.4805.9468-.3603 1.3907.0591.2206.1779.3555.3205.3954l-.7526-.2106c-.1419-.0401-.2607-.175-.3206-.3961-.12-.4452.0412-1.0655.361-1.3902z" fill="#4dc5da"/><path d="m102.769 67.9963c.599.401 1.085.9481 1.412 1.5899.409.8055.584 1.7851.521 2.9099-.002.0328.003.0656.014.0964.012.0307.029.0588.052.0822s.051.0418.081.0539c.031.0121.064.0177.097.0164.069-.0014.135-.0286.185-.0761s.081-.112.086-.1807c.157-2.7708-1.084-4.2087-2.153-4.9276-.714-.4773-1.529-.7847-2.382-.8988-.069-.0052-.138.0154-.192.0578-.055.0423-.092.1034-.104.1713-.006.0323-.005.0655.003.0973s.022.0616.042.0875.045.0473.074.0628c.029.0154.061.0247.094.0272.778.1108 1.519.3946 2.17.8306z" fill="#9c9c9b"/><path d="m101.729 72.5778c-.004.0326-.002.0656.008.097.009.0314.025.0604.047.0852.021.0247.047.0447.077.0587.03.0139.062.0215.095.0222.069.0021.136-.0216.189-.0664.053-.0449.087-.1076.096-.1759.032-.3973-.02-.7962-.153-1.1708-.204-.5595-.695-1.2668-1.877-1.4552-.037-.0056-.075-.0035-.111.006-.036.0096-.069.0264-.099.0495-.0498.0386-.0852.0932-.0999.1545-.0081.0319-.0095.0651-.004.0974.0054.0324.0176.0632.0358.0905.0181.0273.0418.0505.0691.068.028.0176.059.0292.092.034 1.812.2875 1.643 2.0305 1.635 2.1053z" fill="#9c9c9b"/><path d="m103.407 72.677c.069-.0009.135-.0276.186-.0747.05-.0472.082-.1114.087-.1801.122-1.8656-.738-2.8635-1.48-3.3722-.496-.3371-1.061-.561-1.654-.6559-.069-.0074-.138.011-.194.0517s-.094.1007-.108.1682c-.007.0322-.008.0654-.001.0975s.02.0624.039.089.044.0489.072.0654c.028.0166.06.027.092.0307.523.0882 1.019.2881 1.455.5862.926.6402 1.351 1.6317 1.265 2.9425-.002.0328.002.0657.013.0966s.029.0592.051.0829c.023.0237.05.0423.081.0548.03.0124.063.0184.096.0174z" fill="#9c9c9b"/><path d="m95.1991 72.3212c0-.2252.1826-.4078.4079-.4078h4.0781c.2252 0 .4079.1826.4079.4078v3.3645c0 .2252-.1827.4078-.4079.4078h-4.0781c-.2253 0-.4079-.1826-.4079-.4078z" fill="#808285"/><path d="m92.9682 73.9675c0-.3042-.2466-.5508-.5508-.5508h-41.4444c-.3042 0-.5508.2466-.5508.5508 0 .3041.2466.5507.5508.5507h41.4444c.3042 0 .5508-.2466.5508-.5507z" fill="#414042"/><path d="m99.4111 72.3988h-3.3604c-.116 0-.21.0941-.21.2101v2.7333c0 .116.094.2101.21.2101h3.3604c.116 0 .2101-.0941.2101-.2101v-2.7333c0-.116-.0941-.2101-.2101-.2101z" fill="#414042"/><path d="m95.2392 73.1417h-2.8227v1.6523h2.8227z" fill="#4d4d4f"/><path d="m50.973 61.094c-.3042 0-.5508.2466-.5508.5508v12.3232c0 .3042.2466.5507.5508.5507s.5507-.2465.5507-.5507v-12.3232c0-.3042-.2465-.5508-.5507-.5508z" fill="#414042"/><path d="m50.1502 61.5924c-.3292-.7236-.2575-1.4642.1602-1.6543s1.0233.2424 1.3525.966c.3293.7235.2576 1.4642-.1602 1.6543-.4177.19-1.0232-.2424-1.3525-.966z" fill="#fff"/><path d="m50.351 61.5003c-.2414-.5306-.1888-1.0738.1175-1.2132s.7504.1778.9918.7084c.2415.5306.1889 1.0738-.1174 1.2132-.3064.1393-.7504-.1778-.9919-.7084z" fill="#000"/></g></svg>