<svg width="365" height="365" viewBox="0 0 365 365" fill="none" xmlns="http://www.w3.org/2000/svg">
<g filter="url(#filter0_d_3_6646)">
<g filter="url(#filter1_i_3_6646)">
<rect x="56" y="13" width="252.492" height="251.656" rx="19.8963" fill="white"/>
</g>
<rect x="63.848" y="21.6722" width="235.985" height="233.476" rx="12.7461" fill="black" stroke="black" stroke-width="0.621761"/>
<circle cx="118.673" cy="219.512" r="5.54158" stroke="#FE0808" stroke-opacity="0.5" stroke-width="0.621761"/>
<circle cx="182.227" cy="219.512" r="5.54158" stroke="#FE0808" stroke-opacity="0.5" stroke-width="0.621761"/>
<circle cx="245.751" cy="219.512" r="5.54158" stroke="#FE0808" stroke-opacity="0.5" stroke-width="0.621761"/>
<path d="M279.918 52.3164H83.3164V203.689H279.918V52.3164Z" fill="#F4F7FF" stroke="#F4F7FF" stroke-width="0.320845"/>
<path d="M242.57 65.4277H232.017C231.843 65.4277 231.701 65.5695 231.701 65.7444V67.7478C231.701 67.9227 231.843 68.0644 232.017 68.0644H242.57C242.745 68.0644 242.886 67.9227 242.886 67.7478V65.7444C242.886 65.5695 242.745 65.4277 242.57 65.4277Z" fill="#51B44F"/>
<path d="M235.824 65.2171C235.824 65.0422 235.966 64.9004 236.14 64.9004H238.491C238.665 64.9004 238.807 65.0422 238.807 65.2171V66.0779C238.807 66.2528 238.665 66.3945 238.491 66.3945H236.14C235.966 66.3945 235.824 66.2528 235.824 66.0779V65.2171Z" fill="#F4F7FF"/>
<path d="M241.677 67.4076C241.677 67.589 241.53 67.7361 241.349 67.7361C241.168 67.7361 241.021 67.589 241.021 67.4076C241.021 67.2262 241.168 67.0791 241.349 67.0791C241.53 67.0791 241.677 67.2262 241.677 67.4076Z" fill="#F4F7FF"/>
<path d="M242.474 67.4076C242.474 67.589 242.327 67.7361 242.146 67.7361C241.965 67.7361 241.818 67.589 241.818 67.4076C241.818 67.2262 241.965 67.0791 242.146 67.0791C242.327 67.0791 242.474 67.2262 242.474 67.4076Z" fill="#F4F7FF"/>
<path fill-rule="evenodd" clip-rule="evenodd" d="M235.027 61.4727L237.33 58.1768L239.633 61.4727H235.027Z" fill="#51B44F"/>
<path d="M236.258 61.4727H238.231V66.0869H236.258V61.4727Z" fill="#51B44F"/>
<path d="M257.374 58.4961L247.174 62.4151V62.9252L251.05 64.3044L252.546 67.8643H253.101L257.374 58.4961Z" fill="#51B44F"/>
<path d="M261.739 61.9662C262.053 62.2821 262.551 62.3131 262.89 62.0281C265.762 59.6497 269.933 59.6497 272.812 62.022C273.157 62.3069 273.661 62.2821 273.975 61.9662C274.338 61.6008 274.313 60.9938 273.914 60.6655C270.401 57.773 265.319 57.773 261.801 60.6655C261.401 60.9876 261.37 61.5946 261.739 61.9662ZM266.513 66.7727L267.417 67.6832C267.657 67.9247 268.045 67.9247 268.285 67.6832L269.189 66.7727C269.478 66.4816 269.417 65.9799 269.047 65.7878C268.297 65.3976 267.399 65.3976 266.642 65.7878C266.291 65.9799 266.224 66.4816 266.513 66.7727ZM264.218 64.4623C264.52 64.7658 264.993 64.7968 265.344 64.5429C266.845 63.4713 268.863 63.4713 270.364 64.5429C270.715 64.7906 271.188 64.7658 271.49 64.4623L271.496 64.4561C271.865 64.0845 271.84 63.4527 271.416 63.1492C269.3 61.607 266.414 61.607 264.292 63.1492C263.868 63.4589 263.843 64.0845 264.218 64.4623Z" fill="#51B44F"/>
<path d="M92.613 66.392C92.0668 66.392 91.5813 66.2501 91.1565 65.9663C90.7317 65.6758 90.3979 65.2637 90.1551 64.73C89.9124 64.1896 89.791 63.541 89.791 62.7843C89.791 62.0277 89.9124 61.3825 90.1551 60.8488C90.3979 60.3083 90.7317 59.8963 91.1565 59.6125C91.5813 59.322 92.0668 59.1768 92.613 59.1768C93.1592 59.1768 93.6447 59.322 94.0695 59.6125C94.4943 59.8963 94.8281 60.3083 95.0708 60.8488C95.3203 61.3825 95.4451 62.0277 95.4451 62.7843C95.4451 63.541 95.3203 64.1896 95.0708 64.73C94.8281 65.2637 94.4943 65.6758 94.0695 65.9663C93.6447 66.2501 93.1592 66.392 92.613 66.392ZM92.613 65.7231C93.0311 65.7231 93.3952 65.6116 93.7053 65.3887C94.0155 65.159 94.2583 64.828 94.4336 64.3956C94.6089 63.9565 94.6966 63.4194 94.6966 62.7843C94.6966 62.1493 94.6089 61.6156 94.4336 61.1832C94.2583 60.7441 94.0155 60.4131 93.7053 60.1901C93.3952 59.9604 93.0311 59.8456 92.613 59.8456C92.2084 59.8456 91.8477 59.9604 91.5307 60.1901C91.2138 60.4131 90.9677 60.7441 90.7924 61.1832C90.617 61.6156 90.5294 62.1493 90.5294 62.7843C90.5294 63.4194 90.617 63.9565 90.7924 64.3956C90.9677 64.828 91.2138 65.159 91.5307 65.3887C91.8477 65.6116 92.2084 65.7231 92.613 65.7231Z" fill="black"/>
<path d="M97.6515 66.3319L100.706 59.5626L100.929 59.8868H96.549L96.9232 59.5322V61.2143H96.2051V59.2383H101.404V59.7551L98.4404 66.3319H97.6515Z" fill="black"/>
<path d="M106.306 62.6736H110.049V63.3222H106.306V62.6736ZM106.387 66.3319H105.639V59.2383H110.494V59.8868H106.387V66.3319Z" fill="black"/>
<path d="M113.965 66.3825C113.412 66.3825 112.927 66.2676 112.509 66.0379C112.091 65.8015 111.764 65.4806 111.528 65.0752C111.292 64.6631 111.174 64.1936 111.174 63.6666C111.174 63.1397 111.285 62.6735 111.508 62.2682C111.737 61.8628 112.047 61.5453 112.438 61.3156C112.836 61.0792 113.281 60.9609 113.773 60.9609C114.272 60.9609 114.714 61.0758 115.098 61.3055C115.489 61.5284 115.796 61.8459 116.019 62.2581C116.241 62.6634 116.352 63.1329 116.352 63.6666C116.352 63.7004 116.349 63.7376 116.342 63.7781C116.342 63.8119 116.342 63.849 116.342 63.8896H111.72V63.3525H115.958L115.675 63.5653C115.675 63.1802 115.59 62.839 115.422 62.5418C115.26 62.2378 115.038 62.0013 114.754 61.8324C114.471 61.6635 114.144 61.5791 113.773 61.5791C113.409 61.5791 113.082 61.6635 112.792 61.8324C112.502 62.0013 112.276 62.2378 112.114 62.5418C111.952 62.8458 111.872 63.1937 111.872 63.5856V63.697C111.872 64.1024 111.959 64.4604 112.135 64.7712C112.317 65.0752 112.566 65.315 112.883 65.4907C113.207 65.6596 113.574 65.744 113.986 65.744C114.309 65.744 114.609 65.6866 114.886 65.5718C115.169 65.4569 115.412 65.2813 115.614 65.0448L116.019 65.511C115.783 65.7947 115.486 66.0109 115.129 66.1595C114.778 66.3082 114.39 66.3825 113.965 66.3825Z" fill="black"/>
<path d="M120.556 66.3824C120.09 66.3824 119.672 66.2777 119.301 66.0682C118.93 65.8521 118.637 65.5413 118.421 65.1359C118.206 64.7306 118.098 64.2408 118.098 63.6666C118.098 63.0856 118.206 62.5958 118.421 62.1972C118.644 61.7918 118.94 61.4844 119.311 61.275C119.682 61.0656 120.097 60.9609 120.556 60.9609C121.061 60.9609 121.513 61.0757 121.911 61.3054C122.315 61.5283 122.632 61.8425 122.862 62.2478C123.091 62.6532 123.206 63.1261 123.206 63.6666C123.206 64.2002 123.091 64.6732 122.862 65.0853C122.632 65.4906 122.315 65.8081 121.911 66.0378C121.513 66.2675 121.061 66.3824 120.556 66.3824ZM117.814 66.3317V58.8125H118.533V62.5822L118.431 63.6564L118.502 64.7306V66.3317H117.814ZM120.505 65.744C120.883 65.744 121.22 65.6595 121.516 65.4906C121.813 65.315 122.049 65.0718 122.224 64.761C122.4 64.4435 122.487 64.0786 122.487 63.6666C122.487 63.2477 122.4 62.8829 122.224 62.5721C122.049 62.2613 121.813 62.0215 121.516 61.8526C121.22 61.677 120.883 61.5891 120.505 61.5891C120.127 61.5891 119.787 61.677 119.483 61.8526C119.187 62.0215 118.951 62.2613 118.775 62.5721C118.607 62.8829 118.522 63.2477 118.522 63.6666C118.522 64.0786 118.607 64.4435 118.775 64.761C118.951 65.0718 119.187 65.315 119.483 65.4906C119.787 65.6595 120.127 65.744 120.505 65.744Z" fill="black"/>
<path d="M128.075 66.3319V59.5423L128.399 59.8868H126.406V59.2383H128.803V66.3319H128.075Z" fill="black"/>
<path d="M132.73 66.3927C132.224 66.3927 131.742 66.3116 131.284 66.1495C130.825 65.9806 130.461 65.7576 130.191 65.4806L130.545 64.903C130.768 65.1395 131.071 65.3354 131.456 65.4908C131.847 65.6462 132.268 65.7238 132.72 65.7238C133.32 65.7238 133.775 65.5921 134.086 65.3286C134.403 65.0584 134.561 64.7071 134.561 64.2747C134.561 63.9707 134.487 63.7106 134.338 63.4944C134.197 63.2715 133.954 63.0992 133.61 62.9776C133.266 62.856 132.794 62.7952 132.194 62.7952H130.687L131.051 59.2383H134.925V59.8868H131.344L131.719 59.5322L131.405 62.5115L131.031 62.1467H132.356C133.071 62.1467 133.644 62.2345 134.075 62.4101C134.507 62.5858 134.817 62.8324 135.006 63.1499C135.201 63.4607 135.299 63.8255 135.299 64.2443C135.299 64.6429 135.205 65.0077 135.016 65.3388C134.827 65.663 134.544 65.9198 134.166 66.1089C133.789 66.2981 133.31 66.3927 132.73 66.3927Z" fill="black"/>
<path d="M136.77 62.0655C136.622 62.0655 136.494 62.0115 136.386 61.9034C136.285 61.7953 136.234 61.6635 136.234 61.5082C136.234 61.346 136.285 61.2143 136.386 61.1129C136.494 61.0116 136.622 60.9609 136.77 60.9609C136.919 60.9609 137.044 61.0116 137.145 61.1129C137.253 61.2143 137.307 61.346 137.307 61.5082C137.307 61.6635 137.253 61.7953 137.145 61.9034C137.044 62.0115 136.919 62.0655 136.77 62.0655ZM136.77 66.3825C136.622 66.3825 136.494 66.3284 136.386 66.2203C136.285 66.1122 136.234 65.9805 136.234 65.8251C136.234 65.663 136.285 65.5312 136.386 65.4299C136.494 65.3286 136.622 65.2779 136.77 65.2779C136.919 65.2779 137.044 65.3286 137.145 65.4299C137.253 65.5312 137.307 65.663 137.307 65.8251C137.307 65.9805 137.253 66.1122 137.145 66.2203C137.044 66.3284 136.919 66.3825 136.77 66.3825Z" fill="black"/>
<path d="M139.602 66.3319V59.5423L139.926 59.8868H137.934V59.2383H140.331V66.3319H139.602Z" fill="black"/>
<path d="M143.257 66.3319V59.5423L143.58 59.8868H141.588V59.2383H143.985V66.3319H143.257Z" fill="black"/>
<path d="M161.988 66.5985V59.5049H162.737V66.5985H161.988Z" fill="black"/>
<path d="M165.039 66.5985V59.5049H167.922C168.677 59.5049 169.338 59.6569 169.904 59.9609C170.477 60.2582 170.922 60.6736 171.239 61.2073C171.556 61.741 171.715 62.3558 171.715 63.0517C171.715 63.7475 171.556 64.3623 171.239 64.896C170.922 65.4297 170.477 65.8486 169.904 66.1526C169.338 66.4498 168.677 66.5985 167.922 66.5985H165.039ZM165.788 65.9499H167.881C168.508 65.9499 169.051 65.8283 169.51 65.5851C169.975 65.3351 170.336 64.994 170.592 64.5616C170.848 64.1225 170.976 63.6192 170.976 63.0517C170.976 62.4774 170.848 61.9741 170.592 61.5417C170.336 61.1094 169.975 60.7716 169.51 60.5284C169.051 60.2784 168.508 60.1534 167.881 60.1534H165.788V65.9499Z" fill="black"/>
<path d="M173.315 62.3321C173.167 62.3321 173.039 62.2781 172.931 62.17C172.83 62.0619 172.779 61.9302 172.779 61.7748C172.779 61.6126 172.83 61.4809 172.931 61.3796C173.039 61.2782 173.167 61.2275 173.315 61.2275C173.464 61.2275 173.588 61.2782 173.69 61.3796C173.798 61.4809 173.852 61.6126 173.852 61.7748C173.852 61.9302 173.798 62.0619 173.69 62.17C173.588 62.2781 173.464 62.3321 173.315 62.3321ZM173.315 66.6491C173.167 66.6491 173.039 66.595 172.931 66.4869C172.83 66.3789 172.779 66.2471 172.779 66.0917C172.779 65.9296 172.83 65.7978 172.931 65.6965C173.039 65.5952 173.167 65.5445 173.315 65.5445C173.464 65.5445 173.588 65.5952 173.69 65.6965C173.798 65.7978 173.852 65.9296 173.852 66.0917C173.852 66.2471 173.798 66.3789 173.69 66.4869C173.588 66.595 173.464 66.6491 173.315 66.6491Z" fill="black"/>
<path d="M180.383 66.6586C179.836 66.6586 179.351 66.5167 178.926 66.2329C178.501 65.9424 178.167 65.5303 177.925 64.9966C177.682 64.4562 177.561 63.8076 177.561 63.051C177.561 62.2943 177.682 61.6491 177.925 61.1154C178.167 60.575 178.501 60.1629 178.926 59.8791C179.351 59.5886 179.836 59.4434 180.383 59.4434C180.929 59.4434 181.414 59.5886 181.839 59.8791C182.264 60.1629 182.598 60.575 182.84 61.1154C183.09 61.6491 183.215 62.2943 183.215 63.051C183.215 63.8076 183.09 64.4562 182.84 64.9966C182.598 65.5303 182.264 65.9424 181.839 66.2329C181.414 66.5167 180.929 66.6586 180.383 66.6586ZM180.383 65.9897C180.801 65.9897 181.165 65.8783 181.475 65.6553C181.785 65.4256 182.028 65.0946 182.203 64.6622C182.379 64.2231 182.466 63.686 182.466 63.051C182.466 62.4159 182.379 61.8822 182.203 61.4498C182.028 61.0107 181.785 60.6797 181.475 60.4567C181.165 60.227 180.801 60.1122 180.383 60.1122C179.978 60.1122 179.617 60.227 179.3 60.4567C178.983 60.6797 178.737 61.0107 178.562 61.4498C178.386 61.8822 178.299 62.4159 178.299 63.051C178.299 63.686 178.386 64.2231 178.562 64.6622C178.737 65.0946 178.983 65.4256 179.3 65.6553C179.617 65.8783 179.978 65.9897 180.383 65.9897Z" fill="black"/>
<path d="M183.824 66.5985L186.07 63.68L186.06 64.0347L183.925 61.2783H184.734L186.484 63.5584L186.181 63.5483L187.931 61.2783H188.72L186.565 64.0651L186.575 63.68L188.841 66.5985H188.022L186.171 64.1664L186.454 64.207L184.633 66.5985H183.824Z" fill="black"/>
<path d="M190.855 62.9402H194.598V63.5887H190.855V62.9402ZM190.936 66.5985H190.188V59.5049H195.043V60.1534H190.936V66.5985Z" fill="black"/>
<path d="M197.255 62.9402H200.998V63.5887H197.255V62.9402ZM197.336 66.5985H196.588V59.5049H201.443V60.1534H197.336V66.5985Z" fill="black"/>
<path d="M135.374 106.397V104.846L144.203 96.1822C145.013 95.3916 145.619 94.7027 146.024 94.1148C146.429 93.5068 146.702 92.9393 146.843 92.4124C146.985 91.8853 147.056 91.3889 147.056 90.9228C147.056 89.6865 146.631 88.7137 145.781 88.0042C144.952 87.2949 143.718 86.9402 142.079 86.9402C140.825 86.9402 139.713 87.1327 138.742 87.5178C137.791 87.9029 136.972 88.5007 136.284 89.3114L134.736 87.9738C135.566 87.001 136.628 86.2511 137.922 85.7242C139.217 85.1971 140.663 84.9336 142.261 84.9336C143.698 84.9336 144.942 85.1667 145.994 85.633C147.046 86.0787 147.855 86.7375 148.421 87.609C149.008 88.4805 149.301 89.5041 149.301 90.6796C149.301 91.3685 149.2 92.0476 148.998 92.7164C148.816 93.3852 148.472 94.0947 147.966 94.8444C147.481 95.574 146.762 96.4051 145.812 97.3374L137.71 105.302L137.103 104.451H150.272V106.397H135.374Z" fill="#1B75BA"/>
<path d="M156.716 106.397V86.0284L157.687 87.062H151.709V85.1162H158.9V106.397H156.716Z" fill="#1B75BA"/>
<path d="M165.616 106.549C165.171 106.549 164.787 106.387 164.463 106.063C164.16 105.738 164.008 105.343 164.008 104.877C164.008 104.391 164.16 103.995 164.463 103.691C164.787 103.387 165.171 103.235 165.616 103.235C166.061 103.235 166.435 103.387 166.739 103.691C167.062 103.995 167.224 104.391 167.224 104.877C167.224 105.343 167.062 105.738 166.739 106.063C166.435 106.387 166.061 106.549 165.616 106.549Z" fill="#1B75BA"/>
<path d="M177.047 106.58C175.509 106.58 174.053 106.336 172.677 105.85C171.322 105.343 170.23 104.674 169.4 103.843L170.462 102.111C171.15 102.82 172.071 103.408 173.224 103.874C174.397 104.34 175.671 104.573 177.047 104.573C178.807 104.573 180.152 104.188 181.083 103.418C182.033 102.648 182.509 101.614 182.509 100.317C182.509 99.0197 182.044 97.9861 181.113 97.216C180.203 96.4457 178.756 96.0608 176.774 96.0608H175.257V94.4494L181.811 86.2108L182.114 87.062H170.28V85.1162H183.935V86.6668L177.381 94.9054L176.319 94.2062H177.138C179.687 94.2062 181.588 94.7737 182.843 95.9088C184.117 97.0437 184.754 98.5029 184.754 100.286C184.754 101.482 184.471 102.556 183.905 103.509C183.338 104.461 182.478 105.211 181.325 105.759C180.192 106.306 178.766 106.58 177.047 106.58Z" fill="#1B75BA"/>
<path d="M200.538 94.602C199.647 94.602 198.828 94.3892 198.08 93.9636C197.351 93.5177 196.775 92.9401 196.35 92.2308C195.925 91.5012 195.713 90.6804 195.713 89.7682C195.713 88.8766 195.925 88.0658 196.35 87.3362C196.775 86.6066 197.351 86.029 198.08 85.6034C198.828 85.1778 199.647 84.9648 200.538 84.9648C201.448 84.9648 202.267 85.1778 202.995 85.6034C203.744 86.029 204.331 86.6066 204.755 87.3362C205.18 88.0658 205.393 88.8766 205.393 89.7682C205.393 90.6601 205.18 91.4708 204.755 92.2004C204.331 92.93 203.744 93.5177 202.995 93.9636C202.267 94.3892 201.448 94.602 200.538 94.602ZM200.568 93.3252C201.215 93.3252 201.802 93.1632 202.328 92.8388C202.874 92.5145 203.299 92.0889 203.602 91.562C203.906 91.035 204.057 90.437 204.057 89.7682C204.057 89.0994 203.906 88.5015 203.602 87.9746C203.299 87.4274 202.874 87.0018 202.328 86.6978C201.802 86.3938 201.215 86.2418 200.568 86.2418C199.9 86.2418 199.294 86.3938 198.747 86.6978C198.221 87.0018 197.807 87.4274 197.503 87.9746C197.2 88.5015 197.048 89.0994 197.048 89.7682C197.048 90.437 197.2 91.0452 197.503 91.5924C197.807 92.1193 198.221 92.5449 198.747 92.8692C199.294 93.1732 199.9 93.3252 200.568 93.3252Z" fill="#1B75BA"/>
<path d="M219.889 106.579C218.291 106.579 216.814 106.316 215.459 105.789C214.103 105.242 212.93 104.482 211.939 103.509C210.948 102.536 210.169 101.391 209.602 100.073C209.056 98.7561 208.783 97.3171 208.783 95.7564C208.783 94.1959 209.056 92.7569 209.602 91.4396C210.169 90.1221 210.948 88.977 211.939 88.0042C212.95 87.0314 214.134 86.2815 215.489 85.7546C216.844 85.2074 218.321 84.9336 219.919 84.9336C221.457 84.9336 222.903 85.1971 224.259 85.7242C225.614 86.2307 226.757 87.001 227.687 88.0346L226.261 89.4634C225.391 88.5717 224.431 87.9333 223.379 87.5482C222.327 87.1429 221.194 86.9402 219.98 86.9402C218.706 86.9402 217.522 87.1631 216.43 87.609C215.337 88.0346 214.387 88.6527 213.578 89.4634C212.768 90.2538 212.131 91.1861 211.666 92.2604C211.221 93.3143 210.998 94.4796 210.998 95.7564C210.998 97.0334 211.221 98.2089 211.666 99.283C212.131 100.337 212.768 101.269 213.578 102.08C214.387 102.87 215.337 103.488 216.43 103.934C217.522 104.36 218.706 104.573 219.98 104.573C221.194 104.573 222.327 104.37 223.379 103.965C224.431 103.56 225.391 102.911 226.261 102.019L227.687 103.448C226.757 104.482 225.614 105.262 224.259 105.789C222.903 106.316 221.447 106.579 219.889 106.579Z" fill="#1B75BA"/>
<path d="M121.367 122.948V122.289L126.058 116.412H127.069L122.417 122.289L121.924 122.137H129.042V122.948H121.367ZM126.361 125.279V122.948L126.387 122.137V120.085H127.272V125.279H126.361ZM130.803 125.279L134.622 116.817L134.9 117.223H129.425L129.893 116.779V118.882H128.995V116.412H135.494V117.058L131.789 125.279H130.803ZM137.882 125.279L143.925 116.412H144.671L138.628 125.279H137.882ZM138.565 121.162C138.168 121.162 137.819 121.065 137.515 120.871C137.212 120.668 136.976 120.385 136.807 120.022C136.647 119.659 136.567 119.237 136.567 118.755C136.567 118.274 136.647 117.852 136.807 117.489C136.976 117.125 137.212 116.847 137.515 116.653C137.819 116.45 138.168 116.349 138.565 116.349C138.961 116.349 139.306 116.45 139.601 116.653C139.905 116.847 140.141 117.125 140.309 117.489C140.478 117.852 140.562 118.274 140.562 118.755C140.562 119.237 140.478 119.659 140.309 120.022C140.141 120.385 139.905 120.668 139.601 120.871C139.306 121.065 138.961 121.162 138.565 121.162ZM138.565 120.592C138.978 120.592 139.306 120.432 139.551 120.111C139.803 119.781 139.93 119.329 139.93 118.755C139.93 118.181 139.803 117.733 139.551 117.413C139.306 117.083 138.978 116.919 138.565 116.919C138.143 116.919 137.81 117.083 137.566 117.413C137.321 117.733 137.199 118.181 137.199 118.755C137.199 119.329 137.321 119.781 137.566 120.111C137.81 120.432 138.143 120.592 138.565 120.592ZM143.988 125.342C143.601 125.342 143.255 125.245 142.952 125.051C142.648 124.848 142.412 124.565 142.244 124.202C142.075 123.839 141.991 123.417 141.991 122.935C141.991 122.454 142.075 122.032 142.244 121.669C142.412 121.306 142.648 121.027 142.952 120.833C143.255 120.63 143.601 120.529 143.988 120.529C144.393 120.529 144.743 120.63 145.038 120.833C145.341 121.027 145.573 121.306 145.733 121.669C145.902 122.032 145.986 122.454 145.986 122.935C145.986 123.417 145.902 123.839 145.733 124.202C145.573 124.565 145.341 124.848 145.038 125.051C144.743 125.245 144.393 125.342 143.988 125.342ZM143.988 124.772C144.402 124.772 144.73 124.612 144.975 124.291C145.227 123.962 145.354 123.51 145.354 122.935C145.354 122.361 145.227 121.914 144.975 121.593C144.73 121.263 144.402 121.099 143.988 121.099C143.575 121.099 143.242 121.263 142.99 121.593C142.745 121.914 142.623 122.361 142.623 122.935C142.623 123.51 142.745 123.962 142.99 124.291C143.242 124.612 143.575 124.772 143.988 124.772ZM151.269 125.279V116.412H154.581C155.331 116.412 155.976 116.534 156.516 116.779C157.055 117.016 157.468 117.362 157.755 117.818C158.05 118.265 158.197 118.81 158.197 119.452C158.197 120.077 158.05 120.617 157.755 121.073C157.468 121.521 157.055 121.867 156.516 122.112C155.976 122.349 155.331 122.467 154.581 122.467H151.787L152.204 122.036V125.279H151.269ZM157.312 125.279L155.036 122.061H156.048L158.336 125.279H157.312ZM152.204 122.112L151.787 121.669H154.556C155.441 121.669 156.111 121.474 156.566 121.086C157.03 120.697 157.261 120.153 157.261 119.452C157.261 118.743 157.03 118.194 156.566 117.805C156.111 117.417 155.441 117.223 154.556 117.223H151.787L152.204 116.779V122.112ZM166.879 116.412H167.802V125.279H166.879V116.412ZM161.341 125.279H160.405V116.412H161.341V125.279ZM166.967 121.187H161.24V120.364H166.967V121.187ZM178.067 125.279V116.792L178.471 117.223H175.981V116.412H178.977V125.279H178.067ZM184.62 125.355C183.937 125.355 183.33 125.178 182.799 124.823C182.268 124.46 181.851 123.945 181.548 123.278C181.244 122.602 181.093 121.791 181.093 120.845C181.093 119.9 181.244 119.093 181.548 118.426C181.851 117.75 182.268 117.235 182.799 116.881C183.33 116.517 183.937 116.336 184.62 116.336C185.303 116.336 185.91 116.517 186.441 116.881C186.972 117.235 187.389 117.75 187.693 118.426C188.004 119.093 188.16 119.9 188.16 120.845C188.16 121.791 188.004 122.602 187.693 123.278C187.389 123.945 186.972 124.46 186.441 124.823C185.91 125.178 185.303 125.355 184.62 125.355ZM184.62 124.519C185.143 124.519 185.598 124.379 185.986 124.101C186.373 123.814 186.677 123.4 186.896 122.859C187.115 122.31 187.225 121.639 187.225 120.845C187.225 120.052 187.115 119.384 186.896 118.844C186.677 118.295 186.373 117.881 185.986 117.603C185.598 117.315 185.143 117.172 184.62 117.172C184.114 117.172 183.663 117.315 183.267 117.603C182.871 117.881 182.563 118.295 182.344 118.844C182.125 119.384 182.016 120.052 182.016 120.845C182.016 121.639 182.125 122.31 182.344 122.859C182.563 123.4 182.871 123.814 183.267 124.101C183.663 124.379 184.114 124.519 184.62 124.519ZM192.991 125.355C192.309 125.355 191.702 125.178 191.171 124.823C190.64 124.46 190.222 123.945 189.919 123.278C189.616 122.602 189.464 121.791 189.464 120.845C189.464 119.9 189.616 119.093 189.919 118.426C190.222 117.75 190.64 117.235 191.171 116.881C191.702 116.517 192.309 116.336 192.991 116.336C193.674 116.336 194.281 116.517 194.812 116.881C195.343 117.235 195.76 117.75 196.064 118.426C196.375 119.093 196.531 119.9 196.531 120.845C196.531 121.791 196.375 122.602 196.064 123.278C195.76 123.945 195.343 124.46 194.812 124.823C194.281 125.178 193.674 125.355 192.991 125.355ZM192.991 124.519C193.514 124.519 193.969 124.379 194.357 124.101C194.745 123.814 195.048 123.4 195.267 122.859C195.486 122.31 195.596 121.639 195.596 120.845C195.596 120.052 195.486 119.384 195.267 118.844C195.048 118.295 194.745 117.881 194.357 117.603C193.969 117.315 193.514 117.172 192.991 117.172C192.486 117.172 192.035 117.315 191.638 117.603C191.242 117.881 190.935 118.295 190.716 118.844C190.496 119.384 190.387 120.052 190.387 120.845C190.387 121.639 190.496 122.31 190.716 122.859C190.935 123.4 191.242 123.814 191.638 124.101C192.035 124.379 192.486 124.519 192.991 124.519ZM200.354 125.355C199.713 125.355 199.107 125.254 198.533 125.051C197.969 124.84 197.513 124.561 197.168 124.215L197.61 123.493C197.897 123.788 198.28 124.033 198.761 124.227C199.25 124.422 199.781 124.519 200.354 124.519C201.087 124.519 201.648 124.358 202.035 124.038C202.432 123.717 202.63 123.286 202.63 122.745C202.63 122.205 202.436 121.774 202.048 121.453C201.669 121.133 201.066 120.972 200.24 120.972H199.608V120.301L202.339 116.868L202.465 117.223H197.535V116.412H203.224V117.058L200.493 120.491L200.051 120.199H200.392C201.454 120.199 202.246 120.436 202.769 120.909C203.3 121.382 203.565 121.99 203.565 122.733C203.565 123.231 203.447 123.679 203.211 124.075C202.975 124.472 202.617 124.785 202.137 125.013C201.665 125.241 201.07 125.355 200.354 125.355ZM205.531 125.342C205.345 125.342 205.185 125.275 205.05 125.139C204.924 125.004 204.861 124.84 204.861 124.646C204.861 124.443 204.924 124.278 205.05 124.151C205.185 124.025 205.345 123.962 205.531 123.962C205.716 123.962 205.872 124.025 205.999 124.151C206.133 124.278 206.201 124.443 206.201 124.646C206.201 124.84 206.133 125.004 205.999 125.139C205.872 125.275 205.716 125.342 205.531 125.342ZM208.934 125.279L212.753 116.817L213.031 117.223H207.556L208.024 116.779V118.882H207.126V116.412H213.625V117.058L209.92 125.279H208.934ZM222.116 118.565C222.655 118.565 223.127 118.671 223.532 118.882C223.945 119.085 224.265 119.397 224.493 119.819C224.729 120.241 224.847 120.773 224.847 121.415V125.279H223.949V121.504C223.949 120.803 223.772 120.275 223.418 119.921C223.073 119.557 222.584 119.376 221.952 119.376C221.48 119.376 221.067 119.473 220.713 119.667C220.367 119.853 220.097 120.128 219.903 120.491C219.718 120.845 219.625 121.276 219.625 121.783V125.279H218.727V115.88H219.625V120.453L219.448 120.111C219.659 119.629 219.996 119.253 220.46 118.983C220.923 118.705 221.475 118.565 222.116 118.565ZM227.461 125.279V116.412H230.774C231.524 116.412 232.169 116.534 232.708 116.779C233.248 117.016 233.661 117.362 233.947 117.818C234.242 118.265 234.39 118.81 234.39 119.452C234.39 120.077 234.242 120.617 233.947 121.073C233.661 121.521 233.248 121.867 232.708 122.112C232.169 122.357 231.524 122.479 230.774 122.479H227.98L228.397 122.036V125.279H227.461ZM228.397 122.112L227.98 121.656H230.748C231.633 121.656 232.304 121.466 232.759 121.086C233.222 120.697 233.454 120.153 233.454 119.452C233.454 118.743 233.222 118.194 232.759 117.805C232.304 117.417 231.633 117.223 230.748 117.223H227.98L228.397 116.779V122.112ZM240.321 125.279V123.81L240.283 123.569V121.111C240.283 120.546 240.123 120.111 239.803 119.807C239.491 119.503 239.023 119.351 238.399 119.351C237.969 119.351 237.561 119.422 237.173 119.566C236.785 119.709 236.456 119.9 236.187 120.136L235.782 119.465C236.119 119.177 236.524 118.958 236.996 118.806C237.468 118.646 237.965 118.565 238.488 118.565C239.347 118.565 240.009 118.781 240.473 119.211C240.945 119.633 241.181 120.28 241.181 121.149V125.279H240.321ZM238.033 125.342C237.535 125.342 237.101 125.262 236.73 125.102C236.368 124.933 236.09 124.705 235.896 124.418C235.702 124.122 235.605 123.784 235.605 123.404C235.605 123.058 235.685 122.745 235.845 122.467C236.014 122.18 236.284 121.952 236.654 121.783C237.034 121.605 237.539 121.517 238.172 121.517H240.46V122.188H238.197C237.556 122.188 237.11 122.302 236.857 122.53C236.612 122.758 236.49 123.041 236.49 123.379C236.49 123.759 236.638 124.063 236.933 124.291C237.228 124.519 237.641 124.633 238.172 124.633C238.677 124.633 239.111 124.519 239.474 124.291C239.845 124.054 240.114 123.717 240.283 123.278L240.485 123.898C240.317 124.337 240.022 124.688 239.6 124.95C239.187 125.211 238.665 125.342 238.033 125.342Z" fill="#666666"/>
<path d="M106.394 149.341L103.41 140.474H104.371L107.165 148.822H106.685L109.567 140.474H110.427L113.272 148.822H112.817L115.636 140.474H116.534L113.55 149.341H112.564L109.846 141.424H110.098L107.367 149.341H106.394ZM118.249 149.341V140.474H119.185V149.341H118.249ZM122.064 149.341V140.474H122.836L128.942 148.176H128.538V140.474H129.461V149.341H128.689L122.595 141.64H123V149.341H122.064ZM132.349 149.341V140.474H135.953C136.897 140.474 137.723 140.664 138.431 141.044C139.147 141.416 139.703 141.935 140.1 142.603C140.496 143.27 140.694 144.038 140.694 144.908C140.694 145.778 140.496 146.546 140.1 147.213C139.703 147.881 139.147 148.404 138.431 148.784C137.723 149.156 136.897 149.341 135.953 149.341H132.349ZM133.285 148.531H135.902C136.686 148.531 137.364 148.379 137.938 148.075C138.519 147.762 138.97 147.336 139.29 146.795C139.611 146.246 139.771 145.617 139.771 144.908C139.771 144.19 139.611 143.561 139.29 143.02C138.97 142.48 138.519 142.058 137.938 141.754C137.364 141.441 136.686 141.285 135.902 141.285H133.285V148.531ZM147.444 151.799C146.98 151.03 146.618 150.144 146.357 149.139C146.104 148.125 145.977 147.036 145.977 145.871C145.977 144.705 146.104 143.616 146.357 142.603C146.618 141.581 146.98 140.694 147.444 139.942H148.304C147.806 140.812 147.44 141.737 147.204 142.716C146.976 143.688 146.862 144.739 146.862 145.871C146.862 147.002 146.976 148.058 147.204 149.037C147.44 150.009 147.806 150.929 148.304 151.799H147.444ZM150.265 149.341V140.474H151.036L157.143 148.176H156.738V140.474H157.661V149.341H156.89L150.796 141.64H151.2V149.341H150.265ZM160.474 151.799H159.614C160.12 150.929 160.486 150.009 160.714 149.037C160.95 148.058 161.068 147.002 161.068 145.871C161.068 144.739 160.95 143.688 160.714 142.716C160.486 141.737 160.12 140.812 159.614 139.942H160.474C160.954 140.694 161.321 141.581 161.574 142.603C161.827 143.616 161.953 144.705 161.953 145.871C161.953 147.036 161.827 148.125 161.574 149.139C161.321 150.144 160.954 151.03 160.474 151.799Z" fill="#666666"/>
<path fill-rule="evenodd" clip-rule="evenodd" d="M92.6279 140.841L96.4759 144.673C96.712 144.908 96.712 145.289 96.4759 145.524L92.6279 149.356C92.3918 149.591 92.0089 149.591 91.7728 149.356C91.5367 149.121 91.5367 148.739 91.7728 148.504L95.1932 145.099L91.7728 141.693C91.5367 141.458 91.5367 141.076 91.7728 140.841C92.0089 140.606 92.3918 140.606 92.6279 140.841Z" fill="#666666"/>
<path d="M106.357 162.631C105.811 162.631 105.325 162.49 104.901 162.206C104.476 161.915 104.142 161.503 103.899 160.969C103.657 160.429 103.535 159.781 103.535 159.024C103.535 158.267 103.657 157.622 103.899 157.088C104.142 156.548 104.476 156.136 104.901 155.852C105.325 155.561 105.811 155.416 106.357 155.416C106.903 155.416 107.389 155.561 107.814 155.852C108.238 156.136 108.572 156.548 108.815 157.088C109.064 157.622 109.189 158.267 109.189 159.024C109.189 159.781 109.064 160.429 108.815 160.969C108.572 161.503 108.238 161.915 107.814 162.206C107.389 162.49 106.903 162.631 106.357 162.631ZM106.357 161.963C106.775 161.963 107.139 161.851 107.45 161.628C107.76 161.399 108.002 161.068 108.178 160.635C108.353 160.196 108.441 159.659 108.441 159.024C108.441 158.389 108.353 157.855 108.178 157.423C108.002 156.984 107.76 156.653 107.45 156.43C107.139 156.2 106.775 156.085 106.357 156.085C105.953 156.085 105.592 156.2 105.275 156.43C104.958 156.653 104.712 156.984 104.536 157.423C104.361 157.855 104.274 158.389 104.274 159.024C104.274 159.659 104.361 160.196 104.536 160.635C104.712 161.068 104.958 161.399 105.275 161.628C105.592 161.851 105.953 161.963 106.357 161.963ZM110.67 162.621C110.521 162.621 110.393 162.567 110.285 162.459C110.184 162.351 110.133 162.219 110.133 162.064C110.133 161.902 110.184 161.77 110.285 161.669C110.393 161.567 110.521 161.517 110.67 161.517C110.818 161.517 110.943 161.567 111.044 161.669C111.152 161.77 111.206 161.902 111.206 162.064C111.206 162.219 111.152 162.351 111.044 162.459C110.943 162.567 110.818 162.621 110.67 162.621ZM114.98 162.631C114.434 162.631 113.949 162.49 113.524 162.206C113.099 161.915 112.765 161.503 112.522 160.969C112.28 160.429 112.158 159.781 112.158 159.024C112.158 158.267 112.28 157.622 112.522 157.088C112.765 156.548 113.099 156.136 113.524 155.852C113.949 155.561 114.434 155.416 114.98 155.416C115.526 155.416 116.012 155.561 116.437 155.852C116.861 156.136 117.195 156.548 117.438 157.088C117.688 157.622 117.812 158.267 117.812 159.024C117.812 159.781 117.688 160.429 117.438 160.969C117.195 161.503 116.861 161.915 116.437 162.206C116.012 162.49 115.526 162.631 114.98 162.631ZM114.98 161.963C115.398 161.963 115.762 161.851 116.073 161.628C116.383 161.399 116.625 161.068 116.801 160.635C116.976 160.196 117.064 159.659 117.064 159.024C117.064 158.389 116.976 157.855 116.801 157.423C116.625 156.984 116.383 156.653 116.073 156.43C115.762 156.2 115.398 156.085 114.98 156.085C114.576 156.085 114.215 156.2 113.898 156.43C113.581 156.653 113.335 156.984 113.16 157.423C112.984 157.855 112.897 158.389 112.897 159.024C112.897 159.659 112.984 160.196 113.16 160.635C113.335 161.068 113.581 161.399 113.898 161.628C114.215 161.851 114.576 161.963 114.98 161.963ZM128.613 157.2C129.044 157.2 129.419 157.284 129.736 157.453C130.059 157.615 130.309 157.865 130.484 158.203C130.666 158.541 130.757 158.966 130.757 159.48V162.571H130.039V159.551C130.039 158.99 129.904 158.568 129.634 158.284C129.371 157.994 128.997 157.848 128.512 157.848C128.148 157.848 127.831 157.926 127.561 158.081C127.298 158.23 127.092 158.45 126.944 158.74C126.802 159.024 126.732 159.368 126.732 159.774V162.571H126.013V159.551C126.013 158.99 125.879 158.568 125.609 158.284C125.339 157.994 124.962 157.848 124.476 157.848C124.119 157.848 123.805 157.926 123.535 158.081C123.266 158.23 123.057 158.45 122.908 158.74C122.767 159.024 122.696 159.368 122.696 159.774V162.571H121.978V157.25H122.666V158.689L122.554 158.436C122.716 158.051 122.976 157.75 123.333 157.534C123.697 157.311 124.125 157.2 124.618 157.2C125.137 157.2 125.578 157.332 125.943 157.595C126.307 157.852 126.543 158.24 126.651 158.76L126.367 158.649C126.523 158.217 126.796 157.869 127.187 157.605C127.585 157.335 128.06 157.2 128.613 157.2ZM131.451 163.584L134.788 154.038H135.446L132.108 163.584H131.451ZM136.827 162.621C136.389 162.621 135.974 162.561 135.583 162.439C135.192 162.311 134.885 162.152 134.663 161.963L134.987 161.395C135.202 161.557 135.479 161.699 135.816 161.821C136.153 161.936 136.507 161.993 136.878 161.993C137.384 161.993 137.748 161.915 137.97 161.76C138.193 161.598 138.304 161.385 138.304 161.121C138.304 160.926 138.24 160.774 138.112 160.665C137.991 160.551 137.829 160.466 137.626 160.412C137.424 160.351 137.198 160.301 136.949 160.26C136.699 160.22 136.45 160.172 136.2 160.118C135.958 160.064 135.735 159.987 135.533 159.885C135.33 159.777 135.165 159.632 135.037 159.449C134.916 159.267 134.855 159.024 134.855 158.72C134.855 158.429 134.936 158.169 135.098 157.94C135.26 157.71 135.496 157.531 135.806 157.402C136.123 157.267 136.507 157.2 136.959 157.2C137.303 157.2 137.647 157.247 137.991 157.342C138.335 157.429 138.618 157.548 138.84 157.696L138.527 158.274C138.291 158.112 138.038 157.997 137.768 157.929C137.498 157.855 137.229 157.818 136.959 157.818C136.48 157.818 136.126 157.902 135.897 158.071C135.674 158.233 135.563 158.443 135.563 158.7C135.563 158.902 135.624 159.061 135.745 159.176C135.873 159.291 136.039 159.382 136.241 159.449C136.45 159.51 136.676 159.561 136.918 159.601C137.168 159.642 137.414 159.693 137.657 159.753C137.906 159.808 138.132 159.885 138.335 159.987C138.544 160.081 138.709 160.22 138.83 160.402C138.958 160.578 139.022 160.811 139.022 161.101C139.022 161.412 138.935 161.682 138.759 161.912C138.591 162.135 138.341 162.311 138.011 162.439C137.687 162.561 137.293 162.621 136.827 162.621Z" fill="#666666"/>
<path d="M108.265 180.454C107.591 180.454 106.967 180.344 106.394 180.124C105.829 179.896 105.336 179.58 104.915 179.174C104.502 178.769 104.177 178.292 103.941 177.743C103.713 177.194 103.6 176.594 103.6 175.944C103.6 175.294 103.713 174.694 103.941 174.145C104.177 173.597 104.506 173.119 104.927 172.714C105.349 172.309 105.842 171.996 106.406 171.777C106.98 171.549 107.603 171.435 108.278 171.435C108.952 171.435 109.567 171.54 110.123 171.751C110.688 171.962 111.169 172.283 111.565 172.714L110.983 173.309C110.612 172.938 110.204 172.672 109.757 172.511C109.31 172.351 108.83 172.271 108.316 172.271C107.768 172.271 107.262 172.364 106.798 172.549C106.343 172.727 105.943 172.984 105.597 173.322C105.26 173.651 104.995 174.04 104.801 174.487C104.615 174.927 104.523 175.412 104.523 175.944C104.523 176.468 104.615 176.953 104.801 177.401C104.995 177.848 105.26 178.241 105.597 178.579C105.943 178.908 106.343 179.166 106.798 179.352C107.262 179.529 107.763 179.617 108.303 179.617C108.809 179.617 109.285 179.541 109.732 179.389C110.187 179.237 110.604 178.98 110.983 178.617L111.514 179.326C111.093 179.698 110.6 179.981 110.035 180.175C109.47 180.361 108.88 180.454 108.265 180.454ZM110.617 179.212V175.944H111.514V179.326L110.617 179.212ZM117.728 180.454C116.598 180.454 115.709 180.129 115.06 179.478C114.411 178.828 114.086 177.865 114.086 176.59V171.511H115.022V176.552C115.022 177.599 115.258 178.372 115.73 178.87C116.202 179.368 116.868 179.617 117.728 179.617C118.596 179.617 119.266 179.368 119.738 178.87C120.21 178.372 120.446 177.599 120.446 176.552V171.511H121.356V176.59C121.356 177.865 121.032 178.828 120.383 179.478C119.742 180.129 118.857 180.454 117.728 180.454ZM126.616 180.454C125.958 180.454 125.326 180.348 124.719 180.137C124.121 179.917 123.657 179.639 123.328 179.301L123.695 178.579C124.007 178.883 124.424 179.14 124.947 179.352C125.478 179.554 126.034 179.656 126.616 179.656C127.172 179.656 127.623 179.588 127.968 179.453C128.323 179.309 128.58 179.119 128.74 178.883C128.908 178.646 128.993 178.385 128.993 178.097C128.993 177.751 128.892 177.473 128.689 177.261C128.495 177.05 128.238 176.886 127.918 176.767C127.598 176.641 127.244 176.531 126.856 176.438C126.468 176.345 126.081 176.248 125.693 176.147C125.305 176.037 124.947 175.893 124.618 175.716C124.298 175.539 124.037 175.307 123.834 175.019C123.64 174.724 123.543 174.34 123.543 173.867C123.543 173.428 123.657 173.026 123.885 172.663C124.121 172.292 124.479 171.996 124.959 171.777C125.44 171.549 126.055 171.435 126.805 171.435C127.303 171.435 127.796 171.506 128.285 171.65C128.774 171.785 129.195 171.975 129.549 172.22L129.233 172.967C128.853 172.714 128.449 172.528 128.019 172.41C127.598 172.292 127.189 172.233 126.793 172.233C126.262 172.233 125.823 172.305 125.478 172.448C125.132 172.592 124.875 172.786 124.707 173.031C124.546 173.267 124.466 173.537 124.466 173.841C124.466 174.188 124.563 174.466 124.757 174.677C124.959 174.889 125.221 175.053 125.541 175.171C125.87 175.29 126.228 175.395 126.616 175.488C127.003 175.581 127.387 175.682 127.766 175.792C128.154 175.902 128.508 176.045 128.828 176.223C129.157 176.392 129.418 176.62 129.612 176.907C129.814 177.194 129.915 177.57 129.915 178.034C129.915 178.465 129.798 178.866 129.562 179.238C129.326 179.601 128.963 179.896 128.474 180.124C127.994 180.344 127.374 180.454 126.616 180.454ZM133.55 180.378V172.321H130.44V171.511H137.596V172.321H134.486V180.378H133.55Z" fill="#666666"/>
<path fill-rule="evenodd" clip-rule="evenodd" d="M92.6279 171.878L96.4759 175.71C96.712 175.945 96.712 176.326 96.4759 176.561L92.6279 180.393C92.3918 180.628 92.0089 180.628 91.7728 180.393C91.5367 180.158 91.5367 179.777 91.7728 179.541L95.1932 176.136L91.7728 172.73C91.5367 172.495 91.5367 172.114 91.7728 171.878C92.0089 171.643 92.3918 171.643 92.6279 171.878Z" fill="#666666"/>
<path d="M106.357 194.297C105.811 194.297 105.325 194.156 104.901 193.872C104.476 193.581 104.142 193.169 103.899 192.635C103.657 192.095 103.535 191.447 103.535 190.69C103.535 189.933 103.657 189.288 103.899 188.754C104.142 188.214 104.476 187.802 104.901 187.518C105.325 187.227 105.811 187.082 106.357 187.082C106.903 187.082 107.389 187.227 107.814 187.518C108.238 187.802 108.572 188.214 108.815 188.754C109.064 189.288 109.189 189.933 109.189 190.69C109.189 191.447 109.064 192.095 108.815 192.635C108.572 193.169 108.238 193.581 107.814 193.872C107.389 194.156 106.903 194.297 106.357 194.297ZM106.357 193.629C106.775 193.629 107.139 193.517 107.45 193.294C107.76 193.064 108.002 192.733 108.178 192.301C108.353 191.862 108.441 191.325 108.441 190.69C108.441 190.055 108.353 189.521 108.178 189.089C108.002 188.65 107.76 188.319 107.45 188.096C107.139 187.866 106.775 187.751 106.357 187.751C105.953 187.751 105.592 187.866 105.275 188.096C104.958 188.319 104.712 188.65 104.536 189.089C104.361 189.521 104.274 190.055 104.274 190.69C104.274 191.325 104.361 191.862 104.536 192.301C104.712 192.733 104.958 193.064 105.275 193.294C105.592 193.517 105.953 193.629 106.357 193.629ZM110.67 194.287C110.521 194.287 110.393 194.233 110.285 194.125C110.184 194.017 110.133 193.885 110.133 193.73C110.133 193.568 110.184 193.436 110.285 193.335C110.393 193.233 110.521 193.183 110.67 193.183C110.818 193.183 110.943 193.233 111.044 193.335C111.152 193.436 111.206 193.568 111.206 193.73C111.206 193.885 111.152 194.017 111.044 194.125C110.943 194.233 110.818 194.287 110.67 194.287ZM114.98 194.297C114.434 194.297 113.949 194.156 113.524 193.872C113.099 193.581 112.765 193.169 112.522 192.635C112.28 192.095 112.158 191.447 112.158 190.69C112.158 189.933 112.28 189.288 112.522 188.754C112.765 188.214 113.099 187.802 113.524 187.518C113.949 187.227 114.434 187.082 114.98 187.082C115.526 187.082 116.012 187.227 116.437 187.518C116.861 187.802 117.195 188.214 117.438 188.754C117.688 189.288 117.812 189.933 117.812 190.69C117.812 191.447 117.688 192.095 117.438 192.635C117.195 193.169 116.861 193.581 116.437 193.872C116.012 194.156 115.526 194.297 114.98 194.297ZM114.98 193.629C115.398 193.629 115.762 193.517 116.073 193.294C116.383 193.064 116.625 192.733 116.801 192.301C116.976 191.862 117.064 191.325 117.064 190.69C117.064 190.055 116.976 189.521 116.801 189.089C116.625 188.65 116.383 188.319 116.073 188.096C115.762 187.866 115.398 187.751 114.98 187.751C114.576 187.751 114.215 187.866 113.898 188.096C113.581 188.319 113.335 188.65 113.16 189.089C112.984 189.521 112.897 190.055 112.897 190.69C112.897 191.325 112.984 191.862 113.16 192.301C113.335 192.733 113.581 193.064 113.898 193.294C114.215 193.517 114.576 193.629 114.98 193.629ZM128.613 188.866C129.044 188.866 129.419 188.95 129.736 189.119C130.059 189.281 130.309 189.531 130.484 189.869C130.666 190.207 130.757 190.632 130.757 191.146V194.237H130.039V191.217C130.039 190.656 129.904 190.234 129.634 189.95C129.371 189.66 128.997 189.514 128.512 189.514C128.148 189.514 127.831 189.592 127.561 189.748C127.298 189.896 127.092 190.116 126.944 190.406C126.802 190.69 126.732 191.034 126.732 191.44V194.237H126.013V191.217C126.013 190.656 125.879 190.234 125.609 189.95C125.339 189.66 124.962 189.514 124.476 189.514C124.119 189.514 123.805 189.592 123.535 189.748C123.266 189.896 123.057 190.116 122.908 190.406C122.767 190.69 122.696 191.034 122.696 191.44V194.237H121.978V188.916H122.666V190.355L122.554 190.102C122.716 189.717 122.976 189.416 123.333 189.2C123.697 188.977 124.125 188.866 124.618 188.866C125.137 188.866 125.578 188.998 125.943 189.261C126.307 189.518 126.543 189.906 126.651 190.426L126.367 190.315C126.523 189.883 126.796 189.535 127.187 189.271C127.585 189.001 128.06 188.866 128.613 188.866ZM131.451 195.25L134.788 185.704H135.446L132.108 195.25H131.451ZM136.827 194.287C136.389 194.287 135.974 194.227 135.583 194.105C135.192 193.976 134.885 193.818 134.663 193.629L134.987 193.061C135.202 193.223 135.479 193.365 135.816 193.487C136.153 193.602 136.507 193.659 136.878 193.659C137.384 193.659 137.748 193.581 137.97 193.426C138.193 193.264 138.304 193.051 138.304 192.788C138.304 192.592 138.24 192.44 138.112 192.331C137.991 192.217 137.829 192.132 137.626 192.078C137.424 192.017 137.198 191.967 136.949 191.926C136.699 191.886 136.45 191.838 136.2 191.784C135.958 191.73 135.735 191.653 135.533 191.551C135.33 191.443 135.165 191.298 135.037 191.116C134.916 190.933 134.855 190.69 134.855 190.386C134.855 190.095 134.936 189.835 135.098 189.606C135.26 189.376 135.496 189.197 135.806 189.068C136.123 188.933 136.507 188.866 136.959 188.866C137.303 188.866 137.647 188.913 137.991 189.008C138.335 189.095 138.618 189.214 138.84 189.362L138.527 189.94C138.291 189.778 138.038 189.663 137.768 189.596C137.498 189.521 137.229 189.484 136.959 189.484C136.48 189.484 136.126 189.568 135.897 189.737C135.674 189.9 135.563 190.109 135.563 190.366C135.563 190.568 135.624 190.727 135.745 190.842C135.873 190.957 136.039 191.048 136.241 191.116C136.45 191.176 136.676 191.227 136.918 191.268C137.168 191.308 137.414 191.359 137.657 191.42C137.906 191.474 138.132 191.551 138.335 191.653C138.544 191.747 138.709 191.886 138.83 192.068C138.958 192.244 139.022 192.477 139.022 192.767C139.022 193.078 138.935 193.348 138.759 193.578C138.591 193.801 138.341 193.976 138.011 194.105C137.687 194.227 137.293 194.287 136.827 194.287Z" fill="#666666"/>
<path d="M209.102 149.341V140.474H212.414C213.164 140.474 213.809 140.596 214.348 140.841C214.888 141.077 215.301 141.424 215.587 141.88C215.883 142.327 216.03 142.872 216.03 143.514C216.03 144.139 215.883 144.679 215.587 145.135C215.301 145.583 214.888 145.929 214.348 146.174C213.809 146.41 213.164 146.528 212.414 146.528H209.62L210.037 146.098V149.341H209.102ZM215.145 149.341L212.869 146.123H213.881L216.169 149.341H215.145ZM210.037 146.174L209.62 145.73H212.389C213.274 145.73 213.944 145.536 214.399 145.148C214.863 144.759 215.094 144.215 215.094 143.514C215.094 142.804 214.863 142.255 214.399 141.867C213.944 141.478 213.274 141.284 212.389 141.284H209.62L210.037 140.841V146.174ZM216.822 149.341L220.868 140.474H221.791L225.837 149.341H224.851L221.134 141.018H221.513L217.796 149.341H216.822ZM218.415 146.972L218.693 146.212H223.839L224.117 146.972H218.415ZM227.301 149.341V140.474H228.236V149.341H227.301ZM231.116 149.341V140.474H231.887L237.994 148.175H237.589V140.474H238.512V149.341H237.741L231.647 141.639H232.052V149.341H231.116Z" fill="#666666"/>
<path fill-rule="evenodd" clip-rule="evenodd" d="M197.347 140.841L201.195 144.673C201.431 144.908 201.431 145.289 201.195 145.524L197.347 149.356C197.111 149.591 196.728 149.591 196.491 149.356C196.255 149.121 196.255 148.739 196.491 148.504L199.912 145.099L196.491 141.693C196.255 141.458 196.255 141.076 196.491 140.841C196.728 140.606 197.111 140.606 197.347 140.841Z" fill="#666666"/>
<path d="M211.004 162.631C210.457 162.631 209.972 162.489 209.547 162.206C209.122 161.915 208.788 161.503 208.546 160.969C208.303 160.429 208.182 159.781 208.182 159.024C208.182 158.267 208.303 157.622 208.546 157.088C208.788 156.548 209.122 156.136 209.547 155.852C209.972 155.561 210.457 155.416 211.004 155.416C211.55 155.416 212.035 155.561 212.46 155.852C212.885 156.136 213.219 156.548 213.461 157.088C213.711 157.622 213.836 158.267 213.836 159.024C213.836 159.781 213.711 160.429 213.461 160.969C213.219 161.503 212.885 161.915 212.46 162.206C212.035 162.489 211.55 162.631 211.004 162.631ZM211.004 161.963C211.422 161.963 211.786 161.851 212.096 161.628C212.406 161.398 212.649 161.067 212.824 160.635C212.999 160.196 213.087 159.659 213.087 159.024C213.087 158.389 212.999 157.855 212.824 157.423C212.649 156.984 212.406 156.652 212.096 156.43C211.786 156.2 211.422 156.085 211.004 156.085C210.599 156.085 210.238 156.2 209.921 156.43C209.604 156.652 209.358 156.984 209.183 157.423C209.008 157.855 208.92 158.389 208.92 159.024C208.92 159.659 209.008 160.196 209.183 160.635C209.358 161.067 209.604 161.398 209.921 161.628C210.238 161.851 210.599 161.963 211.004 161.963ZM215.316 162.621C215.168 162.621 215.04 162.567 214.932 162.459C214.831 162.351 214.78 162.219 214.78 162.064C214.78 161.902 214.831 161.77 214.932 161.669C215.04 161.567 215.168 161.517 215.316 161.517C215.464 161.517 215.589 161.567 215.69 161.669C215.798 161.77 215.852 161.902 215.852 162.064C215.852 162.219 215.798 162.351 215.69 162.459C215.589 162.567 215.464 162.621 215.316 162.621ZM219.627 162.631C219.08 162.631 218.595 162.489 218.17 162.206C217.745 161.915 217.411 161.503 217.169 160.969C216.926 160.429 216.805 159.781 216.805 159.024C216.805 158.267 216.926 157.622 217.169 157.088C217.411 156.548 217.745 156.136 218.17 155.852C218.595 155.561 219.08 155.416 219.627 155.416C220.173 155.416 220.658 155.561 221.083 155.852C221.508 156.136 221.842 156.548 222.084 157.088C222.334 157.622 222.459 158.267 222.459 159.024C222.459 159.781 222.334 160.429 222.084 160.969C221.842 161.503 221.508 161.915 221.083 162.206C220.658 162.489 220.173 162.631 219.627 162.631ZM219.627 161.963C220.045 161.963 220.409 161.851 220.719 161.628C221.029 161.398 221.272 161.067 221.447 160.635C221.623 160.196 221.71 159.659 221.71 159.024C221.71 158.389 221.623 157.855 221.447 157.423C221.272 156.984 221.029 156.652 220.719 156.43C220.409 156.2 220.045 156.085 219.627 156.085C219.222 156.085 218.861 156.2 218.544 156.43C218.227 156.652 217.981 156.984 217.806 157.423C217.631 157.855 217.543 158.389 217.543 159.024C217.543 159.659 217.631 160.196 217.806 160.635C217.981 161.067 218.227 161.398 218.544 161.628C218.861 161.851 219.222 161.963 219.627 161.963ZM230.612 157.2C231.044 157.2 231.418 157.284 231.735 157.453C232.058 157.615 232.308 157.865 232.483 158.203C232.665 158.541 232.756 158.966 232.756 159.48V162.571H232.038V159.551C232.038 158.99 231.903 158.568 231.634 158.284C231.371 157.993 230.997 157.848 230.511 157.848C230.147 157.848 229.83 157.926 229.56 158.081C229.297 158.23 229.092 158.45 228.943 158.74C228.802 159.024 228.731 159.368 228.731 159.774V162.571H228.013V159.551C228.013 158.99 227.878 158.568 227.608 158.284C227.338 157.993 226.961 157.848 226.475 157.848C226.118 157.848 225.804 157.926 225.535 158.081C225.265 158.23 225.056 158.45 224.907 158.74C224.766 159.024 224.695 159.368 224.695 159.774V162.571H223.977V157.25H224.665V158.689L224.553 158.436C224.715 158.051 224.975 157.75 225.332 157.534C225.696 157.311 226.125 157.2 226.617 157.2C227.136 157.2 227.578 157.332 227.942 157.595C228.306 157.852 228.542 158.24 228.65 158.76L228.367 158.649C228.522 158.217 228.795 157.868 229.186 157.605C229.584 157.335 230.059 157.2 230.612 157.2ZM241.339 157.2C241.771 157.2 242.145 157.284 242.462 157.453C242.785 157.615 243.035 157.865 243.21 158.203C243.392 158.541 243.483 158.966 243.483 159.48V162.571H242.765V159.551C242.765 158.99 242.63 158.568 242.361 158.284C242.098 157.993 241.723 157.848 241.238 157.848C240.874 157.848 240.557 157.926 240.287 158.081C240.024 158.23 239.819 158.45 239.67 158.74C239.528 159.024 239.458 159.368 239.458 159.774V162.571H238.74V159.551C238.74 158.99 238.605 158.568 238.335 158.284C238.065 157.993 237.688 157.848 237.202 157.848C236.845 157.848 236.531 157.926 236.262 158.081C235.992 158.23 235.783 158.45 235.634 158.74C235.493 159.024 235.422 159.368 235.422 159.774V162.571H234.704V157.25H235.392V158.689L235.281 158.436C235.442 158.051 235.702 157.75 236.059 157.534C236.423 157.311 236.852 157.2 237.344 157.2C237.863 157.2 238.305 157.332 238.669 157.595C239.033 157.852 239.269 158.24 239.377 158.76L239.094 158.649C239.249 158.217 239.522 157.868 239.913 157.605C240.311 157.335 240.786 157.2 241.339 157.2ZM244.177 163.584L247.514 154.038H248.172L244.834 163.584H244.177ZM251.53 157.2C251.961 157.2 252.339 157.284 252.662 157.453C252.993 157.615 253.249 157.865 253.431 158.203C253.62 158.541 253.714 158.966 253.714 159.48V162.571H252.996V159.551C252.996 158.99 252.855 158.568 252.571 158.284C252.295 157.993 251.904 157.848 251.398 157.848C251.02 157.848 250.69 157.926 250.407 158.081C250.13 158.23 249.915 158.45 249.759 158.74C249.611 159.024 249.537 159.368 249.537 159.774V162.571H248.819V155.051H249.537V158.71L249.395 158.436C249.564 158.051 249.834 157.75 250.205 157.534C250.575 157.311 251.017 157.2 251.53 157.2ZM255.654 162.571V157.25H256.342V158.7L256.271 158.446C256.419 158.041 256.669 157.733 257.02 157.524C257.37 157.308 257.805 157.2 258.324 157.2V157.899C258.297 157.899 258.27 157.899 258.243 157.899C258.217 157.892 258.19 157.889 258.163 157.889C257.603 157.889 257.165 158.061 256.848 158.406C256.531 158.743 256.372 159.226 256.372 159.855V162.571H255.654Z" fill="#666666"/>
<path d="M212.672 180.454C211.543 180.454 210.654 180.129 210.005 179.479C209.356 178.828 209.031 177.866 209.031 176.59V171.511H209.967V176.552C209.967 177.599 210.203 178.372 210.675 178.87C211.147 179.369 211.813 179.618 212.672 179.618C213.541 179.618 214.211 179.369 214.683 178.87C215.155 178.372 215.391 177.599 215.391 176.552V171.511H216.301V176.59C216.301 177.866 215.977 178.828 215.328 179.479C214.687 180.129 213.802 180.454 212.672 180.454ZM221.636 180.378L217.717 171.511H218.728L222.395 179.859H221.839L225.531 171.511H226.479L222.559 180.378H221.636ZM231.257 180.378V171.511H232.193V180.378H231.257ZM235.072 180.378V171.511H235.844L241.95 179.212H241.546V171.511H242.469V180.378H241.698L235.603 172.676H236.008V180.378H235.072ZM245.357 180.378V171.511H248.961C249.905 171.511 250.731 171.701 251.439 172.081C252.155 172.452 252.712 172.972 253.108 173.639C253.504 174.306 253.702 175.074 253.702 175.944C253.702 176.814 253.504 177.583 253.108 178.25C252.712 178.917 252.155 179.44 251.439 179.82C250.731 180.192 249.905 180.378 248.961 180.378H245.357ZM246.293 179.567H248.91C249.694 179.567 250.373 179.415 250.946 179.111C251.527 178.799 251.978 178.372 252.299 177.832C252.619 177.283 252.779 176.654 252.779 175.944C252.779 175.226 252.619 174.597 252.299 174.057C251.978 173.516 251.527 173.094 250.946 172.79C250.373 172.478 249.694 172.321 248.91 172.321H246.293V179.567ZM256.637 175.476H261.315V176.274H256.637V175.476ZM256.739 179.567H262.061V180.378H255.803V171.511H261.872V172.321H256.739V179.567ZM262.923 180.378L266.552 175.463V176.185L263.138 171.511H264.213L267.083 175.412L266.665 175.425L269.536 171.511H270.547L267.171 176.122V175.463L270.787 180.378H269.7L266.64 176.21H267.032L263.998 180.378H262.923Z" fill="#666666"/>
<path fill-rule="evenodd" clip-rule="evenodd" d="M197.352 171.878L201.2 175.71C201.436 175.945 201.436 176.326 201.2 176.561L197.352 180.393C197.116 180.628 196.734 180.628 196.497 180.393C196.261 180.158 196.261 179.777 196.497 179.541L199.918 176.136L196.497 172.73C196.261 172.495 196.261 172.114 196.497 171.878C196.734 171.643 197.116 171.643 197.352 171.878Z" fill="#666666"/>
<path d="M210.795 194.3C210.248 194.3 209.763 194.158 209.338 193.875C208.913 193.584 208.58 193.172 208.337 192.638C208.094 192.098 207.973 191.449 207.973 190.693C207.973 189.936 208.094 189.291 208.337 188.757C208.58 188.217 208.913 187.804 209.338 187.521C209.763 187.23 210.248 187.085 210.795 187.085C211.341 187.085 211.826 187.23 212.251 187.521C212.676 187.804 213.01 188.217 213.252 188.757C213.502 189.291 213.627 189.936 213.627 190.693C213.627 191.449 213.502 192.098 213.252 192.638C213.01 193.172 212.676 193.584 212.251 193.875C211.826 194.158 211.341 194.3 210.795 194.3ZM210.795 193.631C211.213 193.631 211.577 193.52 211.887 193.297C212.197 193.067 212.44 192.736 212.615 192.304C212.791 191.865 212.878 191.328 212.878 190.693C212.878 190.058 212.791 189.524 212.615 189.092C212.44 188.652 212.197 188.321 211.887 188.098C211.577 187.869 211.213 187.754 210.795 187.754C210.39 187.754 210.029 187.869 209.712 188.098C209.395 188.321 209.149 188.652 208.974 189.092C208.799 189.524 208.711 190.058 208.711 190.693C208.711 191.328 208.799 191.865 208.974 192.304C209.149 192.736 209.395 193.067 209.712 193.297C210.029 193.52 210.39 193.631 210.795 193.631Z" fill="#666666"/>
</g>
<defs>
<filter id="filter0_d_3_6646" x="0.0415535" y="0.564793" width="364.409" height="363.572" filterUnits="userSpaceOnUse" color-interpolation-filters="sRGB">
<feFlood flood-opacity="0" result="BackgroundImageFix"/>
<feColorMatrix in="SourceAlpha" type="matrix" values="0 0 0 0 0 0 0 0 0 0 0 0 0 0 0 0 0 0 127 0" result="hardAlpha"/>
<feOffset dy="43.5232"/>
<feGaussianBlur stdDeviation="27.9792"/>
<feComposite in2="hardAlpha" operator="out"/>
<feColorMatrix type="matrix" values="0 0 0 0 0 0 0 0 0 0 0 0 0 0 0 0 0 0 0.25 0"/>
<feBlend mode="normal" in2="BackgroundImageFix" result="effect1_dropShadow_3_6646"/>
<feBlend mode="normal" in="SourceGraphic" in2="effect1_dropShadow_3_6646" result="shape"/>
</filter>
<filter id="filter1_i_3_6646" x="56" y="13" width="252.492" height="251.655" filterUnits="userSpaceOnUse" color-interpolation-filters="sRGB">
<feFlood flood-opacity="0" result="BackgroundImageFix"/>
<feBlend mode="normal" in="SourceGraphic" in2="BackgroundImageFix" result="shape"/>
<feColorMatrix in="SourceAlpha" type="matrix" values="0 0 0 0 0 0 0 0 0 0 0 0 0 0 0 0 0 0 127 0" result="hardAlpha"/>
<feOffset/>
<feGaussianBlur stdDeviation="4.6632"/>
<feComposite in2="hardAlpha" operator="arithmetic" k2="-1" k3="1"/>
<feColorMatrix type="matrix" values="0 0 0 0 0 0 0 0 0 0 0 0 0 0 0 0 0 0 1 0"/>
<feBlend mode="normal" in2="shape" result="effect1_innerShadow_3_6646"/>
</filter>
</defs>
</svg>
