<svg width="365" height="365" viewBox="0 0 365 365" fill="none" xmlns="http://www.w3.org/2000/svg">
<g filter="url(#filter0_d_10_8091)">
<g filter="url(#filter1_i_10_8091)">
<rect x="56" y="13" width="252.492" height="251.656" rx="19.8963" fill="white"/>
</g>
<rect x="63.848" y="21.6722" width="235.985" height="233.476" rx="12.7461" fill="black" stroke="black" stroke-width="0.621761"/>
<circle cx="118.673" cy="219.512" r="5.54158" stroke="#FE0808" stroke-opacity="0.5" stroke-width="0.621761"/>
<circle cx="182.227" cy="219.512" r="5.54158" stroke="#FE0808" stroke-opacity="0.5" stroke-width="0.621761"/>
<circle cx="245.751" cy="219.512" r="5.54158" stroke="#FE0808" stroke-opacity="0.5" stroke-width="0.621761"/>
<g clip-path="url(#clip0_10_8091)">
<path d="M282 52H83V201H282V52Z" fill="#1D1E2C"/>
<path d="M89.6126 64.7797C89.1425 64.7797 88.7246 64.658 88.3589 64.4146C87.9933 64.1655 87.706 63.812 87.497 63.3543C87.2881 62.8907 87.1836 62.3344 87.1836 61.6855C87.1836 61.0365 87.2881 60.4831 87.497 60.0253C87.706 59.5618 87.9933 59.2083 88.3589 58.965C88.7246 58.7158 89.1425 58.5912 89.6126 58.5912C90.0828 58.5912 90.5007 58.7158 90.8663 58.965C91.232 59.2083 91.5193 59.5618 91.7283 60.0253C91.943 60.4831 92.0504 61.0365 92.0504 61.6855C92.0504 62.3344 91.943 62.8907 91.7283 63.3543C91.5193 63.812 91.232 64.1655 90.8663 64.4146C90.5007 64.658 90.0828 64.7797 89.6126 64.7797ZM89.6126 64.206C89.9725 64.206 90.2859 64.1104 90.5529 63.9192C90.8199 63.7222 91.0288 63.4383 91.1798 63.0674C91.3307 62.6908 91.4061 62.2301 91.4061 61.6855C91.4061 61.1408 91.3307 60.683 91.1798 60.3122C91.0288 59.9355 90.8199 59.6516 90.5529 59.4604C90.2859 59.2634 89.9725 59.1649 89.6126 59.1649C89.2644 59.1649 88.9539 59.2634 88.6811 59.4604C88.4083 59.6516 88.1964 59.9355 88.0455 60.3122C87.8946 60.683 87.8191 61.1408 87.8191 61.6855C87.8191 62.2301 87.8946 62.6908 88.0455 63.0674C88.1964 63.4383 88.4083 63.7222 88.6811 63.9192C88.9539 64.1104 89.2644 64.206 89.6126 64.206ZM93.951 64.7275L96.5802 58.9215L96.7718 59.1996H93.002L93.3241 58.8954V60.3382H92.706V58.6434H97.181V59.0866L94.63 64.7275H93.951ZM101.4 61.5898H104.621V62.1461H101.4V61.5898ZM101.47 64.7275H100.825V58.6434H105.004V59.1996H101.47V64.7275ZM107.993 64.771C107.517 64.771 107.099 64.6725 106.739 64.4755C106.379 64.2727 106.097 63.9974 105.894 63.6498C105.691 63.2963 105.59 62.8936 105.59 62.4416C105.59 61.9897 105.685 61.5898 105.877 61.2422C106.074 60.8945 106.341 60.6222 106.678 60.4252C107.02 60.2223 107.403 60.121 107.827 60.121C108.257 60.121 108.637 60.2195 108.968 60.4165C109.304 60.6077 109.568 60.88 109.76 61.2335C109.951 61.5812 110.047 61.9839 110.047 62.4416C110.047 62.4706 110.044 62.5025 110.038 62.5372C110.038 62.5662 110.038 62.5981 110.038 62.6328H106.06V62.1722H109.708L109.464 62.3547C109.464 62.0244 109.391 61.7318 109.246 61.4769C109.107 61.2161 108.915 61.0133 108.672 60.8684C108.428 60.7236 108.146 60.6511 107.827 60.6511C107.514 60.6511 107.232 60.7236 106.983 60.8684C106.733 61.0133 106.539 61.2161 106.399 61.4769C106.26 61.7376 106.19 62.036 106.19 62.3721V62.4677C106.19 62.8154 106.266 63.1225 106.417 63.389C106.573 63.6498 106.788 63.8555 107.061 64.0061C107.34 64.151 107.656 64.2234 108.01 64.2234C108.289 64.2234 108.547 64.1742 108.785 64.0757C109.029 63.9771 109.238 63.8265 109.412 63.6237L109.76 64.0235C109.557 64.2669 109.301 64.4523 108.994 64.5798C108.692 64.7072 108.358 64.771 107.993 64.771ZM113.665 64.771C113.264 64.771 112.904 64.6812 112.585 64.5016C112.266 64.3161 112.014 64.0496 111.828 63.7019C111.642 63.3543 111.549 62.9341 111.549 62.4416C111.549 61.9433 111.642 61.5232 111.828 61.1813C112.019 60.8337 112.275 60.57 112.594 60.3904C112.913 60.2108 113.27 60.121 113.665 60.121C114.1 60.121 114.489 60.2195 114.831 60.4165C115.18 60.6077 115.452 60.8771 115.65 61.2248C115.847 61.5725 115.946 61.9781 115.946 62.4416C115.946 62.8994 115.847 63.305 115.65 63.6585C115.452 64.0061 115.18 64.2785 114.831 64.4755C114.489 64.6725 114.1 64.771 113.665 64.771ZM111.305 64.7275V58.2783H111.924V61.5116L111.837 62.4329L111.897 63.3543V64.7275H111.305ZM113.621 64.2234C113.946 64.2234 114.237 64.151 114.492 64.0061C114.747 63.8555 114.95 63.6469 115.101 63.3803C115.252 63.108 115.328 62.7951 115.328 62.4416C115.328 62.0824 115.252 61.7695 115.101 61.5029C114.95 61.2364 114.747 61.0307 114.492 60.8858C114.237 60.7351 113.946 60.6598 113.621 60.6598C113.296 60.6598 113.003 60.7351 112.742 60.8858C112.487 61.0307 112.283 61.2364 112.133 61.5029C111.987 61.7695 111.915 62.0824 111.915 62.4416C111.915 62.7951 111.987 63.108 112.133 63.3803C112.283 63.6469 112.487 63.8555 112.742 64.0061C113.003 64.151 113.296 64.2234 113.621 64.2234ZM118.962 64.7275V64.2843L121.496 61.8071C121.728 61.5812 121.902 61.3842 122.018 61.2161C122.134 61.0423 122.213 60.88 122.253 60.7294C122.294 60.5787 122.314 60.4368 122.314 60.3035C122.314 59.95 122.192 59.6719 121.948 59.4691C121.71 59.2663 121.356 59.1649 120.886 59.1649C120.526 59.1649 120.207 59.2199 119.929 59.33C119.656 59.4401 119.421 59.6111 119.223 59.8428L118.779 59.4604C119.017 59.1823 119.322 58.9679 119.693 58.8172C120.065 58.6665 120.48 58.5912 120.938 58.5912C121.351 58.5912 121.708 58.6578 122.009 58.7911C122.311 58.9186 122.543 59.1069 122.706 59.3561C122.874 59.6052 122.958 59.8979 122.958 60.2339C122.958 60.4309 122.929 60.6251 122.871 60.8163C122.819 61.0075 122.72 61.2103 122.575 61.4247C122.436 61.6333 122.23 61.8709 121.957 62.1374L119.633 64.4146L119.458 64.1713H123.237V64.7275H118.962ZM125.843 64.7797C125.402 64.7797 124.984 64.7102 124.589 64.5711C124.201 64.4262 123.887 64.235 123.649 63.9974L123.954 63.502C124.151 63.7048 124.415 63.8728 124.746 64.0061C125.083 64.1394 125.449 64.206 125.843 64.206C126.348 64.206 126.734 64.096 127.001 63.8758C127.274 63.6555 127.41 63.36 127.41 62.9892C127.41 62.6184 127.277 62.3229 127.01 62.1027C126.749 61.8824 126.334 61.7724 125.765 61.7724H125.33V61.3117L127.21 58.9563L127.297 59.1996H123.902V58.6434H127.82V59.0866L125.939 61.4421L125.634 61.2422H125.869C126.601 61.2422 127.146 61.4044 127.506 61.7289C127.872 62.0534 128.055 62.4706 128.055 62.9805C128.055 63.3224 127.973 63.6295 127.811 63.9018C127.648 64.1742 127.402 64.3886 127.071 64.545C126.746 64.7015 126.337 64.7797 125.843 64.7797ZM129.408 61.0683C129.28 61.0683 129.17 61.022 129.077 60.9293C128.99 60.8366 128.947 60.7236 128.947 60.5903C128.947 60.4512 128.99 60.3382 129.077 60.2513C129.17 60.1644 129.28 60.121 129.408 60.121C129.536 60.121 129.643 60.1644 129.73 60.2513C129.823 60.3382 129.869 60.4512 129.869 60.5903C129.869 60.7236 129.823 60.8366 129.73 60.9293C129.643 61.022 129.536 61.0683 129.408 61.0683ZM129.408 64.771C129.28 64.771 129.17 64.7246 129.077 64.6319C128.99 64.5392 128.947 64.4262 128.947 64.293C128.947 64.1539 128.99 64.0409 129.077 63.954C129.17 63.8671 129.28 63.8236 129.408 63.8236C129.536 63.8236 129.643 63.8671 129.73 63.954C129.823 64.0409 129.869 64.1539 129.869 64.293C129.869 64.4262 129.823 64.5392 129.73 64.6319C129.643 64.7246 129.536 64.771 129.408 64.771ZM133.212 64.7797C132.742 64.7797 132.324 64.658 131.958 64.4146C131.593 64.1655 131.305 63.812 131.096 63.3543C130.887 62.8907 130.783 62.3344 130.783 61.6855C130.783 61.0365 130.887 60.4831 131.096 60.0253C131.305 59.5618 131.593 59.2083 131.958 58.965C132.324 58.7158 132.742 58.5912 133.212 58.5912C133.682 58.5912 134.1 58.7158 134.466 58.965C134.831 59.2083 135.119 59.5618 135.328 60.0253C135.542 60.4831 135.65 61.0365 135.65 61.6855C135.65 62.3344 135.542 62.8907 135.328 63.3543C135.119 63.812 134.831 64.1655 134.466 64.4146C134.1 64.658 133.682 64.7797 133.212 64.7797ZM133.212 64.206C133.572 64.206 133.885 64.1104 134.152 63.9192C134.419 63.7222 134.628 63.4383 134.779 63.0674C134.93 62.6908 135.005 62.2301 135.005 61.6855C135.005 61.1408 134.93 60.683 134.779 60.3122C134.628 59.9355 134.419 59.6516 134.152 59.4604C133.885 59.2634 133.572 59.1649 133.212 59.1649C132.864 59.1649 132.553 59.2634 132.28 59.4604C132.008 59.6516 131.796 59.9355 131.645 60.3122C131.494 60.683 131.418 61.1408 131.418 61.6855C131.418 62.2301 131.494 62.6908 131.645 63.0674C131.796 63.4383 132.008 63.7222 132.28 63.9192C132.553 64.1104 132.864 64.206 133.212 64.206ZM138.976 64.7797C138.506 64.7797 138.088 64.658 137.723 64.4146C137.357 64.1655 137.07 63.812 136.861 63.3543C136.652 62.8907 136.547 62.3344 136.547 61.6855C136.547 61.0365 136.652 60.4831 136.861 60.0253C137.07 59.5618 137.357 59.2083 137.723 58.965C138.088 58.7158 138.506 58.5912 138.976 58.5912C139.447 58.5912 139.864 58.7158 140.23 58.965C140.596 59.2083 140.883 59.5618 141.092 60.0253C141.307 60.4831 141.414 61.0365 141.414 61.6855C141.414 62.3344 141.307 62.8907 141.092 63.3543C140.883 63.812 140.596 64.1655 140.23 64.4146C139.864 64.658 139.447 64.7797 138.976 64.7797ZM138.976 64.206C139.336 64.206 139.65 64.1104 139.917 63.9192C140.184 63.7222 140.393 63.4383 140.544 63.0674C140.694 62.6908 140.77 62.2301 140.77 61.6855C140.77 61.1408 140.694 60.683 140.544 60.3122C140.393 59.9355 140.184 59.6516 139.917 59.4604C139.65 59.2634 139.336 59.1649 138.976 59.1649C138.628 59.1649 138.318 59.2634 138.045 59.4604C137.772 59.6516 137.56 59.9355 137.409 60.3122C137.258 60.683 137.183 61.1408 137.183 61.6855C137.183 62.2301 137.258 62.6908 137.409 63.0674C137.56 63.4383 137.772 63.7222 138.045 63.9192C138.318 64.1104 138.628 64.206 138.976 64.206Z" fill="#EFF0FF"/>
<path d="M169.129 56.6562H169.129C166.553 56.6562 164.465 58.7409 164.465 61.3125C164.465 63.884 166.553 65.9687 169.129 65.9687H169.129C171.705 65.9687 173.793 63.884 173.793 61.3125C173.793 58.7409 171.705 56.6562 169.129 56.6562Z" fill="#292931"/>
<path d="M181.566 56.6562H181.566C178.991 56.6562 176.902 58.7409 176.902 61.3125C176.902 63.884 178.991 65.9687 181.566 65.9687H181.566C184.142 65.9687 186.23 63.884 186.23 61.3125C186.23 58.7409 184.142 56.6562 181.566 56.6562Z" fill="#B8C6FF"/>
<path d="M194.004 56.6562H194.004C191.428 56.6562 189.34 58.7409 189.34 61.3125C189.34 63.884 191.428 65.9687 194.004 65.9687H194.004C196.58 65.9687 198.668 63.884 198.668 61.3125C198.668 58.7409 196.58 56.6562 194.004 56.6562Z" fill="#292931"/>
<path d="M219.502 57.5879H222.592C224.146 57.5879 225.409 58.8489 225.39 60.401C225.39 61.7785 224.399 62.9426 223.058 63.1754H223.019C222.669 63.2336 222.358 63.0008 222.3 62.671C222.242 62.3217 222.475 62.0113 222.805 61.9531H222.844C223.602 61.8173 224.166 61.1577 224.166 60.401C224.166 59.5474 223.447 58.8296 222.592 58.8296H219.502C218.646 58.8296 217.947 59.5474 217.947 60.401C217.947 61.1577 218.491 61.8173 219.249 61.9531H219.288C219.618 62.0113 219.851 62.3217 219.793 62.671C219.735 63.0008 219.424 63.2336 219.074 63.1754H219.035C217.694 62.9426 216.703 61.7785 216.703 60.401C216.703 58.8489 217.947 57.5879 219.502 57.5879ZM226.323 65.0379H223.233C221.678 65.0379 220.434 63.7962 220.434 62.2441C220.434 60.8666 221.426 59.7026 222.766 59.4698H222.805C223.155 59.4116 223.466 59.6444 223.524 59.9742C223.582 60.3234 223.35 60.6338 223.019 60.6921H222.98C222.222 60.8279 221.678 61.4681 221.678 62.2441C221.678 63.0978 222.378 63.7962 223.233 63.7962H226.323C227.197 63.7962 227.897 63.0978 227.897 62.2441C227.897 61.4681 227.333 60.8279 226.575 60.6921H226.536C226.206 60.6338 225.973 60.3234 226.031 59.9742C226.09 59.6444 226.401 59.4116 226.75 59.4698H226.789C228.13 59.7026 229.141 60.8666 229.141 62.2441C229.141 63.7962 227.878 65.0379 226.323 65.0379Z" fill="#00E676"/>
<path d="M237.537 65.6585C235.982 65.6585 234.738 64.4168 234.738 62.8647C234.738 61.6618 235.516 60.6142 236.604 60.2455C236.604 60.1874 236.604 60.1292 236.604 60.071C236.604 58.3637 237.984 56.9668 239.713 56.9668C240.86 56.9668 241.871 57.607 242.395 58.5383C242.686 58.3249 243.056 58.2085 243.445 58.2085C244.474 58.2085 245.31 59.0427 245.31 60.071C245.31 60.3231 245.252 60.5366 245.174 60.75C246.321 60.9828 247.176 61.9917 247.176 63.1751C247.176 64.5526 246.049 65.6585 244.688 65.6585H237.537ZM239.072 61.4485C238.877 61.6424 238.877 61.9335 239.072 62.108C239.247 62.3021 239.539 62.3021 239.713 62.108L240.471 61.3514V63.9512C240.471 64.2228 240.685 64.4168 240.938 64.4168C241.21 64.4168 241.404 64.2228 241.404 63.9512V61.3514L242.162 62.108C242.356 62.3021 242.648 62.3021 242.823 62.108C243.017 61.9335 243.017 61.6424 242.823 61.4485L241.268 59.8964C241.093 59.7217 240.802 59.7217 240.608 59.8964L239.053 61.4485H239.072Z" fill="#00E676"/>
<path d="M258.933 58.1497L256.134 64.9788C256.018 65.2505 255.726 65.4057 255.435 65.3474C255.143 65.2892 254.949 65.037 254.949 64.7266V61.312H251.529C251.218 61.312 250.965 61.118 250.907 60.827C250.848 60.536 251.004 60.2449 251.276 60.1286L258.117 57.3348C258.35 57.2378 258.622 57.296 258.797 57.4706C258.972 57.6452 259.03 57.9168 258.933 58.1497Z" fill="#00E676"/>
<path d="M264.394 60.2844C264.141 60.5366 263.752 60.5172 263.5 60.265C263.266 60.0322 263.286 59.6247 263.519 59.3919C265.093 57.898 267.212 56.9668 269.563 56.9668C271.895 56.9668 274.013 57.898 275.588 59.3919C275.82 59.6247 275.84 60.0322 275.607 60.265C275.354 60.5172 274.966 60.5366 274.713 60.2844C273.372 59.0039 271.565 58.2085 269.563 58.2085C267.542 58.2085 265.735 59.0039 264.394 60.2844ZM269.563 61.3126C268.455 61.3126 267.445 61.7395 266.667 62.3991C266.415 62.6319 266.026 62.6125 265.793 62.3603C265.579 62.0887 265.598 61.7007 265.851 61.4678C266.842 60.6142 268.144 60.071 269.563 60.071C270.981 60.071 272.264 60.6142 273.256 61.4678C273.508 61.7007 273.547 62.0887 273.313 62.3603C273.08 62.6125 272.691 62.6319 272.439 62.3991C271.662 61.7395 270.651 61.3126 269.563 61.3126ZM270.807 64.4168C270.807 64.8631 270.554 65.2704 270.185 65.5033C269.796 65.7167 269.31 65.7167 268.941 65.5033C268.552 65.2704 268.319 64.8631 268.319 64.4168C268.319 63.99 268.552 63.5825 268.941 63.3497C269.31 63.1363 269.796 63.1363 270.185 63.3497C270.554 63.5825 270.807 63.99 270.807 64.4168Z" fill="#00E676"/>
<path d="M207.064 70.625H90.1512C88.0905 70.625 86.4199 72.2927 86.4199 74.35V125.879C86.4199 127.936 88.0905 129.604 90.1512 129.604H207.064C209.124 129.604 210.795 127.936 210.795 125.879V74.35C210.795 72.2927 209.124 70.625 207.064 70.625Z" fill="#24263A"/>
<path d="M119.692 98.8729V96.6565L125.401 91.2739C125.852 90.8658 126.183 90.4999 126.395 90.1763C126.606 89.8526 126.747 89.5571 126.818 89.2897C126.902 89.0223 126.945 88.7761 126.945 88.5509C126.945 87.9599 126.74 87.5096 126.331 87.2C125.937 86.8763 125.352 86.7145 124.576 86.7145C123.956 86.7145 123.378 86.8341 122.843 87.0733C122.321 87.3125 121.877 87.6855 121.511 88.1921L119.016 86.5878C119.579 85.7435 120.369 85.075 121.384 84.5825C122.399 84.09 123.569 83.8438 124.894 83.8438C125.993 83.8438 126.952 84.0267 127.769 84.3926C128.601 84.7444 129.242 85.2439 129.693 85.8913C130.158 86.5386 130.391 87.3125 130.391 88.2132C130.391 88.6917 130.328 89.1701 130.201 89.6485C130.088 90.1129 129.848 90.6054 129.482 91.1261C129.129 91.6468 128.608 92.2308 127.917 92.8781L123.181 97.332L122.525 96.0866H130.877V98.8729H119.692ZM137.09 99.1262C136.061 99.1262 135.039 98.9925 134.024 98.7251C133.009 98.4437 132.15 98.0497 131.445 97.5431L132.777 94.9256C133.341 95.3337 133.996 95.6574 134.743 95.8966C135.49 96.1358 136.244 96.2554 137.006 96.2554C137.865 96.2554 138.542 96.0866 139.035 95.7489C139.529 95.4111 139.775 94.9467 139.775 94.3557C139.775 93.7928 139.557 93.3495 139.12 93.0259C138.683 92.7022 137.978 92.5404 137.006 92.5404H135.441V90.2818L139.564 85.6168L139.945 86.8411H132.185V84.0971H142.545V86.3134L138.443 90.9784L136.71 89.9863H137.703C139.522 89.9863 140.896 90.3943 141.826 91.2106C142.757 92.0268 143.222 93.0751 143.222 94.3557C143.222 95.1859 143.003 95.9669 142.566 96.6987C142.129 97.4164 141.46 98.0004 140.558 98.4507C139.656 98.901 138.5 99.1262 137.09 99.1262ZM146.749 99.0418C146.185 99.0418 145.698 98.8518 145.29 98.4718C144.895 98.0778 144.698 97.5783 144.698 96.9731C144.698 96.368 144.895 95.8825 145.29 95.5167C145.698 95.1367 146.185 94.9467 146.749 94.9467C147.327 94.9467 147.813 95.1367 148.208 95.5167C148.602 95.8825 148.8 96.368 148.8 96.9731C148.8 97.5783 148.602 98.0778 148.208 98.4718C147.813 98.8518 147.327 99.0418 146.749 99.0418ZM156.686 99.1262C155.333 99.1262 154.157 98.8448 153.155 98.2818C152.169 97.7189 151.408 96.8957 150.872 95.8122C150.336 94.7286 150.068 93.3917 150.068 91.8016C150.068 90.0988 150.386 88.6564 151.02 87.4744C151.668 86.2923 152.557 85.3917 153.684 84.7725C154.826 84.1534 156.137 83.8438 157.617 83.8438C158.406 83.8438 159.16 83.9282 159.879 84.0971C160.598 84.2659 161.219 84.5192 161.74 84.8569L160.471 87.3688C160.063 87.0874 159.625 86.8974 159.16 86.7989C158.695 86.6864 158.209 86.63 157.701 86.63C156.419 86.63 155.404 87.017 154.657 87.791C153.91 88.565 153.536 89.7119 153.536 91.2317C153.536 91.485 153.536 91.7664 153.536 92.076C153.55 92.3856 153.593 92.6952 153.663 93.0048L152.711 92.1182C152.979 91.5694 153.325 91.112 153.747 90.7462C154.17 90.3662 154.671 90.0848 155.249 89.9018C155.841 89.7049 156.489 89.6063 157.194 89.6063C158.153 89.6063 159.012 89.7963 159.773 90.1763C160.535 90.5562 161.141 91.0909 161.592 91.7805C162.057 92.47 162.289 93.2792 162.289 94.2079C162.289 95.207 162.036 96.0796 161.528 96.8254C161.035 97.5572 160.365 98.1271 159.52 98.5352C158.688 98.9292 157.744 99.1262 156.686 99.1262ZM156.496 96.5721C156.976 96.5721 157.398 96.4876 157.765 96.3188C158.145 96.1358 158.441 95.8755 158.653 95.5378C158.864 95.2 158.97 94.8131 158.97 94.3768C158.97 93.7013 158.737 93.1666 158.272 92.7726C157.821 92.3645 157.215 92.1604 156.454 92.1604C155.946 92.1604 155.502 92.259 155.122 92.456C154.741 92.6389 154.438 92.8992 154.213 93.237C154.001 93.5606 153.895 93.9406 153.895 94.3768C153.895 94.799 154.001 95.1789 154.213 95.5167C154.424 95.8403 154.72 96.1007 155.101 96.2977C155.481 96.4806 155.946 96.5721 156.496 96.5721ZM166.796 91.1472C166.105 91.1472 165.477 90.9925 164.914 90.6828C164.35 90.3592 163.899 89.923 163.561 89.3741C163.236 88.8253 163.074 88.2132 163.074 87.5377C163.074 86.8622 163.236 86.2501 163.561 85.7013C163.899 85.1525 164.35 84.7162 164.914 84.3926C165.477 84.0689 166.105 83.9071 166.796 83.9071C167.486 83.9071 168.106 84.0689 168.656 84.3926C169.22 84.7162 169.664 85.1525 169.988 85.7013C170.327 86.2501 170.496 86.8622 170.496 87.5377C170.496 88.2132 170.327 88.8253 169.988 89.3741C169.664 89.9089 169.22 90.3381 168.656 90.6617C168.106 90.9854 167.486 91.1472 166.796 91.1472ZM166.796 89.5219C167.162 89.5219 167.493 89.4375 167.789 89.2686C168.085 89.0856 168.318 88.8464 168.487 88.5509C168.656 88.2554 168.741 87.9177 168.741 87.5377C168.741 87.1578 168.656 86.82 168.487 86.5245C168.318 86.2149 168.085 85.9757 167.789 85.8068C167.493 85.638 167.162 85.5535 166.796 85.5535C166.415 85.5535 166.077 85.638 165.781 85.8068C165.485 85.9757 165.252 86.2079 165.083 86.5034C164.914 86.7989 164.829 87.1437 164.829 87.5377C164.829 87.9177 164.914 88.2554 165.083 88.5509C165.252 88.8464 165.485 89.0856 165.781 89.2686C166.077 89.4375 166.415 89.5219 166.796 89.5219ZM180.259 99.1262C179.117 99.1262 178.052 98.9432 177.066 98.5774C176.093 98.1974 175.247 97.6627 174.529 96.9731C173.81 96.2836 173.246 95.4744 172.837 94.5457C172.442 93.6169 172.245 92.5967 172.245 91.485C172.245 90.3732 172.442 89.353 172.837 88.4243C173.246 87.4955 173.81 86.6864 174.529 85.9968C175.261 85.3072 176.114 84.7795 177.087 84.4137C178.06 84.0337 179.124 83.8438 180.28 83.8438C181.562 83.8438 182.718 84.0689 183.747 84.5192C184.79 84.9555 185.664 85.6028 186.369 86.4612L184.17 88.4876C183.663 87.9106 183.099 87.4814 182.479 87.2C181.858 86.9045 181.181 86.7567 180.449 86.7567C179.758 86.7567 179.124 86.8693 178.546 87.0944C177.968 87.3196 177.468 87.6432 177.045 88.0654C176.622 88.4876 176.29 88.9872 176.051 89.5641C175.825 90.141 175.713 90.7814 175.713 91.485C175.713 92.1886 175.825 92.8289 176.051 93.4058C176.29 93.9828 176.622 94.4824 177.045 94.9045C177.468 95.3267 177.968 95.6503 178.546 95.8755C179.124 96.1007 179.758 96.2132 180.449 96.2132C181.181 96.2132 181.858 96.0725 182.479 95.7911C183.099 95.4956 183.663 95.0523 184.17 94.4612L186.369 96.4876C185.664 97.3461 184.79 98.0004 183.747 98.4507C182.718 98.901 181.555 99.1262 180.259 99.1262Z" fill="#FEFBFF"/>
<path d="M118.996 114.808H121.758V115.285H118.996V114.808ZM119.056 117.497H118.504V112.282H122.086V112.759H119.056V117.497ZM124.647 117.535C124.239 117.535 123.881 117.45 123.573 117.281C123.264 117.108 123.023 116.872 122.849 116.574C122.675 116.271 122.588 115.926 122.588 115.538C122.588 115.151 122.67 114.808 122.834 114.51C123.003 114.212 123.232 113.979 123.52 113.81C123.814 113.636 124.142 113.549 124.505 113.549C124.874 113.549 125.2 113.633 125.483 113.802C125.772 113.966 125.998 114.2 126.162 114.503C126.326 114.801 126.408 115.146 126.408 115.538C126.408 115.563 126.406 115.59 126.401 115.62C126.401 115.645 126.401 115.672 126.401 115.702H122.991V115.307H126.117L125.908 115.464C125.908 115.181 125.846 114.93 125.722 114.711C125.602 114.488 125.438 114.314 125.229 114.19C125.02 114.066 124.779 114.003 124.505 114.003C124.237 114.003 123.996 114.066 123.782 114.19C123.568 114.314 123.401 114.488 123.282 114.711C123.162 114.935 123.103 115.19 123.103 115.479V115.56C123.103 115.858 123.167 116.122 123.297 116.35C123.431 116.574 123.615 116.75 123.849 116.879C124.088 117.003 124.359 117.065 124.662 117.065C124.901 117.065 125.122 117.023 125.326 116.939C125.535 116.854 125.714 116.725 125.864 116.551L126.162 116.894C125.988 117.103 125.769 117.262 125.505 117.371C125.247 117.48 124.961 117.535 124.647 117.535ZM129.151 117.535C128.743 117.535 128.385 117.45 128.076 117.281C127.768 117.108 127.527 116.872 127.353 116.574C127.178 116.271 127.091 115.926 127.091 115.538C127.091 115.151 127.173 114.808 127.338 114.51C127.507 114.212 127.736 113.979 128.024 113.81C128.318 113.636 128.646 113.549 129.009 113.549C129.377 113.549 129.703 113.633 129.987 113.802C130.275 113.966 130.502 114.2 130.666 114.503C130.83 114.801 130.912 115.146 130.912 115.538C130.912 115.563 130.91 115.59 130.905 115.62C130.905 115.645 130.905 115.672 130.905 115.702H127.494V115.307H130.621L130.412 115.464C130.412 115.181 130.35 114.93 130.226 114.711C130.106 114.488 129.942 114.314 129.733 114.19C129.524 114.066 129.283 114.003 129.009 114.003C128.741 114.003 128.499 114.066 128.285 114.19C128.071 114.314 127.905 114.488 127.785 114.711C127.666 114.935 127.606 115.19 127.606 115.479V115.56C127.606 115.858 127.671 116.122 127.8 116.35C127.935 116.574 128.119 116.75 128.353 116.879C128.591 117.003 128.862 117.065 129.166 117.065C129.405 117.065 129.626 117.023 129.83 116.939C130.039 116.854 130.218 116.725 130.367 116.551L130.666 116.894C130.492 117.103 130.273 117.262 130.009 117.371C129.751 117.48 129.464 117.535 129.151 117.535ZM131.991 117.497V111.97H132.52V117.497H131.991ZM135.047 117.535C134.724 117.535 134.418 117.49 134.129 117.401C133.84 117.306 133.614 117.19 133.45 117.05L133.689 116.633C133.848 116.752 134.052 116.857 134.301 116.946C134.549 117.031 134.811 117.073 135.084 117.073C135.457 117.073 135.726 117.016 135.89 116.901C136.054 116.782 136.136 116.626 136.136 116.432C136.136 116.288 136.089 116.176 135.995 116.097C135.905 116.012 135.786 115.95 135.636 115.911C135.487 115.866 135.321 115.829 135.136 115.799C134.952 115.769 134.768 115.734 134.584 115.695C134.405 115.655 134.241 115.598 134.092 115.523C133.942 115.444 133.821 115.337 133.726 115.203C133.636 115.069 133.592 114.89 133.592 114.666C133.592 114.453 133.651 114.262 133.771 114.093C133.89 113.924 134.064 113.792 134.293 113.698C134.527 113.599 134.811 113.549 135.144 113.549C135.398 113.549 135.651 113.584 135.905 113.653C136.159 113.718 136.368 113.805 136.532 113.914L136.301 114.339C136.126 114.219 135.94 114.135 135.741 114.085C135.542 114.031 135.343 114.003 135.144 114.003C134.791 114.003 134.529 114.066 134.36 114.19C134.196 114.309 134.114 114.463 134.114 114.652C134.114 114.801 134.159 114.917 134.248 115.002C134.343 115.086 134.465 115.153 134.614 115.203C134.768 115.248 134.935 115.285 135.114 115.315C135.298 115.344 135.48 115.382 135.659 115.426C135.843 115.466 136.01 115.523 136.159 115.598C136.313 115.667 136.435 115.769 136.524 115.903C136.619 116.032 136.666 116.204 136.666 116.417C136.666 116.646 136.602 116.844 136.472 117.013C136.348 117.177 136.164 117.306 135.92 117.401C135.681 117.49 135.39 117.535 135.047 117.535ZM139.704 117.497V112.282H140.256V117.021H143.181V117.497H139.704ZM143.986 117.497V113.586H144.516V117.497H143.986ZM144.255 112.722C144.145 112.722 144.053 112.685 143.979 112.61C143.904 112.536 143.867 112.446 143.867 112.342C143.867 112.238 143.904 112.151 143.979 112.081C144.053 112.007 144.145 111.97 144.255 111.97C144.364 111.97 144.456 112.004 144.531 112.074C144.605 112.143 144.643 112.23 144.643 112.335C144.643 112.444 144.605 112.536 144.531 112.61C144.461 112.685 144.369 112.722 144.255 112.722ZM146.408 116.484L146.423 115.806L148.863 113.586H149.512L147.788 115.233L147.49 115.486L146.408 116.484ZM145.99 117.497V111.97H146.52V117.497H145.99ZM149.027 117.497L147.393 115.464L147.736 115.054L149.676 117.497H149.027ZM151.983 117.535C151.575 117.535 151.217 117.45 150.908 117.281C150.6 117.108 150.359 116.872 150.185 116.574C150.01 116.271 149.923 115.926 149.923 115.538C149.923 115.151 150.005 114.808 150.17 114.51C150.339 114.212 150.568 113.979 150.856 113.81C151.15 113.636 151.478 113.549 151.841 113.549C152.209 113.549 152.535 113.633 152.819 113.802C153.107 113.966 153.334 114.2 153.498 114.503C153.662 114.801 153.744 115.146 153.744 115.538C153.744 115.563 153.742 115.59 153.737 115.62C153.737 115.645 153.737 115.672 153.737 115.702H150.326V115.307H153.453L153.244 115.464C153.244 115.181 153.182 114.93 153.058 114.711C152.938 114.488 152.774 114.314 152.565 114.19C152.356 114.066 152.115 114.003 151.841 114.003C151.573 114.003 151.331 114.066 151.117 114.19C150.903 114.314 150.737 114.488 150.617 114.711C150.498 114.935 150.438 115.19 150.438 115.479V115.56C150.438 115.858 150.503 116.122 150.632 116.35C150.767 116.574 150.951 116.75 151.184 116.879C151.423 117.003 151.694 117.065 151.998 117.065C152.237 117.065 152.458 117.023 152.662 116.939C152.871 116.854 153.05 116.725 153.199 116.551L153.498 116.894C153.324 117.103 153.105 117.262 152.841 117.371C152.582 117.48 152.296 117.535 151.983 117.535ZM156.736 117.497V115.933L160.766 112.133C161.084 111.845 161.318 111.587 161.467 111.359C161.616 111.13 161.716 110.922 161.766 110.733C161.825 110.544 161.855 110.37 161.855 110.211C161.855 109.794 161.711 109.476 161.422 109.258C161.144 109.029 160.731 108.915 160.184 108.915C159.746 108.915 159.338 109 158.96 109.168C158.592 109.337 158.278 109.6 158.02 109.958L156.258 108.826C156.656 108.23 157.214 107.758 157.93 107.41C158.646 107.063 159.472 106.889 160.408 106.889C161.184 106.889 161.86 107.018 162.437 107.276C163.024 107.524 163.477 107.877 163.796 108.334C164.124 108.791 164.288 109.337 164.288 109.973C164.288 110.311 164.243 110.648 164.154 110.986C164.074 111.314 163.905 111.662 163.646 112.029C163.398 112.397 163.029 112.809 162.542 113.266L159.199 116.41L158.736 115.531H164.631V117.497H156.736ZM169.017 117.676C168.29 117.676 167.569 117.582 166.853 117.393C166.136 117.195 165.529 116.916 165.032 116.559L165.972 114.711C166.37 114.999 166.833 115.228 167.36 115.397C167.887 115.565 168.42 115.65 168.957 115.65C169.564 115.65 170.042 115.531 170.39 115.292C170.738 115.054 170.912 114.726 170.912 114.309C170.912 113.912 170.758 113.599 170.45 113.37C170.141 113.142 169.644 113.027 168.957 113.027H167.853V111.433L170.763 108.14L171.032 109.004H165.554V107.067H172.867V108.632L169.972 111.925L168.748 111.225H169.45C170.733 111.225 171.703 111.513 172.36 112.089C173.017 112.665 173.345 113.405 173.345 114.309C173.345 114.895 173.191 115.446 172.882 115.963C172.574 116.469 172.101 116.882 171.464 117.199C170.828 117.517 170.012 117.676 169.017 117.676ZM176.47 112.969C176.065 112.969 175.697 112.878 175.367 112.697C175.036 112.507 174.772 112.251 174.573 111.93C174.384 111.608 174.288 111.249 174.288 110.853C174.288 110.457 174.384 110.098 174.573 109.777C174.772 109.455 175.036 109.199 175.367 109.009C175.697 108.82 176.065 108.725 176.47 108.725C176.875 108.725 177.238 108.82 177.561 109.009C177.891 109.199 178.151 109.455 178.341 109.777C178.54 110.098 178.638 110.457 178.638 110.853C178.638 111.249 178.54 111.608 178.341 111.93C178.151 112.243 177.891 112.495 177.561 112.684C177.238 112.874 176.875 112.969 176.47 112.969ZM176.47 112.016C176.684 112.016 176.879 111.967 177.052 111.868C177.226 111.76 177.362 111.62 177.461 111.447C177.561 111.274 177.61 111.076 177.61 110.853C177.61 110.63 177.561 110.432 177.461 110.259C177.362 110.078 177.226 109.937 177.052 109.838C176.879 109.739 176.684 109.69 176.47 109.69C176.247 109.69 176.048 109.739 175.875 109.838C175.701 109.937 175.565 110.074 175.466 110.247C175.367 110.42 175.317 110.622 175.317 110.853C175.317 111.076 175.367 111.274 175.466 111.447C175.565 111.62 175.701 111.76 175.875 111.868C176.048 111.967 176.247 112.016 176.47 112.016ZM184.362 117.646C183.692 117.646 183.068 117.538 182.49 117.324C181.92 117.101 181.424 116.788 181.003 116.384C180.581 115.98 180.251 115.505 180.011 114.961C179.78 114.416 179.664 113.818 179.664 113.167C179.664 112.515 179.78 111.917 180.011 111.373C180.251 110.828 180.581 110.354 181.003 109.95C181.433 109.546 181.932 109.236 182.502 109.022C183.072 108.799 183.696 108.688 184.374 108.688C185.126 108.688 185.803 108.82 186.406 109.084C187.018 109.339 187.53 109.719 187.944 110.222L186.654 111.41C186.357 111.072 186.026 110.82 185.662 110.655C185.299 110.482 184.903 110.395 184.473 110.395C184.068 110.395 183.696 110.461 183.357 110.593C183.019 110.725 182.725 110.915 182.477 111.162C182.23 111.41 182.036 111.703 181.895 112.041C181.763 112.379 181.697 112.754 181.697 113.167C181.697 113.579 181.763 113.955 181.895 114.293C182.036 114.631 182.23 114.924 182.477 115.171C182.725 115.419 183.019 115.608 183.357 115.741C183.696 115.873 184.068 115.939 184.473 115.939C184.903 115.939 185.299 115.856 185.662 115.691C186.026 115.518 186.357 115.258 186.654 114.912L187.944 116.099C187.53 116.602 187.018 116.986 186.406 117.25C185.803 117.514 185.121 117.646 184.362 117.646Z" fill="#FEFBFF"/>
<path d="M274.849 70.9355H218.258C216.369 70.9355 214.838 72.4643 214.838 74.3501V125.879C214.838 127.765 216.369 129.294 218.258 129.294H274.849C276.738 129.294 278.269 127.765 278.269 125.879V74.3501C278.269 72.4643 276.738 70.9355 274.849 70.9355Z" fill="#EAEBF9"/>
<path d="M222.533 90.1813L220.771 84.9663H221.339L222.988 89.8758H222.704L224.406 84.9663H224.913L226.592 89.8758H226.324L227.988 84.9663H228.518L226.756 90.1813H226.174L224.57 85.525H224.719L223.107 90.1813H222.533ZM229.396 90.1813V86.27H229.926V90.1813H229.396ZM229.665 85.4058C229.555 85.4058 229.463 85.3686 229.389 85.2941C229.314 85.2196 229.277 85.1302 229.277 85.0259C229.277 84.9216 229.314 84.8347 229.389 84.7651C229.463 84.6906 229.555 84.6534 229.665 84.6534C229.774 84.6534 229.866 84.6882 229.941 84.7577C230.016 84.8272 230.053 84.9141 230.053 85.0184C230.053 85.1277 230.016 85.2196 229.941 85.2941C229.871 85.3686 229.779 85.4058 229.665 85.4058ZM233.4 86.2328C233.718 86.2328 233.997 86.2949 234.236 86.419C234.479 86.5382 234.669 86.722 234.803 86.9703C234.942 87.2187 235.012 87.5316 235.012 87.909V90.1813H234.482V87.9612C234.482 87.549 234.377 87.2385 234.169 87.0299C233.965 86.8164 233.676 86.7096 233.303 86.7096C233.024 86.7096 232.781 86.7667 232.572 86.8809C232.368 86.9902 232.208 87.1516 232.094 87.3652C231.985 87.5738 231.93 87.8271 231.93 88.1251V90.1813H231.4V86.27H231.907V87.3428L231.825 87.1417C231.95 86.8586 232.149 86.6376 232.422 86.4786C232.696 86.3147 233.022 86.2328 233.4 86.2328ZM238.003 90.2185C237.63 90.2185 237.294 90.1341 236.996 89.9652C236.702 89.7964 236.471 89.5629 236.302 89.2649C236.132 88.962 236.048 88.6143 236.048 88.2219C236.048 87.8246 236.132 87.4769 236.302 87.1789C236.471 86.8809 236.702 86.65 236.996 86.4861C237.294 86.3172 237.63 86.2328 238.003 86.2328C238.346 86.2328 238.652 86.3098 238.921 86.4637C239.195 86.6177 239.411 86.8437 239.57 87.1417C239.734 87.4347 239.816 87.7948 239.816 88.2219C239.816 88.6441 239.737 89.0042 239.578 89.3022C239.418 89.6002 239.202 89.8287 238.928 89.9876C238.66 90.1416 238.351 90.2185 238.003 90.2185ZM238.04 89.7492C238.319 89.7492 238.568 89.6871 238.787 89.5629C239.01 89.4338 239.185 89.255 239.309 89.0265C239.438 88.7931 239.503 88.5249 239.503 88.2219C239.503 87.914 239.438 87.6458 239.309 87.4173C239.185 87.1889 239.01 87.0126 238.787 86.8884C238.568 86.7593 238.319 86.6947 238.04 86.6947C237.767 86.6947 237.52 86.7593 237.302 86.8884C237.083 87.0126 236.909 87.1889 236.779 87.4173C236.65 87.6458 236.585 87.914 236.585 88.2219C236.585 88.5249 236.65 88.7931 236.779 89.0265C236.909 89.255 237.083 89.4338 237.302 89.5629C237.52 89.6871 237.767 89.7492 238.04 89.7492ZM239.518 90.1813V89.0042L239.57 88.2145L239.496 87.4248V84.6534H240.025V90.1813H239.518ZM246.697 90.3005C246.011 90.3005 245.349 90.221 244.712 90.0621C244.086 89.8932 243.588 89.6846 243.22 89.4363L243.996 87.7675C244.364 87.996 244.797 88.1847 245.295 88.3337C245.802 88.4728 246.299 88.5423 246.787 88.5423C247.324 88.5423 247.702 88.4777 247.921 88.3486C248.15 88.2195 248.265 88.0407 248.265 87.8122C248.265 87.6235 248.175 87.4844 247.996 87.395C247.827 87.2957 247.598 87.2212 247.309 87.1715C247.021 87.1218 246.702 87.0722 246.354 87.0225C246.016 86.9728 245.673 86.9083 245.324 86.8288C244.976 86.7394 244.658 86.6103 244.369 86.4414C244.081 86.2725 243.847 86.0441 243.668 85.756C243.499 85.4679 243.414 85.0954 243.414 84.6385C243.414 84.1319 243.558 83.6849 243.847 83.2975C244.145 82.9101 244.573 82.6071 245.13 82.3886C245.688 82.1601 246.354 82.0459 247.13 82.0459C247.678 82.0459 248.235 82.1055 248.802 82.2247C249.369 82.3439 249.842 82.5177 250.22 82.7462L249.444 84.4001C249.056 84.1716 248.663 84.0177 248.265 83.9382C247.877 83.8488 247.498 83.8041 247.13 83.8041C246.613 83.8041 246.235 83.8736 245.996 84.0127C245.757 84.1518 245.638 84.3306 245.638 84.5491C245.638 84.7478 245.722 84.8968 245.892 84.9961C246.071 85.0954 246.304 85.1749 246.593 85.2345C246.882 85.2941 247.195 85.3487 247.533 85.3984C247.881 85.4381 248.23 85.5027 248.578 85.5921C248.926 85.6815 249.24 85.8106 249.518 85.9795C249.807 86.1384 250.041 86.3619 250.22 86.65C250.399 86.9281 250.488 87.2957 250.488 87.7526C250.488 88.2493 250.339 88.6913 250.041 89.0787C249.742 89.4562 249.309 89.7542 248.742 89.9727C248.185 90.1912 247.503 90.3005 246.697 90.3005ZM254.626 90.3005C253.94 90.3005 253.278 90.221 252.641 90.0621C252.014 89.8932 251.517 89.6846 251.149 89.4363L251.925 87.7675C252.293 87.996 252.726 88.1847 253.223 88.3337C253.731 88.4728 254.228 88.5423 254.716 88.5423C255.253 88.5423 255.631 88.4777 255.85 88.3486C256.079 88.2195 256.193 88.0407 256.193 87.8122C256.193 87.6235 256.104 87.4844 255.925 87.395C255.756 87.2957 255.527 87.2212 255.238 87.1715C254.95 87.1218 254.631 87.0722 254.283 87.0225C253.945 86.9728 253.601 86.9083 253.253 86.8288C252.905 86.7394 252.587 86.6103 252.298 86.4414C252.01 86.2725 251.776 86.0441 251.597 85.756C251.427 85.4679 251.343 85.0954 251.343 84.6385C251.343 84.1319 251.487 83.6849 251.776 83.2975C252.074 82.9101 252.502 82.6071 253.059 82.3886C253.616 82.1601 254.283 82.0459 255.059 82.0459C255.606 82.0459 256.164 82.1055 256.731 82.2247C257.298 82.3439 257.771 82.5177 258.149 82.7462L257.373 84.4001C256.985 84.1716 256.591 84.0177 256.193 83.9382C255.805 83.8488 255.427 83.8041 255.059 83.8041C254.542 83.8041 254.164 83.8736 253.925 84.0127C253.686 84.1518 253.567 84.3306 253.567 84.5491C253.567 84.7478 253.651 84.8968 253.82 84.9961C254 85.0954 254.233 85.1749 254.522 85.2345C254.81 85.2941 255.124 85.3487 255.462 85.3984C255.81 85.4381 256.159 85.5027 256.507 85.5921C256.855 85.6815 257.169 85.8106 257.447 85.9795C257.736 86.1384 257.97 86.3619 258.149 86.65C258.328 86.9281 258.417 87.2957 258.417 87.7526C258.417 88.2493 258.268 88.6913 257.97 89.0787C257.671 89.4562 257.238 89.7542 256.671 89.9727C256.114 90.1912 255.432 90.3005 254.626 90.3005ZM261.544 90.1813L258.649 82.1651H260.843L263.246 89.0638H262.201L264.708 82.1651H266.678L269.111 89.0638H268.066L270.544 82.1651H272.604L269.693 90.1813H267.439L265.305 84.266H265.992L263.783 90.1813H261.544Z" fill="#1B1C22"/>
<path d="M237.554 112.784C236.342 112.784 235.256 112.489 234.298 111.898C233.34 111.293 232.585 110.42 232.036 109.28C231.486 108.141 231.211 106.761 231.211 105.143C231.211 103.525 231.486 102.146 232.036 101.006C232.585 99.8661 233.34 99.0006 234.298 98.4096C235.256 97.8045 236.342 97.502 237.554 97.502C238.78 97.502 239.866 97.8045 240.81 98.4096C241.769 99.0006 242.523 99.8661 243.073 101.006C243.622 102.146 243.897 103.525 243.897 105.143C243.897 106.761 243.622 108.141 243.073 109.28C242.523 110.42 241.769 111.293 240.81 111.898C239.866 112.489 238.78 112.784 237.554 112.784ZM237.554 109.893C238.132 109.893 238.632 109.731 239.055 109.407C239.492 109.083 239.831 108.57 240.07 107.866C240.324 107.163 240.451 106.255 240.451 105.143C240.451 104.031 240.324 103.124 240.07 102.42C239.831 101.717 239.492 101.203 239.055 100.879C238.632 100.556 238.132 100.394 237.554 100.394C236.99 100.394 236.49 100.556 236.053 100.879C235.63 101.203 235.292 101.717 235.038 102.42C234.799 103.124 234.679 104.031 234.679 105.143C234.679 106.255 234.799 107.163 235.038 107.866C235.292 108.57 235.63 109.083 236.053 109.407C236.49 109.731 236.99 109.893 237.554 109.893ZM247.238 112.7C246.674 112.7 246.188 112.51 245.779 112.13C245.385 111.736 245.187 111.236 245.187 110.631C245.187 110.026 245.385 109.541 245.779 109.175C246.188 108.795 246.674 108.605 247.238 108.605C247.816 108.605 248.303 108.795 248.697 109.175C249.092 109.541 249.289 110.026 249.289 110.631C249.289 111.236 249.092 111.736 248.697 112.13C248.303 112.51 247.816 112.7 247.238 112.7ZM255.833 112.784C254.804 112.784 253.782 112.651 252.767 112.383C251.752 112.102 250.892 111.708 250.187 111.201L251.519 108.584C252.084 108.992 252.739 109.316 253.486 109.555C254.233 109.794 254.987 109.914 255.748 109.914C256.608 109.914 257.285 109.745 257.778 109.407C258.271 109.069 258.518 108.605 258.518 108.014C258.518 107.451 258.3 107.008 257.863 106.684C257.425 106.36 256.721 106.199 255.748 106.199H254.184V103.94L258.307 99.2751L258.687 100.499H250.927V97.7553H261.288V99.9716L257.186 104.637L255.452 103.644H256.446C258.264 103.644 259.639 104.053 260.569 104.869C261.499 105.685 261.965 106.733 261.965 108.014C261.965 108.844 261.746 109.625 261.309 110.357C260.872 111.075 260.203 111.659 259.3 112.109C258.398 112.559 257.243 112.784 255.833 112.784ZM236.307 120.041L236.324 119.25L239.171 116.66H239.928L237.917 118.58L237.569 118.876L236.307 120.041ZM235.819 121.223V114.774H236.437V121.223H235.819ZM239.362 121.223L237.456 118.85L237.856 118.372L240.12 121.223H239.362ZM246.691 116.616C247.063 116.616 247.385 116.689 247.657 116.833C247.936 116.973 248.151 117.187 248.301 117.477C248.458 117.767 248.536 118.132 248.536 118.572V121.223H247.918V118.633C247.918 118.151 247.803 117.79 247.57 117.546C247.344 117.297 247.021 117.172 246.604 117.172C246.29 117.172 246.018 117.239 245.785 117.372C245.559 117.5 245.382 117.688 245.254 117.937C245.132 118.181 245.071 118.476 245.071 118.824V121.223H244.453V118.633C244.453 118.151 244.337 117.79 244.105 117.546C243.873 117.297 243.548 117.172 243.13 117.172C242.823 117.172 242.553 117.239 242.32 117.372C242.088 117.5 241.908 117.688 241.78 117.937C241.658 118.181 241.597 118.476 241.597 118.824V121.223H240.979V116.66H241.571V117.894L241.476 117.677C241.615 117.346 241.839 117.089 242.146 116.903C242.459 116.712 242.828 116.616 243.252 116.616C243.699 116.616 244.079 116.729 244.392 116.955C244.706 117.176 244.909 117.508 245.002 117.955L244.758 117.859C244.892 117.488 245.127 117.19 245.463 116.964C245.806 116.732 246.215 116.616 246.691 116.616ZM249.133 122.092L252.006 113.904H252.572L249.699 122.092H249.133ZM255.463 116.616C255.834 116.616 256.159 116.689 256.438 116.833C256.722 116.973 256.943 117.187 257.1 117.477C257.262 117.767 257.343 118.132 257.343 118.572V121.223H256.725V118.633C256.725 118.151 256.603 117.79 256.36 117.546C256.121 117.297 255.785 117.172 255.35 117.172C255.024 117.172 254.74 117.239 254.496 117.372C254.258 117.5 254.072 117.688 253.939 117.937C253.811 118.181 253.748 118.476 253.748 118.824V121.223H253.13V114.774H253.748V117.911L253.626 117.677C253.771 117.346 254.003 117.089 254.322 116.903C254.641 116.712 255.021 116.616 255.463 116.616Z" fill="#1B1C22"/>
<path d="M274.849 70.9355H218.258C216.369 70.9355 214.838 72.4643 214.838 74.3501V125.879C214.838 127.765 216.369 129.294 218.258 129.294H274.849C276.738 129.294 278.269 127.765 278.269 125.879V74.3501C278.269 72.4643 276.738 70.9355 274.849 70.9355Z" stroke="#EAEBF9"/>
<path d="M146.742 133.329H90.1512C88.0905 133.329 86.4199 134.997 86.4199 137.054V193.55C86.4199 195.607 88.0905 197.275 90.1512 197.275H146.742C148.803 197.275 150.473 195.607 150.473 193.55V137.054C150.473 134.997 148.803 133.329 146.742 133.329Z" fill="#265EB4"/>
<path d="M97.1074 152.575V147.36H99.0626C99.5054 147.36 99.886 147.432 100.204 147.576C100.523 147.715 100.767 147.919 100.936 148.187C101.11 148.45 101.197 148.77 101.197 149.148C101.197 149.515 101.11 149.833 100.936 150.101C100.767 150.365 100.523 150.568 100.204 150.712C99.886 150.856 99.5054 150.928 99.0626 150.928H97.4134L97.6596 150.668V152.575H97.1074ZM97.6596 150.712L97.4134 150.444H99.0477C99.57 150.444 99.9656 150.332 100.234 150.109C100.508 149.88 100.645 149.56 100.645 149.148C100.645 148.731 100.508 148.408 100.234 148.179C99.9656 147.951 99.57 147.837 99.0477 147.837H97.4134L97.6596 147.576V150.712ZM102.184 152.575V148.664H102.692V149.729L102.639 149.543C102.749 149.245 102.933 149.019 103.192 148.865C103.45 148.706 103.771 148.626 104.154 148.626V149.14C104.134 149.14 104.115 149.14 104.095 149.14C104.075 149.135 104.055 149.133 104.035 149.133C103.622 149.133 103.299 149.26 103.065 149.513C102.831 149.761 102.714 150.116 102.714 150.578V152.575H102.184ZM106.749 152.612C106.341 152.612 105.983 152.528 105.674 152.359C105.366 152.185 105.125 151.949 104.95 151.651C104.776 151.348 104.689 151.003 104.689 150.615C104.689 150.228 104.771 149.885 104.935 149.587C105.105 149.289 105.333 149.056 105.622 148.887C105.916 148.713 106.244 148.626 106.607 148.626C106.975 148.626 107.301 148.711 107.585 148.88C107.873 149.043 108.1 149.277 108.264 149.58C108.428 149.878 108.51 150.223 108.51 150.615C108.51 150.64 108.508 150.668 108.503 150.697C108.503 150.722 108.503 150.75 108.503 150.779H105.092V150.384H108.219L108.01 150.541C108.01 150.258 107.948 150.007 107.823 149.788C107.704 149.565 107.54 149.391 107.331 149.267C107.122 149.143 106.881 149.081 106.607 149.081C106.338 149.081 106.097 149.143 105.883 149.267C105.669 149.391 105.503 149.565 105.383 149.788C105.264 150.012 105.204 150.268 105.204 150.556V150.638C105.204 150.936 105.269 151.199 105.398 151.427C105.532 151.651 105.717 151.827 105.95 151.956C106.189 152.081 106.46 152.143 106.764 152.143C107.003 152.143 107.224 152.1 107.428 152.016C107.637 151.932 107.816 151.802 107.965 151.629L108.264 151.971C108.09 152.18 107.871 152.339 107.607 152.448C107.348 152.557 107.062 152.612 106.749 152.612ZM111.215 152.612C110.827 152.612 110.479 152.528 110.171 152.359C109.867 152.185 109.628 151.949 109.454 151.651C109.28 151.348 109.193 151.003 109.193 150.615C109.193 150.223 109.28 149.878 109.454 149.58C109.628 149.282 109.867 149.048 110.171 148.88C110.479 148.711 110.827 148.626 111.215 148.626C111.549 148.626 111.85 148.691 112.118 148.82C112.387 148.949 112.598 149.143 112.753 149.401L112.357 149.669C112.223 149.471 112.056 149.324 111.857 149.23C111.658 149.135 111.442 149.088 111.208 149.088C110.929 149.088 110.678 149.153 110.454 149.282C110.23 149.406 110.054 149.582 109.924 149.811C109.795 150.039 109.73 150.307 109.73 150.615C109.73 150.923 109.795 151.192 109.924 151.42C110.054 151.648 110.23 151.827 110.454 151.956C110.678 152.081 110.929 152.143 111.208 152.143C111.442 152.143 111.658 152.095 111.857 152.001C112.056 151.907 112.223 151.763 112.357 151.569L112.753 151.837C112.598 152.091 112.387 152.284 112.118 152.418C111.85 152.547 111.549 152.612 111.215 152.612ZM113.735 152.575V148.664H114.265V152.575H113.735ZM114.004 147.799C113.894 147.799 113.802 147.762 113.728 147.688C113.653 147.613 113.616 147.524 113.616 147.419C113.616 147.315 113.653 147.228 113.728 147.159C113.802 147.084 113.894 147.047 114.004 147.047C114.113 147.047 114.205 147.082 114.28 147.151C114.355 147.221 114.392 147.308 114.392 147.412C114.392 147.521 114.355 147.613 114.28 147.688C114.21 147.762 114.118 147.799 114.004 147.799ZM117.762 152.612C117.423 152.612 117.117 152.535 116.844 152.381C116.57 152.222 116.351 151.996 116.187 151.703C116.028 151.405 115.948 151.043 115.948 150.615C115.948 150.188 116.028 149.828 116.187 149.535C116.346 149.237 116.563 149.011 116.836 148.857C117.11 148.703 117.418 148.626 117.762 148.626C118.135 148.626 118.468 148.711 118.761 148.88C119.06 149.043 119.294 149.277 119.463 149.58C119.632 149.878 119.717 150.223 119.717 150.615C119.717 151.013 119.632 151.36 119.463 151.658C119.294 151.956 119.06 152.19 118.761 152.359C118.468 152.528 118.135 152.612 117.762 152.612ZM115.739 154.02V148.664H116.247V149.841L116.194 150.623L116.269 151.413V154.02H115.739ZM117.724 152.143C118.003 152.143 118.252 152.081 118.47 151.956C118.689 151.827 118.863 151.648 118.993 151.42C119.122 151.187 119.187 150.918 119.187 150.615C119.187 150.312 119.122 150.047 118.993 149.818C118.863 149.59 118.689 149.411 118.47 149.282C118.252 149.153 118.003 149.088 117.724 149.088C117.446 149.088 117.194 149.153 116.97 149.282C116.752 149.411 116.577 149.59 116.448 149.818C116.324 150.047 116.262 150.312 116.262 150.615C116.262 150.918 116.324 151.187 116.448 151.42C116.577 151.648 116.752 151.827 116.97 151.956C117.194 152.081 117.446 152.143 117.724 152.143ZM120.74 152.612C120.63 152.612 120.536 152.572 120.456 152.493C120.382 152.413 120.344 152.317 120.344 152.202C120.344 152.083 120.382 151.986 120.456 151.912C120.536 151.837 120.63 151.8 120.74 151.8C120.849 151.8 120.941 151.837 121.016 151.912C121.095 151.986 121.135 152.083 121.135 152.202C121.135 152.317 121.095 152.413 121.016 152.493C120.941 152.572 120.849 152.612 120.74 152.612ZM124.334 152.575V147.36H126.289C126.732 147.36 127.112 147.432 127.431 147.576C127.749 147.715 127.993 147.919 128.162 148.187C128.336 148.45 128.423 148.77 128.423 149.148C128.423 149.515 128.336 149.833 128.162 150.101C127.993 150.365 127.749 150.568 127.431 150.712C127.112 150.851 126.732 150.921 126.289 150.921H124.64L124.886 150.668V152.575H124.334ZM127.901 152.575L126.558 150.682H127.155L128.505 152.575H127.901ZM124.886 150.712L124.64 150.452H126.274C126.797 150.452 127.192 150.337 127.461 150.109C127.734 149.88 127.871 149.56 127.871 149.148C127.871 148.731 127.734 148.408 127.461 148.179C127.192 147.951 126.797 147.837 126.274 147.837H124.64L124.886 147.576V150.712ZM132.033 152.575V151.711L132.011 151.569V150.124C132.011 149.791 131.917 149.535 131.728 149.356C131.543 149.178 131.267 149.088 130.899 149.088C130.645 149.088 130.404 149.13 130.175 149.215C129.946 149.299 129.752 149.411 129.593 149.55L129.354 149.155C129.553 148.986 129.792 148.857 130.071 148.768C130.349 148.673 130.643 148.626 130.951 148.626C131.459 148.626 131.849 148.753 132.123 149.006C132.402 149.255 132.541 149.635 132.541 150.146V152.575H132.033ZM130.683 152.612C130.389 152.612 130.133 152.565 129.914 152.47C129.7 152.371 129.536 152.237 129.422 152.068C129.307 151.894 129.25 151.696 129.25 151.472C129.25 151.269 129.297 151.085 129.392 150.921C129.491 150.752 129.65 150.618 129.869 150.519C130.093 150.414 130.392 150.362 130.765 150.362H132.116V150.757H130.78C130.402 150.757 130.138 150.824 129.989 150.958C129.844 151.092 129.772 151.259 129.772 151.457C129.772 151.681 129.859 151.86 130.034 151.994C130.208 152.128 130.451 152.195 130.765 152.195C131.063 152.195 131.32 152.128 131.533 151.994C131.752 151.855 131.912 151.656 132.011 151.398L132.13 151.763C132.031 152.021 131.857 152.227 131.608 152.381C131.364 152.535 131.056 152.612 130.683 152.612ZM135.219 152.612C134.851 152.612 134.567 152.513 134.368 152.314C134.169 152.115 134.07 151.835 134.07 151.472V147.799H134.599V151.442C134.599 151.671 134.657 151.847 134.771 151.971C134.89 152.095 135.06 152.158 135.279 152.158C135.512 152.158 135.706 152.091 135.861 151.956L136.047 152.336C135.943 152.431 135.816 152.5 135.667 152.545C135.522 152.59 135.373 152.612 135.219 152.612ZM133.368 149.103V148.664H135.793V149.103H133.368ZM138.537 152.612C138.129 152.612 137.771 152.528 137.463 152.359C137.154 152.185 136.913 151.949 136.739 151.651C136.565 151.348 136.478 151.003 136.478 150.615C136.478 150.228 136.56 149.885 136.724 149.587C136.893 149.289 137.122 149.056 137.411 148.887C137.704 148.713 138.032 148.626 138.396 148.626C138.764 148.626 139.09 148.711 139.373 148.88C139.662 149.043 139.888 149.277 140.052 149.58C140.216 149.878 140.299 150.223 140.299 150.615C140.299 150.64 140.296 150.668 140.291 150.697C140.291 150.722 140.291 150.75 140.291 150.779H136.881V150.384H140.007L139.799 150.541C139.799 150.258 139.736 150.007 139.612 149.788C139.493 149.565 139.328 149.391 139.119 149.267C138.91 149.143 138.669 149.081 138.396 149.081C138.127 149.081 137.886 149.143 137.672 149.267C137.458 149.391 137.291 149.565 137.172 149.788C137.052 150.012 136.993 150.268 136.993 150.556V150.638C136.993 150.936 137.057 151.199 137.187 151.427C137.321 151.651 137.505 151.827 137.739 151.956C137.978 152.081 138.249 152.143 138.552 152.143C138.791 152.143 139.012 152.1 139.216 152.016C139.425 151.932 139.604 151.802 139.754 151.629L140.052 151.971C139.878 152.18 139.659 152.339 139.396 152.448C139.137 152.557 138.851 152.612 138.537 152.612Z" fill="#FEFBFF"/>
<path d="M118.44 177.041C117.227 177.041 116.142 176.746 115.184 176.155C114.225 175.549 113.471 174.677 112.921 173.537C112.371 172.397 112.097 171.019 112.097 169.4C112.097 167.781 112.371 166.403 112.921 165.263C113.471 164.123 114.225 163.257 115.184 162.666C116.142 162.061 117.227 161.759 118.44 161.759C119.666 161.759 120.751 162.061 121.696 162.666C122.654 163.257 123.408 164.123 123.958 165.263C124.508 166.403 124.783 167.781 124.783 169.4C124.783 171.019 124.508 172.397 123.958 173.537C123.408 174.677 122.654 175.549 121.696 176.155C120.751 176.746 119.666 177.041 118.44 177.041ZM118.44 174.149C119.018 174.149 119.518 173.987 119.941 173.664C120.378 173.34 120.716 172.826 120.956 172.123C121.209 171.42 121.336 170.512 121.336 169.4C121.336 168.288 121.209 167.38 120.956 166.677C120.716 165.974 120.378 165.46 119.941 165.136C119.518 164.813 119.018 164.651 118.44 164.651C117.876 164.651 117.375 164.813 116.938 165.136C116.516 165.46 116.177 165.974 115.924 166.677C115.684 167.38 115.564 168.288 115.564 169.4C115.564 170.512 115.684 171.42 115.924 172.123C116.177 172.826 116.516 173.34 116.938 173.664C117.375 173.987 117.876 174.149 118.44 174.149ZM111.387 180.873C111.759 180.873 112.081 180.946 112.353 181.09C112.632 181.229 112.847 181.444 112.998 181.733C113.154 182.023 113.233 182.388 113.233 182.829V185.48H112.615V182.889C112.615 182.408 112.499 182.046 112.266 181.803C112.04 181.554 111.718 181.429 111.3 181.429C110.987 181.429 110.714 181.496 110.482 181.629C110.255 181.756 110.078 181.945 109.951 182.194C109.829 182.437 109.768 182.733 109.768 183.081V185.48H109.15V182.889C109.15 182.408 109.034 182.046 108.801 181.803C108.569 181.554 108.244 181.429 107.826 181.429C107.519 181.429 107.249 181.496 107.017 181.629C106.784 181.756 106.604 181.945 106.477 182.194C106.355 182.437 106.294 182.733 106.294 183.081V185.48H105.676V180.916H106.268V182.151L106.172 181.933C106.311 181.603 106.535 181.345 106.842 181.16C107.156 180.969 107.524 180.873 107.948 180.873C108.395 180.873 108.775 180.986 109.089 181.212C109.402 181.432 109.605 181.765 109.698 182.212L109.454 182.116C109.588 181.745 109.823 181.447 110.159 181.221C110.502 180.989 110.911 180.873 111.387 180.873ZM120.62 180.873C120.992 180.873 121.314 180.946 121.587 181.09C121.865 181.229 122.08 181.444 122.231 181.733C122.388 182.023 122.466 182.388 122.466 182.829V185.48H121.848V182.889C121.848 182.408 121.732 182.046 121.5 181.803C121.273 181.554 120.951 181.429 120.533 181.429C120.22 181.429 119.947 181.496 119.715 181.629C119.489 181.756 119.312 181.945 119.184 182.194C119.062 182.437 119.001 182.733 119.001 183.081V185.48H118.383V182.889C118.383 182.408 118.267 182.046 118.035 181.803C117.803 181.554 117.478 181.429 117.06 181.429C116.752 181.429 116.482 181.496 116.25 181.629C116.018 181.756 115.838 181.945 115.71 182.194C115.588 182.437 115.527 182.733 115.527 183.081V185.48H114.909V180.916H115.501V182.151L115.405 181.933C115.545 181.603 115.768 181.345 116.076 181.16C116.389 180.969 116.758 180.873 117.182 180.873C117.628 180.873 118.009 180.986 118.322 181.212C118.635 181.432 118.839 181.765 118.931 182.212L118.688 182.116C118.821 181.745 119.056 181.447 119.393 181.221C119.735 180.989 120.145 180.873 120.62 180.873ZM123.063 186.349L125.936 178.161H126.502L123.629 186.349H123.063ZM129.392 180.873C129.764 180.873 130.089 180.946 130.367 181.09C130.652 181.229 130.872 181.444 131.029 181.733C131.191 182.023 131.273 182.388 131.273 182.829V185.48H130.655V182.889C130.655 182.408 130.533 182.046 130.289 181.803C130.051 181.554 129.714 181.429 129.279 181.429C128.954 181.429 128.669 181.496 128.426 181.629C128.188 181.756 128.002 181.945 127.869 182.194C127.741 182.437 127.677 182.733 127.677 183.081V185.48H127.059V179.03H127.677V182.168L127.555 181.933C127.7 181.603 127.932 181.345 128.252 181.16C128.571 180.969 128.951 180.873 129.392 180.873Z" fill="#FEFBFF"/>
<path d="M207.064 133.329H157.936C155.876 133.329 154.205 134.997 154.205 137.054V193.55C154.205 195.607 155.876 197.275 157.936 197.275H207.064C209.125 197.275 210.796 195.607 210.796 193.55V137.054C210.796 134.997 209.125 133.329 207.064 133.329Z" fill="#75B2A1"/>
<path d="M169.637 147.36H170.182V152.575H169.637V147.36ZM166.369 152.575H165.816V147.36H166.369V152.575ZM169.689 150.168H166.309V149.684H169.689V150.168ZM173.394 152.612C173.061 152.612 172.77 152.55 172.521 152.426C172.272 152.302 172.078 152.115 171.939 151.867C171.804 151.619 171.737 151.308 171.737 150.936V148.664H172.267V150.876C172.267 151.293 172.369 151.609 172.573 151.822C172.782 152.031 173.073 152.135 173.446 152.135C173.72 152.135 173.956 152.081 174.155 151.971C174.359 151.857 174.513 151.693 174.618 151.48C174.727 151.266 174.782 151.01 174.782 150.712V148.664H175.312V152.575H174.804V151.502L174.886 151.696C174.762 151.984 174.568 152.21 174.304 152.374C174.046 152.533 173.742 152.612 173.394 152.612ZM181.684 148.626C182.003 148.626 182.279 148.688 182.513 148.813C182.751 148.932 182.935 149.115 183.065 149.364C183.199 149.612 183.266 149.925 183.266 150.303V152.575H182.736V150.355C182.736 149.942 182.637 149.632 182.438 149.423C182.244 149.21 181.968 149.103 181.61 149.103C181.341 149.103 181.107 149.16 180.908 149.274C180.714 149.384 180.562 149.545 180.453 149.759C180.348 149.967 180.296 150.221 180.296 150.519V152.575H179.766V150.355C179.766 149.942 179.667 149.632 179.468 149.423C179.269 149.21 178.99 149.103 178.632 149.103C178.368 149.103 178.137 149.16 177.938 149.274C177.739 149.384 177.585 149.545 177.475 149.759C177.371 149.967 177.319 150.221 177.319 150.519V152.575H176.789V148.664H177.296V149.721L177.214 149.535C177.334 149.252 177.525 149.031 177.789 148.872C178.057 148.708 178.373 148.626 178.736 148.626C179.12 148.626 179.445 148.723 179.714 148.917C179.983 149.106 180.157 149.391 180.236 149.774L180.027 149.692C180.142 149.374 180.343 149.118 180.632 148.924C180.925 148.726 181.276 148.626 181.684 148.626ZM184.703 152.575V148.664H185.233V152.575H184.703ZM184.971 147.799C184.862 147.799 184.77 147.762 184.695 147.688C184.621 147.613 184.583 147.524 184.583 147.419C184.583 147.315 184.621 147.228 184.695 147.159C184.77 147.084 184.862 147.047 184.971 147.047C185.081 147.047 185.173 147.082 185.248 147.151C185.322 147.221 185.359 147.308 185.359 147.412C185.359 147.521 185.322 147.613 185.248 147.688C185.178 147.762 185.086 147.799 184.971 147.799ZM188.267 152.612C187.894 152.612 187.558 152.528 187.259 152.359C186.966 152.19 186.734 151.956 186.565 151.658C186.396 151.355 186.312 151.008 186.312 150.615C186.312 150.218 186.396 149.87 186.565 149.572C186.734 149.274 186.966 149.043 187.259 148.88C187.558 148.711 187.894 148.626 188.267 148.626C188.61 148.626 188.916 148.703 189.185 148.857C189.458 149.011 189.675 149.237 189.834 149.535C189.998 149.828 190.08 150.188 190.08 150.615C190.08 151.038 190 151.398 189.841 151.696C189.682 151.994 189.466 152.222 189.192 152.381C188.923 152.535 188.615 152.612 188.267 152.612ZM188.304 152.143C188.583 152.143 188.831 152.081 189.05 151.956C189.274 151.827 189.448 151.648 189.573 151.42C189.702 151.187 189.767 150.918 189.767 150.615C189.767 150.307 189.702 150.039 189.573 149.811C189.448 149.582 189.274 149.406 189.05 149.282C188.831 149.153 188.583 149.088 188.304 149.088C188.03 149.088 187.784 149.153 187.565 149.282C187.346 149.406 187.172 149.582 187.043 149.811C186.914 150.039 186.849 150.307 186.849 150.615C186.849 150.918 186.914 151.187 187.043 151.42C187.172 151.648 187.346 151.827 187.565 151.956C187.784 152.081 188.03 152.143 188.304 152.143ZM189.782 152.575V151.398L189.834 150.608L189.759 149.818V147.047H190.289V152.575H189.782ZM191.765 152.575V148.664H192.295V152.575H191.765ZM192.033 147.799C191.924 147.799 191.832 147.762 191.757 147.688C191.683 147.613 191.645 147.524 191.645 147.419C191.645 147.315 191.683 147.228 191.757 147.159C191.832 147.084 191.924 147.047 192.033 147.047C192.143 147.047 192.235 147.082 192.31 147.151C192.384 147.221 192.421 147.308 192.421 147.412C192.421 147.521 192.384 147.613 192.31 147.688C192.24 147.762 192.148 147.799 192.033 147.799ZM195.008 152.612C194.64 152.612 194.356 152.513 194.157 152.314C193.958 152.115 193.859 151.835 193.859 151.472V147.799H194.388V151.442C194.388 151.671 194.446 151.847 194.56 151.971C194.679 152.095 194.849 152.158 195.068 152.158C195.301 152.158 195.495 152.091 195.65 151.956L195.836 152.336C195.732 152.431 195.605 152.5 195.456 152.545C195.311 152.59 195.162 152.612 195.008 152.612ZM193.157 149.103V148.664H195.582V149.103H193.157ZM196.757 154.057C196.573 154.057 196.396 154.028 196.227 153.968C196.063 153.908 195.921 153.819 195.802 153.7L196.048 153.305C196.148 153.399 196.255 153.471 196.369 153.521C196.489 153.576 196.62 153.603 196.765 153.603C196.939 153.603 197.088 153.553 197.212 153.454C197.342 153.36 197.464 153.191 197.578 152.947L197.832 152.374L197.891 152.292L199.503 148.664H200.026L198.063 153.044C197.954 153.297 197.832 153.499 197.697 153.648C197.568 153.797 197.426 153.901 197.272 153.96C197.118 154.025 196.946 154.057 196.757 154.057ZM197.802 152.687L195.996 148.664H196.548L198.145 152.254L197.802 152.687Z" fill="#1B1C22"/>
<path d="M169.58 173.685V171.384L176.558 162.012H180.152L173.323 171.384L171.652 170.898H183.302V173.685H169.58ZM177.551 176.788V173.685L177.657 170.898V168.133H180.892V176.788H177.551ZM189.359 177.041C188.33 177.041 187.308 176.907 186.293 176.64C185.292 176.359 184.432 175.964 183.713 175.458L185.067 172.84C185.631 173.248 186.279 173.572 187.012 173.811C187.759 174.05 188.513 174.17 189.274 174.17C190.134 174.17 190.811 174.001 191.304 173.664C191.798 173.326 192.044 172.855 192.044 172.249C192.044 171.869 191.946 171.532 191.748 171.236C191.551 170.941 191.198 170.715 190.691 170.561C190.198 170.406 189.5 170.328 188.598 170.328H184.813L185.574 162.012H194.602V164.756H186.8L188.576 163.194L188.048 169.125L186.272 167.563H189.401C190.867 167.563 192.044 167.767 192.932 168.175C193.834 168.57 194.49 169.111 194.898 169.801C195.308 170.49 195.512 171.271 195.512 172.144C195.512 173.016 195.293 173.826 194.856 174.571C194.42 175.303 193.743 175.901 192.826 176.365C191.925 176.815 190.769 177.041 189.359 177.041ZM180.163 185.479L184.324 179.395H184.838L180.676 185.479H180.163ZM180.633 182.654C180.36 182.654 180.119 182.588 179.91 182.455C179.701 182.315 179.539 182.121 179.422 181.872C179.312 181.623 179.257 181.333 179.257 181.003C179.257 180.673 179.312 180.383 179.422 180.134C179.539 179.885 179.701 179.694 179.91 179.56C180.119 179.421 180.36 179.352 180.633 179.352C180.906 179.352 181.144 179.421 181.347 179.56C181.556 179.694 181.718 179.885 181.834 180.134C181.95 180.383 182.008 180.673 182.008 181.003C182.008 181.333 181.95 181.623 181.834 181.872C181.718 182.121 181.556 182.315 181.347 182.455C181.144 182.588 180.906 182.654 180.633 182.654ZM180.633 182.263C180.917 182.263 181.144 182.153 181.312 181.933C181.486 181.707 181.573 181.397 181.573 181.003C181.573 180.609 181.486 180.302 181.312 180.082C181.144 179.856 180.917 179.743 180.633 179.743C180.343 179.743 180.113 179.856 179.945 180.082C179.777 180.302 179.692 180.609 179.692 181.003C179.692 181.397 179.777 181.707 179.945 181.933C180.113 182.153 180.343 182.263 180.633 182.263ZM184.368 185.523C184.101 185.523 183.863 185.456 183.654 185.323C183.445 185.184 183.282 184.989 183.166 184.74C183.051 184.491 182.992 184.202 182.992 183.871C182.992 183.541 183.051 183.251 183.166 183.002C183.282 182.753 183.445 182.562 183.654 182.428C183.863 182.289 184.101 182.22 184.368 182.22C184.646 182.22 184.888 182.289 185.09 182.428C185.299 182.562 185.459 182.753 185.569 183.002C185.685 183.251 185.743 183.541 185.743 183.871C185.743 184.202 185.685 184.491 185.569 184.74C185.459 184.989 185.299 185.184 185.09 185.323C184.888 185.456 184.646 185.523 184.368 185.523ZM184.368 185.132C184.652 185.132 184.879 185.022 185.047 184.801C185.221 184.575 185.308 184.265 185.308 183.871C185.308 183.477 185.221 183.17 185.047 182.95C184.879 182.724 184.652 182.611 184.368 182.611C184.083 182.611 183.854 182.724 183.68 182.95C183.512 183.17 183.427 183.477 183.427 183.871C183.427 184.265 183.512 184.575 183.68 184.801C183.854 185.022 184.083 185.132 184.368 185.132Z" fill="#1B1C22"/>
<path d="M274.849 133.329H218.259C216.198 133.329 214.527 134.997 214.527 137.054V193.55C214.527 195.607 216.198 197.275 218.259 197.275H274.849C276.91 197.275 278.58 195.607 278.58 193.55V137.054C278.58 134.997 276.91 133.329 274.849 133.329Z" fill="#FFCE49"/>
<path d="M228.711 152.575V147.36H229.263V152.575H228.711ZM230.851 152.575V148.664H231.359V149.729L231.307 149.543C231.416 149.245 231.6 149.019 231.859 148.865C232.118 148.706 232.438 148.626 232.822 148.626V149.14C232.802 149.14 232.782 149.14 232.762 149.14C232.742 149.135 232.722 149.133 232.702 149.133C232.289 149.133 231.966 149.26 231.732 149.513C231.498 149.761 231.381 150.116 231.381 150.578V152.575H230.851ZM233.788 152.575V148.664H234.295V149.729L234.243 149.543C234.353 149.245 234.537 149.019 234.795 148.865C235.054 148.706 235.375 148.626 235.758 148.626V149.14C235.738 149.14 235.718 149.14 235.698 149.14C235.678 149.135 235.659 149.133 235.639 149.133C235.226 149.133 234.902 149.26 234.669 149.513C234.435 149.761 234.318 150.116 234.318 150.578V152.575H233.788ZM238.889 152.575V151.711L238.866 151.569V150.124C238.866 149.791 238.772 149.535 238.583 149.356C238.399 149.178 238.122 149.088 237.754 149.088C237.501 149.088 237.259 149.13 237.03 149.215C236.802 149.299 236.608 149.411 236.448 149.55L236.21 149.155C236.409 148.986 236.647 148.857 236.926 148.768C237.205 148.673 237.498 148.626 237.806 148.626C238.314 148.626 238.704 148.753 238.978 149.006C239.257 149.255 239.396 149.635 239.396 150.146V152.575H238.889ZM237.538 152.612C237.244 152.612 236.988 152.565 236.769 152.47C236.555 152.371 236.391 152.237 236.277 152.068C236.162 151.894 236.105 151.696 236.105 151.472C236.105 151.269 236.152 151.085 236.247 150.921C236.346 150.752 236.506 150.618 236.724 150.519C236.948 150.414 237.247 150.362 237.62 150.362H238.971V150.757H237.635C237.257 150.757 236.993 150.824 236.844 150.958C236.7 151.092 236.627 151.259 236.627 151.457C236.627 151.681 236.714 151.86 236.889 151.994C237.063 152.128 237.306 152.195 237.62 152.195C237.918 152.195 238.175 152.128 238.389 151.994C238.607 151.855 238.767 151.656 238.866 151.398L238.986 151.763C238.886 152.021 238.712 152.227 238.463 152.381C238.219 152.535 237.911 152.612 237.538 152.612ZM242.395 152.612C242.022 152.612 241.686 152.528 241.387 152.359C241.094 152.19 240.862 151.956 240.693 151.658C240.524 151.355 240.44 151.008 240.44 150.615C240.44 150.218 240.524 149.87 240.693 149.572C240.862 149.274 241.094 149.043 241.387 148.88C241.686 148.711 242.022 148.626 242.395 148.626C242.738 148.626 243.044 148.703 243.313 148.857C243.586 149.011 243.803 149.237 243.962 149.535C244.126 149.828 244.208 150.188 244.208 150.615C244.208 151.038 244.128 151.398 243.969 151.696C243.81 151.994 243.594 152.222 243.32 152.381C243.051 152.535 242.743 152.612 242.395 152.612ZM242.432 152.143C242.711 152.143 242.959 152.081 243.178 151.956C243.402 151.827 243.576 151.648 243.701 151.42C243.83 151.187 243.895 150.918 243.895 150.615C243.895 150.307 243.83 150.039 243.701 149.811C243.576 149.582 243.402 149.406 243.178 149.282C242.959 149.153 242.711 149.088 242.432 149.088C242.158 149.088 241.912 149.153 241.693 149.282C241.474 149.406 241.3 149.582 241.171 149.811C241.041 150.039 240.977 150.307 240.977 150.615C240.977 150.918 241.041 151.187 241.171 151.42C241.3 151.648 241.474 151.827 241.693 151.956C241.912 152.081 242.158 152.143 242.432 152.143ZM243.91 152.575V151.398L243.962 150.608L243.887 149.818V147.047H244.417V152.575H243.91ZM245.893 152.575V148.664H246.423V152.575H245.893ZM246.161 147.799C246.052 147.799 245.96 147.762 245.885 147.688C245.811 147.613 245.773 147.524 245.773 147.419C245.773 147.315 245.811 147.228 245.885 147.159C245.96 147.084 246.052 147.047 246.161 147.047C246.271 147.047 246.363 147.082 246.437 147.151C246.512 147.221 246.549 147.308 246.549 147.412C246.549 147.521 246.512 147.613 246.437 147.688C246.368 147.762 246.276 147.799 246.161 147.799ZM250.352 152.575V151.711L250.33 151.569V150.124C250.33 149.791 250.235 149.535 250.046 149.356C249.862 149.178 249.586 149.088 249.218 149.088C248.964 149.088 248.723 149.13 248.494 149.215C248.265 149.299 248.071 149.411 247.912 149.55L247.673 149.155C247.872 148.986 248.111 148.857 248.39 148.768C248.668 148.673 248.962 148.626 249.27 148.626C249.778 148.626 250.168 148.753 250.442 149.006C250.72 149.255 250.86 149.635 250.86 150.146V152.575H250.352ZM249.001 152.612C248.708 152.612 248.452 152.565 248.233 152.47C248.019 152.371 247.855 152.237 247.74 152.068C247.626 151.894 247.569 151.696 247.569 151.472C247.569 151.269 247.616 151.085 247.71 150.921C247.81 150.752 247.969 150.618 248.188 150.519C248.412 150.414 248.71 150.362 249.084 150.362H250.434V150.757H249.098C248.72 150.757 248.457 150.824 248.307 150.958C248.163 151.092 248.091 151.259 248.091 151.457C248.091 151.681 248.178 151.86 248.352 151.994C248.526 152.128 248.77 152.195 249.084 152.195C249.382 152.195 249.638 152.128 249.852 151.994C250.071 151.855 250.23 151.656 250.33 151.398L250.449 151.763C250.35 152.021 250.176 152.227 249.927 152.381C249.683 152.535 249.375 152.612 249.001 152.612ZM254.299 148.626C254.617 148.626 254.896 148.688 255.134 148.813C255.378 148.932 255.567 149.115 255.702 149.364C255.841 149.612 255.911 149.925 255.911 150.303V152.575H255.381V150.355C255.381 149.942 255.276 149.632 255.067 149.423C254.863 149.21 254.575 149.103 254.202 149.103C253.923 149.103 253.679 149.16 253.47 149.274C253.266 149.384 253.107 149.545 252.993 149.759C252.883 149.967 252.828 150.221 252.828 150.519V152.575H252.299V148.664H252.806V149.736L252.724 149.535C252.848 149.252 253.047 149.031 253.321 148.872C253.595 148.708 253.92 148.626 254.299 148.626ZM258.968 152.612C258.58 152.612 258.232 152.528 257.924 152.359C257.62 152.185 257.381 151.949 257.207 151.651C257.033 151.348 256.946 151.003 256.946 150.615C256.946 150.223 257.033 149.878 257.207 149.58C257.381 149.282 257.62 149.048 257.924 148.88C258.232 148.711 258.58 148.626 258.968 148.626C259.302 148.626 259.603 148.691 259.871 148.82C260.14 148.949 260.351 149.143 260.506 149.401L260.11 149.669C259.976 149.471 259.809 149.324 259.61 149.23C259.411 149.135 259.195 149.088 258.961 149.088C258.682 149.088 258.431 149.153 258.207 149.282C257.983 149.406 257.807 149.582 257.677 149.811C257.548 150.039 257.483 150.307 257.483 150.615C257.483 150.923 257.548 151.192 257.677 151.42C257.807 151.648 257.983 151.827 258.207 151.956C258.431 152.081 258.682 152.143 258.961 152.143C259.195 152.143 259.411 152.095 259.61 152.001C259.809 151.907 259.976 151.763 260.11 151.569L260.506 151.837C260.351 152.091 260.14 152.284 259.871 152.418C259.603 152.547 259.302 152.612 258.968 152.612ZM263.145 152.612C262.737 152.612 262.379 152.528 262.07 152.359C261.762 152.185 261.52 151.949 261.346 151.651C261.172 151.348 261.085 151.003 261.085 150.615C261.085 150.228 261.167 149.885 261.331 149.587C261.501 149.289 261.729 149.056 262.018 148.887C262.311 148.713 262.64 148.626 263.003 148.626C263.371 148.626 263.697 148.711 263.981 148.88C264.269 149.043 264.495 149.277 264.66 149.58C264.824 149.878 264.906 150.223 264.906 150.615C264.906 150.64 264.903 150.668 264.898 150.697C264.898 150.722 264.898 150.75 264.898 150.779H261.488V150.384H264.615L264.406 150.541C264.406 150.258 264.344 150.007 264.219 149.788C264.1 149.565 263.936 149.391 263.727 149.267C263.518 149.143 263.277 149.081 263.003 149.081C262.734 149.081 262.493 149.143 262.279 149.267C262.065 149.391 261.899 149.565 261.779 149.788C261.66 150.012 261.6 150.268 261.6 150.556V150.638C261.6 150.936 261.665 151.199 261.794 151.427C261.928 151.651 262.112 151.827 262.346 151.956C262.585 152.081 262.856 152.143 263.16 152.143C263.399 152.143 263.62 152.1 263.824 152.016C264.033 151.932 264.212 151.802 264.361 151.629L264.66 151.971C264.486 152.18 264.267 152.339 264.003 152.448C263.744 152.557 263.458 152.612 263.145 152.612Z" fill="#1B1C22"/>
<path d="M246.545 177.041C245.333 177.041 244.247 176.746 243.289 176.155C242.331 175.549 241.576 174.677 241.027 173.537C240.477 172.397 240.202 171.019 240.202 169.4C240.202 167.781 240.477 166.403 241.027 165.263C241.576 164.123 242.331 163.257 243.289 162.666C244.247 162.061 245.333 161.759 246.545 161.759C247.771 161.759 248.857 162.061 249.801 162.666C250.76 163.257 251.514 164.123 252.064 165.263C252.613 166.403 252.888 167.781 252.888 169.4C252.888 171.019 252.613 172.397 252.064 173.537C251.514 174.677 250.76 175.549 249.801 176.155C248.857 176.746 247.771 177.041 246.545 177.041ZM246.545 174.149C247.123 174.149 247.623 173.987 248.046 173.664C248.483 173.34 248.822 172.826 249.061 172.123C249.315 171.42 249.442 170.512 249.442 169.4C249.442 168.288 249.315 167.38 249.061 166.677C248.822 165.974 248.483 165.46 248.046 165.136C247.623 164.813 247.123 164.651 246.545 164.651C245.981 164.651 245.481 164.813 245.044 165.136C244.621 165.46 244.283 165.974 244.029 166.677C243.79 167.38 243.67 168.288 243.67 169.4C243.67 170.512 243.79 171.42 244.029 172.123C244.283 172.826 244.621 173.34 245.044 173.664C245.481 173.987 245.981 174.149 246.545 174.149ZM236.417 185.48L234.693 180.916H235.285L236.853 185.149H236.583L238.193 180.916H238.724L240.318 185.149H240.048L241.641 180.916H242.207L240.474 185.48H239.891L238.359 181.499H238.542L237.001 185.48H236.417ZM241.803 186.349L244.676 178.161H245.242L242.369 186.349H241.803ZM250.915 180.873C251.287 180.873 251.609 180.946 251.881 181.09C252.16 181.229 252.375 181.444 252.526 181.733C252.682 182.023 252.761 182.388 252.761 182.829V185.48H252.143V182.889C252.143 182.408 252.027 182.046 251.794 181.803C251.568 181.554 251.246 181.429 250.828 181.429C250.514 181.429 250.242 181.496 250.01 181.629C249.783 181.756 249.607 181.945 249.478 182.194C249.357 182.437 249.296 182.733 249.296 183.081V185.48H248.677V182.889C248.677 182.408 248.562 182.046 248.329 181.803C248.097 181.554 247.772 181.429 247.354 181.429C247.047 181.429 246.777 181.496 246.544 181.629C246.312 181.756 246.133 181.945 246.005 182.194C245.883 182.437 245.822 182.733 245.822 183.081V185.48H245.204V180.916H245.796V182.151L245.7 181.933C245.839 181.603 246.063 181.345 246.37 181.16C246.684 180.969 247.052 180.873 247.476 180.873C247.923 180.873 248.303 180.986 248.617 181.212C248.93 181.432 249.133 181.765 249.226 182.212L248.982 182.116C249.116 181.745 249.351 181.447 249.687 181.221C250.03 180.989 250.439 180.873 250.915 180.873ZM253.873 185.48V185.036L256.406 182.559C256.638 182.333 256.812 182.136 256.929 181.968C257.044 181.794 257.123 181.632 257.164 181.481C257.204 181.331 257.225 181.189 257.225 181.056C257.225 180.702 257.103 180.424 256.859 180.221C256.621 180.018 256.267 179.917 255.797 179.917C255.437 179.917 255.118 179.972 254.839 180.082C254.566 180.192 254.331 180.363 254.134 180.595L253.69 180.212C253.927 179.934 254.232 179.72 254.604 179.569C254.975 179.418 255.39 179.343 255.849 179.343C256.261 179.343 256.618 179.41 256.92 179.543C257.221 179.67 257.453 179.859 257.616 180.108C257.784 180.357 257.869 180.65 257.869 180.986C257.869 181.183 257.84 181.377 257.782 181.568C257.729 181.76 257.631 181.963 257.486 182.177C257.346 182.385 257.14 182.623 256.868 182.889L254.543 185.167L254.369 184.923H258.147V185.48H253.873Z" fill="#1B1C22"/>
</g>
</g>
<defs>
<filter id="filter0_d_10_8091" x="0.0415535" y="0.564793" width="364.409" height="363.572" filterUnits="userSpaceOnUse" color-interpolation-filters="sRGB">
<feFlood flood-opacity="0" result="BackgroundImageFix"/>
<feColorMatrix in="SourceAlpha" type="matrix" values="0 0 0 0 0 0 0 0 0 0 0 0 0 0 0 0 0 0 127 0" result="hardAlpha"/>
<feOffset dy="43.5232"/>
<feGaussianBlur stdDeviation="27.9792"/>
<feComposite in2="hardAlpha" operator="out"/>
<feColorMatrix type="matrix" values="0 0 0 0 0 0 0 0 0 0 0 0 0 0 0 0 0 0 0.25 0"/>
<feBlend mode="normal" in2="BackgroundImageFix" result="effect1_dropShadow_10_8091"/>
<feBlend mode="normal" in="SourceGraphic" in2="effect1_dropShadow_10_8091" result="shape"/>
</filter>
<filter id="filter1_i_10_8091" x="56" y="13" width="252.492" height="251.655" filterUnits="userSpaceOnUse" color-interpolation-filters="sRGB">
<feFlood flood-opacity="0" result="BackgroundImageFix"/>
<feBlend mode="normal" in="SourceGraphic" in2="BackgroundImageFix" result="shape"/>
<feColorMatrix in="SourceAlpha" type="matrix" values="0 0 0 0 0 0 0 0 0 0 0 0 0 0 0 0 0 0 127 0" result="hardAlpha"/>
<feOffset/>
<feGaussianBlur stdDeviation="4.6632"/>
<feComposite in2="hardAlpha" operator="arithmetic" k2="-1" k3="1"/>
<feColorMatrix type="matrix" values="0 0 0 0 0 0 0 0 0 0 0 0 0 0 0 0 0 0 1 0"/>
<feBlend mode="normal" in2="shape" result="effect1_innerShadow_10_8091"/>
</filter>
<clipPath id="clip0_10_8091">
<rect width="199" height="149" fill="white" transform="translate(83 52)"/>
</clipPath>
</defs>
</svg>
