<svg fill="none" height="525" viewBox="0 0 662 525" width="662" xmlns="http://www.w3.org/2000/svg" xmlns:xlink="http://www.w3.org/1999/xlink"><filter id="a" color-interpolation-filters="sRGB" filterUnits="userSpaceOnUse" height="75.7793" width="76.031" x="167.859" y="314.095"><feFlood flood-opacity="0" result="BackgroundImageFix"/><feBlend in="SourceGraphic" in2="BackgroundImageFix" mode="normal" result="shape"/><feColorMatrix in="SourceAlpha" result="hardAlpha" type="matrix" values="0 0 0 0 0 0 0 0 0 0 0 0 0 0 0 0 0 0 127 0"/><feOffset/><feGaussianBlur stdDeviation="1.4042"/><feComposite in2="hardAlpha" k2="-1" k3="1" operator="arithmetic"/><feColorMatrix type="matrix" values="0 0 0 0 0 0 0 0 0 0 0 0 0 0 0 0 0 0 1 0"/><feBlend in2="shape" mode="normal" result="effect1_innerShadow_35_571"/></filter><path d="m.537598 0h661.292v524.056h-661.292z" fill="#fff"/><path d="m549.435 78.2791h-436.51c-3.531 0-6.393 2.8622-6.393 6.3929v312.863c0 3.53 2.862 6.392 6.393 6.392h436.51c3.531 0 6.393-2.862 6.393-6.392v-312.863c0-3.5307-2.862-6.3929-6.393-6.3929z" fill="#0b3254"/><path d="m545.896 387.602v-292.9969c0-3.5307-2.862-6.3929-6.393-6.3929h-416.644c-3.531 0-6.393 2.8622-6.393 6.3929v292.9969c0 3.53 2.862 6.392 6.393 6.392h416.644c3.531 0 6.393-2.862 6.393-6.392z" fill="#fff"/><path d="m308.39 103.465h-166.612c-3.343 0-6.054 2.862-6.054 6.393v262.489c0 3.53 2.711 6.393 6.054 6.393h166.612c3.344 0 6.054-2.863 6.054-6.393v-262.489c0-3.531-2.71-6.393-6.054-6.393z" fill="#c4c4c5"/><path d="m141.429 109.423h167.312c.034 0 .06.03.06.064v263.231c0 .036-.028.063-.06.063h-167.312c-.034 0-.06-.03-.06-.063v-263.231c0-.036.028-.064.06-.064z" fill="#eaf7ff"/><g fill="#fff"><path d="m283.099 109.423-141.734 131.861v-41.495l97.13-90.366z"/><path d="m308.799 132.935v31.123l-167.434 155.771v-31.122z"/><path d="m308.801 205.553v57.798l-117.621 109.43h-49.751c-.034 0-.06-.027-.06-.063v-11.392l167.432-155.771z"/></g><path d="m520.592 103.465h-166.612c-3.344 0-6.054 2.862-6.054 6.393v262.489c0 3.53 2.71 6.393 6.054 6.393h166.612c3.343 0 6.054-2.863 6.054-6.393v-262.489c0-3.531-2.711-6.393-6.054-6.393z" fill="#c4c4c5"/><path d="m353.63 109.423h167.313c.034 0 .06.03.06.064v263.231c0 .036-.028.063-.06.063h-167.313c-.034 0-.059-.03-.059-.063v-263.231c0-.036.027-.064.059-.064z" fill="#eaf7ff"/><path d="m495.303 109.423-141.732 131.861v-41.495l97.128-90.366z" fill="#fff"/><path d="m521.003 132.935v31.123l-167.432 155.771v-31.122z" fill="#fff"/><path d="m521.003 205.553v57.798l-117.621 109.43h-49.752c-.034 0-.059-.027-.059-.063v-11.392l167.432-155.771z" fill="#fff"/><path d="m572.165 390.665h-481.9623c-6.2882 0-11.3858 5.098-11.3858 11.386v8.284c0 6.288 5.0976 11.386 11.3858 11.386h481.9623c6.288 0 11.386-5.098 11.386-11.386v-8.284c0-6.288-5.098-11.386-11.386-11.386z" fill="#0b3254"/><path d="m576.589 399.681v13.022c0 1.984-1.609 3.593-3.593 3.593h-483.6262c-1.9841 0-3.5926-1.609-3.5926-3.593v-13.022c0-1.984 1.6085-3.593 3.5926-3.593h483.6262c1.984 0 3.593 1.609 3.593 3.593z" fill="#fff" stroke="#0b3254" stroke-width="2.93547"/><g filter="url(#a)"><rect fill="#fff" height="75.7793" rx="5.99124" width="76.031" x="167.859" y="314.095"/></g><rect fill="#000" height="70.3051" rx="3.83814" stroke="#000" stroke-width=".187226" width="71.0604" x="170.216" y="316.706"/><circle cx="186.769" cy="376.28" r="1.26231" stroke="#cf0101"/><circle cx="205.925" cy="376.28" r="1.26231" stroke="#cf0101"/><circle cx="225.037" cy="376.28" r="1.26231" stroke="#cf0101"/><path d="m176.877 325.793h58.2274v44.7471h-58.2274z" fill="#f4f7ff" stroke="#f4f7ff" stroke-width=".187226"/><path d="m262.858 284.424c4.567 3.059 8.272 7.233 10.767 12.128 3.124 6.144 4.455 13.616 3.978 22.195-.016.25.02.501.106.736.087.234.222.448.397.627.174.179.385.319.618.411s.483.135.734.125c.526-.011 1.031-.218 1.414-.58.384-.363.618-.855.658-1.379 1.192-21.135-8.273-32.102-16.424-37.585-5.445-3.641-11.661-5.986-18.173-6.856-.524-.04-1.046.117-1.463.44s-.699.789-.792 1.307c-.044.247-.036.5.023.742.059.243.169.471.322.668s.345.36.566.478c.22.119.463.189.713.208 5.933.845 11.591 3.01 16.556 6.335z" fill="#323640"/><path d="m254.946 319.372c-.031.248-.01.5.062.74.072.239.194.46.357.649s.364.342.59.448c.227.106.473.164.724.17.526.015 1.041-.165 1.443-.507s.664-.82.733-1.342c.242-3.03-.157-6.073-1.172-8.93-1.553-4.267-5.301-9.663-14.315-11.1-.28-.042-.567-.027-.842.046s-.532.202-.756.378c-.382.294-.652.71-.764 1.178-.062.243-.073.497-.031.743.042.247.135.482.273.69.139.208.319.385.53.519s.449.222.697.259c13.821 2.193 12.535 15.488 12.471 16.059z" fill="#323640"/><path d="m267.826 320.129c.527-.007 1.033-.21 1.419-.57.387-.359.626-.849.67-1.373.926-14.231-5.63-21.842-11.292-25.722-3.783-2.571-8.091-4.279-12.62-5.003-.522-.057-1.048.084-1.475.394-.426.311-.722.769-.829 1.284-.052.245-.054.498-.003.743s.152.476.298.679c.146.202.332.372.548.499.216.126.456.206.705.234 3.984.672 7.769 2.197 11.096 4.471 7.063 4.883 10.302 12.446 9.649 22.445-.019.25.015.501.099.736.084.236.216.451.389.632s.382.323.614.418c.231.095.481.14.732.133z" fill="#323640"/><path d="m184.501 358.127v-21.918h3.351l9.581 16h-1.754l9.425-16h3.351l.031 21.918h-3.851l-.032-15.875h.814l-8.015 13.37h-1.816l-8.141-13.37h.939v15.875z" fill="#000"/><path d="m220.105 358.44c-1.545 0-3.058-.219-4.54-.657-1.461-.46-2.693-1.086-3.695-1.879l1.722-3.163c.793.648 1.754 1.169 2.881 1.566 1.148.397 2.338.595 3.569.595 1.441 0 2.568-.303 3.382-.908.835-.605 1.253-1.42 1.253-2.442 0-.689-.178-1.295-.533-1.816-.334-.522-.939-.919-1.816-1.19-.856-.272-2.035-.407-3.538-.407h-5.292l1.127-11.93h12.87v3.413h-11.367l2.13-1.941-.846 8.923-2.129-1.91h4.415c2.171 0 3.914.293 5.229.877 1.336.564 2.307 1.357 2.912 2.38.626 1.002.939 2.15.939 3.444 0 1.273-.313 2.442-.939 3.507s-1.586 1.92-2.881 2.568c-1.273.647-2.891.97-4.853.97z" fill="#000"/><path d="m572.165 57h-481.9623c-6.2882 0-11.3858 5.0976-11.3858 11.3858v8.2842c0 6.2882 5.0976 11.3858 11.3858 11.3858h481.9623c6.288 0 11.386-5.0976 11.386-11.3858v-8.2842c0-6.2882-5.098-11.3858-11.386-11.3858z" fill="#0b3254"/><path d="m576.589 66.0159v13.0219c0 1.9842-1.609 3.5926-3.593 3.5926h-483.6262c-1.9841 0-3.5926-1.6084-3.5926-3.5926v-13.0219c0-1.9842 1.6085-3.5927 3.5926-3.5927h483.6262c1.984 0 3.593 1.6085 3.593 3.5927z" fill="#fff" stroke="#0b3254" stroke-width="2.93547"/><path d="m331 87v304" stroke="#0b3254" stroke-width="8"/><rect fill="#0b3254" height="15" rx="7.5" width="66" x="322" y="234"/></svg>