<svg width="4833" height="4000" viewBox="0 0 4833 4000" fill="none" xmlns="http://www.w3.org/2000/svg">
<rect width="4833" height="4000" fill="#F2F4F9"/>
<path d="M4033.53 608.646H799.682C773.525 608.646 752.32 629.851 752.32 656.008V2973.82C752.32 2999.98 773.525 3021.18 799.682 3021.18H4033.53C4059.68 3021.18 4080.89 2999.98 4080.89 2973.82V656.008C4080.89 629.851 4059.68 608.646 4033.53 608.646Z" fill="#0B3254"/>
<path d="M4007.3 2900.24V729.6C4007.3 703.443 3986.1 682.238 3959.94 682.238L873.274 682.238C847.117 682.238 825.913 703.443 825.913 729.6V2900.24C825.913 2926.39 847.117 2947.6 873.274 2947.6H3959.94C3986.1 2947.6 4007.3 2926.39 4007.3 2900.24Z" fill="white"/>
<path d="M2247.76 795.232H1013.43C988.663 795.232 968.582 816.437 968.582 842.594V2787.22C968.582 2813.38 988.663 2834.58 1013.43 2834.58H2247.76C2272.53 2834.58 2292.61 2813.38 2292.61 2787.22V842.594C2292.61 816.437 2272.53 795.232 2247.76 795.232Z" fill="#C4C4C5"/>
<path d="M1010.84 839.379H2250.36C2250.61 839.379 2250.81 839.598 2250.81 839.848V2789.97C2250.81 2790.24 2250.6 2790.44 2250.36 2790.44H1010.84C1010.59 2790.44 1010.4 2790.22 1010.4 2789.97V839.848C1010.4 839.582 1010.61 839.379 1010.84 839.379V839.379Z" fill="#EAF7FF"/>
<path d="M2060.39 839.379L1010.37 1816.25V1508.84L1729.95 839.379H2060.39Z" fill="white"/>
<path d="M2250.79 1013.56V1244.14L1010.37 2398.15V2167.59L2250.79 1013.56Z" fill="white"/>
<path d="M2250.81 1551.54V1979.73L1379.42 2790.43H1010.84C1010.59 2790.43 1010.4 2790.23 1010.4 2789.96V2705.57L2250.81 1551.56V1551.54Z" fill="white"/>
<path d="M3819.85 795.232H2585.52C2560.75 795.232 2540.67 816.437 2540.67 842.594V2787.22C2540.67 2813.38 2560.75 2834.58 2585.52 2834.58H3819.85C3844.62 2834.58 3864.7 2813.38 3864.7 2787.22V842.594C3864.7 816.437 3844.62 795.232 3819.85 795.232Z" fill="#C4C4C5"/>
<path d="M2582.93 839.379H3822.45C3822.7 839.379 3822.9 839.598 3822.9 839.848V2789.97C3822.9 2790.24 3822.69 2790.44 3822.45 2790.44H2582.93C2582.68 2790.44 2582.49 2790.22 2582.49 2789.97V839.848C2582.49 839.582 2582.7 839.379 2582.93 839.379V839.379Z" fill="#EAF7FF"/>
<path d="M3632.5 839.379L2582.49 1816.25V1508.84L3302.06 839.379H3632.5Z" fill="white"/>
<path d="M3822.9 1013.56V1244.14L2582.49 2398.15V2167.59L3822.9 1013.56Z" fill="white"/>
<path d="M3822.9 1551.54V1979.73L2951.51 2790.43H2582.93C2582.68 2790.43 2582.49 2790.23 2582.49 2789.96V2705.57L3822.9 1551.56V1551.54Z" fill="white"/>
<path d="M3157.53 2279.39C3123.7 2302.05 3096.25 2332.97 3077.77 2369.23C3054.63 2414.75 3044.76 2470.1 3048.3 2533.66C3048.42 2535.52 3048.15 2537.37 3047.51 2539.11C3046.87 2540.85 3045.87 2542.43 3044.57 2543.76C3043.28 2545.08 3041.72 2546.12 3039.99 2546.8C3038.27 2547.49 3036.42 2547.8 3034.56 2547.73C3030.66 2547.65 3026.92 2546.12 3024.08 2543.43C3021.24 2540.75 3019.5 2537.1 3019.2 2533.22C3010.37 2376.64 3080.49 2295.39 3140.88 2254.77C3181.22 2227.8 3227.27 2210.42 3275.51 2203.98C3279.39 2203.69 3283.26 2204.85 3286.35 2207.24C3289.44 2209.64 3291.53 2213.09 3292.22 2216.92C3292.55 2218.75 3292.49 2220.62 3292.05 2222.42C3291.61 2224.22 3290.8 2225.91 3289.66 2227.37C3288.53 2228.83 3287.1 2230.04 3285.47 2230.91C3283.84 2231.79 3282.04 2232.31 3280.19 2232.45C3236.23 2238.72 3194.32 2254.75 3157.53 2279.39V2279.39Z" fill="#323640"/>
<path d="M3216.16 2538.29C3216.39 2540.13 3216.23 2542 3215.7 2543.77C3215.16 2545.55 3214.26 2547.19 3213.05 2548.59C3211.85 2549.99 3210.36 2551.12 3208.68 2551.9C3207 2552.69 3205.18 2553.12 3203.32 2553.16C3199.42 2553.28 3195.61 2551.94 3192.63 2549.41C3189.65 2546.87 3187.71 2543.33 3187.2 2539.47C3185.4 2517.02 3188.36 2494.47 3195.88 2473.31C3207.38 2441.69 3235.15 2401.72 3301.93 2391.07C3304.01 2390.76 3306.13 2390.88 3308.17 2391.42C3310.2 2391.96 3312.11 2392.91 3313.77 2394.21C3316.6 2396.39 3318.6 2399.48 3319.43 2402.94C3319.89 2404.75 3319.97 2406.62 3319.66 2408.45C3319.35 2410.28 3318.66 2412.02 3317.64 2413.56C3316.61 2415.1 3315.27 2416.41 3313.71 2417.41C3312.14 2418.4 3310.39 2419.05 3308.55 2419.32C3206.16 2435.57 3215.68 2534.06 3216.16 2538.29Z" fill="#323640"/>
<path d="M3120.73 2543.9C3116.83 2543.85 3113.08 2542.34 3110.22 2539.68C3107.35 2537.01 3105.58 2533.39 3105.26 2529.5C3098.39 2424.08 3146.96 2367.69 3188.91 2338.95C3216.94 2319.9 3248.85 2307.25 3282.4 2301.88C3286.27 2301.46 3290.17 2302.51 3293.33 2304.81C3296.49 2307.11 3298.68 2310.5 3299.47 2314.31C3299.86 2316.13 3299.87 2318 3299.49 2319.82C3299.12 2321.63 3298.37 2323.34 3297.29 2324.85C3296.21 2326.35 3294.83 2327.61 3293.23 2328.54C3291.63 2329.48 3289.85 2330.07 3288.01 2330.28C3258.49 2335.26 3230.45 2346.56 3205.8 2363.4C3153.47 2399.58 3129.48 2455.6 3134.31 2529.68C3134.46 2531.53 3134.21 2533.39 3133.59 2535.14C3132.96 2536.89 3131.98 2538.48 3130.7 2539.82C3129.42 2541.16 3127.87 2542.21 3126.16 2542.92C3124.44 2543.62 3122.59 2543.96 3120.73 2543.9V2543.9Z" fill="#323640"/>
<path d="M4201.93 2922.94H631.351C584.765 2922.94 547 2960.7 547 3007.29V3068.66C547 3115.24 584.765 3153.01 631.351 3153.01H4201.93C4248.51 3153.01 4286.28 3115.24 4286.28 3068.66V3007.29C4286.28 2960.7 4248.51 2922.94 4201.93 2922.94Z" fill="#0B3254"/>
<path d="M4234.69 2989.73V3086.2C4234.69 3100.9 4222.77 3112.81 4208.07 3112.81H625.173C610.473 3112.81 598.557 3100.9 598.557 3086.2V2989.73C598.557 2975.03 610.473 2963.11 625.173 2963.11H4208.07C4222.77 2963.11 4234.69 2975.03 4234.69 2989.73Z" fill="white" stroke="#0B3254" stroke-width="21.7471"/>
<g filter="url(#filter0_i_366_807)">
<rect x="1206.66" y="2355.65" width="563.269" height="561.404" rx="44.3856" fill="white"/>
</g>
<rect x="1224.11" y="2375" width="526.445" height="520.849" rx="28.4345" fill="black" stroke="black" stroke-width="1.38705"/>
<circle cx="1346.76" cy="2816.34" r="9.3517" stroke="#CF0101" stroke-width="7.40841"/>
<circle cx="1488.68" cy="2816.34" r="9.3517" stroke="#CF0101" stroke-width="7.40841"/>
<circle cx="1630.27" cy="2816.34" r="9.3517" stroke="#CF0101" stroke-width="7.40841"/>
<rect x="1273.48" y="2442.31" width="431.372" height="331.505" fill="#F4F7FF" stroke="#F4F7FF" stroke-width="1.38705"/>
<path d="M1329.95 2681.88V2519.5H1354.77L1425.75 2638.03H1412.76L1482.58 2519.5H1507.4L1507.63 2681.88H1479.1L1478.87 2564.27H1484.9L1425.52 2663.32H1412.06L1351.75 2564.27H1358.71V2681.88H1329.95Z" fill="black"/>
<path d="M1593.71 2684.2C1582.27 2684.2 1571.06 2682.57 1560.08 2679.32C1549.25 2675.92 1540.13 2671.28 1532.7 2665.41L1545.46 2641.98C1551.34 2646.77 1558.45 2650.64 1566.8 2653.58C1575.31 2656.51 1584.12 2657.98 1593.25 2657.98C1603.92 2657.98 1612.27 2655.74 1618.3 2651.26C1624.49 2646.77 1627.58 2640.74 1627.58 2633.16C1627.58 2628.06 1626.27 2623.57 1623.64 2619.71C1621.16 2615.84 1616.68 2612.9 1610.18 2610.89C1603.84 2608.88 1595.1 2607.88 1583.97 2607.88H1544.77L1553.12 2519.5H1648.46V2544.78H1564.25L1580.03 2530.4L1573.76 2596.51L1557.99 2582.36H1590.7C1606.78 2582.36 1619.69 2584.53 1629.44 2588.86C1639.33 2593.03 1646.52 2598.91 1651.01 2606.49C1655.65 2613.91 1657.97 2622.41 1657.97 2632C1657.97 2641.44 1655.65 2650.1 1651.01 2657.98C1646.37 2665.87 1639.26 2672.21 1629.67 2677C1620.23 2681.8 1608.25 2684.2 1593.71 2684.2Z" fill="black"/>
<path d="M4201.96 451H631.386C584.8 451 547.035 488.765 547.035 535.351V596.723C547.035 643.309 584.8 681.074 631.386 681.074H4201.96C4248.55 681.074 4286.31 643.309 4286.31 596.723V535.351C4286.31 488.765 4248.55 451 4201.96 451Z" fill="#0B3254"/>
<path d="M4234.72 517.79V614.262C4234.72 628.961 4222.81 640.878 4208.11 640.878L625.208 640.878C610.509 640.878 598.592 628.961 598.592 614.262V517.79C598.592 503.091 610.509 491.174 625.208 491.174L4208.11 491.174C4222.81 491.174 4234.72 503.091 4234.72 517.79Z" fill="white" stroke="#0B3254" stroke-width="21.7471"/>
<line x1="2415.28" y1="673.252" x2="2415.28" y2="2925.41" stroke="#0B3254" stroke-width="59.2673"/>
<rect x="2348.6" y="1762.29" width="488.955" height="111.126" rx="55.5631" fill="#0B3254"/>
<path d="M1149.11 2519C1117.61 2522.5 1083.82 2540.81 1061.11 2563C1054.46 2569.5 1041.45 2583.12 1039 2591.04C1028.61 2609.5 1021.16 2634.49 1014.95 2656.95C999.334 2713.4 1003.33 2772.85 1018.42 2828.77C1037.03 2897.76 1074.48 2946.86 1112.07 3006.14C1142 3053.33 1156.93 3099.17 1168.73 3153.45C1191.3 3257.25 1182.87 3362.24 1234.18 3458.24C1349.11 3673.29 1638.41 3710.37 1857.4 3714.93C2029.48 3718.52 2201.23 3674.26 2368.94 3640.01C2433.07 3626.91 2495.74 3612.72 2561.57 3612.72C2658.93 3612.72 2756.76 3621.95 2853.88 3628.21C2899.53 3631.16 2946.66 3628.11 2992.4 3623C3041.27 3617.54 3079.27 3594.4 3118.66 3566.57C3152.77 3542.48 3196.43 3516.61 3223 3484.5C3266.72 3431.67 3303.81 3394.38 3344.36 3338.91C3378.49 3292.23 3407.74 3238.94 3429.47 3185.36C3452.44 3128.68 3454.33 3064.79 3459.07 3004.52C3463.79 2944.35 3445.71 2796.54 3434.5 2737.5" stroke="#231F20" stroke-width="25" stroke-linecap="round"/>
<path d="M1203.29 2490.83L1203.29 2547.17C1203.29 2548.24 1202.42 2549.11 1201.34 2549.11L1150.83 2549.11C1149.76 2549.11 1148.89 2548.24 1148.89 2547.17L1148.89 2490.83C1148.89 2489.76 1149.76 2488.89 1150.83 2488.89L1201.34 2488.89C1202.42 2488.89 1203.29 2489.76 1203.29 2490.83Z" fill="#FFD700" stroke="black" stroke-width="7.77143"/>
<g filter="url(#filter1_i_366_807)">
<path d="M3460.21 2480.34L3322.09 2504.21C3308.23 2506.61 3298.94 2519.78 3301.34 2533.64L3330.64 2703.15C3333.03 2717 3346.21 2726.29 3360.06 2723.9L3498.19 2700.02C3512.04 2697.63 3521.33 2684.45 3518.94 2670.6L3489.64 2501.09C3487.24 2487.23 3474.07 2477.94 3460.21 2480.34Z" fill="#686867"/>
</g>
<path d="M3322.67 2507.56L3460.79 2483.68C3472.8 2481.61 3484.22 2489.66 3486.29 2501.67L3515.59 2671.18C3517.67 2683.18 3509.62 2694.6 3497.61 2696.68L3359.48 2720.55C3347.48 2722.63 3336.06 2714.58 3333.98 2702.57L3304.68 2533.06C3302.61 2521.05 3310.66 2509.63 3322.67 2507.56Z" stroke="black" stroke-width="6.78977"/>
<path d="M3340.73 2527.23L3450.39 2508.28C3459.19 2506.75 3467.57 2512.66 3469.09 2521.46L3492.74 2658.32C3494.27 2667.13 3488.36 2675.5 3479.55 2677.03L3369.89 2695.98C3361.09 2697.5 3352.71 2691.6 3351.19 2682.79L3327.54 2545.93C3326.01 2537.13 3331.92 2528.75 3340.73 2527.23Z" stroke="url(#paint0_radial_366_807)" stroke-width="4.97916"/>
<path d="M3449.16 2710.35L3453.86 2737.53C3454.28 2739.98 3452.63 2742.31 3450.18 2742.74L3419.86 2747.98C3417.4 2748.4 3415.06 2746.75 3414.64 2744.3L3409.94 2717.12L3449.16 2710.35Z" fill="black" stroke="black" stroke-width="6.78977"/>
<path d="M3376.21 2629.7C3373.04 2630.27 3370.02 2630.29 3367.16 2629.76C3364.33 2629.19 3361.76 2628.14 3359.43 2626.61C3357.14 2625.07 3355.22 2623.13 3353.66 2620.78C3352.13 2618.43 3351.1 2615.74 3350.56 2612.7C3350.02 2609.66 3350.06 2606.77 3350.68 2604.04C3351.34 2601.3 3352.5 2598.81 3354.15 2596.57C3355.81 2594.33 3357.88 2592.47 3360.39 2590.99C3362.88 2589.48 3365.74 2588.43 3368.95 2587.86C3372.51 2587.23 3375.82 2587.26 3378.86 2587.95C3381.95 2588.63 3384.67 2589.93 3387.02 2591.86L3382.04 2598.46C3380.31 2597.18 3378.52 2596.33 3376.66 2595.9C3374.8 2595.44 3372.86 2595.39 3370.83 2595.75C3368.88 2596.1 3367.15 2596.72 3365.65 2597.62C3364.15 2598.52 3362.91 2599.66 3361.93 2601.02C3360.99 2602.38 3360.33 2603.91 3359.96 2605.6C3359.63 2607.29 3359.64 2609.1 3359.98 2611.02C3360.31 2612.91 3360.93 2614.59 3361.82 2616.06C3362.75 2617.52 3363.9 2618.75 3365.26 2619.73C3366.65 2620.68 3368.19 2621.32 3369.87 2621.66C3371.58 2621.99 3373.4 2621.98 3375.31 2621.64C3377.15 2621.31 3378.88 2620.71 3380.5 2619.82C3382.15 2618.9 3383.68 2617.57 3385.07 2615.86L3391.55 2621.67C3389.67 2623.72 3387.35 2625.44 3384.59 2626.84C3381.88 2628.24 3379.09 2629.19 3376.21 2629.7ZM3382.84 2621.97L3380.14 2606.78L3388.64 2605.27L3391.55 2621.67L3382.84 2621.97Z" fill="white"/>
<path d="M3400.99 2624.58L3393.8 2584.16L3411.2 2581.07C3414.8 2580.43 3418.01 2580.47 3420.82 2581.2C3423.63 2581.89 3425.94 2583.21 3427.74 2585.15C3429.55 2587.1 3430.73 2589.59 3431.27 2592.63C3431.8 2595.63 3431.55 2598.36 3430.53 2600.8C3429.5 2603.25 3427.79 2605.3 3425.4 2606.96C3423 2608.57 3420 2609.7 3416.41 2610.34L3404.17 2612.52L3407.56 2607.57L3410.29 2622.93L3400.99 2624.58ZM3407.74 2608.61L3402.82 2604.9L3414.53 2602.81C3417.4 2602.3 3419.44 2601.3 3420.64 2599.82C3421.83 2598.34 3422.24 2596.5 3421.85 2594.3C3421.45 2592.07 3420.43 2590.46 3418.8 2589.48C3417.16 2588.5 3414.91 2588.27 3412.04 2588.78L3400.32 2590.86L3403.67 2585.68L3407.74 2608.61Z" fill="white"/>
<path d="M3456.38 2615.45C3453.16 2616.02 3450.01 2616.15 3446.91 2615.82C3443.8 2615.46 3441.23 2614.75 3439.18 2613.68L3441.09 2606.07C3443.03 2607 3445.24 2607.66 3447.72 2608.05C3450.23 2608.4 3452.69 2608.36 3455.1 2607.93C3456.94 2607.6 3458.38 2607.17 3459.43 2606.63C3460.51 2606.04 3461.26 2605.37 3461.68 2604.62C3462.1 2603.87 3462.24 2603.07 3462.08 2602.22C3461.89 2601.14 3461.32 2600.37 3460.37 2599.91C3459.41 2599.4 3458.21 2599.08 3456.76 2598.94C3455.31 2598.76 3453.71 2598.65 3451.96 2598.6C3450.25 2598.51 3448.5 2598.34 3446.72 2598.1C3444.98 2597.86 3443.34 2597.43 3441.81 2596.83C3440.28 2596.23 3438.96 2595.31 3437.83 2594.08C3436.74 2592.85 3436 2591.15 3435.62 2589C3435.21 2586.69 3435.45 2584.48 3436.34 2582.37C3437.26 2580.22 3438.87 2578.37 3441.16 2576.81C3443.48 2575.21 3446.53 2574.07 3450.32 2573.39C3452.85 2572.94 3455.39 2572.81 3457.95 2572.99C3460.51 2573.13 3462.83 2573.63 3464.92 2574.49L3463.31 2582.11C3461.24 2581.36 3459.22 2580.91 3457.26 2580.74C3455.29 2580.53 3453.4 2580.59 3451.6 2580.91C3449.8 2581.23 3448.37 2581.71 3447.29 2582.33C3446.22 2582.96 3445.5 2583.67 3445.12 2584.45C3444.74 2585.19 3444.63 2586 3444.78 2586.89C3444.97 2587.93 3445.54 2588.7 3446.5 2589.21C3447.45 2589.67 3448.65 2589.98 3450.1 2590.12C3451.54 2590.26 3453.13 2590.37 3454.84 2590.46C3456.59 2590.55 3458.34 2590.7 3460.07 2590.9C3461.85 2591.1 3463.5 2591.51 3465.03 2592.11C3466.55 2592.71 3467.86 2593.63 3468.95 2594.87C3470.08 2596.09 3470.83 2597.77 3471.21 2599.89C3471.61 2602.16 3471.35 2604.35 3470.42 2606.46C3469.49 2608.57 3467.87 2610.43 3465.55 2612.03C3463.26 2613.63 3460.21 2614.77 3456.38 2615.45Z" fill="white"/>
<path d="M4223.53 608H3420.31L3018.84 1303.96L2617.23 608H1814.16L1412.69 1303.96L1011.08 608H208L1011.08 2000.07L208 3392H1011.08L1412.69 2696.04L1814.16 3392H2617.23L1814.16 2000.07L2215.77 1303.96L3018.84 2696.04L3821.92 1303.96L4223.53 2000.07L4625 1303.96L4223.53 608Z" fill="#3B3835" fill-opacity="0.05"/>
<defs>
<filter id="filter0_i_366_807" x="1206.66" y="2355.65" width="563.27" height="561.404" filterUnits="userSpaceOnUse" color-interpolation-filters="sRGB">
<feFlood flood-opacity="0" result="BackgroundImageFix"/>
<feBlend mode="normal" in="SourceGraphic" in2="BackgroundImageFix" result="shape"/>
<feColorMatrix in="SourceAlpha" type="matrix" values="0 0 0 0 0 0 0 0 0 0 0 0 0 0 0 0 0 0 127 0" result="hardAlpha"/>
<feOffset/>
<feGaussianBlur stdDeviation="10.4029"/>
<feComposite in2="hardAlpha" operator="arithmetic" k2="-1" k3="1"/>
<feColorMatrix type="matrix" values="0 0 0 0 0 0 0 0 0 0 0 0 0 0 0 0 0 0 1 0"/>
<feBlend mode="normal" in2="shape" result="effect1_innerShadow_366_807"/>
</filter>
<filter id="filter1_i_366_807" x="3300.96" y="2479.96" width="218.355" height="244.314" filterUnits="userSpaceOnUse" color-interpolation-filters="sRGB">
<feFlood flood-opacity="0" result="BackgroundImageFix"/>
<feBlend mode="normal" in="SourceGraphic" in2="BackgroundImageFix" result="shape"/>
<feColorMatrix in="SourceAlpha" type="matrix" values="0 0 0 0 0 0 0 0 0 0 0 0 0 0 0 0 0 0 127 0" result="hardAlpha"/>
<feOffset/>
<feGaussianBlur stdDeviation="16.9744"/>
<feComposite in2="hardAlpha" operator="arithmetic" k2="-1" k3="1"/>
<feColorMatrix type="matrix" values="0 0 0 0 0 0 0 0 0 0 0 0 0 0 0 0 0 0 1 0"/>
<feBlend mode="normal" in2="shape" result="effect1_innerShadow_366_807"/>
</filter>
<radialGradient id="paint0_radial_366_807" cx="0" cy="0" r="1" gradientUnits="userSpaceOnUse" gradientTransform="translate(3410.14 2602.13) rotate(80.1933) scale(88.1162 74.3148)">
<stop stop-color="white"/>
<stop offset="0.635417" stop-opacity="0.8"/>
</radialGradient>
</defs>
</svg>
