<svg fill="none" height="689" viewBox="0 0 1076 689" width="1076" xmlns="http://www.w3.org/2000/svg" xmlns:xlink="http://www.w3.org/1999/xlink"><linearGradient id="a"><stop offset=".27" stop-color="#4d4e4e"/><stop offset=".28" stop-color="#333"/><stop offset=".79" stop-color="#1a1a1a"/></linearGradient><linearGradient id="b" gradientUnits="userSpaceOnUse" x1="943.518" x2="953.711" xlink:href="#a" y1="532.537" y2="532.537"/><linearGradient id="c"><stop offset=".21" stop-color="#4d4e4e"/><stop offset=".22" stop-color="#676767"/><stop offset=".72" stop-color="#676767"/><stop offset=".73" stop-color="#808080"/></linearGradient><linearGradient id="d" gradientUnits="userSpaceOnUse" x1="944.171" x2="942.988" xlink:href="#c" y1="535.364" y2="533.315"/><linearGradient id="e" gradientUnits="userSpaceOnUse" x1="6825.06" x2="6917.27" xlink:href="#c" y1="-5004.17" y2="-5164.62"/><linearGradient id="f"><stop offset=".03" stop-color="#d8d8d7"/><stop offset=".5" stop-color="#bfbebe"/><stop offset="1" stop-color="#b3b2b3"/></linearGradient><linearGradient id="g" gradientUnits="userSpaceOnUse" x1="870.296" x2="881.693" xlink:href="#f" y1="500.594" y2="500.594"/><linearGradient id="h" gradientUnits="userSpaceOnUse" x1="26323.3" x2="26804.8" xlink:href="#f" y1="9010.94" y2="9010.94"/><linearGradient id="i" gradientUnits="userSpaceOnUse" x1="23502.5" x2="23882.8" xlink:href="#f" y1="9117.73" y2="9117.73"/><linearGradient id="j" gradientUnits="userSpaceOnUse" x1="26323.3" x2="26804.8" xlink:href="#f" y1="8962.94" y2="8962.94"/><linearGradient id="k" gradientUnits="userSpaceOnUse" x1="23502.5" x2="23882.8" xlink:href="#f" y1="9079.21" y2="9079.21"/><linearGradient id="l" gradientUnits="userSpaceOnUse" x1="26323.3" x2="26804.8" xlink:href="#f" y1="8924.82" y2="8924.82"/><linearGradient id="m" gradientUnits="userSpaceOnUse" x1="23502.5" x2="23882.8" xlink:href="#f" y1="9036.44" y2="9036.44"/><linearGradient id="n" gradientUnits="userSpaceOnUse" x1="26323.3" x2="26804.8" xlink:href="#f" y1="8886.45" y2="8886.45"/><linearGradient id="o" gradientUnits="userSpaceOnUse" x1="23502.5" x2="23882.8" xlink:href="#f" y1="10223.9" y2="10223.9"/><linearGradient id="p" gradientUnits="userSpaceOnUse" x1="26319.3" x2="26800.7" xlink:href="#f" y1="8574.17" y2="8574.17"/><linearGradient id="q"><stop offset="0" stop-color="#cbcbca"/><stop offset=".12" stop-color="#f2f2f2"/><stop offset=".17" stop-color="#f2f2f2"/><stop offset=".19" stop-color="#a6a4a4"/><stop offset=".28" stop-color="#a3a3a3"/><stop offset=".3" stop-color="#676767"/><stop offset=".4" stop-color="#676767"/><stop offset=".42" stop-color="#a09f9f"/><stop offset=".59" stop-color="#888"/><stop offset=".68" stop-color="#979797"/><stop offset=".76" stop-color="#979797"/><stop offset=".84" stop-color="#797979"/><stop offset="1" stop-color="#676767"/></linearGradient><linearGradient id="r" gradientUnits="userSpaceOnUse" x1="875.24" x2="876.771" xlink:href="#q" y1="486.07" y2="486.07"/><linearGradient id="s" gradientUnits="userSpaceOnUse" x1="3628.85" x2="3634.3" xlink:href="#q" y1="6183.64" y2="6183.64"/><linearGradient id="t" gradientUnits="userSpaceOnUse" x1="3583.88" x2="3589.33" xlink:href="#q" y1="6183.64" y2="6183.64"/><linearGradient id="u" gradientUnits="userSpaceOnUse" x1="12005.4" x2="12087.9" xlink:href="#q" y1="61803.3" y2="61803.3"/><linearGradient id="v" gradientUnits="userSpaceOnUse" x1="12005.4" x2="12087.9" xlink:href="#q" y1="58950.8" y2="58950.8"/><linearGradient id="w" gradientUnits="userSpaceOnUse" x1="12005.4" x2="12087.9" xlink:href="#q" y1="55975.5" y2="55975.5"/><linearGradient id="x" gradientUnits="userSpaceOnUse" x1="12005.4" x2="12087.9" xlink:href="#q" y1="53127.6" y2="53127.6"/><linearGradient id="y" gradientUnits="userSpaceOnUse" x1="1051.57" x2="1067.07" xlink:href="#c" y1="4591.87" y2="4591.87"/><linearGradient id="z"><stop offset=".21" stop-color="#333"/><stop offset=".72" stop-color="#333"/><stop offset=".73" stop-color="#4d4e4e"/></linearGradient><linearGradient id="A" gradientUnits="userSpaceOnUse" x1="955.718" x2="954.185" xlink:href="#z" y1="530.144" y2="527.488"/><linearGradient id="B" gradientUnits="userSpaceOnUse" x1="11035.1" x2="11097.5" xlink:href="#q" y1="13742" y2="13742"/><linearGradient id="C"><stop offset=".27" stop-color="#808080"/><stop offset=".28" stop-color="#676767"/><stop offset=".78" stop-color="#676767"/><stop offset=".79" stop-color="#4d4e4e"/></linearGradient><linearGradient id="D" gradientUnits="userSpaceOnUse" x1="946.028" x2="951.215" xlink:href="#C" y1="530.043" y2="530.043"/><linearGradient id="E" gradientUnits="userSpaceOnUse" x1="11051.9" x2="11114.4" xlink:href="#C" y1="3366.42" y2="3366.42"/><linearGradient id="F" gradientUnits="userSpaceOnUse" x1="11051.9" x2="11114.4" xlink:href="#C" y1="3351.77" y2="3351.77"/><linearGradient id="G" gradientUnits="userSpaceOnUse" x1="59663.1" x2="62290.5" xlink:href="#a" y1="23300.5" y2="23300.5"/><linearGradient id="H" gradientUnits="userSpaceOnUse" x1="54285.3" x2="56445.8" xlink:href="#a" y1="37317.6" y2="37317.6"/><linearGradient id="I" gradientUnits="userSpaceOnUse" x1="42728.6" x2="44043.1" xlink:href="#z" y1="8435.75" y2="8435.75"/><linearGradient id="J" gradientUnits="userSpaceOnUse" x1="17877.1" x2="18070.5" xlink:href="#a" y1="8764.43" y2="8764.43"/><linearGradient id="K" gradientUnits="userSpaceOnUse" x1="14071.1" x2="14186.7" xlink:href="#a" y1="6873.69" y2="6873.69"/><linearGradient id="L" gradientUnits="userSpaceOnUse" x1="23549.5" x2="23864.7" xlink:href="#a" y1="10281.5" y2="10281.5"/><linearGradient id="M" gradientUnits="userSpaceOnUse" x1="17121.9" x2="17282.7" xlink:href="#q" y1="21204.7" y2="21204.7"/><linearGradient id="N" gradientUnits="userSpaceOnUse" x1="19366.9" x2="19575.8" xlink:href="#q" y1="12050.7" y2="12050.7"/><linearGradient id="O" gradientUnits="userSpaceOnUse" x1="13456.5" x2="13552.5" xlink:href="#a" y1="8273.1" y2="8273.1"/><linearGradient id="P" gradientUnits="userSpaceOnUse" x1="19366.9" x2="19575.8" xlink:href="#q" y1="11926.5" y2="11926.5"/><linearGradient id="Q" gradientUnits="userSpaceOnUse" x1="957.889" x2="963.893" y1="487.046" y2="490.835"><stop offset="0" stop-color="#1a1a1a"/><stop offset="1" stop-color="#676767"/></linearGradient><linearGradient id="R" gradientUnits="userSpaceOnUse" x1="959.018" x2="962.025" y1="497.592" y2="510.546"><stop offset="0" stop-color="#333"/><stop offset="1" stop-color="#676767"/></linearGradient><clipPath id="S"><path d="m107.967 52.0381h859.442v585.725h-859.442z"/></clipPath><path d="m.0170288.857595h1075.2229712v688.142405h-1075.2229712z" fill="#d3e2f5"/><g clip-path="url(#S)"><path d="m372.29 300.568c-11.359 5.806-31.298 41.383-36.666 51.434-10.102 19.612-20.502 41.93-34.381 58.062-22.734 26.404-46.6 38.407-55.288 49.031l6.929-36.872c8.688-10.64 25.018-12.399 47.74-38.803 13.879-16.115 24.278-38.428 34.377-58.062 5.372-10.055 25.169-32.712 36.527-38.518z" fill="#ece9d5"/><path d="m268.13 199.338c-13.806 29.624-24.855 58.397-34.041 89.776-12.903 39.225-13.806 81.064-18.408 122.03-4.606 48.806-11.049 93.26-30.377 138.583-15.651 35.74-36.825 59.27-64.436 88.035h89.286c38.665-62.755 52.471-104.594 55.232-140.33 1.82-35.736-2.778-71.489-7.38-107.186-6.451-45.328 14.726-156.019 38.661-196.981z" fill="#cfd0b0"/><path d="m259.598 213.32c-15.449 45.009 15.449-10.129-9.892 129.835-7.312 40.489 6.451 95.88 1.841 136.846-4.602 48.811-11.97 78.444-32.218 106.335-23.131 31.878-35.883 43.581-44.162 51.426h34.979c38.665-62.755 52.471-104.594 55.232-140.33 1.828-35.736-2.77-71.489-7.372-107.186-6.451-45.328 14.727-156.019 38.661-196.981z" fill="#adb8a1"/><path d="m232.552 337.208c-12.61-16.877-22.76-41.349-27.525-59.645-14.086-53.138-16.774-109.595-.671-161.899l-9.389 11.613c-16.085 52.316-13.402 108.774.684 161.898 4.731 18.24 13.616 43.499 27.396 59.49 6.83 7.935 12.916-6.894 9.505-11.457z" fill="#ece9d5"/><path d="m385.07 351.925c45.779 0 82.891-35.14 82.891-78.487s-37.112-78.487-82.891-78.487c-45.78 0-82.891 35.14-82.891 78.487s37.111 78.487 82.891 78.487z" fill="#dbe8ad"/><path d="m413.93 304.371c-34.992 27.955-97.428 17.203-85.897 27.757 28.214 25.827 86.073 27.436 117.134-4.408s29.763-82.332-4.645-110.911c-9.741-8.06 32.175 40.622-26.592 87.562z" fill="#b4ce8f"/><path d="m315.988 249.026c57.447 0 104.017-44.097 104.017-98.494 0-54.3976-46.57-98.4952-104.017-98.4952s-104.017 44.0976-104.017 98.4952c0 54.397 46.57 98.494 104.017 98.494z" fill="#dbe8ad"/><path d="m352.013 183.881c-41.77 37.344-115.694 34.11-99.475 44.329 47.843 30.106 109.875 28.661 146.428-13.303 36.553-41.963 30.106-103.402-14.215-138.0195-44.32-34.6179 37.414 44.2775-32.738 106.9935z" fill="#b4ce8f"/><path d="m178.506 218.546c38.901 0 70.436-29.86 70.436-66.694s-31.535-66.694-70.436-66.694c-38.9 0-70.435 29.86-70.435 66.694s31.535 66.694 70.435 66.694z" fill="#dbe8ad"/><path d="m202.753 176.781c-29.814 23.654-72.965 23.822-69.116 26.196 32.597 20.098 73.06 23.535 99.545-3.44 26.484-26.976 26.489-70.724-3.764-93.885-8.881-6.8036 23.406 31.393-26.665 71.129z" fill="#b4ce8f"/><path d="m243.939 433.805c4.94 0 8.945-5.538 8.945-12.369 0-6.832-4.005-12.37-8.945-12.37-4.941 0-8.946 5.538-8.946 12.37 0 6.831 4.005 12.369 8.946 12.369z" fill="#adb8a1"/><path d="m241.861 433.805c3.794 0 6.869-5.538 6.869-12.369 0-6.832-3.075-12.37-6.869-12.37-3.793 0-6.868 5.538-6.868 12.37 0 6.831 3.075 12.369 6.868 12.369z" fill="#ece9d5"/><path d="m941.735 534.433c.242.158.444.371.588.621.145.251.227.532.242.82 0 .534-.37.749-.83.486-.242-.158-.444-.372-.588-.623s-.227-.533-.242-.822c0-.529.37-.748.83-.482z" fill="#676767"/><path d="m953.616 531.913-.67-2.309-2.018.025c-1.584-.504-3.29-.48-4.86.069h-1.802l-.649 2.151c-.314 1.032.155 2.15 1.406 2.954 2 1.291 5.226 1.291 7.213 0 1.239-.744 1.699-1.858 1.38-2.89z" fill="url(#b)"/><path d="m951.727 531.96c-.94.538-2.005.821-3.088.821s-2.148-.283-3.088-.821c-1.72-1.097-1.72-2.873 0-3.961.94-.539 2.005-.823 3.088-.823 1.084 0 2.148.284 3.088.823 1.695 1.097 1.703 2.886 0 3.961z" fill="#676767"/><path d="m941.158 534.386.034.056c-.061.115-.09.244-.086.374.016.289.1.571.244.821.144.251.345.465.587.624.111.07.238.108.369.112l.03.052 3.484-2.026c.082-.062.147-.144.187-.238.041-.094.057-.197.045-.299-.015-.289-.097-.57-.241-.821-.143-.251-.343-.465-.584-.624-.084-.06-.183-.097-.285-.107-.103-.009-.206.008-.3.051z" fill="url(#d)"/><path d="m941.871 532.081-.146.258c.271.532.405 1.123.387 1.72 0 2.443-1.72 5.406-3.806 6.624-.518.321-1.112.499-1.721.516l-.137.236-.594-.34c-.666-.43-1.079-1.26-1.079-2.46 0-2.443 1.72-5.41 3.81-6.623 1.041-.602 1.983-.658 2.671-.271z" fill="url(#e)"/><path d="m939.1 532.291c-2.103 1.217-3.811 4.18-3.811 6.623s1.72 3.441 3.811 2.228c2.09-1.213 3.806-4.18 3.806-6.623s-1.703-3.441-3.806-2.228z" fill="#333"/><path d="m881.693 499.416h-.309c-.379-.41-.849-.724-1.372-.917-2.233-.933-5.841-.937-8.06 0-.526.19-.996.508-1.368.925h-.288v1.617c.026.598.585 1.196 1.682 1.656 2.232.933 5.84.942 8.059 0 1.102-.46 1.652-1.062 1.656-1.669z" fill="url(#g)"/><path d="m881.711 499.42v1.613c-.006.204-.065.402-.172.576-.308.205-.635.379-.976.52-2.495 1.046-6.555 1.041-9.067 0-.354-.145-.691-.328-1.006-.546-.105-.164-.164-.352-.172-.546v-1.613h.288c.372-.418.842-.738 1.368-.929 2.219-.929 5.828-.925 8.06 0 .523.191.992.505 1.367.916z" fill="#dfdfdf"/><path d="m880.038 501.174c-2.219.929-5.828.925-8.06 0-2.232-.924-2.245-2.447-.026-3.376 2.22-.929 5.828-.925 8.06 0s2.245 2.447.026 3.376z" fill="#fff8f1"/><path d="m880.036 501.032c-2.219.929-5.828.925-8.06 0-1.079-.43-1.639-1.04-1.677-1.63-.048.637.511 1.291 1.677 1.772 2.232.934 5.841.938 8.06 0 1.148-.481 1.694-1.114 1.651-1.746-.038.585-.589 1.161-1.651 1.604z" fill="#fff"/><path d="m883.193 498.314h-.392c-.475-.515-1.064-.911-1.72-1.157-2.817-1.178-7.376-1.183-10.176 0-.661.244-1.251.645-1.721 1.17h-.365v1.161c.03.757.74 1.51 2.125 2.091 2.817 1.178 7.371 1.187 10.175 0 1.385-.581 2.082-1.342 2.091-2.104z" fill="url(#h)"/><path d="m881.118 500.533c-2.804 1.175-7.358 1.17-10.175 0-2.818-1.169-2.835-3.088-.035-4.257 2.8-1.17 7.359-1.166 10.176 0 2.817 1.165 2.834 3.088.034 4.257z" fill="#f2f2f2"/><path d="m881.119 500.349c-2.804 1.17-7.359 1.166-10.176 0-1.364-.572-2.069-1.29-2.121-2.056-.06.805.646 1.617 2.121 2.233 2.817 1.182 7.372 1.187 10.176 0 1.445-.607 2.15-1.407 2.086-2.203-.052.736-.749 1.471-2.086 2.026z" fill="#fff"/><path d="m881.111 500.537c-.206.086-.43.168-.658.241h-4.206v-4.159h5.557c2.077 1.178 1.853 2.868-.693 3.918z" fill="#808080"/><path d="m882.407 496.319h-.349c-.425-.46-.952-.812-1.539-1.028-2.504-1.05-6.555-1.054-9.032 0-.59.215-1.117.573-1.536 1.041h-.327v1.814c.026.671.654 1.342 1.884 1.858 2.508 1.05 6.559 1.054 9.032 0 1.234-.516 1.854-1.195 1.858-1.87z" fill="url(#i)"/><path d="m882.415 496.319v1.815c-.007.228-.076.451-.198.645-.343.234-.711.43-1.096.585-2.796 1.174-7.355 1.165-10.176 0-.398-.16-.776-.365-1.127-.611-.119-.182-.186-.393-.194-.611v-1.815h.323c.418-.468.946-.825 1.535-1.04 2.491-1.041 6.542-1.037 9.032 0 .586.217 1.112.569 1.536 1.027z" fill="#dfdfdf"/><path d="m880.559 498.293c-2.49 1.041-6.541 1.036-9.031 0-2.491-1.037-2.516-2.744-.026-3.785s6.541-1.041 9.032 0c2.49 1.041 2.516 2.74.025 3.785z" fill="#fff8f1"/><path d="m880.539 498.134c-2.49 1.04-6.542 1.036-9.032 0-1.209-.508-1.837-1.166-1.88-1.828-.051.718.572 1.441 1.88 1.987 2.507 1.049 6.559 1.053 9.032 0 1.29-.542 1.905-1.252 1.853-1.961-.047.653-.662 1.303-1.853 1.802z" fill="#fff"/><path d="m883.193 495.824h-.392c-.473-.517-1.063-.915-1.72-1.161-2.817-1.178-7.376-1.183-10.176 0-.662.243-1.253.647-1.721 1.174h-.365v1.149c.03.757.74 1.514 2.125 2.09 2.817 1.183 7.371 1.187 10.175 0 1.385-.581 2.082-1.338 2.091-2.103z" fill="url(#j)"/><path d="m881.118 498.044c-2.804 1.169-7.358 1.165-10.175 0-2.818-1.166-2.835-3.084-.035-4.258s7.359-1.166 10.176 0c2.817 1.165 2.834 3.083.034 4.258z" fill="#f2f2f2"/><path d="m881.119 497.863c-2.804 1.174-7.359 1.166-10.176 0-1.364-.572-2.069-1.29-2.121-2.056-.06.805.646 1.618 2.121 2.233 2.817 1.182 7.372 1.187 10.176 0 1.445-.607 2.15-1.411 2.086-2.207-.052.74-.749 1.471-2.086 2.03z" fill="#fff"/><path d="m881.111 498.043c-.232.099-.486.189-.748.271h-4.116v-4.167h5.591c2.043 1.182 1.807 2.838-.727 3.896z" fill="#808080"/><path d="m882.407 493.85h-.349c-.425-.459-.952-.811-1.539-1.028-2.504-1.049-6.555-1.053-9.032 0-.589.218-1.116.575-1.536 1.041h-.327v1.815c.026.675.654 1.346 1.884 1.858 2.508 1.049 6.559 1.054 9.032 0 1.234-.516 1.854-1.191 1.858-1.871z" fill="url(#k)"/><path d="m882.415 493.854v1.811c-.007.229-.076.451-.198.645-.344.234-.711.432-1.096.589-2.796 1.174-7.355 1.166-10.176 0-.396-.163-.774-.368-1.127-.61-.119-.184-.186-.397-.194-.615v-1.811h.323c.416-.471.944-.829 1.535-1.041 2.491-1.045 6.542-1.041 9.032 0 .588.214 1.114.566 1.536 1.028z" fill="#dfdfdf"/><path d="m880.559 495.824c-2.49 1.041-6.541 1.036-9.031 0-2.491-1.037-2.516-2.744-.026-3.785s6.541-1.036 9.032 0c2.49 1.037 2.516 2.744.025 3.785z" fill="#fff8f1"/><path d="m880.539 495.665c-2.49 1.041-6.542 1.037-9.032 0-1.209-.503-1.837-1.161-1.88-1.823-.051.714.572 1.436 1.88 1.982 2.507 1.05 6.559 1.054 9.032 0 1.29-.537 1.905-1.251 1.853-1.961-.047.658-.662 1.325-1.853 1.802z" fill="#fff"/><path d="m883.193 493.347h-.392c-.474-.516-1.063-.913-1.72-1.157-2.817-1.183-7.376-1.187-10.176 0-.662.242-1.253.644-1.721 1.17h-.365v1.148c.03.757.74 1.514 2.125 2.095 2.817 1.178 7.371 1.183 10.175 0 1.385-.581 2.082-1.342 2.091-2.108z" fill="url(#l)"/><path d="m881.118 495.566c-2.804 1.17-7.358 1.166-10.175 0-2.818-1.165-2.835-3.088-.035-4.262s7.359-1.166 10.176 0 2.834 3.088.034 4.262z" fill="#f2f2f2"/><path d="m881.119 495.386c-2.804 1.174-7.359 1.165-10.176 0-1.364-.568-2.069-1.29-2.121-2.056-.06.804.646 1.621 2.121 2.236 2.817 1.179 7.372 1.183 10.176 0 1.445-.606 2.15-1.41 2.086-2.206-.052.74-.749 1.467-2.086 2.026z" fill="#fff"/><path d="m881.111 495.566c-.219.093-.443.175-.671.245h-4.193v-4.163h5.557c2.077 1.178 1.853 2.847-.693 3.918z" fill="#808080"/><path d="m882.407 491.352h-.349c-.423-.462-.951-.816-1.539-1.033-2.504-1.049-6.555-1.053-9.032 0-.591.214-1.119.572-1.536 1.041h-.327v1.811c.026.675.654 1.346 1.884 1.858 2.508 1.049 6.559 1.058 9.032 0 1.234-.516 1.854-1.191 1.858-1.871z" fill="url(#m)"/><path d="m882.415 491.351v1.815c-.008.227-.076.448-.198.641-.344.234-.711.431-1.096.589-2.796 1.174-7.355 1.165-10.176 0-.398-.16-.776-.365-1.127-.611-.119-.182-.186-.393-.194-.611v-1.815h.323c.417-.469.945-.827 1.535-1.04 2.491-1.046 6.542-1.041 9.032 0 .588.213 1.114.566 1.536 1.027z" fill="#dfdfdf"/><path d="m880.559 493.32c-2.49 1.046-6.541 1.037-9.031 0-2.491-1.036-2.516-2.748-.026-3.789 2.49-1.04 6.541-1.036 9.032 0 2.49 1.037 2.516 2.749.025 3.789z" fill="#fff8f1"/><path d="m880.539 493.162c-2.49 1.045-6.542 1.036-9.032 0-1.209-.508-1.837-1.166-1.88-1.828-.051.714.572 1.436 1.88 1.987 2.507 1.045 6.559 1.054 9.032 0 1.29-.538 1.905-1.252 1.853-1.957-.047.654-.662 1.299-1.853 1.798z" fill="#fff"/><path d="m883.193 490.852h-.392c-.474-.517-1.063-.913-1.72-1.157-2.817-1.179-7.376-1.187-10.176 0-.662.241-1.253.643-1.721 1.17h-.365v1.152c.03.757.74 1.51 2.125 2.091 2.817 1.178 7.371 1.187 10.175 0 1.385-.581 2.082-1.342 2.091-2.104z" fill="url(#n)"/><path d="m881.118 493.072c-2.804 1.174-7.358 1.166-10.175 0-2.818-1.166-2.835-3.088-.035-4.258s7.359-1.17 10.176 0 2.834 3.084.034 4.258z" fill="#f2f2f2"/><path d="m881.119 492.891c-2.804 1.174-7.359 1.17-10.176 0-1.364-.567-2.069-1.29-2.121-2.051-.06.804.646 1.617 2.121 2.232 2.817 1.178 7.372 1.187 10.176 0 1.445-.607 2.15-1.407 2.086-2.207-.052.74-.749 1.467-2.086 2.026z" fill="#fff"/><path d="m881.111 493.071-.253.099h-4.611v-4.167h5.251c2.4 1.183 2.271 2.955-.387 4.068z" fill="#808080"/><path d="m882.407 487.794h-.349c-.425-.459-.952-.811-1.539-1.028-2.504-1.049-6.555-1.053-9.032 0-.59.216-1.117.573-1.536 1.041h-.327v2.723c.026.675.654 1.346 1.884 1.862 2.508 1.049 6.559 1.054 9.032 0 1.234-.516 1.854-1.196 1.858-1.875z" fill="url(#o)"/><path d="m882.415 487.756v1.81c-.007.229-.076.452-.198.646-.344.234-.711.431-1.096.589-2.796 1.174-7.355 1.165-10.176 0-.396-.163-.774-.368-1.127-.611-.119-.184-.186-.396-.194-.615v-1.811h.323c.416-.47.944-.828 1.535-1.04 2.491-1.046 6.542-1.041 9.032 0 .588.213 1.114.566 1.536 1.027z" fill="#dfdfdf"/><path d="m880.559 489.768c-2.49 1.041-6.541 1.037-9.031 0-2.491-1.036-2.516-2.744-.026-3.785s6.541-1.036 9.032 0c2.49 1.037 2.516 2.753.025 3.785z" fill="#fff8f1"/><path d="m880.539 489.596c-2.49 1.041-6.542 1.037-9.032 0-1.209-.507-1.837-1.165-1.88-1.828-.051.719.572 1.441 1.88 1.988 2.507 1.049 6.559 1.053 9.032 0 1.29-.538 1.905-1.252 1.853-1.962-.047.667-.662 1.316-1.853 1.802z" fill="#fff"/><path d="m883.067 487.64-.951-2.151-2.847.026c-2.265-.464-4.603-.443-6.86.061h-2.542l-.92 1.995c-.43.955.219 1.979 1.991 2.723 2.817 1.178 7.372 1.182 10.176 0 1.755-.697 2.409-1.704 1.953-2.654z" fill="url(#p)"/><path d="m880.39 487.682c-2.4 1.002-6.305.997-8.723 0-2.417-.998-2.425-2.645-.025-3.648 2.4-1.002 6.305-1.002 8.718 0 2.412 1.003 2.43 2.641.03 3.648z" fill="#f2f2f2"/><path d="m881.202 487.261c-.257.168-.529.312-.813.43-.572.233-1.168.406-1.776.516h-2.679v-.937z" fill="#808080"/><path d="m882.099 486.255h-1.131v-.938h1.062c.078.143.124.3.136.461.012.162-.011.325-.067.477z" fill="#808080"/><path d="m876.771 484.16h-.043c-.05-.055-.112-.097-.181-.125-.35-.124-.733-.124-1.084 0-.071.025-.135.068-.185.125h-.038v3.716c0 .082.077.159.228.224.349.124.73.124 1.079 0 .151-.061.224-.142.224-.224z" fill="url(#r)"/><path d="m876.547 484.397c-.349.124-.731.124-1.08 0-.301-.129-.305-.332 0-.456.351-.125.733-.125 1.084 0 .292.129.297.331-.004.456z" fill="#fff8f1"/><path d="m876.547 484.376c-.349.124-.73.124-1.079 0-.147-.06-.224-.138-.228-.22 0 .086.069.172.228.241.349.125.73.125 1.079 0 .155-.064.228-.15.224-.236-.004.081-.078.159-.224.215z" fill="#fff"/><path d="m881.693 482.216h-.038c-.052-.054-.115-.095-.185-.12-.35-.127-.734-.127-1.084 0-.07.028-.133.071-.185.124h-.039v3.721c0 .081.082.163.228.223.351.125.734.125 1.084 0 .146-.06.219-.142.219-.223z" fill="url(#s)"/><path d="m881.472 482.452c-.351.125-.733.125-1.084 0-.301-.124-.301-.331 0-.456.35-.126.734-.126 1.084 0 .297.129.297.332 0 .456z" fill="#fff8f1"/><path d="m881.474 482.436c-.35.127-.734.127-1.084 0-.146-.06-.219-.137-.228-.219 0 .086.069.176.228.241.351.124.734.124 1.084 0 .155-.065.228-.151.219-.233-.004.061-.077.151-.219.211z" fill="#fff"/><path d="m871.849 482.216h-.043c-.052-.054-.115-.095-.185-.12-.35-.127-.734-.127-1.084 0-.069.027-.13.07-.18.124h-.039v3.721c0 .081.077.163.224.223.35.125.733.125 1.083 0 .147-.06.224-.142.224-.223z" fill="url(#t)"/><path d="m871.628 482.452c-.351.125-.734.125-1.084 0-.301-.124-.301-.331 0-.456.35-.126.733-.126 1.084 0 .279.129.279.332 0 .456z" fill="#fff8f1"/><path d="m871.625 482.436c-.35.127-.733.127-1.083 0-.147-.06-.22-.137-.224-.219 0 .086.069.176.224.241.35.124.733.124 1.083 0 .155-.065.228-.151.224-.233-.009.061-.082.151-.224.211z" fill="#fff"/><path d="m915.204 601.764h-.164c-.187-.246-.432-.443-.714-.572-.665-.288-1.382-.437-2.107-.437s-1.442.149-2.107.437c-.283.131-.529.331-.714.581h-.151v34.519c0 .378.305.752.86 1.04.665.289 1.383.438 2.108.438s1.442-.149 2.107-.438c.572-.288.86-.666.86-1.045z" fill="url(#u)"/><path d="m914.338 602.864c-.665.29-1.383.439-2.108.439s-1.442-.149-2.107-.439c-1.166-.584-1.17-1.531 0-2.116.665-.288 1.382-.437 2.107-.437s1.443.149 2.108.437c1.152.59 1.157 1.532 0 2.116z" fill="#676767"/><path d="m914.324 602.779c-.665.289-1.383.437-2.108.437s-1.442-.148-2.107-.437c-.564-.279-.86-.649-.86-1.019-.026.4.266.804.86 1.109.665.29 1.382.439 2.107.439s1.443-.149 2.108-.439c.598-.296.886-.696.86-1.092-.022.361-.305.723-.86 1.002z" fill="#979797"/><path d="m915.204 569.077h-.164c-.186-.249-.431-.447-.714-.576-.665-.288-1.382-.437-2.107-.437s-1.442.149-2.107.437c-.285.128-.531.328-.714.581h-.151v34.518c0 .375.305.749.86 1.037.665.288 1.383.437 2.108.437s1.442-.149 2.107-.437c.572-.288.86-.667.86-1.045z" fill="url(#v)"/><path d="m914.338 570.178c-.665.289-1.383.438-2.108.438s-1.442-.149-2.107-.438c-1.166-.585-1.17-1.531 0-2.112.665-.288 1.382-.437 2.107-.437s1.443.149 2.108.437c1.152.585 1.157 1.527 0 2.112z" fill="#676767"/><path d="m914.324 570.088c-.665.29-1.383.439-2.108.439s-1.442-.149-2.107-.439c-.564-.284-.86-.649-.86-1.019-.026.396.266.8.86 1.105.665.29 1.382.439 2.107.439s1.443-.149 2.108-.439c.598-.301.886-.701.86-1.092-.022.37-.305.731-.86 1.006z" fill="#979797"/><path d="m915.204 534.851h-.164c-.186-.249-.431-.447-.714-.577-.664-.289-1.382-.438-2.107-.438s-1.442.149-2.107.438c-.285.128-.531.328-.714.581h-.151v34.515c0 .378.305.752.86 1.04.665.29 1.383.439 2.108.439s1.442-.149 2.107-.439c.572-.288.86-.666.86-1.045z" fill="url(#w)"/><path d="m914.338 535.952c-.665.288-1.383.437-2.108.437s-1.442-.149-2.107-.437c-1.166-.585-1.17-1.531 0-2.112.665-.289 1.382-.439 2.107-.439s1.443.15 2.108.439c1.152.581 1.157 1.527 0 2.112z" fill="#676767"/><path d="m914.324 535.861c-.665.289-1.383.437-2.108.437s-1.442-.148-2.107-.437c-.564-.284-.86-.653-.86-1.023-.026.4.266.804.86 1.109.665.289 1.382.437 2.107.437s1.443-.148 2.108-.437c.598-.301.886-.701.86-1.096-.022.369-.305.731-.86 1.01z" fill="#979797"/><path d="m915.204 502.16h-.164c-.186-.247-.431-.444-.714-.572-.664-.289-1.382-.439-2.107-.439s-1.442.15-2.107.439c-.284.13-.53.329-.714.581h-.151v34.519c0 .374.305.748.86 1.036.665.289 1.383.437 2.108.437s1.442-.148 2.107-.437c.572-.288.86-.666.86-1.045z" fill="url(#x)"/><path d="m914.338 503.261c-.665.288-1.383.437-2.108.437s-1.442-.149-2.107-.437c-1.166-.589-1.17-1.536 0-2.116.665-.289 1.382-.437 2.107-.437s1.443.148 2.108.437c1.152.589 1.157 1.535 0 2.116z" fill="#676767"/><path d="m914.324 503.17c-.665.29-1.383.439-2.108.439s-1.442-.149-2.107-.439c-.564-.283-.86-.649-.86-1.019-.026.4.266.804.86 1.11.665.288 1.382.437 2.107.437s1.443-.149 2.108-.437c.598-.301.886-.697.86-1.093-.022.366-.305.727-.86 1.002z" fill="#979797"/><path d="m958.832 518.163-4.912 2.847h-5.006v-8.271h.448z" fill="#979797"/><path d="m948.282 531.023.293-4.099c1.133.076 2.227.447 3.174 1.075 1.625 1.17 1.643 2.826.12 3.845l-3.626-.258z" fill="#808080"/><path d="m956.779 526.49.03.056c-.062.116-.091.246-.086.378.018.294.106.579.255.832.15.253.357.468.605.626.113.069.242.108.374.112l.03.051 1.291-.761c.084-.061.15-.143.193-.239.042-.095.058-.199.047-.303-.018-.293-.105-.578-.255-.832-.149-.253-.357-.468-.605-.626-.085-.059-.184-.096-.287-.106s-.207.008-.302.05z" fill="url(#y)"/><path d="m957.403 526.533c.244.161.446.376.591.629.145.254.229.538.244.829 0 .538-.374.757-.835.49-.249-.157-.456-.371-.606-.625-.149-.253-.237-.539-.254-.833.022-.537.396-.757.86-.49z" fill="#676767"/><path d="m951.221 529.191.043.073c-.079.148-.118.314-.112.481.02.374.128.737.314 1.061s.445.6.757.806c.144.089.308.14.477.146l.039.065 5.677-3.243c.106-.081.189-.187.242-.309.052-.122.073-.256.059-.388-.019-.373-.127-.735-.313-1.059-.186-.323-.445-.599-.758-.803-.107-.078-.234-.126-.366-.139s-.266.01-.386.066z" fill="url(#A)"/><path d="m952.003 529.251c.312.204.572.479.758.803s.293.687.313 1.059c0 .688-.482.968-1.071.628-.313-.205-.574-.48-.761-.805-.186-.324-.294-.688-.314-1.061 0-.689.482-.968 1.075-.624z" fill="#676767"/><path d="m951.206 523.462h-.137c-.157-.241-.371-.439-.624-.576-.568-.289-1.195-.439-1.832-.439s-1.265.15-1.832.439c-.256.135-.471.335-.624.58h-.129v6.688c.024.225.108.44.241.622.134.183.313.327.52.419.568.288 1.196.438 1.832.438.637 0 1.265-.15 1.833-.438.206-.093.384-.239.516-.422s.213-.398.236-.623z" fill="url(#B)"/><path d="m951.211 523.462v2.151c-.147.152-.315.283-.499.387-.648.327-1.363.498-2.088.498-.726 0-1.441-.171-2.089-.498-.188-.106-.359-.239-.507-.396v-2.151h.129c.153-.245.368-.445.624-.58.567-.288 1.194-.439 1.83-.439s1.263.151 1.83.439c.255.134.47.333.623.576z" fill="#979797"/><path d="m950.455 524.562c-.568.289-1.195.439-1.832.439s-1.264-.15-1.832-.439c-1.015-.585-1.019-1.531 0-2.111.568-.289 1.195-.439 1.832-.439s1.264.15 1.832.439c1.015.58 1.015 1.552 0 2.111z" fill="#676767"/><path d="m950.454 524.472c-.568.288-1.196.439-1.833.439-.636 0-1.264-.151-1.832-.439-.203-.092-.379-.235-.512-.414s-.219-.388-.249-.609c.012.237.09.466.225.661.134.196.32.351.536.448.568.288 1.196.439 1.832.439.637 0 1.265-.151 1.833-.439.216-.093.401-.245.534-.439.133-.195.209-.422.218-.658-.028.219-.113.427-.244.604-.132.177-.307.317-.508.407z" fill="#979797"/><path d="m951.215 529.079v.465c-.024.224-.106.438-.238.621-.132.182-.309.327-.515.42-.568.289-1.197.44-1.834.44-.638 0-1.266-.151-1.834-.44-.208-.091-.388-.234-.522-.416s-.218-.396-.244-.621v-.482c.021.23.103.449.238.636s.317.334.528.427c.568.287 1.197.437 1.834.437s1.265-.15 1.834-.437c.207-.094.385-.24.517-.424s.214-.4.236-.626z" fill="url(#D)"/><path d="m951.215 528.253v.482c-.023.224-.105.439-.237.623-.132.183-.31.329-.516.422-.568.288-1.197.438-1.834.438-.638 0-1.266-.15-1.834-.438-.208-.091-.388-.234-.522-.416s-.218-.396-.244-.621v-.481c.023.229.106.448.24.635.135.187.316.336.526.431.568.287 1.197.437 1.834.437s1.265-.15 1.834-.437c.21-.095.391-.245.523-.435.133-.189.212-.41.23-.64z" fill="url(#E)"/><path d="m951.215 527.444v.465c-.024.224-.106.438-.238.621-.132.182-.309.327-.515.42-.568.289-1.197.44-1.834.44-.638 0-1.266-.151-1.834-.44-.208-.091-.388-.234-.522-.416s-.218-.396-.244-.621v-.482c.021.23.103.449.238.636s.317.334.528.427c.568.287 1.197.437 1.834.437s1.265-.15 1.834-.437c.207-.094.385-.24.517-.424s.214-.4.236-.626z" fill="url(#F)"/><path d="m958.839 518.163-4.911 2.847-4.52 2.61-77.859-44.604 9.431-5.449 2.082 1.191 12.739 7.299 22.494 12.885 11.015 6.309 20.059 11.488z" fill="#f2f2f2"/><path d="m958.816 521.247.03-3.084-9.432 5.458-.03 3.079z" fill="#b3b2b3"/><path d="m871.504 482.099.025-3.079 77.868 44.6-.03 3.079z" fill="#b3b2b3"/><path d="m893.937 473.15h-.92c-.813-1.183-2.15-2.296-4.043-3.238-6.58-3.303-17.203-3.321-23.767-.039-1.896.95-3.238 2.077-4.029 3.277h-.861v3.222c.073 2.12 1.721 4.232 4.955 5.853 6.585 3.303 17.204 3.32 23.767.039 3.238-1.626 4.864-3.755 4.881-5.892z" fill="url(#G)"/><path d="m889.045 479.36c-6.541 3.282-17.182 3.269-23.766-.034-6.585-3.303-6.62-8.645-.078-11.926 6.542-3.282 17.204-3.265 23.767.038 6.563 3.304 6.602 8.641.077 11.922z" fill="#676767"/><path d="m889.042 478.844c-6.542 3.282-17.182 3.264-23.767-.039-3.183-1.595-4.83-3.664-4.95-5.75-.133 2.249 1.514 4.529 4.95 6.253 6.585 3.304 17.204 3.316 23.767.035 3.38-1.695 5.002-3.94 4.873-6.172-.125 2.082-1.746 4.12-4.873 5.673z" fill="#979797"/><path d="m889.052 479.361c-.962.472-1.959.87-2.981 1.191h-7.587v-13.135h10.447c.016-.003.032-.003.047 0 6.598 3.325 6.598 8.662.074 11.944z" fill="#979797"/><path d="m892.071 471.499-2.013-18.494-6.021.064c-4.778-1.181-9.777-1.128-14.529.155l-5.393.06-1.948 18.167c-.942 2.417.464 5.028 4.215 6.908 5.969 3.01 15.62 3.01 21.556.034 3.716-1.884 5.088-4.482 4.133-6.894z" fill="url(#H)"/><path d="m886.382 458.501c-5.083 2.551-13.354 2.538-18.468-.03-5.113-2.567-5.161-6.714-.06-9.264s13.333-2.537 18.494.026 5.118 6.718.034 9.268z" fill="#676767"/><path d="m877.209 459.387c-3.299 0-6.391-.641-8.701-1.798-2.107-1.058-3.269-2.4-3.269-3.776s1.14-2.688 3.209-3.725c2.275-1.139 5.324-1.767 8.602-1.767 3.277 0 6.391.636 8.7 1.797 2.108 1.054 3.269 2.396 3.269 3.777 0 1.38-1.14 2.683-3.208 3.724-2.28 1.14-5.329 1.768-8.602 1.768z" fill="#595a5a"/><path d="m868.448 451.585c2.275-1.14 5.324-1.768 8.602-1.768 3.277 0 6.391.637 8.7 1.798 1.721.86 2.8 1.918 3.14 3.01.08-.241.124-.493.129-.748 0-1.38-1.161-2.722-3.269-3.776-2.309-1.161-5.397-1.798-8.7-1.798s-6.323.628-8.602 1.768c-2.069 1.036-3.209 2.361-3.209 3.724.006.255.049.507.129.749.336-1.075 1.39-2.112 3.08-2.959z" fill="url(#I)"/><path d="m958.842 518.146-5.057 2.929h-5.162v-8.516h.461z" fill="#979797"/><path d="m925.603 499.054h-12.933v-5.333h3.626z" fill="#969595"/><path d="m917.228 494.792h-.249c-.273-.426-.651-.774-1.097-1.011-1-.508-2.105-.772-3.226-.772s-2.226.264-3.226.772c-.448.239-.825.592-1.092 1.023h-.232v1.661c0 .658.464 1.32 1.342 1.823.999.508 2.104.772 3.225.772s2.226-.264 3.226-.772c.86-.507 1.32-1.17 1.325-1.836z" fill="url(#J)"/><path d="m915.899 496.732c-1 .507-2.105.772-3.226.772s-2.226-.265-3.225-.772c-1.785-1.032-1.794-2.697 0-3.72.999-.508 2.104-.772 3.225-.772s2.226.264 3.226.772c1.763 1.027 1.772 2.692 0 3.72z" fill="#676767"/><path d="m915.901 496.573c-.999.507-2.104.772-3.225.772s-2.226-.265-3.226-.772c-.86-.499-1.29-1.144-1.342-1.798-.039.705.43 1.415 1.342 1.953 1 .507 2.105.771 3.226.771s2.226-.264 3.225-.771c.916-.529 1.355-1.231 1.321-1.927-.035.645-.473 1.281-1.321 1.772z" fill="#969595"/><path d="m916.209 496.525h-3.114v-3.195h3.252c1.226.95 1.191 2.288-.138 3.195z" fill="#969595"/><path d="m916.201 493.269h-.193c-.213-.332-.51-.602-.86-.783-.771-.391-1.622-.595-2.486-.595s-1.716.204-2.486.595c-.353.181-.651.455-.86.792h-.181v1.29c.035.305.15.595.331.842.182.248.425.444.705.568.771.392 1.622.596 2.486.596s1.716-.204 2.486-.596c.282-.123.526-.32.706-.569.18-.25.29-.543.318-.85z" fill="url(#K)"/><path d="m915.166 494.758c-.77.39-1.622.593-2.486.593-.863 0-1.715-.203-2.485-.593-1.381-.796-1.385-2.078 0-2.869.77-.391 1.622-.595 2.485-.595.864 0 1.716.204 2.486.595 1.364.8 1.368 2.086 0 2.869z" fill="#676767"/><path d="m915.168 494.642c-.771.391-1.622.595-2.486.595s-1.716-.204-2.486-.595c-.276-.125-.516-.317-.697-.559s-.298-.526-.34-.826c-.03.542.314 1.092 1.037 1.505.77.391 1.622.594 2.486.594s1.715-.203 2.486-.594c.709-.43 1.045-.95 1.019-1.488-.04.296-.155.576-.333.815-.179.24-.415.43-.686.553z" fill="#969595"/><path d="m954.52 516.46h-.318c-.349-.543-.832-.987-1.402-1.291-2.275-1.316-5.961-1.324-8.223 0-.571.301-1.053.746-1.398 1.291h-.305v1.29c.025.86.593 1.686 1.72 2.331 2.279 1.316 5.961 1.325 8.223 0 1.123-.649 1.686-1.497 1.691-2.348z" fill="url(#L)"/><path d="m952.815 518.933c-2.263 1.29-5.944 1.29-8.224 0-2.279-1.291-2.292-3.441-.026-4.731 2.267-1.29 5.949-1.29 8.224 0s2.292 3.423.026 4.731z" fill="#676767"/><g fill="#333"><path d="m954.151 516.433c-.15.076-.316.116-.484.116s-.334-.04-.484-.116c-.057-.021-.107-.058-.143-.109-.035-.05-.054-.109-.054-.171 0-.061.019-.121.054-.171.036-.05.086-.088.143-.108.15-.076.316-.116.484-.116s.334.04.484.116c.267.155.267.408 0 .559z"/><path d="m949.278 519.505c-.15.076-.316.116-.484.116s-.334-.04-.484-.116c-.266-.155-.271-.43 0-.559.151-.077.317-.117.486-.117s.336.04.486.117c.058.021.107.059.142.109s.054.11.053.172c0 .061-.02.12-.055.17-.036.05-.086.088-.144.108z"/><path d="m944.244 516.433c-.15.076-.317.116-.486.116-.168 0-.335-.04-.486-.116-.057-.021-.107-.058-.143-.109-.035-.05-.054-.109-.054-.171 0-.061.019-.121.054-.171.036-.05.086-.088.143-.108.15-.076.316-.116.484-.116s.334.04.484.116c.267.155.271.408.004.559z"/></g><path d="m952.82 518.734c-2.263 1.291-5.944 1.291-8.224 0-1.101-.636-1.673-1.458-1.72-2.292-.043.899.525 1.806 1.72 2.495 2.28 1.316 5.961 1.32 8.224 0 1.174-.676 1.72-1.57 1.69-2.461-.03.818-.607 1.631-1.69 2.258z" fill="#979797"/><path d="m953.342 518.598h-4.495v-5.402c1.382-.003 2.743.337 3.961.989 2.116 1.217 2.275 3.101.534 4.413z" fill="#979797"/><path d="m952.869 505.484h-.227c-.249-.388-.593-.706-.998-.925-.912-.462-1.92-.703-2.942-.703s-2.03.241-2.942.703c-.409.218-.753.54-.998.934h-.21v10.752c0 .606.43 1.208 1.225 1.669.912.463 1.92.705 2.942.705 1.023 0 2.031-.242 2.942-.705.8-.461 1.204-1.067 1.208-1.678z" fill="url(#M)"/><path d="m952.869 505.484v3.484c-.233.244-.501.453-.795.619-1.845 1.067-4.847 1.058-6.705 0-.301-.171-.576-.384-.817-.632v-3.441h.21c.245-.393.589-.715.998-.933.911-.461 1.918-.701 2.94-.701 1.021 0 2.028.24 2.939.701.409.216.754.535 1.003.925z" fill="#979797"/><path d="m951.658 507.251c-.912.462-1.92.703-2.942.703s-2.03-.241-2.942-.703c-1.626-.942-1.634-2.464 0-3.398.912-.462 1.92-.703 2.942-.703s2.03.241 2.942.703c1.613.942 1.621 2.465 0 3.398z" fill="#676767"/><path d="m951.659 507.109c-.912.461-1.92.702-2.942.702s-2.03-.241-2.942-.702c-.787-.456-1.191-1.045-1.221-1.638-.035.641.374 1.29 1.221 1.78.912.462 1.92.703 2.942.703s2.03-.241 2.942-.703c.838-.481 1.238-1.122 1.204-1.759-.03.589-.43 1.17-1.204 1.617z" fill="#979797"/><path d="m953.427 503.359h-.258c-.286-.439-.678-.8-1.14-1.049-1.858-1.075-4.86-1.079-6.705 0-.464.25-.856.616-1.135 1.062h-.241v3.738c0 .688.481 1.372 1.393 1.897 1.858 1.075 4.86 1.079 6.705 0 .912-.525 1.372-1.218 1.377-1.91z" fill="url(#N)"/><path d="m952.07 505.394c-1.845 1.067-4.847 1.058-6.705 0s-1.862-2.804 0-3.871c1.862-1.066 4.847-1.058 6.705 0s1.845 2.804 0 3.871z" fill="#f2f2f2"/><path d="m952.762 504.895h-3.87v-4.172c1.11-.002 2.204.273 3.182.8 1.549.916 1.789 2.314.688 3.372z" fill="#979797"/><path d="m951.917 500.525h-.177c-.193-.299-.46-.543-.774-.71-.703-.357-1.482-.543-2.271-.543s-1.567.186-2.271.543c-.313.17-.578.417-.769.719h-.164v2.533c.033.278.137.544.303.77s.387.405.643.52c.704.357 1.482.544 2.271.544s1.567-.187 2.271-.544c.255-.114.476-.293.64-.52.164-.226.265-.492.293-.77z" fill="url(#O)"/><path d="m951.908 500.525v2.533c.001.131-.024.261-.073.383-.986.448-2.058.677-3.141.672s-2.152-.245-3.134-.702c-.041-.113-.065-.232-.069-.353v-2.533h.159c.192-.302.459-.55.774-.718.703-.357 1.481-.544 2.269-.544.789 0 1.566.187 2.269.544.313.168.579.412.774.709z" fill="#979797"/><path d="m950.98 501.892c-.704.358-1.482.544-2.271.544s-1.567-.186-2.271-.544c-1.26-.727-1.265-1.901 0-2.619.704-.356 1.482-.542 2.271-.542s1.567.186 2.271.542c1.243.723 1.247 1.897 0 2.619z" fill="#676767"/><path d="m950.981 501.781c-.704.357-1.482.542-2.271.542s-1.567-.185-2.271-.542c-.252-.113-.471-.289-.636-.51-.166-.221-.272-.481-.31-.754-.026.494.288.993.946 1.372.703.357 1.481.543 2.271.543.789 0 1.567-.186 2.271-.543.645-.374.954-.86.929-1.355-.037.27-.141.526-.304.744-.162.218-.378.391-.625.503z" fill="#979797"/><path d="m953.427 497.376h-.258c-.286-.44-.678-.8-1.14-1.049-1.858-1.075-4.86-1.08-6.705 0-.464.249-.856.615-1.135 1.062h-.241v3.733c0 .688.481 1.377 1.393 1.901 1.858 1.071 4.86 1.08 6.705 0 .912-.529 1.372-1.217 1.377-1.914z" fill="url(#P)"/><path d="m952.07 499.393c-1.845 1.063-4.847 1.058-6.705 0s-1.862-2.804 0-3.871c1.862-1.066 4.847-1.058 6.705 0s1.845 2.805 0 3.871z" fill="#676767"/><path d="m952.07 499.23c-1.845 1.067-4.847 1.058-6.705 0-.894-.516-1.359-1.191-1.393-1.866-.039.731.43 1.47 1.393 2.03 1.858 1.071 4.86 1.075 6.705 0 .951-.551 1.411-1.291 1.373-2.005-.035.671-.491 1.329-1.373 1.841z" fill="#979797"/><path d="m935.42 500.228h13.918l7.634 4.253 2.258-1.191-5.699-7.092 3.011-3.17-1.6-1.677-10.868 5.384-9.837.886z" fill="#373737"/><path d="m935.42 499.562h13.918l7.634 4.254 2.258-1.188-5.699-7.096 3.011-3.17-1.6-1.677-10.868 5.385-9.837.886z" fill="#676767"/><path d="m964.755 487.296c-.12 2.615-.903 5.127-2.916 6.882-.361.352-.805.608-1.29.744-.363.069-.735.069-1.097 0h-.077c-.187-.047-.37-.103-.551-.168-1.399-.473-2.583-1.431-3.338-2.702-.754-1.27-1.028-2.768-.774-4.223.255-1.455 1.022-2.771 2.163-3.71 1.14-.939 2.58-1.438 4.057-1.408.287.002.575.022.86.061.301.042.599.106.89.193.26.098.503.235.723.405.51.409.874.971 1.04 1.604.254.746.359 1.535.31 2.322z" fill="#676767"/><path d="m964.761 487.296c-.12 2.615-.903 5.126-2.916 6.881-.361.352-.804.608-1.29.744-.362.069-.734.069-1.097 0h-.077c-.189-.034-.374-.09-.55-.168-.33-.129-.608-.363-.792-.666-.668-1.243-.951-2.656-.813-4.06.055-1.05.238-2.088.547-3.093.33-1.011.875-1.938 1.599-2.718.342-.413.738-.778 1.179-1.084.378-.238.818-.356 1.264-.339.306.011.608.076.891.193.259.098.503.234.722.404.51.41.875.972 1.041 1.605.245.741.344 1.522.292 2.301z" fill="url(#Q)"/><path d="m956.2 502.008c.133 2.942 1.015 5.768 3.277 7.763.406.399.906.687 1.454.839.408.078.827.078 1.234 0h.086c.211-.051.417-.116.62-.193 1.559-.543 2.874-1.623 3.71-3.047.836-1.423 1.139-3.098.853-4.724-.285-1.626-1.14-3.098-2.411-4.151-1.271-1.054-2.876-1.621-4.526-1.6-.328.001-.656.024-.981.068-.339.047-.674.119-1.002.215-.292.114-.566.269-.813.461-.574.459-.985 1.091-1.174 1.802-.273.827-.384 1.698-.327 2.567z" fill="#1a1a1a"/><path d="m956.201 502.009c.134 2.942 1.015 5.767 3.277 7.763.406.398.906.687 1.454.839.408.078.827.078 1.235 0h.086c.213-.038.421-.103.619-.194.371-.143.684-.404.89-.744.749-1.399 1.068-2.988.916-4.567-.064-1.181-.27-2.349-.615-3.48-.371-1.138-.986-2.181-1.802-3.058-.383-.47-.831-.884-1.329-1.23-.423-.27-.918-.403-1.419-.383-.344.012-.684.085-1.002.215-.292.114-.566.269-.813.461-.574.459-.986 1.091-1.174 1.802-.273.83-.382 1.704-.323 2.576z" fill="url(#R)"/><path d="m936.3 498.272c.001 1.228-.363 2.429-1.045 3.451s-1.651 1.819-2.786 2.289c-1.135.471-2.384.595-3.589.355-1.205-.239-2.312-.83-3.181-1.698-.869-.869-1.461-1.975-1.701-3.18s-.117-2.454.353-3.589 1.266-2.105 2.287-2.788c1.022-.682 2.223-1.047 3.451-1.047 1.646.001 3.225.656 4.389 1.819 1.164 1.164 1.819 2.741 1.822 4.388z" fill="#333"/><path d="m929.884 503.286c3.057 0 5.535-2.478 5.535-5.535s-2.478-5.535-5.535-5.535-5.535 2.478-5.535 5.535 2.478 5.535 5.535 5.535z" fill="#4d4e4e"/><path d="m928.755 500.848c2.212 0 4.005-1.793 4.005-4.004 0-2.212-1.793-4.005-4.005-4.005-2.211 0-4.004 1.793-4.004 4.005 0 2.211 1.793 4.004 4.004 4.004z" fill="#676767"/><path d="m927.098 494.8c0 .137-.04.271-.116.385-.077.114-.185.202-.311.255-.127.052-.266.066-.4.039-.135-.026-.258-.092-.355-.189s-.163-.22-.189-.355c-.027-.134-.013-.273.039-.4.052-.126.141-.234.255-.311.114-.076.248-.116.385-.116.183 0 .36.073.489.203.13.129.203.306.203.489z" fill="#cbcbca"/><path d="m925.603 495.879c.173 0 .313-.14.313-.314 0-.173-.14-.314-.313-.314-.174 0-.314.141-.314.314 0 .174.14.314.314.314z" fill="#cbcbca"/><path d="m947.749 496.332c-.183.094-.386.143-.592.143-.205 0-.408-.049-.591-.143-.327-.19-.331-.495 0-.684.183-.095.386-.144.591-.144.206 0 .409.049.592.144.322.189.327.494 0 .684z" fill="#373737"/><path d="m952.87 496.814c-.183.094-.386.143-.592.143s-.408-.049-.591-.143c-.071-.025-.133-.071-.177-.132-.044-.062-.068-.135-.068-.21 0-.076.024-.149.068-.211.044-.061.106-.107.177-.131.183-.095.385-.144.591-.144s.409.049.592.144c.073.022.138.067.183.128.046.062.071.137.071.214 0 .076-.025.151-.071.213-.045.061-.11.106-.183.129z" fill="#373737"/><path d="m950.076 499.098c-.183.094-.386.143-.592.143-.205 0-.408-.049-.591-.143-.327-.19-.331-.495 0-.684.183-.095.386-.144.591-.144.206 0 .409.049.592.144.322.189.326.494 0 .684z" fill="#373737"/><g fill="#eb008b"><path d="m541.281 491.485c1.199 0 2.172-1.009 2.172-2.254s-.973-2.254-2.172-2.254c-1.2 0-2.172 1.009-2.172 2.254s.972 2.254 2.172 2.254z"/><path d="m532.488 491.485c1.2 0 2.172-1.009 2.172-2.254s-.972-2.254-2.172-2.254-2.172 1.009-2.172 2.254.972 2.254 2.172 2.254z"/><path d="m523.695 491.485c1.2 0 2.172-1.009 2.172-2.254s-.972-2.254-2.172-2.254c-1.199 0-2.172 1.009-2.172 2.254s.973 2.254 2.172 2.254z"/><path d="m514.88 491.485c1.2 0 2.172-1.009 2.172-2.254s-.972-2.254-2.172-2.254c-1.199 0-2.171 1.009-2.171 2.254s.972 2.254 2.171 2.254z"/><path d="m506.088 491.485c1.199 0 2.172-1.009 2.172-2.254s-.973-2.254-2.172-2.254c-1.2 0-2.172 1.009-2.172 2.254s.972 2.254 2.172 2.254z"/><path d="m497.295 491.485c1.2 0 2.172-1.009 2.172-2.254s-.972-2.254-2.172-2.254-2.172 1.009-2.172 2.254.972 2.254 2.172 2.254z"/><path d="m488.48 491.485c1.2 0 2.172-1.009 2.172-2.254s-.972-2.254-2.172-2.254c-1.199 0-2.172 1.009-2.172 2.254s.973 2.254 2.172 2.254z"/><path d="m479.688 491.485c1.199 0 2.171-1.009 2.171-2.254s-.972-2.254-2.171-2.254c-1.2 0-2.172 1.009-2.172 2.254s.972 2.254 2.172 2.254z"/><path d="m470.895 491.485c1.199 0 2.172-1.009 2.172-2.254s-.973-2.254-2.172-2.254c-1.2 0-2.172 1.009-2.172 2.254s.972 2.254 2.172 2.254z"/><path d="m462.103 491.485c1.199 0 2.171-1.009 2.171-2.254s-.972-2.254-2.171-2.254c-1.2 0-2.172 1.009-2.172 2.254s.972 2.254 2.172 2.254z"/><path d="m567.009 491.485c1.2 0 2.172-1.009 2.172-2.254s-.972-2.254-2.172-2.254c-1.199 0-2.171 1.009-2.171 2.254s.972 2.254 2.171 2.254z"/><path d="m558.217 491.485c1.199 0 2.172-1.009 2.172-2.254s-.973-2.254-2.172-2.254c-1.2 0-2.172 1.009-2.172 2.254s.972 2.254 2.172 2.254z"/><path d="m549.402 491.485c1.2 0 2.172-1.009 2.172-2.254s-.972-2.254-2.172-2.254c-1.199 0-2.172 1.009-2.172 2.254s.973 2.254 2.172 2.254z"/><path d="m427.156 491.485c1.199 0 2.172-1.009 2.172-2.254s-.973-2.254-2.172-2.254c-1.2 0-2.172 1.009-2.172 2.254s.972 2.254 2.172 2.254z"/><path d="m418.364 491.485c1.199 0 2.171-1.009 2.171-2.254s-.972-2.254-2.171-2.254c-1.2 0-2.172 1.009-2.172 2.254s.972 2.254 2.172 2.254z"/><path d="m409.571 491.485c1.199 0 2.172-1.009 2.172-2.254s-.973-2.254-2.172-2.254c-1.2 0-2.172 1.009-2.172 2.254s.972 2.254 2.172 2.254z"/><path d="m400.756 491.485c1.199 0 2.172-1.009 2.172-2.254s-.973-2.254-2.172-2.254c-1.2 0-2.172 1.009-2.172 2.254s.972 2.254 2.172 2.254z"/><path d="m391.963 491.485c1.2 0 2.172-1.009 2.172-2.254s-.972-2.254-2.172-2.254c-1.199 0-2.172 1.009-2.172 2.254s.973 2.254 2.172 2.254z"/><path d="m383.171 491.485c1.199 0 2.171-1.009 2.171-2.254s-.972-2.254-2.171-2.254c-1.2 0-2.172 1.009-2.172 2.254s.972 2.254 2.172 2.254z"/><path d="m374.356 491.485c1.199 0 2.172-1.009 2.172-2.254s-.973-2.254-2.172-2.254c-1.2 0-2.172 1.009-2.172 2.254s.972 2.254 2.172 2.254z"/><path d="m365.563 491.485c1.2 0 2.172-1.009 2.172-2.254s-.972-2.254-2.172-2.254c-1.199 0-2.172 1.009-2.172 2.254s.973 2.254 2.172 2.254z"/><path d="m356.77 491.485c1.2 0 2.172-1.009 2.172-2.254s-.972-2.254-2.172-2.254c-1.199 0-2.172 1.009-2.172 2.254s.973 2.254 2.172 2.254z"/><path d="m347.978 491.485c1.2 0 2.172-1.009 2.172-2.254s-.972-2.254-2.172-2.254c-1.199 0-2.172 1.009-2.172 2.254s.973 2.254 2.172 2.254z"/><path d="m452.885 491.485c1.199 0 2.171-1.009 2.171-2.254s-.972-2.254-2.171-2.254c-1.2 0-2.172 1.009-2.172 2.254s.972 2.254 2.172 2.254z"/><path d="m444.092 491.485c1.2 0 2.172-1.009 2.172-2.254s-.972-2.254-2.172-2.254c-1.199 0-2.172 1.009-2.172 2.254s.973 2.254 2.172 2.254z"/><path d="m435.277 491.485c1.2 0 2.172-1.009 2.172-2.254s-.972-2.254-2.172-2.254c-1.199 0-2.172 1.009-2.172 2.254s.973 2.254 2.172 2.254z"/><path d="m769.529 491.485c1.2 0 2.172-1.009 2.172-2.254s-.972-2.254-2.172-2.254c-1.199 0-2.171 1.009-2.171 2.254s.972 2.254 2.171 2.254z"/><path d="m760.737 491.485c1.199 0 2.172-1.009 2.172-2.254s-.973-2.254-2.172-2.254c-1.2 0-2.172 1.009-2.172 2.254s.972 2.254 2.172 2.254z"/><path d="m751.945 491.485c1.199 0 2.172-1.009 2.172-2.254s-.973-2.254-2.172-2.254c-1.2 0-2.172 1.009-2.172 2.254s.972 2.254 2.172 2.254z"/><path d="m743.129 491.485c1.2 0 2.172-1.009 2.172-2.254s-.972-2.254-2.172-2.254c-1.199 0-2.172 1.009-2.172 2.254s.973 2.254 2.172 2.254z"/><path d="m734.337 491.485c1.199 0 2.172-1.009 2.172-2.254s-.973-2.254-2.172-2.254c-1.2 0-2.172 1.009-2.172 2.254s.972 2.254 2.172 2.254z"/><path d="m725.544 491.485c1.2 0 2.172-1.009 2.172-2.254s-.972-2.254-2.172-2.254c-1.199 0-2.172 1.009-2.172 2.254s.973 2.254 2.172 2.254z"/><path d="m716.752 491.485c1.199 0 2.172-1.009 2.172-2.254s-.973-2.254-2.172-2.254c-1.2 0-2.172 1.009-2.172 2.254s.972 2.254 2.172 2.254z"/><path d="m707.937 491.485c1.199 0 2.172-1.009 2.172-2.254s-.973-2.254-2.172-2.254c-1.2 0-2.172 1.009-2.172 2.254s.972 2.254 2.172 2.254z"/><path d="m699.144 491.485c1.2 0 2.172-1.009 2.172-2.254s-.972-2.254-2.172-2.254c-1.199 0-2.172 1.009-2.172 2.254s.973 2.254 2.172 2.254z"/><path d="m690.351 491.485c1.2 0 2.172-1.009 2.172-2.254s-.972-2.254-2.172-2.254c-1.199 0-2.172 1.009-2.172 2.254s.973 2.254 2.172 2.254z"/><path d="m795.258 491.485c1.2 0 2.172-1.009 2.172-2.254s-.972-2.254-2.172-2.254c-1.199 0-2.172 1.009-2.172 2.254s.973 2.254 2.172 2.254z"/><path d="m786.466 491.485c1.199 0 2.172-1.009 2.172-2.254s-.973-2.254-2.172-2.254c-1.2 0-2.172 1.009-2.172 2.254s.972 2.254 2.172 2.254z"/><path d="m777.651 491.485c1.199 0 2.172-1.009 2.172-2.254s-.973-2.254-2.172-2.254c-1.2 0-2.172 1.009-2.172 2.254s.972 2.254 2.172 2.254z"/><path d="m655.405 491.485c1.2 0 2.172-1.009 2.172-2.254s-.972-2.254-2.172-2.254c-1.199 0-2.172 1.009-2.172 2.254s.973 2.254 2.172 2.254z"/><path d="m646.612 491.485c1.2 0 2.172-1.009 2.172-2.254s-.972-2.254-2.172-2.254c-1.199 0-2.172 1.009-2.172 2.254s.973 2.254 2.172 2.254z"/><path d="m637.82 491.485c1.199 0 2.172-1.009 2.172-2.254s-.973-2.254-2.172-2.254c-1.2 0-2.172 1.009-2.172 2.254s.972 2.254 2.172 2.254z"/><path d="m629.005 491.485c1.199 0 2.172-1.009 2.172-2.254s-.973-2.254-2.172-2.254c-1.2 0-2.172 1.009-2.172 2.254s.972 2.254 2.172 2.254z"/><path d="m620.212 491.485c1.2 0 2.172-1.009 2.172-2.254s-.972-2.254-2.172-2.254c-1.199 0-2.172 1.009-2.172 2.254s.973 2.254 2.172 2.254z"/><path d="m611.42 491.485c1.199 0 2.172-1.009 2.172-2.254s-.973-2.254-2.172-2.254c-1.2 0-2.172 1.009-2.172 2.254s.972 2.254 2.172 2.254z"/><path d="m602.627 491.485c1.2 0 2.172-1.009 2.172-2.254s-.972-2.254-2.172-2.254c-1.199 0-2.172 1.009-2.172 2.254s.973 2.254 2.172 2.254z"/><path d="m593.812 491.485c1.199 0 2.172-1.009 2.172-2.254s-.973-2.254-2.172-2.254c-1.2 0-2.172 1.009-2.172 2.254s.972 2.254 2.172 2.254z"/><path d="m585.02 491.485c1.199 0 2.172-1.009 2.172-2.254s-.973-2.254-2.172-2.254c-1.2 0-2.172 1.009-2.172 2.254s.972 2.254 2.172 2.254z"/><path d="m576.227 491.485c1.2 0 2.172-1.009 2.172-2.254s-.972-2.254-2.172-2.254-2.172 1.009-2.172 2.254.972 2.254 2.172 2.254z"/><path d="m681.134 491.485c1.199 0 2.172-1.009 2.172-2.254s-.973-2.254-2.172-2.254c-1.2 0-2.172 1.009-2.172 2.254s.972 2.254 2.172 2.254z"/><path d="m672.341 491.485c1.2 0 2.172-1.009 2.172-2.254s-.972-2.254-2.172-2.254c-1.199 0-2.172 1.009-2.172 2.254s.973 2.254 2.172 2.254z"/><path d="m663.526 491.485c1.2 0 2.172-1.009 2.172-2.254s-.972-2.254-2.172-2.254c-1.199 0-2.172 1.009-2.172 2.254s.973 2.254 2.172 2.254z"/></g><path d="m472.501 465.76-6.864-18.284h-.117c.059.604.107 1.422.146 2.454.039 1.012.059 2.073.059 3.183v12.647h-2.424v-20.854h3.884l6.426 17.086h.117l6.542-17.086h3.855v20.854h-2.599v-12.822c0-1.013.019-2.015.058-3.008.059-.993.107-1.801.146-2.425h-.116l-6.952 18.255zm30.382 0-2.512-6.455h-8.265l-2.483 6.455h-2.658l8.149-20.942h2.366l8.119 20.942zm-5.637-15.1c-.058-.156-.156-.438-.292-.847s-.273-.828-.409-1.256c-.117-.448-.214-.789-.292-1.022-.136.603-.292 1.197-.467 1.781-.176.565-.322 1.013-.438 1.344l-2.366 6.309h6.601zm25.372 15.1h-2.979l-5.521-9.054-5.607 9.054h-2.775l6.922-10.865-6.484-9.989h2.921l5.111 8.178 5.14-8.178h2.775l-6.455 9.93zm16.055-20.854c2.726 0 4.712.535 5.958 1.606 1.247 1.071 1.87 2.58 1.87 4.528 0 1.148-.263 2.229-.789 3.242-.506.993-1.373 1.801-2.599 2.424-1.208.623-2.853.934-4.936.934h-2.396v8.12h-2.628v-20.854zm-.234 2.249h-2.658v8.236h2.103c1.987 0 3.466-.321 4.44-.963.974-.643 1.46-1.733 1.46-3.272 0-1.343-.428-2.346-1.285-3.008s-2.21-.993-4.06-.993zm30.594 8.149c0 2.161-.37 4.05-1.11 5.666-.72 1.597-1.791 2.843-3.213 3.739-1.421.895-3.183 1.343-5.286 1.343-2.161 0-3.963-.448-5.403-1.343-1.422-.896-2.483-2.152-3.184-3.768s-1.051-3.505-1.051-5.666c0-2.142.35-4.012 1.051-5.608.701-1.597 1.762-2.843 3.184-3.739 1.44-.895 3.251-1.343 5.432-1.343 2.084 0 3.836.448 5.257 1.343 1.422.876 2.493 2.123 3.213 3.739.74 1.596 1.11 3.475 1.11 5.637zm-16.473 0c0 2.628.555 4.702 1.665 6.221 1.11 1.499 2.843 2.249 5.199 2.249 2.375 0 4.108-.75 5.199-2.249 1.09-1.519 1.635-3.593 1.635-6.221 0-2.629-.545-4.683-1.635-6.163-1.091-1.499-2.814-2.249-5.17-2.249s-4.099.75-5.228 2.249c-1.11 1.48-1.665 3.534-1.665 6.163zm32.924 4.877c0 1.85-.672 3.291-2.015 4.323-1.344 1.032-3.155 1.548-5.433 1.548-1.168 0-2.249-.088-3.242-.263s-1.82-.418-2.482-.73v-2.512c.701.312 1.567.594 2.599.847 1.052.253 2.132.38 3.242.38 1.558 0 2.726-.302 3.505-.905.798-.604 1.198-1.422 1.198-2.454 0-.681-.147-1.256-.439-1.723s-.798-.896-1.518-1.285c-.701-.409-1.685-.838-2.95-1.285-1.772-.643-3.116-1.432-4.031-2.366-.896-.935-1.343-2.21-1.343-3.826 0-1.11.282-2.055.847-2.833.564-.799 1.343-1.412 2.336-1.841 1.013-.428 2.171-.642 3.476-.642 1.149 0 2.2.107 3.154.321s1.821.497 2.6.847l-.818 2.249c-.721-.311-1.509-.574-2.366-.788-.837-.215-1.713-.322-2.629-.322-1.304 0-2.288.283-2.95.847-.662.546-.993 1.276-.993 2.191 0 .701.146 1.285.439 1.752.292.468.769.886 1.431 1.256s1.557.769 2.687 1.198c1.226.448 2.258.934 3.096 1.46.856.506 1.499 1.12 1.927 1.84.448.721.672 1.626.672 2.716zm16.03 0c0 1.85-.672 3.291-2.015 4.323-1.344 1.032-3.155 1.548-5.433 1.548-1.168 0-2.249-.088-3.242-.263s-1.82-.418-2.483-.73v-2.512c.701.312 1.568.594 2.6.847 1.051.253 2.132.38 3.242.38 1.558 0 2.726-.302 3.505-.905.798-.604 1.197-1.422 1.197-2.454 0-.681-.146-1.256-.438-1.723s-.798-.896-1.519-1.285c-.701-.409-1.684-.838-2.95-1.285-1.771-.643-3.115-1.432-4.03-2.366-.896-.935-1.344-2.21-1.344-3.826 0-1.11.283-2.055.847-2.833.565-.799 1.344-1.412 2.337-1.841 1.012-.428 2.171-.642 3.476-.642 1.148 0 2.2.107 3.154.321s1.821.497 2.599.847l-.817 2.249c-.721-.311-1.509-.574-2.366-.788-.837-.215-1.714-.322-2.629-.322-1.304 0-2.288.283-2.95.847-.662.546-.993 1.276-.993 2.191 0 .701.146 1.285.438 1.752.292.468.769.886 1.431 1.256.663.37 1.558.769 2.688 1.198 1.226.448 2.258.934 3.096 1.46.856.506 1.499 1.12 1.927 1.84.448.721.672 1.626.672 2.716zm10.072 5.579h-7.536v-1.519l2.453-.555v-16.677l-2.453-.584v-1.519h7.536v1.519l-2.454.584v16.677l2.454.555zm9.985-20.854c2.609 0 4.575.389 5.899 1.168 1.344.76 2.016 2.093 2.016 4.002 0 1.226-.341 2.249-1.023 3.066-.681.799-1.664 1.315-2.949 1.548v.146c.876.137 1.664.39 2.365.76.721.37 1.285.896 1.694 1.577.409.682.614 1.568.614 2.658 0 1.889-.653 3.349-1.957 4.381-1.285 1.032-3.047 1.548-5.287 1.548h-7.331v-20.854zm.525 8.879c1.792 0 3.018-.282 3.68-.847.662-.584.993-1.441.993-2.57 0-1.149-.408-1.967-1.226-2.454-.799-.506-2.084-.759-3.856-.759h-3.446v6.63zm-3.855 2.191v7.564h4.206c1.85 0 3.135-.36 3.855-1.08.721-.721 1.081-1.665 1.081-2.834 0-1.09-.38-1.966-1.139-2.628-.74-.682-2.074-1.022-4.002-1.022zm16.367 9.784v-20.854h2.629v18.517h9.113v2.337zm26.971 0h-11.654v-20.854h11.654v2.307h-9.025v6.514h8.499v2.278h-8.499v7.448h9.025z" fill="#005689"/><path d="m472.501 465.76-.201.076.052.139h.149zm-6.864-18.284.201-.075-.052-.14h-.149zm-.117 0v-.215h-.237l.023.236zm.146 2.454-.215.008zm.059 15.83v.215h.215v-.215zm-2.424 0h-.216v.215h.216zm0-20.854v-.215h-.216v.215zm3.884 0 .201-.076-.052-.139h-.149zm6.426 17.086-.202.076.053.139h.149zm.117 0v.215h.147l.053-.138zm6.542-17.086v-.215h-.148l-.053.138zm3.855 0h.215v-.215h-.215zm0 20.854v.215h.215v-.215zm-2.599 0h-.215v.215h.215zm.058-15.83-.214-.013-.001.004zm.146-2.425.215.014.014-.229h-.229zm-.116 0v-.215h-.149l-.052.139zm-6.952 18.255v.215h.148l.053-.138zm-1.96-.076-6.864-18.283-.402.151 6.864 18.284zm-7.065-18.423h-.117v.43h.117zm-.331.236c.058.597.107 1.411.145 2.441l.43-.016c-.039-1.034-.088-1.857-.147-2.466zm.145 2.441c.039 1.009.059 2.068.059 3.175h.43c0-1.112-.02-2.176-.059-3.192zm.059 3.175v12.647h.43v-12.647zm.215 12.432h-2.424v.43h2.424zm-2.209.215v-20.854h-.431v20.854zm-.215-20.639h3.884v-.43h-3.884zm3.683-.139 6.425 17.086.403-.151-6.426-17.087zm6.627 17.225h.117v-.43h-.117zm.317-.138 6.543-17.086-.402-.154-6.542 17.086zm6.342-16.948h3.855v-.43h-3.855zm3.64-.215v20.854h.43v-20.854zm.215 20.639h-2.599v.43h2.599zm-2.384.215v-12.822h-.43v12.822zm0-12.822c0-1.01.019-2.01.058-3l-.43-.017c-.039.996-.058 2.002-.058 3.017zm.058-2.996c.058-.993.107-1.8.146-2.423l-.429-.027c-.039.623-.088 1.432-.146 2.425zm-.069-2.652h-.116v.43h.116zm-.317.139-6.952 18.255.402.153 6.951-18.255zm-6.751 18.116h-2.161v.43h2.161zm28.221.215-.2.078.053.137h.147zm-2.512-6.455.201-.078-.054-.137h-.147zm-8.265 0v-.215h-.148l-.053.138zm-2.483 6.455v.215h.148l.053-.138zm-2.658 0-.2-.078-.114.293h.314zm8.149-20.942v-.215h-.147l-.053.137zm2.366 0 .2-.077-.053-.138h-.147zm8.119 20.942v.215h.314l-.113-.293zm-8.353-15.1.202-.075-.001-.001zm-.292-.847-.204.068zm-.409-1.256-.208.054.003.011zm-.292-1.022.204-.068-.244-.732-.17.752zm-.467 1.781.205.064.001-.002zm-.438 1.344.201.075.001-.004zm-2.366 6.309-.202-.076-.109.291h.311zm6.601 0v.215h.309l-.108-.29zm3.5 8.713-2.511-6.455-.401.156 2.512 6.455zm-2.712-6.592h-8.265v.43h8.265zm-8.466.138-2.483 6.455.402.154 2.482-6.455zm-2.282 6.317h-2.658v.43h2.658zm-2.458.293 8.149-20.942-.4-.156-8.149 20.942zm7.949-20.805h2.366v-.43h-2.366zm2.165-.137 8.12 20.942.401-.156-8.12-20.941zm8.32 20.649h-2.716v.43h2.716zm-8.152-14.961c-.056-.151-.153-.43-.289-.839l-.408.136c.136.409.235.694.295.854zm-.289-.839c-.136-.408-.272-.826-.408-1.253l-.41.13c.137.429.273.849.41 1.259zm-.405-1.242c-.117-.45-.216-.796-.296-1.036l-.408.136c.076.226.172.562.288 1.008zm-.71-1.016c-.135.599-.289 1.188-.463 1.768l.412.123c.176-.589.333-1.188.471-1.796zm-.463 1.766c-.175.563-.32 1.008-.435 1.335l.405.143c.119-.334.265-.785.441-1.351zm-.434 1.331-2.366 6.309.403.151 2.366-6.309zm-2.164 6.6h6.601v-.43h-6.601zm6.802-.29-2.336-6.309-.404.15 2.337 6.308zm22.834 8.866v.215h.391l-.21-.33zm-2.979 0-.184.112.063.103h.121zm-5.521-9.054.184-.112-.182-.299-.184.298zm-5.607 9.054v.215h.119l.063-.102zm-2.775 0-.182-.116-.21.331h.392zm6.922-10.865.181.115.075-.116-.076-.116zm-6.484-9.989v-.215h-.396l.216.332zm2.921 0 .182-.114-.063-.101h-.119zm5.111 8.178-.182.114.181.291.183-.291zm5.14-8.178v-.215h-.118l-.064.101zm2.775 0 .18.117.216-.332h-.396zm-6.455 9.93-.18-.117-.075.116.074.117zm6.952 10.709h-2.979v.43h2.979zm-2.796.103-5.52-9.054-.367.224 5.52 9.054zm-5.886-9.055-5.608 9.054.365.226 5.608-9.054zm-5.425 8.952h-2.775v.43h2.775zm-2.594.331 6.922-10.866-.362-.231-6.923 10.865zm6.921-11.098-6.484-9.989-.36.234 6.484 9.989zm-6.664-9.657h2.921v-.43h-2.921zm2.738-.101 5.112 8.178.364-.228-5.111-8.178zm5.476 8.178 5.141-8.178-.365-.228-5.14 8.178zm4.958-8.077h2.775v-.43h-2.775zm2.595-.332-6.455 9.93.361.235 6.454-9.931zm-6.456 10.163 6.951 10.923.363-.23-6.951-10.924zm29.146-8.44-.14.163zm1.081 7.77-.191-.1-.001.002zm-2.599 2.424-.098-.192-.001.001zm-7.332.934v-.215h-.215v.215zm0 8.12v.215h.216v-.215zm-2.628 0h-.215v.215h.215zm0-20.854v-.215h-.215v.215zm2.628 2.249v-.215h-.215v.215zm0 8.236h-.215v.215h.215zm6.543-.963.118.179zm.175-6.28.132-.17zm-3.826-3.027c2.706 0 4.63.533 5.818 1.554l.28-.326c-1.303-1.12-3.352-1.658-6.098-1.658zm5.818 1.554c1.19 1.023 1.795 2.467 1.795 4.365h.43c0-1.998-.642-3.571-1.945-4.691zm1.795 4.365c0 1.114-.255 2.161-.765 3.142l.382.199c.542-1.044.813-2.158.813-3.341zm-.766 3.144c-.481.944-1.309 1.723-2.505 2.33l.195.383c1.258-.638 2.162-1.476 2.694-2.518zm-2.506 2.331c-1.165.601-2.772.91-4.837.91v.43c2.101 0 3.784-.313 5.034-.958zm-4.837.91h-2.396v.43h2.396zm-2.611.215v8.12h.431v-8.12zm.215 7.905h-2.628v.43h2.628zm-2.413.215v-20.854h-.43v20.854zm-.215-20.639h5.52v-.43h-5.52zm5.286 1.819h-2.658v.43h2.658zm-2.873.215v8.236h.431v-8.236zm.215 8.451h2.103v-.43h-2.103zm2.103 0c2.002 0 3.533-.322 4.558-.999l-.237-.359c-.921.608-2.35.928-4.321.928zm4.558-.999c1.053-.695 1.557-1.866 1.557-3.451h-.43c0 1.492-.469 2.502-1.364 3.092zm1.557-3.451c0-1.392-.446-2.466-1.368-3.178l-.263.34c.791.612 1.201 1.544 1.201 2.838zm-1.368-3.178c-.913-.706-2.325-1.038-4.192-1.038v.43c1.833 0 3.128.33 3.929.948zm25.292 12.992-.195-.089-.001.001zm-3.213 3.739-.114-.182zm-10.689 0-.115.182h.001zm-3.184-3.768-.197.085zm0-11.274.197.086zm3.184-3.739-.114-.182h-.001zm10.689 0-.114.182.002.001zm3.213 3.739-.196.087.001.003zm-13.698 11.858-.174.127.001.001zm10.398 0 .174.126.001-.001zm0-12.384-.174.127.001.001zm-10.398 0-.172-.129zm14.593 6.163c0 2.137-.366 3.994-1.09 5.577l.391.179c.755-1.65 1.129-3.57 1.129-5.756zm-1.091 5.578c-.704 1.56-1.747 2.772-3.131 3.645l.229.364c1.459-.92 2.557-2.199 3.294-3.833zm-3.131 3.645c-1.38.869-3.1 1.31-5.172 1.31v.43c2.133 0 3.938-.454 5.401-1.376zm-5.172 1.31c-2.132 0-3.891-.442-5.29-1.311l-.227.365c1.483.922 3.326 1.376 5.517 1.376zm-5.289-1.31c-1.383-.872-2.416-2.093-3.101-3.672l-.394.171c.717 1.654 1.806 2.945 3.266 3.865zm-3.101-3.672c-.687-1.583-1.033-3.442-1.033-5.58h-.431c0 2.184.355 4.103 1.07 5.751zm-1.033-5.58c0-2.119.346-3.958 1.033-5.522l-.394-.173c-.715 1.63-1.07 3.53-1.07 5.695zm1.033-5.522c.684-1.559 1.718-2.771 3.101-3.643l-.229-.364c-1.459.92-2.548 2.2-3.266 3.834zm3.1-3.642c1.398-.869 3.167-1.311 5.319-1.311v-.43c-2.21 0-4.063.453-5.546 1.376zm5.319-1.311c2.053 0 3.763.441 5.143 1.31l.229-.364c-1.463-.922-3.258-1.376-5.372-1.376zm5.145 1.311c1.382.852 2.425 2.064 3.129 3.643l.393-.175c-.737-1.653-1.836-2.933-3.297-3.834zm3.13 3.646c.724 1.563 1.09 3.41 1.09 5.547h.43c0-2.186-.374-4.097-1.13-5.728zm-15.383 5.547c0 2.656.561 4.78 1.706 6.348l.348-.254c-1.074-1.47-1.624-3.493-1.624-6.094zm1.707 6.349c1.161 1.568 2.968 2.336 5.372 2.336v-.43c-2.308 0-3.967-.732-5.026-2.162zm5.372 2.336c2.423 0 4.231-.767 5.373-2.338l-.348-.253c-1.039 1.429-2.697 2.161-5.025 2.161zm5.374-2.339c1.125-1.567 1.675-3.69 1.675-6.346h-.43c0 2.601-.539 4.625-1.595 6.096zm1.675-6.346c0-2.656-.55-4.761-1.677-6.291l-.346.256c1.053 1.43 1.593 3.433 1.593 6.035zm-1.676-6.289c-1.142-1.57-2.94-2.338-5.344-2.338v.43c2.308 0 3.957.732 4.996 2.161zm-5.344-2.338c-2.404 0-4.22.768-5.4 2.335l.344.258c1.078-1.431 2.749-2.163 5.056-2.163zm-5.4 2.335c-1.147 1.53-1.708 3.636-1.708 6.292h.43c0-2.601.55-4.604 1.622-6.034zm29.416 15.492-.131-.17zm-8.675 1.285.038-.212zm-2.482-.73h-.215v.137l.123.058zm0-2.512.087-.196-.302-.135v.331zm2.599.847-.051.209h.001zm6.747-.525-.13-.172-.002.002zm.759-4.177-.182.114zm-1.518-1.285-.109.186.006.003zm-2.95-1.285-.074.202h.002zm-4.031-2.366-.155.149.001.001zm-.496-6.659.174.126.001-.002zm2.336-1.841-.084-.198-.001.001zm6.63-.321.047-.21zm2.6.847.202.074.068-.188-.182-.082zm-.818 2.249-.086.198.21.09.078-.214zm-2.366-.788-.053.208h.001zm-5.579.525.137.166.003-.002zm-.554 3.943.182-.114zm1.431 1.256-.105.188zm2.687 1.198-.077.201.003.001zm3.096 1.46-.115.182.005.003zm1.927 1.84-.184.11.002.004zm.457 2.716c0 1.79-.646 3.165-1.931 4.153l.262.341c1.402-1.077 2.099-2.584 2.099-4.494zm-1.931 4.153c-1.295.994-3.055 1.503-5.302 1.503v.43c2.31 0 4.172-.523 5.564-1.592zm-5.302 1.503c-1.157 0-2.225-.087-3.204-.26l-.075.424c1.007.178 2.1.266 3.279.266zm-3.204-.26c-.981-.173-1.789-.411-2.429-.713l-.183.39c.684.322 1.532.57 2.537.747zm-2.305-.518v-2.512h-.43v2.512zm-.303-2.315c.716.318 1.596.604 2.636.859l.102-.418c-1.024-.251-1.877-.529-2.563-.834zm2.637.859c1.068.258 2.166.386 3.292.386v-.43c-1.093 0-2.157-.125-3.192-.374zm3.292.386c1.58 0 2.804-.305 3.637-.951l-.264-.339c-.725.561-1.837.86-3.373.86zm3.635-.949c.854-.646 1.283-1.528 1.283-2.625h-.431c0 .967-.369 1.72-1.112 2.282zm1.283-2.625c0-.712-.153-1.328-.471-1.837l-.365.228c.266.426.405.958.405 1.609zm-.471-1.837c-.319-.511-.861-.961-1.599-1.36l-.205.378c.703.38 1.174.786 1.439 1.21zm-1.593-1.357c-.718-.419-1.715-.852-2.987-1.302l-.143.405c1.26.446 2.229.869 2.913 1.268zm-2.985-1.302c-1.754-.636-3.065-1.41-3.95-2.314l-.308.301c.946.966 2.322 1.769 4.111 2.418zm-3.949-2.312c-.848-.885-1.283-2.102-1.283-3.677h-.431c0 1.657.461 2.991 1.404 3.975zm-1.283-3.677c0-1.072.272-1.971.806-2.707l-.349-.253c-.595.821-.888 1.812-.888 2.96zm.807-2.709c.54-.763 1.286-1.353 2.246-1.767l-.17-.395c-1.025.442-1.837 1.079-2.427 1.913zm2.245-1.766c.981-.416 2.111-.626 3.392-.626v-.43c-1.328 0-2.516.218-3.56.659zm3.392-.626c1.135 0 2.171.106 3.107.316l.094-.42c-.972-.218-2.039-.326-3.201-.326zm3.107.316c.942.211 1.795.49 2.558.833l.177-.392c-.794-.357-1.674-.644-2.641-.861zm2.445.564-.818 2.249.404.147.818-2.249zm-.531 2.125c-.732-.317-1.532-.583-2.399-.8l-.104.417c.847.212 1.624.471 2.332.778zm-2.398-.8c-.855-.219-1.75-.328-2.682-.328v.43c.899 0 1.757.105 2.576.315zm-2.682-.328c-1.331 0-2.373.288-3.089.899l.279.327c.608-.518 1.532-.796 2.81-.796zm-3.086.896c-.716.589-1.072 1.382-1.072 2.357h.43c0-.856.306-1.523.915-2.025zm-1.072 2.357c0 .73.153 1.357.471 1.866l.365-.228c-.266-.425-.406-.967-.406-1.638zm.471 1.866c.317.508.826.949 1.509 1.33l.21-.375c-.642-.359-1.087-.755-1.354-1.183zm1.509 1.33c.675.377 1.581.781 2.715 1.211l.153-.402c-1.125-.427-2.009-.822-2.658-1.184zm2.718 1.212c1.217.444 2.234.925 3.055 1.44l.229-.364c-.853-.536-1.9-1.029-3.137-1.48zm3.06 1.443c.832.492 1.446 1.081 1.853 1.765l.369-.22c-.45-.757-1.121-1.394-2.003-1.915zm1.855 1.769c.421.678.639 1.541.639 2.602h.43c0-1.119-.23-2.066-.704-2.829zm14.869 6.925-.131-.17zm-8.675 1.285.037-.212zm-2.483-.73h-.215v.137l.124.058zm0-2.512.088-.196-.303-.135v.331zm2.6.847-.051.209h.001zm6.747-.525-.13-.172-.002.002zm.759-4.177-.182.114zm-1.519-1.285-.108.186.006.003zm-2.95-1.285-.073.202h.002zm-4.03-2.366-.155.149.001.001zm-.497-6.659.174.126.002-.002zm2.337-1.841-.084-.198-.001.001zm6.63-.321.047-.21zm2.599.847.203.074.068-.188-.182-.082zm-.817 2.249-.086.198.21.09.078-.214zm-2.366-.788-.053.208h.001zm-5.579.525.137.166.003-.002zm-.555 3.943.183-.114zm1.431 1.256-.104.188zm2.688 1.198-.077.201.003.001zm3.096 1.46-.115.182.005.003zm1.927 1.84-.185.11.003.004zm.457 2.716c0 1.79-.646 3.165-1.931 4.153l.262.341c1.402-1.077 2.099-2.584 2.099-4.494zm-1.931 4.153c-1.295.994-3.055 1.503-5.302 1.503v.43c2.309 0 4.171-.523 5.564-1.592zm-5.302 1.503c-1.158 0-2.226-.087-3.205-.26l-.074.424c1.007.178 2.1.266 3.279.266zm-3.205-.26c-.98-.173-1.788-.411-2.428-.713l-.183.39c.684.322 1.531.57 2.537.747zm-2.304-.518v-2.512h-.431v2.512zm-.303-2.315c.716.318 1.596.604 2.636.859l.102-.418c-1.024-.251-1.877-.529-2.563-.834zm2.637.859c1.068.258 2.166.386 3.292.386v-.43c-1.093 0-2.157-.125-3.192-.374zm3.292.386c1.579 0 2.804-.305 3.637-.951l-.264-.339c-.725.561-1.837.86-3.373.86zm3.635-.949c.854-.646 1.282-1.528 1.282-2.625h-.43c0 .967-.369 1.72-1.112 2.282zm1.282-2.625c0-.712-.152-1.328-.47-1.837l-.365.228c.266.426.405.958.405 1.609zm-.47-1.837c-.32-.511-.861-.961-1.599-1.36l-.205.378c.703.38 1.174.786 1.439 1.21zm-1.593-1.357c-.718-.419-1.715-.852-2.987-1.302l-.143.405c1.26.446 2.229.869 2.913 1.268zm-2.985-1.302c-1.754-.636-3.066-1.41-3.95-2.314l-.308.301c.946.966 2.321 1.769 4.111 2.418zm-3.949-2.312c-.848-.885-1.284-2.102-1.284-3.677h-.43c0 1.657.461 2.991 1.404 3.975zm-1.284-3.677c0-1.072.272-1.971.806-2.707l-.348-.253c-.595.821-.888 1.812-.888 2.96zm.808-2.709c.539-.763 1.285-1.353 2.246-1.767l-.17-.395c-1.026.442-1.837 1.079-2.427 1.913zm2.245-1.766c.981-.416 2.111-.626 3.392-.626v-.43c-1.328 0-2.516.218-3.56.659zm3.392-.626c1.135 0 2.171.106 3.107.316l.094-.42c-.972-.218-2.039-.326-3.201-.326zm3.107.316c.942.211 1.794.49 2.558.833l.177-.392c-.794-.357-1.675-.644-2.641-.861zm2.444.564-.817 2.249.404.147.818-2.249zm-.53 2.125c-.732-.317-1.532-.583-2.399-.8l-.104.417c.846.212 1.624.471 2.332.778zm-2.398-.8c-.856-.219-1.75-.328-2.682-.328v.43c.898 0 1.757.105 2.576.315zm-2.682-.328c-1.331 0-2.373.288-3.089.899l.279.327c.608-.518 1.532-.796 2.81-.796zm-3.086.896c-.716.589-1.072 1.382-1.072 2.357h.43c0-.856.306-1.523.915-2.025zm-1.072 2.357c0 .73.152 1.357.471 1.866l.365-.228c-.266-.425-.406-.967-.406-1.638zm.471 1.866c.317.508.826.949 1.509 1.33l.209-.375c-.641-.359-1.086-.755-1.353-1.183zm1.509 1.33c.675.377 1.581.781 2.715 1.211l.153-.402c-1.125-.427-2.01-.822-2.659-1.184zm2.718 1.212c1.217.444 2.234.925 3.055 1.44l.229-.364c-.854-.536-1.9-1.029-3.137-1.48zm3.06 1.443c.832.492 1.446 1.081 1.852 1.765l.37-.22c-.45-.757-1.121-1.394-2.003-1.915zm1.855 1.769c.421.678.639 1.541.639 2.602h.43c0-1.119-.23-2.066-.704-2.829zm10.926 8.181v.215h.215v-.215zm-7.536 0h-.215v.215h.215zm0-1.519-.047-.209-.168.037v.172zm2.453-.555.048.21.167-.038v-.172zm0-16.677h.215v-.17l-.165-.039zm-2.453-.584h-.215v.17l.165.039zm0-1.519v-.215h-.215v.215zm7.536 0h.215v-.215h-.215zm0 1.519.049.209.166-.039v-.17zm-2.454.584-.05-.209-.165.039v.17zm0 16.677h-.215v.172l.168.038zm2.454.555h.215v-.172l-.168-.037zm0 1.304h-7.536v.43h7.536zm-7.321.215v-1.519h-.43v1.519zm-.168-1.309 2.454-.555-.095-.419-2.453.555zm2.621-.765v-16.677h-.43v16.677zm-.165-16.886-2.453-.584-.1.418 2.454.584zm-2.288-.375v-1.519h-.43v1.519zm-.215-1.304h7.536v-.43h-7.536zm7.32-.215v1.519h.431v-1.519zm.166 1.31-2.454.584.1.418 2.453-.584zm-2.619.793v16.677h.43v-16.677zm.168 16.887 2.453.555.095-.419-2.453-.555zm2.285.345v1.519h.431v-1.519zm16.1-18.167-.109.186.004.002zm.993 7.068.164.14.002-.002zm-2.949 1.548-.039-.211-.177.032v.179zm0 .146h-.216v.185l.182.028zm2.365.76-.1.19.002.001zm1.694 1.577.185-.111zm-1.343 7.039-.134-.169-.001.001zm-12.618 1.548h-.215v.215h.215zm0-20.854v-.215h-.215v.215zm10.164 8.032.14.164.003-.003zm-.233-5.024-.115.182.005.003zm-7.302-.759v-.215h-.215v.215zm0 6.63h-.215v.215h.215zm0 2.191v-.215h-.215v.215zm0 7.564h-.215v.215h.215zm8.061-1.08.152.152zm-.058-5.462-.146.158.004.004zm-4.673-11.877c2.594 0 4.515.388 5.79 1.139l.218-.371c-1.372-.808-3.385-1.198-6.008-1.198zm5.794 1.141c1.259.711 1.906 1.961 1.906 3.814h.43c0-1.965-.697-3.382-2.125-4.189zm1.906 3.814c0 1.184-.328 2.155-.973 2.929l.331.275c.718-.862 1.072-1.935 1.072-3.204zm-.971 2.927c-.642.752-1.576 1.249-2.825 1.476l.077.423c1.322-.24 2.354-.775 3.075-1.62zm-3.002 1.687v.146h.431v-.146zm.182.359c.856.133 1.621.379 2.299.737l.201-.38c-.725-.383-1.536-.642-2.433-.782zm2.301.738c.686.352 1.22.85 1.608 1.497l.369-.222c-.43-.716-1.025-1.269-1.78-1.657zm1.608 1.497c.383.638.583 1.482.583 2.547h.43c0-1.116-.209-2.043-.644-2.769zm.583 2.547c0 1.833-.63 3.227-1.876 4.212l.267.338c1.364-1.079 2.039-2.606 2.039-4.55zm-1.877 4.213c-1.235.992-2.944 1.501-5.152 1.501v.43c2.271 0 4.086-.523 5.421-1.595zm-5.152 1.501h-7.331v.43h7.331zm-7.116.215v-20.854h-.43v20.854zm-.215-20.639h5.959v-.43h-5.959zm6.484 8.879c1.797 0 3.095-.28 3.82-.898l-.279-.328c-.599.511-1.755.796-3.541.796zm3.823-.901c.72-.635 1.065-1.559 1.065-2.731h-.43c0 1.086-.316 1.876-.92 2.409zm1.065-2.731c0-1.206-.434-2.104-1.331-2.638l-.22.369c.738.44 1.121 1.177 1.121 2.269zm-1.326-2.635c-.852-.54-2.188-.793-3.971-.793v.43c1.762 0 2.995.253 3.741.726zm-3.971-.793h-3.446v.43h3.446zm-3.661.215v6.63h.43v-6.63zm.215 6.845h3.855v-.43h-3.855zm-.215 1.976v7.564h.43v-7.564zm.215 7.779h4.206v-.43h-4.206zm4.206 0c1.864 0 3.224-.36 4.007-1.143l-.304-.304c-.658.657-1.868 1.017-3.703 1.017zm4.007-1.143c.767-.767 1.144-1.769 1.144-2.986h-.43c0 1.121-.344 2.007-1.018 2.682zm1.144-2.986c0-1.146-.403-2.084-1.213-2.79l-.283.324c.709.617 1.066 1.432 1.066 2.466zm-1.209-2.786c-.802-.74-2.208-1.079-4.147-1.079v.43c1.917 0 3.179.341 3.856.965zm-4.147-1.079h-4.001v.43h4.001zm12.366 9.999h-.215v.215h.215zm0-20.854v-.215h-.215v.215zm2.629 0h.215v-.215h-.215zm0 18.517h-.215v.215h.215zm9.113 0h.215v-.215h-.215zm0 2.337v.215h.215v-.215zm-11.527 0v-20.854h-.43v20.854zm-.215-20.639h2.629v-.43h-2.629zm2.414-.215v18.517h.43v-18.517zm.215 18.732h9.113v-.43h-9.113zm8.898-.215v2.337h.43v-2.337zm.215 2.122h-11.742v.43h11.742zm15.229.215v.215h.215v-.215zm-11.654 0h-.215v.215h.215zm0-20.854v-.215h-.215v.215zm11.654 0h.215v-.215h-.215zm0 2.307v.215h.215v-.215zm-9.025 0v-.215h-.215v.215zm0 6.514h-.215v.215h.215zm8.499 0h.215v-.215h-.215zm0 2.278v.215h.215v-.215zm-8.499 0v-.215h-.215v.215zm0 7.448h-.215v.215h.215zm9.025 0h.215v-.215h-.215zm0 2.092h-11.654v.43h11.654zm-11.439.215v-20.854h-.43v20.854zm-.215-20.639h11.654v-.43h-11.654zm11.439-.215v2.307h.43v-2.307zm.215 2.092h-9.025v.43h9.025zm-9.24.215v6.514h.43v-6.514zm.215 6.729h8.499v-.43h-8.499zm8.284-.215v2.278h.43v-2.278zm.215 2.063h-8.499v.43h8.499zm-8.714.215v7.448h.43v-7.448zm.215 7.663h9.025v-.43h-9.025zm8.81-.215v2.307h.43v-2.307z" fill="#005689"/><path d="m859.693 97.197h-143.047l-71.498 123.859-71.524-123.859h-143.022l-71.498 123.859-71.524-123.859h-143.021l143.021 247.744-143.021 247.718h143.021l71.524-123.859 71.498 123.859h143.022l-143.022-247.718 71.524-123.885 143.022 247.744 143.022-247.744 71.523 123.885 71.498-123.885z" fill="#3b3835" fill-opacity=".05"/></g></svg>