<svg fill="none" height="689" viewBox="0 0 1077 689" width="1077" xmlns="http://www.w3.org/2000/svg" xmlns:xlink="http://www.w3.org/1999/xlink"><linearGradient id="a"><stop offset=".27" stop-color="#545150"/><stop offset=".28" stop-color="#3b3835"/><stop offset=".79" stop-color="#24211e"/></linearGradient><linearGradient id="b" gradientUnits="userSpaceOnUse" x1="280.208" x2="291.302" xlink:href="#a" y1="516.299" y2="516.299"/><linearGradient id="c"><stop offset=".21" stop-color="#545150"/><stop offset=".22" stop-color="#6e6a69"/><stop offset=".72" stop-color="#6e6a69"/><stop offset=".73" stop-color="#898584"/></linearGradient><linearGradient id="d" gradientUnits="userSpaceOnUse" x1="280.896" x2="279.608" xlink:href="#c" y1="519.367" y2="517.137"/><linearGradient id="e" gradientUnits="userSpaceOnUse" x1="-9617.58" x2="-9497.37" xlink:href="#c" y1="-7594.7" y2="-7803.86"/><linearGradient id="f"><stop offset=".03" stop-color="#e1e0df"/><stop offset=".5" stop-color="#cac6c5"/><stop offset="1" stop-color="#bebabb"/></linearGradient><linearGradient id="g" gradientUnits="userSpaceOnUse" x1="200.53" x2="212.935" xlink:href="#f" y1="481.543" y2="481.543"/><linearGradient id="h" gradientUnits="userSpaceOnUse" x1="3147.66" x2="3777.75" xlink:href="#f" y1="9961.35" y2="9961.35"/><linearGradient id="i" gradientUnits="userSpaceOnUse" x1="2854.22" x2="3352.65" xlink:href="#f" y1="10105.5" y2="10105.5"/><linearGradient id="j" gradientUnits="userSpaceOnUse" x1="3147.66" x2="3777.75" xlink:href="#f" y1="9906.25" y2="9906.25"/><linearGradient id="k" gradientUnits="userSpaceOnUse" x1="2854.22" x2="3352.65" xlink:href="#f" y1="10043.1" y2="10043.1"/><linearGradient id="l" gradientUnits="userSpaceOnUse" x1="3147.66" x2="3777.75" xlink:href="#f" y1="9864.39" y2="9864.39"/><linearGradient id="m" gradientUnits="userSpaceOnUse" x1="2854.22" x2="3352.65" xlink:href="#f" y1="10008.7" y2="10008.7"/><linearGradient id="n" gradientUnits="userSpaceOnUse" x1="3147.66" x2="3777.75" xlink:href="#f" y1="9812.71" y2="9812.71"/><linearGradient id="o" gradientUnits="userSpaceOnUse" x1="2854.22" x2="3352.65" xlink:href="#f" y1="11304" y2="11304"/><linearGradient id="p" gradientUnits="userSpaceOnUse" x1="3148" x2="3778.15" xlink:href="#f" y1="9488.07" y2="9488.07"/><linearGradient id="q"><stop offset="0" stop-color="#d4d3d2"/><stop offset=".12" stop-color="#f8f8f9"/><stop offset=".17" stop-color="#f8f8f9"/><stop offset=".19" stop-color="#afaaa9"/><stop offset=".28" stop-color="#aca9a8"/><stop offset=".3" stop-color="#6e6a69"/><stop offset=".4" stop-color="#6e6a69"/><stop offset=".42" stop-color="#a9a5a4"/><stop offset=".59" stop-color="#918d8c"/><stop offset=".68" stop-color="#a09d9b"/><stop offset=".76" stop-color="#a09d9b"/><stop offset=".84" stop-color="#817e7d"/><stop offset="1" stop-color="#6e6a69"/></linearGradient><linearGradient id="r" gradientUnits="userSpaceOnUse" x1="205.91" x2="207.575" xlink:href="#q" y1="465.741" y2="465.741"/><linearGradient id="s" gradientUnits="userSpaceOnUse" x1="575.194" x2="582.272" xlink:href="#q" y1="6779.54" y2="6779.54"/><linearGradient id="t" gradientUnits="userSpaceOnUse" x1="519.7" x2="526.811" xlink:href="#q" y1="6779.54" y2="6779.54"/><linearGradient id="u" gradientUnits="userSpaceOnUse" x1="2195.37" x2="2303.24" xlink:href="#q" y1="70830.8" y2="70830.8"/><linearGradient id="v" gradientUnits="userSpaceOnUse" x1="2195.37" x2="2303.24" xlink:href="#q" y1="67113.6" y2="67113.6"/><linearGradient id="w" gradientUnits="userSpaceOnUse" x1="2195.37" x2="2303.24" xlink:href="#q" y1="63221.7" y2="63221.7"/><linearGradient id="x" gradientUnits="userSpaceOnUse" x1="2195.37" x2="2303.24" xlink:href="#q" y1="59501.7" y2="59501.7"/><linearGradient id="y" gradientUnits="userSpaceOnUse" x1="3033.73" x2="3053.9" xlink:href="#c" y1="820.491" y2="820.491"/><linearGradient id="z"><stop offset=".21" stop-color="#3b3835"/><stop offset=".72" stop-color="#3b3835"/><stop offset=".73" stop-color="#545150"/></linearGradient><linearGradient id="A" gradientUnits="userSpaceOnUse" x1="293.451" x2="291.781" xlink:href="#z" y1="513.686" y2="510.795"/><linearGradient id="B" gradientUnits="userSpaceOnUse" x1="2562.22" x2="2643.92" xlink:href="#q" y1="15362" y2="15362"/><linearGradient id="C"><stop offset=".27" stop-color="#898584"/><stop offset=".28" stop-color="#6e6a69"/><stop offset=".78" stop-color="#6e6a69"/><stop offset=".79" stop-color="#545150"/></linearGradient><linearGradient id="D" gradientUnits="userSpaceOnUse" x1="282.929" x2="288.568" xlink:href="#C" y1="513.583" y2="513.583"/><linearGradient id="E" gradientUnits="userSpaceOnUse" x1="2562.22" x2="2643.92" xlink:href="#C" y1="3688.11" y2="3688.11"/><linearGradient id="F" gradientUnits="userSpaceOnUse" x1="2562.22" x2="2643.92" xlink:href="#C" y1="3682.25" y2="3682.25"/><linearGradient id="G" gradientUnits="userSpaceOnUse" x1="6205.92" x2="9642.35" xlink:href="#a" y1="25719.1" y2="25719.1"/><linearGradient id="H" gradientUnits="userSpaceOnUse" x1="5794.85" x2="8622.79" xlink:href="#a" y1="41108.9" y2="41108.9"/><linearGradient id="I" gradientUnits="userSpaceOnUse" x1="4806.72" x2="6526.2" xlink:href="#z" y1="9180.9" y2="9180.9"/><linearGradient id="J" gradientUnits="userSpaceOnUse" x1="3199.73" x2="3452.56" xlink:href="#a" y1="9699.08" y2="9699.08"/><linearGradient id="K" gradientUnits="userSpaceOnUse" x1="2547.73" x2="2698.28" xlink:href="#a" y1="7554.43" y2="7554.43"/><linearGradient id="L" gradientUnits="userSpaceOnUse" x1="5285" x2="5696.89" xlink:href="#a" y1="11452.9" y2="11452.9"/><linearGradient id="M" gradientUnits="userSpaceOnUse" x1="3902.41" x2="4112.93" xlink:href="#q" y1="23617.5" y2="23617.5"/><linearGradient id="N" gradientUnits="userSpaceOnUse" x1="4389.49" x2="4662.75" xlink:href="#q" y1="13387.8" y2="13387.8"/><linearGradient id="O" gradientUnits="userSpaceOnUse" x1="3096.86" x2="3222.37" xlink:href="#a" y1="9142.03" y2="9142.03"/><linearGradient id="P" gradientUnits="userSpaceOnUse" x1="4389.49" x2="4662.75" xlink:href="#q" y1="13229.5" y2="13229.5"/><linearGradient id="Q" gradientUnits="userSpaceOnUse" x1="295.827" x2="302.364" y1="466.803" y2="470.928"><stop offset="0" stop-color="#24211e"/><stop offset="1" stop-color="#6e6a69"/></linearGradient><linearGradient id="R" gradientUnits="userSpaceOnUse" x1="297.064" x2="300.336" y1="478.278" y2="492.372"><stop offset="0" stop-color="#3b3835"/><stop offset="1" stop-color="#6e6a69"/></linearGradient><path d="m.790649.855225h1075.22v688.142h-1075.22z" fill="#d3e2f5"/><path d="m647.11 93.8743-15.623-8.8719c1.062 1.1129 1.673 2.3542 1.673 3.6694v4.9535c0 4.7005-7.584 8.5097-16.942 8.5097-9.359 0-16.946-3.8092-16.946-8.5097v-4.9535c0-1.6849.988-3.253 2.673-4.576l-17.226 9.7785 31.203 17.6547z" fill="#e0cdb1"/><path d="m600.357 147.387v-8.67l15.565 8.814v-5.059l-15.565-8.424v-8.654l15.565 8.813v-22.678l-31.203-17.6538v6.8368l15.564 8.817v8.277l-15.564-8.421v60.703l15.564 8.814v8.276l-15.564-8.42v25.973l15.537 8.802v8.281l-15.537-8.413v13.23l15.537 8.802v8.253l-15.537-8.413v35.313l31.203 17.681v-132.46zm15.518 117.276-15.564-8.42v-8.666l15.564 8.814z" fill="#cbbba0"/><path d="m631.133 256.444-15.188 8.223v-8.281l15.188-8.603v-1.475-8.67-64.959-8.67-16.44l-15.227 8.242v132.456l16.207-9.18-.98-.556z" fill="#a48a7b"/><path d="m631.463 125.378v8.67l-15.557 8.424v5.059l15.557-8.814v3.646l14.647-9.175.992.564v-24.386l-15.561 8.42v-8.276l15.561-8.814v-6.8404l-31.196 17.6734v22.663z" fill="#a48a7b"/><path d="m600.276 109.51-15.557-8.813v8.669l15.557 8.421z" fill="#e0cdb1"/><path d="m600.276 178.882-15.557-8.813v8.669l15.557 8.421z" fill="#e0cdb1"/><path d="m600.357 125.378v8.67l15.557 8.424v-8.28z" fill="#e0cdb1"/><path d="m600.357 138.717v8.674l15.557 8.42v-8.28z" fill="#e0cdb1"/><path d="m600.253 213.518-15.538-8.806-.019-.011v8.673l.019.008 15.538 8.413z" fill="#e0cdb1"/><path d="m600.253 235.413-15.538-8.802-.019-.012v8.67l.019.012 15.538 8.412z" fill="#e0cdb1"/><path d="m600.312 256.243 15.561 8.424v-8.28l-15.561-8.814z" fill="#e0cdb1"/><path d="m631.545 117.787 15.561-8.421v-8.669l-15.561 8.813z" fill="#8e776c"/><path d="m631.463 125.378-15.557 8.814v8.28l15.557-8.424z" fill="#8e776c"/><path d="m631.463 138.717-15.557 8.814v8.28l15.227-8.241v-4.997l.33-.21z" fill="#8e776c"/><path d="m615.951 264.666 15.187-8.222v-8.662l-15.187 8.604z" fill="#8e776c"/><path d="m824.869 371.792v-8.67h.023v-13.23h-.023v-8.669h.023v-88.875l-157.227-89.085-36.523-20.693v21.44l15.565 8.814v8.276l-15.565-8.42v64.959l15.565 8.814v8.28l-15.565-8.424v32.223l.977.552 192.785 109.222v-16.502zm-19.402-74.369 15.565 8.421v8.662l-15.565-8.818zm0 13.534 15.565 8.421v8.669l-15.565-8.813zm-34.88-64.306 15.46 8.989-.09 8.28-15.464-8.595zm-3.786 74.711-15.476-8.576.098-8.67 15.467 8.985zm-15.997-86.186 15.46 8.989-.094 8.276-15.463-8.595zm-35.818 14.121 15.455 8.985-.089 8.277-15.464-8.596zm-.273 9.65 15.456 8.985-.089 8.281-15.464-8.596zm-18.997-54.749 15.456 8.985-.089 8.277-15.464-8.592zm-.513 33.651 15.456 8.985-.094 8.277-15.459-8.592zm-44.605-72.465 15.565 8.813v8.277l-15.565-8.425zm0 13.529 15.565 8.814v8.277l-15.565-8.421zm0 60.1 15.565 8.813v8.277l-15.565-8.421zm0 13.533 15.565 8.814v8.276l-15.565-8.42zm64.018 60.073.097-8.67 15.456 9-.089 8.277zm91.155 51.628.097-8.67 15.46 8.985-.093 8.281z" fill="#d7805c"/><g fill="#b76c53"><path d="m821.343 364.567-15.46-8.989-.097 8.67 15.464 8.595z"/><path d="m646.699 181.1v-8.277l-15.557-8.813v8.669z"/><path d="m666.164 174.197-15.557-8.814v8.67l15.557 8.42z"/><path d="m666.164 187.726-15.557-8.813v8.669l15.557 8.425z"/><path d="m646.699 254.734v-8.281l-15.557-8.813v8.669z"/><path d="m666.164 247.826-15.557-8.813v8.669l15.557 8.421z"/><path d="m666.164 261.359-15.557-8.813v8.669l15.557 8.421z"/><path d="m821.033 319.378-15.561-8.421v8.277l15.561 8.813z"/><path d="m821.033 305.844-15.561-8.42v8.276l15.561 8.818z"/><path d="m710.682 246.842-15.455-8.989-.098 8.669 15.46 8.596z"/><path d="m730.46 258.298-15.456-8.985-.097 8.67 15.464 8.595z"/><path d="m766.283 244.18-15.46-8.988-.097 8.673 15.463 8.592z"/><path d="m786.061 255.64-15.46-8.989-.097 8.67 15.463 8.596z"/><path d="m751.352 312.786 15.464 8.595.089-8.276-15.456-8.989z"/><path d="m730.173 267.95-15.46-8.988-.097 8.669 15.463 8.596z"/><path d="m730.173 312.934-15.46-8.985-.097 8.67 15.463 8.592z"/><path d="m711.197 213.203-15.456-8.989-.097 8.669 15.463 8.596z"/><path d="m631.495 142.362-.33.206 36.518 20.694 157.24 89.084v-17.868l-13.087-7.413v8.802c0 .31-.123.607-.341.826-.219.219-.516.342-.826.342-.309 0-.606-.123-.825-.342s-.342-.516-.342-.826v-10.117l-26.955-15.273v7.526c0 .309-.122.606-.341.825s-.516.342-.826.342c-.309 0-.606-.123-.825-.342s-.342-.516-.342-.825v-8.833l-29.935-16.958v9.144c0 .31-.123.607-.342.826s-.516.342-.825.342c-.31 0-.607-.123-.826-.342s-.342-.516-.342-.826v-10.483l-26.95-15.284v9.09c0 .309-.123.606-.342.825s-.516.342-.826.342c-.309 0-.606-.123-.825-.342s-.342-.516-.342-.825v-10.398l-26.954-15.273v9.032c0 .309-.123.606-.342.825s-.516.342-.826.342c-.309 0-.606-.123-.825-.342s-.342-.516-.342-.825v-10.351l-26.958-15.273v8.977c0 .31-.123.607-.342.826s-.516.342-.825.342c-.31 0-.607-.123-.826-.342s-.342-.516-.342-.826v-10.3l-12.965-7.342-.985-.576z"/></g><path d="m887.303 230.378-18.677-10.568c2.042-3.416 2.649-7.502 1.686-11.364-.962-3.862-3.415-7.186-6.822-9.244s-7.49-2.682-11.356-1.737c-3.867.945-7.201 3.383-9.274 6.781-2.073 3.397-2.716 7.478-1.788 11.348.927 3.871 3.351 7.216 6.739 9.304 3.388 2.089 7.466 2.75 11.34 1.839 3.875-.91 7.231-3.319 9.335-6.698 2.583 1.495 4.155 3.436 4.155 5.569v4.957c0 4.697-7.587 8.506-16.946 8.506-9.358 0-16.942-3.809-16.942-8.506v-4.957c0-1.712 1.019-3.308 2.755-4.642l-16.615 9.412 31.195 17.674zm-31.907-29.032c2.233-2.015 6.346-1.093 9.183 2.059 2.836 3.151 3.323 7.335 1.085 9.338-2.237 2.004-6.35 1.09-9.187-2.062-2.836-3.152-3.299-7.323-1.062-9.335z" fill="#e0cdb1"/><path d="m856.112 292.327-15.565-8.425v-8.661l15.565 8.813v-5.058l-15.565-8.425v-8.669l15.565 8.817v-22.666l-31.196-17.674v6.837l15.541 8.806v8.288l-15.564-8.421v60.703l15.564 8.813v8.277l-15.564-8.421v25.974l15.537 8.802v8.28l-15.514-8.401v13.23l15.537 8.802v8.277l-15.537-8.409v35.301l31.196 17.674zm-.043 108.852-15.565-8.421v-8.669l15.565 8.813z" fill="#cbbba0"/><path d="m871.761 358.317v-8.28l15.537-8.802v-25.974l-15.565 8.421v-8.277l15.565-8.813v-60.703l-15.565 8.421v-8.288l15.565-8.818v-6.825l-31.195 17.674v22.666l15.564-8.817v8.669l-15.564 8.425v5.058l15.564-8.813v8.669l-15.564 8.425v132.456l31.195-17.674v-35.313l-15.537 8.409v-8.276l15.537-8.791v-13.23zm-.063 34.449-15.564 8.421v-8.277l15.564-8.813z" fill="#a48a7b"/><path d="m840.472 254.31v-8.277l-15.557-8.813v8.669z" fill="#e0cdb1"/><path d="m840.472 323.682v-8.277l-15.557-8.813v8.669z" fill="#e0cdb1"/><path d="m840.531 261.901v8.669l15.561 8.425v-8.277z" fill="#e0cdb1"/><path d="m840.531 275.24v8.673l15.561 8.421v-8.277z" fill="#e0cdb1"/><path d="m824.893 349.896.023.008 15.537 8.413v-8.281l-15.537-8.801-.023-.012z" fill="#e0cdb1"/><path d="m824.893 371.792.023.011 15.537 8.413v-8.28l-15.537-8.802-.023-.012z" fill="#e0cdb1"/><path d="m840.509 384.096v8.673l15.561 8.421v-8.28z" fill="#e0cdb1"/><path d="m871.741 254.31 15.557-8.421v-8.669l-15.557 8.813z" fill="#8e776c"/><path d="m871.741 323.682 15.557-8.421v-8.669l-15.557 8.813z" fill="#8e776c"/><path d="m871.66 270.57v-8.669l-15.557 8.817v8.277z" fill="#8e776c"/><path d="m871.66 283.913v-8.673l-15.557 8.817v8.277z" fill="#8e776c"/><path d="m871.764 358.317 15.537-8.413.02-.008v-8.673l-.02.012-15.537 8.801z" fill="#8e776c"/><path d="m871.764 380.216 15.537-8.413.02-.011v-8.67l-.02.012-15.537 8.802z" fill="#8e776c"/><path d="m856.148 401.19 15.557-8.421v-8.673l-15.557 8.814z" fill="#8e776c"/><path d="m616.207 97.1831c-9.339 0-16.946-3.8095-16.946-8.5101v4.9535c0 4.7006 7.588 8.5105 16.946 8.5105s16.942-3.8099 16.942-8.5105v-4.9535c0 4.7006-7.584 8.5101-16.942 8.5101z" fill="#a48a7b"/><path d="m599.261 88.6726c0 4.7006 7.588 8.5101 16.946 8.5101s16.942-3.8095 16.942-8.5101c0-1.3152-.611-2.5565-1.673-3.6693-.733-.7479-1.569-1.3873-2.482-1.8989-1.406 2.1564-3.322 3.9322-5.579 5.1697s-4.785 1.8983-7.359 1.9237c-2.574.0255-5.114-.5853-7.395-1.778s-4.232-2.9304-5.68-5.0586c-.389.2373-.72.4825-1.047.7354-1.685 1.323-2.673 2.8912-2.673 4.576z" fill="#cbbba0"/><path d="m615.92 90.1981c3.492-.003 6.882-1.1746 9.631-3.3283s4.698-5.1655 5.537-8.5555c.838-3.39.518-6.9631-.91-10.1499-1.428-3.1869-3.882-5.804-6.97-7.4345s-6.633-2.1804-10.07-1.5622-6.568 2.369-8.895 4.9734c-2.326 2.6043-3.714 5.9125-3.942 9.3971-.228 3.4847.717 6.9455 2.684 9.8308 1.435 2.1075 3.364 3.8317 5.619 5.0221 2.254 1.1904 4.766 1.8108 7.316 1.807zm0-25.7908c2.237-2.0118 6.35-1.0896 9.183 2.0623s3.323 7.3349 1.085 9.3388c-2.237 2.004-6.346 1.0935-9.183-2.0584-2.836-3.1519-3.335-7.3271-1.085-9.3427z" fill="#e0cdb1"/><path d="m626.171 75.8163c2.238-2.0118 1.751-6.1987-1.086-9.3389-2.836-3.1402-6.945-4.074-9.183-2.0623-2.237 2.0118-1.751 6.2026 1.086 9.3389s6.946 4.0779 9.183 2.0623z" fill="#f4e2cb"/><path d="m855.706 234.117c-9.339 0-16.942-3.809-16.942-8.51v4.957c0 4.697 7.584 8.507 16.942 8.507s16.946-3.81 16.946-8.507v-4.957c0 4.701-7.588 8.51-16.946 8.51z" fill="#a48a7b"/><path d="m838.764 225.608c0 4.701 7.584 8.51 16.942 8.51s16.946-3.809 16.946-8.51c0-2.132-1.556-4.074-4.156-5.568-1.405 2.156-3.321 3.932-5.578 5.169-2.257 1.238-4.785 1.899-7.359 1.924-2.574.026-5.114-.585-7.395-1.778s-4.232-2.93-5.68-5.058c-.343.214-.662.435-.965.669-1.736 1.319-2.755 2.93-2.755 4.642z" fill="#cbbba0"/><path d="m865.674 212.754c2.237-2.015 1.751-6.202-1.086-9.338-2.836-3.137-6.949-4.074-9.183-2.059-2.233 2.016-1.755 6.199 1.082 9.339s6.95 4.07 9.187 2.058z" fill="#f4e2cb"/><path d="m661.233 152.559c.309 0 .606-.123.825-.342s.342-.516.342-.826v-34.3l2.759-3.818c.148-.2.228-.443.228-.692 0-.25-.08-.492-.228-.693l-2.977-3.93c-.109-.144-.249-.26-.411-.34-.161-.08-.339-.122-.519-.122s-.358.042-.519.122-.302.196-.411.34l-2.977 3.93c-.148.201-.227.443-.227.693 0 .249.079.492.227.692l2.759 3.814v34.308c.001.303.119.593.33.81.21.217.497.344.799.354zm0-41.971 1.529 2.02-1.529 2.113-1.53-2.113z" fill="#432918"/><path d="m690.524 169.208c.309 0 .606-.123.825-.342s.342-.516.342-.825v-34.305l2.755-3.813c.149-.201.229-.445.229-.695s-.08-.493-.229-.695l-2.977-3.93c-.109-.142-.249-.258-.41-.338-.161-.079-.338-.121-.518-.121-.179 0-.356.042-.517.121-.161.08-.302.196-.411.338l-2.98 3.93c-.149.202-.229.445-.229.695s.08.494.229.695l2.758 3.809v34.309c0 .303.119.595.33.813s.499.345.803.354zm0-41.97 1.525 2.015-1.525 2.117-1.533-2.117z" fill="#432918"/><path d="m719.829 185.855c.31 0 .606-.123.825-.342s.342-.516.342-.826v-34.304l2.759-3.814c.149-.201.229-.444.229-.694s-.08-.494-.229-.695l-2.977-3.93c-.108-.144-.249-.26-.41-.34-.162-.08-.339-.122-.52-.122-.18 0-.357.042-.519.122-.161.08-.302.196-.411.34l-2.976 3.93c-.149.201-.229.445-.229.695s.08.493.229.694l2.755 3.81v34.312c0 .303.119.594.33.811.212.217.499.344.802.353zm0-41.971 1.529 2.02-1.529 2.113-1.529-2.113z" fill="#432918"/><path d="m749.095 202.501c.309 0 .606-.123.825-.342s.342-.516.342-.825v-34.305l2.755-3.813c.148-.201.228-.444.228-.693s-.08-.492-.228-.693l-2.977-3.934c-.109-.142-.249-.258-.41-.338-.161-.079-.338-.121-.518-.121-.179 0-.356.042-.517.121-.161.08-.302.196-.411.338l-2.98 3.934c-.148.201-.228.444-.228.693s.08.492.228.693l2.758 3.813v34.309c.001.303.12.593.331.81.212.218.499.344.802.353zm0-41.97 1.529 2.019-1.529 2.113-1.529-2.113z" fill="#432918"/><path d="m781.357 219.148c.31 0 .606-.123.825-.342s.342-.516.342-.825v-34.305l2.755-3.813c.148-.201.228-.444.228-.693s-.08-.492-.228-.693l-2.977-3.93c-.108-.142-.249-.258-.41-.338-.161-.079-.338-.121-.518-.121-.179 0-.356.042-.517.121-.161.08-.302.196-.411.338l-2.98 3.93c-.148.201-.228.444-.228.693s.08.492.228.693l2.759 3.813v34.328c.005.3.126.586.337.799.211.212.495.336.795.345zm0-41.97 1.525 2.019-1.525 2.113-1.533-2.113z" fill="#432918"/><path d="m810.662 237.036c.309 0 .606-.123.825-.342s.342-.516.342-.826v-34.304l2.759-3.814c.148-.2.228-.443.228-.692 0-.25-.08-.492-.228-.693l-2.981-3.934c-.108-.143-.248-.259-.409-.34-.16-.08-.337-.122-.517-.123-.18 0-.358.042-.519.122-.162.081-.302.197-.411.341l-2.977 3.934c-.148.201-.227.443-.227.693 0 .249.079.492.227.692l2.755 3.81v34.308c0 .304.118.596.33.814.211.218.499.345.803.354zm0-41.971 1.529 2.016-1.529 2.117-1.53-2.117z" fill="#432918"/><path d="m278.261 518.36c.262.172.479.401.636.672.157.27.248.573.267.885 0 .58-.389.813-.903.525-.261-.171-.479-.4-.636-.671-.157-.27-.248-.573-.266-.885 0-.576.416-.813.902-.526z" fill="#6e6a69"/><path d="m291.193 515.621-.731-2.513-2.195.031c-1.724-.551-3.58-.527-5.288.07l-1.946.027-.708 2.358c-.342 1.125.171 2.335 1.533 3.21 2.175 1.397 5.689 1.405 7.845 0 1.338-.848 1.84-2.058 1.49-3.183z" fill="url(#b)"/><path d="m289.131 515.681c-1.852 1.168-4.86 1.168-6.724 0-1.864-1.167-1.868-3.113-.019-4.311 1.848-1.199 4.86-1.168 6.72 0 1.86 1.167 1.871 3.117.023 4.311z" fill="#6e6a69"/><path d="m277.618 518.311.035.062c-.062.12-.094.254-.093.389.018.312.11.615.266.886.157.27.375.5.637.671.117.074.251.117.389.124l.031.055 3.79-2.203c.09-.066.161-.155.206-.257.045-.103.063-.215.051-.326-.019-.312-.11-.615-.267-.886-.157-.27-.375-.5-.636-.671-.091-.066-.197-.106-.309-.117-.111-.011-.224.008-.325.055z" fill="url(#d)"/><path d="m278.403 515.805-.16.28c.298.579.444 1.225.424 1.876 0 2.658-1.856 5.883-4.144 7.206-.556.346-1.194.539-1.848.561l-.148.26-.646-.389c-.724-.447-1.167-1.373-1.167-2.677 0-2.661 1.852-5.887 4.14-7.206 1.136-.658 2.159-.72 2.91-.296z" fill="url(#e)"/><path d="m275.395 516.035c-2.288 1.323-4.144 4.549-4.144 7.207 0 2.657 1.856 3.743 4.144 2.424s4.144-4.549 4.144-7.207c0-2.657-1.856-3.743-4.144-2.424z" fill="#3b3835"/><path d="m212.935 480.27h-.343c-.41-.445-.921-.787-1.49-.996-2.428-1.019-6.354-1.023-8.771 0-.571.208-1.082.554-1.486 1.008h-.315v1.759c.023.654.634 1.303 1.825 1.802 2.432 1.015 6.358 1.023 8.77 0 1.199-.502 1.798-1.168 1.802-1.814z" fill="url(#g)"/><path d="m212.953 480.27v1.759c-.008.222-.073.438-.19.627-.334.225-.69.415-1.063.568-2.723 1.136-7.132 1.128-9.864 0-.386-.165-.753-.372-1.093-.619-.117-.177-.183-.383-.191-.595v-1.74h.315c.406-.452.917-.798 1.487-1.008 2.416-1.011 6.342-1.007 8.77 0 .569.209 1.08.551 1.491.997z" fill="#e8e7e6"/><path d="m211.131 482.178c-2.413 1.008-6.339 1.004-8.771 0s-2.44-2.662-.027-3.674c2.412-1.011 6.342-1.003 8.77 0 2.428 1.004 2.464 2.662.028 3.674z" fill="#fffbf7"/><path d="m211.128 482.021c-2.412 1.012-6.339 1.004-8.771 0-1.167-.49-1.782-1.128-1.825-1.77-.05.692.561 1.393 1.825 1.926 2.432 1.015 6.359 1.019 8.771 0 1.249-.526 1.848-1.214 1.802-1.903-.047.634-.646 1.265-1.802 1.747z" fill="#fff"/><path d="m214.569 479.064h-.428c-.518-.563-1.164-.994-1.883-1.257-3.066-1.284-8.024-1.292-11.074 0-.721.264-1.365.701-1.876 1.273h-.389v1.253c.035.825.802 1.646 2.307 2.276 3.071 1.284 8.028 1.288 11.075 0 1.51-.634 2.268-1.463 2.276-2.292z" fill="url(#h)"/><path d="m212.305 481.481c-3.047 1.276-8.005 1.268-11.075 0-3.07-1.269-3.081-3.358-.035-4.635 3.047-1.276 8.008-1.268 11.075 0 3.066 1.269 3.085 3.358.035 4.635z" fill="#f8f8f9"/><path d="m212.3 481.286c-3.046 1.276-8.004 1.268-11.074 0-1.479-.619-2.249-1.424-2.304-2.238-.062.876.705 1.763 2.304 2.432 3.07 1.285 8.028 1.292 11.074 0 1.557-.661 2.335-1.533 2.273-2.4-.059.801-.813 1.579-2.273 2.206z" fill="#fff"/><path d="m212.291 481.481c-.235.1-.475.188-.719.264h-4.577v-4.529h6.028c2.28 1.288 2.039 3.109-.732 4.265z" fill="#898584"/><path d="m213.699 476.893h-.389c-.46-.501-1.034-.885-1.673-1.12-2.724-1.141-7.136-1.168-9.845 0-.642.232-1.216.621-1.669 1.132h-.354v1.973c.027.731.712 1.463 2.051 2.023 2.723 1.14 7.132 1.168 9.844 0 1.343-.56 2.016-1.296 2.02-2.035z" fill="url(#i)"/><path d="m213.71 476.893v1.973c-.007.248-.081.49-.214.7-.374.252-.773.466-1.19.638-3.047 1.277-8.005 1.269-11.075 0-.433-.174-.844-.397-1.225-.665-.131-.199-.204-.428-.214-.665v-1.973h.354c.455-.509 1.028-.898 1.669-1.133 2.724-1.136 7.117-1.132 9.845 0 .638.232 1.211.615 1.669 1.117z" fill="#e8e7e6"/><path d="m211.684 479.041c-2.723 1.132-7.117 1.125-9.844 0-2.728-1.125-2.724-2.985-.031-4.121 2.692-1.136 7.117-1.128 9.844 0 2.728 1.129 2.74 2.985.031 4.121z" fill="#fffbf7"/><path d="m211.69 478.865c-2.724 1.136-7.117 1.128-9.845 0-1.319-.553-2-1.269-2.05-1.988-.055.778.626 1.556 2.05 2.159 2.724 1.14 7.133 1.168 9.845 0 1.401-.587 2.07-1.366 2.019-2.136-.054.72-.723 1.424-2.019 1.965z" fill="#fff"/><path d="m214.569 476.352h-.428c-.519-.563-1.164-.996-1.883-1.261-3.066-1.284-8.024-1.288-11.074 0-.721.263-1.365.7-1.876 1.273h-.389v1.253c.035.821.802 1.642 2.307 2.272 3.071 1.284 8.028 1.292 11.075 0 1.51-.63 2.268-1.459 2.276-2.288z" fill="url(#j)"/><path d="m212.305 478.765c-3.047 1.277-8.005 1.273-11.075 0-3.07-1.272-3.081-3.358-.035-4.634 3.047-1.277 8.008-1.269 11.075 0 3.066 1.268 3.085 3.362.035 4.634z" fill="#f8f8f9"/><path d="m212.3 478.571c-3.046 1.276-8.004 1.272-11.074 0-1.479-.623-2.249-1.428-2.304-2.238-.062.876.705 1.763 2.304 2.432 3.07 1.284 8.028 1.288 11.074 0 1.557-.657 2.335-1.529 2.273-2.397-.059.79-.813 1.596-2.273 2.203z" fill="#fff"/><path d="m212.291 478.769c-.256.109-.529.206-.817.296h-4.479v-4.533h6.079c2.229 1.284 1.968 3.085-.783 4.237z" fill="#898584"/><path d="m213.699 474.207h-.389c-.46-.501-1.034-.886-1.673-1.121-2.724-1.14-7.136-1.144-9.845 0-.64.235-1.214.624-1.669 1.133h-.354v1.972c.027.732.712 1.464 2.051 2.024 2.723 1.14 7.132 1.167 9.844 0 1.343-.56 2.016-1.296 2.02-2.035z" fill="url(#k)"/><path d="m213.71 474.208v1.976c-.008.249-.082.49-.214.701-.374.252-.773.466-1.19.638-3.047 1.276-8.005 1.268-11.075 0-.433-.174-.844-.397-1.225-.665-.13-.198-.204-.426-.214-.662v-1.977h.354c.455-.508 1.028-.897 1.669-1.132 2.724-1.136 7.117-1.132 9.845 0 .637.233 1.21.616 1.669 1.117z" fill="#e8e7e6"/><path d="m211.684 476.355c-2.723 1.133-7.117 1.129-9.844 0-2.728-1.128-2.724-2.984-.031-4.12 2.692-1.137 7.117-1.125 9.844 0 2.728 1.124 2.74 2.976.031 4.12z" fill="#fffbf7"/><path d="m211.69 476.181c-2.724 1.137-7.117 1.129-9.845 0-1.319-.552-2-1.268-2.05-1.988-.055.778.626 1.556 2.05 2.16 2.724 1.144 7.133 1.147 9.845 0 1.401-.588 2.07-1.362 2.019-2.133-.054.716-.723 1.42-2.019 1.961z" fill="#fff"/><path d="m214.569 473.656h-.428c-.518-.565-1.164-.997-1.883-1.261-3.066-1.284-8.024-1.292-11.074 0-.721.264-1.366.702-1.876 1.276h-.389v1.249c.035.825.802 1.646 2.307 2.277 3.071 1.284 8.028 1.291 11.075 0 1.51-.631 2.268-1.46 2.276-2.292z" fill="url(#l)"/><path d="m212.305 476.072c-3.047 1.276-8.005 1.268-11.075 0-3.07-1.269-3.081-3.358-.035-4.635 3.047-1.276 8.008-1.268 11.075 0 3.066 1.269 3.085 3.359.035 4.635z" fill="#f8f8f9"/><path d="m212.3 475.877c-3.046 1.277-8.004 1.269-11.074 0-1.479-.618-2.249-1.424-2.304-2.233-.062.875.705 1.759 2.304 2.428 3.07 1.284 8.028 1.292 11.074 0 1.557-.658 2.335-1.533 2.273-2.397-.059.802-.813 1.592-2.273 2.202z" fill="#fff"/><path d="m212.291 476.073c-.239.102-.483.192-.731.269h-4.565v-4.533h6.024c2.284 1.284 2.043 3.101-.728 4.264z" fill="#898584"/><path d="m213.699 471.484h-.389c-.46-.501-1.034-.884-1.673-1.117-2.724-1.144-7.136-1.167-9.845 0-.64.235-1.214.624-1.669 1.133h-.354v1.973c.027.735.712 1.463 2.051 2.023 2.723 1.144 7.132 1.167 9.844 0 1.343-.564 2.016-1.3 2.02-2.039z" fill="url(#m)"/><path d="m213.71 471.489v1.972c-.008.249-.082.49-.214.701-.373.254-.772.467-1.19.638-3.047 1.276-8.005 1.268-11.075 0-.432-.176-.843-.399-1.225-.665-.13-.199-.204-.429-.214-.666v-1.973h.354c.452-.511 1.026-.9 1.669-1.132 2.724-1.136 7.117-1.132 9.845 0 .638.233 1.211.618 1.669 1.121z" fill="#e8e7e6"/><path d="m211.684 473.632c-2.723 1.132-7.117 1.128-9.844 0-2.728-1.128-2.724-2.988-.031-4.121 2.692-1.132 7.117-1.128 9.844 0 2.728 1.129 2.74 2.977.031 4.121z" fill="#fffbf7"/><path d="m211.69 473.458c-2.724 1.136-7.117 1.128-9.845 0-1.319-.553-2-1.269-2.05-1.988-.055.778.626 1.556 2.05 2.163 2.724 1.14 7.133 1.144 9.845 0 1.401-.587 2.07-1.362 2.019-2.132-.054.712-.723 1.416-2.019 1.957z" fill="#fff"/><path d="m214.569 470.931h-.428c-.518-.564-1.164-.995-1.883-1.257-3.066-1.284-8.024-1.292-11.074 0-.721.264-1.365.701-1.876 1.272h-.389v1.253c.035.825.802 1.646 2.307 2.277 3.071 1.284 8.028 1.288 11.075 0 1.51-.635 2.268-1.464 2.276-2.292z" fill="url(#n)"/><path d="m212.305 473.36c-3.047 1.276-8.005 1.269-11.075 0s-3.081-3.358-.035-4.634c3.047-1.277 8.008-1.269 11.075 0 3.066 1.268 3.085 3.373.035 4.634z" fill="#f8f8f9"/><path d="m212.3 473.165c-3.046 1.277-8.004 1.269-11.074 0-1.479-.618-2.249-1.424-2.304-2.233-.062.872.705 1.759 2.304 2.428 3.07 1.284 8.028 1.292 11.074 0 1.557-.661 2.335-1.533 2.273-2.401-.059.802-.813 1.596-2.273 2.206z" fill="#fff"/><path d="m212.291 473.36c-.093.039-.182.074-.28.105h-5.016v-4.533h5.713c2.615 1.288 2.475 3.214-.417 4.428z" fill="#898584"/><path d="m213.699 467.616h-.389c-.461-.5-1.034-.882-1.673-1.116-2.724-1.144-7.136-1.148-9.845 0-.64.235-1.214.624-1.669 1.132h-.354v2.965c.027.732.712 1.463 2.051 2.023 2.723 1.141 7.132 1.168 9.844 0 1.343-.56 2.016-1.295 2.02-2.035z" fill="url(#o)"/><path d="m213.71 467.573v1.973c-.008.248-.082.49-.214.7-.372.255-.772.469-1.19.638-3.047 1.281-8.005 1.273-11.075 0-.432-.175-.843-.398-1.225-.665-.131-.198-.204-.428-.214-.665v-1.973h.354c.455-.509 1.028-.898 1.669-1.133 2.724-1.136 7.117-1.132 9.845 0 .638.235 1.21.619 1.669 1.121z" fill="#e8e7e6"/><path d="m211.684 469.764c-2.723 1.132-7.117 1.128-9.844 0-2.728-1.128-2.724-2.988-.031-4.121 2.692-1.132 7.117-1.128 9.844 0 2.728 1.129 2.74 2.985.031 4.121z" fill="#fffbf7"/><path d="m211.69 469.589c-2.724 1.137-7.117 1.129-9.845 0-1.319-.552-2-1.264-2.05-1.988-.055.778.626 1.557 2.05 2.164 2.724 1.14 7.133 1.144 9.845 0 1.401-.588 2.07-1.362 2.019-2.133-.054.712-.723 1.417-2.019 1.957z" fill="#fff"/><path d="m214.427 467.449-1.036-2.335-3.093.027c-2.466-.507-5.011-.485-7.467.066l-2.767.024-1 2.171c-.482 1.035.237 2.152 2.164 2.961 3.07 1.281 8.027 1.288 11.074 0 1.911-.766 2.619-1.879 2.125-2.914z" fill="url(#p)"/><path d="m211.504 467.495c-2.611 1.093-6.86 1.085-9.487 0-2.626-1.086-2.642-2.876-.031-3.969 2.611-1.094 6.86-1.086 9.487 0 2.626 1.085 2.642 2.875.031 3.969z" fill="#f8f8f9"/><path d="m212.381 467.039c-.278.18-.573.334-.88.459-.627.253-1.279.441-1.945.561h-2.919v-1.02z" fill="#898584"/><path d="m213.379 465.939h-1.238v-1.015h1.168c.084.154.134.324.146.5.012.175-.014.351-.076.515z" fill="#898584"/><path d="m207.575 463.663h-.046c-.055-.06-.123-.107-.199-.136-.377-.133-.789-.133-1.167 0-.077.028-.145.075-.199.136h-.042v4.047c0 .09.085.175.245.242.377.133.789.133 1.167 0 .16-.07.241-.156.241-.246z" fill="url(#r)"/><path d="m207.356 463.928c-.377.133-.789.133-1.167 0-.327-.14-.327-.358 0-.494.378-.134.79-.134 1.167 0 .308.128.308.35 0 .494z" fill="#fffbf7"/><path d="m207.356 463.9c-.377.134-.789.134-1.167 0-.16-.066-.241-.152-.245-.237 0 .093.074.187.245.261.378.133.79.133 1.167 0 .168-.07.249-.164.242-.257-.024.081-.102.167-.242.233z" fill="#fff"/><path d="m212.923 461.55h-.043c-.056-.061-.125-.107-.203-.136-.377-.134-.789-.134-1.167 0-.077.028-.145.074-.198.136h-.043v4.047c0 .085.085.175.245.241.378.134.79.134 1.167 0 .16-.066.242-.156.242-.241z" fill="url(#s)"/><path d="m212.681 461.806c-.377.134-.789.134-1.167 0-.327-.136-.327-.358 0-.494.378-.132.789-.132 1.167 0 .323.136.323.358 0 .494z" fill="#fffbf7"/><path d="m212.681 461.784c-.377.134-.789.134-1.167 0-.156-.066-.237-.152-.245-.237 0 .093.074.187.245.257.378.133.79.133 1.167 0 .168-.07.249-.164.242-.257-.004.089-.086.175-.242.237z" fill="#fff"/><path d="m202.21 461.55h-.047c-.053-.062-.122-.108-.198-.136-.378-.134-.79-.134-1.168 0-.077.028-.147.074-.202.136h-.043v4.047c0 .085.082.175.245.241.378.134.79.134 1.168 0 .159-.066.241-.156.241-.241z" fill="url(#t)"/><path d="m201.988 461.806c-.377.134-.789.134-1.167 0-.327-.136-.331-.358 0-.494.378-.132.789-.132 1.167 0 .312.136.312.358 0 .494z" fill="#fffbf7"/><path d="m201.987 461.784c-.378.134-.79.134-1.167 0-.16-.066-.242-.152-.246-.237 0 .093.074.187.246.257.377.133.789.133 1.167 0 .167-.07.245-.164.241-.257-.008.089-.089.175-.241.237z" fill="#fff"/><path d="m249.379 591.625h-.175c-.205-.268-.472-.481-.778-.622-.723-.315-1.502-.478-2.29-.478s-1.568.163-2.29.478c-.31.139-.578.356-.779.63h-.163v37.562c0 .389.331.813.953 1.128.724.314 1.504.476 2.292.476.789 0 1.569-.162 2.292-.476.627-.315.938-.724.942-1.136z" fill="url(#u)"/><path d="m248.442 592.824c-.723.313-1.503.475-2.292.475-.788 0-1.568-.162-2.292-.475-1.268-.639-1.276-1.67 0-2.304.723-.313 1.503-.474 2.29-.474.788 0 1.567.161 2.29.474 1.261.65 1.265 1.673.004 2.304z" fill="#6e6a69"/><path d="m248.443 592.726c-.724.313-1.504.474-2.292.474s-1.568-.161-2.292-.474c-.611-.308-.93-.708-.953-1.109-.028.432.292.871.953 1.206.723.314 1.503.476 2.292.476.788 0 1.568-.162 2.292-.476.654-.327.965-.778.938-1.191-.024.401-.335.794-.938 1.094z" fill="#a09d9b"/><path d="m249.379 556.059h-.175c-.203-.27-.471-.486-.778-.626-.723-.314-1.502-.476-2.29-.476s-1.568.162-2.29.476c-.31.14-.578.359-.779.634h-.163v37.558c0 .389.331.817.953 1.128.724.315 1.504.477 2.292.477.789 0 1.569-.162 2.292-.477.627-.315.938-.724.942-1.136z" fill="url(#v)"/><path d="m248.442 557.257c-.723.314-1.503.476-2.292.476-.788 0-1.568-.162-2.292-.476-1.268-.638-1.276-1.669 0-2.299.723-.315 1.502-.478 2.29-.478s1.568.163 2.29.478c1.261.634 1.265 1.665.004 2.299z" fill="#6e6a69"/><path d="m248.443 557.16c-.723.315-1.503.478-2.292.478s-1.569-.163-2.292-.478c-.611-.307-.93-.708-.953-1.109-.028.432.292.872.953 1.207.723.314 1.503.475 2.292.475.788 0 1.568-.161 2.292-.475.654-.327.965-.779.938-1.191-.024.397-.335.79-.938 1.093z" fill="#a09d9b"/><path d="m249.379 518.818h-.175c-.203-.27-.471-.486-.778-.627-.723-.313-1.502-.475-2.29-.475s-1.568.162-2.29.475c-.31.141-.578.36-.779.635h-.163v37.557c0 .409.331.817.953 1.129.724.314 1.504.477 2.292.477.789 0 1.569-.163 2.292-.477.627-.315.938-.724.942-1.136z" fill="url(#w)"/><path d="m248.442 520.015c-.723.314-1.503.476-2.292.476-.788 0-1.568-.162-2.292-.476-1.268-.638-1.276-1.665 0-2.299.723-.315 1.502-.478 2.29-.478s1.568.163 2.29.478c1.261.634 1.265 1.665.004 2.299z" fill="#6e6a69"/><path d="m248.443 519.917c-.723.315-1.503.477-2.292.477s-1.569-.162-2.292-.477c-.611-.308-.93-.708-.953-1.109-.028.436.292.871.953 1.206.723.314 1.503.476 2.292.476.788 0 1.568-.162 2.292-.476.654-.327.965-.778.941-1.191-.027.397-.338.79-.941 1.094z" fill="#a09d9b"/><path d="m249.379 483.247h-.175c-.203-.27-.47-.484-.778-.623-.723-.315-1.502-.477-2.29-.477s-1.568.162-2.29.477c-.31.14-.578.357-.779.631h-.163v37.557c0 .389.331.817.953 1.129.724.314 1.504.477 2.292.477.789 0 1.569-.163 2.292-.477.627-.312.938-.724.942-1.136z" fill="url(#x)"/><path d="m248.442 484.446c-.723.314-1.503.477-2.292.477-.788 0-1.569-.163-2.292-.477-1.268-.638-1.276-1.666 0-2.3.723-.315 1.502-.477 2.29-.477s1.568.162 2.29.477c1.261.638 1.265 1.666.004 2.3z" fill="#6e6a69"/><path d="m248.443 484.348c-.723.315-1.503.477-2.292.477s-1.569-.162-2.292-.477c-.611-.307-.93-.704-.953-1.109-.028.436.292.876.953 1.206.723.315 1.503.477 2.292.477s1.569-.162 2.292-.477c.654-.327.965-.778.941-1.19-.027.396-.338.789-.941 1.093z" fill="#a09d9b"/><path d="m296.878 500.66-5.346 3.097h-5.448v-8.996h.49z" fill="#a09d9b"/><path d="m285.388 514.653.316-4.463c1.232.082 2.422.484 3.451 1.167 1.771 1.273 1.79 3.074.132 4.179l-3.941-.276.042-.615" fill="#898584"/><path d="m294.622 509.718.035.063c-.065.127-.097.269-.093.412.017.317.108.626.267.901.159.276.381.509.647.683.117.074.251.117.389.124l.035.059 1.421-.829c.091-.068.162-.158.208-.261.046-.104.064-.218.052-.331-.017-.317-.108-.626-.266-.902-.158-.275-.379-.51-.644-.685-.092-.066-.2-.107-.313-.118s-.226.008-.329.056z" fill="url(#y)"/><path d="m295.295 509.771c.265.173.486.407.644.683.159.275.25.583.266.9 0 .588-.408.825-.91.533-.266-.174-.487-.407-.645-.683-.158-.275-.249-.583-.266-.9.004-.588.413-.825.911-.533z" fill="#6e6a69"/><path d="m288.575 512.657.042.082c-.082.162-.122.343-.116.525.021.406.138.801.34 1.154.203.352.487.651.827.873.157.098.337.153.522.16l.042.074 6.172-3.533c.115-.086.207-.2.265-.332s.08-.276.065-.419c-.021-.407-.138-.802-.341-1.155-.202-.353-.485-.653-.826-.877-.117-.084-.255-.136-.399-.15-.145-.015-.29.009-.422.069z" fill="url(#A)"/><path d="m289.422 512.724c.339.223.622.522.825.875.202.352.32.746.342 1.152 0 .751-.525 1.055-1.167.681-.341-.222-.624-.521-.827-.874-.203-.352-.32-.747-.341-1.153 0-.747.522-1.051 1.168-.681z" fill="#6e6a69"/><path d="m288.568 506.423h-.156c-.169-.262-.402-.476-.677-.623-.618-.314-1.301-.477-1.994-.477s-1.376.163-1.994.477c-.276.148-.508.366-.674.631h-.144v7.28c.03.244.122.477.268.676.146.198.341.355.565.456.618.313 1.3.476 1.992.476.693 0 1.375-.163 1.993-.476.225-.1.419-.257.564-.457.144-.2.233-.434.257-.679z" fill="url(#B)"/><path d="m288.568 506.423v2.362c-.159.166-.341.307-.541.42-.704.358-1.483.545-2.273.545-.789 0-1.568-.187-2.272-.545-.203-.116-.389-.26-.553-.428v-2.334h.144c.166-.265.398-.483.674-.631.618-.313 1.301-.476 1.994-.476s1.376.163 1.994.476c.274.149.507.365.677.627z" fill="#a09d9b"/><path d="m287.746 507.621c-.618.313-1.3.476-1.993.476-.692 0-1.374-.163-1.992-.476-1.105-.638-1.113-1.669 0-2.303.618-.314 1.301-.477 1.994-.477s1.377.163 1.995.477c1.089.634 1.093 1.673-.004 2.303z" fill="#6e6a69"/><path d="m287.748 507.528c-.618.313-1.3.476-1.993.476-.692 0-1.374-.163-1.992-.476-.221-.101-.413-.256-.558-.45-.146-.195-.24-.422-.275-.663-.019.436.257.876.833 1.21.618.313 1.3.476 1.992.476.693 0 1.375-.163 1.993-.476.568-.326.84-.778.817-1.19-.033.236-.125.46-.268.652-.143.191-.332.343-.549.441z" fill="#a09d9b"/><path d="m288.568 512.536v.506c-.025.245-.114.478-.258.677-.145.199-.339.356-.563.456-.618.313-1.3.477-1.993.477-.692 0-1.375-.164-1.992-.477-.224-.1-.419-.257-.565-.455s-.238-.43-.268-.674v-.525c.023.251.112.491.259.696.146.205.344.368.574.471.618.313 1.3.476 1.992.476.693 0 1.375-.163 1.993-.476.226-.102.422-.262.566-.464.145-.203.232-.44.255-.688z" fill="url(#D)"/><path d="m288.568 511.642v.505c-.026.244-.116.477-.26.676s-.337.356-.561.457c-.617.314-1.3.478-1.993.478-.692 0-1.375-.164-1.992-.478-.224-.099-.419-.255-.565-.452s-.238-.429-.268-.673v-.525c.023.251.112.491.259.696.146.206.344.368.574.471.618.313 1.3.476 1.992.476.693 0 1.375-.163 1.993-.476.228-.101.424-.262.569-.465.144-.203.231-.442.252-.69z" fill="url(#E)"/><path d="m288.568 510.745v.506c-.026.244-.116.477-.26.676s-.337.356-.561.457c-.617.314-1.3.478-1.993.478-.692 0-1.375-.164-1.992-.478-.224-.1-.418-.256-.564-.453s-.239-.429-.269-.672v-.525c.022.251.111.492.258.697.146.205.345.368.575.47.618.313 1.3.476 1.992.476.693 0 1.375-.163 1.993-.476.228-.101.424-.262.568-.465.145-.204.232-.442.253-.691z" fill="url(#F)"/><path d="m296.878 500.66-5.346 3.097-4.919 2.841-84.719-48.535 10.265-5.926 2.265 1.295 13.864 7.938 24.472 14.024 11.985 6.864 21.829 12.503z" fill="#f8f8f9"/><path d="m296.841 504.015.031-3.354-10.265 5.938-.031 3.35z" fill="#bebabb"/><path d="m201.85 461.42.031-3.354 84.723 48.531-.031 3.35z" fill="#bebabb"/><path d="m226.267 451.681h-.989c-.879-1.288-2.334-2.498-4.393-3.525-7.164-3.592-18.744-3.611-25.861-.039-2.066 1.035-3.525 2.261-4.385 3.564h-.93v3.502c.078 2.304 1.872 4.604 5.389 6.37 7.164 3.592 18.74 3.611 25.861.039 3.525-1.767 5.292-4.086 5.311-6.409z" fill="url(#G)"/><path d="m220.951 458.439c-7.121 3.572-18.678 3.552-25.861-.039-7.183-3.592-7.199-9.405-.082-12.973 7.117-3.569 18.678-3.553 25.861.039 7.183 3.591 7.199 9.401.082 12.973z" fill="#6e6a69"/><path d="m220.941 457.895c-7.121 3.572-18.677 3.553-25.861-.039-3.463-1.739-5.253-3.992-5.385-6.261-.148 2.452 1.646 4.931 5.385 6.806 7.164 3.592 18.74 3.611 25.861.039 3.678-1.844 5.448-4.28 5.3-6.716-.132 2.245-1.899 4.463-5.3 6.171z" fill="#a09d9b"/><path d="m220.936 458.44c-1.045.516-2.128.949-3.241 1.296h-8.253v-14.293h11.37c.018.004.036.012.05.024 7.156 3.591 7.195 9.401.074 12.973z" fill="#a09d9b"/><path d="m224.241 449.883-2.195-20.141-6.556.07c-5.199-1.285-10.64-1.226-15.81.172l-5.864.062-2.121 19.767c-1.023 2.631.502 5.471 4.584 7.518 6.494 3.261 17.001 3.276 23.456.035 4.055-2.027 5.541-4.852 4.506-7.483z" fill="url(#H)"/><path d="m218.051 435.743c-5.533 2.774-14.53 2.758-20.098-.032s-5.596-7.307-.062-10.082c5.533-2.774 14.529-2.762 20.098.031 5.568 2.794 5.595 7.308.062 10.083z" fill="#6e6a69"/><path d="m208.058 436.708c-3.592 0-6.954-.696-9.468-1.945-2.292-1.168-3.556-2.611-3.556-4.109 0-1.499 1.241-2.923 3.502-4.055 2.471-1.241 5.794-1.922 9.339-1.922s6.957.692 9.471 1.945c2.292 1.148 3.553 2.607 3.553 4.109s-1.238 2.923-3.503 4.051c-2.459 1.241-5.778 1.926-9.338 1.926z" fill="#605d5c"/><path d="m198.536 428.217c2.471-1.241 5.794-1.922 9.339-1.922s6.957.692 9.471 1.945c1.875.942 3.047 2.09 3.416 3.296.086-.263.131-.537.137-.813 0-1.502-1.261-2.961-3.553-4.109-2.514-1.265-5.876-1.946-9.471-1.946-3.596 0-6.88.681-9.339 1.922-2.253 1.133-3.502 2.572-3.502 4.055.006.277.053.551.14.813.373-1.19 1.525-2.319 3.362-3.241z" fill="url(#I)"/><path d="m296.869 500.641-5.506 3.186h-5.615v-9.268h.502z" fill="#a09d9b"/><path d="m260.711 479.866h-14.071v-5.798h3.946z" fill="#a09b9a"/><path d="m251.615 475.231h-.281c-.297-.463-.708-.842-1.194-1.101-1.946-1.121-5.082-1.129-7.004 0-.488.259-.897.643-1.187 1.113h-.253v1.805c.023.72.51 1.436 1.463 1.989 1.946 1.12 5.086 1.124 7.004 0 .957-.553 1.436-1.277 1.44-2z" fill="url(#J)"/><path d="m250.162 477.34c-1.945 1.113-5.058 1.109-7.004 0s-1.946-2.938-.023-4.051c1.922-1.113 5.058-1.109 7.004 0 1.945 1.109 1.969 2.934.023 4.051z" fill="#6e6a69"/><path d="m250.161 477.158c-1.945 1.117-5.058 1.109-7.004 0-.937-.541-1.424-1.245-1.459-1.945-.039.778.448 1.556 1.459 2.124 1.946 1.121 5.086 1.125 7.004 0 .997-.576 1.475-1.338 1.436-2.097-.027.704-.506 1.397-1.436 1.918z" fill="#a09b9a"/><path d="m250.503 477.119h-3.393v-3.502h3.541c1.323 1.059 1.284 2.502-.148 3.502z" fill="#a09b9a"/><path d="m250.469 473.575h-.211c-.228-.358-.544-.652-.918-.853-.839-.425-1.766-.646-2.706-.646-.941 0-1.868.221-2.707.646-.376.202-.692.498-.918.86h-.194v1.393c0 .553.389 1.109 1.124 1.533.839.425 1.766.647 2.706.647.941 0 1.868-.222 2.707-.647.739-.424 1.109-.984 1.113-1.556z" fill="url(#K)"/><path d="m249.376 475.212c-.839.425-1.766.647-2.706.647s-1.868-.222-2.706-.647c-1.499-.868-1.506-2.265 0-3.113.838-.426 1.765-.648 2.706-.648.94 0 1.868.222 2.706.648 1.463.845 1.471 2.242 0 3.113z" fill="#6e6a69"/><path d="m249.376 475.068c-.839.425-1.766.646-2.706.646-.941 0-1.868-.221-2.707-.646-.723-.42-1.097-.961-1.124-1.51-.031.592.342 1.167 1.124 1.642.839.425 1.766.647 2.707.647.94 0 1.867-.222 2.706-.647.778-.443 1.14-1.031 1.109-1.619-.047.541-.416 1.078-1.109 1.487z" fill="#a09b9a"/><path d="m292.164 498.804h-.346c-.382-.588-.905-1.071-1.521-1.405-2.483-1.428-6.491-1.436-8.95 0-.622.333-1.145.822-1.518 1.42h-.323v1.397c.028.919.646 1.837 1.864 2.537 2.483 1.432 6.491 1.44 8.95 0 1.218-.704 1.833-1.626 1.837-2.552z" fill="url(#L)"/><path d="m290.323 501.497c-2.463 1.424-6.471 1.417-8.95 0-2.479-1.416-2.49-3.743-.027-5.167 2.463-1.425 6.471-1.417 8.95 0 2.478 1.416 2.49 3.747.027 5.167z" fill="#6e6a69"/><path d="m291.764 498.781c-.163.082-.344.125-.527.125s-.364-.043-.527-.125c-.064-.022-.119-.063-.158-.118-.04-.055-.061-.121-.061-.188s.021-.133.061-.188c.039-.054.094-.095.158-.117.162-.082.342-.125.525-.125.182 0 .362.043.525.125.296.171.296.443.004.611z" fill="#3b3835"/><path d="m286.462 502.119c-.164.083-.345.126-.528.126s-.364-.043-.527-.126c-.064-.022-.119-.063-.158-.118s-.06-.12-.06-.187c0-.068.021-.133.06-.188s.094-.096.158-.118c.163-.083.344-.126.527-.126s.364.043.528.126c.272.163.291.444 0 .611z" fill="#3b3835"/><path d="m280.98 498.78c-.163.083-.344.126-.527.126s-.364-.043-.527-.126c-.064-.022-.119-.063-.158-.118s-.06-.12-.06-.188c0-.067.021-.132.06-.187s.094-.096.158-.118c.163-.083.344-.126.527-.126s.364.043.527.126c.066.02.123.06.164.115s.063.122.063.19c0 .069-.022.136-.063.191s-.098.095-.164.115z" fill="#3b3835"/><path d="m290.323 501.283c-2.463 1.421-6.471 1.413-8.95 0-1.198-.689-1.817-1.587-1.864-2.49-.05.973.572 1.945 1.864 2.724 2.483 1.432 6.491 1.439 8.95 0 1.272-.736 1.883-1.709 1.836-2.674-.05.884-.657 1.759-1.836 2.44z" fill="#a09d9b"/><path d="m290.886 501.134h-4.891v-5.879c1.504-.005 2.986.365 4.311 1.077 2.269 1.312 2.475 3.394.58 4.802z" fill="#a09d9b"/><path d="m290.369 486.862h-.249c-.271-.42-.645-.766-1.085-1.004-1.775-1.023-4.639-1.027-6.401 0-.444.239-.818.589-1.086 1.016h-.23v11.673c.02.658.464 1.312 1.335 1.814 1.775 1.023 4.638 1.031 6.401 0 .872-.502 1.312-1.168 1.315-1.825z" fill="url(#M)"/><path d="m290.369 486.861v3.794c-.256.264-.548.491-.867.673-2.004 1.168-5.273 1.168-7.292 0-.331-.183-.631-.415-.892-.689v-3.762h.23c.268-.427.642-.777 1.086-1.016 1.759-1.016 4.626-1.012 6.397 0 .443.236.818.582 1.089 1.004z" fill="#a09d9b"/><path d="m289.078 488.788c-1.763 1.02-4.627 1.012-6.401 0-1.774-1.011-1.782-2.677-.019-3.692 1.762-1.016 4.626-1.016 6.401 0 1.774 1.015 1.766 2.677.019 3.692z" fill="#6e6a69"/><path d="m289.075 488.632c-1.763 1.02-4.626 1.012-6.401 0-.856-.494-1.299-1.136-1.331-1.782-.039.701.389 1.405 1.331 1.946 1.775 1.023 4.638 1.031 6.401 0 .911-.525 1.347-1.222 1.311-1.911-.046.631-.486 1.261-1.311 1.747z" fill="#a09d9b"/><path d="m291.026 484.574h-.28c-.308-.483-.736-.877-1.241-1.144-2.02-1.168-5.285-1.168-7.293 0-.507.274-.934.676-1.237 1.167h-.261v4.062c.024.748.53 1.495 1.522 2.067 2.019 1.167 5.284 1.167 7.292 0 .992-.576 1.494-1.327 1.498-2.082z" fill="url(#N)"/><path d="m289.506 486.764c-2.008 1.168-5.272 1.168-7.292 0-2.019-1.167-2.031-3.05-.023-4.21 2.008-1.159 5.272-1.167 7.292 0 2.019 1.167 2.031 3.051.023 4.21z" fill="#f8f8f9"/><path d="m290.239 486.224h-4.222v-4.541c1.208 0 2.398.299 3.463.871 1.728 1 1.984 2.522.759 3.67z" fill="#a09d9b"/><path d="m289.336 481.473h-.191c-.211-.325-.5-.593-.84-.778-.765-.39-1.612-.593-2.471-.593s-1.705.203-2.471.593c-.342.182-.63.45-.836.778h-.179v2.751c0 .51.358 1.016 1.031 1.401.765.389 1.612.592 2.471.592.858 0 1.705-.203 2.47-.592.674-.389 1.012-.899 1.016-1.413z" fill="url(#O)"/><path d="m289.336 481.469v2.755c0 .143-.028.284-.082.416-1.073.488-2.239.738-3.418.732-1.178-.005-2.342-.265-3.411-.763-.047-.124-.073-.256-.077-.389v-2.755h.179c.207-.327.495-.595.836-.778.766-.39 1.612-.593 2.471-.593s1.706.203 2.471.593c.341.184.63.452.84.778z" fill="#a09d9b"/><path d="m288.32 482.959c-.767.387-1.613.589-2.471.589-.859 0-1.705-.202-2.471-.589-1.37-.779-1.378-2.067 0-2.853.765-.389 1.612-.592 2.471-.592.858 0 1.705.203 2.471.592 1.354.79 1.358 2.067 0 2.853z" fill="#6e6a69"/><path d="m288.319 482.839c-.766.389-1.613.593-2.471.593-.859 0-1.706-.204-2.471-.593-.662-.389-1.004-.879-1.028-1.378-.031.537.312 1.082 1.028 1.495.766.387 1.612.589 2.471.589.858 0 1.705-.202 2.471-.589.704-.409 1.039-.946 1.011-1.479-.023.498-.362.984-1.011 1.362z" fill="#a09d9b"/><path d="m291.026 478.044h-.28c-.308-.483-.736-.877-1.241-1.144-2.02-1.168-5.285-1.168-7.293 0-.507.274-.934.676-1.237 1.167h-.261v4.062c.024.748.53 1.495 1.522 2.067 2.019 1.167 5.284 1.167 7.292 0 .992-.576 1.494-1.327 1.498-2.082z" fill="url(#P)"/><path d="m289.506 480.236c-2.008 1.167-5.272 1.167-7.292 0-2.019-1.168-2.031-3.051-.023-4.211 2.008-1.159 5.272-1.167 7.292 0 2.019 1.168 2.031 3.051.023 4.211z" fill="#6e6a69"/><path d="m289.504 480.06c-2.008 1.167-5.272 1.167-7.292 0-.976-.564-1.482-1.296-1.517-2.031-.043.778.463 1.595 1.517 2.206 2.02 1.167 5.284 1.167 7.292 0 1.035-.599 1.533-1.389 1.495-2.179-.039.728-.534 1.436-1.495 2.004z" fill="#a09d9b"/><path d="m271.394 481.146h15.148l8.304 4.627 2.455-1.296-6.198-7.716 3.276-3.451-1.743-1.825-11.825 5.86-10.701.965z" fill="#3f3c39"/><path d="m271.394 480.422h15.148l8.304 4.627 2.455-1.292-6.198-7.72 3.276-3.452-1.743-1.825-11.825 5.861-10.701.965z" fill="#6e6a69"/><path d="m303.315 467.075c-.132 2.844-.984 5.58-3.171 7.51-.394.382-.876.66-1.405.809-.396.074-.802.074-1.198 0h-.082c-.208-.05-.413-.111-.615-.183-1.503-.529-2.77-1.574-3.574-2.949-.805-1.375-1.096-2.992-.82-4.561.276-1.57 1.099-2.991 2.324-4.009 1.226-1.019 2.773-1.57 4.366-1.555.319-.002.638.02.954.066.326.042.649.111.965.206.279.108.541.257.778.44.556.445.955 1.058 1.136 1.747.272.797.388 1.638.342 2.479z" fill="#6e6a69"/><path d="m303.31 467.076c-.133 2.844-.985 5.58-3.172 7.51-.394.382-.876.66-1.404.809-.397.074-.803.074-1.199 0h-.082c-.211-.036-.418-.098-.615-.183-.357-.14-.658-.393-.859-.72-.726-1.353-1.035-2.891-.888-4.42.061-1.142.263-2.273.6-3.366.356-1.101.95-2.111 1.739-2.957.372-.445.803-.838 1.28-1.168.411-.26.892-.388 1.378-.366.331.007.659.077.965.207.279.108.541.256.778.439.557.446.955 1.058 1.136 1.748.27.793.387 1.63.343 2.467z" fill="url(#Q)"/><path d="m293.975 483.083c.144 3.199 1.105 6.277 3.568 8.448.442.432.985.745 1.58.911.445.084.901.084 1.346 0h.094c.228-.056.453-.127.673-.211 1.695-.592 3.124-1.767 4.032-3.316.908-1.548 1.236-3.369.926-5.137-.311-1.769-1.24-3.369-2.621-4.515-1.382-1.147-3.126-1.765-4.921-1.744-.358-.001-.716.023-1.07.074-.368.053-.732.131-1.089.233-.317.123-.615.291-.884.498-.623.495-1.07 1.177-1.276 1.946-.298.906-.42 1.861-.358 2.813z" fill="#24211e"/><path d="m293.974 483.084c.144 3.198 1.105 6.276 3.568 8.448.442.431.985.745 1.58.91.445.084.902.084 1.347 0h.093c.232-.042.458-.113.673-.21.403-.158.744-.444.969-.813.815-1.522 1.161-3.251.996-4.969-.068-1.285-.294-2.557-.673-3.786-.396-1.239-1.06-2.375-1.945-3.327-.416-.508-.901-.954-1.44-1.327-.464-.295-1.007-.441-1.557-.417-.374.013-.743.092-1.089.234-.317.123-.614.29-.884.498-.622.495-1.07 1.177-1.276 1.945-.299.906-.422 1.861-.362 2.814z" fill="url(#R)"/><path d="m272.321 479.017c0 1.337-.396 2.643-1.138 3.753-.742 1.111-1.797 1.977-3.032 2.488-1.234.512-2.592.645-3.902.385-1.311-.261-2.514-.904-3.459-1.849s-1.588-2.148-1.849-3.459c-.261-1.31-.127-2.668.384-3.903.512-1.234 1.378-2.289 2.488-3.031 1.111-.742 2.417-1.139 3.753-1.139 1.792 0 3.51.712 4.777 1.979s1.978 2.985 1.978 4.776z" fill="#3b3835"/><path d="m265.349 484.473c3.327 0 6.024-2.697 6.024-6.023 0-3.327-2.697-6.024-6.024-6.024-3.326 0-6.023 2.697-6.023 6.024 0 3.326 2.697 6.023 6.023 6.023z" fill="#545150"/><path d="m264.154 481.818c2.407 0 4.358-1.951 4.358-4.358s-1.951-4.358-4.358-4.358-4.358 1.951-4.358 4.358 1.951 4.358 4.358 4.358z" fill="#6e6a69"/><path d="m262.334 475.239c0 .149-.044.295-.127.42-.083.124-.201.22-.339.278-.137.057-.289.072-.436.043-.146-.03-.281-.101-.386-.207-.106-.106-.178-.24-.207-.387-.029-.146-.014-.298.043-.436s.154-.256.278-.339c.124-.082.27-.127.42-.127.099 0 .197.019.289.057.092.037.175.093.246.163.07.07.125.154.163.246s.057.19.056.289z" fill="#d4d3d2"/><path d="m260.697 476.414c.19 0 .343-.153.343-.342s-.153-.343-.343-.343c-.189 0-.342.154-.342.343s.153.342.342.342z" fill="#d4d3d2"/><path d="m284.804 476.908c-.2.101-.42.153-.644.153-.223 0-.444-.052-.644-.153-.079-.024-.148-.074-.198-.141-.049-.067-.075-.147-.075-.23s.026-.164.075-.231c.05-.067.119-.116.198-.141.2-.102.42-.155.644-.155s.445.053.644.155c.08.025.149.074.198.141s.076.148.076.231-.027.163-.076.23-.118.117-.198.141z" fill="#3f3c39"/><path d="m290.39 477.433c-.199.101-.419.154-.642.154s-.443-.053-.642-.154c-.358-.206-.362-.537 0-.743.199-.102.419-.155.642-.155s.443.053.642.155c.079.025.149.074.198.141s.076.148.076.231-.027.163-.076.23-.119.117-.198.141z" fill="#3f3c39"/><path d="m287.332 479.916c-.199.102-.42.155-.644.155-.223 0-.444-.053-.644-.155-.079-.025-.148-.074-.197-.141-.05-.067-.076-.148-.076-.231s.026-.163.076-.23c.049-.067.118-.117.197-.141.2-.101.421-.153.644-.153.224 0 .445.052.644.153.08.024.149.074.198.141.05.067.076.147.076.23s-.026.164-.076.231c-.049.067-.118.116-.198.141z" fill="#3f3c39"/><g fill="#e4007e"><path d="m490.412 472.676c.976-.476 1.367-1.682.873-2.694-.493-1.012-1.684-1.447-2.659-.972-.976.475-1.367 1.681-.874 2.694.494 1.012 1.684 1.447 2.66.972z"/><path d="m483.253 476.167c.975-.476 1.366-1.682.873-2.694s-1.684-1.447-2.66-.972c-.975.475-1.366 1.681-.873 2.694.493 1.012 1.684 1.447 2.66.972z"/><path d="m476.116 479.653c.975-.475 1.366-1.681.873-2.693-.493-1.013-1.684-1.448-2.66-.973-.975.476-1.366 1.682-.873 2.694s1.684 1.448 2.66.972z"/><path d="m468.934 483.14c.975-.475 1.366-1.681.873-2.694-.493-1.012-1.684-1.447-2.66-.972-.975.476-1.366 1.682-.873 2.694s1.684 1.447 2.66.972z"/><path d="m461.797 486.627c.975-.475 1.366-1.681.873-2.693-.493-1.013-1.684-1.448-2.66-.972-.975.475-1.366 1.681-.873 2.693.494 1.013 1.684 1.448 2.66.972z"/><path d="m454.638 490.114c.975-.476 1.366-1.682.873-2.694s-1.684-1.448-2.66-.972c-.975.475-1.366 1.681-.873 2.694.493 1.012 1.684 1.447 2.66.972z"/><path d="m447.478 493.604c.976-.475 1.367-1.681.873-2.694-.493-1.012-1.684-1.447-2.659-.972-.976.476-1.367 1.682-.874 2.694.494 1.012 1.685 1.447 2.66.972z"/><path d="m440.319 497.09c.975-.476 1.366-1.682.873-2.694s-1.684-1.447-2.66-.972c-.975.475-1.366 1.681-.873 2.694.493 1.012 1.684 1.447 2.66.972z"/><path d="m433.16 500.577c.975-.475 1.366-1.681.873-2.693-.493-1.013-1.684-1.448-2.66-.973-.975.476-1.366 1.682-.873 2.694s1.684 1.448 2.66.972z"/><path d="m426 504.06c.976-.476 1.367-1.682.873-2.694-.493-1.012-1.684-1.448-2.659-.972-.976.475-1.367 1.681-.874 2.694.494 1.012 1.685 1.447 2.66.972z"/><path d="m511.331 462.482c.975-.476 1.366-1.682.873-2.694s-1.684-1.448-2.66-.972c-.975.475-1.366 1.681-.873 2.693.493 1.013 1.684 1.448 2.66.973z"/><path d="m504.171 465.971c.976-.475 1.367-1.681.874-2.693-.494-1.013-1.684-1.448-2.66-.973-.976.476-1.367 1.682-.873 2.694.493 1.012 1.684 1.448 2.659.972z"/><path d="m497.012 469.458c.976-.476 1.367-1.682.873-2.694-.493-1.012-1.684-1.447-2.659-.972-.976.475-1.367 1.681-.874 2.694.494 1.012 1.684 1.447 2.66.972z"/><path d="m397.609 517.909c.976-.476 1.367-1.682.873-2.694-.493-1.012-1.684-1.448-2.659-.972-.976.475-1.367 1.681-.874 2.694.494 1.012 1.684 1.447 2.66.972z"/><path d="m390.427 521.395c.976-.475 1.367-1.682.874-2.694-.494-1.012-1.685-1.447-2.66-.972-.976.475-1.367 1.681-.873 2.694.493 1.012 1.684 1.447 2.659.972z"/><path d="m383.29 524.882c.976-.475 1.367-1.681.873-2.693-.493-1.013-1.684-1.448-2.659-.973-.976.476-1.367 1.682-.874 2.694.494 1.012 1.684 1.448 2.66.972z"/><path d="m376.131 528.369c.975-.475 1.366-1.681.873-2.694-.493-1.012-1.684-1.447-2.66-.972-.975.476-1.366 1.682-.873 2.694s1.684 1.448 2.66.972z"/><path d="m368.971 531.859c.976-.475 1.367-1.681.874-2.693-.494-1.013-1.684-1.448-2.66-.972-.976.475-1.367 1.681-.873 2.693.493 1.013 1.684 1.448 2.659.972z"/><path d="m361.812 535.345c.976-.475 1.367-1.681.873-2.694-.493-1.012-1.684-1.447-2.659-.972-.976.476-1.367 1.682-.874 2.694.494 1.012 1.685 1.448 2.66.972z"/><path d="m354.653 538.832c.975-.475 1.366-1.681.873-2.694-.493-1.012-1.684-1.447-2.66-.972-.975.476-1.366 1.682-.873 2.694s1.684 1.447 2.66.972z"/><path d="m347.493 542.319c.976-.476 1.367-1.682.874-2.694-.494-1.012-1.684-1.447-2.66-.972s-1.367 1.681-.873 2.694c.493 1.012 1.684 1.447 2.659.972z"/><path d="m340.356 545.806c.976-.475 1.367-1.681.874-2.693-.494-1.013-1.684-1.448-2.66-.973-.976.476-1.367 1.682-.873 2.694.493 1.012 1.684 1.448 2.659.972z"/><path d="m333.197 549.295c.976-.475 1.367-1.681.873-2.693-.493-1.013-1.684-1.448-2.659-.972-.976.475-1.367 1.681-.874 2.693.494 1.013 1.684 1.448 2.66.972z"/><path d="m418.505 507.717c.976-.476 1.367-1.682.873-2.694-.493-1.012-1.684-1.448-2.659-.972-.976.475-1.367 1.681-.874 2.694.494 1.012 1.684 1.447 2.66.972z"/><path d="m411.346 511.204c.976-.475 1.367-1.681.873-2.694-.493-1.012-1.684-1.447-2.659-.972-.976.476-1.367 1.682-.874 2.694.494 1.012 1.684 1.448 2.66.972z"/><path d="m404.209 514.686c.975-.475 1.366-1.681.873-2.694-.493-1.012-1.684-1.447-2.66-.972-.975.476-1.366 1.682-.873 2.694s1.684 1.447 2.66.972z"/><path d="m676.041 382.217c.975-.475 1.366-1.681.873-2.694-.493-1.012-1.684-1.447-2.66-.972-.975.476-1.366 1.682-.873 2.694s1.684 1.448 2.66.972z"/><path d="m668.881 385.704c.976-.475 1.367-1.682.874-2.694-.494-1.012-1.684-1.447-2.66-.972s-1.366 1.681-.873 2.694c.493 1.012 1.684 1.447 2.659.972z"/><path d="m661.744 389.191c.976-.476 1.367-1.682.873-2.694-.493-1.012-1.684-1.448-2.659-.972-.976.475-1.367 1.681-.874 2.694.494 1.012 1.685 1.447 2.66.972z"/><path d="m654.585 392.677c.975-.475 1.366-1.681.873-2.693-.493-1.013-1.684-1.448-2.66-.972-.975.475-1.366 1.681-.873 2.693.493 1.013 1.684 1.448 2.66.972z"/><path d="m647.426 396.161c.975-.476 1.366-1.682.873-2.694s-1.684-1.448-2.66-.972c-.975.475-1.366 1.681-.873 2.694.493 1.012 1.684 1.447 2.66.972z"/><path d="m640.267 399.65c.975-.475 1.366-1.681.873-2.694-.494-1.012-1.684-1.447-2.66-.972-.975.476-1.366 1.682-.873 2.694s1.684 1.448 2.66.972z"/><path d="m633.129 403.137c.976-.476 1.367-1.682.873-2.694-.493-1.012-1.684-1.447-2.659-.972-.976.475-1.367 1.681-.874 2.694.494 1.012 1.684 1.447 2.66.972z"/><path d="m625.97 406.624c.976-.475 1.367-1.681.873-2.693-.493-1.013-1.684-1.448-2.659-.973-.976.476-1.367 1.682-.874 2.694.494 1.013 1.684 1.448 2.66.972z"/><path d="m618.81 410.11c.976-.475 1.367-1.681.874-2.693-.494-1.013-1.684-1.448-2.66-.972-.976.475-1.367 1.681-.873 2.693.493 1.013 1.684 1.448 2.659.972z"/><path d="m611.651 413.597c.976-.475 1.367-1.681.873-2.694-.493-1.012-1.684-1.447-2.659-.972-.976.476-1.367 1.682-.874 2.694.494 1.012 1.684 1.448 2.66.972z"/><path d="m696.982 372.022c.975-.476 1.366-1.682.873-2.694s-1.684-1.448-2.66-.972c-.975.475-1.366 1.681-.873 2.694.493 1.012 1.684 1.447 2.66.972z"/><path d="m689.822 375.508c.976-.475 1.367-1.681.874-2.693-.494-1.013-1.684-1.448-2.66-.972-.976.475-1.367 1.681-.873 2.693.493 1.013 1.684 1.448 2.659.972z"/><path d="m682.663 378.995c.976-.475 1.367-1.681.873-2.694-.493-1.012-1.684-1.447-2.659-.972-.976.476-1.367 1.682-.873 2.694.493 1.012 1.684 1.448 2.659.972z"/><path d="m583.237 427.446c.976-.475 1.367-1.681.874-2.694-.494-1.012-1.684-1.447-2.66-.972-.976.476-1.367 1.682-.873 2.694.493 1.012 1.684 1.448 2.659.972z"/><path d="m576.078 430.933c.976-.476 1.367-1.682.873-2.694-.493-1.012-1.684-1.447-2.659-.972-.976.475-1.367 1.681-.874 2.694.494 1.012 1.685 1.447 2.66.972z"/><path d="m568.919 434.42c.975-.476 1.366-1.682.873-2.694s-1.684-1.448-2.66-.972c-.975.475-1.366 1.681-.873 2.694.493 1.012 1.684 1.447 2.66.972z"/><path d="m561.759 437.91c.976-.475 1.367-1.681.874-2.693-.494-1.013-1.684-1.448-2.66-.972-.976.475-1.367 1.681-.873 2.693.493 1.013 1.684 1.448 2.659.972z"/><path d="m554.622 441.396c.976-.476 1.367-1.682.874-2.694-.494-1.012-1.684-1.447-2.66-.972s-1.367 1.681-.873 2.694c.493 1.012 1.684 1.447 2.659.972z"/><path d="m547.463 444.883c.976-.475 1.367-1.681.873-2.693-.493-1.013-1.684-1.448-2.659-.973-.976.476-1.367 1.682-.874 2.694.494 1.013 1.685 1.448 2.66.972z"/><path d="m540.304 448.366c.975-.476 1.366-1.682.873-2.694s-1.684-1.447-2.66-.972c-.975.475-1.366 1.681-.873 2.694.493 1.012 1.684 1.447 2.66.972z"/><path d="m533.144 451.855c.976-.476 1.367-1.682.874-2.694-.494-1.012-1.684-1.448-2.66-.972-.976.475-1.367 1.681-.873 2.693.493 1.013 1.684 1.448 2.659.973z"/><path d="m525.985 455.344c.975-.475 1.366-1.681.873-2.693-.493-1.013-1.684-1.448-2.66-.973-.975.476-1.366 1.682-.873 2.694s1.684 1.448 2.66.972z"/><path d="m518.826 458.831c.975-.475 1.366-1.681.873-2.694-.493-1.012-1.684-1.447-2.66-.972-.975.476-1.366 1.682-.873 2.694s1.684 1.448 2.66.972z"/><path d="m604.156 417.251c.976-.476 1.367-1.682.873-2.694-.493-1.012-1.684-1.448-2.659-.972-.976.475-1.367 1.681-.874 2.694.494 1.012 1.685 1.447 2.66.972z"/><path d="m596.997 420.737c.975-.475 1.366-1.681.873-2.693-.493-1.013-1.684-1.448-2.66-.972-.975.475-1.366 1.681-.873 2.693.493 1.013 1.684 1.448 2.66.972z"/><path d="m589.837 424.224c.976-.476 1.367-1.682.874-2.694-.494-1.012-1.684-1.448-2.66-.972-.976.475-1.367 1.681-.873 2.693.493 1.013 1.684 1.448 2.659.973z"/></g><path d="m509.581 515.095-6.209-16.542h-.106c.053.546.097 1.286.132 2.22.035.916.053 1.876.053 2.88v11.442h-2.193v-18.867h3.514l5.814 15.458h.105l5.92-15.458h3.488v18.867h-2.352v-11.6c0-.916.017-1.824.053-2.722.053-.899.097-1.63.132-2.193h-.106l-6.289 16.515zm27.489 0-2.273-5.84h-7.478l-2.246 5.84h-2.405l7.372-18.947h2.141l7.346 18.947zm-5.101-13.662c-.052-.14-.14-.396-.264-.766-.123-.37-.246-.749-.37-1.136-.105-.405-.194-.714-.264-.925-.123.546-.264 1.083-.423 1.612-.158.511-.29.916-.396 1.215l-2.141 5.708h5.972zm22.955 13.662h-2.695l-4.995-8.192-5.073 8.192h-2.51l6.262-9.83-5.866-9.037h2.642l4.625 7.399 4.651-7.399h2.51l-5.84 8.984zm14.526-18.867c2.466 0 4.263.484 5.391 1.453 1.127.969 1.691 2.334 1.691 4.096 0 1.039-.238 2.017-.713 2.933-.458.899-1.242 1.63-2.352 2.193-1.092.564-2.581.846-4.466.846h-2.167v7.346h-2.378v-18.867zm-.211 2.034h-2.405v7.452h1.903c1.797 0 3.135-.29 4.016-.872.881-.581 1.322-1.568 1.322-2.959 0-1.216-.388-2.123-1.163-2.722s-2-.899-3.673-.899zm27.679 7.373c0 1.955-.335 3.664-1.004 5.127-.652 1.444-1.621 2.572-2.907 3.382s-2.88 1.215-4.783 1.215c-1.955 0-3.585-.405-4.888-1.215-1.286-.81-2.246-1.947-2.881-3.409-.634-1.462-.951-3.171-.951-5.126 0-1.938.317-3.629.951-5.074.635-1.445 1.595-2.572 2.881-3.382 1.303-.811 2.942-1.216 4.915-1.216 1.885 0 3.47.405 4.756 1.216 1.286.792 2.255 1.92 2.907 3.382.669 1.445 1.004 3.145 1.004 5.1zm-14.904 0c0 2.378.503 4.254 1.507 5.629 1.004 1.356 2.572 2.034 4.703 2.034 2.15 0 3.717-.678 4.704-2.034.987-1.375 1.48-3.251 1.48-5.629s-.493-4.237-1.48-5.576c-.987-1.356-2.546-2.034-4.677-2.034-2.132 0-3.709.678-4.73 2.034-1.004 1.339-1.507 3.198-1.507 5.576zm29.788 4.413c0 1.674-.608 2.977-1.823 3.911-1.216.934-2.854 1.4-4.915 1.4-1.057 0-2.035-.079-2.933-.237-.899-.159-1.648-.379-2.247-.661v-2.273c.635.282 1.419.538 2.352.767.952.229 1.929.343 2.933.343 1.41 0 2.467-.273 3.171-.819.723-.546 1.084-1.286 1.084-2.22 0-.616-.132-1.136-.397-1.559-.264-.422-.722-.81-1.374-1.162-.634-.37-1.523-.758-2.669-1.163-1.603-.581-2.818-1.295-3.646-2.14-.811-.846-1.216-2-1.216-3.462 0-1.004.256-1.859.767-2.563.51-.723 1.215-1.278 2.114-1.665.916-.388 1.964-.582 3.144-.582 1.04 0 1.991.097 2.854.291s1.647.449 2.352.766l-.74 2.035c-.652-.282-1.365-.519-2.14-.713-.758-.194-1.551-.291-2.379-.291-1.18 0-2.07.255-2.669.766-.599.494-.898 1.154-.898 1.982 0 .634.132 1.163.396 1.586.265.423.696.801 1.295 1.136s1.409.696 2.431 1.083c1.11.406 2.044.846 2.801 1.322.775.458 1.357 1.013 1.744 1.664.405.652.608 1.471.608 2.458zm14.503 0c0 1.674-.608 2.977-1.823 3.911-1.216.934-2.854 1.4-4.915 1.4-1.057 0-2.035-.079-2.934-.237-.898-.159-1.647-.379-2.246-.661v-2.273c.634.282 1.418.538 2.352.767.951.229 1.929.343 2.933.343 1.41 0 2.467-.273 3.171-.819.723-.546 1.084-1.286 1.084-2.22 0-.616-.132-1.136-.397-1.559-.264-.422-.722-.81-1.374-1.162-.634-.37-1.524-.758-2.669-1.163-1.603-.581-2.818-1.295-3.646-2.14-.811-.846-1.216-2-1.216-3.462 0-1.004.255-1.859.766-2.563.511-.723 1.216-1.278 2.114-1.665.916-.388 1.965-.582 3.145-.582 1.039 0 1.991.097 2.854.291s1.647.449 2.352.766l-.74 2.035c-.652-.282-1.366-.519-2.141-.713-.757-.194-1.55-.291-2.378-.291-1.18 0-2.07.255-2.669.766-.599.494-.898 1.154-.898 1.982 0 .634.132 1.163.396 1.586s.696.801 1.295 1.136 1.409.696 2.431 1.083c1.11.406 2.044.846 2.801 1.322.775.458 1.357 1.013 1.744 1.664.405.652.608 1.471.608 2.458zm9.112 5.047h-6.818v-1.374l2.22-.502v-15.089l-2.22-.528v-1.374h6.818v1.374l-2.22.528v15.089l2.22.502zm9.034-18.867c2.361 0 4.14.352 5.338 1.057 1.215.687 1.823 1.894 1.823 3.62 0 1.11-.308 2.035-.925 2.775-.616.722-1.506 1.189-2.669 1.4v.132c.793.124 1.506.353 2.141.687.651.335 1.162.811 1.532 1.427.37.617.555 1.418.555 2.405 0 1.709-.59 3.03-1.77 3.964-1.163.933-2.757 1.4-4.783 1.4h-6.633v-18.867zm.476 8.033c1.62 0 2.73-.256 3.329-.766.599-.529.899-1.304.899-2.326 0-1.039-.37-1.779-1.11-2.22-.723-.458-1.885-.687-3.488-.687h-3.119v5.999zm-3.489 1.982v6.844h3.806c1.673 0 2.836-.326 3.488-.978s.977-1.506.977-2.563c0-.987-.343-1.779-1.03-2.378-.67-.617-1.876-.925-3.62-.925zm14.809 8.852v-18.867h2.378v16.753h8.245v2.114zm24.401 0h-10.544v-18.867h10.544v2.087h-8.165v5.893h7.689v2.061h-7.689v6.739h8.165z" fill="#064f85"/><path d="m509.581 515.095-.182.069.048.126h.134zm-6.209-16.542.182-.068-.048-.126h-.134zm-.106 0v-.194h-.214l.02.213zm.132 2.22-.194.007zm.053 14.322v.195h.194v-.195zm-2.193 0h-.195v.195h.195zm0-18.867v-.195h-.195v.195zm3.514 0 .182-.069-.047-.126h-.135zm5.814 15.458-.182.069.047.126h.135zm.105 0v.195h.134l.048-.125zm5.92-15.458v-.195h-.134l-.048.125zm3.488 0h.194v-.195h-.194zm0 18.867v.195h.194v-.195zm-2.352 0h-.195v.195h.195zm.053-14.322-.195-.012v.004zm.132-2.193.194.012.013-.207h-.207zm-.106 0v-.195h-.134l-.048.125zm-6.289 16.515v.195h.134l.048-.126zm-1.773-.068-6.21-16.542-.365.137 6.21 16.542zm-6.392-16.668h-.106v.389h.106zm-.3.213c.053.54.096 1.276.132 2.208l.388-.015c-.035-.935-.079-1.679-.132-2.231zm.132 2.208c.035.914.052 1.871.052 2.873h.389c0-1.006-.017-1.969-.053-2.888zm.052 2.873v11.442h.389v-11.442zm.195 11.248h-2.193v.389h2.193zm-1.999.194v-18.867h-.389v18.867zm-.194-18.673h3.514v-.389h-3.514zm3.332-.126 5.814 15.459.364-.137-5.814-15.459zm5.996 15.585h.105v-.389h-.105zm.287-.125 5.919-15.459-.363-.139-5.919 15.459zm5.738-15.334h3.488v-.389h-3.488zm3.293-.194v18.867h.389v-18.867zm.195 18.673h-2.352v.389h2.352zm-2.158.194v-11.6h-.389v11.6zm0-11.6c0-.914.018-1.819.053-2.715l-.389-.015c-.035.901-.053 1.811-.053 2.73zm.053-2.711c.053-.898.097-1.629.132-2.192l-.388-.025c-.036.564-.08 1.296-.133 2.194zm-.062-2.399h-.106v.389h.106zm-.288.125-6.289 16.516.364.138 6.289-16.515zm-6.107 16.391h-1.956v.389h1.956zm25.533.194-.182.071.048.124h.134zm-2.273-5.84.181-.07-.048-.124h-.133zm-7.478 0v-.194h-.134l-.048.124zm-2.246 5.84v.195h.133l.048-.125zm-2.405 0-.181-.07-.104.265h.285zm7.372-18.947v-.194h-.133l-.048.124zm2.141 0 .181-.07-.048-.124h-.133zm7.346 18.947v.195h.284l-.103-.265zm-7.558-13.662.183-.067v-.001zm-.264-.766-.184.062zm-.37-1.136-.188.049.003.01zm-.264-.925.185-.062-.221-.662-.154.681zm-.423 1.612.186.058.001-.002zm-.396 1.215.182.069.001-.004zm-2.141 5.708-.182-.068-.098.263h.28zm5.972 0v.195h.28l-.097-.262zm3.168 7.884-2.273-5.84-.362.141 2.272 5.84zm-2.454-5.964h-7.478v.389h7.478zm-7.66.124-2.246 5.84.363.14 2.246-5.84zm-2.064 5.716h-2.405v.389h2.405zm-2.224.265 7.373-18.947-.363-.141-7.372 18.947zm7.191-18.823h2.141v-.389h-2.141zm1.959-.124 7.347 18.947.362-.141-7.346-18.947zm7.528 18.682h-2.457v.389h2.457zm-7.375-13.536c-.052-.137-.139-.389-.262-.759l-.369.123c.123.369.212.628.266.773zm-.262-.759c-.123-.369-.246-.747-.369-1.134l-.371.118c.123.388.247.768.371 1.139zm-.366-1.124c-.106-.407-.196-.72-.268-.938l-.37.123c.069.206.156.509.261.913zm-.643-.919c-.122.542-.262 1.075-.419 1.599l.373.112c.159-.533.302-1.075.426-1.625zm-.419 1.597c-.158.51-.289.913-.394 1.209l.367.129c.107-.303.24-.711.399-1.222zm-.392 1.205-2.141 5.708.365.137 2.14-5.708zm-1.959 5.971h5.972v-.389h-5.972zm6.155-.262-2.114-5.708-.365.135 2.114 5.708zm20.658 8.021v.195h.355l-.191-.299zm-2.695 0-.166.101.057.094h.109zm-4.995-8.192.167-.101-.165-.27-.167.269zm-5.073 8.192v.195h.108l.057-.092zm-2.51 0-.165-.104-.19.299h.355zm6.262-9.83.164.105.068-.106-.069-.105zm-5.866-9.037v-.195h-.358l.195.301zm2.642 0 .165-.103-.057-.092h-.108zm4.625 7.399-.165.103.164.263.165-.263zm4.651-7.399v-.195h-.108l-.057.091zm2.51 0 .163.106.195-.301h-.358zm-5.84 8.984-.163-.106-.068.105.067.106zm6.289 9.689h-2.695v.389h2.695zm-2.529.093-4.994-8.192-.333.203 4.995 8.191zm-5.326-8.193-5.074 8.192.331.205 5.074-8.192zm-4.908 8.1h-2.51v.389h2.51zm-2.346.299 6.262-9.83-.328-.209-6.263 9.83zm6.261-10.041-5.866-9.037-.326.212 5.866 9.037zm-6.029-8.737h2.642v-.389h-2.642zm2.477-.091 4.625 7.399.33-.206-4.625-7.399zm4.954 7.399 4.651-7.399-.329-.207-4.651 7.399zm4.487-7.308h2.51v-.389h-2.51zm2.347-.3-5.84 8.984.326.212 5.84-8.984zm-5.841 9.195 6.289 9.883.328-.209-6.289-9.883zm26.37-7.636-.127.148zm.978 7.029-.173-.089-.001.001zm-2.352 2.193-.088-.173-.001.001zm-6.633.846v-.195h-.195v.195zm0 7.346v.195h.195v-.195zm-2.378 0h-.195v.195h.195zm0-18.867v-.195h-.195v.195zm2.378 2.034v-.194h-.195v.194zm0 7.452h-.195v.195h.195zm5.919-.872.107.163zm.159-5.681.119-.154zm-3.462-2.739c2.448 0 4.189.483 5.264 1.407l.254-.295c-1.18-1.014-3.033-1.501-5.518-1.501zm5.264 1.407c1.076.925 1.623 2.231 1.623 3.948h.39c0-1.807-.581-3.231-1.759-4.243zm1.623 3.948c0 1.008-.23 1.955-.691 2.844l.345.179c.49-.944.736-1.953.736-3.023zm-.692 2.845c-.435.854-1.184 1.558-2.266 2.108l.176.347c1.138-.578 1.956-1.335 2.437-2.278zm-2.267 2.109c-1.054.543-2.508.823-4.377.823v.39c1.901 0 3.424-.284 4.555-.868zm-4.377.823h-2.167v.39h2.167zm-2.362.195v7.346h.39v-7.346zm.195 7.152h-2.378v.389h2.378zm-2.184.194v-18.867h-.389v18.867zm-.194-18.673h4.994v-.389h-4.994zm4.783 1.646h-2.405v.389h2.405zm-2.6.194v7.452h.39v-7.452zm.195 7.647h1.903v-.389h-1.903zm1.903 0c1.811 0 3.195-.292 4.123-.904l-.214-.325c-.834.55-2.127.84-3.909.84zm4.123-.904c.953-.629 1.409-1.688 1.409-3.122h-.389c0 1.349-.425 2.263-1.234 2.797zm1.409-3.122c0-1.26-.404-2.231-1.238-2.876l-.238.308c.716.553 1.087 1.396 1.087 2.568zm-1.238-2.876c-.826-.638-2.103-.939-3.792-.939v.389c1.658 0 2.83.298 3.554.858zm22.883 11.755-.177-.081zm-2.907 3.382-.103-.165zm-9.671 0-.104.165h.001zm-2.881-13.609.178.078zm2.881-3.382-.103-.166-.001.001zm9.671 0-.103.164.001.001zm2.907 3.382-.178.079.001.003zm-12.393 10.729-.157.114v.001zm9.407 0 .157.114.001-.001zm0-11.205-.157.115v.001zm-9.407 0-.156-.117v.001zm13.203 5.576c0 1.933-.331 3.614-.987 5.046l.354.161c.683-1.492 1.022-3.229 1.022-5.207zm-.987 5.046c-.637 1.412-1.581 2.509-2.833 3.298l.207.33c1.32-.832 2.314-1.99 2.98-3.467zm-2.833 3.298c-1.248.787-2.805 1.186-4.68 1.186v.389c1.93 0 3.563-.411 4.887-1.245zm-4.68 1.186c-1.929 0-3.52-.4-4.786-1.186l-.205.33c1.342.834 3.009 1.245 4.991 1.245zm-4.785-1.186c-1.251-.788-2.186-1.893-2.805-3.321l-.357.154c.649 1.497 1.634 2.664 2.955 3.497zm-2.805-3.321c-.622-1.433-.935-3.115-.935-5.049h-.39c0 1.976.321 3.712.968 5.203zm-.935-5.049c0-1.917.313-3.581.934-4.996l-.356-.156c-.647 1.474-.968 3.193-.968 5.152zm.934-4.996c.62-1.41 1.555-2.507 2.806-3.296l-.207-.329c-1.32.832-2.306 1.99-2.955 3.469zm2.805-3.295c1.266-.787 2.866-1.186 4.813-1.186v-.39c-1.999 0-3.676.411-5.018 1.245zm4.813-1.186c1.857 0 3.404.399 4.653 1.185l.207-.329c-1.324-.834-2.947-1.246-4.86-1.246zm4.654 1.186c1.251.771 2.194 1.868 2.831 3.296l.356-.158c-.667-1.496-1.661-2.654-2.983-3.469zm2.832 3.299c.656 1.414.987 3.085.987 5.018h.389c0-1.977-.339-3.706-1.022-5.182zm-13.917 5.018c0 2.404.507 4.325 1.544 5.743l.314-.229c-.972-1.33-1.469-3.161-1.469-5.514zm1.544 5.744c1.051 1.419 2.685 2.114 4.86 2.114v-.389c-2.088 0-3.589-.662-4.547-1.956zm4.86 2.114c2.192 0 3.828-.694 4.861-2.115l-.314-.229c-.94 1.292-2.44 1.955-4.547 1.955zm4.862-2.116c1.018-1.418 1.516-3.339 1.516-5.742h-.389c0 2.354-.488 4.185-1.443 5.515zm1.516-5.742c0-2.402-.498-4.307-1.517-5.691l-.314.231c.954 1.294 1.442 3.106 1.442 5.46zm-1.517-5.69c-1.033-1.42-2.659-2.115-4.834-2.115v.389c2.088 0 3.579.662 4.52 1.955zm-4.834-2.115c-2.176 0-3.818.695-4.886 2.112l.311.234c.976-1.295 2.487-1.957 4.575-1.957zm-4.886 2.113c-1.038 1.384-1.545 3.289-1.545 5.692h.389c0-2.353.497-4.165 1.467-5.459zm26.614 14.016-.119-.154zm-7.848 1.163.033-.192zm-2.247-.661h-.194v.123l.112.053zm0-2.273.079-.177-.273-.122v.299zm2.352.767-.046.189h.001zm6.104-.476-.117-.155-.002.001zm.687-3.779-.165.103zm-1.374-1.162-.098.168.006.003zm-2.669-1.163-.066.183h.002zm-3.646-2.14-.141.134.002.002zm-.449-6.025.157.114.001-.002zm2.114-1.665-.076-.179h-.002zm5.998-.291.043-.19zm2.352.766.183.067.061-.17-.164-.074zm-.74 2.035-.077.179.189.082.071-.194zm-2.14-.713-.049.188h.001zm-5.048.475.124.151.003-.003zm-.502 3.568.165-.103zm1.295 1.136-.095.17zm2.431 1.083-.069.182.002.001zm2.801 1.322-.103.165.004.002zm1.744 1.664-.167.1.002.003zm.414 2.458c0 1.62-.585 2.864-1.748 3.757l.237.308c1.269-.974 1.9-2.337 1.9-4.065zm-1.748 3.757c-1.171.9-2.763 1.36-4.796 1.36v.389c2.089 0 3.774-.473 5.033-1.441zm-4.796 1.36c-1.048 0-2.014-.079-2.9-.235l-.067.383c.911.161 1.9.241 2.967.241zm-2.9-.235c-.887-.157-1.618-.373-2.197-.645l-.165.352c.619.291 1.385.516 2.295.676zm-2.085-.469v-2.273h-.389v2.273zm-.274-2.095c.648.288 1.444.547 2.385.778l.093-.378c-.927-.227-1.699-.48-2.32-.755zm2.386.778c.966.233 1.959.349 2.978.349v-.389c-.989 0-1.951-.113-2.887-.338zm2.978.349c1.429 0 2.537-.276 3.291-.86l-.239-.308c-.656.509-1.662.779-3.052.779zm3.289-.859c.772-.584 1.16-1.382 1.16-2.375h-.389c0 .875-.334 1.557-1.006 2.065zm1.16-2.375c0-.644-.138-1.201-.426-1.662l-.33.206c.241.386.367.868.367 1.456zm-.426-1.662c-.288-.462-.778-.869-1.446-1.231l-.185.343c.635.343 1.062.711 1.301 1.094zm-1.441-1.227c-.649-.379-1.552-.771-2.702-1.178l-.129.366c1.14.404 2.016.787 2.635 1.148zm-2.7-1.178c-1.587-.575-2.774-1.276-3.574-2.094l-.278.273c.855.873 2.1 1.6 3.719 2.187zm-3.573-2.092c-.767-.801-1.161-1.902-1.161-3.327h-.389c0 1.499.416 2.706 1.269 3.596zm-1.161-3.327c0-.97.246-1.783.729-2.449l-.315-.229c-.539.743-.803 1.639-.803 2.678zm.73-2.451c.488-.69 1.163-1.224 2.033-1.599l-.155-.357c-.927.4-1.662.977-2.195 1.731zm2.031-1.598c.888-.376 1.91-.566 3.069-.566v-.389c-1.201 0-2.276.197-3.22.597zm3.069-.566c1.028 0 1.964.096 2.811.286l.086-.38c-.88-.197-1.846-.295-2.897-.295zm2.811.286c.853.191 1.624.443 2.315.754l.16-.355c-.719-.323-1.515-.582-2.389-.779zm2.212.51-.74 2.035.366.133.74-2.035zm-.48 1.923c-.662-.287-1.386-.528-2.17-.724l-.095.377c.766.192 1.47.427 2.111.704zm-2.169-.724c-.774-.198-1.583-.297-2.427-.297v.39c.813 0 1.589.095 2.33.284zm-2.427-.297c-1.204 0-2.147.261-2.795.813l.253.296c.549-.469 1.386-.719 2.542-.719zm-2.792.811c-.648.533-.97 1.251-.97 2.132h.389c0-.774.277-1.378.828-1.831zm-.97 2.132c0 .661.138 1.228.426 1.689l.33-.206c-.24-.385-.367-.875-.367-1.483zm.426 1.689c.287.459.748.858 1.365 1.203l.19-.34c-.581-.324-.983-.683-1.225-1.069zm1.365 1.203c.611.341 1.431.706 2.457 1.095l.138-.363c-1.017-.386-1.818-.744-2.405-1.072zm2.459 1.096c1.101.402 2.022.837 2.765 1.303l.207-.329c-.772-.485-1.719-.931-2.838-1.339zm2.769 1.306c.753.445 1.308.978 1.676 1.597l.335-.199c-.408-.685-1.015-1.261-1.813-1.733zm1.678 1.6c.381.614.579 1.395.579 2.355h.389c0-1.013-.208-1.87-.637-2.56zm13.453 6.266-.119-.154zm-7.849 1.163.034-.192zm-2.246-.661h-.194v.123l.111.053zm0-2.273.079-.177-.273-.122v.299zm2.352.767-.046.189zm6.104-.476-.117-.155-.002.001zm.687-3.779-.165.103zm-1.374-1.162-.098.168.006.003zm-2.669-1.163-.066.183h.001zm-3.646-2.14-.141.134.002.002zm-.45-6.025.158.114.001-.002zm2.114-1.665-.075-.179h-.002zm5.999-.291.042-.19zm2.352.766.183.067.061-.17-.164-.074zm-.74 2.035-.077.179.189.082.071-.194zm-2.141-.713-.048.188h.001zm-5.047.475.124.151.002-.003zm-.502 3.568.165-.103zm1.295 1.136-.095.17zm2.431 1.083-.069.182.002.001zm2.801 1.322-.103.165.004.002zm1.744 1.664-.167.1.002.003zm.413 2.458c0 1.62-.584 2.864-1.747 3.757l.237.308c1.268-.974 1.899-2.337 1.899-4.065zm-1.747 3.757c-1.171.9-2.764 1.36-4.796 1.36v.389c2.089 0 3.774-.473 5.033-1.441zm-4.796 1.36c-1.048 0-2.014-.079-2.9-.235l-.067.383c.911.161 1.9.241 2.967.241zm-2.9-.235c-.887-.157-1.618-.373-2.197-.645l-.166.352c.62.291 1.386.516 2.296.676zm-2.085-.469v-2.273h-.389v2.273zm-.274-2.095c.648.288 1.444.547 2.385.778l.092-.378c-.926-.227-1.698-.48-2.319-.755zm2.385.778c.967.233 1.96.349 2.979.349v-.389c-.989 0-1.951-.113-2.887-.338zm2.979.349c1.429 0 2.537-.276 3.29-.86l-.238-.308c-.656.509-1.662.779-3.052.779zm3.289-.859c.772-.584 1.16-1.382 1.16-2.375h-.389c0 .875-.334 1.557-1.006 2.065zm1.16-2.375c0-.644-.138-1.201-.426-1.662l-.33.206c.241.386.367.868.367 1.456zm-.426-1.662c-.288-.462-.778-.869-1.446-1.231l-.185.343c.635.343 1.062.711 1.301 1.094zm-1.441-1.227c-.649-.379-1.552-.771-2.702-1.178l-.13.366c1.14.404 2.017.787 2.636 1.148zm-2.7-1.178c-1.587-.575-2.774-1.276-3.574-2.094l-.278.273c.855.873 2.1 1.6 3.719 2.187zm-3.573-2.092c-.768-.801-1.161-1.902-1.161-3.327h-.39c0 1.499.417 2.706 1.27 3.596zm-1.161-3.327c0-.97.246-1.783.729-2.449l-.315-.229c-.539.743-.804 1.639-.804 2.678zm.73-2.451c.488-.69 1.163-1.224 2.032-1.599l-.154-.357c-.927.4-1.662.977-2.195 1.731zm2.031-1.598c.888-.376 1.91-.566 3.069-.566v-.389c-1.202 0-2.276.197-3.22.597zm3.069-.566c1.027 0 1.964.096 2.811.286l.085-.38c-.879-.197-1.845-.295-2.896-.295zm2.811.286c.852.191 1.624.443 2.315.754l.16-.355c-.719-.323-1.515-.582-2.39-.779zm2.212.51-.74 2.035.366.133.74-2.035zm-.48 1.923c-.663-.287-1.386-.528-2.17-.724l-.095.377c.766.192 1.47.427 2.111.704zm-2.169-.724c-.775-.198-1.584-.297-2.427-.297v.39c.813 0 1.589.095 2.33.284zm-2.427-.297c-1.204 0-2.147.261-2.795.813l.252.296c.55-.469 1.387-.719 2.543-.719zm-2.793.811c-.647.533-.969 1.251-.969 2.132h.389c0-.774.277-1.378.828-1.831zm-.969 2.132c0 .661.138 1.228.426 1.689l.33-.206c-.24-.385-.367-.875-.367-1.483zm.426 1.689c.287.459.748.858 1.365 1.203l.19-.34c-.581-.324-.983-.683-1.225-1.069zm1.365 1.203c.611.341 1.431.706 2.457 1.095l.138-.363c-1.017-.386-1.818-.744-2.405-1.072zm2.459 1.096c1.101.402 2.022.837 2.765 1.303l.207-.329c-.773-.485-1.719-.931-2.838-1.339zm2.769 1.306c.752.445 1.308.978 1.676 1.597l.334-.199c-.407-.685-1.014-1.261-1.812-1.733zm1.678 1.6c.381.614.578 1.395.578 2.355h.389c0-1.013-.208-1.87-.637-2.56zm9.885 7.402v.195h.195v-.195zm-6.818 0h-.194v.195h.194zm0-1.374-.043-.19-.151.035v.155zm2.22-.502.043.19.152-.034v-.156zm0-15.089h.195v-.153l-.15-.036zm-2.22-.528h-.194v.153l.149.036zm0-1.374v-.195h-.194v.195zm6.818 0h.195v-.195h-.195zm0 1.374.045.189.15-.036v-.153zm-2.22.528-.045-.189-.149.036v.153zm0 15.089h-.194v.156l.151.034zm2.22.502h.195v-.155l-.152-.035zm0 1.18h-6.818v.389h6.818zm-6.623.194v-1.374h-.389v1.374zm-.152-1.184 2.22-.502-.086-.38-2.22.502zm2.372-.692v-15.089h-.39v15.089zm-.15-15.278-2.22-.528-.09.378 2.22.529zm-2.07-.339v-1.374h-.389v1.374zm-.195-1.18h6.818v-.389h-6.818zm6.623-.194v1.374h.39v-1.374zm.15 1.185-2.22.528.09.379 2.22-.529zm-2.369.717v15.089h.389v-15.089zm.151 15.279 2.22.502.086-.38-2.22-.502zm2.068.312v1.374h.39v-1.374zm14.567-16.436-.099.167.003.002zm.898 6.395.148.126.002-.002zm-2.669 1.4-.035-.191-.159.029v.162zm0 .132h-.194v.167l.164.025zm2.141.687-.091.172.002.001zm1.532 1.427.167-.1zm-1.215 6.369-.121-.153-.001.001zm-11.416 1.4h-.194v.195h.194zm0-18.867v-.195h-.194v.195zm9.196 7.267.126.148.003-.003zm-.211-4.546-.105.165.005.003zm-6.607-.687v-.194h-.194v.194zm0 5.999h-.194v.194h.194zm0 1.982v-.195h-.194v.195zm0 6.844h-.194v.194h.194zm7.294-.978.137.138zm-.053-4.941-.132.143.004.003zm-4.228-10.746c2.347 0 4.085.352 5.239 1.03l.197-.335c-1.242-.731-3.062-1.084-5.436-1.084zm5.242 1.032c1.139.644 1.724 1.775 1.724 3.451h.39c0-1.777-.631-3.059-1.923-3.79zm1.724 3.451c0 1.072-.296 1.95-.879 2.65l.299.249c.65-.78.97-1.751.97-2.899zm-.878 2.648c-.581.681-1.426 1.13-2.556 1.336l.07.383c1.196-.218 2.13-.702 2.782-1.466zm-2.715 1.527v.132h.389v-.132zm.164.324c.774.121 1.467.344 2.08.667l.181-.344c-.655-.346-1.389-.581-2.201-.707zm2.082.668c.62.319 1.104.769 1.454 1.354l.334-.2c-.389-.648-.927-1.149-1.61-1.5zm1.454 1.354c.347.577.528 1.341.528 2.305h.389c0-1.009-.189-1.849-.583-2.505zm.528 2.305c0 1.658-.57 2.92-1.697 3.811l.241.305c1.234-.976 1.845-2.357 1.845-4.116zm-1.698 3.812c-1.118.897-2.664 1.358-4.661 1.358v.389c2.054 0 3.697-.474 4.905-1.444zm-4.661 1.358h-6.633v.389h6.633zm-6.438.194v-18.867h-.389v18.867zm-.195-18.673h5.391v-.389h-5.391zm5.867 8.033c1.626 0 2.799-.253 3.455-.812l-.252-.296c-.542.462-1.588.719-3.203.719zm3.458-.815c.652-.575.964-1.41.964-2.471h-.389c0 .983-.287 1.698-.833 2.18zm.964-2.471c0-1.091-.393-1.903-1.205-2.387l-.199.335c.668.397 1.015 1.065 1.015 2.052zm-1.2-2.384c-.771-.488-1.98-.717-3.592-.717v.389c1.593 0 2.709.229 3.383.657zm-3.592-.717h-3.119v.389h3.119zm-3.313.194v5.999h.389v-5.999zm.194 6.193h3.489v-.389h-3.489zm-.194 1.788v6.844h.389v-6.844zm.194 7.038h3.806v-.389h-3.806zm3.806 0c1.687 0 2.917-.326 3.625-1.034l-.275-.275c-.595.595-1.69.92-3.35.92zm3.625-1.034c.694-.694 1.035-1.601 1.035-2.701h-.389c0 1.014-.311 1.816-.921 2.426zm1.035-2.701c0-1.038-.364-1.886-1.097-2.525l-.256.293c.641.559.964 1.296.964 2.232zm-1.093-2.521c-.727-.669-1.999-.977-3.752-.977v.389c1.734 0 2.876.31 3.488.874zm-3.752-.977h-3.621v.389h3.621zm11.188 9.047h-.195v.195h.195zm0-18.867v-.195h-.195v.195zm2.378 0h.195v-.195h-.195zm0 16.753h-.195v.195h.195zm8.245 0h.194v-.194h-.194zm0 2.114v.195h.194v-.195zm-10.429 0v-18.867h-.389v18.867zm-.194-18.673h2.378v-.389h-2.378zm2.183-.194v16.753h.39v-16.753zm.195 16.948h8.245v-.389h-8.245zm8.05-.195v2.114h.389v-2.114zm.195 1.92h-10.623v.389h10.623zm13.778.194v.195h.195v-.195zm-10.544 0h-.194v.195h.194zm0-18.867v-.195h-.194v.195zm10.544 0h.195v-.195h-.195zm0 2.087v.195h.195v-.195zm-8.165 0v-.194h-.195v.194zm0 5.893h-.195v.195h.195zm7.689 0h.195v-.194h-.195zm0 2.061v.195h.195v-.195zm-7.689 0v-.194h-.195v.194zm0 6.739h-.195v.194h.195zm8.165 0h.195v-.195h-.195zm0 1.893h-10.544v.389h10.544zm-10.349.194v-18.867h-.389v18.867zm-.195-18.673h10.544v-.389h-10.544zm10.349-.194v2.087h.39v-2.087zm.195 1.893h-8.165v.389h8.165zm-8.36.194v5.893h.389v-5.893zm.195 6.088h7.689v-.389h-7.689zm7.495-.195v2.061h.389v-2.061zm.194 1.867h-7.689v.389h7.689zm-7.884.194v6.739h.389v-6.739zm.195 6.933h8.165v-.389h-8.165zm7.97-.194v2.087h.39v-2.087z" fill="#064f85"/><path d="m860.445 97.1946h-143.047l-71.498 123.8594-71.524-123.8594h-143.022l-71.498 123.8594-71.524-123.8594h-143.021l143.021 247.7444-143.021 247.718h143.021l71.524-123.859 71.498 123.859h143.022l-143.022-247.718 71.524-123.885 143.022 247.744 143.021-247.744 71.524 123.885 71.498-123.885z" fill="#3b3835" fill-opacity=".05"/></svg>