<svg width="340" height="260" viewBox="0 0 340 260" fill="none" xmlns="http://www.w3.org/2000/svg">
<rect width="340" height="260" rx="7.68362" fill="#FAFAFA"/>
<path fill-rule="evenodd" clip-rule="evenodd" d="M26.6788 94.9231L20 98.779C22.1296 102.468 26.8462 103.731 30.5348 101.602C33.6954 99.777 35.0757 96.0527 34.0663 92.7034C35.7948 95.2706 38.3023 97.2698 41.2499 98.3623L48.5214 132.04L41.7899 161.216C31.4505 163.045 23.5973 172.075 23.5973 182.939C23.5973 195.123 33.4743 205 45.6581 205C57.842 205 67.719 195.123 67.719 182.939C67.719 177.391 65.6711 172.322 62.29 168.445L76.2344 140.079L78.5529 140.079L78.5529 145.793C78.5529 146.725 79.3086 147.481 80.2408 147.481L92.3717 147.481C93.3039 147.481 94.0596 146.725 94.0596 145.793L94.0596 119.313C94.0596 118.381 93.3039 117.625 92.3717 117.625L80.2408 117.625C79.3086 117.625 78.5529 118.381 78.5529 119.313L78.5529 125.027L76.7865 125.027L62.2132 94.9633L62.2334 94.9749L62.2335 94.9748L65.1163 96.6392L71.7951 100.495C73.9247 96.8066 72.6609 92.09 68.9723 89.9604C66.0872 88.2947 62.5732 88.705 60.1601 90.7279L60.0271 90.4535C60.6728 89.0047 61.0939 87.4338 61.2461 85.7849L72.9708 85.7849C73.5989 85.7849 74.108 85.2758 74.108 84.6478C74.108 84.0197 73.5989 83.5106 72.9708 83.5106L61.2836 83.5106C60.8343 75.8803 54.6376 69.7951 46.961 69.5226L46.961 62.6382L46.961 54.9262C42.7018 54.9262 39.249 58.379 39.249 62.6382C39.249 65.8144 41.1691 68.5422 43.9119 69.724C37.1709 70.8693 31.9731 76.5463 31.563 83.5106L29.7588 83.5106C29.309 83.5106 28.9202 83.7718 28.7357 84.1508L21.8811 84.1508C21.6071 84.1508 21.3849 84.373 21.3849 84.6471C21.3849 84.9211 21.6071 85.1433 21.8811 85.1433L28.735 85.1433C28.9192 85.5231 29.3084 85.7849 29.7588 85.7849L31.6005 85.7849C31.7784 87.7123 32.3237 89.5333 33.1657 91.1771L29.5614 93.258L29.5617 93.2586L26.6788 94.9231Z" fill="#DCE0E9"/>
<circle cx="63.4599" cy="132.614" r="10.685" transform="rotate(-90 63.4599 132.614)" fill="#DCE0E9" stroke="#FAFAFA" stroke-width="1.45583"/>
<circle cx="64.639" cy="108.114" r="0.51689" transform="rotate(-90 64.639 108.114)" fill="#FF1744"/>
<circle cx="64.6388" cy="108.114" r="0.721528" transform="rotate(-90 64.6388 108.114)" stroke="black" stroke-width="0.21099"/>
<circle cx="63.8945" cy="106.067" r="0.721528" transform="rotate(-90 63.8945 106.067)" stroke="black" stroke-width="0.21099"/>
<circle cx="62.8605" cy="103.896" r="1.07301" transform="rotate(-90 62.8605 103.896)" stroke="black" stroke-width="0.21099"/>
<circle cx="62.0338" cy="101.766" r="0.721528" transform="rotate(-90 62.0338 101.766)" stroke="black" stroke-width="0.21099"/>
<circle cx="65.7585" cy="105.485" r="7.98494" transform="rotate(90 65.7585 105.485)" stroke="#4B4D4E"/>
<path d="M73.2734 105L170.273 105" stroke="#4B4D4E"/>
<circle cx="209" cy="130" r="109.214" fill="#FAFAFA" stroke="#4B4D4E" stroke-width="1.57142"/>
<path d="M116.986 85.006H120.842C121.717 85.006 122.456 85.1393 123.059 85.406C123.667 85.6727 124.128 86.0674 124.443 86.5901C124.763 87.1075 124.923 87.7449 124.923 88.5022C124.923 89.0356 124.813 89.5237 124.595 89.9664C124.381 90.4037 124.072 90.7771 123.667 91.0865C123.267 91.3905 122.787 91.6172 122.227 91.7665L121.795 91.9345H118.17L118.154 90.6784H120.89C121.445 90.6784 121.907 90.5824 122.275 90.3904C122.643 90.193 122.92 89.929 123.107 89.5983C123.293 89.2676 123.387 88.9023 123.387 88.5022C123.387 88.0542 123.299 87.6622 123.123 87.3262C122.947 86.9901 122.669 86.7314 122.291 86.5501C121.917 86.3634 121.434 86.2701 120.842 86.2701H118.53V96.6549H116.986V85.006ZM123.795 96.6549L120.962 91.3745L122.571 91.3665L125.443 96.5589V96.6549H123.795ZM130.451 96.8149C129.848 96.8149 129.302 96.7136 128.811 96.5109C128.326 96.3029 127.907 96.0122 127.555 95.6388C127.208 95.2655 126.942 94.8227 126.755 94.3107C126.568 93.7987 126.475 93.2386 126.475 92.6306V92.2945C126.475 91.5905 126.579 90.9638 126.787 90.4144C126.995 89.8597 127.278 89.3903 127.635 89.0063C127.992 88.6223 128.398 88.3316 128.851 88.1342C129.304 87.9369 129.774 87.8382 130.259 87.8382C130.878 87.8382 131.411 87.9449 131.859 88.1582C132.313 88.3716 132.683 88.6703 132.971 89.0543C133.259 89.433 133.473 89.881 133.611 90.3984C133.75 90.9104 133.819 91.4705 133.819 92.0785V92.7426H127.355V91.5345H132.339V91.4225C132.318 91.0384 132.238 90.6651 132.099 90.3024C131.966 89.9397 131.753 89.641 131.459 89.4063C131.166 89.1716 130.766 89.0543 130.259 89.0543C129.923 89.0543 129.614 89.1263 129.331 89.2703C129.048 89.409 128.806 89.617 128.603 89.8944C128.4 90.1717 128.243 90.5104 128.131 90.9104C128.019 91.3105 127.963 91.7718 127.963 92.2945V92.6306C127.963 93.0413 128.019 93.428 128.131 93.7907C128.248 94.148 128.416 94.4627 128.635 94.7347C128.859 95.0068 129.128 95.2201 129.443 95.3748C129.763 95.5295 130.126 95.6068 130.531 95.6068C131.054 95.6068 131.497 95.5001 131.859 95.2868C132.222 95.0734 132.539 94.7881 132.811 94.4307L133.707 95.1428C133.521 95.4255 133.283 95.6948 132.995 95.9508C132.707 96.2069 132.353 96.4149 131.931 96.5749C131.515 96.7349 131.022 96.8149 130.451 96.8149ZM141.004 94.9748V84.3659H142.492V96.6549H141.132L141.004 94.9748ZM135.18 92.4226V92.2545C135.18 91.5932 135.26 90.9931 135.42 90.4544C135.585 89.9104 135.817 89.4437 136.116 89.0543C136.42 88.6649 136.78 88.3662 137.196 88.1582C137.617 87.9449 138.086 87.8382 138.604 87.8382C139.148 87.8382 139.623 87.9342 140.028 88.1262C140.439 88.3129 140.785 88.5876 141.068 88.9503C141.356 89.3076 141.583 89.7397 141.748 90.2464C141.913 90.7531 142.028 91.3265 142.092 91.9665V92.7026C142.033 93.3373 141.919 93.908 141.748 94.4147C141.583 94.9214 141.356 95.3535 141.068 95.7108C140.785 96.0682 140.439 96.3429 140.028 96.5349C139.617 96.7216 139.137 96.8149 138.588 96.8149C138.081 96.8149 137.617 96.7056 137.196 96.4869C136.78 96.2682 136.42 95.9615 136.116 95.5668C135.817 95.1721 135.585 94.7081 135.42 94.1747C135.26 93.636 135.18 93.0519 135.18 92.4226ZM136.668 92.2545V92.4226C136.668 92.8546 136.71 93.26 136.796 93.6387C136.886 94.0174 137.025 94.3507 137.212 94.6387C137.398 94.9268 137.636 95.1534 137.924 95.3188C138.212 95.4788 138.556 95.5588 138.956 95.5588C139.447 95.5588 139.849 95.4548 140.164 95.2468C140.484 95.0388 140.74 94.7641 140.932 94.4227C141.124 94.0814 141.273 93.7107 141.38 93.3106V91.3825C141.316 91.0891 141.223 90.8064 141.1 90.5344C140.983 90.2571 140.828 90.0117 140.636 89.7983C140.449 89.5797 140.217 89.4063 139.94 89.2783C139.668 89.1503 139.345 89.0863 138.972 89.0863C138.567 89.0863 138.217 89.1716 137.924 89.3423C137.636 89.5077 137.398 89.737 137.212 90.0304C137.025 90.3184 136.886 90.6544 136.796 91.0384C136.71 91.4171 136.668 91.8225 136.668 92.2545ZM156.149 95.3988V96.6549H150.325V95.3988H156.149ZM150.629 85.006V96.6549H149.085V85.006H150.629ZM165.318 95.3988V96.6549H159.149V95.3988H165.318ZM159.462 85.006V96.6549H157.917V85.006H159.462ZM164.502 90.0144V91.2705H159.149V90.0144H164.502ZM165.238 85.006V86.2701H159.149V85.006H165.238ZM170.382 96.6549H167.95L167.966 95.3988H170.382C171.214 95.3988 171.908 95.2254 172.463 94.8788C173.017 94.5267 173.433 94.036 173.711 93.4066C173.993 92.7719 174.135 92.0305 174.135 91.1825V90.4704C174.135 89.8037 174.055 89.2116 173.895 88.6943C173.735 88.1716 173.5 87.7315 173.191 87.3742C172.881 87.0115 172.503 86.7368 172.055 86.5501C171.612 86.3634 171.102 86.2701 170.526 86.2701H167.902V85.006H170.526C171.289 85.006 171.985 85.134 172.615 85.39C173.244 85.6407 173.785 86.006 174.239 86.4861C174.697 86.9608 175.049 87.5368 175.295 88.2142C175.54 88.8863 175.663 89.6437 175.663 90.4864V91.1825C175.663 92.0252 175.54 92.7853 175.295 93.4626C175.049 94.1347 174.695 94.7081 174.231 95.1828C173.772 95.6575 173.217 96.0228 172.567 96.2789C171.921 96.5296 171.193 96.6549 170.382 96.6549ZM168.774 85.006V96.6549H167.23V85.006H168.774Z" fill="#4B4D4E"/>
<path d="M195.903 84.6114H200.248C201.138 84.6114 201.904 84.7447 202.544 85.0114C203.189 85.2781 203.685 85.6728 204.032 86.1955C204.379 86.7182 204.552 87.3609 204.552 88.1236C204.552 88.7477 204.445 89.2837 204.232 89.7318C204.024 90.1745 203.728 90.5452 203.344 90.8439C202.965 91.1372 202.52 91.3719 202.008 91.5479L201.248 91.9479H197.471L197.455 90.0758H200.264C200.685 90.0758 201.034 90.0011 201.312 89.8518C201.589 89.7024 201.797 89.4944 201.936 89.2277C202.08 88.961 202.152 88.6517 202.152 88.2997C202.152 87.9263 202.082 87.6036 201.944 87.3316C201.805 87.0596 201.594 86.8515 201.312 86.7075C201.029 86.5635 200.674 86.4915 200.248 86.4915H198.303V96.2603H195.903V84.6114ZM202.416 96.2603L199.76 91.0679L202.296 91.0519L204.984 96.1483V96.2603H202.416ZM214.217 94.3881V96.2603H208.016V94.3881H214.217ZM208.8 84.6114V96.2603H206.4V84.6114H208.8ZM213.409 89.3557V91.1799H208.016V89.3557H213.409ZM214.209 84.6114V86.4915H208.016V84.6114H214.209ZM221.681 93.212C221.681 93.004 221.649 92.8173 221.585 92.652C221.527 92.4813 221.415 92.3266 221.249 92.188C221.084 92.044 220.852 91.9026 220.553 91.7639C220.255 91.6253 219.868 91.4812 219.393 91.3319C218.865 91.1612 218.364 90.9692 217.889 90.7559C217.42 90.5425 217.004 90.2945 216.641 90.0118C216.284 89.7238 216.001 89.3904 215.793 89.0117C215.59 88.633 215.489 88.193 215.489 87.6916C215.489 87.2062 215.595 86.7662 215.809 86.3715C216.022 85.9715 216.321 85.6301 216.705 85.3474C217.089 85.0594 217.542 84.838 218.065 84.6834C218.593 84.5287 219.172 84.4513 219.801 84.4513C220.66 84.4513 221.409 84.606 222.049 84.9154C222.689 85.2247 223.185 85.6488 223.537 86.1875C223.895 86.7262 224.073 87.3422 224.073 88.0356H221.689C221.689 87.6943 221.617 87.3956 221.473 87.1396C221.335 86.8782 221.121 86.6729 220.833 86.5235C220.551 86.3742 220.193 86.2995 219.761 86.2995C219.345 86.2995 218.998 86.3635 218.721 86.4915C218.444 86.6142 218.236 86.7822 218.097 86.9956C217.958 87.2036 217.889 87.4383 217.889 87.6996C217.889 87.897 217.937 88.0756 218.033 88.2357C218.134 88.3957 218.284 88.545 218.481 88.6837C218.678 88.8224 218.921 88.953 219.209 89.0757C219.497 89.1984 219.83 89.3184 220.209 89.4357C220.844 89.6278 221.401 89.8438 221.881 90.0838C222.367 90.3238 222.772 90.5932 223.097 90.8919C223.423 91.1906 223.668 91.5292 223.833 91.9079C223.999 92.2866 224.081 92.716 224.081 93.196C224.081 93.7028 223.983 94.1561 223.785 94.5562C223.588 94.9562 223.303 95.2949 222.929 95.5722C222.556 95.8496 222.111 96.0603 221.593 96.2043C221.076 96.3483 220.497 96.4203 219.857 96.4203C219.281 96.4203 218.713 96.3456 218.153 96.1963C217.593 96.0416 217.084 95.8096 216.625 95.5002C216.172 95.1909 215.809 94.7962 215.537 94.3161C215.265 93.8361 215.129 93.2681 215.129 92.612H217.537C217.537 92.9747 217.593 93.2814 217.705 93.5321C217.817 93.7828 217.974 93.9854 218.177 94.1401C218.385 94.2948 218.63 94.4068 218.913 94.4761C219.201 94.5455 219.516 94.5802 219.857 94.5802C220.273 94.5802 220.615 94.5215 220.881 94.4041C221.153 94.2868 221.353 94.1241 221.481 93.9161C221.615 93.7081 221.681 93.4734 221.681 93.212ZM233.53 94.3881V96.2603H227.33V94.3881H233.53ZM228.114 84.6114V96.2603H225.714V84.6114H228.114ZM232.722 89.3557V91.1799H227.33V89.3557H232.722ZM233.522 84.6114V86.4915H227.33V84.6114H233.522ZM240.299 84.6114V96.2603H237.907V84.6114H240.299ZM243.883 84.6114V86.4915H234.378V84.6114H243.883ZM248.755 83.9713H251.06V94.2761L250.828 96.2603H248.755V83.9713ZM256.54 91.8439V92.012C256.54 92.6573 256.471 93.2494 256.332 93.7881C256.199 94.3268 255.991 94.7935 255.708 95.1882C255.425 95.5776 255.073 95.8816 254.652 96.1003C254.236 96.3136 253.745 96.4203 253.18 96.4203C252.652 96.4203 252.193 96.3136 251.804 96.1003C251.42 95.8869 251.097 95.5856 250.836 95.1962C250.574 94.8068 250.364 94.3508 250.204 93.8281C250.044 93.3054 249.924 92.7347 249.844 92.116V91.7479C249.924 91.1292 250.044 90.5585 250.204 90.0358C250.364 89.5131 250.574 89.057 250.836 88.6677C251.097 88.2783 251.42 87.977 251.804 87.7636C252.188 87.5503 252.641 87.4436 253.164 87.4436C253.735 87.4436 254.231 87.5529 254.652 87.7716C255.079 87.985 255.431 88.289 255.708 88.6837C255.991 89.0731 256.199 89.5371 256.332 90.0758C256.471 90.6092 256.54 91.1986 256.54 91.8439ZM254.236 92.012V91.8439C254.236 91.4919 254.209 91.1612 254.156 90.8519C254.108 90.5372 254.023 90.2625 253.9 90.0278C253.777 89.7878 253.609 89.5984 253.396 89.4597C253.188 89.3211 252.918 89.2517 252.588 89.2517C252.273 89.2517 252.006 89.3051 251.788 89.4117C251.569 89.5184 251.388 89.6678 251.244 89.8598C251.105 90.0518 251.001 90.2811 250.932 90.5478C250.862 90.8092 250.82 91.0972 250.804 91.4119V92.46C250.82 92.8814 250.889 93.2547 251.012 93.5801C251.14 93.9001 251.332 94.1535 251.588 94.3401C251.849 94.5215 252.188 94.6122 252.604 94.6122C252.929 94.6122 253.198 94.5482 253.412 94.4201C253.625 94.2921 253.791 94.1108 253.908 93.8761C254.031 93.6414 254.116 93.3667 254.164 93.052C254.212 92.732 254.236 92.3853 254.236 92.012ZM263.093 94.1881V87.6036H265.397V96.2603H263.229L263.093 94.1881ZM263.349 92.412L264.029 92.396C264.029 92.972 263.962 93.5081 263.829 94.0041C263.695 94.4948 263.495 94.9215 263.229 95.2842C262.962 95.6416 262.626 95.9216 262.221 96.1243C261.815 96.3216 261.338 96.4203 260.788 96.4203C260.367 96.4203 259.978 96.3616 259.62 96.2443C259.268 96.1216 258.964 95.9323 258.708 95.6762C258.458 95.4149 258.26 95.0815 258.116 94.6762C257.978 94.2655 257.908 93.7721 257.908 93.196V87.6036H260.212V93.212C260.212 93.4681 260.242 93.6841 260.3 93.8601C260.364 94.0361 260.452 94.1801 260.564 94.2921C260.676 94.4041 260.807 94.4841 260.956 94.5322C261.111 94.5802 261.282 94.6042 261.468 94.6042C261.943 94.6042 262.317 94.5082 262.589 94.3161C262.866 94.1241 263.061 93.8628 263.173 93.5321C263.29 93.196 263.349 92.8227 263.349 92.412ZM271.397 87.6036V89.2357H266.357V87.6036H271.397ZM267.605 85.4674H269.909V93.6521C269.909 93.9028 269.941 94.0948 270.005 94.2281C270.074 94.3615 270.176 94.4548 270.309 94.5082C270.443 94.5562 270.611 94.5802 270.813 94.5802C270.957 94.5802 271.085 94.5748 271.197 94.5642C271.315 94.5482 271.413 94.5322 271.493 94.5162L271.501 96.2123C271.304 96.2763 271.091 96.327 270.861 96.3643C270.632 96.4016 270.379 96.4203 270.101 96.4203C269.594 96.4203 269.152 96.3376 268.773 96.1723C268.4 96.0016 268.112 95.7296 267.909 95.3562C267.706 94.9829 267.605 94.4921 267.605 93.8841V85.4674ZM276.95 87.6036V89.2357H271.909V87.6036H276.95ZM273.157 85.4674H275.462V93.6521C275.462 93.9028 275.494 94.0948 275.558 94.2281C275.627 94.3615 275.728 94.4548 275.862 94.5082C275.995 94.5562 276.163 94.5802 276.366 94.5802C276.51 94.5802 276.638 94.5748 276.75 94.5642C276.867 94.5482 276.966 94.5322 277.046 94.5162L277.054 96.2123C276.856 96.2763 276.643 96.327 276.414 96.3643C276.184 96.4016 275.931 96.4203 275.654 96.4203C275.147 96.4203 274.704 96.3376 274.325 96.1723C273.952 96.0016 273.664 95.7296 273.461 95.3562C273.259 94.9829 273.157 94.4921 273.157 93.8841V85.4674ZM277.686 92.02V91.8519C277.686 91.2172 277.776 90.6332 277.958 90.0998C278.139 89.5611 278.403 89.0944 278.75 88.6997C279.097 88.305 279.523 87.9983 280.03 87.7796C280.537 87.5556 281.118 87.4436 281.774 87.4436C282.43 87.4436 283.014 87.5556 283.526 87.7796C284.038 87.9983 284.468 88.305 284.814 88.6997C285.166 89.0944 285.433 89.5611 285.614 90.0998C285.796 90.6332 285.886 91.2172 285.886 91.8519V92.02C285.886 92.6493 285.796 93.2334 285.614 93.7721C285.433 94.3055 285.166 94.7722 284.814 95.1722C284.468 95.5669 284.041 95.8736 283.534 96.0923C283.028 96.311 282.446 96.4203 281.79 96.4203C281.134 96.4203 280.55 96.311 280.038 96.0923C279.531 95.8736 279.102 95.5669 278.75 95.1722C278.403 94.7722 278.139 94.3055 277.958 93.7721C277.776 93.2334 277.686 92.6493 277.686 92.02ZM279.99 91.8519V92.02C279.99 92.3826 280.022 92.7213 280.086 93.036C280.15 93.3507 280.251 93.6281 280.39 93.8681C280.534 94.1028 280.721 94.2868 280.95 94.4201C281.179 94.5535 281.459 94.6202 281.79 94.6202C282.11 94.6202 282.385 94.5535 282.614 94.4201C282.844 94.2868 283.028 94.1028 283.166 93.8681C283.305 93.6281 283.406 93.3507 283.47 93.036C283.54 92.7213 283.574 92.3826 283.574 92.02V91.8519C283.574 91.4999 283.54 91.1692 283.47 90.8599C283.406 90.5452 283.302 90.2678 283.158 90.0278C283.02 89.7824 282.836 89.5904 282.606 89.4517C282.377 89.3131 282.099 89.2437 281.774 89.2437C281.449 89.2437 281.171 89.3131 280.942 89.4517C280.718 89.5904 280.534 89.7824 280.39 90.0278C280.251 90.2678 280.15 90.5452 280.086 90.8599C280.022 91.1692 279.99 91.4999 279.99 91.8519ZM289.559 89.4517V96.2603H287.255V87.6036H289.415L289.559 89.4517ZM289.223 91.6279H288.599C288.599 90.9879 288.681 90.4118 288.847 89.8998C289.012 89.3824 289.244 88.9424 289.543 88.5797C289.841 88.2116 290.196 87.9316 290.607 87.7396C291.023 87.5423 291.487 87.4436 291.999 87.4436C292.404 87.4436 292.775 87.5023 293.111 87.6196C293.447 87.7369 293.735 87.9236 293.975 88.1796C294.22 88.4357 294.407 88.7744 294.535 89.1957C294.668 89.6171 294.735 90.1318 294.735 90.7399V96.2603H292.415V90.7318C292.415 90.3478 292.362 90.0491 292.255 89.8358C292.148 89.6224 291.991 89.4731 291.783 89.3877C291.58 89.2971 291.33 89.2517 291.031 89.2517C290.721 89.2517 290.452 89.3131 290.223 89.4357C289.999 89.5584 289.812 89.7291 289.663 89.9478C289.519 90.1611 289.409 90.4118 289.335 90.6998C289.26 90.9879 289.223 91.2972 289.223 91.6279Z" fill="black"/>
<circle cx="145.041" cy="148.457" r="14.4071" fill="#FAFAFA" stroke="black" stroke-width="1.48149"/>
<circle cx="145.041" cy="148.457" r="9.74626" fill="#FF1744" stroke="black" stroke-width="1.48149"/>
<circle cx="245.25" cy="148.457" r="28.3898" fill="#FAFAFA" stroke="black" stroke-width="1.48149"/>
<circle r="20.974" transform="matrix(1 0 0 -1 245.25 148.456)" fill="#DCE0E9"/>
<circle r="13.2419" transform="matrix(1 0 0 -1 245.251 148.456)" fill="#FAFAFA" stroke="black" stroke-width="1.48149"/>
<circle cx="188.155" cy="148.457" r="10.8033" fill="#92989E" stroke="black" stroke-width="2.96298"/>
<circle cx="302.346" cy="148.457" r="8.58104" fill="#92989E" stroke="black" stroke-width="1.48149"/>
<rect x="142.17" y="186.823" width="135.232" height="20.5184" rx="3.70373" fill="#DCE0E9" stroke="black" stroke-width="1.48149"/>
<path d="M153.471 191.572H157.169C158.008 191.572 158.717 191.7 159.295 191.956C159.878 192.211 160.32 192.59 160.622 193.091C160.929 193.587 161.083 194.199 161.083 194.925C161.083 195.437 160.978 195.905 160.768 196.329C160.563 196.749 160.267 197.107 159.878 197.404C159.494 197.695 159.034 197.912 158.497 198.056L158.082 198.217H154.607L154.591 197.012H157.215C157.747 197.012 158.19 196.92 158.543 196.736C158.896 196.547 159.162 196.293 159.341 195.976C159.52 195.659 159.609 195.309 159.609 194.925C159.609 194.495 159.525 194.119 159.356 193.797C159.187 193.475 158.921 193.227 158.558 193.053C158.2 192.874 157.737 192.784 157.169 192.784H154.952V202.744H153.471V191.572ZM160.001 202.744L157.284 197.68L158.827 197.672L161.581 202.652V202.744H160.001ZM170.252 201.539V202.744H164.336V201.539H170.252ZM164.635 191.572V202.744H163.154V191.572H164.635ZM169.469 196.375V197.58H164.336V196.375H169.469ZM170.175 191.572V192.784H164.336V191.572H170.175ZM178.04 199.92C178.04 199.659 177.999 199.429 177.917 199.23C177.84 199.025 177.702 198.841 177.503 198.677C177.308 198.514 177.037 198.358 176.689 198.209C176.347 198.061 175.912 197.91 175.385 197.756C174.832 197.593 174.334 197.411 173.889 197.212C173.444 197.007 173.063 196.774 172.745 196.513C172.428 196.253 172.185 195.953 172.017 195.616C171.848 195.278 171.763 194.892 171.763 194.457C171.763 194.022 171.853 193.621 172.032 193.252C172.211 192.884 172.467 192.564 172.799 192.293C173.137 192.017 173.538 191.802 174.004 191.649C174.469 191.495 174.988 191.419 175.561 191.419C176.4 191.419 177.111 191.58 177.694 191.902C178.283 192.219 178.73 192.636 179.037 193.153C179.344 193.664 179.498 194.212 179.498 194.795H178.024C178.024 194.375 177.935 194.004 177.756 193.682C177.577 193.355 177.306 193.099 176.943 192.915C176.579 192.726 176.119 192.631 175.561 192.631C175.035 192.631 174.6 192.71 174.257 192.869C173.914 193.027 173.659 193.242 173.49 193.513C173.326 193.784 173.244 194.094 173.244 194.442C173.244 194.677 173.293 194.892 173.39 195.086C173.492 195.276 173.648 195.452 173.858 195.616C174.073 195.779 174.344 195.93 174.671 196.068C175.004 196.207 175.4 196.34 175.861 196.467C176.495 196.646 177.042 196.846 177.503 197.066C177.963 197.286 178.342 197.534 178.638 197.81C178.94 198.081 179.163 198.391 179.306 198.739C179.454 199.081 179.528 199.47 179.528 199.905C179.528 200.36 179.436 200.772 179.252 201.14C179.068 201.509 178.805 201.823 178.462 202.084C178.119 202.345 177.707 202.547 177.226 202.69C176.751 202.828 176.219 202.897 175.63 202.897C175.114 202.897 174.605 202.826 174.104 202.683C173.607 202.539 173.155 202.324 172.745 202.038C172.341 201.752 172.017 201.399 171.771 200.979C171.531 200.555 171.41 200.063 171.41 199.506H172.884C172.884 199.89 172.958 200.219 173.106 200.496C173.254 200.767 173.456 200.992 173.712 201.171C173.973 201.35 174.267 201.483 174.595 201.57C174.927 201.652 175.272 201.693 175.63 201.693C176.147 201.693 176.584 201.621 176.943 201.478C177.301 201.335 177.572 201.13 177.756 200.864C177.945 200.598 178.04 200.283 178.04 199.92ZM188.513 201.539V202.744H182.598V201.539H188.513ZM182.897 191.572V202.744H181.416V191.572H182.897ZM187.731 196.375V197.58H182.598V196.375H187.731ZM188.437 191.572V192.784H182.598V191.572H188.437ZM194.629 191.572V202.744H193.171V191.572H194.629ZM198.22 191.572V192.784H189.588V191.572H198.22ZM211.348 197.519H208.517L208.501 196.329H211.072C211.496 196.329 211.867 196.258 212.184 196.114C212.502 195.971 212.747 195.767 212.921 195.501C213.1 195.23 213.19 194.907 213.19 194.534C213.19 194.125 213.11 193.792 212.952 193.536C212.798 193.275 212.56 193.086 212.238 192.969C211.921 192.846 211.517 192.784 211.026 192.784H208.847V202.744H207.366V191.572H211.026C211.599 191.572 212.11 191.631 212.56 191.749C213.011 191.861 213.392 192.04 213.704 192.286C214.021 192.526 214.261 192.833 214.425 193.206C214.589 193.58 214.671 194.027 214.671 194.549C214.671 195.01 214.553 195.426 214.318 195.8C214.082 196.168 213.755 196.47 213.335 196.705C212.921 196.941 212.435 197.091 211.878 197.158L211.348 197.519ZM211.279 202.744H207.934L208.77 201.539H211.279C211.75 201.539 212.149 201.457 212.476 201.294C212.809 201.13 213.062 200.9 213.236 200.603C213.41 200.301 213.497 199.946 213.497 199.537C213.497 199.122 213.422 198.764 213.274 198.462C213.126 198.161 212.893 197.928 212.576 197.764C212.259 197.6 211.849 197.519 211.348 197.519H209.238L209.253 196.329H212.138L212.453 196.759C212.99 196.805 213.445 196.958 213.819 197.219C214.192 197.475 214.476 197.803 214.671 198.202C214.87 198.601 214.97 199.04 214.97 199.521C214.97 200.217 214.816 200.805 214.509 201.286C214.208 201.762 213.78 202.125 213.228 202.376C212.676 202.621 212.026 202.744 211.279 202.744ZM223.548 191.572H225.021V199.13C225.021 199.969 224.835 200.667 224.461 201.225C224.088 201.782 223.592 202.202 222.973 202.483C222.359 202.759 221.691 202.897 220.97 202.897C220.213 202.897 219.527 202.759 218.914 202.483C218.305 202.202 217.822 201.782 217.463 201.225C217.111 200.667 216.934 199.969 216.934 199.13V191.572H218.4V199.13C218.4 199.713 218.507 200.194 218.722 200.572C218.937 200.951 219.236 201.232 219.62 201.416C220.008 201.601 220.458 201.693 220.97 201.693C221.487 201.693 221.937 201.601 222.32 201.416C222.709 201.232 223.011 200.951 223.226 200.572C223.441 200.194 223.548 199.713 223.548 199.13V191.572ZM231.474 191.572V202.744H230.016V191.572H231.474ZM235.065 191.572V192.784H226.433V191.572H235.065ZM240.973 191.572V202.744H239.516V191.572H240.973ZM244.564 191.572V192.784H235.932V191.572H244.564ZM254.608 196.805V197.511C254.608 198.35 254.503 199.102 254.294 199.767C254.084 200.432 253.782 200.997 253.388 201.463C252.994 201.928 252.521 202.284 251.969 202.529C251.421 202.775 250.808 202.897 250.127 202.897C249.467 202.897 248.861 202.775 248.309 202.529C247.761 202.284 247.286 201.928 246.882 201.463C246.483 200.997 246.173 200.432 245.953 199.767C245.733 199.102 245.623 198.35 245.623 197.511V196.805C245.623 195.966 245.731 195.217 245.946 194.557C246.165 193.892 246.475 193.327 246.874 192.861C247.273 192.391 247.746 192.032 248.293 191.787C248.846 191.541 249.452 191.419 250.112 191.419C250.792 191.419 251.406 191.541 251.953 191.787C252.506 192.032 252.979 192.391 253.373 192.861C253.772 193.327 254.076 193.892 254.286 194.557C254.501 195.217 254.608 195.966 254.608 196.805ZM253.143 197.511V196.79C253.143 196.125 253.074 195.536 252.936 195.025C252.803 194.513 252.606 194.084 252.345 193.736C252.084 193.388 251.764 193.125 251.386 192.946C251.012 192.766 250.588 192.677 250.112 192.677C249.652 192.677 249.235 192.766 248.861 192.946C248.493 193.125 248.176 193.388 247.91 193.736C247.649 194.084 247.447 194.513 247.304 195.025C247.16 195.536 247.089 196.125 247.089 196.79V197.511C247.089 198.181 247.16 198.774 247.304 199.291C247.447 199.803 247.651 200.235 247.917 200.588C248.189 200.936 248.508 201.199 248.877 201.378C249.25 201.557 249.667 201.647 250.127 201.647C250.608 201.647 251.035 201.557 251.409 201.378C251.782 201.199 252.097 200.936 252.352 200.588C252.613 200.235 252.81 199.803 252.943 199.291C253.076 198.774 253.143 198.181 253.143 197.511ZM265.42 191.572V202.744H263.931L258.307 194.127V202.744H256.826V191.572H258.307L263.954 200.212V191.572H265.42Z" fill="#92989E"/>
<path d="M245.944 99.2715C245.944 98.8624 245.613 98.5308 245.203 98.5308C244.794 98.5308 244.463 98.8624 244.463 99.2715L245.944 99.2715ZM245.203 115.339L249.48 107.931L240.927 107.931L245.203 115.339ZM244.463 99.2715L244.463 108.672L245.944 108.672L245.944 99.2715L244.463 99.2715Z" fill="black"/>
<path d="M145.401 122.907C143.219 122.907 141.451 124.675 141.451 126.857C141.451 129.039 143.219 130.808 145.401 130.808C147.583 130.808 149.352 129.039 149.352 126.857C149.352 124.675 147.583 122.907 145.401 122.907ZM146.142 98.4302C146.142 98.0211 145.81 97.6894 145.401 97.6894C144.992 97.6894 144.66 98.0211 144.66 98.4302L146.142 98.4302ZM144.66 98.4302L144.661 126.857L146.142 126.857L146.142 98.4302L144.66 98.4302Z" fill="#92989E"/>
</svg>
