<svg width="371" height="225" viewBox="0 0 371 225" fill="none" xmlns="http://www.w3.org/2000/svg">
<rect width="371" height="225" rx="7.68362" fill="#FAFAFA"/>
<path fill-rule="evenodd" clip-rule="evenodd" d="M43.5611 73.3166L37 77.1046C39.0921 80.7282 43.7255 81.9697 47.3491 79.8777C50.4549 78.0845 51.8108 74.4242 50.8174 71.1332C52.5156 73.6566 54.9798 75.6217 57.8767 76.6953L65.02 109.78L58.4072 138.441C48.2499 140.237 40.5349 149.108 40.5349 159.781C40.5349 171.75 50.2378 181.453 62.2069 181.453C74.176 181.453 83.8789 171.75 83.8789 159.781C83.8789 154.331 81.8671 149.351 78.5458 145.543L92.2446 117.676L94.5221 117.676L94.5221 123.761C94.5221 124.417 95.0534 124.948 95.7086 124.948L108.569 124.948C109.224 124.948 109.755 124.417 109.755 123.761L109.755 96.805C109.755 96.1497 109.224 95.6185 108.569 95.6185L95.7086 95.6185C95.0534 95.6185 94.5221 96.1497 94.5221 96.805L94.5221 102.89L92.7868 102.89L78.4708 73.3568L78.4891 73.3674L78.4892 73.3672L81.3212 75.0023L87.8823 78.7903C89.9743 75.1667 88.7328 70.5333 85.1092 68.4412C82.2753 66.8051 78.8237 67.2079 76.4531 69.1946L76.3227 68.9255C76.957 67.5023 77.3706 65.9592 77.52 64.3395L89.0379 64.3395C89.6549 64.3395 90.155 63.8394 90.155 63.2224C90.155 62.6055 89.6549 62.1053 89.0379 62.1053L77.5569 62.1053C77.1155 54.6093 71.0279 48.6313 63.4863 48.3638L63.4863 44.8707L63.4863 41.6008L63.4863 34.0248C59.3022 34.0248 55.9103 37.4167 55.9103 41.6008C55.9103 44.7211 57.7966 47.4008 60.4911 48.5617C53.869 49.687 48.763 55.2639 48.3602 62.1053L46.5877 62.1053C46.1458 62.1053 45.7638 62.3619 45.5826 62.7343L38.849 62.7343C38.5798 62.7343 38.3615 62.9525 38.3615 63.2217C38.3615 63.491 38.5798 63.7092 38.849 63.7092L45.5819 63.7092C45.7628 64.0823 46.1452 64.3395 46.5877 64.3395L48.397 64.3395C48.5718 66.2328 49.1074 68.0216 49.9345 69.6363L46.3931 71.6809L46.3933 71.6814L43.5611 73.3166Z" fill="#DCE0E9"/>
<circle cx="79.6951" cy="110.344" r="10.7001" transform="rotate(-90 79.6951 110.344)" fill="#DCE0E9" stroke="#FAFAFA" stroke-width="1.02337"/>
<circle cx="80.853" cy="86.2747" r="0.507778" transform="rotate(-90 80.853 86.2747)" fill="#FF1744"/>
<circle cx="80.8525" cy="86.2753" r="0.738288" transform="rotate(-90 80.8525 86.2753)" stroke="black" stroke-width="0.148314"/>
<circle cx="80.1215" cy="84.2643" r="0.738288" transform="rotate(-90 80.1215 84.2643)" stroke="black" stroke-width="0.148314"/>
<circle cx="79.1055" cy="82.1313" r="1.08358" transform="rotate(-90 79.1055 82.1313)" stroke="black" stroke-width="0.148314"/>
<circle cx="78.2934" cy="80.0391" r="0.738288" transform="rotate(-90 78.2934 80.0391)" stroke="black" stroke-width="0.148314"/>
<circle cx="79.9864" cy="83.6156" r="11.3578" transform="rotate(90 79.9864 83.6156)" stroke="#4B4D4E"/>
<path d="M91 84.0248L145.96 84.187" stroke="#4B4D4E"/>
<circle cx="236.798" cy="112.826" r="97.3264" fill="#FAFAFA" stroke="#4B4D4E"/>
<path d="M162.468 71.7506H164.922C165.478 71.7506 165.948 71.8354 166.332 72.0052C166.719 72.1749 167.012 72.426 167.213 72.7587C167.416 73.0879 167.518 73.4935 167.518 73.9755C167.518 74.3149 167.449 74.6255 167.309 74.9072C167.174 75.1855 166.977 75.4231 166.719 75.62C166.464 75.8135 166.159 75.9577 165.802 76.0528L165.527 76.1597H163.221L163.211 75.3603H164.952C165.305 75.3603 165.599 75.2993 165.833 75.1771C166.067 75.0515 166.244 74.8835 166.362 74.673C166.481 74.4626 166.541 74.2301 166.541 73.9755C166.541 73.6904 166.485 73.4409 166.373 73.2271C166.261 73.0132 166.084 72.8486 165.843 72.7332C165.605 72.6144 165.298 72.555 164.922 72.555H163.45V79.1636H162.468V71.7506ZM166.8 79.1636L164.998 75.8033L166.021 75.7982L167.849 79.1025V79.1636H166.8ZM171.036 79.2654C170.653 79.2654 170.305 79.2009 169.992 79.0719C169.684 78.9396 169.417 78.7546 169.193 78.517C168.973 78.2794 168.803 77.9977 168.684 77.6718C168.565 77.346 168.506 76.9896 168.506 76.6026V76.3888C168.506 75.9408 168.572 75.5419 168.704 75.1923C168.837 74.8393 169.017 74.5406 169.244 74.2963C169.471 74.0519 169.729 73.8669 170.018 73.7413C170.306 73.6157 170.605 73.5529 170.914 73.5529C171.308 73.5529 171.647 73.6208 171.932 73.7566C172.221 73.8923 172.457 74.0824 172.64 74.3268C172.823 74.5678 172.959 74.8529 173.047 75.1822C173.136 75.508 173.18 75.8644 173.18 76.2513V76.6739H169.066V75.9051H172.238V75.8338C172.224 75.5895 172.173 75.3519 172.085 75.1211C172 74.8902 171.864 74.7002 171.678 74.5508C171.491 74.4015 171.236 74.3268 170.914 74.3268C170.7 74.3268 170.503 74.3726 170.323 74.4643C170.144 74.5525 169.989 74.6849 169.86 74.8614C169.731 75.0379 169.631 75.2534 169.56 75.508C169.488 75.7626 169.453 76.0562 169.453 76.3888V76.6026C169.453 76.864 169.488 77.1101 169.56 77.3409C169.634 77.5683 169.741 77.7685 169.88 77.9417C170.023 78.1148 170.194 78.2505 170.395 78.349C170.598 78.4474 170.829 78.4966 171.087 78.4966C171.42 78.4966 171.701 78.4287 171.932 78.293C172.163 78.1572 172.365 77.9756 172.538 77.7482L173.108 78.2013C172.99 78.3812 172.839 78.5526 172.655 78.7155C172.472 78.8785 172.246 79.0108 171.978 79.1127C171.713 79.2145 171.399 79.2654 171.036 79.2654ZM177.752 78.0944V71.3433H178.699V79.1636H177.833L177.752 78.0944ZM174.045 76.4703V76.3633C174.045 75.9425 174.096 75.5606 174.198 75.2178C174.303 74.8716 174.451 74.5746 174.641 74.3268C174.834 74.079 175.063 73.889 175.328 73.7566C175.596 73.6208 175.895 73.5529 176.224 73.5529C176.57 73.5529 176.873 73.614 177.131 73.7362C177.392 73.855 177.613 74.0298 177.792 74.2606C177.976 74.488 178.12 74.763 178.225 75.0854C178.33 75.4079 178.403 75.7727 178.444 76.1801V76.6485C178.407 77.0524 178.334 77.4156 178.225 77.738C178.12 78.0605 177.976 78.3354 177.792 78.5628C177.613 78.7902 177.392 78.965 177.131 79.0872C176.869 79.206 176.564 79.2654 176.214 79.2654C175.892 79.2654 175.596 79.1958 175.328 79.0567C175.063 78.9175 174.834 78.7223 174.641 78.4712C174.451 78.22 174.303 77.9247 174.198 77.5853C174.096 77.2424 174.045 76.8708 174.045 76.4703ZM174.992 76.3633V76.4703C174.992 76.7452 175.019 77.0032 175.074 77.2441C175.131 77.4851 175.22 77.6973 175.338 77.8806C175.457 78.0638 175.608 78.2081 175.792 78.3133C175.975 78.4151 176.194 78.4661 176.448 78.4661C176.761 78.4661 177.017 78.3999 177.217 78.2675C177.421 78.1351 177.584 77.9603 177.706 77.7431C177.828 77.5259 177.923 77.29 177.991 77.0354V75.8084C177.95 75.6217 177.891 75.4418 177.813 75.2687C177.738 75.0922 177.64 74.9361 177.517 74.8003C177.399 74.6611 177.251 74.5508 177.075 74.4694C176.901 74.3879 176.696 74.3472 176.458 74.3472C176.201 74.3472 175.978 74.4015 175.792 74.5101C175.608 74.6153 175.457 74.7613 175.338 74.948C175.22 75.1312 175.131 75.3451 175.074 75.5895C175.019 75.8304 174.992 76.0884 174.992 76.3633ZM187.39 78.3642V79.1636H183.683V78.3642H187.39ZM183.877 71.7506V79.1636H182.894V71.7506H183.877ZM193.224 78.3642V79.1636H189.299V78.3642H193.224ZM189.497 71.7506V79.1636H188.515V71.7506H189.497ZM192.705 74.9378V75.7371H189.299V74.9378H192.705ZM193.173 71.7506V72.555H189.299V71.7506H193.173ZM196.447 79.1636H194.899L194.909 78.3642H196.447C196.977 78.3642 197.418 78.2539 197.771 78.0333C198.124 77.8093 198.389 77.497 198.565 77.0965C198.745 76.6926 198.835 76.2208 198.835 75.6811V75.228C198.835 74.8037 198.784 74.4269 198.682 74.0977C198.58 73.7651 198.431 73.485 198.234 73.2576C198.037 73.0268 197.796 72.852 197.511 72.7332C197.229 72.6144 196.905 72.555 196.539 72.555H194.869V71.7506H196.539C197.024 71.7506 197.467 71.8321 197.868 71.995C198.268 72.1545 198.613 72.387 198.901 72.6925C199.193 72.9946 199.417 73.3612 199.573 73.7922C199.729 74.2199 199.807 74.7019 199.807 75.2382V75.6811C199.807 76.2174 199.729 76.7011 199.573 77.1321C199.417 77.5598 199.191 77.9247 198.896 78.2268C198.604 78.5289 198.251 78.7614 197.837 78.9243C197.426 79.0838 196.963 79.1636 196.447 79.1636ZM195.424 71.7506V79.1636H194.441V71.7506H195.424Z" fill="#4B4D4E"/>
<path d="M237.247 71.3998H240.011C240.578 71.3998 241.065 71.4846 241.472 71.6543C241.883 71.824 242.199 72.0752 242.419 72.4078C242.64 72.7405 242.75 73.1495 242.75 73.6349C242.75 74.032 242.682 74.3731 242.547 74.6582C242.414 74.9399 242.226 75.1758 241.981 75.3659C241.74 75.5526 241.457 75.7019 241.131 75.8139L240.648 76.0685H238.244L238.234 74.8771H240.021C240.289 74.8771 240.512 74.8296 240.688 74.7346C240.865 74.6395 240.997 74.5072 241.085 74.3375C241.177 74.1678 241.223 73.9709 241.223 73.7469C241.223 73.5093 241.179 73.3039 241.09 73.1308C241.002 72.9577 240.868 72.8253 240.688 72.7337C240.508 72.642 240.283 72.5962 240.011 72.5962H238.774V78.8127H237.247V71.3998ZM241.391 78.8127L239.701 75.5085L241.314 75.4983L243.025 78.7415V78.8127H241.391ZM248.901 77.6214V78.8127H244.955V77.6214H248.901ZM245.454 71.3998V78.8127H243.926V71.3998H245.454ZM248.386 74.4189V75.5797H244.955V74.4189H248.386ZM248.895 71.3998V72.5962H244.955V71.3998H248.895ZM253.651 76.8729C253.651 76.7406 253.63 76.6218 253.59 76.5166C253.552 76.4079 253.481 76.3095 253.376 76.2213C253.271 76.1296 253.123 76.0397 252.933 75.9514C252.743 75.8632 252.497 75.7715 252.195 75.6765C251.859 75.5679 251.54 75.4457 251.238 75.3099C250.939 75.1741 250.674 75.0163 250.443 74.8364C250.216 74.6531 250.036 74.441 249.904 74.2C249.775 73.959 249.71 73.679 249.71 73.3599C249.71 73.0511 249.778 72.771 249.914 72.5199C250.05 72.2653 250.24 72.0481 250.484 71.8682C250.728 71.6849 251.017 71.544 251.35 71.4456C251.686 71.3472 252.054 71.2979 252.454 71.2979C253.001 71.2979 253.478 71.3964 253.885 71.5932C254.292 71.7901 254.608 72.0599 254.832 72.4028C255.059 72.7456 255.173 73.1376 255.173 73.5789H253.656C253.656 73.3616 253.61 73.1715 253.518 73.0086C253.43 72.8423 253.294 72.7116 253.111 72.6166C252.931 72.5216 252.704 72.474 252.429 72.474C252.164 72.474 251.944 72.5148 251.767 72.5962C251.591 72.6743 251.458 72.7812 251.37 72.917C251.282 73.0494 251.238 73.1987 251.238 73.365C251.238 73.4906 251.268 73.6043 251.329 73.7061C251.394 73.808 251.489 73.903 251.614 73.9913C251.74 74.0795 251.894 74.1627 252.078 74.2407C252.261 74.3188 252.473 74.3952 252.714 74.4698C253.118 74.592 253.473 74.7295 253.778 74.8822C254.087 75.035 254.345 75.2064 254.552 75.3965C254.759 75.5865 254.915 75.8021 255.02 76.0431C255.126 76.284 255.178 76.5573 255.178 76.8628C255.178 77.1852 255.115 77.4737 254.99 77.7283C254.864 77.9829 254.683 78.1984 254.445 78.3749C254.207 78.5514 253.924 78.6855 253.595 78.7771C253.266 78.8687 252.897 78.9146 252.49 78.9146C252.123 78.9146 251.762 78.8671 251.406 78.772C251.049 78.6736 250.725 78.5259 250.433 78.3291C250.145 78.1322 249.914 77.881 249.741 77.5756C249.568 77.2701 249.481 76.9086 249.481 76.4911H251.013C251.013 76.7219 251.049 76.9171 251.12 77.0766C251.192 77.2361 251.292 77.3651 251.421 77.4635C251.553 77.562 251.709 77.6333 251.889 77.6774C252.072 77.7215 252.273 77.7436 252.49 77.7436C252.755 77.7436 252.972 77.7062 253.142 77.6316C253.315 77.5569 253.442 77.4534 253.524 77.321C253.608 77.1886 253.651 77.0393 253.651 76.8729ZM261.191 77.6214V78.8127H257.245V77.6214H261.191ZM257.744 71.3998V78.8127H256.217V71.3998H257.744ZM260.677 74.4189V75.5797H257.245V74.4189H260.677ZM261.186 71.3998V72.5962H257.245V71.3998H261.186ZM265.498 71.3998V78.8127H263.976V71.3998H265.498ZM267.779 71.3998V72.5962H261.731V71.3998H267.779ZM270.88 70.9925H272.346V77.5501L272.199 78.8127H270.88V70.9925ZM275.834 76.0023V76.1092C275.834 76.5199 275.79 76.8967 275.701 77.2395C275.617 77.5823 275.484 77.8793 275.304 78.1305C275.124 78.3783 274.9 78.5718 274.632 78.7109C274.367 78.8467 274.055 78.9146 273.695 78.9146C273.359 78.9146 273.067 78.8467 272.82 78.7109C272.575 78.5751 272.37 78.3834 272.204 78.1356C272.037 77.8878 271.903 77.5976 271.801 77.265C271.7 76.9323 271.623 76.5692 271.572 76.1754V75.9412C271.623 75.5475 271.7 75.1843 271.801 74.8517C271.903 74.5191 272.037 74.2288 272.204 73.9811C272.37 73.7333 272.575 73.5415 272.82 73.4057C273.064 73.27 273.353 73.2021 273.685 73.2021C274.048 73.2021 274.364 73.2717 274.632 73.4108C274.904 73.5466 275.128 73.7401 275.304 73.9913C275.484 74.239 275.617 74.5343 275.701 74.8771C275.79 75.2166 275.834 75.5916 275.834 76.0023ZM274.367 76.1092V76.0023C274.367 75.7783 274.35 75.5679 274.317 75.371C274.286 75.1707 274.232 74.9959 274.154 74.8466C274.076 74.6939 273.969 74.5734 273.833 74.4851C273.7 74.3969 273.529 74.3527 273.319 74.3527C273.118 74.3527 272.949 74.3867 272.809 74.4546C272.67 74.5224 272.555 74.6175 272.463 74.7397C272.375 74.8619 272.309 75.0078 272.265 75.1775C272.221 75.3438 272.193 75.5271 272.183 75.7274V76.3944C272.193 76.6625 272.238 76.9001 272.316 77.1071C272.397 77.3108 272.519 77.472 272.682 77.5908C272.849 77.7062 273.064 77.7639 273.329 77.7639C273.536 77.7639 273.707 77.7232 273.843 77.6417C273.979 77.5603 274.084 77.4449 274.159 77.2955C274.237 77.1462 274.291 76.9714 274.322 76.7711C274.352 76.5675 274.367 76.3468 274.367 76.1092ZM280.004 77.4941V73.3039H281.47V78.8127H280.09L280.004 77.4941ZM280.166 76.3638L280.599 76.3536C280.599 76.7202 280.557 77.0613 280.472 77.377C280.387 77.6893 280.26 77.9608 280.09 78.1916C279.92 78.419 279.707 78.5972 279.449 78.7262C279.191 78.8518 278.887 78.9146 278.537 78.9146C278.269 78.9146 278.021 78.8772 277.794 78.8026C277.57 78.7245 277.376 78.604 277.213 78.4411C277.054 78.2748 276.928 78.0626 276.837 77.8047C276.748 77.5433 276.704 77.2293 276.704 76.8628V73.3039H278.171V76.8729C278.171 77.0359 278.189 77.1733 278.227 77.2853C278.267 77.3974 278.323 77.489 278.395 77.5603C278.466 77.6316 278.549 77.6825 278.644 77.713C278.743 77.7436 278.851 77.7588 278.97 77.7588C279.272 77.7588 279.51 77.6977 279.683 77.5756C279.859 77.4534 279.983 77.287 280.054 77.0766C280.129 76.8628 280.166 76.6252 280.166 76.3638ZM285.288 73.3039V74.3426H282.081V73.3039H285.288ZM282.875 71.9445H284.341V77.153C284.341 77.3125 284.362 77.4347 284.402 77.5195C284.447 77.6044 284.511 77.6638 284.596 77.6977C284.681 77.7283 284.788 77.7436 284.917 77.7436C285.008 77.7436 285.09 77.7402 285.161 77.7334C285.236 77.7232 285.299 77.713 285.349 77.7028L285.355 78.7822C285.229 78.8229 285.093 78.8552 284.947 78.8789C284.801 78.9027 284.64 78.9146 284.464 78.9146C284.141 78.9146 283.859 78.862 283.618 78.7567C283.381 78.6481 283.197 78.475 283.069 78.2374C282.94 77.9998 282.875 77.6876 282.875 77.3006V71.9445ZM288.822 73.3039V74.3426H285.614V73.3039H288.822ZM286.408 71.9445H287.875V77.153C287.875 77.3125 287.895 77.4347 287.936 77.5195C287.98 77.6044 288.044 77.6638 288.129 77.6977C288.214 77.7283 288.321 77.7436 288.45 77.7436C288.542 77.7436 288.623 77.7402 288.694 77.7334C288.769 77.7232 288.832 77.713 288.883 77.7028L288.888 78.7822C288.762 78.8229 288.627 78.8552 288.481 78.8789C288.335 78.9027 288.173 78.9146 287.997 78.9146C287.674 78.9146 287.393 78.862 287.152 78.7567C286.914 78.6481 286.731 78.475 286.602 78.2374C286.473 77.9998 286.408 77.6876 286.408 77.3006V71.9445ZM289.29 76.1143V76.0074C289.29 75.6035 289.348 75.2318 289.463 74.8924C289.579 74.5496 289.747 74.2526 289.967 74.0014C290.188 73.7503 290.459 73.5551 290.782 73.4159C291.104 73.2734 291.474 73.2021 291.892 73.2021C292.309 73.2021 292.681 73.2734 293.007 73.4159C293.333 73.5551 293.606 73.7503 293.826 74.0014C294.051 74.2526 294.22 74.5496 294.336 74.8924C294.451 75.2318 294.509 75.6035 294.509 76.0074V76.1143C294.509 76.5149 294.451 76.8865 294.336 77.2293C294.22 77.5688 294.051 77.8658 293.826 78.1203C293.606 78.3715 293.334 78.5667 293.012 78.7058C292.689 78.845 292.319 78.9146 291.902 78.9146C291.484 78.9146 291.113 78.845 290.787 78.7058C290.465 78.5667 290.191 78.3715 289.967 78.1203C289.747 77.8658 289.579 77.5688 289.463 77.2293C289.348 76.8865 289.29 76.5149 289.29 76.1143ZM290.756 76.0074V76.1143C290.756 76.3451 290.777 76.5607 290.818 76.7609C290.858 76.9612 290.923 77.1377 291.011 77.2904C291.103 77.4398 291.221 77.5569 291.367 77.6417C291.513 77.7266 291.692 77.769 291.902 77.769C292.106 77.769 292.28 77.7266 292.426 77.6417C292.572 77.5569 292.689 77.4398 292.778 77.2904C292.866 77.1377 292.93 76.9612 292.971 76.7609C293.015 76.5607 293.037 76.3451 293.037 76.1143V76.0074C293.037 75.7834 293.015 75.573 292.971 75.3761C292.93 75.1758 292.864 74.9993 292.773 74.8466C292.684 74.6905 292.567 74.5683 292.421 74.48C292.275 74.3918 292.099 74.3476 291.892 74.3476C291.685 74.3476 291.508 74.3918 291.362 74.48C291.22 74.5683 291.103 74.6905 291.011 74.8466C290.923 74.9993 290.858 75.1758 290.818 75.3761C290.777 75.573 290.756 75.7834 290.756 76.0074ZM296.846 74.48V78.8127H295.379V73.3039H296.754L296.846 74.48ZM296.632 75.8649H296.235C296.235 75.4576 296.287 75.091 296.393 74.7651C296.498 74.4359 296.645 74.1559 296.835 73.9251C297.026 73.6909 297.251 73.5127 297.513 73.3905C297.777 73.2649 298.073 73.2021 298.399 73.2021C298.656 73.2021 298.892 73.2394 299.106 73.3141C299.32 73.3888 299.503 73.5076 299.656 73.6705C299.812 73.8334 299.931 74.049 300.012 74.3171C300.097 74.5852 300.14 74.9128 300.14 75.2997V78.8127H298.663V75.2946C298.663 75.0502 298.629 74.8602 298.561 74.7244C298.494 74.5886 298.393 74.4936 298.261 74.4393C298.132 74.3816 297.973 74.3527 297.782 74.3527C297.586 74.3527 297.414 74.3918 297.268 74.4698C297.126 74.5479 297.007 74.6565 296.912 74.7957C296.82 74.9315 296.751 75.091 296.703 75.2743C296.656 75.4576 296.632 75.6544 296.632 75.8649Z" fill="black"/>
<circle cx="179.918" cy="129.24" r="13.0001" fill="#FAFAFA" stroke="black" stroke-width="0.942771"/>
<circle cx="179.917" cy="129.241" r="8.85503" fill="#FF1744" stroke="black" stroke-width="0.942771"/>
<circle cx="269.037" cy="129.24" r="25.4353" fill="#FAFAFA" stroke="black" stroke-width="0.942771"/>
<circle r="18.6528" transform="matrix(1 0 0 -1 269.037 129.24)" fill="#DCE0E9"/>
<circle r="11.9638" transform="matrix(1 0 0 -1 269.037 129.24)" fill="#FAFAFA" stroke="black" stroke-width="0.942771"/>
<circle cx="218.259" cy="129.24" r="9.23292" fill="#92989E" stroke="black" stroke-width="1.88554"/>
<circle cx="319.814" cy="129.24" r="7.81877" fill="#92989E" stroke="black" stroke-width="0.942771"/>
<rect x="177.176" y="158.727" width="120.641" height="18.6224" rx="2.35693" fill="#DCE0E9" stroke="black" stroke-width="0.942771"/>
<path d="M201.451 163.292H203.804C204.338 163.292 204.789 163.373 205.157 163.536C205.528 163.699 205.809 163.94 206.002 164.259C206.197 164.574 206.294 164.963 206.294 165.426C206.294 165.751 206.228 166.049 206.094 166.319C205.964 166.586 205.775 166.814 205.528 167.003C205.284 167.188 204.991 167.327 204.649 167.418L204.385 167.52H202.173L202.164 166.754H203.834C204.172 166.754 204.454 166.695 204.678 166.578C204.903 166.458 205.072 166.296 205.186 166.095C205.3 165.893 205.357 165.67 205.357 165.426C205.357 165.152 205.303 164.913 205.196 164.708C205.088 164.503 204.919 164.345 204.688 164.234C204.46 164.12 204.166 164.063 203.804 164.063H202.393V170.401H201.451V163.292ZM205.606 170.401L203.877 167.179L204.859 167.174L206.612 170.343V170.401H205.606ZM212.129 169.635V170.401H208.365V169.635H212.129ZM208.555 163.292V170.401H207.613V163.292H208.555ZM211.631 166.349V167.115H208.365V166.349H211.631ZM212.081 163.292V164.063H208.365V163.292H212.081ZM217.085 168.604C217.085 168.438 217.059 168.292 217.007 168.165C216.959 168.035 216.871 167.918 216.744 167.813C216.62 167.709 216.447 167.61 216.226 167.516C216.008 167.421 215.731 167.325 215.396 167.227C215.044 167.123 214.727 167.008 214.444 166.881C214.161 166.751 213.918 166.602 213.716 166.436C213.515 166.27 213.36 166.08 213.252 165.865C213.145 165.65 213.091 165.405 213.091 165.128C213.091 164.851 213.148 164.596 213.262 164.361C213.376 164.127 213.539 163.923 213.751 163.751C213.965 163.575 214.221 163.438 214.517 163.341C214.813 163.243 215.144 163.194 215.508 163.194C216.042 163.194 216.495 163.297 216.866 163.502C217.24 163.704 217.525 163.969 217.72 164.298C217.916 164.623 218.013 164.972 218.013 165.343H217.076C217.076 165.076 217.019 164.84 216.905 164.635C216.791 164.426 216.618 164.264 216.387 164.146C216.156 164.026 215.863 163.966 215.508 163.966C215.173 163.966 214.896 164.016 214.678 164.117C214.46 164.218 214.297 164.355 214.19 164.527C214.086 164.7 214.034 164.897 214.034 165.118C214.034 165.268 214.065 165.405 214.127 165.528C214.192 165.649 214.291 165.761 214.424 165.865C214.561 165.969 214.734 166.065 214.942 166.153C215.154 166.241 215.406 166.326 215.699 166.407C216.102 166.521 216.451 166.648 216.744 166.788C217.037 166.928 217.278 167.086 217.466 167.262C217.658 167.434 217.8 167.631 217.891 167.852C217.986 168.071 218.033 168.318 218.033 168.595C218.033 168.884 217.974 169.146 217.857 169.381C217.74 169.615 217.572 169.815 217.354 169.981C217.136 170.147 216.874 170.276 216.568 170.367C216.265 170.455 215.927 170.499 215.552 170.499C215.224 170.499 214.9 170.453 214.581 170.362C214.265 170.271 213.977 170.134 213.716 169.952C213.459 169.77 213.252 169.545 213.096 169.278C212.943 169.008 212.867 168.696 212.867 168.341H213.804C213.804 168.585 213.851 168.795 213.946 168.971C214.04 169.143 214.169 169.286 214.332 169.4C214.498 169.514 214.685 169.599 214.893 169.654C215.105 169.706 215.324 169.732 215.552 169.732C215.881 169.732 216.159 169.687 216.387 169.596C216.615 169.504 216.788 169.374 216.905 169.205C217.025 169.036 217.085 168.835 217.085 168.604ZM223.751 169.635V170.401H219.986V169.635H223.751ZM220.176 163.292V170.401H219.234V163.292H220.176ZM223.252 166.349V167.115H219.986V166.349H223.252ZM223.702 163.292V164.063H219.986V163.292H223.702ZM227.642 163.292V170.401H226.714V163.292H227.642ZM229.927 163.292V164.063H224.434V163.292H229.927ZM238.282 167.076H236.48L236.47 166.319H238.106C238.376 166.319 238.612 166.274 238.814 166.182C239.016 166.091 239.172 165.961 239.283 165.792C239.397 165.619 239.454 165.414 239.454 165.177C239.454 164.916 239.403 164.705 239.302 164.542C239.205 164.376 239.053 164.255 238.848 164.181C238.646 164.102 238.389 164.063 238.077 164.063H236.69V170.401H235.748V163.292H238.077C238.441 163.292 238.767 163.329 239.053 163.404C239.34 163.476 239.582 163.59 239.781 163.746C239.983 163.899 240.136 164.094 240.24 164.332C240.344 164.57 240.396 164.854 240.396 165.186C240.396 165.479 240.321 165.745 240.171 165.982C240.022 166.217 239.813 166.409 239.546 166.558C239.283 166.708 238.974 166.804 238.619 166.847L238.282 167.076ZM238.238 170.401H236.109L236.641 169.635H238.238C238.537 169.635 238.791 169.583 239 169.478C239.211 169.374 239.372 169.228 239.483 169.039C239.594 168.847 239.649 168.621 239.649 168.36C239.649 168.097 239.602 167.869 239.507 167.677C239.413 167.485 239.265 167.336 239.063 167.232C238.861 167.128 238.601 167.076 238.282 167.076H236.939L236.949 166.319H238.785L238.985 166.593C239.327 166.622 239.616 166.72 239.854 166.886C240.092 167.048 240.272 167.257 240.396 167.511C240.523 167.765 240.586 168.044 240.586 168.35C240.586 168.793 240.489 169.168 240.293 169.474C240.101 169.776 239.83 170.007 239.478 170.167C239.127 170.323 238.713 170.401 238.238 170.401ZM246.045 163.292H246.983V168.101C246.983 168.635 246.864 169.08 246.627 169.434C246.389 169.789 246.073 170.056 245.679 170.235C245.289 170.411 244.864 170.499 244.405 170.499C243.923 170.499 243.487 170.411 243.096 170.235C242.709 170.056 242.401 169.789 242.173 169.434C241.949 169.08 241.836 168.635 241.836 168.101V163.292H242.769V168.101C242.769 168.473 242.837 168.779 242.974 169.019C243.111 169.26 243.301 169.439 243.545 169.557C243.793 169.674 244.079 169.732 244.405 169.732C244.734 169.732 245.02 169.674 245.264 169.557C245.512 169.439 245.704 169.26 245.84 169.019C245.977 168.779 246.045 168.473 246.045 168.101V163.292ZM251.089 163.292V170.401H250.162V163.292H251.089ZM253.375 163.292V164.063H247.881V163.292H253.375ZM257.134 163.292V170.401H256.207V163.292H257.134ZM259.419 163.292V164.063H253.926V163.292H259.419ZM265.811 166.622V167.071C265.811 167.605 265.744 168.084 265.611 168.507C265.477 168.93 265.285 169.29 265.035 169.586C264.784 169.882 264.483 170.108 264.131 170.265C263.783 170.421 263.392 170.499 262.96 170.499C262.54 170.499 262.154 170.421 261.802 170.265C261.454 170.108 261.151 169.882 260.894 169.586C260.64 169.29 260.443 168.93 260.303 168.507C260.163 168.084 260.093 167.605 260.093 167.071V166.622C260.093 166.088 260.162 165.611 260.298 165.191C260.438 164.768 260.635 164.408 260.889 164.112C261.143 163.813 261.444 163.585 261.793 163.429C262.144 163.272 262.53 163.194 262.95 163.194C263.383 163.194 263.773 163.272 264.122 163.429C264.473 163.585 264.774 163.813 265.025 164.112C265.279 164.408 265.473 164.768 265.606 165.191C265.743 165.611 265.811 166.088 265.811 166.622ZM264.878 167.071V166.612C264.878 166.189 264.835 165.815 264.747 165.489C264.662 165.164 264.537 164.89 264.371 164.669C264.205 164.447 264.001 164.28 263.76 164.166C263.523 164.052 263.252 163.995 262.95 163.995C262.657 163.995 262.391 164.052 262.154 164.166C261.919 164.28 261.718 164.447 261.548 164.669C261.382 164.89 261.254 165.164 261.163 165.489C261.071 165.815 261.026 166.189 261.026 166.612V167.071C261.026 167.498 261.071 167.875 261.163 168.204C261.254 168.53 261.384 168.805 261.553 169.029C261.726 169.251 261.929 169.418 262.164 169.532C262.401 169.646 262.667 169.703 262.96 169.703C263.266 169.703 263.537 169.646 263.775 169.532C264.013 169.418 264.213 169.251 264.376 169.029C264.542 168.805 264.667 168.53 264.752 168.204C264.836 167.875 264.878 167.498 264.878 167.071ZM272.691 163.292V170.401H271.744L268.165 164.918V170.401H267.222V163.292H268.165L271.758 168.79V163.292H272.691Z" fill="#4B4D4E"/>
<path d="M269.467 85.4987C269.467 85.2383 269.255 85.0273 268.995 85.0273C268.735 85.0273 268.524 85.2383 268.524 85.4987L269.467 85.4987ZM268.995 99.7879L271.717 95.0741L266.274 95.0741L268.995 99.7879ZM268.524 85.4987L268.524 95.5454L269.467 95.5454L269.467 85.4987L268.524 85.4987Z" fill="black"/>
<path d="M180.238 107.517C178.849 107.517 177.724 108.643 177.724 110.031C177.724 111.42 178.849 112.546 180.238 112.546C181.626 112.546 182.752 111.42 182.752 110.031C182.752 108.643 181.626 107.517 180.238 107.517ZM180.709 84.7505C180.709 84.4901 180.498 84.2791 180.238 84.2791C179.977 84.2791 179.766 84.4901 179.766 84.7505L180.709 84.7505ZM179.766 84.7505L179.766 110.031L180.709 110.031L180.709 84.7505L179.766 84.7505Z" fill="#92989E"/>
</svg>
