<svg width="412" height="892" viewBox="0 0 412 892" fill="none" xmlns="http://www.w3.org/2000/svg">
<g clip-path="url(#clip0_56193_25109)">
<rect width="412" height="892" fill="#FAFAFA"/>
<path d="M26.0781 35.7012H26.2148C26.8438 35.7012 27.3678 35.6191 27.7871 35.4551C28.2109 35.2865 28.5482 35.054 28.7988 34.7578C29.0495 34.4616 29.2295 34.113 29.3389 33.7119C29.4482 33.3109 29.5029 32.8757 29.5029 32.4062V30.6904C29.5029 30.2848 29.4596 29.9294 29.373 29.624C29.291 29.3141 29.1725 29.0566 29.0176 28.8516C28.8672 28.6419 28.6917 28.4847 28.4912 28.3799C28.2952 28.2751 28.0833 28.2227 27.8555 28.2227C27.6048 28.2227 27.3792 28.2796 27.1787 28.3936C26.9827 28.5029 26.8164 28.6556 26.6797 28.8516C26.5475 29.043 26.445 29.2686 26.3721 29.5283C26.3037 29.7835 26.2695 30.057 26.2695 30.3486C26.2695 30.6221 26.3014 30.8864 26.3652 31.1416C26.4336 31.3923 26.5339 31.6156 26.666 31.8115C26.7982 32.0075 26.9645 32.1624 27.165 32.2764C27.3656 32.3903 27.6003 32.4473 27.8691 32.4473C28.1243 32.4473 28.359 32.3994 28.5732 32.3037C28.7874 32.2035 28.9743 32.069 29.1338 31.9004C29.2933 31.7318 29.4186 31.5426 29.5098 31.333C29.6009 31.1234 29.651 30.9092 29.6602 30.6904L30.2891 30.8818C30.2891 31.2282 30.2161 31.57 30.0703 31.9072C29.929 32.2399 29.7308 32.5452 29.4756 32.8232C29.2249 33.0967 28.931 33.3154 28.5938 33.4795C28.2611 33.6436 27.8988 33.7256 27.5068 33.7256C27.0329 33.7256 26.6136 33.6367 26.249 33.459C25.889 33.2767 25.5882 33.0306 25.3467 32.7207C25.1097 32.4108 24.932 32.0553 24.8135 31.6543C24.695 31.2533 24.6357 30.8317 24.6357 30.3896C24.6357 29.9111 24.7087 29.4622 24.8545 29.043C25.0003 28.6237 25.2122 28.2546 25.4902 27.9355C25.7682 27.612 26.1055 27.3613 26.502 27.1836C26.903 27.0013 27.3564 26.9102 27.8623 26.9102C28.4001 26.9102 28.8717 27.015 29.2773 27.2246C29.6829 27.4342 30.0247 27.7236 30.3027 28.0928C30.5807 28.4619 30.7904 28.8903 30.9316 29.3779C31.0729 29.8656 31.1436 30.3896 31.1436 30.9502V31.5312C31.1436 32.1191 31.0911 32.6865 30.9863 33.2334C30.8815 33.7757 30.7106 34.2793 30.4736 34.7441C30.2412 35.2044 29.9336 35.61 29.5508 35.9609C29.1725 36.3073 28.7077 36.5785 28.1562 36.7744C27.6094 36.9658 26.9668 37.0615 26.2285 37.0615H26.0781V35.7012ZM33.1019 36.1797C33.1019 35.9245 33.1885 35.7103 33.3617 35.5371C33.5349 35.3594 33.7696 35.2705 34.0658 35.2705C34.3666 35.2705 34.6013 35.3594 34.7699 35.5371C34.9431 35.7103 35.0296 35.9245 35.0296 36.1797C35.0296 36.4349 34.9431 36.6491 34.7699 36.8223C34.6013 36.9954 34.3666 37.082 34.0658 37.082C33.7696 37.082 33.5349 36.9954 33.3617 36.8223C33.1885 36.6491 33.1019 36.4349 33.1019 36.1797ZM33.1088 30.3555C33.1088 30.1003 33.1953 29.8861 33.3685 29.7129C33.5417 29.5352 33.7764 29.4463 34.0726 29.4463C34.3734 29.4463 34.6081 29.5352 34.7767 29.7129C34.9499 29.8861 35.0365 30.1003 35.0365 30.3555C35.0365 30.6107 34.9499 30.8249 34.7767 30.998C34.6081 31.1712 34.3734 31.2578 34.0726 31.2578C33.7764 31.2578 33.5417 31.1712 33.3685 30.998C33.1953 30.8249 33.1088 30.6107 33.1088 30.3555ZM38.7517 31.2783H39.7361C40.1189 31.2783 40.4356 31.2122 40.6862 31.0801C40.9415 30.9479 41.1306 30.7656 41.2536 30.5332C41.3767 30.3008 41.4382 30.0342 41.4382 29.7334C41.4382 29.4189 41.3812 29.1501 41.2673 28.9268C41.1579 28.6989 40.9893 28.5234 40.7614 28.4004C40.5381 28.2773 40.2533 28.2158 39.907 28.2158C39.6153 28.2158 39.351 28.2751 39.114 28.3936C38.8816 28.5075 38.697 28.6715 38.5603 28.8857C38.4236 29.0954 38.3552 29.346 38.3552 29.6377H36.7009C36.7009 29.109 36.8399 28.6396 37.1179 28.2295C37.3959 27.8193 37.7741 27.498 38.2527 27.2656C38.7357 27.0286 39.278 26.9102 39.8796 26.9102C40.5222 26.9102 41.0827 27.0173 41.5612 27.2314C42.0443 27.4411 42.4203 27.7555 42.6892 28.1748C42.9581 28.5941 43.0925 29.1136 43.0925 29.7334C43.0925 30.016 43.0264 30.3031 42.8943 30.5947C42.7621 30.8864 42.5661 31.153 42.3064 31.3945C42.0466 31.6315 41.723 31.8252 41.3357 31.9756C40.9483 32.1214 40.4994 32.1943 39.989 32.1943H38.7517V31.2783ZM38.7517 32.5635V31.6611H39.989C40.5723 31.6611 41.0691 31.7295 41.4792 31.8662C41.8939 32.0029 42.2312 32.1921 42.4909 32.4336C42.7507 32.6706 42.9398 32.9417 43.0583 33.2471C43.1814 33.5524 43.2429 33.876 43.2429 34.2178C43.2429 34.6826 43.1586 35.0973 42.99 35.4619C42.8259 35.8219 42.5912 36.1273 42.2859 36.3779C41.9805 36.6286 41.6228 36.8177 41.2126 36.9453C40.807 37.0729 40.365 37.1367 39.8864 37.1367C39.4581 37.1367 39.0479 37.0775 38.656 36.959C38.264 36.8405 37.9131 36.665 37.6032 36.4326C37.2933 36.1956 37.0473 35.9017 36.865 35.5508C36.6872 35.1953 36.5984 34.7852 36.5984 34.3203H38.2458C38.2458 34.6165 38.3142 34.8786 38.4509 35.1064C38.5922 35.3298 38.7881 35.5052 39.0388 35.6328C39.294 35.7604 39.5857 35.8242 39.9138 35.8242C40.2601 35.8242 40.5586 35.7627 40.8093 35.6396C41.0599 35.5166 41.2514 35.3343 41.3835 35.0928C41.5202 34.8512 41.5886 34.5596 41.5886 34.2178C41.5886 33.8304 41.5134 33.516 41.363 33.2744C41.2126 33.0329 40.9984 32.8551 40.7204 32.7412C40.4424 32.6227 40.1143 32.5635 39.7361 32.5635H38.7517ZM51.5382 31.1895V32.8164C51.5382 33.5957 51.4607 34.2611 51.3057 34.8125C51.1554 35.3594 50.9366 35.8037 50.6495 36.1455C50.3624 36.4873 50.0183 36.738 49.6173 36.8975C49.2208 37.057 48.7764 37.1367 48.2843 37.1367C47.8923 37.1367 47.5277 37.0866 47.1905 36.9863C46.8578 36.8861 46.557 36.7288 46.2882 36.5146C46.0193 36.3005 45.7891 36.0247 45.5977 35.6875C45.4109 35.3457 45.2651 34.9378 45.1602 34.4639C45.06 33.9899 45.0098 33.4408 45.0098 32.8164V31.1895C45.0098 30.4056 45.0873 29.7448 45.2423 29.207C45.3972 28.6647 45.6182 28.2249 45.9054 27.8877C46.1925 27.5459 46.5343 27.2975 46.9307 27.1426C47.3318 26.9876 47.7784 26.9102 48.2706 26.9102C48.6671 26.9102 49.0317 26.9603 49.3643 27.0605C49.7016 27.1562 50.0024 27.3089 50.2667 27.5186C50.5356 27.7282 50.7634 28.0016 50.9503 28.3389C51.1417 28.6715 51.2875 29.0749 51.3878 29.5488C51.488 30.0182 51.5382 30.5651 51.5382 31.1895ZM49.8907 33.0488V30.9434C49.8907 30.5469 49.8679 30.1982 49.8223 29.8975C49.7768 29.5921 49.7084 29.3346 49.6173 29.125C49.5307 28.9108 49.4213 28.7376 49.2891 28.6055C49.157 28.4688 49.0066 28.3708 48.838 28.3115C48.6693 28.2477 48.4802 28.2158 48.2706 28.2158C48.0154 28.2158 47.7875 28.266 47.587 28.3662C47.3865 28.4619 47.2179 28.6169 47.0811 28.8311C46.9444 29.0452 46.8396 29.3278 46.7667 29.6787C46.6983 30.0251 46.6641 30.4466 46.6641 30.9434V33.0488C46.6641 33.4499 46.6869 33.8031 46.7325 34.1084C46.7781 34.4137 46.8464 34.6758 46.9376 34.8945C47.0287 35.1087 47.1381 35.2865 47.2657 35.4277C47.3979 35.5645 47.5483 35.6647 47.7169 35.7285C47.8901 35.7923 48.0792 35.8242 48.2843 35.8242C48.544 35.8242 48.7742 35.7741 48.9747 35.6738C49.1752 35.5736 49.3438 35.4141 49.4805 35.1953C49.6173 34.972 49.7198 34.6826 49.7882 34.3271C49.8565 33.9717 49.8907 33.5456 49.8907 33.0488Z" fill="#1F1F1F"/>
<path opacity="0.1" d="M350.5 26.4167C347.1 26.4167 344.125 27.9042 342 30.2417L350.5 40.5833L359 30.2417C356.875 27.9042 353.9 26.4167 350.5 26.4167Z" fill="#1F1F1F"/>
<path d="M373.584 26.4167L359.417 40.5833H373.584V26.4167Z" fill="#1F1F1F"/>
<path d="M385.5 26H382.5V27.5H381C380.448 27.5 380 28.0037 380 28.625V39.875C380 40.4963 380.448 41 381 41H387C387.552 41 388 40.4963 388 39.875V28.625C388 28.0037 387.552 27.5 387 27.5H385.5V26Z" fill="#1F1F1F" fill-opacity="0.3"/>
<path d="M380 34C380 34.5833 380 39.3667 380 39.95C380 40.5299 380.448 41 381 41H387C387.552 41 388 40.5299 388 39.95C388 39.3667 388 34.5833 388 34H380Z" fill="#1F1F1F"/>
</g>
<rect x="20" y="822" width="372" height="50" rx="5" fill="#0A3FAD"/>
<path d="M170.856 849.422L173.201 841.547H175.484L172.019 851.5H170.515L170.856 849.422ZM168.696 841.547L171.034 849.422L171.39 851.5H169.872L166.427 841.547H168.696ZM178.369 844.104V851.5H176.394V844.104H178.369ZM176.271 842.176C176.271 841.889 176.371 841.652 176.571 841.465C176.772 841.278 177.041 841.185 177.378 841.185C177.711 841.185 177.977 841.278 178.178 841.465C178.383 841.652 178.485 841.889 178.485 842.176C178.485 842.463 178.383 842.7 178.178 842.887C177.977 843.074 177.711 843.167 177.378 843.167C177.041 843.167 176.772 843.074 176.571 842.887C176.371 842.7 176.271 842.463 176.271 842.176ZM183.4 851.637C182.826 851.637 182.311 851.546 181.855 851.363C181.4 851.176 181.012 850.919 180.693 850.591C180.379 850.263 180.137 849.882 179.969 849.449C179.8 849.012 179.716 848.547 179.716 848.055V847.781C179.716 847.221 179.796 846.708 179.955 846.243C180.115 845.778 180.342 845.375 180.639 845.033C180.939 844.691 181.304 844.429 181.732 844.247C182.161 844.06 182.644 843.967 183.182 843.967C183.706 843.967 184.171 844.053 184.576 844.227C184.982 844.4 185.321 844.646 185.595 844.965C185.873 845.284 186.082 845.667 186.224 846.113C186.365 846.555 186.436 847.048 186.436 847.59V848.41H180.557V847.098H184.501V846.947C184.501 846.674 184.451 846.43 184.351 846.216C184.255 845.997 184.109 845.824 183.913 845.696C183.717 845.569 183.466 845.505 183.161 845.505C182.901 845.505 182.678 845.562 182.491 845.676C182.304 845.79 182.152 845.949 182.033 846.154C181.919 846.359 181.833 846.601 181.773 846.879C181.719 847.152 181.691 847.453 181.691 847.781V848.055C181.691 848.351 181.732 848.624 181.814 848.875C181.901 849.126 182.022 849.342 182.177 849.524C182.336 849.707 182.528 849.848 182.751 849.948C182.979 850.049 183.236 850.099 183.523 850.099C183.879 850.099 184.209 850.03 184.515 849.894C184.825 849.752 185.091 849.54 185.314 849.258L186.271 850.297C186.117 850.52 185.905 850.734 185.636 850.939C185.371 851.145 185.052 851.313 184.679 851.445C184.305 851.573 183.879 851.637 183.4 851.637ZM189.669 849.586L191.207 844.104H192.458L192.055 846.257L190.517 851.5H189.471L189.669 849.586ZM188.89 844.104L189.99 849.579L190.093 851.5H188.862L186.989 844.104H188.89ZM193.866 849.49L194.939 844.104H196.847L194.974 851.5H193.75L193.866 849.49ZM192.629 844.104L194.16 849.545L194.372 851.5H193.319L191.781 846.264L191.392 844.104H192.629ZM206.629 848.896C206.629 848.718 206.602 848.558 206.547 848.417C206.497 848.271 206.401 848.139 206.26 848.021C206.118 847.897 205.92 847.777 205.665 847.658C205.41 847.54 205.079 847.417 204.674 847.289C204.223 847.143 203.794 846.979 203.389 846.797C202.988 846.615 202.632 846.403 202.322 846.161C202.017 845.915 201.775 845.63 201.598 845.307C201.424 844.983 201.338 844.607 201.338 844.179C201.338 843.764 201.429 843.388 201.611 843.051C201.794 842.709 202.049 842.417 202.377 842.176C202.705 841.93 203.092 841.741 203.539 841.608C203.99 841.476 204.485 841.41 205.022 841.41C205.756 841.41 206.396 841.542 206.943 841.807C207.49 842.071 207.914 842.433 208.215 842.894C208.52 843.354 208.673 843.88 208.673 844.473H206.636C206.636 844.181 206.574 843.926 206.451 843.707C206.333 843.484 206.15 843.308 205.904 843.181C205.663 843.053 205.357 842.989 204.988 842.989C204.633 842.989 204.337 843.044 204.1 843.153C203.863 843.258 203.685 843.402 203.566 843.584C203.448 843.762 203.389 843.962 203.389 844.186C203.389 844.354 203.43 844.507 203.512 844.644C203.598 844.78 203.726 844.908 203.895 845.026C204.063 845.145 204.271 845.257 204.517 845.361C204.763 845.466 205.048 845.569 205.371 845.669C205.913 845.833 206.39 846.018 206.8 846.223C207.215 846.428 207.561 846.658 207.839 846.913C208.117 847.168 208.326 847.458 208.468 847.781C208.609 848.105 208.68 848.472 208.68 848.882C208.68 849.315 208.595 849.702 208.427 850.044C208.258 850.386 208.014 850.675 207.695 850.912C207.376 851.149 206.996 851.329 206.554 851.452C206.112 851.575 205.617 851.637 205.07 851.637C204.578 851.637 204.093 851.573 203.614 851.445C203.136 851.313 202.701 851.115 202.309 850.851C201.921 850.586 201.611 850.249 201.379 849.839C201.146 849.429 201.03 848.943 201.03 848.383H203.088C203.088 848.693 203.136 848.955 203.231 849.169C203.327 849.383 203.462 849.556 203.635 849.688C203.812 849.821 204.022 849.916 204.264 849.976C204.51 850.035 204.779 850.064 205.07 850.064C205.426 850.064 205.717 850.014 205.945 849.914C206.178 849.814 206.349 849.675 206.458 849.497C206.572 849.319 206.629 849.119 206.629 848.896ZM213.574 844.104V845.498H209.268V844.104H213.574ZM210.334 842.278H212.303V849.271C212.303 849.486 212.33 849.65 212.385 849.764C212.444 849.878 212.531 849.957 212.645 850.003C212.758 850.044 212.902 850.064 213.075 850.064C213.198 850.064 213.308 850.06 213.403 850.051C213.504 850.037 213.588 850.023 213.656 850.01L213.663 851.459C213.494 851.514 213.312 851.557 213.116 851.589C212.92 851.621 212.704 851.637 212.467 851.637C212.034 851.637 211.656 851.566 211.332 851.425C211.013 851.279 210.767 851.047 210.594 850.728C210.421 850.409 210.334 849.989 210.334 849.47V842.278ZM218.688 849.832V846.537C218.688 846.3 218.649 846.097 218.571 845.929C218.494 845.756 218.373 845.621 218.209 845.525C218.049 845.43 217.842 845.382 217.587 845.382C217.368 845.382 217.179 845.421 217.02 845.498C216.86 845.571 216.737 845.678 216.65 845.819C216.564 845.956 216.521 846.118 216.521 846.305H214.552C214.552 845.99 214.625 845.692 214.771 845.409C214.916 845.127 215.128 844.878 215.406 844.664C215.684 844.445 216.015 844.274 216.397 844.151C216.785 844.028 217.218 843.967 217.696 843.967C218.271 843.967 218.781 844.062 219.228 844.254C219.674 844.445 220.025 844.732 220.28 845.115C220.54 845.498 220.67 845.977 220.67 846.551V849.716C220.67 850.121 220.695 850.454 220.745 850.714C220.795 850.969 220.868 851.192 220.964 851.384V851.5H218.975C218.879 851.299 218.806 851.049 218.756 850.748C218.71 850.443 218.688 850.137 218.688 849.832ZM218.947 846.995L218.961 848.109H217.86C217.601 848.109 217.375 848.139 217.184 848.198C216.992 848.257 216.835 848.342 216.712 848.451C216.589 848.556 216.498 848.679 216.438 848.82C216.384 848.962 216.356 849.117 216.356 849.285C216.356 849.454 216.395 849.606 216.473 849.743C216.55 849.875 216.662 849.98 216.808 850.058C216.953 850.131 217.124 850.167 217.32 850.167C217.617 850.167 217.874 850.108 218.093 849.989C218.312 849.871 218.48 849.725 218.599 849.552C218.722 849.379 218.785 849.215 218.79 849.06L219.31 849.894C219.237 850.08 219.136 850.274 219.009 850.475C218.886 850.675 218.729 850.864 218.537 851.042C218.346 851.215 218.116 851.359 217.847 851.473C217.578 851.582 217.259 851.637 216.89 851.637C216.42 851.637 215.994 851.543 215.611 851.356C215.233 851.165 214.932 850.903 214.709 850.57C214.49 850.233 214.381 849.85 214.381 849.422C214.381 849.035 214.454 848.69 214.6 848.39C214.745 848.089 214.96 847.836 215.242 847.631C215.529 847.421 215.887 847.264 216.315 847.159C216.744 847.05 217.241 846.995 217.806 846.995H218.947ZM225.811 844.104V845.498H221.504V844.104H225.811ZM222.57 842.278H224.539V849.271C224.539 849.486 224.566 849.65 224.621 849.764C224.68 849.878 224.767 849.957 224.881 850.003C224.995 850.044 225.138 850.064 225.312 850.064C225.435 850.064 225.544 850.06 225.64 850.051C225.74 850.037 225.824 850.023 225.893 850.01L225.899 851.459C225.731 851.514 225.549 851.557 225.353 851.589C225.157 851.621 224.94 851.637 224.703 851.637C224.27 851.637 223.892 851.566 223.568 851.425C223.249 851.279 223.003 851.047 222.83 850.728C222.657 850.409 222.57 849.989 222.57 849.47V842.278ZM229.01 844.104V851.5H227.034V844.104H229.01ZM226.911 842.176C226.911 841.889 227.011 841.652 227.212 841.465C227.412 841.278 227.681 841.185 228.019 841.185C228.351 841.185 228.618 841.278 228.818 841.465C229.023 841.652 229.126 841.889 229.126 842.176C229.126 842.463 229.023 842.7 228.818 842.887C228.618 843.074 228.351 843.167 228.019 843.167C227.681 843.167 227.412 843.074 227.212 842.887C227.011 842.7 226.911 842.463 226.911 842.176ZM230.322 847.877V847.733C230.322 847.191 230.4 846.692 230.555 846.236C230.71 845.776 230.935 845.377 231.231 845.04C231.528 844.703 231.892 844.441 232.325 844.254C232.758 844.062 233.255 843.967 233.815 843.967C234.376 843.967 234.875 844.062 235.312 844.254C235.75 844.441 236.117 844.703 236.413 845.04C236.714 845.377 236.942 845.776 237.097 846.236C237.252 846.692 237.329 847.191 237.329 847.733V847.877C237.329 848.415 237.252 848.914 237.097 849.374C236.942 849.83 236.714 850.229 236.413 850.57C236.117 850.908 235.752 851.17 235.319 851.356C234.886 851.543 234.39 851.637 233.829 851.637C233.269 851.637 232.77 851.543 232.332 851.356C231.899 851.17 231.532 850.908 231.231 850.57C230.935 850.229 230.71 849.83 230.555 849.374C230.4 848.914 230.322 848.415 230.322 847.877ZM232.291 847.733V847.877C232.291 848.187 232.318 848.476 232.373 848.745C232.428 849.014 232.514 849.251 232.633 849.456C232.756 849.657 232.915 849.814 233.111 849.928C233.307 850.042 233.547 850.099 233.829 850.099C234.103 850.099 234.337 850.042 234.533 849.928C234.729 849.814 234.886 849.657 235.005 849.456C235.123 849.251 235.21 849.014 235.265 848.745C235.324 848.476 235.354 848.187 235.354 847.877V847.733C235.354 847.433 235.324 847.15 235.265 846.886C235.21 846.617 235.121 846.38 234.998 846.175C234.88 845.965 234.722 845.801 234.526 845.683C234.33 845.564 234.093 845.505 233.815 845.505C233.537 845.505 233.3 845.564 233.104 845.683C232.913 845.801 232.756 845.965 232.633 846.175C232.514 846.38 232.428 846.617 232.373 846.886C232.318 847.15 232.291 847.433 232.291 847.733ZM240.467 845.683V851.5H238.498V844.104H240.344L240.467 845.683ZM240.18 847.542H239.646C239.646 846.995 239.717 846.503 239.858 846.065C240 845.623 240.198 845.247 240.453 844.938C240.708 844.623 241.011 844.384 241.362 844.22C241.718 844.051 242.114 843.967 242.552 843.967C242.898 843.967 243.215 844.017 243.502 844.117C243.789 844.217 244.035 844.377 244.24 844.596C244.45 844.814 244.609 845.104 244.719 845.464C244.833 845.824 244.89 846.264 244.89 846.783V851.5H242.907V846.776C242.907 846.448 242.862 846.193 242.771 846.011C242.679 845.828 242.545 845.701 242.367 845.628C242.194 845.55 241.98 845.512 241.725 845.512C241.46 845.512 241.23 845.564 241.034 845.669C240.843 845.774 240.683 845.92 240.556 846.106C240.433 846.289 240.339 846.503 240.275 846.749C240.212 846.995 240.18 847.259 240.18 847.542Z" fill="#FAFAFA"/>
<path d="M75.3516 531.047L77.9355 536.044L80.5264 531.047H82.0234L78.5918 537.281V541H77.2725V537.281L73.8408 531.047H75.3516ZM82.3242 537.384V537.227C82.3242 536.693 82.4017 536.199 82.5566 535.743C82.7116 535.283 82.9349 534.884 83.2266 534.547C83.5182 534.205 83.8714 533.941 84.2861 533.754C84.7008 533.562 85.1657 533.467 85.6807 533.467C86.2002 533.467 86.6673 533.562 87.082 533.754C87.5013 533.941 87.8568 534.205 88.1484 534.547C88.4447 534.884 88.6702 535.283 88.8252 535.743C88.9801 536.199 89.0576 536.693 89.0576 537.227V537.384C89.0576 537.917 88.9801 538.411 88.8252 538.867C88.6702 539.323 88.4447 539.722 88.1484 540.063C87.8568 540.401 87.5036 540.665 87.0889 540.856C86.6787 541.043 86.2139 541.137 85.6943 541.137C85.1748 541.137 84.7077 541.043 84.293 540.856C83.8783 540.665 83.5228 540.401 83.2266 540.063C82.9349 539.722 82.7116 539.323 82.5566 538.867C82.4017 538.411 82.3242 537.917 82.3242 537.384ZM83.5889 537.227V537.384C83.5889 537.753 83.6322 538.102 83.7188 538.43C83.8053 538.753 83.9352 539.04 84.1084 539.291C84.2861 539.542 84.5072 539.74 84.7715 539.886C85.0358 540.027 85.3434 540.098 85.6943 540.098C86.0407 540.098 86.3438 540.027 86.6035 539.886C86.8678 539.74 87.0866 539.542 87.2598 539.291C87.4329 539.04 87.5628 538.753 87.6494 538.43C87.7406 538.102 87.7861 537.753 87.7861 537.384V537.227C87.7861 536.862 87.7406 536.518 87.6494 536.194C87.5628 535.866 87.4307 535.577 87.2529 535.326C87.0798 535.071 86.861 534.87 86.5967 534.725C86.3369 534.579 86.0316 534.506 85.6807 534.506C85.3343 534.506 85.029 534.579 84.7646 534.725C84.5049 534.87 84.2861 535.071 84.1084 535.326C83.9352 535.577 83.8053 535.866 83.7188 536.194C83.6322 536.518 83.5889 536.862 83.5889 537.227ZM95.1689 539.291V533.604H96.4404V541H95.2305L95.1689 539.291ZM95.4082 537.732L95.9346 537.719C95.9346 538.211 95.8822 538.667 95.7773 539.086C95.6771 539.501 95.513 539.861 95.2852 540.166C95.0573 540.471 94.7588 540.711 94.3896 540.884C94.0205 541.052 93.5716 541.137 93.043 541.137C92.6829 541.137 92.3525 541.084 92.0518 540.979C91.7555 540.875 91.5003 540.713 91.2861 540.494C91.0719 540.275 90.9056 539.991 90.7871 539.64C90.6732 539.289 90.6162 538.867 90.6162 538.375V533.604H91.8809V538.389C91.8809 538.721 91.9173 538.997 91.9902 539.216C92.0677 539.43 92.1702 539.601 92.2979 539.729C92.43 539.852 92.5758 539.938 92.7354 539.988C92.8994 540.038 93.068 540.063 93.2412 540.063C93.779 540.063 94.2051 539.961 94.5195 539.756C94.834 539.546 95.0596 539.266 95.1963 538.915C95.3376 538.56 95.4082 538.165 95.4082 537.732ZM99.6328 534.766V541H98.3682V533.604H99.5986L99.6328 534.766ZM101.943 533.562L101.937 534.738C101.832 534.715 101.731 534.702 101.636 534.697C101.545 534.688 101.44 534.684 101.321 534.684C101.03 534.684 100.772 534.729 100.549 534.82C100.326 534.911 100.136 535.039 99.9814 535.203C99.8265 535.367 99.7035 535.563 99.6123 535.791C99.5257 536.014 99.4688 536.26 99.4414 536.529L99.0859 536.734C99.0859 536.288 99.1292 535.868 99.2158 535.477C99.307 535.085 99.446 534.738 99.6328 534.438C99.8197 534.132 100.057 533.895 100.344 533.727C100.635 533.553 100.982 533.467 101.383 533.467C101.474 533.467 101.579 533.478 101.697 533.501C101.816 533.519 101.898 533.54 101.943 533.562ZM110.892 539.038C110.892 538.856 110.851 538.687 110.769 538.532C110.691 538.373 110.529 538.229 110.283 538.102C110.042 537.969 109.677 537.855 109.189 537.76C108.779 537.673 108.408 537.571 108.075 537.452C107.747 537.334 107.467 537.19 107.234 537.021C107.007 536.853 106.831 536.655 106.708 536.427C106.585 536.199 106.523 535.932 106.523 535.627C106.523 535.335 106.587 535.06 106.715 534.8C106.847 534.54 107.032 534.31 107.269 534.109C107.51 533.909 107.799 533.752 108.137 533.638C108.474 533.524 108.85 533.467 109.265 533.467C109.857 533.467 110.363 533.572 110.782 533.781C111.201 533.991 111.523 534.271 111.746 534.622C111.969 534.968 112.081 535.354 112.081 535.777H110.816C110.816 535.572 110.755 535.374 110.632 535.183C110.513 534.987 110.338 534.825 110.105 534.697C109.878 534.57 109.597 534.506 109.265 534.506C108.914 534.506 108.629 534.561 108.41 534.67C108.196 534.775 108.039 534.909 107.938 535.073C107.843 535.237 107.795 535.41 107.795 535.593C107.795 535.729 107.818 535.853 107.863 535.962C107.913 536.067 108 536.165 108.123 536.256C108.246 536.342 108.419 536.424 108.643 536.502C108.866 536.579 109.151 536.657 109.497 536.734C110.103 536.871 110.602 537.035 110.994 537.227C111.386 537.418 111.678 537.653 111.869 537.931C112.061 538.209 112.156 538.546 112.156 538.942C112.156 539.266 112.088 539.562 111.951 539.831C111.819 540.1 111.625 540.332 111.37 540.528C111.119 540.72 110.819 540.87 110.468 540.979C110.121 541.084 109.732 541.137 109.299 541.137C108.647 541.137 108.096 541.021 107.645 540.788C107.193 540.556 106.852 540.255 106.619 539.886C106.387 539.517 106.271 539.127 106.271 538.717H107.542C107.56 539.063 107.66 539.339 107.843 539.544C108.025 539.744 108.248 539.888 108.513 539.975C108.777 540.057 109.039 540.098 109.299 540.098C109.645 540.098 109.935 540.052 110.167 539.961C110.404 539.87 110.584 539.744 110.707 539.585C110.83 539.425 110.892 539.243 110.892 539.038ZM116.914 533.604V534.574H112.915V533.604H116.914ZM114.269 531.806H115.533V539.168C115.533 539.419 115.572 539.608 115.649 539.735C115.727 539.863 115.827 539.947 115.95 539.988C116.073 540.029 116.205 540.05 116.347 540.05C116.451 540.05 116.561 540.041 116.675 540.022C116.793 540 116.882 539.981 116.941 539.968L116.948 541C116.848 541.032 116.716 541.062 116.552 541.089C116.392 541.121 116.199 541.137 115.971 541.137C115.661 541.137 115.376 541.075 115.116 540.952C114.856 540.829 114.649 540.624 114.494 540.337C114.344 540.045 114.269 539.653 114.269 539.161V531.806ZM122.759 539.735V535.928C122.759 535.636 122.7 535.383 122.581 535.169C122.467 534.95 122.294 534.782 122.062 534.663C121.829 534.545 121.542 534.485 121.2 534.485C120.881 534.485 120.601 534.54 120.359 534.649C120.122 534.759 119.936 534.902 119.799 535.08C119.667 535.258 119.601 535.449 119.601 535.654H118.336C118.336 535.39 118.404 535.128 118.541 534.868C118.678 534.608 118.874 534.374 119.129 534.164C119.389 533.95 119.699 533.781 120.059 533.658C120.423 533.531 120.829 533.467 121.275 533.467C121.813 533.467 122.287 533.558 122.697 533.74C123.112 533.923 123.436 534.198 123.668 534.567C123.905 534.932 124.023 535.39 124.023 535.941V539.387C124.023 539.633 124.044 539.895 124.085 540.173C124.131 540.451 124.197 540.69 124.283 540.891V541H122.964C122.9 540.854 122.85 540.66 122.813 540.419C122.777 540.173 122.759 539.945 122.759 539.735ZM122.978 536.516L122.991 537.404H121.713C121.353 537.404 121.032 537.434 120.749 537.493C120.466 537.548 120.229 537.632 120.038 537.746C119.847 537.86 119.701 538.004 119.601 538.177C119.5 538.345 119.45 538.544 119.45 538.771C119.45 539.004 119.503 539.216 119.607 539.407C119.712 539.599 119.869 539.751 120.079 539.865C120.293 539.975 120.555 540.029 120.865 540.029C121.253 540.029 121.594 539.947 121.891 539.783C122.187 539.619 122.422 539.419 122.595 539.182C122.772 538.945 122.868 538.715 122.882 538.491L123.422 539.1C123.39 539.291 123.303 539.503 123.162 539.735C123.021 539.968 122.832 540.191 122.595 540.405C122.362 540.615 122.084 540.79 121.761 540.932C121.442 541.068 121.082 541.137 120.681 541.137C120.179 541.137 119.74 541.039 119.361 540.843C118.988 540.647 118.696 540.385 118.486 540.057C118.281 539.724 118.179 539.353 118.179 538.942C118.179 538.546 118.256 538.197 118.411 537.896C118.566 537.591 118.789 537.338 119.081 537.138C119.373 536.933 119.724 536.778 120.134 536.673C120.544 536.568 121.002 536.516 121.508 536.516H122.978ZM129.109 533.604V534.574H125.11V533.604H129.109ZM126.464 531.806H127.729V539.168C127.729 539.419 127.767 539.608 127.845 539.735C127.922 539.863 128.022 539.947 128.146 539.988C128.269 540.029 128.401 540.05 128.542 540.05C128.647 540.05 128.756 540.041 128.87 540.022C128.989 540 129.077 539.981 129.137 539.968L129.144 541C129.043 541.032 128.911 541.062 128.747 541.089C128.588 541.121 128.394 541.137 128.166 541.137C127.856 541.137 127.571 541.075 127.312 540.952C127.052 540.829 126.844 540.624 126.689 540.337C126.539 540.045 126.464 539.653 126.464 539.161V531.806ZM131.967 533.604V541H130.695V533.604H131.967ZM130.6 531.642C130.6 531.437 130.661 531.263 130.784 531.122C130.912 530.981 131.099 530.91 131.345 530.91C131.586 530.91 131.771 530.981 131.898 531.122C132.031 531.263 132.097 531.437 132.097 531.642C132.097 531.838 132.031 532.006 131.898 532.147C131.771 532.284 131.586 532.353 131.345 532.353C131.099 532.353 130.912 532.284 130.784 532.147C130.661 532.006 130.6 531.838 130.6 531.642ZM133.662 537.384V537.227C133.662 536.693 133.74 536.199 133.895 535.743C134.049 535.283 134.273 534.884 134.564 534.547C134.856 534.205 135.209 533.941 135.624 533.754C136.039 533.562 136.504 533.467 137.019 533.467C137.538 533.467 138.005 533.562 138.42 533.754C138.839 533.941 139.195 534.205 139.486 534.547C139.783 534.884 140.008 535.283 140.163 535.743C140.318 536.199 140.396 536.693 140.396 537.227V537.384C140.396 537.917 140.318 538.411 140.163 538.867C140.008 539.323 139.783 539.722 139.486 540.063C139.195 540.401 138.841 540.665 138.427 540.856C138.017 541.043 137.552 541.137 137.032 541.137C136.513 541.137 136.046 541.043 135.631 540.856C135.216 540.665 134.861 540.401 134.564 540.063C134.273 539.722 134.049 539.323 133.895 538.867C133.74 538.411 133.662 537.917 133.662 537.384ZM134.927 537.227V537.384C134.927 537.753 134.97 538.102 135.057 538.43C135.143 538.753 135.273 539.04 135.446 539.291C135.624 539.542 135.845 539.74 136.109 539.886C136.374 540.027 136.681 540.098 137.032 540.098C137.379 540.098 137.682 540.027 137.941 539.886C138.206 539.74 138.424 539.542 138.598 539.291C138.771 539.04 138.901 538.753 138.987 538.43C139.078 538.102 139.124 537.753 139.124 537.384V537.227C139.124 536.862 139.078 536.518 138.987 536.194C138.901 535.866 138.769 535.577 138.591 535.326C138.418 535.071 138.199 534.87 137.935 534.725C137.675 534.579 137.369 534.506 137.019 534.506C136.672 534.506 136.367 534.579 136.103 534.725C135.843 534.87 135.624 535.071 135.446 535.326C135.273 535.577 135.143 535.866 135.057 536.194C134.97 536.518 134.927 536.862 134.927 537.227ZM143.246 535.183V541H141.981V533.604H143.178L143.246 535.183ZM142.945 537.021L142.419 537.001C142.424 536.495 142.499 536.028 142.645 535.6C142.79 535.167 142.995 534.791 143.26 534.472C143.524 534.153 143.839 533.907 144.203 533.733C144.572 533.556 144.98 533.467 145.427 533.467C145.791 533.467 146.119 533.517 146.411 533.617C146.703 533.713 146.951 533.868 147.156 534.082C147.366 534.296 147.525 534.574 147.635 534.916C147.744 535.253 147.799 535.666 147.799 536.153V541H146.527V536.14C146.527 535.752 146.47 535.442 146.356 535.21C146.243 534.973 146.076 534.802 145.857 534.697C145.639 534.588 145.37 534.533 145.051 534.533C144.736 534.533 144.449 534.599 144.189 534.731C143.934 534.864 143.713 535.046 143.526 535.278C143.344 535.511 143.201 535.777 143.096 536.078C142.995 536.374 142.945 536.689 142.945 537.021ZM154.566 533.604V541H153.295V533.604H154.566ZM153.199 531.642C153.199 531.437 153.261 531.263 153.384 531.122C153.511 530.981 153.698 530.91 153.944 530.91C154.186 530.91 154.37 530.981 154.498 531.122C154.63 531.263 154.696 531.437 154.696 531.642C154.696 531.838 154.63 532.006 154.498 532.147C154.37 532.284 154.186 532.353 153.944 532.353C153.698 532.353 153.511 532.284 153.384 532.147C153.261 532.006 153.199 531.838 153.199 531.642ZM160.903 539.038C160.903 538.856 160.862 538.687 160.78 538.532C160.703 538.373 160.541 538.229 160.295 538.102C160.053 537.969 159.689 537.855 159.201 537.76C158.791 537.673 158.42 537.571 158.087 537.452C157.759 537.334 157.479 537.19 157.246 537.021C157.018 536.853 156.843 536.655 156.72 536.427C156.597 536.199 156.535 535.932 156.535 535.627C156.535 535.335 156.599 535.06 156.727 534.8C156.859 534.54 157.043 534.31 157.28 534.109C157.522 533.909 157.811 533.752 158.148 533.638C158.486 533.524 158.862 533.467 159.276 533.467C159.869 533.467 160.375 533.572 160.794 533.781C161.213 533.991 161.535 534.271 161.758 534.622C161.981 534.968 162.093 535.354 162.093 535.777H160.828C160.828 535.572 160.767 535.374 160.644 535.183C160.525 534.987 160.35 534.825 160.117 534.697C159.889 534.57 159.609 534.506 159.276 534.506C158.925 534.506 158.641 534.561 158.422 534.67C158.208 534.775 158.05 534.909 157.95 535.073C157.854 535.237 157.807 535.41 157.807 535.593C157.807 535.729 157.829 535.853 157.875 535.962C157.925 536.067 158.012 536.165 158.135 536.256C158.258 536.342 158.431 536.424 158.654 536.502C158.878 536.579 159.162 536.657 159.509 536.734C160.115 536.871 160.614 537.035 161.006 537.227C161.398 537.418 161.689 537.653 161.881 537.931C162.072 538.209 162.168 538.546 162.168 538.942C162.168 539.266 162.1 539.562 161.963 539.831C161.831 540.1 161.637 540.332 161.382 540.528C161.131 540.72 160.83 540.87 160.479 540.979C160.133 541.084 159.743 541.137 159.311 541.137C158.659 541.137 158.107 541.021 157.656 540.788C157.205 540.556 156.863 540.255 156.631 539.886C156.398 539.517 156.282 539.127 156.282 538.717H157.554C157.572 539.063 157.672 539.339 157.854 539.544C158.037 539.744 158.26 539.888 158.524 539.975C158.789 540.057 159.051 540.098 159.311 540.098C159.657 540.098 159.946 540.052 160.179 539.961C160.416 539.87 160.596 539.744 160.719 539.585C160.842 539.425 160.903 539.243 160.903 539.038ZM171.827 539.291V533.604H173.099V541H171.889L171.827 539.291ZM172.066 537.732L172.593 537.719C172.593 538.211 172.54 538.667 172.436 539.086C172.335 539.501 172.171 539.861 171.943 540.166C171.715 540.471 171.417 540.711 171.048 540.884C170.679 541.052 170.23 541.137 169.701 541.137C169.341 541.137 169.011 541.084 168.71 540.979C168.414 540.875 168.159 540.713 167.944 540.494C167.73 540.275 167.564 539.991 167.445 539.64C167.331 539.289 167.274 538.867 167.274 538.375V533.604H168.539V538.389C168.539 538.721 168.576 538.997 168.648 539.216C168.726 539.43 168.828 539.601 168.956 539.729C169.088 539.852 169.234 539.938 169.394 539.988C169.558 540.038 169.726 540.063 169.899 540.063C170.437 540.063 170.863 539.961 171.178 539.756C171.492 539.546 171.718 539.266 171.854 538.915C171.996 538.56 172.066 538.165 172.066 537.732ZM176.291 535.025V543.844H175.02V533.604H176.182L176.291 535.025ZM181.274 537.24V537.384C181.274 537.922 181.211 538.421 181.083 538.881C180.955 539.337 180.769 539.733 180.522 540.07C180.281 540.408 179.982 540.67 179.627 540.856C179.271 541.043 178.864 541.137 178.403 541.137C177.934 541.137 177.519 541.059 177.159 540.904C176.799 540.749 176.494 540.524 176.243 540.228C175.993 539.931 175.792 539.576 175.642 539.161C175.496 538.746 175.396 538.279 175.341 537.76V536.994C175.396 536.447 175.498 535.957 175.648 535.524C175.799 535.091 175.997 534.722 176.243 534.417C176.494 534.107 176.797 533.872 177.152 533.713C177.508 533.549 177.918 533.467 178.383 533.467C178.848 533.467 179.26 533.558 179.62 533.74C179.98 533.918 180.283 534.173 180.529 534.506C180.775 534.839 180.96 535.237 181.083 535.702C181.211 536.162 181.274 536.675 181.274 537.24ZM180.003 537.384V537.24C180.003 536.871 179.964 536.525 179.887 536.201C179.809 535.873 179.688 535.586 179.524 535.34C179.365 535.089 179.16 534.893 178.909 534.752C178.659 534.606 178.36 534.533 178.014 534.533C177.695 534.533 177.417 534.588 177.18 534.697C176.947 534.807 176.749 534.955 176.585 535.142C176.421 535.324 176.286 535.534 176.182 535.771C176.081 536.003 176.006 536.244 175.956 536.495V538.266C176.047 538.585 176.175 538.885 176.339 539.168C176.503 539.446 176.722 539.672 176.995 539.845C177.269 540.013 177.613 540.098 178.027 540.098C178.369 540.098 178.663 540.027 178.909 539.886C179.16 539.74 179.365 539.542 179.524 539.291C179.688 539.04 179.809 538.753 179.887 538.43C179.964 538.102 180.003 537.753 180.003 537.384ZM187.55 539.564V530.5H188.821V541H187.659L187.55 539.564ZM182.573 537.384V537.24C182.573 536.675 182.642 536.162 182.778 535.702C182.92 535.237 183.118 534.839 183.373 534.506C183.633 534.173 183.94 533.918 184.296 533.74C184.656 533.558 185.057 533.467 185.499 533.467C185.964 533.467 186.369 533.549 186.716 533.713C187.067 533.872 187.363 534.107 187.604 534.417C187.851 534.722 188.044 535.091 188.186 535.524C188.327 535.957 188.425 536.447 188.479 536.994V537.623C188.429 538.165 188.331 538.653 188.186 539.086C188.044 539.519 187.851 539.888 187.604 540.193C187.363 540.499 187.067 540.733 186.716 540.897C186.365 541.057 185.955 541.137 185.485 541.137C185.052 541.137 184.656 541.043 184.296 540.856C183.94 540.67 183.633 540.408 183.373 540.07C183.118 539.733 182.92 539.337 182.778 538.881C182.642 538.421 182.573 537.922 182.573 537.384ZM183.845 537.24V537.384C183.845 537.753 183.881 538.099 183.954 538.423C184.032 538.746 184.15 539.031 184.31 539.277C184.469 539.523 184.672 539.717 184.918 539.858C185.164 539.995 185.458 540.063 185.8 540.063C186.219 540.063 186.563 539.975 186.832 539.797C187.105 539.619 187.324 539.384 187.488 539.093C187.652 538.801 187.78 538.484 187.871 538.143V536.495C187.816 536.244 187.737 536.003 187.632 535.771C187.532 535.534 187.399 535.324 187.235 535.142C187.076 534.955 186.878 534.807 186.641 534.697C186.408 534.588 186.132 534.533 185.813 534.533C185.467 534.533 185.169 534.606 184.918 534.752C184.672 534.893 184.469 535.089 184.31 535.34C184.15 535.586 184.032 535.873 183.954 536.201C183.881 536.525 183.845 536.871 183.845 537.24ZM195.151 539.735V535.928C195.151 535.636 195.092 535.383 194.974 535.169C194.86 534.95 194.687 534.782 194.454 534.663C194.222 534.545 193.935 534.485 193.593 534.485C193.274 534.485 192.993 534.54 192.752 534.649C192.515 534.759 192.328 534.902 192.191 535.08C192.059 535.258 191.993 535.449 191.993 535.654H190.729C190.729 535.39 190.797 535.128 190.934 534.868C191.07 534.608 191.266 534.374 191.521 534.164C191.781 533.95 192.091 533.781 192.451 533.658C192.816 533.531 193.221 533.467 193.668 533.467C194.206 533.467 194.68 533.558 195.09 533.74C195.505 533.923 195.828 534.198 196.061 534.567C196.298 534.932 196.416 535.39 196.416 535.941V539.387C196.416 539.633 196.437 539.895 196.478 540.173C196.523 540.451 196.589 540.69 196.676 540.891V541H195.356C195.293 540.854 195.243 540.66 195.206 540.419C195.17 540.173 195.151 539.945 195.151 539.735ZM195.37 536.516L195.384 537.404H194.105C193.745 537.404 193.424 537.434 193.142 537.493C192.859 537.548 192.622 537.632 192.431 537.746C192.239 537.86 192.093 538.004 191.993 538.177C191.893 538.345 191.843 538.544 191.843 538.771C191.843 539.004 191.895 539.216 192 539.407C192.105 539.599 192.262 539.751 192.472 539.865C192.686 539.975 192.948 540.029 193.258 540.029C193.645 540.029 193.987 539.947 194.283 539.783C194.579 539.619 194.814 539.419 194.987 539.182C195.165 538.945 195.261 538.715 195.274 538.491L195.814 539.1C195.783 539.291 195.696 539.503 195.555 539.735C195.413 539.968 195.224 540.191 194.987 540.405C194.755 540.615 194.477 540.79 194.153 540.932C193.834 541.068 193.474 541.137 193.073 541.137C192.572 541.137 192.132 541.039 191.754 540.843C191.38 540.647 191.089 540.385 190.879 540.057C190.674 539.724 190.571 539.353 190.571 538.942C190.571 538.546 190.649 538.197 190.804 537.896C190.959 537.591 191.182 537.338 191.474 537.138C191.765 536.933 192.116 536.778 192.526 536.673C192.937 536.568 193.395 536.516 193.9 536.516H195.37ZM201.502 533.604V534.574H197.503V533.604H201.502ZM198.856 531.806H200.121V539.168C200.121 539.419 200.16 539.608 200.237 539.735C200.315 539.863 200.415 539.947 200.538 539.988C200.661 540.029 200.793 540.05 200.935 540.05C201.039 540.05 201.149 540.041 201.263 540.022C201.381 540 201.47 539.981 201.529 539.968L201.536 541C201.436 541.032 201.304 541.062 201.14 541.089C200.98 541.121 200.786 541.137 200.559 541.137C200.249 541.137 199.964 541.075 199.704 540.952C199.444 540.829 199.237 540.624 199.082 540.337C198.932 540.045 198.856 539.653 198.856 539.161V531.806ZM206.055 541.137C205.54 541.137 205.073 541.05 204.653 540.877C204.239 540.699 203.881 540.451 203.58 540.132C203.284 539.813 203.056 539.435 202.896 538.997C202.737 538.56 202.657 538.081 202.657 537.562V537.274C202.657 536.673 202.746 536.137 202.924 535.668C203.102 535.194 203.343 534.793 203.648 534.465C203.954 534.137 204.3 533.888 204.688 533.72C205.075 533.551 205.476 533.467 205.891 533.467C206.419 533.467 206.875 533.558 207.258 533.74C207.645 533.923 207.962 534.178 208.208 534.506C208.454 534.829 208.636 535.212 208.755 535.654C208.873 536.092 208.933 536.57 208.933 537.09V537.657H203.409V536.625H207.668V536.529C207.65 536.201 207.581 535.882 207.463 535.572C207.349 535.262 207.167 535.007 206.916 534.807C206.665 534.606 206.324 534.506 205.891 534.506C205.604 534.506 205.339 534.567 205.098 534.69C204.856 534.809 204.649 534.987 204.476 535.224C204.302 535.461 204.168 535.75 204.072 536.092C203.977 536.434 203.929 536.828 203.929 537.274V537.562C203.929 537.912 203.977 538.243 204.072 538.553C204.173 538.858 204.316 539.127 204.503 539.359C204.694 539.592 204.924 539.774 205.193 539.906C205.467 540.038 205.777 540.104 206.123 540.104C206.57 540.104 206.948 540.013 207.258 539.831C207.568 539.649 207.839 539.405 208.071 539.1L208.837 539.708C208.677 539.95 208.475 540.18 208.229 540.398C207.982 540.617 207.679 540.795 207.319 540.932C206.964 541.068 206.542 541.137 206.055 541.137ZM216.979 533.604V534.574H212.979V533.604H216.979ZM214.333 531.806H215.598V539.168C215.598 539.419 215.636 539.608 215.714 539.735C215.791 539.863 215.892 539.947 216.015 539.988C216.138 540.029 216.27 540.05 216.411 540.05C216.516 540.05 216.625 540.041 216.739 540.022C216.858 540 216.947 539.981 217.006 539.968L217.013 541C216.912 541.032 216.78 541.062 216.616 541.089C216.457 541.121 216.263 541.137 216.035 541.137C215.725 541.137 215.44 541.075 215.181 540.952C214.921 540.829 214.714 540.624 214.559 540.337C214.408 540.045 214.333 539.653 214.333 539.161V531.806ZM217.99 537.384V537.227C217.99 536.693 218.068 536.199 218.223 535.743C218.378 535.283 218.601 534.884 218.893 534.547C219.184 534.205 219.537 533.941 219.952 533.754C220.367 533.562 220.832 533.467 221.347 533.467C221.866 533.467 222.333 533.562 222.748 533.754C223.167 533.941 223.523 534.205 223.814 534.547C224.111 534.884 224.336 535.283 224.491 535.743C224.646 536.199 224.724 536.693 224.724 537.227V537.384C224.724 537.917 224.646 538.411 224.491 538.867C224.336 539.323 224.111 539.722 223.814 540.063C223.523 540.401 223.17 540.665 222.755 540.856C222.345 541.043 221.88 541.137 221.36 541.137C220.841 541.137 220.374 541.043 219.959 540.856C219.544 540.665 219.189 540.401 218.893 540.063C218.601 539.722 218.378 539.323 218.223 538.867C218.068 538.411 217.99 537.917 217.99 537.384ZM219.255 537.227V537.384C219.255 537.753 219.298 538.102 219.385 538.43C219.471 538.753 219.601 539.04 219.774 539.291C219.952 539.542 220.173 539.74 220.438 539.886C220.702 540.027 221.009 540.098 221.36 540.098C221.707 540.098 222.01 540.027 222.27 539.886C222.534 539.74 222.753 539.542 222.926 539.291C223.099 539.04 223.229 538.753 223.315 538.43C223.407 538.102 223.452 537.753 223.452 537.384V537.227C223.452 536.862 223.407 536.518 223.315 536.194C223.229 535.866 223.097 535.577 222.919 535.326C222.746 535.071 222.527 534.87 222.263 534.725C222.003 534.579 221.698 534.506 221.347 534.506C221 534.506 220.695 534.579 220.431 534.725C220.171 534.87 219.952 535.071 219.774 535.326C219.601 535.577 219.471 535.866 219.385 536.194C219.298 536.518 219.255 536.862 219.255 537.227ZM232.879 533.604V534.574H228.88V533.604H232.879ZM230.233 531.806H231.498V539.168C231.498 539.419 231.537 539.608 231.614 539.735C231.692 539.863 231.792 539.947 231.915 539.988C232.038 540.029 232.17 540.05 232.312 540.05C232.416 540.05 232.526 540.041 232.64 540.022C232.758 540 232.847 539.981 232.906 539.968L232.913 541C232.813 541.032 232.681 541.062 232.517 541.089C232.357 541.121 232.163 541.137 231.936 541.137C231.626 541.137 231.341 541.075 231.081 540.952C230.821 540.829 230.614 540.624 230.459 540.337C230.309 540.045 230.233 539.653 230.233 539.161V531.806ZM235.627 530.5V541H234.362V530.5H235.627ZM235.326 537.021L234.8 537.001C234.804 536.495 234.88 536.028 235.025 535.6C235.171 535.167 235.376 534.791 235.641 534.472C235.905 534.153 236.219 533.907 236.584 533.733C236.953 533.556 237.361 533.467 237.808 533.467C238.172 533.467 238.5 533.517 238.792 533.617C239.084 533.713 239.332 533.868 239.537 534.082C239.747 534.296 239.906 534.574 240.016 534.916C240.125 535.253 240.18 535.666 240.18 536.153V541H238.908V536.14C238.908 535.752 238.851 535.442 238.737 535.21C238.623 534.973 238.457 534.802 238.238 534.697C238.02 534.588 237.751 534.533 237.432 534.533C237.117 534.533 236.83 534.599 236.57 534.731C236.315 534.864 236.094 535.046 235.907 535.278C235.725 535.511 235.581 535.777 235.477 536.078C235.376 536.374 235.326 536.689 235.326 537.021ZM245.143 541.137C244.628 541.137 244.16 541.05 243.741 540.877C243.326 540.699 242.969 540.451 242.668 540.132C242.372 539.813 242.144 539.435 241.984 538.997C241.825 538.56 241.745 538.081 241.745 537.562V537.274C241.745 536.673 241.834 536.137 242.012 535.668C242.189 535.194 242.431 534.793 242.736 534.465C243.042 534.137 243.388 533.888 243.775 533.72C244.163 533.551 244.564 533.467 244.979 533.467C245.507 533.467 245.963 533.558 246.346 533.74C246.733 533.923 247.05 534.178 247.296 534.506C247.542 534.829 247.724 535.212 247.843 535.654C247.961 536.092 248.021 536.57 248.021 537.09V537.657H242.497V536.625H246.756V536.529C246.738 536.201 246.669 535.882 246.551 535.572C246.437 535.262 246.255 535.007 246.004 534.807C245.753 534.606 245.411 534.506 244.979 534.506C244.691 534.506 244.427 534.567 244.186 534.69C243.944 534.809 243.737 534.987 243.563 535.224C243.39 535.461 243.256 535.75 243.16 536.092C243.064 536.434 243.017 536.828 243.017 537.274V537.562C243.017 537.912 243.064 538.243 243.16 538.553C243.26 538.858 243.404 539.127 243.591 539.359C243.782 539.592 244.012 539.774 244.281 539.906C244.555 540.038 244.865 540.104 245.211 540.104C245.658 540.104 246.036 540.013 246.346 539.831C246.656 539.649 246.927 539.405 247.159 539.1L247.925 539.708C247.765 539.95 247.562 540.18 247.316 540.398C247.07 540.617 246.767 540.795 246.407 540.932C246.052 541.068 245.63 541.137 245.143 541.137ZM254.344 530.5V541H253.072V530.5H254.344ZM260.735 539.735V535.928C260.735 535.636 260.676 535.383 260.558 535.169C260.444 534.95 260.271 534.782 260.038 534.663C259.806 534.545 259.519 534.485 259.177 534.485C258.858 534.485 258.577 534.54 258.336 534.649C258.099 534.759 257.912 534.902 257.775 535.08C257.643 535.258 257.577 535.449 257.577 535.654H256.312C256.312 535.39 256.381 535.128 256.518 534.868C256.654 534.608 256.85 534.374 257.105 534.164C257.365 533.95 257.675 533.781 258.035 533.658C258.4 533.531 258.805 533.467 259.252 533.467C259.79 533.467 260.264 533.558 260.674 533.74C261.089 533.923 261.412 534.198 261.645 534.567C261.882 534.932 262 535.39 262 535.941V539.387C262 539.633 262.021 539.895 262.062 540.173C262.107 540.451 262.173 540.69 262.26 540.891V541H260.94C260.877 540.854 260.826 540.66 260.79 540.419C260.754 540.173 260.735 539.945 260.735 539.735ZM260.954 536.516L260.968 537.404H259.689C259.329 537.404 259.008 537.434 258.726 537.493C258.443 537.548 258.206 537.632 258.015 537.746C257.823 537.86 257.677 538.004 257.577 538.177C257.477 538.345 257.427 538.544 257.427 538.771C257.427 539.004 257.479 539.216 257.584 539.407C257.689 539.599 257.846 539.751 258.056 539.865C258.27 539.975 258.532 540.029 258.842 540.029C259.229 540.029 259.571 539.947 259.867 539.783C260.163 539.619 260.398 539.419 260.571 539.182C260.749 538.945 260.845 538.715 260.858 538.491L261.398 539.1C261.367 539.291 261.28 539.503 261.139 539.735C260.997 539.968 260.808 540.191 260.571 540.405C260.339 540.615 260.061 540.79 259.737 540.932C259.418 541.068 259.058 541.137 258.657 541.137C258.156 541.137 257.716 541.039 257.338 540.843C256.964 540.647 256.673 540.385 256.463 540.057C256.258 539.724 256.155 539.353 256.155 538.942C256.155 538.546 256.233 538.197 256.388 537.896C256.543 537.591 256.766 537.338 257.058 537.138C257.349 536.933 257.7 536.778 258.11 536.673C258.521 536.568 258.979 536.516 259.484 536.516H260.954ZM267.086 533.604V534.574H263.087V533.604H267.086ZM264.44 531.806H265.705V539.168C265.705 539.419 265.744 539.608 265.821 539.735C265.899 539.863 265.999 539.947 266.122 539.988C266.245 540.029 266.377 540.05 266.519 540.05C266.623 540.05 266.733 540.041 266.847 540.022C266.965 540 267.054 539.981 267.113 539.968L267.12 541C267.02 541.032 266.888 541.062 266.724 541.089C266.564 541.121 266.37 541.137 266.143 541.137C265.833 541.137 265.548 541.075 265.288 540.952C265.028 540.829 264.821 540.624 264.666 540.337C264.516 540.045 264.44 539.653 264.44 539.161V531.806ZM271.639 541.137C271.124 541.137 270.657 541.05 270.237 540.877C269.823 540.699 269.465 540.451 269.164 540.132C268.868 539.813 268.64 539.435 268.48 538.997C268.321 538.56 268.241 538.081 268.241 537.562V537.274C268.241 536.673 268.33 536.137 268.508 535.668C268.686 535.194 268.927 534.793 269.232 534.465C269.538 534.137 269.884 533.888 270.271 533.72C270.659 533.551 271.06 533.467 271.475 533.467C272.003 533.467 272.459 533.558 272.842 533.74C273.229 533.923 273.546 534.178 273.792 534.506C274.038 534.829 274.22 535.212 274.339 535.654C274.457 536.092 274.517 536.57 274.517 537.09V537.657H268.993V536.625H273.252V536.529C273.234 536.201 273.165 535.882 273.047 535.572C272.933 535.262 272.751 535.007 272.5 534.807C272.249 534.606 271.908 534.506 271.475 534.506C271.188 534.506 270.923 534.567 270.682 534.69C270.44 534.809 270.233 534.987 270.06 535.224C269.886 535.461 269.752 535.75 269.656 536.092C269.561 536.434 269.513 536.828 269.513 537.274V537.562C269.513 537.912 269.561 538.243 269.656 538.553C269.757 538.858 269.9 539.127 270.087 539.359C270.278 539.592 270.508 539.774 270.777 539.906C271.051 540.038 271.361 540.104 271.707 540.104C272.154 540.104 272.532 540.013 272.842 539.831C273.152 539.649 273.423 539.405 273.655 539.1L274.421 539.708C274.261 539.95 274.059 540.18 273.812 540.398C273.566 540.617 273.263 540.795 272.903 540.932C272.548 541.068 272.126 541.137 271.639 541.137ZM280.3 539.038C280.3 538.856 280.259 538.687 280.177 538.532C280.099 538.373 279.938 538.229 279.691 538.102C279.45 537.969 279.085 537.855 278.598 537.76C278.188 537.673 277.816 537.571 277.483 537.452C277.155 537.334 276.875 537.19 276.643 537.021C276.415 536.853 276.239 536.655 276.116 536.427C275.993 536.199 275.932 535.932 275.932 535.627C275.932 535.335 275.995 535.06 276.123 534.8C276.255 534.54 276.44 534.31 276.677 534.109C276.918 533.909 277.208 533.752 277.545 533.638C277.882 533.524 278.258 533.467 278.673 533.467C279.265 533.467 279.771 533.572 280.19 533.781C280.61 533.991 280.931 534.271 281.154 534.622C281.378 534.968 281.489 535.354 281.489 535.777H280.225C280.225 535.572 280.163 535.374 280.04 535.183C279.922 534.987 279.746 534.825 279.514 534.697C279.286 534.57 279.006 534.506 278.673 534.506C278.322 534.506 278.037 534.561 277.818 534.67C277.604 534.775 277.447 534.909 277.347 535.073C277.251 535.237 277.203 535.41 277.203 535.593C277.203 535.729 277.226 535.853 277.271 535.962C277.322 536.067 277.408 536.165 277.531 536.256C277.654 536.342 277.827 536.424 278.051 536.502C278.274 536.579 278.559 536.657 278.905 536.734C279.511 536.871 280.01 537.035 280.402 537.227C280.794 537.418 281.086 537.653 281.277 537.931C281.469 538.209 281.564 538.546 281.564 538.942C281.564 539.266 281.496 539.562 281.359 539.831C281.227 540.1 281.034 540.332 280.778 540.528C280.528 540.72 280.227 540.87 279.876 540.979C279.53 541.084 279.14 541.137 278.707 541.137C278.055 541.137 277.504 541.021 277.053 540.788C276.602 540.556 276.26 540.255 276.027 539.886C275.795 539.517 275.679 539.127 275.679 538.717H276.95C276.968 539.063 277.069 539.339 277.251 539.544C277.433 539.744 277.657 539.888 277.921 539.975C278.185 540.057 278.447 540.098 278.707 540.098C279.053 540.098 279.343 540.052 279.575 539.961C279.812 539.87 279.992 539.744 280.115 539.585C280.238 539.425 280.3 539.243 280.3 539.038ZM286.322 533.604V534.574H282.323V533.604H286.322ZM283.677 531.806H284.941V539.168C284.941 539.419 284.98 539.608 285.058 539.735C285.135 539.863 285.235 539.947 285.358 539.988C285.481 540.029 285.614 540.05 285.755 540.05C285.86 540.05 285.969 540.041 286.083 540.022C286.201 540 286.29 539.981 286.35 539.968L286.356 541C286.256 541.032 286.124 541.062 285.96 541.089C285.8 541.121 285.607 541.137 285.379 541.137C285.069 541.137 284.784 541.075 284.524 540.952C284.265 540.829 284.057 540.624 283.902 540.337C283.752 540.045 283.677 539.653 283.677 539.161V531.806ZM292.789 531.047V541H291.47V531.047H292.789ZM296.959 535.524V536.604H292.502V535.524H296.959ZM297.636 531.047V532.127H292.502V531.047H297.636ZM300.391 533.604V541H299.119V533.604H300.391ZM299.023 531.642C299.023 531.437 299.085 531.263 299.208 531.122C299.336 530.981 299.522 530.91 299.769 530.91C300.01 530.91 300.195 530.981 300.322 531.122C300.454 531.263 300.521 531.437 300.521 531.642C300.521 531.838 300.454 532.006 300.322 532.147C300.195 532.284 300.01 532.353 299.769 532.353C299.522 532.353 299.336 532.284 299.208 532.147C299.085 532.006 299.023 531.838 299.023 531.642ZM303.686 534.766V541H302.421V533.604H303.651L303.686 534.766ZM305.996 533.562L305.989 534.738C305.884 534.715 305.784 534.702 305.688 534.697C305.597 534.688 305.493 534.684 305.374 534.684C305.082 534.684 304.825 534.729 304.602 534.82C304.378 534.911 304.189 535.039 304.034 535.203C303.879 535.367 303.756 535.563 303.665 535.791C303.578 536.014 303.521 536.26 303.494 536.529L303.139 536.734C303.139 536.288 303.182 535.868 303.269 535.477C303.36 535.085 303.499 534.738 303.686 534.438C303.872 534.132 304.109 533.895 304.396 533.727C304.688 533.553 305.035 533.467 305.436 533.467C305.527 533.467 305.632 533.478 305.75 533.501C305.868 533.519 305.951 533.54 305.996 533.562ZM308.423 535.073V541H307.151V533.604H308.354L308.423 535.073ZM308.163 537.021L307.575 537.001C307.58 536.495 307.646 536.028 307.773 535.6C307.901 535.167 308.09 534.791 308.341 534.472C308.591 534.153 308.904 533.907 309.277 533.733C309.651 533.556 310.084 533.467 310.576 533.467C310.923 533.467 311.242 533.517 311.533 533.617C311.825 533.713 312.078 533.866 312.292 534.075C312.506 534.285 312.673 534.554 312.791 534.882C312.91 535.21 312.969 535.606 312.969 536.071V541H311.704V536.133C311.704 535.745 311.638 535.436 311.506 535.203C311.378 534.971 311.196 534.802 310.959 534.697C310.722 534.588 310.444 534.533 310.125 534.533C309.751 534.533 309.439 534.599 309.188 534.731C308.938 534.864 308.737 535.046 308.587 535.278C308.437 535.511 308.327 535.777 308.259 536.078C308.195 536.374 308.163 536.689 308.163 537.021ZM312.955 536.324L312.107 536.584C312.112 536.178 312.178 535.789 312.306 535.415C312.438 535.041 312.627 534.709 312.873 534.417C313.124 534.125 313.431 533.895 313.796 533.727C314.16 533.553 314.577 533.467 315.047 533.467C315.443 533.467 315.794 533.519 316.1 533.624C316.41 533.729 316.669 533.891 316.879 534.109C317.093 534.324 317.255 534.599 317.364 534.937C317.474 535.274 317.528 535.675 317.528 536.14V541H316.257V536.126C316.257 535.711 316.191 535.39 316.059 535.162C315.931 534.93 315.749 534.768 315.512 534.677C315.279 534.581 315.001 534.533 314.678 534.533C314.4 534.533 314.154 534.581 313.939 534.677C313.725 534.772 313.545 534.905 313.399 535.073C313.254 535.237 313.142 535.426 313.064 535.641C312.992 535.855 312.955 536.083 312.955 536.324ZM321.315 539.688L323.216 533.604H324.05L323.886 534.813L321.951 541H321.138L321.315 539.688ZM320.037 533.604L321.657 539.756L321.773 541H320.919L318.772 533.604H320.037ZM325.868 539.708L327.413 533.604H328.671L326.524 541H325.677L325.868 539.708ZM324.234 533.604L326.094 539.585L326.306 541H325.499L323.51 534.8L323.346 533.604H324.234ZM334.331 539.735V535.928C334.331 535.636 334.272 535.383 334.153 535.169C334.039 534.95 333.866 534.782 333.634 534.663C333.401 534.545 333.114 534.485 332.772 534.485C332.453 534.485 332.173 534.54 331.932 534.649C331.695 534.759 331.508 534.902 331.371 535.08C331.239 535.258 331.173 535.449 331.173 535.654H329.908C329.908 535.39 329.977 535.128 330.113 534.868C330.25 534.608 330.446 534.374 330.701 534.164C330.961 533.95 331.271 533.781 331.631 533.658C331.995 533.531 332.401 533.467 332.848 533.467C333.385 533.467 333.859 533.558 334.27 533.74C334.684 533.923 335.008 534.198 335.24 534.567C335.477 534.932 335.596 535.39 335.596 535.941V539.387C335.596 539.633 335.616 539.895 335.657 540.173C335.703 540.451 335.769 540.69 335.855 540.891V541H334.536C334.472 540.854 334.422 540.66 334.386 540.419C334.349 540.173 334.331 539.945 334.331 539.735ZM334.55 536.516L334.563 537.404H333.285C332.925 537.404 332.604 537.434 332.321 537.493C332.039 537.548 331.802 537.632 331.61 537.746C331.419 537.86 331.273 538.004 331.173 538.177C331.073 538.345 331.022 538.544 331.022 538.771C331.022 539.004 331.075 539.216 331.18 539.407C331.285 539.599 331.442 539.751 331.651 539.865C331.866 539.975 332.128 540.029 332.438 540.029C332.825 540.029 333.167 539.947 333.463 539.783C333.759 539.619 333.994 539.419 334.167 539.182C334.345 538.945 334.44 538.715 334.454 538.491L334.994 539.1C334.962 539.291 334.876 539.503 334.734 539.735C334.593 539.968 334.404 540.191 334.167 540.405C333.935 540.615 333.657 540.79 333.333 540.932C333.014 541.068 332.654 541.137 332.253 541.137C331.752 541.137 331.312 541.039 330.934 540.843C330.56 540.647 330.268 540.385 330.059 540.057C329.854 539.724 329.751 539.353 329.751 538.942C329.751 538.546 329.828 538.197 329.983 537.896C330.138 537.591 330.362 537.338 330.653 537.138C330.945 536.933 331.296 536.778 331.706 536.673C332.116 536.568 332.574 536.516 333.08 536.516H334.55ZM338.85 534.766V541H337.585V533.604H338.815L338.85 534.766ZM341.16 533.562L341.153 534.738C341.049 534.715 340.948 534.702 340.853 534.697C340.761 534.688 340.657 534.684 340.538 534.684C340.246 534.684 339.989 534.729 339.766 534.82C339.542 534.911 339.353 535.039 339.198 535.203C339.043 535.367 338.92 535.563 338.829 535.791C338.743 536.014 338.686 536.26 338.658 536.529L338.303 536.734C338.303 536.288 338.346 535.868 338.433 535.477C338.524 535.085 338.663 534.738 338.85 534.438C339.036 534.132 339.273 533.895 339.561 533.727C339.852 533.553 340.199 533.467 340.6 533.467C340.691 533.467 340.796 533.478 340.914 533.501C341.033 533.519 341.115 533.54 341.16 533.562ZM345.262 541.137C344.747 541.137 344.28 541.05 343.86 540.877C343.446 540.699 343.088 540.451 342.787 540.132C342.491 539.813 342.263 539.435 342.104 538.997C341.944 538.56 341.864 538.081 341.864 537.562V537.274C341.864 536.673 341.953 536.137 342.131 535.668C342.309 535.194 342.55 534.793 342.855 534.465C343.161 534.137 343.507 533.888 343.895 533.72C344.282 533.551 344.683 533.467 345.098 533.467C345.626 533.467 346.082 533.558 346.465 533.74C346.852 533.923 347.169 534.178 347.415 534.506C347.661 534.829 347.843 535.212 347.962 535.654C348.08 536.092 348.14 536.57 348.14 537.09V537.657H342.616V536.625H346.875V536.529C346.857 536.201 346.788 535.882 346.67 535.572C346.556 535.262 346.374 535.007 346.123 534.807C345.872 534.606 345.531 534.506 345.098 534.506C344.811 534.506 344.546 534.567 344.305 534.69C344.063 534.809 343.856 534.987 343.683 535.224C343.509 535.461 343.375 535.75 343.279 536.092C343.184 536.434 343.136 536.828 343.136 537.274V537.562C343.136 537.912 343.184 538.243 343.279 538.553C343.38 538.858 343.523 539.127 343.71 539.359C343.901 539.592 344.132 539.774 344.4 539.906C344.674 540.038 344.984 540.104 345.33 540.104C345.777 540.104 346.155 540.013 346.465 539.831C346.775 539.649 347.046 539.405 347.278 539.1L348.044 539.708C347.884 539.95 347.682 540.18 347.436 540.398C347.189 540.617 346.886 540.795 346.526 540.932C346.171 541.068 345.749 541.137 345.262 541.137ZM351.12 531.047L351.031 538.19H349.89L349.794 531.047H351.12ZM349.753 540.364C349.753 540.159 349.814 539.986 349.938 539.845C350.065 539.703 350.252 539.633 350.498 539.633C350.74 539.633 350.924 539.703 351.052 539.845C351.184 539.986 351.25 540.159 351.25 540.364C351.25 540.56 351.184 540.729 351.052 540.87C350.924 541.011 350.74 541.082 350.498 541.082C350.252 541.082 350.065 541.011 349.938 540.87C349.814 540.729 349.753 540.56 349.753 540.364Z" fill="#040404"/>
<path d="M130.315 501.306C130.315 500.986 130.265 500.699 130.167 500.444C130.077 500.181 129.904 499.943 129.65 499.729C129.395 499.508 129.038 499.29 128.578 499.077C128.118 498.863 127.522 498.641 126.791 498.411C125.978 498.148 125.206 497.853 124.475 497.524C123.753 497.196 123.112 496.814 122.554 496.379C122.003 495.935 121.568 495.422 121.248 494.839C120.936 494.256 120.78 493.578 120.78 492.806C120.78 492.059 120.944 491.381 121.272 490.773C121.601 490.157 122.061 489.632 122.652 489.196C123.243 488.753 123.942 488.412 124.746 488.174C125.559 487.936 126.451 487.817 127.42 487.817C128.742 487.817 129.896 488.055 130.881 488.531C131.867 489.008 132.631 489.66 133.173 490.49C133.723 491.319 133.998 492.268 133.998 493.336H130.327C130.327 492.81 130.216 492.35 129.994 491.956C129.781 491.554 129.452 491.237 129.009 491.007C128.574 490.777 128.023 490.662 127.358 490.662C126.718 490.662 126.184 490.761 125.757 490.958C125.33 491.147 125.009 491.406 124.796 491.734C124.582 492.055 124.475 492.416 124.475 492.818C124.475 493.122 124.549 493.397 124.697 493.644C124.853 493.89 125.083 494.12 125.387 494.334C125.691 494.547 126.065 494.748 126.508 494.937C126.952 495.126 127.465 495.311 128.048 495.492C129.025 495.787 129.884 496.12 130.623 496.489C131.37 496.859 131.994 497.274 132.495 497.734C132.996 498.194 133.374 498.715 133.629 499.298C133.883 499.881 134.011 500.543 134.011 501.282C134.011 502.062 133.859 502.76 133.555 503.376C133.251 503.992 132.811 504.513 132.237 504.941C131.662 505.368 130.976 505.692 130.179 505.914C129.383 506.136 128.491 506.246 127.506 506.246C126.619 506.246 125.744 506.131 124.882 505.901C124.02 505.663 123.235 505.306 122.529 504.83C121.831 504.353 121.272 503.746 120.854 503.006C120.435 502.267 120.225 501.393 120.225 500.382H123.933C123.933 500.941 124.02 501.413 124.192 501.799C124.365 502.185 124.607 502.497 124.919 502.735C125.239 502.974 125.617 503.146 126.052 503.253C126.496 503.36 126.98 503.413 127.506 503.413C128.147 503.413 128.672 503.323 129.083 503.142C129.502 502.961 129.81 502.711 130.007 502.39C130.212 502.07 130.315 501.709 130.315 501.306ZM142.831 492.67V495.184H135.07V492.67H142.831ZM136.992 489.381H140.54V501.984C140.54 502.37 140.589 502.666 140.688 502.871C140.794 503.076 140.95 503.22 141.156 503.302C141.361 503.376 141.62 503.413 141.932 503.413C142.154 503.413 142.351 503.405 142.523 503.388C142.704 503.364 142.856 503.339 142.979 503.314L142.991 505.926C142.687 506.025 142.359 506.103 142.006 506.16C141.653 506.218 141.263 506.246 140.835 506.246C140.055 506.246 139.374 506.119 138.79 505.864C138.216 505.602 137.772 505.183 137.46 504.608C137.148 504.033 136.992 503.277 136.992 502.341V489.381ZM152.046 502.994V497.056C152.046 496.629 151.976 496.264 151.837 495.96C151.697 495.648 151.479 495.405 151.184 495.233C150.896 495.06 150.523 494.974 150.063 494.974C149.668 494.974 149.328 495.044 149.04 495.184C148.753 495.315 148.531 495.508 148.375 495.763C148.219 496.009 148.141 496.301 148.141 496.637H144.593C144.593 496.071 144.724 495.533 144.987 495.023C145.25 494.514 145.632 494.067 146.133 493.681C146.634 493.286 147.229 492.978 147.919 492.757C148.617 492.535 149.397 492.424 150.26 492.424C151.295 492.424 152.214 492.597 153.019 492.942C153.824 493.286 154.457 493.804 154.916 494.494C155.385 495.184 155.619 496.046 155.619 497.081V502.785C155.619 503.516 155.664 504.115 155.754 504.583C155.845 505.043 155.976 505.446 156.148 505.791V506H152.563C152.391 505.639 152.26 505.187 152.169 504.645C152.087 504.095 152.046 503.544 152.046 502.994ZM152.514 497.882L152.539 499.89H150.555C150.087 499.89 149.681 499.943 149.336 500.05C148.991 500.157 148.708 500.308 148.486 500.506C148.264 500.694 148.1 500.916 147.993 501.171C147.894 501.425 147.845 501.705 147.845 502.009C147.845 502.312 147.915 502.588 148.055 502.834C148.194 503.072 148.395 503.261 148.658 503.401C148.921 503.532 149.229 503.598 149.582 503.598C150.116 503.598 150.58 503.491 150.974 503.277C151.368 503.064 151.672 502.801 151.886 502.489C152.108 502.177 152.223 501.881 152.231 501.602L153.167 503.105C153.036 503.442 152.855 503.791 152.625 504.152C152.403 504.513 152.12 504.854 151.775 505.175C151.43 505.487 151.015 505.745 150.531 505.951C150.046 506.148 149.471 506.246 148.806 506.246C147.96 506.246 147.192 506.078 146.502 505.741C145.821 505.396 145.279 504.924 144.876 504.325C144.482 503.717 144.285 503.027 144.285 502.255C144.285 501.557 144.416 500.937 144.679 500.395C144.942 499.853 145.328 499.397 145.837 499.027C146.355 498.649 146.999 498.366 147.771 498.177C148.543 497.98 149.438 497.882 150.457 497.882H152.514ZM164.883 492.67V495.184H157.122V492.67H164.883ZM159.043 489.381H162.591V501.984C162.591 502.37 162.641 502.666 162.739 502.871C162.846 503.076 163.002 503.22 163.207 503.302C163.413 503.376 163.671 503.413 163.983 503.413C164.205 503.413 164.402 503.405 164.575 503.388C164.756 503.364 164.907 503.339 165.031 503.314L165.043 505.926C164.739 506.025 164.411 506.103 164.057 506.16C163.704 506.218 163.314 506.246 162.887 506.246C162.107 506.246 161.425 506.119 160.842 505.864C160.267 505.602 159.824 505.183 159.512 504.608C159.199 504.033 159.043 503.277 159.043 502.341V489.381ZM170.648 492.67V506H167.088V492.67H170.648ZM166.866 489.196C166.866 488.679 167.047 488.252 167.408 487.915C167.77 487.578 168.254 487.41 168.862 487.41C169.461 487.41 169.942 487.578 170.303 487.915C170.673 488.252 170.858 488.679 170.858 489.196C170.858 489.714 170.673 490.141 170.303 490.478C169.942 490.814 169.461 490.983 168.862 490.983C168.254 490.983 167.77 490.814 167.408 490.478C167.047 490.141 166.866 489.714 166.866 489.196ZM173.014 499.471V499.212C173.014 498.235 173.153 497.335 173.432 496.514C173.712 495.685 174.118 494.966 174.652 494.358C175.186 493.75 175.843 493.278 176.623 492.942C177.403 492.597 178.299 492.424 179.309 492.424C180.319 492.424 181.218 492.597 182.007 492.942C182.795 493.278 183.456 493.75 183.99 494.358C184.532 494.966 184.943 495.685 185.222 496.514C185.501 497.335 185.641 498.235 185.641 499.212V499.471C185.641 500.44 185.501 501.339 185.222 502.169C184.943 502.99 184.532 503.709 183.99 504.325C183.456 504.932 182.799 505.405 182.019 505.741C181.239 506.078 180.344 506.246 179.333 506.246C178.323 506.246 177.424 506.078 176.635 505.741C175.855 505.405 175.194 504.932 174.652 504.325C174.118 503.709 173.712 502.99 173.432 502.169C173.153 501.339 173.014 500.44 173.014 499.471ZM176.562 499.212V499.471C176.562 500.029 176.611 500.551 176.709 501.035C176.808 501.52 176.964 501.947 177.178 502.317C177.399 502.678 177.687 502.961 178.04 503.167C178.393 503.372 178.824 503.475 179.333 503.475C179.826 503.475 180.249 503.372 180.602 503.167C180.955 502.961 181.239 502.678 181.452 502.317C181.666 501.947 181.822 501.52 181.92 501.035C182.027 500.551 182.081 500.029 182.081 499.471V499.212C182.081 498.67 182.027 498.161 181.92 497.684C181.822 497.2 181.662 496.773 181.44 496.403C181.226 496.025 180.943 495.73 180.59 495.516C180.237 495.303 179.81 495.196 179.309 495.196C178.808 495.196 178.381 495.303 178.028 495.516C177.683 495.73 177.399 496.025 177.178 496.403C176.964 496.773 176.808 497.2 176.709 497.684C176.611 498.161 176.562 498.67 176.562 499.212ZM191.295 495.516V506H187.747V492.67H191.074L191.295 495.516ZM190.778 498.867H189.817C189.817 497.882 189.944 496.995 190.199 496.206C190.454 495.409 190.811 494.732 191.271 494.173C191.731 493.607 192.277 493.176 192.909 492.88C193.55 492.576 194.264 492.424 195.053 492.424C195.677 492.424 196.248 492.514 196.765 492.695C197.283 492.876 197.726 493.163 198.096 493.557C198.474 493.952 198.761 494.473 198.958 495.122C199.163 495.771 199.266 496.563 199.266 497.5V506H195.693V497.487C195.693 496.896 195.611 496.436 195.447 496.108C195.283 495.779 195.041 495.549 194.72 495.418C194.408 495.278 194.022 495.208 193.562 495.208C193.086 495.208 192.671 495.303 192.318 495.492C191.973 495.681 191.686 495.943 191.456 496.28C191.234 496.609 191.066 496.995 190.951 497.438C190.836 497.882 190.778 498.358 190.778 498.867ZM218.373 488.063H222.057V499.914C222.057 501.294 221.761 502.456 221.17 503.401C220.587 504.345 219.778 505.056 218.743 505.532C217.716 506.008 216.534 506.246 215.195 506.246C213.856 506.246 212.665 506.008 211.622 505.532C210.588 505.056 209.774 504.345 209.183 503.401C208.6 502.456 208.308 501.294 208.308 499.914V488.063H212.004V499.914C212.004 500.719 212.132 501.376 212.386 501.885C212.641 502.395 213.006 502.768 213.483 503.006C213.967 503.245 214.538 503.364 215.195 503.364C215.868 503.364 216.439 503.245 216.907 503.006C217.384 502.768 217.745 502.395 217.991 501.885C218.246 501.376 218.373 500.719 218.373 499.914V488.063ZM228.426 495.233V511.125H224.878V492.67H228.167L228.426 495.233ZM236.865 499.187V499.446C236.865 500.415 236.75 501.315 236.52 502.144C236.298 502.974 235.969 503.696 235.534 504.312C235.099 504.92 234.557 505.396 233.908 505.741C233.267 506.078 232.528 506.246 231.691 506.246C230.877 506.246 230.171 506.082 229.572 505.754C228.972 505.425 228.467 504.965 228.056 504.374C227.654 503.774 227.33 503.08 227.083 502.292C226.837 501.503 226.648 500.658 226.516 499.754V499.077C226.648 498.107 226.837 497.22 227.083 496.416C227.33 495.602 227.654 494.9 228.056 494.309C228.467 493.709 228.968 493.245 229.559 492.917C230.159 492.588 230.861 492.424 231.666 492.424C232.512 492.424 233.255 492.584 233.896 492.905C234.545 493.225 235.087 493.685 235.522 494.284C235.965 494.884 236.298 495.598 236.52 496.428C236.75 497.257 236.865 498.177 236.865 499.187ZM233.304 499.446V499.187C233.304 498.621 233.255 498.099 233.157 497.623C233.066 497.138 232.918 496.715 232.713 496.354C232.516 495.993 232.253 495.713 231.925 495.516C231.604 495.311 231.214 495.208 230.754 495.208C230.27 495.208 229.855 495.286 229.51 495.442C229.173 495.598 228.898 495.824 228.685 496.12C228.471 496.416 228.311 496.769 228.204 497.179C228.097 497.59 228.032 498.054 228.007 498.571V500.284C228.048 500.892 228.163 501.438 228.352 501.922C228.541 502.399 228.832 502.776 229.227 503.056C229.621 503.335 230.138 503.475 230.779 503.475C231.247 503.475 231.641 503.372 231.962 503.167C232.282 502.953 232.541 502.661 232.738 502.292C232.943 501.922 233.087 501.495 233.169 501.011C233.259 500.526 233.304 500.005 233.304 499.446ZM246.942 503.093V487.078H250.515V506H247.299L246.942 503.093ZM238.515 499.495V499.237C238.515 498.218 238.63 497.294 238.86 496.465C239.09 495.627 239.427 494.908 239.871 494.309C240.314 493.709 240.86 493.245 241.509 492.917C242.158 492.588 242.897 492.424 243.727 492.424C244.507 492.424 245.188 492.588 245.772 492.917C246.363 493.245 246.864 493.714 247.275 494.321C247.693 494.921 248.03 495.631 248.285 496.453C248.539 497.266 248.724 498.157 248.839 499.126V499.693C248.724 500.621 248.539 501.483 248.285 502.28C248.03 503.076 247.693 503.774 247.275 504.374C246.864 504.965 246.363 505.425 245.772 505.754C245.18 506.082 244.49 506.246 243.702 506.246C242.872 506.246 242.133 506.078 241.484 505.741C240.844 505.405 240.302 504.932 239.858 504.325C239.423 503.717 239.09 503.002 238.86 502.181C238.63 501.36 238.515 500.465 238.515 499.495ZM242.063 499.237V499.495C242.063 500.046 242.105 500.559 242.187 501.035C242.277 501.512 242.421 501.935 242.618 502.304C242.823 502.666 243.086 502.949 243.406 503.154C243.735 503.351 244.133 503.45 244.601 503.45C245.209 503.45 245.71 503.314 246.104 503.043C246.498 502.764 246.798 502.382 247.004 501.898C247.217 501.413 247.34 500.855 247.373 500.222V498.608C247.348 498.091 247.275 497.627 247.151 497.216C247.036 496.797 246.864 496.44 246.634 496.145C246.412 495.849 246.133 495.619 245.796 495.455C245.468 495.29 245.078 495.208 244.626 495.208C244.166 495.208 243.772 495.315 243.443 495.529C243.115 495.734 242.848 496.017 242.642 496.379C242.445 496.74 242.298 497.167 242.199 497.66C242.109 498.144 242.063 498.67 242.063 499.237ZM260.481 502.994V497.056C260.481 496.629 260.411 496.264 260.271 495.96C260.132 495.648 259.914 495.405 259.619 495.233C259.331 495.06 258.957 494.974 258.497 494.974C258.103 494.974 257.762 495.044 257.475 495.184C257.187 495.315 256.966 495.508 256.81 495.763C256.654 496.009 256.576 496.301 256.576 496.637H253.028C253.028 496.071 253.159 495.533 253.422 495.023C253.685 494.514 254.067 494.067 254.568 493.681C255.069 493.286 255.664 492.978 256.354 492.757C257.052 492.535 257.832 492.424 258.695 492.424C259.729 492.424 260.649 492.597 261.454 492.942C262.259 493.286 262.891 493.804 263.351 494.494C263.819 495.184 264.053 496.046 264.053 497.081V502.785C264.053 503.516 264.099 504.115 264.189 504.583C264.279 505.043 264.411 505.446 264.583 505.791V506H260.998C260.826 505.639 260.694 505.187 260.604 504.645C260.522 504.095 260.481 503.544 260.481 502.994ZM260.949 497.882L260.974 499.89H258.99C258.522 499.89 258.116 499.943 257.771 500.05C257.426 500.157 257.142 500.308 256.921 500.506C256.699 500.694 256.535 500.916 256.428 501.171C256.329 501.425 256.28 501.705 256.28 502.009C256.28 502.312 256.35 502.588 256.489 502.834C256.629 503.072 256.83 503.261 257.093 503.401C257.356 503.532 257.664 503.598 258.017 503.598C258.551 503.598 259.015 503.491 259.409 503.277C259.803 503.064 260.107 502.801 260.321 502.489C260.542 502.177 260.657 501.881 260.666 501.602L261.602 503.105C261.471 503.442 261.29 503.791 261.06 504.152C260.838 504.513 260.555 504.854 260.21 505.175C259.865 505.487 259.45 505.745 258.966 505.951C258.481 506.148 257.906 506.246 257.241 506.246C256.395 506.246 255.627 506.078 254.937 505.741C254.255 505.396 253.713 504.924 253.311 504.325C252.917 503.717 252.72 503.027 252.72 502.255C252.72 501.557 252.851 500.937 253.114 500.395C253.377 499.853 253.763 499.397 254.272 499.027C254.789 498.649 255.434 498.366 256.206 498.177C256.978 497.98 257.873 497.882 258.892 497.882H260.949ZM273.318 492.67V495.184H265.556V492.67H273.318ZM267.478 489.381H271.026V501.984C271.026 502.37 271.075 502.666 271.174 502.871C271.281 503.076 271.437 503.22 271.642 503.302C271.847 503.376 272.106 503.413 272.418 503.413C272.64 503.413 272.837 503.405 273.01 503.388C273.19 503.364 273.342 503.339 273.465 503.314L273.478 505.926C273.174 506.025 272.845 506.103 272.492 506.16C272.139 506.218 271.749 506.246 271.322 506.246C270.542 506.246 269.86 506.119 269.277 505.864C268.702 505.602 268.258 505.183 267.946 504.608C267.634 504.033 267.478 503.277 267.478 502.341V489.381ZM281.473 506.246C280.438 506.246 279.51 506.082 278.689 505.754C277.868 505.417 277.169 504.953 276.595 504.362C276.028 503.77 275.593 503.084 275.289 502.304C274.985 501.516 274.833 500.678 274.833 499.791V499.298C274.833 498.288 274.977 497.364 275.264 496.526C275.552 495.689 275.962 494.962 276.496 494.346C277.038 493.73 277.695 493.258 278.467 492.929C279.239 492.592 280.11 492.424 281.079 492.424C282.023 492.424 282.861 492.58 283.592 492.892C284.323 493.204 284.935 493.648 285.428 494.223C285.928 494.798 286.306 495.488 286.561 496.292C286.815 497.089 286.943 497.976 286.943 498.953V500.432H276.348V498.066H283.456V497.795C283.456 497.303 283.366 496.863 283.185 496.477C283.013 496.083 282.75 495.771 282.397 495.541C282.044 495.311 281.592 495.196 281.042 495.196C280.574 495.196 280.171 495.299 279.835 495.504C279.498 495.709 279.223 495.997 279.009 496.366C278.804 496.736 278.648 497.171 278.541 497.672C278.442 498.165 278.393 498.707 278.393 499.298V499.791C278.393 500.325 278.467 500.818 278.615 501.269C278.771 501.721 278.989 502.111 279.268 502.44C279.555 502.768 279.9 503.023 280.303 503.204C280.713 503.384 281.177 503.475 281.695 503.475C282.335 503.475 282.931 503.351 283.481 503.105C284.04 502.85 284.52 502.468 284.922 501.959L286.647 503.832C286.368 504.234 285.986 504.62 285.501 504.99C285.025 505.359 284.45 505.663 283.777 505.901C283.103 506.131 282.335 506.246 281.473 506.246ZM296.835 503.093V487.078H300.408V506H297.192L296.835 503.093ZM288.409 499.495V499.237C288.409 498.218 288.524 497.294 288.754 496.465C288.984 495.627 289.32 494.908 289.764 494.309C290.207 493.709 290.754 493.245 291.402 492.917C292.051 492.588 292.79 492.424 293.62 492.424C294.4 492.424 295.082 492.588 295.665 492.917C296.256 493.245 296.757 493.714 297.168 494.321C297.587 494.921 297.923 495.631 298.178 496.453C298.433 497.266 298.617 498.157 298.732 499.126V499.693C298.617 500.621 298.433 501.483 298.178 502.28C297.923 503.076 297.587 503.774 297.168 504.374C296.757 504.965 296.256 505.425 295.665 505.754C295.074 506.082 294.384 506.246 293.595 506.246C292.766 506.246 292.027 506.078 291.378 505.741C290.737 505.405 290.195 504.932 289.752 504.325C289.316 503.717 288.984 503.002 288.754 502.181C288.524 501.36 288.409 500.465 288.409 499.495ZM291.957 499.237V499.495C291.957 500.046 291.998 500.559 292.08 501.035C292.17 501.512 292.314 501.935 292.511 502.304C292.716 502.666 292.979 502.949 293.3 503.154C293.628 503.351 294.026 503.45 294.495 503.45C295.102 503.45 295.603 503.314 295.997 503.043C296.392 502.764 296.691 502.382 296.897 501.898C297.11 501.413 297.234 500.855 297.266 500.222V498.608C297.242 498.091 297.168 497.627 297.045 497.216C296.93 496.797 296.757 496.44 296.527 496.145C296.305 495.849 296.026 495.619 295.69 495.455C295.361 495.29 294.971 495.208 294.519 495.208C294.059 495.208 293.665 495.315 293.337 495.529C293.008 495.734 292.741 496.017 292.536 496.379C292.339 496.74 292.191 497.167 292.092 497.66C292.002 498.144 291.957 498.67 291.957 499.237ZM307.183 488.063L306.777 500.518H303.82L303.401 488.063H307.183ZM303.303 504.374C303.303 503.848 303.484 503.413 303.845 503.068C304.215 502.715 304.699 502.538 305.299 502.538C305.906 502.538 306.391 502.715 306.752 503.068C307.114 503.413 307.294 503.848 307.294 504.374C307.294 504.883 307.114 505.314 306.752 505.667C306.391 506.021 305.906 506.197 305.299 506.197C304.699 506.197 304.215 506.021 303.845 505.667C303.484 505.314 303.303 504.883 303.303 504.374Z" fill="#040404"/>
<circle cx="214" cy="386" r="72" fill="#C9F8E1"/>
<path d="M179 386.125C179 367.123 194.363 351.625 213.5 351.625C232.502 351.625 248 367.123 248 386.125C248 405.262 232.502 420.625 213.5 420.625C194.363 420.625 179 405.262 179 386.125ZM228.998 380.195C230.48 378.713 230.48 376.422 228.998 374.939C227.516 373.457 225.225 373.457 223.742 374.939L209.188 389.494L203.123 383.564C201.641 382.082 199.35 382.082 197.867 383.564C196.385 385.047 196.385 387.338 197.867 388.82L206.492 397.445C207.975 398.928 210.266 398.928 211.748 397.445L228.998 380.195Z" fill="#00E676"/>
<defs>
<clipPath id="clip0_56193_25109">
<rect width="412" height="892" fill="white"/>
</clipPath>
</defs>
</svg>
