<svg width="412" height="892" viewBox="0 0 412 892" fill="none" xmlns="http://www.w3.org/2000/svg">
<g clip-path="url(#clip0_56193_25109)">
<rect width="412" height="892" fill="#FAFAFA"/>
<path d="M26.0781 35.7012H26.2148C26.8438 35.7012 27.3678 35.6191 27.7871 35.4551C28.2109 35.2865 28.5482 35.054 28.7988 34.7578C29.0495 34.4616 29.2295 34.113 29.3389 33.7119C29.4482 33.3109 29.5029 32.8757 29.5029 32.4062V30.6904C29.5029 30.2848 29.4596 29.9294 29.373 29.624C29.291 29.3141 29.1725 29.0566 29.0176 28.8516C28.8672 28.6419 28.6917 28.4847 28.4912 28.3799C28.2952 28.2751 28.0833 28.2227 27.8555 28.2227C27.6048 28.2227 27.3792 28.2796 27.1787 28.3936C26.9827 28.5029 26.8164 28.6556 26.6797 28.8516C26.5475 29.043 26.445 29.2686 26.3721 29.5283C26.3037 29.7835 26.2695 30.057 26.2695 30.3486C26.2695 30.6221 26.3014 30.8864 26.3652 31.1416C26.4336 31.3923 26.5339 31.6156 26.666 31.8115C26.7982 32.0075 26.9645 32.1624 27.165 32.2764C27.3656 32.3903 27.6003 32.4473 27.8691 32.4473C28.1243 32.4473 28.359 32.3994 28.5732 32.3037C28.7874 32.2035 28.9743 32.069 29.1338 31.9004C29.2933 31.7318 29.4186 31.5426 29.5098 31.333C29.6009 31.1234 29.651 30.9092 29.6602 30.6904L30.2891 30.8818C30.2891 31.2282 30.2161 31.57 30.0703 31.9072C29.929 32.2399 29.7308 32.5452 29.4756 32.8232C29.2249 33.0967 28.931 33.3154 28.5938 33.4795C28.2611 33.6436 27.8988 33.7256 27.5068 33.7256C27.0329 33.7256 26.6136 33.6367 26.249 33.459C25.889 33.2767 25.5882 33.0306 25.3467 32.7207C25.1097 32.4108 24.932 32.0553 24.8135 31.6543C24.695 31.2533 24.6357 30.8317 24.6357 30.3896C24.6357 29.9111 24.7087 29.4622 24.8545 29.043C25.0003 28.6237 25.2122 28.2546 25.4902 27.9355C25.7682 27.612 26.1055 27.3613 26.502 27.1836C26.903 27.0013 27.3564 26.9102 27.8623 26.9102C28.4001 26.9102 28.8717 27.015 29.2773 27.2246C29.6829 27.4342 30.0247 27.7236 30.3027 28.0928C30.5807 28.4619 30.7904 28.8903 30.9316 29.3779C31.0729 29.8656 31.1436 30.3896 31.1436 30.9502V31.5312C31.1436 32.1191 31.0911 32.6865 30.9863 33.2334C30.8815 33.7757 30.7106 34.2793 30.4736 34.7441C30.2412 35.2044 29.9336 35.61 29.5508 35.9609C29.1725 36.3073 28.7077 36.5785 28.1562 36.7744C27.6094 36.9658 26.9668 37.0615 26.2285 37.0615H26.0781V35.7012ZM33.1019 36.1797C33.1019 35.9245 33.1885 35.7103 33.3617 35.5371C33.5349 35.3594 33.7696 35.2705 34.0658 35.2705C34.3666 35.2705 34.6013 35.3594 34.7699 35.5371C34.9431 35.7103 35.0296 35.9245 35.0296 36.1797C35.0296 36.4349 34.9431 36.6491 34.7699 36.8223C34.6013 36.9954 34.3666 37.082 34.0658 37.082C33.7696 37.082 33.5349 36.9954 33.3617 36.8223C33.1885 36.6491 33.1019 36.4349 33.1019 36.1797ZM33.1088 30.3555C33.1088 30.1003 33.1953 29.8861 33.3685 29.7129C33.5417 29.5352 33.7764 29.4463 34.0726 29.4463C34.3734 29.4463 34.6081 29.5352 34.7767 29.7129C34.9499 29.8861 35.0365 30.1003 35.0365 30.3555C35.0365 30.6107 34.9499 30.8249 34.7767 30.998C34.6081 31.1712 34.3734 31.2578 34.0726 31.2578C33.7764 31.2578 33.5417 31.1712 33.3685 30.998C33.1953 30.8249 33.1088 30.6107 33.1088 30.3555ZM38.7517 31.2783H39.7361C40.1189 31.2783 40.4356 31.2122 40.6862 31.0801C40.9415 30.9479 41.1306 30.7656 41.2536 30.5332C41.3767 30.3008 41.4382 30.0342 41.4382 29.7334C41.4382 29.4189 41.3812 29.1501 41.2673 28.9268C41.1579 28.6989 40.9893 28.5234 40.7614 28.4004C40.5381 28.2773 40.2533 28.2158 39.907 28.2158C39.6153 28.2158 39.351 28.2751 39.114 28.3936C38.8816 28.5075 38.697 28.6715 38.5603 28.8857C38.4236 29.0954 38.3552 29.346 38.3552 29.6377H36.7009C36.7009 29.109 36.8399 28.6396 37.1179 28.2295C37.3959 27.8193 37.7741 27.498 38.2527 27.2656C38.7357 27.0286 39.278 26.9102 39.8796 26.9102C40.5222 26.9102 41.0827 27.0173 41.5612 27.2314C42.0443 27.4411 42.4203 27.7555 42.6892 28.1748C42.9581 28.5941 43.0925 29.1136 43.0925 29.7334C43.0925 30.016 43.0264 30.3031 42.8943 30.5947C42.7621 30.8864 42.5661 31.153 42.3064 31.3945C42.0466 31.6315 41.723 31.8252 41.3357 31.9756C40.9483 32.1214 40.4994 32.1943 39.989 32.1943H38.7517V31.2783ZM38.7517 32.5635V31.6611H39.989C40.5723 31.6611 41.0691 31.7295 41.4792 31.8662C41.8939 32.0029 42.2312 32.1921 42.4909 32.4336C42.7507 32.6706 42.9398 32.9417 43.0583 33.2471C43.1814 33.5524 43.2429 33.876 43.2429 34.2178C43.2429 34.6826 43.1586 35.0973 42.99 35.4619C42.8259 35.8219 42.5912 36.1273 42.2859 36.3779C41.9805 36.6286 41.6228 36.8177 41.2126 36.9453C40.807 37.0729 40.365 37.1367 39.8864 37.1367C39.4581 37.1367 39.0479 37.0775 38.656 36.959C38.264 36.8405 37.9131 36.665 37.6032 36.4326C37.2933 36.1956 37.0473 35.9017 36.865 35.5508C36.6872 35.1953 36.5984 34.7852 36.5984 34.3203H38.2458C38.2458 34.6165 38.3142 34.8786 38.4509 35.1064C38.5922 35.3298 38.7881 35.5052 39.0388 35.6328C39.294 35.7604 39.5857 35.8242 39.9138 35.8242C40.2601 35.8242 40.5586 35.7627 40.8093 35.6396C41.0599 35.5166 41.2514 35.3343 41.3835 35.0928C41.5202 34.8512 41.5886 34.5596 41.5886 34.2178C41.5886 33.8304 41.5134 33.516 41.363 33.2744C41.2126 33.0329 40.9984 32.8551 40.7204 32.7412C40.4424 32.6227 40.1143 32.5635 39.7361 32.5635H38.7517ZM51.5382 31.1895V32.8164C51.5382 33.5957 51.4607 34.2611 51.3057 34.8125C51.1554 35.3594 50.9366 35.8037 50.6495 36.1455C50.3624 36.4873 50.0183 36.738 49.6173 36.8975C49.2208 37.057 48.7764 37.1367 48.2843 37.1367C47.8923 37.1367 47.5277 37.0866 47.1905 36.9863C46.8578 36.8861 46.557 36.7288 46.2882 36.5146C46.0193 36.3005 45.7891 36.0247 45.5977 35.6875C45.4109 35.3457 45.2651 34.9378 45.1602 34.4639C45.06 33.9899 45.0098 33.4408 45.0098 32.8164V31.1895C45.0098 30.4056 45.0873 29.7448 45.2423 29.207C45.3972 28.6647 45.6182 28.2249 45.9054 27.8877C46.1925 27.5459 46.5343 27.2975 46.9307 27.1426C47.3318 26.9876 47.7784 26.9102 48.2706 26.9102C48.6671 26.9102 49.0317 26.9603 49.3643 27.0605C49.7016 27.1562 50.0024 27.3089 50.2667 27.5186C50.5356 27.7282 50.7634 28.0016 50.9503 28.3389C51.1417 28.6715 51.2875 29.0749 51.3878 29.5488C51.488 30.0182 51.5382 30.5651 51.5382 31.1895ZM49.8907 33.0488V30.9434C49.8907 30.5469 49.8679 30.1982 49.8223 29.8975C49.7768 29.5921 49.7084 29.3346 49.6173 29.125C49.5307 28.9108 49.4213 28.7376 49.2891 28.6055C49.157 28.4688 49.0066 28.3708 48.838 28.3115C48.6693 28.2477 48.4802 28.2158 48.2706 28.2158C48.0154 28.2158 47.7875 28.266 47.587 28.3662C47.3865 28.4619 47.2179 28.6169 47.0811 28.8311C46.9444 29.0452 46.8396 29.3278 46.7667 29.6787C46.6983 30.0251 46.6641 30.4466 46.6641 30.9434V33.0488C46.6641 33.4499 46.6869 33.8031 46.7325 34.1084C46.7781 34.4137 46.8464 34.6758 46.9376 34.8945C47.0287 35.1087 47.1381 35.2865 47.2657 35.4277C47.3979 35.5645 47.5483 35.6647 47.7169 35.7285C47.8901 35.7923 48.0792 35.8242 48.2843 35.8242C48.544 35.8242 48.7742 35.7741 48.9747 35.6738C49.1752 35.5736 49.3438 35.4141 49.4805 35.1953C49.6173 34.972 49.7198 34.6826 49.7882 34.3271C49.8565 33.9717 49.8907 33.5456 49.8907 33.0488Z" fill="#1F1F1F"/>
<path opacity="0.1" d="M350.5 26.4167C347.1 26.4167 344.125 27.9042 342 30.2417L350.5 40.5833L359 30.2417C356.875 27.9042 353.9 26.4167 350.5 26.4167Z" fill="#1F1F1F"/>
<path d="M373.584 26.4167L359.417 40.5833H373.584V26.4167V26.4167Z" fill="#1F1F1F"/>
<path d="M385.5 26H382.5V27.5H381C380.448 27.5 380 28.0037 380 28.625V39.875C380 40.4963 380.448 41 381 41H387C387.552 41 388 40.4963 388 39.875V28.625C388 28.0037 387.552 27.5 387 27.5H385.5V26Z" fill="#1F1F1F" fill-opacity="0.3"/>
<path d="M380 34C380 34.5833 380 39.3667 380 39.95C380 40.5299 380.448 41 381 41H387C387.552 41 388 40.5299 388 39.95C388 39.3667 388 34.5833 388 34H380Z" fill="#1F1F1F"/>
</g>
<rect x="20" y="822" width="372" height="50" rx="5" fill="#0A3FAD"/>
<path d="M170.856 849.422L173.201 841.547H175.484L172.019 851.5H170.515L170.856 849.422ZM168.696 841.547L171.034 849.422L171.39 851.5H169.872L166.427 841.547H168.696ZM178.369 844.104V851.5H176.394V844.104H178.369ZM176.271 842.176C176.271 841.889 176.371 841.652 176.571 841.465C176.772 841.278 177.041 841.185 177.378 841.185C177.711 841.185 177.977 841.278 178.178 841.465C178.383 841.652 178.485 841.889 178.485 842.176C178.485 842.463 178.383 842.7 178.178 842.887C177.977 843.074 177.711 843.167 177.378 843.167C177.041 843.167 176.772 843.074 176.571 842.887C176.371 842.7 176.271 842.463 176.271 842.176ZM183.4 851.637C182.826 851.637 182.311 851.546 181.855 851.363C181.4 851.176 181.012 850.919 180.693 850.591C180.379 850.263 180.137 849.882 179.969 849.449C179.8 849.012 179.716 848.547 179.716 848.055V847.781C179.716 847.221 179.796 846.708 179.955 846.243C180.115 845.778 180.342 845.375 180.639 845.033C180.939 844.691 181.304 844.429 181.732 844.247C182.161 844.06 182.644 843.967 183.182 843.967C183.706 843.967 184.171 844.053 184.576 844.227C184.982 844.4 185.321 844.646 185.595 844.965C185.873 845.284 186.082 845.667 186.224 846.113C186.365 846.555 186.436 847.048 186.436 847.59V848.41H180.557V847.098H184.501V846.947C184.501 846.674 184.451 846.43 184.351 846.216C184.255 845.997 184.109 845.824 183.913 845.696C183.717 845.569 183.466 845.505 183.161 845.505C182.901 845.505 182.678 845.562 182.491 845.676C182.304 845.79 182.152 845.949 182.033 846.154C181.919 846.359 181.833 846.601 181.773 846.879C181.719 847.152 181.691 847.453 181.691 847.781V848.055C181.691 848.351 181.732 848.624 181.814 848.875C181.901 849.126 182.022 849.342 182.177 849.524C182.336 849.707 182.528 849.848 182.751 849.948C182.979 850.049 183.236 850.099 183.523 850.099C183.879 850.099 184.209 850.03 184.515 849.894C184.825 849.752 185.091 849.54 185.314 849.258L186.271 850.297C186.117 850.52 185.905 850.734 185.636 850.939C185.371 851.145 185.052 851.313 184.679 851.445C184.305 851.573 183.879 851.637 183.4 851.637ZM189.669 849.586L191.207 844.104H192.458L192.055 846.257L190.517 851.5H189.471L189.669 849.586ZM188.89 844.104L189.99 849.579L190.093 851.5H188.862L186.989 844.104H188.89ZM193.866 849.49L194.939 844.104H196.847L194.974 851.5H193.75L193.866 849.49ZM192.629 844.104L194.16 849.545L194.372 851.5H193.319L191.781 846.264L191.392 844.104H192.629ZM206.629 848.896C206.629 848.718 206.602 848.558 206.547 848.417C206.497 848.271 206.401 848.139 206.26 848.021C206.118 847.897 205.92 847.777 205.665 847.658C205.41 847.54 205.079 847.417 204.674 847.289C204.223 847.143 203.794 846.979 203.389 846.797C202.988 846.615 202.632 846.403 202.322 846.161C202.017 845.915 201.775 845.63 201.598 845.307C201.424 844.983 201.338 844.607 201.338 844.179C201.338 843.764 201.429 843.388 201.611 843.051C201.794 842.709 202.049 842.417 202.377 842.176C202.705 841.93 203.092 841.741 203.539 841.608C203.99 841.476 204.485 841.41 205.022 841.41C205.756 841.41 206.396 841.542 206.943 841.807C207.49 842.071 207.914 842.433 208.215 842.894C208.52 843.354 208.673 843.88 208.673 844.473H206.636C206.636 844.181 206.574 843.926 206.451 843.707C206.333 843.484 206.15 843.308 205.904 843.181C205.663 843.053 205.357 842.989 204.988 842.989C204.633 842.989 204.337 843.044 204.1 843.153C203.863 843.258 203.685 843.402 203.566 843.584C203.448 843.762 203.389 843.962 203.389 844.186C203.389 844.354 203.43 844.507 203.512 844.644C203.598 844.78 203.726 844.908 203.895 845.026C204.063 845.145 204.271 845.257 204.517 845.361C204.763 845.466 205.048 845.569 205.371 845.669C205.913 845.833 206.39 846.018 206.8 846.223C207.215 846.428 207.561 846.658 207.839 846.913C208.117 847.168 208.326 847.458 208.468 847.781C208.609 848.105 208.68 848.472 208.68 848.882C208.68 849.315 208.595 849.702 208.427 850.044C208.258 850.386 208.014 850.675 207.695 850.912C207.376 851.149 206.996 851.329 206.554 851.452C206.112 851.575 205.617 851.637 205.07 851.637C204.578 851.637 204.093 851.573 203.614 851.445C203.136 851.313 202.701 851.115 202.309 850.851C201.921 850.586 201.611 850.249 201.379 849.839C201.146 849.429 201.03 848.943 201.03 848.383H203.088C203.088 848.693 203.136 848.955 203.231 849.169C203.327 849.383 203.462 849.556 203.635 849.688C203.812 849.821 204.022 849.916 204.264 849.976C204.51 850.035 204.779 850.064 205.07 850.064C205.426 850.064 205.717 850.014 205.945 849.914C206.178 849.814 206.349 849.675 206.458 849.497C206.572 849.319 206.629 849.119 206.629 848.896ZM213.574 844.104V845.498H209.268V844.104H213.574ZM210.334 842.278H212.303V849.271C212.303 849.486 212.33 849.65 212.385 849.764C212.444 849.878 212.531 849.957 212.645 850.003C212.758 850.044 212.902 850.064 213.075 850.064C213.198 850.064 213.308 850.06 213.403 850.051C213.504 850.037 213.588 850.023 213.656 850.01L213.663 851.459C213.494 851.514 213.312 851.557 213.116 851.589C212.92 851.621 212.704 851.637 212.467 851.637C212.034 851.637 211.656 851.566 211.332 851.425C211.013 851.279 210.767 851.047 210.594 850.728C210.421 850.409 210.334 849.989 210.334 849.47V842.278ZM218.688 849.832V846.537C218.688 846.3 218.649 846.097 218.571 845.929C218.494 845.756 218.373 845.621 218.209 845.525C218.049 845.43 217.842 845.382 217.587 845.382C217.368 845.382 217.179 845.421 217.02 845.498C216.86 845.571 216.737 845.678 216.65 845.819C216.564 845.956 216.521 846.118 216.521 846.305H214.552C214.552 845.99 214.625 845.692 214.771 845.409C214.916 845.127 215.128 844.878 215.406 844.664C215.684 844.445 216.015 844.274 216.397 844.151C216.785 844.028 217.218 843.967 217.696 843.967C218.271 843.967 218.781 844.062 219.228 844.254C219.674 844.445 220.025 844.732 220.28 845.115C220.54 845.498 220.67 845.977 220.67 846.551V849.716C220.67 850.121 220.695 850.454 220.745 850.714C220.795 850.969 220.868 851.192 220.964 851.384V851.5H218.975C218.879 851.299 218.806 851.049 218.756 850.748C218.71 850.443 218.688 850.137 218.688 849.832ZM218.947 846.995L218.961 848.109H217.86C217.601 848.109 217.375 848.139 217.184 848.198C216.992 848.257 216.835 848.342 216.712 848.451C216.589 848.556 216.498 848.679 216.438 848.82C216.384 848.962 216.356 849.117 216.356 849.285C216.356 849.454 216.395 849.606 216.473 849.743C216.55 849.875 216.662 849.98 216.808 850.058C216.953 850.131 217.124 850.167 217.32 850.167C217.617 850.167 217.874 850.108 218.093 849.989C218.312 849.871 218.48 849.725 218.599 849.552C218.722 849.379 218.785 849.215 218.79 849.06L219.31 849.894C219.237 850.08 219.136 850.274 219.009 850.475C218.886 850.675 218.729 850.864 218.537 851.042C218.346 851.215 218.116 851.359 217.847 851.473C217.578 851.582 217.259 851.637 216.89 851.637C216.42 851.637 215.994 851.543 215.611 851.356C215.233 851.165 214.932 850.903 214.709 850.57C214.49 850.233 214.381 849.85 214.381 849.422C214.381 849.035 214.454 848.69 214.6 848.39C214.745 848.089 214.96 847.836 215.242 847.631C215.529 847.421 215.887 847.264 216.315 847.159C216.744 847.05 217.241 846.995 217.806 846.995H218.947ZM225.811 844.104V845.498H221.504V844.104H225.811ZM222.57 842.278H224.539V849.271C224.539 849.486 224.566 849.65 224.621 849.764C224.68 849.878 224.767 849.957 224.881 850.003C224.995 850.044 225.138 850.064 225.312 850.064C225.435 850.064 225.544 850.06 225.64 850.051C225.74 850.037 225.824 850.023 225.893 850.01L225.899 851.459C225.731 851.514 225.549 851.557 225.353 851.589C225.157 851.621 224.94 851.637 224.703 851.637C224.27 851.637 223.892 851.566 223.568 851.425C223.249 851.279 223.003 851.047 222.83 850.728C222.657 850.409 222.57 849.989 222.57 849.47V842.278ZM229.01 844.104V851.5H227.034V844.104H229.01ZM226.911 842.176C226.911 841.889 227.011 841.652 227.212 841.465C227.412 841.278 227.681 841.185 228.019 841.185C228.351 841.185 228.618 841.278 228.818 841.465C229.023 841.652 229.126 841.889 229.126 842.176C229.126 842.463 229.023 842.7 228.818 842.887C228.618 843.074 228.351 843.167 228.019 843.167C227.681 843.167 227.412 843.074 227.212 842.887C227.011 842.7 226.911 842.463 226.911 842.176ZM230.322 847.877V847.733C230.322 847.191 230.4 846.692 230.555 846.236C230.71 845.776 230.935 845.377 231.231 845.04C231.528 844.703 231.892 844.441 232.325 844.254C232.758 844.062 233.255 843.967 233.815 843.967C234.376 843.967 234.875 844.062 235.312 844.254C235.75 844.441 236.117 844.703 236.413 845.04C236.714 845.377 236.942 845.776 237.097 846.236C237.252 846.692 237.329 847.191 237.329 847.733V847.877C237.329 848.415 237.252 848.914 237.097 849.374C236.942 849.83 236.714 850.229 236.413 850.57C236.117 850.908 235.752 851.17 235.319 851.356C234.886 851.543 234.39 851.637 233.829 851.637C233.269 851.637 232.77 851.543 232.332 851.356C231.899 851.17 231.532 850.908 231.231 850.57C230.935 850.229 230.71 849.83 230.555 849.374C230.4 848.914 230.322 848.415 230.322 847.877ZM232.291 847.733V847.877C232.291 848.187 232.318 848.476 232.373 848.745C232.428 849.014 232.514 849.251 232.633 849.456C232.756 849.657 232.915 849.814 233.111 849.928C233.307 850.042 233.547 850.099 233.829 850.099C234.103 850.099 234.337 850.042 234.533 849.928C234.729 849.814 234.886 849.657 235.005 849.456C235.123 849.251 235.21 849.014 235.265 848.745C235.324 848.476 235.354 848.187 235.354 847.877V847.733C235.354 847.433 235.324 847.15 235.265 846.886C235.21 846.617 235.121 846.38 234.998 846.175C234.88 845.965 234.722 845.801 234.526 845.683C234.33 845.564 234.093 845.505 233.815 845.505C233.537 845.505 233.3 845.564 233.104 845.683C232.913 845.801 232.756 845.965 232.633 846.175C232.514 846.38 232.428 846.617 232.373 846.886C232.318 847.15 232.291 847.433 232.291 847.733ZM240.467 845.683V851.5H238.498V844.104H240.344L240.467 845.683ZM240.18 847.542H239.646C239.646 846.995 239.717 846.503 239.858 846.065C240 845.623 240.198 845.247 240.453 844.938C240.708 844.623 241.011 844.384 241.362 844.22C241.718 844.051 242.114 843.967 242.552 843.967C242.898 843.967 243.215 844.017 243.502 844.117C243.789 844.217 244.035 844.377 244.24 844.596C244.45 844.814 244.609 845.104 244.719 845.464C244.833 845.824 244.89 846.264 244.89 846.783V851.5H242.907V846.776C242.907 846.448 242.862 846.193 242.771 846.011C242.679 845.828 242.545 845.701 242.367 845.628C242.194 845.55 241.98 845.512 241.725 845.512C241.46 845.512 241.23 845.564 241.034 845.669C240.843 845.774 240.683 845.92 240.556 846.106C240.433 846.289 240.339 846.503 240.275 846.749C240.212 846.995 240.18 847.259 240.18 847.542Z" fill="#FAFAFA"/>
<path d="M71.4004 531.047L73.9844 536.044L76.5752 531.047H78.0723L74.6406 537.281V541H73.3213V537.281L69.8896 531.047H71.4004ZM78.373 537.384V537.227C78.373 536.693 78.4505 536.199 78.6055 535.743C78.7604 535.283 78.9837 534.884 79.2754 534.547C79.5671 534.205 79.9202 533.941 80.335 533.754C80.7497 533.562 81.2145 533.467 81.7295 533.467C82.249 533.467 82.7161 533.562 83.1309 533.754C83.5501 533.941 83.9056 534.205 84.1973 534.547C84.4935 534.884 84.7191 535.283 84.874 535.743C85.029 536.199 85.1064 536.693 85.1064 537.227V537.384C85.1064 537.917 85.029 538.411 84.874 538.867C84.7191 539.323 84.4935 539.722 84.1973 540.063C83.9056 540.401 83.5524 540.665 83.1377 540.856C82.7275 541.043 82.2627 541.137 81.7432 541.137C81.2236 541.137 80.7565 541.043 80.3418 540.856C79.9271 540.665 79.5716 540.401 79.2754 540.063C78.9837 539.722 78.7604 539.323 78.6055 538.867C78.4505 538.411 78.373 537.917 78.373 537.384ZM79.6377 537.227V537.384C79.6377 537.753 79.681 538.102 79.7676 538.43C79.8542 538.753 79.984 539.04 80.1572 539.291C80.335 539.542 80.556 539.74 80.8203 539.886C81.0846 540.027 81.3923 540.098 81.7432 540.098C82.0895 540.098 82.3926 540.027 82.6523 539.886C82.9167 539.74 83.1354 539.542 83.3086 539.291C83.4818 539.04 83.6117 538.753 83.6982 538.43C83.7894 538.102 83.835 537.753 83.835 537.384V537.227C83.835 536.862 83.7894 536.518 83.6982 536.194C83.6117 535.866 83.4795 535.577 83.3018 535.326C83.1286 535.071 82.9098 534.87 82.6455 534.725C82.3857 534.579 82.0804 534.506 81.7295 534.506C81.3831 534.506 81.0778 534.579 80.8135 534.725C80.5537 534.87 80.335 535.071 80.1572 535.326C79.984 535.577 79.8542 535.866 79.7676 536.194C79.681 536.518 79.6377 536.862 79.6377 537.227ZM91.2178 539.291V533.604H92.4893V541H91.2793L91.2178 539.291ZM91.457 537.732L91.9834 537.719C91.9834 538.211 91.931 538.667 91.8262 539.086C91.7259 539.501 91.5618 539.861 91.334 540.166C91.1061 540.471 90.8076 540.711 90.4385 540.884C90.0693 541.052 89.6204 541.137 89.0918 541.137C88.7318 541.137 88.4014 541.084 88.1006 540.979C87.8044 540.875 87.5492 540.713 87.335 540.494C87.1208 540.275 86.9544 539.991 86.8359 539.64C86.722 539.289 86.665 538.867 86.665 538.375V533.604H87.9297V538.389C87.9297 538.721 87.9661 538.997 88.0391 539.216C88.1165 539.43 88.2191 539.601 88.3467 539.729C88.4788 539.852 88.6247 539.938 88.7842 539.988C88.9482 540.038 89.1169 540.063 89.29 540.063C89.8278 540.063 90.2539 539.961 90.5684 539.756C90.8828 539.546 91.1084 539.266 91.2451 538.915C91.3864 538.56 91.457 538.165 91.457 537.732ZM95.6816 534.766V541H94.417V533.604H95.6475L95.6816 534.766ZM97.9922 533.562L97.9854 534.738C97.8805 534.715 97.7803 534.702 97.6846 534.697C97.5934 534.688 97.4886 534.684 97.3701 534.684C97.0785 534.684 96.821 534.729 96.5977 534.82C96.3743 534.911 96.1852 535.039 96.0303 535.203C95.8753 535.367 95.7523 535.563 95.6611 535.791C95.5745 536.014 95.5176 536.26 95.4902 536.529L95.1348 536.734C95.1348 536.288 95.1781 535.868 95.2646 535.477C95.3558 535.085 95.4948 534.738 95.6816 534.438C95.8685 534.132 96.1055 533.895 96.3926 533.727C96.6842 533.553 97.0306 533.467 97.4316 533.467C97.5228 533.467 97.6276 533.478 97.7461 533.501C97.8646 533.519 97.9466 533.54 97.9922 533.562ZM106.94 539.038C106.94 538.856 106.899 538.687 106.817 538.532C106.74 538.373 106.578 538.229 106.332 538.102C106.09 537.969 105.726 537.855 105.238 537.76C104.828 537.673 104.457 537.571 104.124 537.452C103.796 537.334 103.516 537.19 103.283 537.021C103.055 536.853 102.88 536.655 102.757 536.427C102.634 536.199 102.572 535.932 102.572 535.627C102.572 535.335 102.636 535.06 102.764 534.8C102.896 534.54 103.08 534.31 103.317 534.109C103.559 533.909 103.848 533.752 104.186 533.638C104.523 533.524 104.899 533.467 105.313 533.467C105.906 533.467 106.412 533.572 106.831 533.781C107.25 533.991 107.572 534.271 107.795 534.622C108.018 534.968 108.13 535.354 108.13 535.777H106.865C106.865 535.572 106.804 535.374 106.681 535.183C106.562 534.987 106.387 534.825 106.154 534.697C105.926 534.57 105.646 534.506 105.313 534.506C104.963 534.506 104.678 534.561 104.459 534.67C104.245 534.775 104.088 534.909 103.987 535.073C103.892 535.237 103.844 535.41 103.844 535.593C103.844 535.729 103.867 535.853 103.912 535.962C103.962 536.067 104.049 536.165 104.172 536.256C104.295 536.342 104.468 536.424 104.691 536.502C104.915 536.579 105.2 536.657 105.546 536.734C106.152 536.871 106.651 537.035 107.043 537.227C107.435 537.418 107.727 537.653 107.918 537.931C108.109 538.209 108.205 538.546 108.205 538.942C108.205 539.266 108.137 539.562 108 539.831C107.868 540.1 107.674 540.332 107.419 540.528C107.168 540.72 106.868 540.87 106.517 540.979C106.17 541.084 105.781 541.137 105.348 541.137C104.696 541.137 104.145 541.021 103.693 540.788C103.242 540.556 102.9 540.255 102.668 539.886C102.436 539.517 102.319 539.127 102.319 538.717H103.591C103.609 539.063 103.709 539.339 103.892 539.544C104.074 539.744 104.297 539.888 104.562 539.975C104.826 540.057 105.088 540.098 105.348 540.098C105.694 540.098 105.983 540.052 106.216 539.961C106.453 539.87 106.633 539.744 106.756 539.585C106.879 539.425 106.94 539.243 106.94 539.038ZM112.963 533.604V534.574H108.964V533.604H112.963ZM110.317 531.806H111.582V539.168C111.582 539.419 111.621 539.608 111.698 539.735C111.776 539.863 111.876 539.947 111.999 539.988C112.122 540.029 112.254 540.05 112.396 540.05C112.5 540.05 112.61 540.041 112.724 540.022C112.842 540 112.931 539.981 112.99 539.968L112.997 541C112.897 541.032 112.765 541.062 112.601 541.089C112.441 541.121 112.247 541.137 112.02 541.137C111.71 541.137 111.425 541.075 111.165 540.952C110.905 540.829 110.698 540.624 110.543 540.337C110.393 540.045 110.317 539.653 110.317 539.161V531.806ZM118.808 539.735V535.928C118.808 535.636 118.748 535.383 118.63 535.169C118.516 534.95 118.343 534.782 118.11 534.663C117.878 534.545 117.591 534.485 117.249 534.485C116.93 534.485 116.65 534.54 116.408 534.649C116.171 534.759 115.984 534.902 115.848 535.08C115.715 535.258 115.649 535.449 115.649 535.654H114.385C114.385 535.39 114.453 535.128 114.59 534.868C114.727 534.608 114.923 534.374 115.178 534.164C115.438 533.95 115.747 533.781 116.107 533.658C116.472 533.531 116.878 533.467 117.324 533.467C117.862 533.467 118.336 533.558 118.746 533.74C119.161 533.923 119.484 534.198 119.717 534.567C119.954 534.932 120.072 535.39 120.072 535.941V539.387C120.072 539.633 120.093 539.895 120.134 540.173C120.179 540.451 120.245 540.69 120.332 540.891V541H119.013C118.949 540.854 118.899 540.66 118.862 540.419C118.826 540.173 118.808 539.945 118.808 539.735ZM119.026 536.516L119.04 537.404H117.762C117.402 537.404 117.08 537.434 116.798 537.493C116.515 537.548 116.278 537.632 116.087 537.746C115.896 537.86 115.75 538.004 115.649 538.177C115.549 538.345 115.499 538.544 115.499 538.771C115.499 539.004 115.551 539.216 115.656 539.407C115.761 539.599 115.918 539.751 116.128 539.865C116.342 539.975 116.604 540.029 116.914 540.029C117.301 540.029 117.643 539.947 117.939 539.783C118.236 539.619 118.47 539.419 118.644 539.182C118.821 538.945 118.917 538.715 118.931 538.491L119.471 539.1C119.439 539.291 119.352 539.503 119.211 539.735C119.07 539.968 118.881 540.191 118.644 540.405C118.411 540.615 118.133 540.79 117.81 540.932C117.491 541.068 117.131 541.137 116.729 541.137C116.228 541.137 115.788 541.039 115.41 540.843C115.036 540.647 114.745 540.385 114.535 540.057C114.33 539.724 114.228 539.353 114.228 538.942C114.228 538.546 114.305 538.197 114.46 537.896C114.615 537.591 114.838 537.338 115.13 537.138C115.422 536.933 115.772 536.778 116.183 536.673C116.593 536.568 117.051 536.516 117.557 536.516H119.026ZM125.158 533.604V534.574H121.159V533.604H125.158ZM122.513 531.806H123.777V539.168C123.777 539.419 123.816 539.608 123.894 539.735C123.971 539.863 124.071 539.947 124.194 539.988C124.317 540.029 124.45 540.05 124.591 540.05C124.696 540.05 124.805 540.041 124.919 540.022C125.037 540 125.126 539.981 125.186 539.968L125.192 541C125.092 541.032 124.96 541.062 124.796 541.089C124.636 541.121 124.443 541.137 124.215 541.137C123.905 541.137 123.62 541.075 123.36 540.952C123.101 540.829 122.893 540.624 122.738 540.337C122.588 540.045 122.513 539.653 122.513 539.161V531.806ZM128.016 533.604V541H126.744V533.604H128.016ZM126.648 531.642C126.648 531.437 126.71 531.263 126.833 531.122C126.961 530.981 127.147 530.91 127.394 530.91C127.635 530.91 127.82 530.981 127.947 531.122C128.079 531.263 128.146 531.437 128.146 531.642C128.146 531.838 128.079 532.006 127.947 532.147C127.82 532.284 127.635 532.353 127.394 532.353C127.147 532.353 126.961 532.284 126.833 532.147C126.71 532.006 126.648 531.838 126.648 531.642ZM129.711 537.384V537.227C129.711 536.693 129.788 536.199 129.943 535.743C130.098 535.283 130.322 534.884 130.613 534.547C130.905 534.205 131.258 533.941 131.673 533.754C132.088 533.562 132.552 533.467 133.067 533.467C133.587 533.467 134.054 533.562 134.469 533.754C134.888 533.941 135.243 534.205 135.535 534.547C135.831 534.884 136.057 535.283 136.212 535.743C136.367 536.199 136.444 536.693 136.444 537.227V537.384C136.444 537.917 136.367 538.411 136.212 538.867C136.057 539.323 135.831 539.722 135.535 540.063C135.243 540.401 134.89 540.665 134.476 540.856C134.065 541.043 133.601 541.137 133.081 541.137C132.562 541.137 132.094 541.043 131.68 540.856C131.265 540.665 130.91 540.401 130.613 540.063C130.322 539.722 130.098 539.323 129.943 538.867C129.788 538.411 129.711 537.917 129.711 537.384ZM130.976 537.227V537.384C130.976 537.753 131.019 538.102 131.105 538.43C131.192 538.753 131.322 539.04 131.495 539.291C131.673 539.542 131.894 539.74 132.158 539.886C132.423 540.027 132.73 540.098 133.081 540.098C133.427 540.098 133.73 540.027 133.99 539.886C134.255 539.74 134.473 539.542 134.646 539.291C134.82 539.04 134.95 538.753 135.036 538.43C135.127 538.102 135.173 537.753 135.173 537.384V537.227C135.173 536.862 135.127 536.518 135.036 536.194C134.95 535.866 134.817 535.577 134.64 535.326C134.466 535.071 134.248 534.87 133.983 534.725C133.724 534.579 133.418 534.506 133.067 534.506C132.721 534.506 132.416 534.579 132.151 534.725C131.892 534.87 131.673 535.071 131.495 535.326C131.322 535.577 131.192 535.866 131.105 536.194C131.019 536.518 130.976 536.862 130.976 537.227ZM139.295 535.183V541H138.03V533.604H139.227L139.295 535.183ZM138.994 537.021L138.468 537.001C138.472 536.495 138.548 536.028 138.693 535.6C138.839 535.167 139.044 534.791 139.309 534.472C139.573 534.153 139.887 533.907 140.252 533.733C140.621 533.556 141.029 533.467 141.476 533.467C141.84 533.467 142.168 533.517 142.46 533.617C142.752 533.713 143 533.868 143.205 534.082C143.415 534.296 143.574 534.574 143.684 534.916C143.793 535.253 143.848 535.666 143.848 536.153V541H142.576V536.14C142.576 535.752 142.519 535.442 142.405 535.21C142.291 534.973 142.125 534.802 141.906 534.697C141.688 534.588 141.419 534.533 141.1 534.533C140.785 534.533 140.498 534.599 140.238 534.731C139.983 534.864 139.762 535.046 139.575 535.278C139.393 535.511 139.249 535.777 139.145 536.078C139.044 536.374 138.994 536.689 138.994 537.021ZM150.615 533.604V541H149.344V533.604H150.615ZM149.248 531.642C149.248 531.437 149.31 531.263 149.433 531.122C149.56 530.981 149.747 530.91 149.993 530.91C150.235 530.91 150.419 530.981 150.547 531.122C150.679 531.263 150.745 531.437 150.745 531.642C150.745 531.838 150.679 532.006 150.547 532.147C150.419 532.284 150.235 532.353 149.993 532.353C149.747 532.353 149.56 532.284 149.433 532.147C149.31 532.006 149.248 531.838 149.248 531.642ZM156.952 539.038C156.952 538.856 156.911 538.687 156.829 538.532C156.752 538.373 156.59 538.229 156.344 538.102C156.102 537.969 155.738 537.855 155.25 537.76C154.84 537.673 154.468 537.571 154.136 537.452C153.808 537.334 153.527 537.19 153.295 537.021C153.067 536.853 152.892 536.655 152.769 536.427C152.646 536.199 152.584 535.932 152.584 535.627C152.584 535.335 152.648 535.06 152.775 534.8C152.908 534.54 153.092 534.31 153.329 534.109C153.571 533.909 153.86 533.752 154.197 533.638C154.535 533.524 154.91 533.467 155.325 533.467C155.918 533.467 156.424 533.572 156.843 533.781C157.262 533.991 157.583 534.271 157.807 534.622C158.03 534.968 158.142 535.354 158.142 535.777H156.877C156.877 535.572 156.815 535.374 156.692 535.183C156.574 534.987 156.398 534.825 156.166 534.697C155.938 534.57 155.658 534.506 155.325 534.506C154.974 534.506 154.689 534.561 154.471 534.67C154.257 534.775 154.099 534.909 153.999 535.073C153.903 535.237 153.855 535.41 153.855 535.593C153.855 535.729 153.878 535.853 153.924 535.962C153.974 536.067 154.061 536.165 154.184 536.256C154.307 536.342 154.48 536.424 154.703 536.502C154.926 536.579 155.211 536.657 155.558 536.734C156.164 536.871 156.663 537.035 157.055 537.227C157.447 537.418 157.738 537.653 157.93 537.931C158.121 538.209 158.217 538.546 158.217 538.942C158.217 539.266 158.148 539.562 158.012 539.831C157.88 540.1 157.686 540.332 157.431 540.528C157.18 540.72 156.879 540.87 156.528 540.979C156.182 541.084 155.792 541.137 155.359 541.137C154.708 541.137 154.156 541.021 153.705 540.788C153.254 540.556 152.912 540.255 152.68 539.886C152.447 539.517 152.331 539.127 152.331 538.717H153.603C153.621 539.063 153.721 539.339 153.903 539.544C154.086 539.744 154.309 539.888 154.573 539.975C154.838 540.057 155.1 540.098 155.359 540.098C155.706 540.098 155.995 540.052 156.228 539.961C156.465 539.87 156.645 539.744 156.768 539.585C156.891 539.425 156.952 539.243 156.952 539.038ZM167.876 539.291V533.604H169.147V541H167.938L167.876 539.291ZM168.115 537.732L168.642 537.719C168.642 538.211 168.589 538.667 168.484 539.086C168.384 539.501 168.22 539.861 167.992 540.166C167.764 540.471 167.466 540.711 167.097 540.884C166.728 541.052 166.279 541.137 165.75 541.137C165.39 541.137 165.06 541.084 164.759 540.979C164.463 540.875 164.207 540.713 163.993 540.494C163.779 540.275 163.613 539.991 163.494 539.64C163.38 539.289 163.323 538.867 163.323 538.375V533.604H164.588V538.389C164.588 538.721 164.624 538.997 164.697 539.216C164.775 539.43 164.877 539.601 165.005 539.729C165.137 539.852 165.283 539.938 165.442 539.988C165.606 540.038 165.775 540.063 165.948 540.063C166.486 540.063 166.912 539.961 167.227 539.756C167.541 539.546 167.767 539.266 167.903 538.915C168.045 538.56 168.115 538.165 168.115 537.732ZM172.34 535.025V543.844H171.068V533.604H172.23L172.34 535.025ZM177.323 537.24V537.384C177.323 537.922 177.259 538.421 177.132 538.881C177.004 539.337 176.817 539.733 176.571 540.07C176.33 540.408 176.031 540.67 175.676 540.856C175.32 541.043 174.912 541.137 174.452 541.137C173.983 541.137 173.568 541.059 173.208 540.904C172.848 540.749 172.543 540.524 172.292 540.228C172.041 539.931 171.841 539.576 171.69 539.161C171.545 538.746 171.444 538.279 171.39 537.76V536.994C171.444 536.447 171.547 535.957 171.697 535.524C171.848 535.091 172.046 534.722 172.292 534.417C172.543 534.107 172.846 533.872 173.201 533.713C173.557 533.549 173.967 533.467 174.432 533.467C174.896 533.467 175.309 533.558 175.669 533.74C176.029 533.918 176.332 534.173 176.578 534.506C176.824 534.839 177.009 535.237 177.132 535.702C177.259 536.162 177.323 536.675 177.323 537.24ZM176.052 537.384V537.24C176.052 536.871 176.013 536.525 175.936 536.201C175.858 535.873 175.737 535.586 175.573 535.34C175.414 535.089 175.209 534.893 174.958 534.752C174.707 534.606 174.409 534.533 174.062 534.533C173.743 534.533 173.465 534.588 173.229 534.697C172.996 534.807 172.798 534.955 172.634 535.142C172.47 535.324 172.335 535.534 172.23 535.771C172.13 536.003 172.055 536.244 172.005 536.495V538.266C172.096 538.585 172.224 538.885 172.388 539.168C172.552 539.446 172.771 539.672 173.044 539.845C173.317 540.013 173.661 540.098 174.076 540.098C174.418 540.098 174.712 540.027 174.958 539.886C175.209 539.74 175.414 539.542 175.573 539.291C175.737 539.04 175.858 538.753 175.936 538.43C176.013 538.102 176.052 537.753 176.052 537.384ZM183.599 539.564V530.5H184.87V541H183.708L183.599 539.564ZM178.622 537.384V537.24C178.622 536.675 178.69 536.162 178.827 535.702C178.968 535.237 179.167 534.839 179.422 534.506C179.682 534.173 179.989 533.918 180.345 533.74C180.705 533.558 181.106 533.467 181.548 533.467C182.013 533.467 182.418 533.549 182.765 533.713C183.116 533.872 183.412 534.107 183.653 534.417C183.899 534.722 184.093 535.091 184.234 535.524C184.376 535.957 184.474 536.447 184.528 536.994V537.623C184.478 538.165 184.38 538.653 184.234 539.086C184.093 539.519 183.899 539.888 183.653 540.193C183.412 540.499 183.116 540.733 182.765 540.897C182.414 541.057 182.004 541.137 181.534 541.137C181.101 541.137 180.705 541.043 180.345 540.856C179.989 540.67 179.682 540.408 179.422 540.07C179.167 539.733 178.968 539.337 178.827 538.881C178.69 538.421 178.622 537.922 178.622 537.384ZM179.894 537.24V537.384C179.894 537.753 179.93 538.099 180.003 538.423C180.08 538.746 180.199 539.031 180.358 539.277C180.518 539.523 180.721 539.717 180.967 539.858C181.213 539.995 181.507 540.063 181.849 540.063C182.268 540.063 182.612 539.975 182.881 539.797C183.154 539.619 183.373 539.384 183.537 539.093C183.701 538.801 183.829 538.484 183.92 538.143V536.495C183.865 536.244 183.785 536.003 183.681 535.771C183.58 535.534 183.448 535.324 183.284 535.142C183.125 534.955 182.926 534.807 182.689 534.697C182.457 534.588 182.181 534.533 181.862 534.533C181.516 534.533 181.217 534.606 180.967 534.752C180.721 534.893 180.518 535.089 180.358 535.34C180.199 535.586 180.08 535.873 180.003 536.201C179.93 536.525 179.894 536.871 179.894 537.24ZM191.2 539.735V535.928C191.2 535.636 191.141 535.383 191.022 535.169C190.909 534.95 190.735 534.782 190.503 534.663C190.271 534.545 189.983 534.485 189.642 534.485C189.323 534.485 189.042 534.54 188.801 534.649C188.564 534.759 188.377 534.902 188.24 535.08C188.108 535.258 188.042 535.449 188.042 535.654H186.777C186.777 535.39 186.846 535.128 186.982 534.868C187.119 534.608 187.315 534.374 187.57 534.164C187.83 533.95 188.14 533.781 188.5 533.658C188.865 533.531 189.27 533.467 189.717 533.467C190.255 533.467 190.729 533.558 191.139 533.74C191.553 533.923 191.877 534.198 192.109 534.567C192.346 534.932 192.465 535.39 192.465 535.941V539.387C192.465 539.633 192.485 539.895 192.526 540.173C192.572 540.451 192.638 540.69 192.725 540.891V541H191.405C191.341 540.854 191.291 540.66 191.255 540.419C191.218 540.173 191.2 539.945 191.2 539.735ZM191.419 536.516L191.433 537.404H190.154C189.794 537.404 189.473 537.434 189.19 537.493C188.908 537.548 188.671 537.632 188.479 537.746C188.288 537.86 188.142 538.004 188.042 538.177C187.942 538.345 187.892 538.544 187.892 538.771C187.892 539.004 187.944 539.216 188.049 539.407C188.154 539.599 188.311 539.751 188.521 539.865C188.735 539.975 188.997 540.029 189.307 540.029C189.694 540.029 190.036 539.947 190.332 539.783C190.628 539.619 190.863 539.419 191.036 539.182C191.214 538.945 191.31 538.715 191.323 538.491L191.863 539.1C191.831 539.291 191.745 539.503 191.604 539.735C191.462 539.968 191.273 540.191 191.036 540.405C190.804 540.615 190.526 540.79 190.202 540.932C189.883 541.068 189.523 541.137 189.122 541.137C188.621 541.137 188.181 541.039 187.803 540.843C187.429 540.647 187.137 540.385 186.928 540.057C186.723 539.724 186.62 539.353 186.62 538.942C186.62 538.546 186.698 538.197 186.853 537.896C187.007 537.591 187.231 537.338 187.522 537.138C187.814 536.933 188.165 536.778 188.575 536.673C188.985 536.568 189.443 536.516 189.949 536.516H191.419ZM197.551 533.604V534.574H193.552V533.604H197.551ZM194.905 531.806H196.17V539.168C196.17 539.419 196.209 539.608 196.286 539.735C196.364 539.863 196.464 539.947 196.587 539.988C196.71 540.029 196.842 540.05 196.983 540.05C197.088 540.05 197.198 540.041 197.312 540.022C197.43 540 197.519 539.981 197.578 539.968L197.585 541C197.485 541.032 197.353 541.062 197.188 541.089C197.029 541.121 196.835 541.137 196.607 541.137C196.298 541.137 196.013 541.075 195.753 540.952C195.493 540.829 195.286 540.624 195.131 540.337C194.98 540.045 194.905 539.653 194.905 539.161V531.806ZM202.104 541.137C201.589 541.137 201.121 541.05 200.702 540.877C200.287 540.699 199.93 540.451 199.629 540.132C199.333 539.813 199.105 539.435 198.945 538.997C198.786 538.56 198.706 538.081 198.706 537.562V537.274C198.706 536.673 198.795 536.137 198.973 535.668C199.15 535.194 199.392 534.793 199.697 534.465C200.003 534.137 200.349 533.888 200.736 533.72C201.124 533.551 201.525 533.467 201.939 533.467C202.468 533.467 202.924 533.558 203.307 533.74C203.694 533.923 204.011 534.178 204.257 534.506C204.503 534.829 204.685 535.212 204.804 535.654C204.922 536.092 204.981 536.57 204.981 537.09V537.657H199.458V536.625H203.717V536.529C203.699 536.201 203.63 535.882 203.512 535.572C203.398 535.262 203.215 535.007 202.965 534.807C202.714 534.606 202.372 534.506 201.939 534.506C201.652 534.506 201.388 534.567 201.146 534.69C200.905 534.809 200.698 534.987 200.524 535.224C200.351 535.461 200.217 535.75 200.121 536.092C200.025 536.434 199.978 536.828 199.978 537.274V537.562C199.978 537.912 200.025 538.243 200.121 538.553C200.221 538.858 200.365 539.127 200.552 539.359C200.743 539.592 200.973 539.774 201.242 539.906C201.516 540.038 201.826 540.104 202.172 540.104C202.618 540.104 202.997 540.013 203.307 539.831C203.617 539.649 203.888 539.405 204.12 539.1L204.886 539.708C204.726 539.95 204.523 540.18 204.277 540.398C204.031 540.617 203.728 540.795 203.368 540.932C203.013 541.068 202.591 541.137 202.104 541.137ZM211.12 539.564V530.5H212.392V541H211.229L211.12 539.564ZM206.144 537.384V537.24C206.144 536.675 206.212 536.162 206.349 535.702C206.49 535.237 206.688 534.839 206.943 534.506C207.203 534.173 207.511 533.918 207.866 533.74C208.226 533.558 208.627 533.467 209.069 533.467C209.534 533.467 209.94 533.549 210.286 533.713C210.637 533.872 210.933 534.107 211.175 534.417C211.421 534.722 211.615 535.091 211.756 535.524C211.897 535.957 211.995 536.447 212.05 536.994V537.623C212 538.165 211.902 538.653 211.756 539.086C211.615 539.519 211.421 539.888 211.175 540.193C210.933 540.499 210.637 540.733 210.286 540.897C209.935 541.057 209.525 541.137 209.056 541.137C208.623 541.137 208.226 541.043 207.866 540.856C207.511 540.67 207.203 540.408 206.943 540.07C206.688 539.733 206.49 539.337 206.349 538.881C206.212 538.421 206.144 537.922 206.144 537.384ZM207.415 537.24V537.384C207.415 537.753 207.451 538.099 207.524 538.423C207.602 538.746 207.72 539.031 207.88 539.277C208.039 539.523 208.242 539.717 208.488 539.858C208.734 539.995 209.028 540.063 209.37 540.063C209.789 540.063 210.133 539.975 210.402 539.797C210.676 539.619 210.895 539.384 211.059 539.093C211.223 538.801 211.35 538.484 211.441 538.143V536.495C211.387 536.244 211.307 536.003 211.202 535.771C211.102 535.534 210.97 535.324 210.806 535.142C210.646 534.955 210.448 534.807 210.211 534.697C209.979 534.588 209.703 534.533 209.384 534.533C209.037 534.533 208.739 534.606 208.488 534.752C208.242 534.893 208.039 535.089 207.88 535.34C207.72 535.586 207.602 535.873 207.524 536.201C207.451 536.525 207.415 536.871 207.415 537.24ZM220.93 533.604V534.574H216.931V533.604H220.93ZM218.284 531.806H219.549V539.168C219.549 539.419 219.588 539.608 219.665 539.735C219.743 539.863 219.843 539.947 219.966 539.988C220.089 540.029 220.221 540.05 220.362 540.05C220.467 540.05 220.576 540.041 220.69 540.022C220.809 540 220.898 539.981 220.957 539.968L220.964 541C220.864 541.032 220.731 541.062 220.567 541.089C220.408 541.121 220.214 541.137 219.986 541.137C219.676 541.137 219.392 541.075 219.132 540.952C218.872 540.829 218.665 540.624 218.51 540.337C218.359 540.045 218.284 539.653 218.284 539.161V531.806ZM221.941 537.384V537.227C221.941 536.693 222.019 536.199 222.174 535.743C222.329 535.283 222.552 534.884 222.844 534.547C223.135 534.205 223.489 533.941 223.903 533.754C224.318 533.562 224.783 533.467 225.298 533.467C225.817 533.467 226.285 533.562 226.699 533.754C227.118 533.941 227.474 534.205 227.766 534.547C228.062 534.884 228.287 535.283 228.442 535.743C228.597 536.199 228.675 536.693 228.675 537.227V537.384C228.675 537.917 228.597 538.411 228.442 538.867C228.287 539.323 228.062 539.722 227.766 540.063C227.474 540.401 227.121 540.665 226.706 540.856C226.296 541.043 225.831 541.137 225.312 541.137C224.792 541.137 224.325 541.043 223.91 540.856C223.495 540.665 223.14 540.401 222.844 540.063C222.552 539.722 222.329 539.323 222.174 538.867C222.019 538.411 221.941 537.917 221.941 537.384ZM223.206 537.227V537.384C223.206 537.753 223.249 538.102 223.336 538.43C223.423 538.753 223.552 539.04 223.726 539.291C223.903 539.542 224.124 539.74 224.389 539.886C224.653 540.027 224.961 540.098 225.312 540.098C225.658 540.098 225.961 540.027 226.221 539.886C226.485 539.74 226.704 539.542 226.877 539.291C227.05 539.04 227.18 538.753 227.267 538.43C227.358 538.102 227.403 537.753 227.403 537.384V537.227C227.403 536.862 227.358 536.518 227.267 536.194C227.18 535.866 227.048 535.577 226.87 535.326C226.697 535.071 226.478 534.87 226.214 534.725C225.954 534.579 225.649 534.506 225.298 534.506C224.951 534.506 224.646 534.579 224.382 534.725C224.122 534.87 223.903 535.071 223.726 535.326C223.552 535.577 223.423 535.866 223.336 536.194C223.249 536.518 223.206 536.862 223.206 537.227ZM236.83 533.604V534.574H232.831V533.604H236.83ZM234.185 531.806H235.449V539.168C235.449 539.419 235.488 539.608 235.565 539.735C235.643 539.863 235.743 539.947 235.866 539.988C235.989 540.029 236.121 540.05 236.263 540.05C236.368 540.05 236.477 540.041 236.591 540.022C236.709 540 236.798 539.981 236.857 539.968L236.864 541C236.764 541.032 236.632 541.062 236.468 541.089C236.308 541.121 236.115 541.137 235.887 541.137C235.577 541.137 235.292 541.075 235.032 540.952C234.772 540.829 234.565 540.624 234.41 540.337C234.26 540.045 234.185 539.653 234.185 539.161V531.806ZM239.578 530.5V541H238.313V530.5H239.578ZM239.277 537.021L238.751 537.001C238.756 536.495 238.831 536.028 238.977 535.6C239.122 535.167 239.327 534.791 239.592 534.472C239.856 534.153 240.171 533.907 240.535 533.733C240.904 533.556 241.312 533.467 241.759 533.467C242.123 533.467 242.451 533.517 242.743 533.617C243.035 533.713 243.283 533.868 243.488 534.082C243.698 534.296 243.857 534.574 243.967 534.916C244.076 535.253 244.131 535.666 244.131 536.153V541H242.859V536.14C242.859 535.752 242.802 535.442 242.688 535.21C242.575 534.973 242.408 534.802 242.189 534.697C241.971 534.588 241.702 534.533 241.383 534.533C241.068 534.533 240.781 534.599 240.521 534.731C240.266 534.864 240.045 535.046 239.858 535.278C239.676 535.511 239.533 535.777 239.428 536.078C239.327 536.374 239.277 536.689 239.277 537.021ZM249.094 541.137C248.579 541.137 248.112 541.05 247.692 540.877C247.278 540.699 246.92 540.451 246.619 540.132C246.323 539.813 246.095 539.435 245.936 538.997C245.776 538.56 245.696 538.081 245.696 537.562V537.274C245.696 536.673 245.785 536.137 245.963 535.668C246.141 535.194 246.382 534.793 246.688 534.465C246.993 534.137 247.339 533.888 247.727 533.72C248.114 533.551 248.515 533.467 248.93 533.467C249.458 533.467 249.914 533.558 250.297 533.74C250.684 533.923 251.001 534.178 251.247 534.506C251.493 534.829 251.675 535.212 251.794 535.654C251.912 536.092 251.972 536.57 251.972 537.09V537.657H246.448V536.625H250.707V536.529C250.689 536.201 250.62 535.882 250.502 535.572C250.388 535.262 250.206 535.007 249.955 534.807C249.704 534.606 249.363 534.506 248.93 534.506C248.643 534.506 248.378 534.567 248.137 534.69C247.895 534.809 247.688 534.987 247.515 535.224C247.341 535.461 247.207 535.75 247.111 536.092C247.016 536.434 246.968 536.828 246.968 537.274V537.562C246.968 537.912 247.016 538.243 247.111 538.553C247.212 538.858 247.355 539.127 247.542 539.359C247.733 539.592 247.964 539.774 248.232 539.906C248.506 540.038 248.816 540.104 249.162 540.104C249.609 540.104 249.987 540.013 250.297 539.831C250.607 539.649 250.878 539.405 251.11 539.1L251.876 539.708C251.716 539.95 251.514 540.18 251.268 540.398C251.021 540.617 250.718 540.795 250.358 540.932C250.003 541.068 249.581 541.137 249.094 541.137ZM258.295 530.5V541H257.023V530.5H258.295ZM264.687 539.735V535.928C264.687 535.636 264.627 535.383 264.509 535.169C264.395 534.95 264.222 534.782 263.989 534.663C263.757 534.545 263.47 534.485 263.128 534.485C262.809 534.485 262.529 534.54 262.287 534.649C262.05 534.759 261.863 534.902 261.727 535.08C261.594 535.258 261.528 535.449 261.528 535.654H260.264C260.264 535.39 260.332 535.128 260.469 534.868C260.605 534.608 260.801 534.374 261.057 534.164C261.316 533.95 261.626 533.781 261.986 533.658C262.351 533.531 262.757 533.467 263.203 533.467C263.741 533.467 264.215 533.558 264.625 533.74C265.04 533.923 265.363 534.198 265.596 534.567C265.833 534.932 265.951 535.39 265.951 535.941V539.387C265.951 539.633 265.972 539.895 266.013 540.173C266.058 540.451 266.124 540.69 266.211 540.891V541H264.892C264.828 540.854 264.778 540.66 264.741 540.419C264.705 540.173 264.687 539.945 264.687 539.735ZM264.905 536.516L264.919 537.404H263.641C263.281 537.404 262.959 537.434 262.677 537.493C262.394 537.548 262.157 537.632 261.966 537.746C261.774 537.86 261.629 538.004 261.528 538.177C261.428 538.345 261.378 538.544 261.378 538.771C261.378 539.004 261.43 539.216 261.535 539.407C261.64 539.599 261.797 539.751 262.007 539.865C262.221 539.975 262.483 540.029 262.793 540.029C263.18 540.029 263.522 539.947 263.818 539.783C264.115 539.619 264.349 539.419 264.522 539.182C264.7 538.945 264.796 538.715 264.81 538.491L265.35 539.1C265.318 539.291 265.231 539.503 265.09 539.735C264.949 539.968 264.759 540.191 264.522 540.405C264.29 540.615 264.012 540.79 263.688 540.932C263.369 541.068 263.009 541.137 262.608 541.137C262.107 541.137 261.667 541.039 261.289 540.843C260.915 540.647 260.624 540.385 260.414 540.057C260.209 539.724 260.106 539.353 260.106 538.942C260.106 538.546 260.184 538.197 260.339 537.896C260.494 537.591 260.717 537.338 261.009 537.138C261.3 536.933 261.651 536.778 262.062 536.673C262.472 536.568 262.93 536.516 263.436 536.516H264.905ZM271.037 533.604V534.574H267.038V533.604H271.037ZM268.392 531.806H269.656V539.168C269.656 539.419 269.695 539.608 269.772 539.735C269.85 539.863 269.95 539.947 270.073 539.988C270.196 540.029 270.328 540.05 270.47 540.05C270.575 540.05 270.684 540.041 270.798 540.022C270.916 540 271.005 539.981 271.064 539.968L271.071 541C270.971 541.032 270.839 541.062 270.675 541.089C270.515 541.121 270.322 541.137 270.094 541.137C269.784 541.137 269.499 541.075 269.239 540.952C268.979 540.829 268.772 540.624 268.617 540.337C268.467 540.045 268.392 539.653 268.392 539.161V531.806ZM275.59 541.137C275.075 541.137 274.608 541.05 274.188 540.877C273.774 540.699 273.416 540.451 273.115 540.132C272.819 539.813 272.591 539.435 272.432 538.997C272.272 538.56 272.192 538.081 272.192 537.562V537.274C272.192 536.673 272.281 536.137 272.459 535.668C272.637 535.194 272.878 534.793 273.184 534.465C273.489 534.137 273.835 533.888 274.223 533.72C274.61 533.551 275.011 533.467 275.426 533.467C275.954 533.467 276.41 533.558 276.793 533.74C277.18 533.923 277.497 534.178 277.743 534.506C277.989 534.829 278.172 535.212 278.29 535.654C278.409 536.092 278.468 536.57 278.468 537.09V537.657H272.944V536.625H277.203V536.529C277.185 536.201 277.117 535.882 276.998 535.572C276.884 535.262 276.702 535.007 276.451 534.807C276.201 534.606 275.859 534.506 275.426 534.506C275.139 534.506 274.874 534.567 274.633 534.69C274.391 534.809 274.184 534.987 274.011 535.224C273.838 535.461 273.703 535.75 273.607 536.092C273.512 536.434 273.464 536.828 273.464 537.274V537.562C273.464 537.912 273.512 538.243 273.607 538.553C273.708 538.858 273.851 539.127 274.038 539.359C274.229 539.592 274.46 539.774 274.729 539.906C275.002 540.038 275.312 540.104 275.658 540.104C276.105 540.104 276.483 540.013 276.793 539.831C277.103 539.649 277.374 539.405 277.606 539.1L278.372 539.708C278.213 539.95 278.01 540.18 277.764 540.398C277.518 540.617 277.215 540.795 276.854 540.932C276.499 541.068 276.077 541.137 275.59 541.137ZM284.251 539.038C284.251 538.856 284.21 538.687 284.128 538.532C284.05 538.373 283.889 538.229 283.643 538.102C283.401 537.969 283.036 537.855 282.549 537.76C282.139 537.673 281.767 537.571 281.435 537.452C281.106 537.334 280.826 537.19 280.594 537.021C280.366 536.853 280.19 536.655 280.067 536.427C279.944 536.199 279.883 535.932 279.883 535.627C279.883 535.335 279.947 535.06 280.074 534.8C280.206 534.54 280.391 534.31 280.628 534.109C280.869 533.909 281.159 533.752 281.496 533.638C281.833 533.524 282.209 533.467 282.624 533.467C283.216 533.467 283.722 533.572 284.142 533.781C284.561 533.991 284.882 534.271 285.105 534.622C285.329 534.968 285.44 535.354 285.44 535.777H284.176C284.176 535.572 284.114 535.374 283.991 535.183C283.873 534.987 283.697 534.825 283.465 534.697C283.237 534.57 282.957 534.506 282.624 534.506C282.273 534.506 281.988 534.561 281.77 534.67C281.555 534.775 281.398 534.909 281.298 535.073C281.202 535.237 281.154 535.41 281.154 535.593C281.154 535.729 281.177 535.853 281.223 535.962C281.273 536.067 281.359 536.165 281.482 536.256C281.605 536.342 281.779 536.424 282.002 536.502C282.225 536.579 282.51 536.657 282.856 536.734C283.463 536.871 283.962 537.035 284.354 537.227C284.745 537.418 285.037 537.653 285.229 537.931C285.42 538.209 285.516 538.546 285.516 538.942C285.516 539.266 285.447 539.562 285.311 539.831C285.178 540.1 284.985 540.332 284.729 540.528C284.479 540.72 284.178 540.87 283.827 540.979C283.481 541.084 283.091 541.137 282.658 541.137C282.007 541.137 281.455 541.021 281.004 540.788C280.553 540.556 280.211 540.255 279.979 539.886C279.746 539.517 279.63 539.127 279.63 538.717H280.901C280.92 539.063 281.02 539.339 281.202 539.544C281.384 539.744 281.608 539.888 281.872 539.975C282.136 540.057 282.398 540.098 282.658 540.098C283.005 540.098 283.294 540.052 283.526 539.961C283.763 539.87 283.943 539.744 284.066 539.585C284.189 539.425 284.251 539.243 284.251 539.038ZM290.273 533.604V534.574H286.274V533.604H290.273ZM287.628 531.806H288.893V539.168C288.893 539.419 288.931 539.608 289.009 539.735C289.086 539.863 289.187 539.947 289.31 539.988C289.433 540.029 289.565 540.05 289.706 540.05C289.811 540.05 289.92 540.041 290.034 540.022C290.153 540 290.242 539.981 290.301 539.968L290.308 541C290.207 541.032 290.075 541.062 289.911 541.089C289.752 541.121 289.558 541.137 289.33 541.137C289.02 541.137 288.735 541.075 288.476 540.952C288.216 540.829 288.008 540.624 287.854 540.337C287.703 540.045 287.628 539.653 287.628 539.161V531.806ZM296.74 531.047V541H295.421V531.047H296.74ZM300.91 535.524V536.604H296.453V535.524H300.91ZM301.587 531.047V532.127H296.453V531.047H301.587ZM304.342 533.604V541H303.07V533.604H304.342ZM302.975 531.642C302.975 531.437 303.036 531.263 303.159 531.122C303.287 530.981 303.474 530.91 303.72 530.91C303.961 530.91 304.146 530.981 304.273 531.122C304.406 531.263 304.472 531.437 304.472 531.642C304.472 531.838 304.406 532.006 304.273 532.147C304.146 532.284 303.961 532.353 303.72 532.353C303.474 532.353 303.287 532.284 303.159 532.147C303.036 532.006 302.975 531.838 302.975 531.642ZM307.637 534.766V541H306.372V533.604H307.603L307.637 534.766ZM309.947 533.562L309.94 534.738C309.836 534.715 309.735 534.702 309.64 534.697C309.549 534.688 309.444 534.684 309.325 534.684C309.034 534.684 308.776 534.729 308.553 534.82C308.329 534.911 308.14 535.039 307.985 535.203C307.83 535.367 307.707 535.563 307.616 535.791C307.53 536.014 307.473 536.26 307.445 536.529L307.09 536.734C307.09 536.288 307.133 535.868 307.22 535.477C307.311 535.085 307.45 534.738 307.637 534.438C307.824 534.132 308.061 533.895 308.348 533.727C308.639 533.553 308.986 533.467 309.387 533.467C309.478 533.467 309.583 533.478 309.701 533.501C309.82 533.519 309.902 533.54 309.947 533.562ZM312.374 535.073V541H311.103V533.604H312.306L312.374 535.073ZM312.114 537.021L311.526 537.001C311.531 536.495 311.597 536.028 311.725 535.6C311.852 535.167 312.041 534.791 312.292 534.472C312.543 534.153 312.855 533.907 313.229 533.733C313.602 533.556 314.035 533.467 314.527 533.467C314.874 533.467 315.193 533.517 315.484 533.617C315.776 533.713 316.029 533.866 316.243 534.075C316.457 534.285 316.624 534.554 316.742 534.882C316.861 535.21 316.92 535.606 316.92 536.071V541H315.655V536.133C315.655 535.745 315.589 535.436 315.457 535.203C315.329 534.971 315.147 534.802 314.91 534.697C314.673 534.588 314.395 534.533 314.076 534.533C313.702 534.533 313.39 534.599 313.14 534.731C312.889 534.864 312.688 535.046 312.538 535.278C312.388 535.511 312.278 535.777 312.21 536.078C312.146 536.374 312.114 536.689 312.114 537.021ZM316.906 536.324L316.059 536.584C316.063 536.178 316.129 535.789 316.257 535.415C316.389 535.041 316.578 534.709 316.824 534.417C317.075 534.125 317.382 533.895 317.747 533.727C318.112 533.553 318.529 533.467 318.998 533.467C319.395 533.467 319.745 533.519 320.051 533.624C320.361 533.729 320.62 533.891 320.83 534.109C321.044 534.324 321.206 534.599 321.315 534.937C321.425 535.274 321.479 535.675 321.479 536.14V541H320.208V536.126C320.208 535.711 320.142 535.39 320.01 535.162C319.882 534.93 319.7 534.768 319.463 534.677C319.23 534.581 318.952 534.533 318.629 534.533C318.351 534.533 318.105 534.581 317.891 534.677C317.676 534.772 317.496 534.905 317.351 535.073C317.205 535.237 317.093 535.426 317.016 535.641C316.943 535.855 316.906 536.083 316.906 536.324ZM325.267 539.688L327.167 533.604H328.001L327.837 534.813L325.902 541H325.089L325.267 539.688ZM323.988 533.604L325.608 539.756L325.725 541H324.87L322.724 533.604H323.988ZM329.819 539.708L331.364 533.604H332.622L330.476 541H329.628L329.819 539.708ZM328.186 533.604L330.045 539.585L330.257 541H329.45L327.461 534.8L327.297 533.604H328.186ZM338.282 539.735V535.928C338.282 535.636 338.223 535.383 338.104 535.169C337.991 534.95 337.817 534.782 337.585 534.663C337.353 534.545 337.065 534.485 336.724 534.485C336.405 534.485 336.124 534.54 335.883 534.649C335.646 534.759 335.459 534.902 335.322 535.08C335.19 535.258 335.124 535.449 335.124 535.654H333.859C333.859 535.39 333.928 535.128 334.064 534.868C334.201 534.608 334.397 534.374 334.652 534.164C334.912 533.95 335.222 533.781 335.582 533.658C335.947 533.531 336.352 533.467 336.799 533.467C337.337 533.467 337.811 533.558 338.221 533.74C338.635 533.923 338.959 534.198 339.191 534.567C339.428 534.932 339.547 535.39 339.547 535.941V539.387C339.547 539.633 339.567 539.895 339.608 540.173C339.654 540.451 339.72 540.69 339.807 540.891V541H338.487C338.424 540.854 338.373 540.66 338.337 540.419C338.3 540.173 338.282 539.945 338.282 539.735ZM338.501 536.516L338.515 537.404H337.236C336.876 537.404 336.555 537.434 336.272 537.493C335.99 537.548 335.753 537.632 335.562 537.746C335.37 537.86 335.224 538.004 335.124 538.177C335.024 538.345 334.974 538.544 334.974 538.771C334.974 539.004 335.026 539.216 335.131 539.407C335.236 539.599 335.393 539.751 335.603 539.865C335.817 539.975 336.079 540.029 336.389 540.029C336.776 540.029 337.118 539.947 337.414 539.783C337.71 539.619 337.945 539.419 338.118 539.182C338.296 538.945 338.392 538.715 338.405 538.491L338.945 539.1C338.913 539.291 338.827 539.503 338.686 539.735C338.544 539.968 338.355 540.191 338.118 540.405C337.886 540.615 337.608 540.79 337.284 540.932C336.965 541.068 336.605 541.137 336.204 541.137C335.703 541.137 335.263 541.039 334.885 540.843C334.511 540.647 334.219 540.385 334.01 540.057C333.805 539.724 333.702 539.353 333.702 538.942C333.702 538.546 333.78 538.197 333.935 537.896C334.09 537.591 334.313 537.338 334.604 537.138C334.896 536.933 335.247 536.778 335.657 536.673C336.067 536.568 336.525 536.516 337.031 536.516H338.501ZM342.801 534.766V541H341.536V533.604H342.767L342.801 534.766ZM345.111 533.562L345.104 534.738C345 534.715 344.899 534.702 344.804 534.697C344.713 534.688 344.608 534.684 344.489 534.684C344.198 534.684 343.94 534.729 343.717 534.82C343.493 534.911 343.304 535.039 343.149 535.203C342.994 535.367 342.871 535.563 342.78 535.791C342.694 536.014 342.637 536.26 342.609 536.529L342.254 536.734C342.254 536.288 342.297 535.868 342.384 535.477C342.475 535.085 342.614 534.738 342.801 534.438C342.988 534.132 343.225 533.895 343.512 533.727C343.803 533.553 344.15 533.467 344.551 533.467C344.642 533.467 344.747 533.478 344.865 533.501C344.984 533.519 345.066 533.54 345.111 533.562ZM349.213 541.137C348.698 541.137 348.231 541.05 347.812 540.877C347.397 540.699 347.039 540.451 346.738 540.132C346.442 539.813 346.214 539.435 346.055 538.997C345.895 538.56 345.815 538.081 345.815 537.562V537.274C345.815 536.673 345.904 536.137 346.082 535.668C346.26 535.194 346.501 534.793 346.807 534.465C347.112 534.137 347.458 533.888 347.846 533.72C348.233 533.551 348.634 533.467 349.049 533.467C349.577 533.467 350.033 533.558 350.416 533.74C350.803 533.923 351.12 534.178 351.366 534.506C351.612 534.829 351.795 535.212 351.913 535.654C352.032 536.092 352.091 536.57 352.091 537.09V537.657H346.567V536.625H350.826V536.529C350.808 536.201 350.74 535.882 350.621 535.572C350.507 535.262 350.325 535.007 350.074 534.807C349.824 534.606 349.482 534.506 349.049 534.506C348.762 534.506 348.497 534.567 348.256 534.69C348.014 534.809 347.807 534.987 347.634 535.224C347.461 535.461 347.326 535.75 347.23 536.092C347.135 536.434 347.087 536.828 347.087 537.274V537.562C347.087 537.912 347.135 538.243 347.23 538.553C347.331 538.858 347.474 539.127 347.661 539.359C347.853 539.592 348.083 539.774 348.352 539.906C348.625 540.038 348.935 540.104 349.281 540.104C349.728 540.104 350.106 540.013 350.416 539.831C350.726 539.649 350.997 539.405 351.229 539.1L351.995 539.708C351.836 539.95 351.633 540.18 351.387 540.398C351.141 540.617 350.838 540.795 350.478 540.932C350.122 541.068 349.701 541.137 349.213 541.137ZM355.071 531.047L354.982 538.19H353.841L353.745 531.047H355.071ZM353.704 540.364C353.704 540.159 353.766 539.986 353.889 539.845C354.016 539.703 354.203 539.633 354.449 539.633C354.691 539.633 354.875 539.703 355.003 539.845C355.135 539.986 355.201 540.159 355.201 540.364C355.201 540.56 355.135 540.729 355.003 540.87C354.875 541.011 354.691 541.082 354.449 541.082C354.203 541.082 354.016 541.011 353.889 540.87C353.766 540.729 353.704 540.56 353.704 540.364Z" fill="#040404"/>
<path d="M130.315 501.306C130.315 500.986 130.265 500.699 130.167 500.444C130.077 500.181 129.904 499.943 129.65 499.729C129.395 499.508 129.038 499.29 128.578 499.077C128.118 498.863 127.522 498.641 126.791 498.411C125.978 498.148 125.206 497.853 124.475 497.524C123.753 497.196 123.112 496.814 122.554 496.379C122.003 495.935 121.568 495.422 121.248 494.839C120.936 494.256 120.78 493.578 120.78 492.806C120.78 492.059 120.944 491.381 121.272 490.773C121.601 490.157 122.061 489.632 122.652 489.196C123.243 488.753 123.942 488.412 124.746 488.174C125.559 487.936 126.451 487.817 127.42 487.817C128.742 487.817 129.896 488.055 130.881 488.531C131.867 489.008 132.631 489.66 133.173 490.49C133.723 491.319 133.998 492.268 133.998 493.336H130.327C130.327 492.81 130.216 492.35 129.994 491.956C129.781 491.554 129.452 491.237 129.009 491.007C128.574 490.777 128.023 490.662 127.358 490.662C126.718 490.662 126.184 490.761 125.757 490.958C125.33 491.147 125.009 491.406 124.796 491.734C124.582 492.055 124.475 492.416 124.475 492.818C124.475 493.122 124.549 493.397 124.697 493.644C124.853 493.89 125.083 494.12 125.387 494.334C125.691 494.547 126.065 494.748 126.508 494.937C126.952 495.126 127.465 495.311 128.048 495.492C129.025 495.787 129.884 496.12 130.623 496.489C131.37 496.859 131.994 497.274 132.495 497.734C132.996 498.194 133.374 498.715 133.629 499.298C133.883 499.881 134.011 500.543 134.011 501.282C134.011 502.062 133.859 502.76 133.555 503.376C133.251 503.992 132.811 504.513 132.237 504.941C131.662 505.368 130.976 505.692 130.179 505.914C129.383 506.136 128.491 506.246 127.506 506.246C126.619 506.246 125.744 506.131 124.882 505.901C124.02 505.663 123.235 505.306 122.529 504.83C121.831 504.353 121.272 503.746 120.854 503.006C120.435 502.267 120.225 501.393 120.225 500.382H123.933C123.933 500.941 124.02 501.413 124.192 501.799C124.365 502.185 124.607 502.497 124.919 502.735C125.239 502.974 125.617 503.146 126.052 503.253C126.496 503.36 126.98 503.413 127.506 503.413C128.147 503.413 128.672 503.323 129.083 503.142C129.502 502.961 129.81 502.711 130.007 502.39C130.212 502.07 130.315 501.709 130.315 501.306ZM142.831 492.67V495.184H135.07V492.67H142.831ZM136.992 489.381H140.54V501.984C140.54 502.37 140.589 502.666 140.688 502.871C140.794 503.076 140.95 503.22 141.156 503.302C141.361 503.376 141.62 503.413 141.932 503.413C142.154 503.413 142.351 503.405 142.523 503.388C142.704 503.364 142.856 503.339 142.979 503.314L142.991 505.926C142.687 506.025 142.359 506.103 142.006 506.16C141.653 506.218 141.263 506.246 140.835 506.246C140.055 506.246 139.374 506.119 138.79 505.864C138.216 505.602 137.772 505.183 137.46 504.608C137.148 504.033 136.992 503.277 136.992 502.341V489.381ZM152.046 502.994V497.056C152.046 496.629 151.976 496.264 151.837 495.96C151.697 495.648 151.479 495.405 151.184 495.233C150.896 495.06 150.523 494.974 150.063 494.974C149.668 494.974 149.328 495.044 149.04 495.184C148.753 495.315 148.531 495.508 148.375 495.763C148.219 496.009 148.141 496.301 148.141 496.637H144.593C144.593 496.071 144.724 495.533 144.987 495.023C145.25 494.514 145.632 494.067 146.133 493.681C146.634 493.286 147.229 492.978 147.919 492.757C148.617 492.535 149.397 492.424 150.26 492.424C151.295 492.424 152.214 492.597 153.019 492.942C153.824 493.286 154.457 493.804 154.916 494.494C155.385 495.184 155.619 496.046 155.619 497.081V502.785C155.619 503.516 155.664 504.115 155.754 504.583C155.845 505.043 155.976 505.446 156.148 505.791V506H152.563C152.391 505.639 152.26 505.187 152.169 504.645C152.087 504.095 152.046 503.544 152.046 502.994ZM152.514 497.882L152.539 499.89H150.555C150.087 499.89 149.681 499.943 149.336 500.05C148.991 500.157 148.708 500.308 148.486 500.506C148.264 500.694 148.1 500.916 147.993 501.171C147.894 501.425 147.845 501.705 147.845 502.009C147.845 502.312 147.915 502.588 148.055 502.834C148.194 503.072 148.395 503.261 148.658 503.401C148.921 503.532 149.229 503.598 149.582 503.598C150.116 503.598 150.58 503.491 150.974 503.277C151.368 503.064 151.672 502.801 151.886 502.489C152.108 502.177 152.223 501.881 152.231 501.602L153.167 503.105C153.036 503.442 152.855 503.791 152.625 504.152C152.403 504.513 152.12 504.854 151.775 505.175C151.43 505.487 151.015 505.745 150.531 505.951C150.046 506.148 149.471 506.246 148.806 506.246C147.96 506.246 147.192 506.078 146.502 505.741C145.821 505.396 145.279 504.924 144.876 504.325C144.482 503.717 144.285 503.027 144.285 502.255C144.285 501.557 144.416 500.937 144.679 500.395C144.942 499.853 145.328 499.397 145.837 499.027C146.355 498.649 146.999 498.366 147.771 498.177C148.543 497.98 149.438 497.882 150.457 497.882H152.514ZM164.883 492.67V495.184H157.122V492.67H164.883ZM159.043 489.381H162.591V501.984C162.591 502.37 162.641 502.666 162.739 502.871C162.846 503.076 163.002 503.22 163.207 503.302C163.413 503.376 163.671 503.413 163.983 503.413C164.205 503.413 164.402 503.405 164.575 503.388C164.756 503.364 164.907 503.339 165.031 503.314L165.043 505.926C164.739 506.025 164.411 506.103 164.057 506.16C163.704 506.218 163.314 506.246 162.887 506.246C162.107 506.246 161.425 506.119 160.842 505.864C160.267 505.602 159.824 505.183 159.512 504.608C159.199 504.033 159.043 503.277 159.043 502.341V489.381ZM170.648 492.67V506H167.088V492.67H170.648ZM166.866 489.196C166.866 488.679 167.047 488.252 167.408 487.915C167.77 487.578 168.254 487.41 168.862 487.41C169.461 487.41 169.942 487.578 170.303 487.915C170.673 488.252 170.858 488.679 170.858 489.196C170.858 489.714 170.673 490.141 170.303 490.478C169.942 490.814 169.461 490.983 168.862 490.983C168.254 490.983 167.77 490.814 167.408 490.478C167.047 490.141 166.866 489.714 166.866 489.196ZM173.014 499.471V499.212C173.014 498.235 173.153 497.335 173.432 496.514C173.712 495.685 174.118 494.966 174.652 494.358C175.186 493.75 175.843 493.278 176.623 492.942C177.403 492.597 178.299 492.424 179.309 492.424C180.319 492.424 181.218 492.597 182.007 492.942C182.795 493.278 183.456 493.75 183.99 494.358C184.532 494.966 184.943 495.685 185.222 496.514C185.501 497.335 185.641 498.235 185.641 499.212V499.471C185.641 500.44 185.501 501.339 185.222 502.169C184.943 502.99 184.532 503.709 183.99 504.325C183.456 504.932 182.799 505.405 182.019 505.741C181.239 506.078 180.344 506.246 179.333 506.246C178.323 506.246 177.424 506.078 176.635 505.741C175.855 505.405 175.194 504.932 174.652 504.325C174.118 503.709 173.712 502.99 173.432 502.169C173.153 501.339 173.014 500.44 173.014 499.471ZM176.562 499.212V499.471C176.562 500.029 176.611 500.551 176.709 501.035C176.808 501.52 176.964 501.947 177.178 502.317C177.399 502.678 177.687 502.961 178.04 503.167C178.393 503.372 178.824 503.475 179.333 503.475C179.826 503.475 180.249 503.372 180.602 503.167C180.955 502.961 181.239 502.678 181.452 502.317C181.666 501.947 181.822 501.52 181.92 501.035C182.027 500.551 182.081 500.029 182.081 499.471V499.212C182.081 498.67 182.027 498.161 181.92 497.684C181.822 497.2 181.662 496.773 181.44 496.403C181.226 496.025 180.943 495.73 180.59 495.516C180.237 495.303 179.81 495.196 179.309 495.196C178.808 495.196 178.381 495.303 178.028 495.516C177.683 495.73 177.399 496.025 177.178 496.403C176.964 496.773 176.808 497.2 176.709 497.684C176.611 498.161 176.562 498.67 176.562 499.212ZM191.295 495.516V506H187.747V492.67H191.074L191.295 495.516ZM190.778 498.867H189.817C189.817 497.882 189.944 496.995 190.199 496.206C190.454 495.409 190.811 494.732 191.271 494.173C191.731 493.607 192.277 493.176 192.909 492.88C193.55 492.576 194.264 492.424 195.053 492.424C195.677 492.424 196.248 492.514 196.765 492.695C197.283 492.876 197.726 493.163 198.096 493.557C198.474 493.952 198.761 494.473 198.958 495.122C199.163 495.771 199.266 496.563 199.266 497.5V506H195.693V497.487C195.693 496.896 195.611 496.436 195.447 496.108C195.283 495.779 195.041 495.549 194.72 495.418C194.408 495.278 194.022 495.208 193.562 495.208C193.086 495.208 192.671 495.303 192.318 495.492C191.973 495.681 191.686 495.943 191.456 496.28C191.234 496.609 191.066 496.995 190.951 497.438C190.836 497.882 190.778 498.358 190.778 498.867ZM218.373 488.063H222.057V499.914C222.057 501.294 221.761 502.456 221.17 503.401C220.587 504.345 219.778 505.056 218.743 505.532C217.716 506.008 216.534 506.246 215.195 506.246C213.856 506.246 212.665 506.008 211.622 505.532C210.588 505.056 209.774 504.345 209.183 503.401C208.6 502.456 208.308 501.294 208.308 499.914V488.063H212.004V499.914C212.004 500.719 212.132 501.376 212.386 501.885C212.641 502.395 213.006 502.768 213.483 503.006C213.967 503.245 214.538 503.364 215.195 503.364C215.868 503.364 216.439 503.245 216.907 503.006C217.384 502.768 217.745 502.395 217.991 501.885C218.246 501.376 218.373 500.719 218.373 499.914V488.063ZM228.426 495.233V511.125H224.878V492.67H228.167L228.426 495.233ZM236.865 499.187V499.446C236.865 500.415 236.75 501.315 236.52 502.144C236.298 502.974 235.969 503.696 235.534 504.312C235.099 504.92 234.557 505.396 233.908 505.741C233.267 506.078 232.528 506.246 231.691 506.246C230.877 506.246 230.171 506.082 229.572 505.754C228.972 505.425 228.467 504.965 228.056 504.374C227.654 503.774 227.33 503.08 227.083 502.292C226.837 501.503 226.648 500.658 226.516 499.754V499.077C226.648 498.107 226.837 497.22 227.083 496.416C227.33 495.602 227.654 494.9 228.056 494.309C228.467 493.709 228.968 493.245 229.559 492.917C230.159 492.588 230.861 492.424 231.666 492.424C232.512 492.424 233.255 492.584 233.896 492.905C234.545 493.225 235.087 493.685 235.522 494.284C235.965 494.884 236.298 495.598 236.52 496.428C236.75 497.257 236.865 498.177 236.865 499.187ZM233.304 499.446V499.187C233.304 498.621 233.255 498.099 233.157 497.623C233.066 497.138 232.918 496.715 232.713 496.354C232.516 495.993 232.253 495.713 231.925 495.516C231.604 495.311 231.214 495.208 230.754 495.208C230.27 495.208 229.855 495.286 229.51 495.442C229.173 495.598 228.898 495.824 228.685 496.12C228.471 496.416 228.311 496.769 228.204 497.179C228.097 497.59 228.032 498.054 228.007 498.571V500.284C228.048 500.892 228.163 501.438 228.352 501.922C228.541 502.399 228.832 502.776 229.227 503.056C229.621 503.335 230.138 503.475 230.779 503.475C231.247 503.475 231.641 503.372 231.962 503.167C232.282 502.953 232.541 502.661 232.738 502.292C232.943 501.922 233.087 501.495 233.169 501.011C233.259 500.526 233.304 500.005 233.304 499.446ZM246.942 503.093V487.078H250.515V506H247.299L246.942 503.093ZM238.515 499.495V499.237C238.515 498.218 238.63 497.294 238.86 496.465C239.09 495.627 239.427 494.908 239.871 494.309C240.314 493.709 240.86 493.245 241.509 492.917C242.158 492.588 242.897 492.424 243.727 492.424C244.507 492.424 245.188 492.588 245.772 492.917C246.363 493.245 246.864 493.714 247.275 494.321C247.693 494.921 248.03 495.631 248.285 496.453C248.539 497.266 248.724 498.157 248.839 499.126V499.693C248.724 500.621 248.539 501.483 248.285 502.28C248.03 503.076 247.693 503.774 247.275 504.374C246.864 504.965 246.363 505.425 245.772 505.754C245.18 506.082 244.49 506.246 243.702 506.246C242.872 506.246 242.133 506.078 241.484 505.741C240.844 505.405 240.302 504.932 239.858 504.325C239.423 503.717 239.09 503.002 238.86 502.181C238.63 501.36 238.515 500.465 238.515 499.495ZM242.063 499.237V499.495C242.063 500.046 242.105 500.559 242.187 501.035C242.277 501.512 242.421 501.935 242.618 502.304C242.823 502.666 243.086 502.949 243.406 503.154C243.735 503.351 244.133 503.45 244.601 503.45C245.209 503.45 245.71 503.314 246.104 503.043C246.498 502.764 246.798 502.382 247.004 501.898C247.217 501.413 247.34 500.855 247.373 500.222V498.608C247.348 498.091 247.275 497.627 247.151 497.216C247.036 496.797 246.864 496.44 246.634 496.145C246.412 495.849 246.133 495.619 245.796 495.455C245.468 495.29 245.078 495.208 244.626 495.208C244.166 495.208 243.772 495.315 243.443 495.529C243.115 495.734 242.848 496.017 242.642 496.379C242.445 496.74 242.298 497.167 242.199 497.66C242.109 498.144 242.063 498.67 242.063 499.237ZM260.481 502.994V497.056C260.481 496.629 260.411 496.264 260.271 495.96C260.132 495.648 259.914 495.405 259.619 495.233C259.331 495.06 258.957 494.974 258.497 494.974C258.103 494.974 257.762 495.044 257.475 495.184C257.187 495.315 256.966 495.508 256.81 495.763C256.654 496.009 256.576 496.301 256.576 496.637H253.028C253.028 496.071 253.159 495.533 253.422 495.023C253.685 494.514 254.067 494.067 254.568 493.681C255.069 493.286 255.664 492.978 256.354 492.757C257.052 492.535 257.832 492.424 258.695 492.424C259.729 492.424 260.649 492.597 261.454 492.942C262.259 493.286 262.891 493.804 263.351 494.494C263.819 495.184 264.053 496.046 264.053 497.081V502.785C264.053 503.516 264.099 504.115 264.189 504.583C264.279 505.043 264.411 505.446 264.583 505.791V506H260.998C260.826 505.639 260.694 505.187 260.604 504.645C260.522 504.095 260.481 503.544 260.481 502.994ZM260.949 497.882L260.974 499.89H258.99C258.522 499.89 258.116 499.943 257.771 500.05C257.426 500.157 257.142 500.308 256.921 500.506C256.699 500.694 256.535 500.916 256.428 501.171C256.329 501.425 256.28 501.705 256.28 502.009C256.28 502.312 256.35 502.588 256.489 502.834C256.629 503.072 256.83 503.261 257.093 503.401C257.356 503.532 257.664 503.598 258.017 503.598C258.551 503.598 259.015 503.491 259.409 503.277C259.803 503.064 260.107 502.801 260.321 502.489C260.542 502.177 260.657 501.881 260.666 501.602L261.602 503.105C261.471 503.442 261.29 503.791 261.06 504.152C260.838 504.513 260.555 504.854 260.21 505.175C259.865 505.487 259.45 505.745 258.966 505.951C258.481 506.148 257.906 506.246 257.241 506.246C256.395 506.246 255.627 506.078 254.937 505.741C254.255 505.396 253.713 504.924 253.311 504.325C252.917 503.717 252.72 503.027 252.72 502.255C252.72 501.557 252.851 500.937 253.114 500.395C253.377 499.853 253.763 499.397 254.272 499.027C254.789 498.649 255.434 498.366 256.206 498.177C256.978 497.98 257.873 497.882 258.892 497.882H260.949ZM273.318 492.67V495.184H265.556V492.67H273.318ZM267.478 489.381H271.026V501.984C271.026 502.37 271.075 502.666 271.174 502.871C271.281 503.076 271.437 503.22 271.642 503.302C271.847 503.376 272.106 503.413 272.418 503.413C272.64 503.413 272.837 503.405 273.01 503.388C273.19 503.364 273.342 503.339 273.465 503.314L273.478 505.926C273.174 506.025 272.845 506.103 272.492 506.16C272.139 506.218 271.749 506.246 271.322 506.246C270.542 506.246 269.86 506.119 269.277 505.864C268.702 505.602 268.258 505.183 267.946 504.608C267.634 504.033 267.478 503.277 267.478 502.341V489.381ZM281.473 506.246C280.438 506.246 279.51 506.082 278.689 505.754C277.868 505.417 277.169 504.953 276.595 504.362C276.028 503.77 275.593 503.084 275.289 502.304C274.985 501.516 274.833 500.678 274.833 499.791V499.298C274.833 498.288 274.977 497.364 275.264 496.526C275.552 495.689 275.962 494.962 276.496 494.346C277.038 493.73 277.695 493.258 278.467 492.929C279.239 492.592 280.11 492.424 281.079 492.424C282.023 492.424 282.861 492.58 283.592 492.892C284.323 493.204 284.935 493.648 285.428 494.223C285.928 494.798 286.306 495.488 286.561 496.292C286.815 497.089 286.943 497.976 286.943 498.953V500.432H276.348V498.066H283.456V497.795C283.456 497.303 283.366 496.863 283.185 496.477C283.013 496.083 282.75 495.771 282.397 495.541C282.044 495.311 281.592 495.196 281.042 495.196C280.574 495.196 280.171 495.299 279.835 495.504C279.498 495.709 279.223 495.997 279.009 496.366C278.804 496.736 278.648 497.171 278.541 497.672C278.442 498.165 278.393 498.707 278.393 499.298V499.791C278.393 500.325 278.467 500.818 278.615 501.269C278.771 501.721 278.989 502.111 279.268 502.44C279.555 502.768 279.9 503.023 280.303 503.204C280.713 503.384 281.177 503.475 281.695 503.475C282.335 503.475 282.931 503.351 283.481 503.105C284.04 502.85 284.52 502.468 284.922 501.959L286.647 503.832C286.368 504.234 285.986 504.62 285.501 504.99C285.025 505.359 284.45 505.663 283.777 505.901C283.103 506.131 282.335 506.246 281.473 506.246ZM296.835 503.093V487.078H300.408V506H297.192L296.835 503.093ZM288.409 499.495V499.237C288.409 498.218 288.524 497.294 288.754 496.465C288.984 495.627 289.32 494.908 289.764 494.309C290.207 493.709 290.754 493.245 291.402 492.917C292.051 492.588 292.79 492.424 293.62 492.424C294.4 492.424 295.082 492.588 295.665 492.917C296.256 493.245 296.757 493.714 297.168 494.321C297.587 494.921 297.923 495.631 298.178 496.453C298.433 497.266 298.617 498.157 298.732 499.126V499.693C298.617 500.621 298.433 501.483 298.178 502.28C297.923 503.076 297.587 503.774 297.168 504.374C296.757 504.965 296.256 505.425 295.665 505.754C295.074 506.082 294.384 506.246 293.595 506.246C292.766 506.246 292.027 506.078 291.378 505.741C290.737 505.405 290.195 504.932 289.752 504.325C289.316 503.717 288.984 503.002 288.754 502.181C288.524 501.36 288.409 500.465 288.409 499.495ZM291.957 499.237V499.495C291.957 500.046 291.998 500.559 292.08 501.035C292.17 501.512 292.314 501.935 292.511 502.304C292.716 502.666 292.979 502.949 293.3 503.154C293.628 503.351 294.026 503.45 294.495 503.45C295.102 503.45 295.603 503.314 295.997 503.043C296.392 502.764 296.691 502.382 296.897 501.898C297.11 501.413 297.234 500.855 297.266 500.222V498.608C297.242 498.091 297.168 497.627 297.045 497.216C296.93 496.797 296.757 496.44 296.527 496.145C296.305 495.849 296.026 495.619 295.69 495.455C295.361 495.29 294.971 495.208 294.519 495.208C294.059 495.208 293.665 495.315 293.337 495.529C293.008 495.734 292.741 496.017 292.536 496.379C292.339 496.74 292.191 497.167 292.092 497.66C292.002 498.144 291.957 498.67 291.957 499.237ZM307.183 488.063L306.777 500.518H303.82L303.401 488.063H307.183ZM303.303 504.374C303.303 503.848 303.484 503.413 303.845 503.068C304.215 502.715 304.699 502.538 305.299 502.538C305.906 502.538 306.391 502.715 306.752 503.068C307.114 503.413 307.294 503.848 307.294 504.374C307.294 504.883 307.114 505.314 306.752 505.667C306.391 506.021 305.906 506.197 305.299 506.197C304.699 506.197 304.215 506.021 303.845 505.667C303.484 505.314 303.303 504.883 303.303 504.374Z" fill="#040404"/>
<circle cx="214" cy="386" r="72" fill="#C9F8E1"/>
<path d="M179 386.125C179 367.123 194.363 351.625 213.5 351.625C232.502 351.625 248 367.123 248 386.125C248 405.262 232.502 420.625 213.5 420.625C194.363 420.625 179 405.262 179 386.125ZM228.998 380.195C230.48 378.713 230.48 376.422 228.998 374.939C227.516 373.457 225.225 373.457 223.742 374.939L209.188 389.494L203.123 383.564C201.641 382.082 199.35 382.082 197.867 383.564C196.385 385.047 196.385 387.338 197.867 388.82L206.492 397.445C207.975 398.928 210.266 398.928 211.748 397.445L228.998 380.195Z" fill="#00E676"/>
<defs>
<clipPath id="clip0_56193_25109">
<rect width="412" height="892" fill="white"/>
</clipPath>
</defs>
</svg>
