<svg width="7000" height="4833" viewBox="0 0 7000 4833" fill="none" xmlns="http://www.w3.org/2000/svg">
<rect width="7000" height="4833" fill="#F2F4F9"/>
<path d="M5498.18 878H4610.21L4166.39 1647.21L3722.41 878H2834.61L2390.79 1647.21L1946.8 878H1059L1946.8 2416.58L1059 3955H1946.8L2390.79 3185.79L2834.61 3955H3722.41L2834.61 2416.58L3278.59 1647.21L4166.39 3185.79L5054.2 1647.21L5498.18 2416.58L5942 1647.21L5498.18 878Z" fill="#3B3835" fill-opacity="0.05"/>
<ellipse cx="1259" cy="4329.81" rx="150" ry="149.467" fill="#020202"/>
<path d="M1278.08 4402.78V4260.59H1276.61L1214.7 4282.95V4306.59L1250.64 4293.7V4402.78H1278.08Z" fill="white"/>
<path d="M1039.82 475.878C1115.7 447.389 1197.27 436.814 1275.94 444.912C1354.69 452.61 1430.16 478.911 1496.49 518.657C1517.48 531.227 1537.59 545.293 1556.93 560.254L1570.55 476.027L1690.59 694.581L1457.38 577.351L1545.78 567.57C1527.18 555.42 1507.77 544.366 1487.94 534.476C1420.73 500.967 1347.08 481.794 1272.99 480.28C1199.14 478.602 1125.51 494.289 1058.84 525.229C992.214 555.969 933.016 601.633 883.178 655.96L834.091 605.847C893.856 549.97 963.765 504.132 1039.82 475.878" fill="black"/>
<line x1="781.5" y1="2731" x2="781.5" y2="1688" stroke="black" stroke-width="35" stroke-dasharray="85 85"/>
<line x1="1771.5" y1="2731" x2="1771.5" y2="1688" stroke="black" stroke-width="35" stroke-dasharray="85 85"/>
<path d="M1276.5 1805.78L1336.52 1802.03L1396.53 1790.77L1456.55 1773.9L1510.93 1747.64L1563.45 1717.63L1612.21 1678.25L1655.34 1635.11L1692.85 1588.22L1724.74 1535.71L1749.12 1479.45L1767.87 1421.31L1777.25 1361.29L1781 1301.28L1777.25 1239.39L1767.87 1179.37L1749.12 1121.23L1724.74 1066.85L1692.85 1014.33L1655.34 965.57L1612.21 922.434L1563.45 884.925L1510.93 853.042L1456.55 828.661L1396.53 809.906L1336.52 798.653L1276.5 794.902L1216.49 798.653L1156.47 809.906L1096.46 828.661L1042.07 853.042L989.554 884.925L940.792 922.434L897.657 965.57L860.147 1014.33L828.264 1066.85L803.883 1121.23L785.129 1179.37L775.751 1239.39L772 1301.28L775.751 1361.29L785.129 1421.31L803.883 1479.45L828.264 1535.71L860.147 1588.22L897.657 1635.11L940.792 1678.25L989.554 1717.63L1042.07 1747.64L1096.46 1773.9L1156.47 1790.77L1216.49 1802.03L1276.5 1805.78Z" stroke="black" stroke-width="18.3548" stroke-linecap="round" stroke-linejoin="round"/>
<path d="M1276.51 1802.03L1336.53 1798.28L1396.54 1787.03L1454.68 1770.15L1509.07 1743.89L1561.58 1713.88L1608.47 1676.37L1651.61 1633.24L1689.12 1586.35L1721 1533.84L1745.38 1479.45L1762.26 1421.31L1773.51 1361.3L1777.26 1301.28L1773.51 1241.27L1762.26 1181.25L1745.38 1123.11L1721 1068.72L1689.12 1016.21L1651.61 969.323L1608.47 926.188L1561.58 888.678L1509.07 856.795L1454.68 832.414L1396.54 813.66L1336.53 804.282L1276.51 800.531L1216.5 804.282L1156.48 813.66L1098.34 832.414L1043.96 856.795L991.443 888.678L944.556 926.188L901.42 969.323L863.911 1016.21L832.028 1068.72L807.647 1123.11L790.768 1181.25L779.515 1241.27L775.764 1301.28L779.515 1361.3L790.768 1421.31L807.647 1479.45L832.028 1533.84L863.911 1586.35L901.42 1633.24L944.556 1676.37L991.443 1713.88L1043.96 1743.89L1098.34 1770.15L1156.48 1787.03L1216.5 1798.28L1276.51 1802.03Z" stroke="black" stroke-width="18.3548" stroke-linecap="round" stroke-linejoin="round"/>
<path d="M1276.5 1792.65L1336.52 1788.9L1394.66 1777.65L1450.92 1760.77L1505.31 1736.39L1555.95 1704.5L1602.83 1668.87L1644.1 1627.61L1681.6 1580.72L1711.61 1530.09L1735.99 1475.7L1752.87 1417.56L1764.12 1359.42L1767.88 1301.28L1764.12 1241.26L1752.87 1183.12L1735.99 1126.86L1711.61 1072.47L1681.6 1021.83L1644.1 974.947L1602.83 933.687L1555.95 896.178L1505.31 866.17L1450.92 841.789L1394.66 823.034L1336.52 813.657L1276.5 809.906L1216.49 813.657L1158.35 823.034L1102.09 841.789L1047.7 866.17L997.06 896.178L950.173 933.687L908.913 974.947L871.403 1021.83L841.396 1072.47L817.015 1126.86L800.136 1183.12L788.883 1241.26L785.132 1301.28L788.883 1359.42L800.136 1417.56L817.015 1475.7L841.396 1530.09L871.403 1580.72L908.913 1627.61L950.173 1668.87L997.06 1704.5L1047.7 1736.39L1102.09 1760.77L1158.35 1777.65L1216.49 1788.9L1276.5 1792.65Z" stroke="black" stroke-width="18.3548" stroke-linecap="round" stroke-linejoin="round"/>
<path d="M1276.49 1787.03L1334.63 1783.28L1392.77 1772.02L1449.04 1755.14L1501.55 1730.76L1552.19 1700.75L1599.07 1665.12L1640.33 1621.99L1675.97 1576.97L1705.98 1526.34L1730.36 1473.82L1747.24 1417.56L1758.49 1359.42L1762.24 1301.28L1758.49 1243.14L1747.24 1185L1730.36 1128.74L1705.98 1074.35L1675.97 1025.59L1640.33 978.701L1599.07 937.44L1552.19 901.807L1501.55 871.799L1449.04 847.418L1392.77 828.663L1334.63 819.286L1276.49 815.535L1218.35 819.286L1160.21 828.663L1103.95 847.418L1051.44 871.799L1000.8 901.807L953.914 937.44L912.653 978.701L877.019 1025.59L847.012 1074.35L822.631 1128.74L805.752 1185L794.499 1243.14L790.748 1301.28L794.499 1359.42L805.752 1417.56L822.631 1473.82L847.012 1526.34L877.019 1576.97L912.653 1621.99L953.914 1665.12L1000.8 1700.75L1051.44 1730.76L1103.95 1755.14L1160.21 1772.02L1218.35 1783.28L1276.49 1787.03Z" stroke="black" stroke-width="18.3548" stroke-linecap="round" stroke-linejoin="round"/>
<path d="M1276.49 1327.53L1289.62 1323.78L1299 1314.4L1302.75 1301.27L1299 1288.14L1289.62 1278.77L1276.49 1275.02L1263.37 1278.77L1253.99 1288.14L1250.24 1301.27L1253.99 1314.4L1263.37 1323.78L1276.49 1327.53Z" stroke="black" stroke-width="18.3548" stroke-linecap="round" stroke-linejoin="round"/>
<ellipse cx="5561" cy="4329.81" rx="150" ry="149.467" fill="#020202"/>
<path d="M5540.92 4319.77V4340.86H5555.66C5559.38 4340.86 5562.7 4341.29 5565.62 4342.13C5568.62 4342.98 5571.19 4344.28 5573.34 4346.04C5575.42 4347.8 5577.02 4350.04 5578.12 4352.78C5579.23 4355.51 5579.79 4358.8 5579.79 4362.64C5579.79 4365.7 5579.3 4368.47 5578.32 4370.94C5577.41 4373.42 5576.04 4375.5 5574.22 4377.19C5572.33 4379.08 5569.99 4380.51 5567.19 4381.49C5564.39 4382.46 5561.23 4382.95 5557.71 4382.95C5554.59 4382.95 5551.73 4382.5 5549.12 4381.59C5546.52 4380.61 5544.27 4379.27 5542.38 4377.58C5540.43 4375.95 5538.93 4374 5537.89 4371.72C5536.85 4369.38 5536.33 4366.84 5536.33 4364.11H5509.18C5509.18 4371.01 5510.51 4377 5513.18 4382.07C5515.92 4387.15 5519.53 4391.35 5524.02 4394.67C5528.52 4398.06 5533.63 4400.6 5539.36 4402.29C5545.15 4403.92 5551.07 4404.73 5557.13 4404.73C5564.16 4404.73 5570.7 4403.82 5576.76 4402C5582.88 4400.11 5588.15 4397.37 5592.58 4393.79C5597.01 4390.28 5600.49 4385.92 5603.03 4380.71C5605.57 4375.5 5606.84 4369.57 5606.84 4362.93C5606.84 4359.16 5606.38 4355.58 5605.47 4352.19C5604.56 4348.81 5603.16 4345.68 5601.27 4342.82C5599.38 4340.02 5596.97 4337.51 5594.04 4335.3C5591.18 4333.08 5587.76 4331.26 5583.79 4329.83C5587.17 4328.2 5590.17 4326.28 5592.77 4324.07C5595.38 4321.79 5597.56 4319.31 5599.32 4316.64C5601.07 4313.98 5602.41 4311.18 5603.32 4308.25C5604.23 4305.25 5604.69 4302.22 5604.69 4299.16C5604.69 4292.52 5603.52 4286.7 5601.17 4281.68C5598.89 4276.61 5595.67 4272.34 5591.5 4268.89C5587.34 4265.51 5582.32 4262.97 5576.46 4261.27C5570.61 4259.52 5564.16 4258.64 5557.13 4258.64C5550.62 4258.64 5544.53 4259.58 5538.87 4261.47C5533.27 4263.36 5528.39 4265.99 5524.22 4269.38C5520.05 4272.83 5516.76 4276.93 5514.36 4281.68C5512.01 4286.44 5510.84 4291.71 5510.84 4297.5H5537.99C5537.99 4294.9 5538.51 4292.56 5539.55 4290.47C5540.59 4288.39 5542.02 4286.6 5543.85 4285.1C5545.61 4283.67 5547.66 4282.56 5550 4281.78C5552.41 4281 5554.98 4280.61 5557.71 4280.61C5561.04 4280.61 5563.93 4281.07 5566.41 4281.98C5568.95 4282.89 5571.03 4284.16 5572.66 4285.79C5574.28 4287.48 5575.49 4289.5 5576.27 4291.84C5577.12 4294.12 5577.54 4296.66 5577.54 4299.46C5577.54 4302.32 5577.12 4304.99 5576.27 4307.46C5575.49 4309.87 5574.28 4311.92 5572.66 4313.62C5570.9 4315.57 5568.59 4317.1 5565.72 4318.21C5562.92 4319.25 5559.57 4319.77 5555.66 4319.77H5540.92Z" fill="white"/>
<path d="M5796.53 475.878C5720.64 447.389 5639.08 436.814 5560.4 444.912C5481.65 452.61 5406.18 478.911 5339.86 518.657C5318.86 531.227 5298.75 545.293 5279.41 560.254L5265.79 476.027L5145.75 694.581L5378.96 577.351L5290.56 567.57C5309.16 555.42 5328.57 544.366 5348.4 534.476C5415.61 500.967 5489.26 481.794 5563.35 480.28C5637.2 478.602 5710.83 494.289 5777.5 525.229C5844.13 555.969 5903.33 601.633 5953.16 655.96L6002.25 605.847C5942.49 549.97 5872.58 504.132 5796.53 475.878" fill="black"/>
<line x1="5176.5" y1="2811" x2="5176.5" y2="1768" stroke="black" stroke-width="35" stroke-dasharray="85 85"/>
<line x1="5976.5" y1="2811" x2="5976.5" y2="1768" stroke="black" stroke-width="35" stroke-dasharray="85 85"/>
<path d="M5561.5 1805.78L5621.52 1802.03L5681.53 1790.77L5741.55 1773.9L5795.93 1747.64L5848.45 1717.63L5897.21 1678.25L5940.34 1635.11L5977.85 1588.22L6009.74 1535.71L6034.12 1479.45L6052.87 1421.31L6062.25 1361.29L6066 1301.28L6062.25 1239.39L6052.87 1179.37L6034.12 1121.23L6009.74 1066.85L5977.85 1014.33L5940.34 965.57L5897.21 922.434L5848.45 884.925L5795.93 853.042L5741.55 828.661L5681.53 809.906L5621.52 798.653L5561.5 794.902L5501.49 798.653L5441.47 809.906L5381.46 828.661L5327.07 853.042L5274.55 884.925L5225.79 922.434L5182.66 965.57L5145.15 1014.33L5113.26 1066.85L5088.88 1121.23L5070.13 1179.37L5060.75 1239.39L5057 1301.28L5060.75 1361.29L5070.13 1421.31L5088.88 1479.45L5113.26 1535.71L5145.15 1588.22L5182.66 1635.11L5225.79 1678.25L5274.55 1717.63L5327.07 1747.64L5381.46 1773.9L5441.47 1790.77L5501.49 1802.03L5561.5 1805.78Z" stroke="black" stroke-width="18.3548" stroke-linecap="round" stroke-linejoin="round"/>
<path d="M5561.51 1802.03L5621.53 1798.28L5681.54 1787.03L5739.68 1770.15L5794.07 1743.89L5846.58 1713.88L5893.47 1676.37L5936.61 1633.24L5974.12 1586.35L6006 1533.84L6030.38 1479.45L6047.26 1421.31L6058.51 1361.3L6062.26 1301.28L6058.51 1241.27L6047.26 1181.25L6030.38 1123.11L6006 1068.72L5974.12 1016.21L5936.61 969.323L5893.47 926.188L5846.58 888.678L5794.07 856.795L5739.68 832.414L5681.54 813.66L5621.53 804.282L5561.51 800.531L5501.5 804.282L5441.48 813.66L5383.34 832.414L5328.96 856.795L5276.44 888.678L5229.56 926.188L5186.42 969.323L5148.91 1016.21L5117.03 1068.72L5092.65 1123.11L5075.77 1181.25L5064.52 1241.27L5060.76 1301.28L5064.52 1361.3L5075.77 1421.31L5092.65 1479.45L5117.03 1533.84L5148.91 1586.35L5186.42 1633.24L5229.56 1676.37L5276.44 1713.88L5328.96 1743.89L5383.34 1770.15L5441.48 1787.03L5501.5 1798.28L5561.51 1802.03Z" stroke="black" stroke-width="18.3548" stroke-linecap="round" stroke-linejoin="round"/>
<path d="M5561.5 1792.65L5621.52 1788.9L5679.66 1777.65L5735.92 1760.77L5790.31 1736.39L5840.95 1704.5L5887.83 1668.87L5929.1 1627.61L5966.6 1580.72L5996.61 1530.09L6020.99 1475.7L6037.87 1417.56L6049.12 1359.42L6052.88 1301.28L6049.12 1241.26L6037.87 1183.12L6020.99 1126.86L5996.61 1072.47L5966.6 1021.83L5929.1 974.947L5887.83 933.687L5840.95 896.178L5790.31 866.17L5735.92 841.789L5679.66 823.034L5621.52 813.657L5561.5 809.906L5501.49 813.657L5443.35 823.034L5387.09 841.789L5332.7 866.17L5282.06 896.178L5235.17 933.687L5193.91 974.947L5156.4 1021.83L5126.4 1072.47L5102.01 1126.86L5085.14 1183.12L5073.88 1241.26L5070.13 1301.28L5073.88 1359.42L5085.14 1417.56L5102.01 1475.7L5126.4 1530.09L5156.4 1580.72L5193.91 1627.61L5235.17 1668.87L5282.06 1704.5L5332.7 1736.39L5387.09 1760.77L5443.35 1777.65L5501.49 1788.9L5561.5 1792.65Z" stroke="black" stroke-width="18.3548" stroke-linecap="round" stroke-linejoin="round"/>
<path d="M5561.49 1787.03L5619.63 1783.28L5677.77 1772.02L5734.04 1755.14L5786.55 1730.76L5837.19 1700.75L5884.07 1665.12L5925.33 1621.99L5960.97 1576.97L5990.98 1526.34L6015.36 1473.82L6032.24 1417.56L6043.49 1359.42L6047.24 1301.28L6043.49 1243.14L6032.24 1185L6015.36 1128.74L5990.98 1074.35L5960.97 1025.59L5925.33 978.701L5884.07 937.44L5837.19 901.807L5786.55 871.799L5734.04 847.418L5677.77 828.663L5619.63 819.286L5561.49 815.535L5503.35 819.286L5445.21 828.663L5388.95 847.418L5336.44 871.799L5285.8 901.807L5238.91 937.44L5197.65 978.701L5162.02 1025.59L5132.01 1074.35L5107.63 1128.74L5090.75 1185L5079.5 1243.14L5075.75 1301.28L5079.5 1359.42L5090.75 1417.56L5107.63 1473.82L5132.01 1526.34L5162.02 1576.97L5197.65 1621.99L5238.91 1665.12L5285.8 1700.75L5336.44 1730.76L5388.95 1755.14L5445.21 1772.02L5503.35 1783.28L5561.49 1787.03Z" stroke="black" stroke-width="18.3548" stroke-linecap="round" stroke-linejoin="round"/>
<path d="M5561.49 1327.53L5574.62 1323.78L5584 1314.4L5587.75 1301.27L5584 1288.14L5574.62 1278.77L5561.49 1275.02L5548.37 1278.77L5538.99 1288.14L5535.24 1301.27L5538.99 1314.4L5548.37 1323.78L5561.49 1327.53Z" stroke="black" stroke-width="18.3548" stroke-linecap="round" stroke-linejoin="round"/>
<ellipse cx="3429" cy="4329.81" rx="150" ry="149.467" fill="#020202"/>
<path d="M3474.54 4402.78V4381H3412.14L3438.9 4352.68C3443.52 4347.93 3447.72 4343.4 3451.49 4339.11C3455.27 4334.74 3458.53 4330.48 3461.26 4326.31C3463.93 4322.15 3465.98 4317.95 3467.41 4313.71C3468.91 4309.42 3469.66 4304.93 3469.66 4300.24C3469.66 4294.05 3468.68 4288.42 3466.73 4283.34C3464.78 4278.2 3461.94 4273.81 3458.23 4270.16C3454.46 4266.51 3449.77 4263.68 3444.17 4261.66C3438.64 4259.65 3432.26 4258.64 3425.03 4258.64C3417.48 4258.64 3410.58 4259.87 3404.33 4262.35C3398.14 4264.76 3392.87 4268.08 3388.51 4272.31C3384.08 4276.54 3380.66 4281.49 3378.25 4287.15C3375.84 4292.75 3374.64 4298.71 3374.64 4305.02H3401.89C3401.89 4301.18 3402.37 4297.76 3403.35 4294.77C3404.33 4291.77 3405.76 4289.27 3407.65 4287.25C3409.47 4285.3 3411.75 4283.83 3414.48 4282.86C3417.28 4281.81 3420.51 4281.29 3424.15 4281.29C3426.95 4281.29 3429.49 4281.75 3431.77 4282.66C3434.11 4283.57 3436.13 4284.87 3437.82 4286.57C3439.45 4288.32 3440.72 4290.44 3441.63 4292.91C3442.54 4295.39 3443 4298.22 3443 4301.41C3443 4303.56 3442.64 4305.77 3441.92 4308.05C3441.27 4310.33 3440.2 4312.77 3438.7 4315.38C3437.14 4318.04 3435.12 4320.97 3432.65 4324.16C3430.17 4327.35 3427.15 4330.9 3423.56 4334.81L3377.57 4384.22V4402.78H3474.54Z" fill="white"/>
<path d="M3421 1894L3363.96 1992.79H3478.04L3421 1894ZM3421 2731L3478.04 2632.21H3363.96L3421 2731ZM3411.12 1982.91V2642.09H3430.88V1982.91H3411.12Z" fill="black"/>
<path d="M2914.86 1462.71L2913 1562.91" stroke="black" stroke-width="25.1675" stroke-linecap="round" stroke-linejoin="round"/>
<path d="M3915 1462.71L3916.86 1562.91" stroke="black" stroke-width="25.1675" stroke-linecap="round" stroke-linejoin="round"/>
<path d="M3207 1790.5L2913 1562.91" stroke="black" stroke-width="25.1675" stroke-linecap="round" stroke-linejoin="round"/>
<path d="M3622 1791L3207 1790.63" stroke="black" stroke-width="25.1675" stroke-linecap="round" stroke-linejoin="round"/>
<path d="M3622 1790.5L3916 1562.91" stroke="black" stroke-width="25.1675" stroke-linecap="round" stroke-linejoin="round"/>
<path d="M2920.42 1459H3911.28M2914.86 1462.71H3914.99M2913 1562.91H3916.85" stroke="black" stroke-width="25.1675" stroke-linecap="round" stroke-linejoin="round"/>
<path d="M2920.43 1459L2916.72 1460.86L2914.86 1462.71" stroke="black" stroke-width="25.1675" stroke-linecap="round" stroke-linejoin="round"/>
<path d="M3915.01 1462.71V1460.86L3911.3 1459" stroke="black" stroke-width="25.1675" stroke-linecap="round" stroke-linejoin="round"/>
<path d="M619.164 2975.3L616.493 2974.9L614.02 2974.21L611.35 2973.52L608.877 2972.82L606.206 2972.13L603.733 2971.44L602.645 2971.04L601.359 2970.65L600.964 2970.45H600.271L599.579 2970.25L598.886 2970.05L596.71 2969.16L594.238 2968.47L592.061 2967.58L589.885 2966.69L585.731 2964.91L581.775 2963.13L580.686 2962.73L579.796 2962.34L578.906 2961.94L577.818 2961.55L576.037 2960.66L574.257 2959.77L570.993 2957.79L568.124 2956.01L566.839 2954.92L565.256 2954.03L564.86 2953.63L564.168 2953.24L563.772 2953.04L563.574 2952.64L563.377 2952.45L562.981 2952.25L561.003 2950.47L559.024 2948.49M622.23 2975.69L622.032 2975.89H621.142V2976.09H620.944L620.746 2975.89H619.658L619.461 2975.69M622.131 2972.43H622.824L623.516 2972.63L624.208 2972.82H624.901L625.593 2973.02L628.264 2973.42L630.935 2973.81L633.605 2974.21L636.276 2974.6L637.562 2974.8L638.848 2975H639.243M641.914 2979.65L641.716 2979.45H641.024V2979.25H640.133L639.936 2979.06L639.738 2978.86H639.54L639.342 2978.66V2978.46M707.79 2969.86V2970.25L707.593 2970.94V2971.34L707.197 2972.43L706.504 2973.52L705.614 2974.41L704.526 2975.3L704.13 2975.49L703.933 2975.69L703.735 2975.89H703.537L703.339 2976.09H703.141L702.449 2976.48L701.559 2976.88L699.778 2977.57L697.8 2978.26L695.624 2978.96L693.151 2979.65H692.459L691.766 2979.85H691.074L690.678 2980.04H690.283L688.997 2980.24L687.414 2980.44L684.546 2980.64L681.281 2981.03H678.017L674.456 2981.23H663.18L659.026 2981.03L655.069 2980.64L650.915 2980.44H650.519L649.827 2980.24H648.739L647.849 2980.04H646.761L644.585 2979.85L642.409 2979.65M872.976 2977.47L707.79 2962.04M855.468 2975.49L856.161 2956.7H1426.69H1706.32L1712.55 3128.12H1048.55M1705.43 3135.44L1712.46 3128.12M1048.45 3128.12L1050.23 3131.88L1052.21 3135.44H1705.33M1706.22 2956.7L1693.66 2944.34M868.92 2944.34L856.062 2956.7M868.822 2944.34H1422.14H1693.56H1693.36M1040.04 3127.23H1041.33L1041.52 3127.43H1043.7L1043.9 3127.62H1045.68V3127.82H1046.97V3128.02H1048.25M1052.01 3135.34H1036.97M881.384 2968.87V2970.15L881.186 2970.55V2970.94L880.988 2971.34V2971.74L880.79 2971.93L880.394 2972.82L879.999 2973.52V2973.71L879.801 2973.91H879.603V2974.11L879.405 2974.51L879.01 2974.7L878.812 2974.9L878.614 2975.1L878.416 2975.3H878.218L878.021 2975.49V2975.69L877.13 2975.89L876.438 2976.29H876.042L875.844 2976.48H874.954L874.064 2976.68H873.372M708.087 2968.87L706.999 2941.96M555.463 2941.96L555.266 2947.01M639.639 2977.47L640.034 2959.57L640.727 2941.86M621.736 2941.86L622.131 2958.18L622.824 2974.51M643.398 2939.39H704.625M557.936 2939.39H619.362" stroke="#010101" stroke-width="17.3336" stroke-linecap="round" stroke-linejoin="round"/>
<path d="M1016.99 3033.36L1004.62 3030.3L992.953 3027.43L981.479 3024.16L970.4 3021.1L964.861 3019.32L959.52 3017.54L957.047 3016.65L954.376 3015.76L953.09 3015.36L951.805 3014.96L950.716 3014.57L949.431 3014.17L939.539 3010.61L930.241 3007.05L921.438 3003.29L913.031 2999.53L910.854 2998.64L908.876 2997.56L906.898 2996.66L904.92 2995.77L901.161 2993.8L897.402 2991.82L890.577 2987.86L883.95 2984.1L880.884 2982.12L878.015 2980.15L876.432 2979.06L875.147 2978.17L873.861 2977.28L872.575 2976.19M1037.17 3041.47L1042.71 3083.91L1048.44 3126.14M1023.22 3024.95L1024.31 3025.35L1025.59 3025.75L1026.68 3026.14L1027.97 3026.83L1028.36 3027.23L1029.06 3027.62L1029.25 3027.82H1029.45L1029.85 3028.02L1030.04 3028.22L1031.13 3029.31L1032.02 3030.2L1032.91 3031.28L1033.8 3032.57L1034 3032.77L1034.2 3033.16L1034.4 3033.36L1034.6 3033.76L1034.79 3034.45L1035.19 3035.14L1035.58 3036.43L1036.28 3038.01V3038.9L1036.47 3039.1V3039.49L1036.67 3040.38V3041.08M880.982 2966.89L882.071 2967.78L883.357 2968.87L884.247 2969.27L884.939 2969.66L885.631 2970.35L886.324 2970.75L889.192 2972.73L892.061 2974.71L898.49 2978.46L905.315 2982.42L912.635 2986.38L920.35 2990.14L928.56 2993.9L937.165 2997.65L946.463 3001.41L955.959 3004.97L957.245 3005.37L958.333 3005.76L959.619 3006.16L960.905 3006.56L963.377 3007.45L966.048 3008.34L971.389 3010.12L976.731 3011.7L987.512 3014.96L998.789 3018.23L1010.76 3021.29L1022.92 3024.16M870.3 2974.51L871.388 2973.62L873.564 2971.84L876.037 2970.06L877.125 2969.17L878.411 2968.28L879.697 2967.39L880.982 2966.5M1036.67 3040.68L1032.72 3041.57L1028.56 3041.97M1022.92 3024.06L1021.64 3027.82L1019.66 3030.69L1017.19 3031.98M1038.65 3124.16L1037.07 3128.32L1035.49 3132.28" stroke="#010101" stroke-width="17.3336" stroke-linecap="round" stroke-linejoin="round"/>
<path d="M1042.61 3143.65L1042.8 3134.85M1031.33 3151.36H1033.11L1034.2 3151.17L1035.09 3150.97H1035.48L1035.88 3150.77L1036.28 3150.57H1036.67L1037.56 3150.18L1038.25 3149.78L1038.65 3149.58L1039.05 3149.39L1039.44 3149.19L1039.84 3148.79L1040.03 3148.6L1040.43 3148.2L1040.63 3148L1041.02 3147.61V3147.41L1041.22 3147.21V3147.01L1041.42 3146.81L1041.62 3146.42L1041.81 3146.02V3145.63L1042.01 3145.43V3144.34M437.552 3152.06L439.333 3152.75L440.025 3154.53H494.131L494.526 3152.75L494.922 3152.06M439.926 3154.43L442.794 3212.1H493.141L494.032 3154.43H916.59L916.788 3152.65L917.184 3151.96M916.492 3154.33L915.403 3212H493.042L492.647 3213.58L492.251 3214.47M445.168 3214.47L443.388 3213.58L442.696 3212M915.502 3212L915.304 3213.58L914.612 3214.47M890.972 3651.18H1670.21M1035.39 3159.97H943.989M1050.02 3144.24V3146.72L1049.83 3147.61L1049.63 3148.5L1049.43 3149.19V3149.58L1049.23 3149.98L1049.04 3150.18V3150.57L1048.64 3151.27L1048.44 3151.96L1048.05 3152.85L1047.65 3153.24L1047.26 3153.94L1046.86 3154.63L1046.66 3154.83L1046.46 3155.02L1046.27 3155.22V3155.42H1046.07L1045.87 3155.62L1044.78 3156.71L1043.69 3157.4L1043.3 3157.79L1042.61 3158.19H1042.21L1042.01 3158.39L1041.81 3158.59H1041.42L1040.13 3159.28L1038.85 3159.48L1037.56 3159.67H1036.28M1051.11 3135.14V3141.57L1050.91 3144.05M945.374 3154.23H917.579M916.492 3211.9H942.308M1042.9 3144.14H1051.11M1031.63 3151.86L1034.1 3152.95L1035.88 3155.82L1036.57 3159.77M1794.45 2805.66H769.11M492.944 3214.18H445.861M915.206 3214.18H492.845M874.058 3214.18L891.466 3650.88M1670.71 3650.88L1690.98 3135.14M907.985 3667H1653.89M941.813 3211.8L944.88 3154.13M939.143 3214.18H915.107M768.715 2805.46L775.342 2830.39M1787.23 2830.39L1794.05 2805.46M1793.66 2800.12L1786.83 2784H1534.11H775.836L769.011 2800.12M777.617 2834.15L808.577 2865.11L832.909 2888.95L856.945 2912.79M1785.35 2834.15L1754.19 2865.11L1730.15 2888.95L1705.82 2912.79M856.945 2912.79H1706.02V2941.27M856.945 2912.79V2941.27M859.418 2943.75H1492.47H1703.45M571.58 2923.86H691.265M693.936 2939.59V2926.34H568.909V2939.59M635.874 2973.82H640.028M1793.56 2800.22H1537.37H768.912M775.342 2830.49H1787.23M1785.25 2834.25H777.617M808.577 2865.21H1754.19M1706.02 2941.37H1493.75H856.945" stroke="#010101" stroke-width="17.3336" stroke-linecap="round" stroke-linejoin="round"/>
<path d="M1153.48 3275.82H1145.1L1138.59 3259.36L1133.05 3242.83L1127.59 3259.51L1121.24 3275.82H1112.86L1093.63 3223.45H1104.7L1117.05 3261.23L1129.76 3223.45H1136.2L1149.29 3261.23L1161.26 3223.45H1172.33L1153.48 3275.82Z" fill="black"/>
<path d="M1214.8 3275.82H1175.6C1175.6 3258.39 1175.6 3240.88 1175.6 3223.45H1214.8V3233.03H1185.4V3245.07H1213.75V3254.27H1185.4V3266.09H1214.8V3275.82Z" fill="black"/>
<path d="M1260.79 3265.94H1233.41L1228.93 3275.81H1218.23L1241.72 3223.45H1252.49L1275.98 3275.81H1265.21L1260.79 3265.94ZM1247.1 3234.44L1237.38 3256.73H1256.83L1247.1 3234.44Z" fill="black"/>
<path d="M1282.79 3232.43H1266.18V3223.45C1281.29 3223.45 1294.09 3223.45 1309.27 3223.45V3232.43H1292.66V3275.82H1282.79V3232.43Z" fill="black"/>
<path d="M1348.3 3275.89V3254.72H1322.57V3275.89H1312.7V3223.53H1322.57V3245.6H1348.3V3223.53H1358.1V3275.89H1348.3Z" fill="black"/>
<path d="M1403.81 3275.82H1364.62C1364.62 3258.39 1364.62 3240.88 1364.62 3223.45H1403.81V3233.03H1374.42V3245.07H1402.77V3254.27H1374.42V3266.09H1403.81V3275.82Z" fill="black"/>
<path d="M1455.26 3275.82H1443.52L1428.26 3258.31H1418.76V3275.82H1408.88V3223.38C1417.19 3223.38 1425.49 3223.45 1433.79 3223.45C1446.14 3223.53 1452.64 3231.76 1452.64 3240.81C1452.64 3247.99 1449.35 3255.25 1439.4 3257.27L1455.26 3275.14V3275.82H1455.26ZM1418.76 3232.66V3249.41H1433.79C1440.08 3249.41 1442.77 3245.22 1442.77 3241.03C1442.77 3236.84 1440 3232.65 1433.79 3232.65H1418.76V3232.66Z" fill="black"/>
<path d="M1130.44 3383L1165.39 3322.46H1095.48L1130.44 3383Z" fill="black"/>
<path d="M1165.39 3322.46L1130.44 3383H1200.34L1165.39 3322.46Z" fill="black"/>
<path d="M1130.44 3383L1165.39 3322.45L1165.39 3322.46L1200.35 3382.99L1130.44 3383ZM1165.39 3322.46L1130.44 3383L1200.34 3382.99L1165.39 3322.46Z" fill="black"/>
<path d="M1165.39 3443.54L1200.34 3383H1130.44L1165.39 3443.54Z" fill="black"/>
<path d="M1165.39 3443.54L1130.44 3383L1200.35 3382.99L1165.39 3443.54ZM1200.34 3383L1130.44 3383L1165.39 3443.54L1200.34 3383Z" fill="black"/>
<path d="M1200.34 3383L1165.39 3443.54H1235.3L1200.34 3383Z" fill="black"/>
<path d="M1165.39 3443.54L1200.35 3382.99L1235.3 3443.54H1165.39ZM1200.35 3382.99L1165.39 3443.54L1235.3 3443.53L1200.35 3382.99Z" fill="black"/>
<path d="M1235.3 3443.54L1200.34 3504.08H1270.25L1235.3 3443.54Z" fill="black"/>
<path d="M1200.34 3504.08L1235.3 3443.53V3443.54L1270.25 3504.08H1200.34ZM1235.3 3443.54L1200.35 3504.08L1270.25 3504.07L1235.3 3443.54Z" fill="black"/>
<path d="M1445.02 3322.46L1410.06 3383H1479.97L1445.02 3322.46Z" fill="black"/>
<path d="M1410.06 3383L1445.02 3322.46L1479.97 3383H1410.06ZM1445.02 3322.46L1410.06 3383L1479.97 3382.99L1445.02 3322.46Z" fill="black"/>
<path d="M1270.25 3504.08L1235.3 3564.62H1305.2L1270.25 3504.08Z" fill="black"/>
<path d="M1235.3 3564.62L1270.25 3504.08L1305.2 3564.62L1235.3 3564.62ZM1270.25 3504.08L1235.3 3564.62L1305.2 3564.61L1270.25 3504.08Z" fill="black"/>
<path d="M1340.16 3383L1305.2 3443.54H1375.11L1340.16 3383Z" fill="black"/>
<path d="M1305.2 3443.54L1340.16 3383L1375.11 3443.54H1305.2ZM1340.16 3383L1305.2 3443.54L1375.11 3443.53L1340.16 3383Z" fill="black"/>
<path d="M1165.39 3443.54L1130.44 3504.08H1200.34L1165.39 3443.54Z" fill="black"/>
<path d="M1130.44 3504.08L1165.39 3443.53V3443.54L1200.35 3504.08L1130.44 3504.08ZM1165.39 3443.54L1130.44 3504.08L1200.35 3504.07L1165.39 3443.54Z" fill="black"/>
<path d="M1235.3 3322.46L1200.34 3383L1270.25 3383L1235.3 3322.46Z" fill="black"/>
<path d="M1200.34 3383L1235.3 3322.46L1270.25 3383L1200.34 3383ZM1235.3 3322.46L1200.35 3382.99L1270.25 3382.99L1235.3 3322.46Z" fill="black"/>
<path d="M1305.2 3322.46L1270.25 3383L1340.16 3383L1305.2 3322.46Z" fill="black"/>
<path d="M1270.25 3383L1305.2 3322.45L1340.16 3383L1270.25 3383ZM1305.2 3322.45L1270.25 3382.99L1340.16 3382.99L1305.2 3322.45Z" fill="black"/>
<path d="M1165.39 3564.62L1200.34 3504.08H1130.44L1165.39 3564.62Z" fill="black"/>
<path d="M1165.39 3564.62L1130.44 3504.08L1200.35 3504.07L1165.39 3564.62ZM1200.35 3504.08L1130.44 3504.08L1165.39 3564.62L1200.35 3504.08Z" fill="black"/>
<path d="M1410.06 3383L1445.02 3322.46L1375.11 3322.46L1410.06 3383Z" fill="black"/>
<path d="M1410.06 3383L1375.11 3322.46L1445.02 3322.45L1410.06 3383ZM1445.01 3322.45L1375.11 3322.46L1410.06 3382.99L1445.01 3322.45Z" fill="black"/>
<path d="M1270.25 3383L1305.2 3322.46H1235.3L1270.25 3383Z" fill="black"/>
<path d="M1270.25 3383L1235.3 3322.46L1305.2 3322.45L1270.25 3383ZM1305.2 3322.45L1235.3 3322.46L1270.25 3382.99L1305.2 3322.45Z" fill="black"/>
<path d="M1235.3 3443.54L1270.25 3383L1200.34 3383L1235.3 3443.54Z" fill="black"/>
<path d="M1235.3 3443.54L1200.34 3383L1270.25 3382.99L1235.3 3443.54ZM1270.25 3383L1200.34 3383L1235.3 3443.54L1270.25 3383Z" fill="black"/>
<path d="M1305.2 3443.54L1340.16 3383L1270.25 3383L1305.2 3443.54Z" fill="black"/>
<path d="M1305.2 3443.54L1270.25 3383L1340.16 3382.99L1305.2 3443.54ZM1340.16 3383L1270.25 3383L1305.2 3443.54L1340.16 3383Z" fill="black"/>
<path d="M1200.34 3504.08L1235.3 3443.54H1165.39L1200.34 3504.08Z" fill="black"/>
<path d="M1200.34 3504.08L1165.39 3443.54L1235.3 3443.53L1200.34 3504.08ZM1235.3 3443.54L1165.39 3443.54L1200.34 3504.08L1235.3 3443.54Z" fill="black"/>
<path d="M1340.16 3504.08L1375.11 3443.54H1305.2L1340.16 3504.08Z" fill="black"/>
<path d="M1340.16 3504.08L1305.2 3443.54L1375.11 3443.53L1340.16 3504.08ZM1375.11 3443.54H1305.2L1340.16 3504.08L1375.11 3443.54Z" fill="black"/>
<path d="M1235.3 3564.62L1270.25 3504.08H1200.34L1235.3 3564.62Z" fill="black"/>
<path d="M1235.3 3564.62L1200.34 3504.08L1270.25 3504.07L1235.3 3564.62ZM1270.25 3504.08L1200.34 3504.08L1235.3 3564.62L1270.25 3504.08Z" fill="black"/>
<path d="M1445.02 3443.54L1479.97 3383H1410.06L1445.02 3443.54Z" fill="black"/>
<path d="M1445.02 3443.54L1410.06 3383L1479.97 3382.99L1445.02 3443.54ZM1479.97 3383H1410.06L1445.02 3443.54L1479.97 3383Z" fill="black"/>
<path d="M1375.11 3443.54L1410.06 3383L1340.16 3383L1375.11 3443.54Z" fill="black"/>
<path d="M1375.11 3443.54L1340.16 3383L1410.06 3382.99L1375.11 3443.54ZM1410.06 3383L1340.16 3383L1375.11 3443.54L1410.06 3383Z" fill="black"/>
<path d="M1130.44 3383L1095.48 3322.46L1165.39 3322.45L1130.44 3383ZM1165.39 3322.45L1095.48 3322.46L1130.44 3383L1165.39 3322.45Z" fill="black"/>
<path d="M1130.44 3504.08L1095.48 3564.62H1165.39L1130.44 3504.08Z" fill="black"/>
<path d="M1095.48 3564.62L1130.44 3504.08V3504.08L1165.39 3564.62L1095.48 3564.62ZM1130.44 3504.08L1095.48 3564.62L1165.39 3564.62L1130.44 3504.08Z" fill="black"/>
<path d="M1375.11 3322.46L1340.16 3383L1410.06 3383L1375.11 3322.46Z" fill="black"/>
<path d="M1340.16 3383L1375.11 3322.45L1410.06 3382.99L1340.16 3383ZM1375.11 3322.45L1340.16 3382.99L1410.06 3382.99L1375.11 3322.45Z" fill="black"/>
<path d="M2713.61 2955.43L2710.94 2955.04L2708.47 2954.35L2705.8 2953.65L2703.32 2952.96L2700.65 2952.27L2698.18 2951.58L2697.09 2951.18L2695.81 2950.78L2695.41 2950.59H2694.72L2694.03 2950.39L2693.33 2950.19L2691.16 2949.3L2688.69 2948.61L2686.51 2947.72L2684.33 2946.83L2680.18 2945.05L2676.22 2943.27L2675.13 2942.87L2674.24 2942.48L2673.35 2942.08L2672.27 2941.68L2670.49 2940.79L2668.7 2939.9L2665.44 2937.93L2662.57 2936.14L2661.29 2935.06L2659.7 2934.17L2659.31 2933.77L2658.62 2933.38L2658.22 2933.18L2658.02 2932.78L2657.82 2932.58L2657.43 2932.39L2655.45 2930.61L2653.47 2928.63M2716.68 2955.83L2716.48 2956.03H2715.59V2956.22H2715.39L2715.19 2956.03H2714.11L2713.91 2955.83M2716.58 2952.56H2717.27L2717.96 2952.76L2718.66 2952.96H2719.35L2720.04 2953.16L2722.71 2953.55L2725.38 2953.95L2728.05 2954.35L2730.72 2954.74L2732.01 2954.94L2733.3 2955.14H2733.69M2736.36 2959.79L2736.16 2959.59H2735.47V2959.39H2734.58L2734.38 2959.19L2734.19 2958.99H2733.99L2733.79 2958.8V2958.6M2802.24 2949.99V2950.39L2802.04 2951.08V2951.48L2801.64 2952.56L2800.95 2953.65L2800.06 2954.54L2798.97 2955.43L2798.58 2955.63L2798.38 2955.83L2798.18 2956.03H2797.98L2797.79 2956.22H2797.59L2796.9 2956.62L2796.01 2957.02L2794.23 2957.71L2792.25 2958.4L2790.07 2959.09L2787.6 2959.79H2786.91L2786.21 2959.98H2785.52L2785.13 2960.18H2784.73L2783.44 2960.38L2781.86 2960.58L2778.99 2960.77L2775.73 2961.17H2772.47L2768.9 2961.37H2757.63L2753.47 2961.17L2749.52 2960.77L2745.36 2960.58H2744.97L2744.27 2960.38H2743.19L2742.3 2960.18H2741.21L2739.03 2959.98L2736.86 2959.79M2967.42 2957.61L2802.24 2942.18M2949.92 2955.63L2950.61 2936.84H3521.14H3800.77L3807 3108.25H3143M3799.88 3115.57L3806.9 3108.25M3142.9 3108.25L3144.68 3112.01L3146.66 3115.57H3799.78M3800.67 2936.84L3788.11 2924.47M2963.37 2924.47L2950.51 2936.84M2963.27 2924.47H3516.59H3788.01H3787.81M3134.49 3107.36H3135.77L3135.97 3107.56H3138.15L3138.35 3107.76H3140.13V3107.96H3141.41V3108.16H3142.7M3146.46 3115.48H3131.42M2975.83 2949V2950.29L2975.63 2950.69V2951.08L2975.44 2951.48V2951.87L2975.24 2952.07L2974.84 2952.96L2974.45 2953.65V2953.85L2974.25 2954.05H2974.05V2954.25L2973.85 2954.64L2973.46 2954.84L2973.26 2955.04L2973.06 2955.24L2972.86 2955.43H2972.67L2972.47 2955.63V2955.83L2971.58 2956.03L2970.89 2956.42H2970.49L2970.29 2956.62H2969.4L2968.51 2956.82H2967.82M2802.53 2949L2801.45 2922.1M2649.91 2922.1L2649.71 2927.14M2734.09 2957.61L2734.48 2939.71L2735.17 2922M2716.18 2922L2716.58 2938.32L2717.27 2954.64M2737.85 2919.53H2799.07M2652.38 2919.53H2713.81" stroke="#010101" stroke-width="17.3336" stroke-linecap="round" stroke-linejoin="round"/>
<path d="M3111.44 3013.5L3099.07 3010.43L3087.4 3007.56L3075.93 3004.3L3064.85 3001.23L3059.31 2999.45L3053.97 2997.67L3051.49 2996.78L3048.82 2995.89L3047.54 2995.5L3046.25 2995.1L3045.16 2994.7L3043.88 2994.31L3033.99 2990.75L3024.69 2987.19L3015.89 2983.43L3007.48 2979.67L3005.3 2978.78L3003.32 2977.69L3001.35 2976.8L2999.37 2975.91L2995.61 2973.93L2991.85 2971.95L2985.02 2968L2978.4 2964.24L2975.33 2962.26L2972.46 2960.28L2970.88 2959.2L2969.59 2958.3L2968.31 2957.41L2967.02 2956.33M3131.61 3021.61L3137.15 3064.04L3142.89 3106.28M3117.67 3005.09L3118.76 3005.49L3120.04 3005.88L3121.13 3006.28L3122.42 3006.97L3122.81 3007.37L3123.5 3007.76L3123.7 3007.96H3123.9L3124.3 3008.16L3124.49 3008.36L3125.58 3009.44L3126.47 3010.33L3127.36 3011.42L3128.25 3012.71L3128.45 3012.91L3128.65 3013.3L3128.84 3013.5L3129.04 3013.89L3129.24 3014.59L3129.64 3015.28L3130.03 3016.56L3130.72 3018.15V3019.04L3130.92 3019.24V3019.63L3131.12 3020.52V3021.21M2975.43 2947.03L2976.52 2947.92L2977.8 2949.01L2978.69 2949.4L2979.39 2949.8L2980.08 2950.49L2980.77 2950.89L2983.64 2952.86L2986.51 2954.84L2992.94 2958.6L2999.76 2962.56L3007.08 2966.51L3014.8 2970.27L3023.01 2974.03L3031.61 2977.79L3040.91 2981.55L3050.41 2985.11L3051.69 2985.51L3052.78 2985.9L3054.07 2986.3L3055.35 2986.69L3057.83 2987.58L3060.5 2988.47L3065.84 2990.25L3071.18 2991.84L3081.96 2995.1L3093.24 2998.36L3105.21 3001.43L3117.37 3004.3M2964.75 2954.65L2965.84 2953.75L2968.01 2951.97L2970.48 2950.19L2971.57 2949.3L2972.86 2948.41L2974.14 2947.52L2975.43 2946.63M3131.12 3020.82L3127.16 3021.71L3123.01 3022.1M3117.37 3004.2L3116.09 3007.96L3114.11 3010.83L3111.63 3012.11M3133.1 3104.3L3131.52 3108.46L3129.93 3112.41" stroke="#010101" stroke-width="17.3336" stroke-linecap="round" stroke-linejoin="round"/>
<path d="M3137.05 3123.79L3137.25 3114.98M3125.78 3131.5H3127.56L3128.65 3131.3L3129.54 3131.11H3129.93L3130.33 3130.91L3130.72 3130.71H3131.12L3132.01 3130.31L3132.7 3129.92L3133.1 3129.72L3133.49 3129.52L3133.89 3129.33L3134.28 3128.93L3134.48 3128.73L3134.88 3128.34L3135.08 3128.14L3135.47 3127.74V3127.54L3135.67 3127.35V3127.15L3135.87 3126.95L3136.07 3126.56L3136.26 3126.16V3125.76L3136.46 3125.57V3124.48M2532 3132.19L2533.78 3132.89L2534.47 3134.67H2588.58L2588.97 3132.89L2589.37 3132.19M2534.37 3134.57L2537.24 3192.23H2587.59L2588.48 3134.57H3011.04L3011.24 3132.79L3011.63 3132.09M3010.94 3134.47L3009.85 3192.14H2587.49L2587.09 3193.72L2586.7 3194.61M2539.62 3194.61L2537.84 3193.72L2537.14 3192.14M3009.95 3192.14L3009.75 3193.72L3009.06 3194.61M2985.42 3631.31H3764.66M3129.83 3140.11H3038.44M3144.47 3124.38V3126.85L3144.27 3127.74L3144.08 3128.63L3143.88 3129.33V3129.72L3143.68 3130.12L3143.48 3130.31V3130.71L3143.09 3131.4L3142.89 3132.09L3142.49 3132.99L3142.1 3133.38L3141.7 3134.07L3141.31 3134.77L3141.11 3134.96L3140.91 3135.16L3140.71 3135.36V3135.56H3140.52L3140.32 3135.75L3139.23 3136.84L3138.14 3137.54L3137.75 3137.93L3137.05 3138.33H3136.66L3136.46 3138.52L3136.26 3138.72H3135.87L3134.58 3139.41L3133.3 3139.61L3132.01 3139.81H3130.72M3145.56 3115.28V3121.71L3145.36 3124.18M3039.82 3134.37H3012.03M3010.94 3192.04H3036.76M3137.35 3124.28H3145.56M3126.07 3132L3128.55 3133.08L3130.33 3135.95L3131.02 3139.91M2587.39 3194.31H2540.31M3009.65 3194.31H2587.29M2968.51 3194.31L2985.91 3631.01M3765.16 3631.01L3785.43 3115.28M3002.43 3647.14H3748.34M3036.26 3191.94L3039.33 3134.27M3033.59 3194.31H3009.55M2666.03 2904H2785.71M2788.38 2919.73V2906.47H2663.36V2919.73M2730.32 2953.95H2734.48" stroke="#010101" stroke-width="17.3336" stroke-linecap="round" stroke-linejoin="round"/>
<path d="M3247.92 3255.95H3239.55L3233.04 3239.5L3227.5 3222.96L3222.04 3239.65L3215.68 3255.95H3207.3L3188.08 3203.59H3199.15L3211.5 3241.37L3224.21 3203.59H3230.64L3243.74 3241.37L3255.7 3203.59H3266.78L3247.92 3255.95Z" fill="black"/>
<path d="M3309.24 3255.95H3270.05C3270.05 3238.52 3270.05 3221.02 3270.05 3203.59H3309.24V3213.16H3279.85V3225.21H3308.2V3234.41H3279.85V3246.23H3309.24V3255.95Z" fill="black"/>
<path d="M3355.24 3246.07H3327.86L3323.37 3255.94H3312.68L3336.17 3203.58H3346.94L3370.42 3255.94H3359.65L3355.24 3246.07ZM3341.55 3214.58L3331.83 3236.87H3351.27L3341.55 3214.58Z" fill="black"/>
<path d="M3377.24 3212.57H3360.63V3203.59C3375.74 3203.59 3388.53 3203.59 3403.72 3203.59V3212.57H3387.11V3255.95H3377.24V3212.57Z" fill="black"/>
<path d="M3442.75 3256.03V3234.86H3417.02V3256.03H3407.15V3203.67H3417.02V3225.73H3442.75V3203.67H3452.55V3256.03H3442.75Z" fill="black"/>
<path d="M3498.26 3255.95H3459.06C3459.06 3238.52 3459.06 3221.02 3459.06 3203.59H3498.26V3213.16H3468.86V3225.21H3497.21V3234.41H3468.86V3246.23H3498.26V3255.95Z" fill="black"/>
<path d="M3549.71 3255.95H3537.96L3522.71 3238.45H3513.21V3255.95H3503.33V3203.52C3511.64 3203.52 3519.94 3203.59 3528.24 3203.59C3540.58 3203.67 3547.09 3211.89 3547.09 3220.95C3547.09 3228.13 3543.8 3235.38 3533.85 3237.4L3549.71 3255.28V3255.95H3549.71ZM3513.21 3212.79V3229.55H3528.24C3534.52 3229.55 3537.22 3225.36 3537.22 3221.17C3537.22 3216.98 3534.45 3212.79 3528.24 3212.79H3513.21V3212.79Z" fill="black"/>
<path d="M3224.89 3363.13L3259.84 3302.59H3189.93L3224.89 3363.13Z" fill="black"/>
<path d="M3259.84 3302.59L3224.89 3363.13H3294.79L3259.84 3302.59Z" fill="black"/>
<path d="M3224.89 3363.13L3259.84 3302.59L3259.84 3302.59L3294.79 3363.13L3224.89 3363.13ZM3259.84 3302.59L3224.89 3363.13L3294.79 3363.13L3259.84 3302.59Z" fill="black"/>
<path d="M3259.84 3423.67L3294.79 3363.13H3224.89L3259.84 3423.67Z" fill="black"/>
<path d="M3259.84 3423.67L3224.89 3363.13L3294.79 3363.13L3259.84 3423.67ZM3294.79 3363.13L3224.89 3363.13L3259.84 3423.67L3294.79 3363.13Z" fill="black"/>
<path d="M3294.79 3363.13L3259.84 3423.67H3329.75L3294.79 3363.13Z" fill="black"/>
<path d="M3259.84 3423.67L3294.79 3363.13L3329.75 3423.67H3259.84ZM3294.79 3363.13L3259.84 3423.67L3329.75 3423.67L3294.79 3363.13Z" fill="black"/>
<path d="M3329.75 3423.67L3294.79 3484.21H3364.7L3329.75 3423.67Z" fill="black"/>
<path d="M3294.79 3484.21L3329.75 3423.67V3423.67L3364.7 3484.21H3294.79ZM3329.75 3423.67L3294.79 3484.21L3364.7 3484.21L3329.75 3423.67Z" fill="black"/>
<path d="M3539.46 3302.59L3504.51 3363.13H3574.42L3539.46 3302.59Z" fill="black"/>
<path d="M3504.51 3363.13L3539.46 3302.59L3574.42 3363.13H3504.51ZM3539.46 3302.59L3504.51 3363.13L3574.42 3363.13L3539.46 3302.59Z" fill="black"/>
<path d="M3364.7 3484.21L3329.75 3544.75H3399.65L3364.7 3484.21Z" fill="black"/>
<path d="M3329.75 3544.75L3364.7 3484.21L3399.65 3544.75L3329.75 3544.75ZM3364.7 3484.21L3329.75 3544.75L3399.65 3544.75L3364.7 3484.21Z" fill="black"/>
<path d="M3434.6 3363.13L3399.65 3423.67H3469.56L3434.6 3363.13Z" fill="black"/>
<path d="M3399.65 3423.67L3434.6 3363.13L3469.56 3423.67H3399.65ZM3434.6 3363.13L3399.65 3423.67L3469.56 3423.67L3434.6 3363.13Z" fill="black"/>
<path d="M3259.84 3423.67L3224.89 3484.21H3294.79L3259.84 3423.67Z" fill="black"/>
<path d="M3224.89 3484.21L3259.84 3423.67V3423.67L3294.79 3484.21L3224.89 3484.21ZM3259.84 3423.67L3224.89 3484.21L3294.79 3484.21L3259.84 3423.67Z" fill="black"/>
<path d="M3329.75 3302.59L3294.79 3363.13L3364.7 3363.13L3329.75 3302.59Z" fill="black"/>
<path d="M3294.79 3363.13L3329.75 3302.59L3364.7 3363.13L3294.79 3363.13ZM3329.75 3302.59L3294.79 3363.13L3364.7 3363.13L3329.75 3302.59Z" fill="black"/>
<path d="M3399.65 3302.59L3364.7 3363.13L3434.6 3363.13L3399.65 3302.59Z" fill="black"/>
<path d="M3364.7 3363.13L3399.65 3302.59L3434.6 3363.13L3364.7 3363.13ZM3399.65 3302.59L3364.7 3363.13L3434.6 3363.13L3399.65 3302.59Z" fill="black"/>
<path d="M3259.84 3544.75L3294.79 3484.21H3224.89L3259.84 3544.75Z" fill="black"/>
<path d="M3259.84 3544.75L3224.89 3484.21L3294.79 3484.21L3259.84 3544.75ZM3294.79 3484.21L3224.89 3484.21L3259.84 3544.75L3294.79 3484.21Z" fill="black"/>
<path d="M3504.51 3363.13L3539.46 3302.59L3469.56 3302.59L3504.51 3363.13Z" fill="black"/>
<path d="M3504.51 3363.13L3469.56 3302.59L3539.46 3302.59L3504.51 3363.13ZM3539.46 3302.59L3469.56 3302.59L3504.51 3363.13L3539.46 3302.59Z" fill="black"/>
<path d="M3364.7 3363.13L3399.65 3302.59H3329.75L3364.7 3363.13Z" fill="black"/>
<path d="M3364.7 3363.13L3329.75 3302.59L3399.65 3302.59L3364.7 3363.13ZM3399.65 3302.59L3329.75 3302.59L3364.7 3363.13L3399.65 3302.59Z" fill="black"/>
<path d="M3329.75 3423.67L3364.7 3363.13L3294.79 3363.13L3329.75 3423.67Z" fill="black"/>
<path d="M3329.75 3423.67L3294.79 3363.13L3364.7 3363.13L3329.75 3423.67ZM3364.7 3363.13L3294.79 3363.13L3329.75 3423.67L3364.7 3363.13Z" fill="black"/>
<path d="M3399.65 3423.67L3434.6 3363.13L3364.7 3363.13L3399.65 3423.67Z" fill="black"/>
<path d="M3399.65 3423.67L3364.7 3363.13L3434.6 3363.13L3399.65 3423.67ZM3434.6 3363.13L3364.7 3363.13L3399.65 3423.67L3434.6 3363.13Z" fill="black"/>
<path d="M3294.79 3484.21L3329.75 3423.67H3259.84L3294.79 3484.21Z" fill="black"/>
<path d="M3294.79 3484.21L3259.84 3423.67L3329.75 3423.67L3294.79 3484.21ZM3329.75 3423.67L3259.84 3423.67L3294.79 3484.21L3329.75 3423.67Z" fill="black"/>
<path d="M3434.6 3484.21L3469.56 3423.67H3399.65L3434.6 3484.21Z" fill="black"/>
<path d="M3434.6 3484.21L3399.65 3423.67L3469.56 3423.67L3434.6 3484.21ZM3469.56 3423.67H3399.65L3434.6 3484.21L3469.56 3423.67Z" fill="black"/>
<path d="M3329.75 3544.75L3364.7 3484.21H3294.79L3329.75 3544.75Z" fill="black"/>
<path d="M3329.75 3544.75L3294.79 3484.21L3364.7 3484.21L3329.75 3544.75ZM3364.7 3484.21L3294.79 3484.21L3329.75 3544.75L3364.7 3484.21Z" fill="black"/>
<path d="M3539.46 3423.67L3574.42 3363.13H3504.51L3539.46 3423.67Z" fill="black"/>
<path d="M3539.46 3423.67L3504.51 3363.13L3574.42 3363.13L3539.46 3423.67ZM3574.42 3363.13H3504.51L3539.46 3423.67L3574.42 3363.13Z" fill="black"/>
<path d="M3469.56 3423.67L3504.51 3363.13L3434.6 3363.13L3469.56 3423.67Z" fill="black"/>
<path d="M3469.56 3423.67L3434.6 3363.13L3504.51 3363.13L3469.56 3423.67ZM3504.51 3363.13L3434.6 3363.13L3469.56 3423.67L3504.51 3363.13Z" fill="black"/>
<path d="M3224.89 3363.13L3189.93 3302.59L3259.84 3302.59L3224.89 3363.13ZM3259.84 3302.59L3189.93 3302.59L3224.89 3363.13L3259.84 3302.59Z" fill="black"/>
<path d="M3224.89 3484.21L3189.93 3544.75H3259.84L3224.89 3484.21Z" fill="black"/>
<path d="M3189.93 3544.75L3224.89 3484.21V3484.21L3259.84 3544.75L3189.93 3544.75ZM3224.89 3484.21L3189.93 3544.75L3259.84 3544.75L3224.89 3484.21Z" fill="black"/>
<path d="M3469.56 3302.59L3434.6 3363.13L3504.51 3363.13L3469.56 3302.59Z" fill="black"/>
<path d="M3434.6 3363.13L3469.56 3302.59L3504.51 3363.13L3434.6 3363.13ZM3469.56 3302.59L3434.6 3363.13L3504.51 3363.13L3469.56 3302.59Z" fill="black"/>
<path d="M4915.61 2955.43L4912.94 2955.04L4910.47 2954.35L4907.8 2953.65L4905.33 2952.96L4902.65 2952.27L4900.18 2951.58L4899.09 2951.18L4897.81 2950.78L4897.41 2950.59H4896.72L4896.03 2950.39L4895.33 2950.19L4893.16 2949.3L4890.69 2948.61L4888.51 2947.72L4886.33 2946.83L4882.18 2945.05L4878.22 2943.27L4877.13 2942.87L4876.24 2942.48L4875.35 2942.08L4874.27 2941.68L4872.49 2940.79L4870.71 2939.9L4867.44 2937.93L4864.57 2936.14L4863.29 2935.06L4861.7 2934.17L4861.31 2933.77L4860.62 2933.38L4860.22 2933.18L4860.02 2932.78L4859.82 2932.58L4859.43 2932.39L4857.45 2930.61L4855.47 2928.63M4918.68 2955.83L4918.48 2956.03H4917.59V2956.22H4917.39L4917.19 2956.03H4916.11L4915.91 2955.83M4918.58 2952.56H4919.27L4919.96 2952.76L4920.66 2952.96H4921.35L4922.04 2953.16L4924.71 2953.55L4927.38 2953.95L4930.05 2954.35L4932.72 2954.74L4934.01 2954.94L4935.3 2955.14H4935.69M4938.36 2959.79L4938.16 2959.59H4937.47V2959.39H4936.58L4936.38 2959.19L4936.19 2958.99H4935.99L4935.79 2958.8V2958.6M5004.24 2949.99V2950.39L5004.04 2951.08V2951.48L5003.65 2952.56L5002.95 2953.65L5002.06 2954.54L5000.97 2955.43L5000.58 2955.63L5000.38 2955.83L5000.18 2956.03H4999.99L4999.79 2956.22H4999.59L4998.9 2956.62L4998.01 2957.02L4996.23 2957.71L4994.25 2958.4L4992.07 2959.09L4989.6 2959.79H4988.91L4988.21 2959.98H4987.52L4987.13 2960.18H4986.73L4985.44 2960.38L4983.86 2960.58L4980.99 2960.77L4977.73 2961.17H4974.47L4970.9 2961.37H4959.63L4955.47 2961.17L4951.52 2960.77L4947.36 2960.58H4946.97L4946.28 2960.38H4945.19L4944.3 2960.18H4943.21L4941.03 2959.98L4938.86 2959.79M5169.42 2957.61L5004.24 2942.18M5151.92 2955.63L5152.61 2936.84H5723.14H6002.77L6009 3108.25H5345M6001.88 3115.57L6008.9 3108.25M5344.9 3108.25L5346.68 3112.01L5348.66 3115.57H6001.78M6002.67 2936.84L5990.11 2924.47M5165.37 2924.47L5152.51 2936.84M5165.27 2924.47H5718.59H5990.01H5989.81M5336.49 3107.36H5337.78L5337.97 3107.56H5340.15L5340.35 3107.76H5342.13V3107.96H5343.41V3108.16H5344.7M5348.46 3115.48H5333.42M5177.83 2949V2950.29L5177.63 2950.69V2951.08L5177.44 2951.48V2951.87L5177.24 2952.07L5176.84 2952.96L5176.45 2953.65V2953.85L5176.25 2954.05H5176.05V2954.25L5175.85 2954.64L5175.46 2954.84L5175.26 2955.04L5175.06 2955.24L5174.86 2955.43H5174.67L5174.47 2955.63V2955.83L5173.58 2956.03L5172.89 2956.42H5172.49L5172.29 2956.62H5171.4L5170.51 2956.82H5169.82M5004.54 2949L5003.45 2922.1M4851.91 2922.1L4851.71 2927.14M4936.09 2957.61L4936.48 2939.71L4937.18 2922M4918.18 2922L4918.58 2938.32L4919.27 2954.64M4939.85 2919.53H5001.07M4854.38 2919.53H4915.81" stroke="#010101" stroke-width="17.3336" stroke-linecap="round" stroke-linejoin="round"/>
<path d="M5313.44 3013.5L5301.07 3010.43L5289.4 3007.56L5277.93 3004.3L5266.85 3001.23L5261.31 2999.45L5255.97 2997.67L5253.5 2996.78L5250.82 2995.89L5249.54 2995.5L5248.25 2995.1L5247.16 2994.7L5245.88 2994.31L5235.99 2990.75L5226.69 2987.19L5217.89 2983.43L5209.48 2979.67L5207.3 2978.78L5205.32 2977.69L5203.35 2976.8L5201.37 2975.91L5197.61 2973.93L5193.85 2971.95L5187.03 2968L5180.4 2964.24L5177.33 2962.26L5174.46 2960.28L5172.88 2959.2L5171.59 2958.3L5170.31 2957.41L5169.02 2956.33M5333.62 3021.61L5339.15 3064.04L5344.89 3106.28M5319.67 3005.09L5320.76 3005.49L5322.04 3005.88L5323.13 3006.28L5324.42 3006.97L5324.81 3007.37L5325.5 3007.76L5325.7 3007.96H5325.9L5326.3 3008.16L5326.49 3008.36L5327.58 3009.44L5328.47 3010.33L5329.36 3011.42L5330.25 3012.71L5330.45 3012.91L5330.65 3013.3L5330.85 3013.5L5331.04 3013.89L5331.24 3014.59L5331.64 3015.28L5332.03 3016.56L5332.72 3018.15V3019.04L5332.92 3019.24V3019.63L5333.12 3020.52V3021.21M5177.43 2947.03L5178.52 2947.92L5179.8 2949.01L5180.69 2949.4L5181.39 2949.8L5182.08 2950.49L5182.77 2950.89L5185.64 2952.86L5188.51 2954.84L5194.94 2958.6L5201.76 2962.56L5209.08 2966.51L5216.8 2970.27L5225.01 2974.03L5233.61 2977.79L5242.91 2981.55L5252.41 2985.11L5253.69 2985.51L5254.78 2985.9L5256.07 2986.3L5257.35 2986.69L5259.83 2987.58L5262.5 2988.47L5267.84 2990.25L5273.18 2991.84L5283.96 2995.1L5295.24 2998.36L5307.21 3001.43L5319.37 3004.3M5166.75 2954.65L5167.84 2953.75L5170.01 2951.97L5172.49 2950.19L5173.57 2949.3L5174.86 2948.41L5176.14 2947.52L5177.43 2946.63M5333.12 3020.82L5329.16 3021.71L5325.01 3022.1M5319.37 3004.2L5318.09 3007.96L5316.11 3010.83L5313.63 3012.11M5335.1 3104.3L5333.52 3108.46L5331.93 3112.41" stroke="#010101" stroke-width="17.3336" stroke-linecap="round" stroke-linejoin="round"/>
<path d="M5339.05 3123.79L5339.25 3114.98M5327.78 3131.5H5329.56L5330.65 3131.3L5331.54 3131.11H5331.93L5332.33 3130.91L5332.72 3130.71H5333.12L5334.01 3130.31L5334.7 3129.92L5335.1 3129.72L5335.49 3129.52L5335.89 3129.33L5336.28 3128.93L5336.48 3128.73L5336.88 3128.34L5337.08 3128.14L5337.47 3127.74V3127.54L5337.67 3127.35V3127.15L5337.87 3126.95L5338.07 3126.56L5338.26 3126.16V3125.76L5338.46 3125.57V3124.48M4734 3132.19L4735.78 3132.89L4736.47 3134.67H4790.58L4790.97 3132.89L4791.37 3132.19M4736.37 3134.57L4739.24 3192.23H4789.59L4790.48 3134.57H5213.04L5213.24 3132.79L5213.63 3132.09M5212.94 3134.47L5211.85 3192.14H4789.49L4789.09 3193.72L4788.7 3194.61M4741.62 3194.61L4739.84 3193.72L4739.14 3192.14M5211.95 3192.14L5211.75 3193.72L5211.06 3194.61M5187.42 3631.31H5966.66M5331.83 3140.11H5240.44M5346.47 3124.38V3126.85L5346.27 3127.74L5346.08 3128.63L5345.88 3129.33V3129.72L5345.68 3130.12L5345.48 3130.31V3130.71L5345.09 3131.4L5344.89 3132.09L5344.49 3132.99L5344.1 3133.38L5343.7 3134.07L5343.31 3134.77L5343.11 3134.96L5342.91 3135.16L5342.71 3135.36V3135.56H5342.52L5342.32 3135.75L5341.23 3136.84L5340.14 3137.54L5339.75 3137.93L5339.05 3138.33H5338.66L5338.46 3138.52L5338.26 3138.72H5337.87L5336.58 3139.41L5335.3 3139.61L5334.01 3139.81H5332.72M5347.56 3115.28V3121.71L5347.36 3124.18M5241.82 3134.37H5214.03M5212.94 3192.04H5238.76M5339.35 3124.28H5347.56M5328.07 3132L5330.55 3133.08L5332.33 3135.95L5333.02 3139.91M4789.39 3194.31H4742.31M5211.65 3194.31H4789.29M5170.51 3194.31L5187.91 3631.01M5967.16 3631.01L5987.43 3115.28M5204.43 3647.14H5950.34M5238.26 3191.94L5241.33 3134.27M5235.59 3194.31H5211.55M4868.03 2904H4987.71M4990.38 2919.73V2906.47H4865.36V2919.73M4932.32 2953.95H4936.48" stroke="#010101" stroke-width="17.3336" stroke-linecap="round" stroke-linejoin="round"/>
<path d="M5449.92 3255.95H5441.55L5435.04 3239.5L5429.5 3222.96L5424.04 3239.65L5417.68 3255.95H5409.3L5390.08 3203.59H5401.15L5413.49 3241.37L5426.21 3203.59H5432.64L5445.74 3241.37L5457.7 3203.59H5468.78L5449.92 3255.95Z" fill="black"/>
<path d="M5511.24 3255.95H5472.05C5472.05 3238.52 5472.05 3221.02 5472.05 3203.59H5511.24V3213.16H5481.85V3225.21H5510.2V3234.41H5481.85V3246.23H5511.24V3255.95Z" fill="black"/>
<path d="M5557.24 3246.07H5529.86L5525.37 3255.94H5514.68L5538.16 3203.58H5548.94L5572.42 3255.94H5561.65L5557.24 3246.07ZM5543.55 3214.58L5533.83 3236.87H5553.27L5543.55 3214.58Z" fill="black"/>
<path d="M5579.24 3212.57H5562.63V3203.59C5577.74 3203.59 5590.53 3203.59 5605.72 3203.59V3212.57H5589.11V3255.95H5579.24V3212.57Z" fill="black"/>
<path d="M5644.75 3256.03V3234.86H5619.02V3256.03H5609.15V3203.67H5619.02V3225.73H5644.75V3203.67H5654.55V3256.03H5644.75Z" fill="black"/>
<path d="M5700.26 3255.95H5661.06C5661.06 3238.52 5661.06 3221.02 5661.06 3203.59H5700.26V3213.16H5670.86V3225.21H5699.21V3234.41H5670.86V3246.23H5700.26V3255.95Z" fill="black"/>
<path d="M5751.71 3255.95H5739.96L5724.71 3238.45H5715.21V3255.95H5705.33V3203.52C5713.64 3203.52 5721.94 3203.59 5730.24 3203.59C5742.58 3203.67 5749.09 3211.89 5749.09 3220.95C5749.09 3228.13 5745.8 3235.38 5735.85 3237.4L5751.71 3255.28V3255.95H5751.71ZM5715.21 3212.79V3229.55H5730.24C5736.52 3229.55 5739.22 3225.36 5739.22 3221.17C5739.22 3216.98 5736.45 3212.79 5730.24 3212.79H5715.21V3212.79Z" fill="black"/>
<path d="M5426.89 3363.13L5461.84 3302.59H5391.93L5426.89 3363.13Z" fill="black"/>
<path d="M5461.84 3302.59L5426.89 3363.13H5496.79L5461.84 3302.59Z" fill="black"/>
<path d="M5426.89 3363.13L5461.84 3302.59L5461.84 3302.59L5496.79 3363.13L5426.89 3363.13ZM5461.84 3302.59L5426.89 3363.13L5496.79 3363.13L5461.84 3302.59Z" fill="black"/>
<path d="M5461.84 3423.67L5496.79 3363.13H5426.89L5461.84 3423.67Z" fill="black"/>
<path d="M5461.84 3423.67L5426.89 3363.13L5496.79 3363.13L5461.84 3423.67ZM5496.79 3363.13L5426.89 3363.13L5461.84 3423.67L5496.79 3363.13Z" fill="black"/>
<path d="M5496.79 3363.13L5461.84 3423.67H5531.74L5496.79 3363.13Z" fill="black"/>
<path d="M5461.84 3423.67L5496.79 3363.13L5531.74 3423.67H5461.84ZM5496.79 3363.13L5461.84 3423.67L5531.74 3423.67L5496.79 3363.13Z" fill="black"/>
<path d="M5531.74 3423.67L5496.79 3484.21H5566.7L5531.74 3423.67Z" fill="black"/>
<path d="M5496.79 3484.21L5531.74 3423.67V3423.67L5566.7 3484.21H5496.79ZM5531.74 3423.67L5496.79 3484.21L5566.7 3484.21L5531.74 3423.67Z" fill="black"/>
<path d="M5741.46 3302.59L5706.51 3363.13H5776.42L5741.46 3302.59Z" fill="black"/>
<path d="M5706.51 3363.13L5741.46 3302.59L5776.42 3363.13H5706.51ZM5741.46 3302.59L5706.51 3363.13L5776.42 3363.13L5741.46 3302.59Z" fill="black"/>
<path d="M5566.7 3484.21L5531.75 3544.75H5601.65L5566.7 3484.21Z" fill="black"/>
<path d="M5531.75 3544.75L5566.7 3484.21L5601.65 3544.75L5531.75 3544.75ZM5566.7 3484.21L5531.75 3544.75L5601.65 3544.75L5566.7 3484.21Z" fill="black"/>
<path d="M5636.6 3363.13L5601.65 3423.67H5671.56L5636.6 3363.13Z" fill="black"/>
<path d="M5601.65 3423.67L5636.6 3363.13L5671.56 3423.67H5601.65ZM5636.6 3363.13L5601.65 3423.67L5671.56 3423.67L5636.6 3363.13Z" fill="black"/>
<path d="M5461.84 3423.67L5426.89 3484.21H5496.79L5461.84 3423.67Z" fill="black"/>
<path d="M5426.89 3484.21L5461.84 3423.67V3423.67L5496.79 3484.21L5426.89 3484.21ZM5461.84 3423.67L5426.89 3484.21L5496.79 3484.21L5461.84 3423.67Z" fill="black"/>
<path d="M5531.75 3302.59L5496.79 3363.13L5566.7 3363.13L5531.75 3302.59Z" fill="black"/>
<path d="M5496.79 3363.13L5531.75 3302.59L5566.7 3363.13L5496.79 3363.13ZM5531.75 3302.59L5496.79 3363.13L5566.7 3363.13L5531.75 3302.59Z" fill="black"/>
<path d="M5601.65 3302.59L5566.7 3363.13L5636.6 3363.13L5601.65 3302.59Z" fill="black"/>
<path d="M5566.7 3363.13L5601.65 3302.59L5636.6 3363.13L5566.7 3363.13ZM5601.65 3302.59L5566.7 3363.13L5636.6 3363.13L5601.65 3302.59Z" fill="black"/>
<path d="M5461.84 3544.75L5496.79 3484.21H5426.89L5461.84 3544.75Z" fill="black"/>
<path d="M5461.84 3544.75L5426.89 3484.21L5496.79 3484.21L5461.84 3544.75ZM5496.79 3484.21L5426.89 3484.21L5461.84 3544.75L5496.79 3484.21Z" fill="black"/>
<path d="M5706.51 3363.13L5741.46 3302.59L5671.56 3302.59L5706.51 3363.13Z" fill="black"/>
<path d="M5706.51 3363.13L5671.56 3302.59L5741.46 3302.59L5706.51 3363.13ZM5741.46 3302.59L5671.56 3302.59L5706.51 3363.13L5741.46 3302.59Z" fill="black"/>
<path d="M5566.7 3363.13L5601.65 3302.59H5531.75L5566.7 3363.13Z" fill="black"/>
<path d="M5566.7 3363.13L5531.75 3302.59L5601.65 3302.59L5566.7 3363.13ZM5601.65 3302.59L5531.75 3302.59L5566.7 3363.13L5601.65 3302.59Z" fill="black"/>
<path d="M5531.74 3423.67L5566.7 3363.13L5496.79 3363.13L5531.74 3423.67Z" fill="black"/>
<path d="M5531.75 3423.67L5496.79 3363.13L5566.7 3363.13L5531.75 3423.67ZM5566.7 3363.13L5496.79 3363.13L5531.75 3423.67L5566.7 3363.13Z" fill="black"/>
<path d="M5601.65 3423.67L5636.6 3363.13L5566.7 3363.13L5601.65 3423.67Z" fill="black"/>
<path d="M5601.65 3423.67L5566.7 3363.13L5636.6 3363.13L5601.65 3423.67ZM5636.6 3363.13L5566.7 3363.13L5601.65 3423.67L5636.6 3363.13Z" fill="black"/>
<path d="M5496.79 3484.21L5531.74 3423.67H5461.84L5496.79 3484.21Z" fill="black"/>
<path d="M5496.79 3484.21L5461.84 3423.67L5531.74 3423.67L5496.79 3484.21ZM5531.74 3423.67L5461.84 3423.67L5496.79 3484.21L5531.74 3423.67Z" fill="black"/>
<path d="M5636.6 3484.21L5671.56 3423.67H5601.65L5636.6 3484.21Z" fill="black"/>
<path d="M5636.6 3484.21L5601.65 3423.67L5671.56 3423.67L5636.6 3484.21ZM5671.56 3423.67H5601.65L5636.6 3484.21L5671.56 3423.67Z" fill="black"/>
<path d="M5531.75 3544.75L5566.7 3484.21H5496.79L5531.75 3544.75Z" fill="black"/>
<path d="M5531.75 3544.75L5496.79 3484.21L5566.7 3484.21L5531.75 3544.75ZM5566.7 3484.21L5496.79 3484.21L5531.75 3544.75L5566.7 3484.21Z" fill="black"/>
<path d="M5741.46 3423.67L5776.42 3363.13H5706.51L5741.46 3423.67Z" fill="black"/>
<path d="M5741.46 3423.67L5706.51 3363.13L5776.42 3363.13L5741.46 3423.67ZM5776.42 3363.13H5706.51L5741.46 3423.67L5776.42 3363.13Z" fill="black"/>
<path d="M5671.56 3423.67L5706.51 3363.13L5636.6 3363.13L5671.56 3423.67Z" fill="black"/>
<path d="M5671.56 3423.67L5636.6 3363.13L5706.51 3363.13L5671.56 3423.67ZM5706.51 3363.13L5636.6 3363.13L5671.56 3423.67L5706.51 3363.13Z" fill="black"/>
<path d="M5426.89 3363.13L5391.93 3302.59L5461.84 3302.59L5426.89 3363.13ZM5461.84 3302.59L5391.93 3302.59L5426.89 3363.13L5461.84 3302.59Z" fill="black"/>
<path d="M5426.89 3484.21L5391.93 3544.75H5461.84L5426.89 3484.21Z" fill="black"/>
<path d="M5391.93 3544.75L5426.89 3484.21V3484.21L5461.84 3544.75L5391.93 3544.75ZM5426.89 3484.21L5391.93 3544.75L5461.84 3544.75L5426.89 3484.21Z" fill="black"/>
<path d="M5671.56 3302.59L5636.6 3363.13L5706.51 3363.13L5671.56 3302.59Z" fill="black"/>
<path d="M5636.6 3363.13L5671.56 3302.59L5706.51 3363.13L5636.6 3363.13ZM5671.56 3302.59L5636.6 3363.13L5706.51 3363.13L5671.56 3302.59Z" fill="black"/>
</svg>
