<?xml version="1.0" encoding="UTF-8"?>
<svg xmlns="http://www.w3.org/2000/svg" xmlns:xlink="http://www.w3.org/1999/xlink" width="11px" height="13px" viewBox="0 0 11 12" version="1.1">
<g id="surface1">
<path style=" stroke:none;fill-rule:nonzero;fill:rgb(76.470588%,19.215686%,48.627451%);fill-opacity:1;" d="M 10.769531 6.53125 L 6.839844 10.28125 C 6.6875 10.425781 6.488281 10.5 6.285156 10.5 C 6.085938 10.5 5.882812 10.425781 5.730469 10.28125 C 5.421875 9.988281 5.421875 9.511719 5.730469 9.21875 L 8.320312 6.75 L 0.785156 6.75 C 0.351562 6.75 0 6.414062 0 6 C 0 5.585938 0.351562 5.25 0.785156 5.25 L 8.320312 5.25 L 5.730469 2.78125 C 5.425781 2.488281 5.425781 2.011719 5.730469 1.71875 C 6.039062 1.425781 6.535156 1.425781 6.84375 1.71875 L 10.769531 5.46875 C 11.074219 5.761719 11.074219 6.238281 10.769531 6.53125 Z M 10.769531 6.53125 "/>
</g>
</svg>
