<?xml version="1.0" encoding="UTF-8"?>
<svg xmlns="http://www.w3.org/2000/svg" xmlns:xlink="http://www.w3.org/1999/xlink" width="13px" height="12px" viewBox="0 0 13 12" version="1.1">
<g id="surface1">
<path style=" stroke:none;fill-rule:nonzero;fill:rgb(76.470588%,19.215686%,48.627451%);fill-opacity:1;" d="M 11.921875 1.089844 L 8.769531 1.089844 C 7.683594 1.089844 6.738281 1.871094 6.503906 2.972656 C 6.261719 1.871094 5.320312 1.089844 4.234375 1.089844 L 1.082031 1.089844 C 0.484375 1.089844 0 1.59375 0 2.214844 L 0 7.976562 C 0 8.597656 0.484375 9.101562 1.082031 9.101562 L 3.109375 9.101562 C 5.414062 9.101562 6.101562 9.671875 6.433594 10.859375 C 6.449219 10.925781 6.550781 10.925781 6.566406 10.859375 C 6.898438 9.671875 7.585938 9.101562 9.890625 9.101562 L 11.917969 9.101562 C 12.515625 9.101562 13 8.597656 13 7.976562 L 13 2.21875 C 13 1.597656 12.519531 1.09375 11.921875 1.089844 Z M 5.460938 7.308594 C 5.460938 7.355469 5.429688 7.390625 5.382812 7.390625 L 1.765625 7.390625 C 1.722656 7.390625 1.6875 7.355469 1.6875 7.308594 L 1.6875 6.773438 C 1.6875 6.730469 1.71875 6.691406 1.765625 6.691406 L 5.386719 6.691406 C 5.429688 6.691406 5.464844 6.726562 5.464844 6.773438 L 5.464844 7.308594 Z M 5.460938 5.882812 C 5.460938 5.925781 5.429688 5.964844 5.382812 5.964844 L 1.765625 5.964844 C 1.722656 5.964844 1.6875 5.929688 1.6875 5.882812 L 1.6875 5.347656 C 1.6875 5.300781 1.71875 5.265625 1.765625 5.265625 L 5.386719 5.265625 C 5.429688 5.265625 5.464844 5.300781 5.464844 5.347656 L 5.464844 5.882812 Z M 5.460938 4.457031 C 5.460938 4.5 5.429688 4.539062 5.382812 4.539062 L 1.765625 4.539062 C 1.722656 4.539062 1.6875 4.503906 1.6875 4.457031 L 1.6875 3.917969 C 1.6875 3.875 1.71875 3.835938 1.765625 3.835938 L 5.386719 3.835938 C 5.429688 3.835938 5.464844 3.871094 5.464844 3.917969 L 5.464844 4.457031 Z M 11.3125 7.308594 C 11.3125 7.351562 11.28125 7.390625 11.234375 7.390625 L 7.617188 7.390625 C 7.574219 7.390625 7.539062 7.355469 7.539062 7.308594 L 7.539062 6.769531 C 7.539062 6.726562 7.570312 6.6875 7.617188 6.6875 L 11.238281 6.6875 C 11.28125 6.6875 11.316406 6.722656 11.316406 6.769531 L 11.316406 7.308594 Z M 11.3125 5.878906 C 11.3125 5.925781 11.28125 5.960938 11.234375 5.960938 L 7.617188 5.960938 C 7.574219 5.960938 7.539062 5.925781 7.539062 5.878906 L 7.539062 5.34375 C 7.539062 5.300781 7.570312 5.261719 7.617188 5.261719 L 11.238281 5.261719 C 11.28125 5.261719 11.316406 5.296875 11.316406 5.34375 L 11.316406 5.878906 Z M 11.3125 4.453125 C 11.3125 4.496094 11.28125 4.535156 11.234375 4.535156 L 7.617188 4.535156 C 7.574219 4.535156 7.539062 4.5 7.539062 4.453125 L 7.539062 3.917969 C 7.539062 3.875 7.570312 3.835938 7.617188 3.835938 L 11.238281 3.835938 C 11.28125 3.835938 11.316406 3.871094 11.316406 3.917969 L 11.316406 4.453125 Z M 11.3125 4.453125 "/>
</g>
</svg>
